G04 #@! TF.GenerationSoftware,KiCad,Pcbnew,8.0.8*
G04 #@! TF.CreationDate,2025-01-22T20:08:13-06:00*
G04 #@! TF.ProjectId,touch-pads,746f7563-682d-4706-9164-732e6b696361,rev?*
G04 #@! TF.SameCoordinates,Original*
G04 #@! TF.FileFunction,Copper,L1,Top*
G04 #@! TF.FilePolarity,Positive*
%FSLAX46Y46*%
G04 Gerber Fmt 4.6, Leading zero omitted, Abs format (unit mm)*
G04 Created by KiCad (PCBNEW 8.0.8) date 2025-01-22 20:08:13*
%MOMM*%
%LPD*%
G01*
G04 APERTURE LIST*
G04 Aperture macros list*
%AMRoundRect*
0 Rectangle with rounded corners*
0 $1 Rounding radius*
0 $2 $3 $4 $5 $6 $7 $8 $9 X,Y pos of 4 corners*
0 Add a 4 corners polygon primitive as box body*
4,1,4,$2,$3,$4,$5,$6,$7,$8,$9,$2,$3,0*
0 Add four circle primitives for the rounded corners*
1,1,$1+$1,$2,$3*
1,1,$1+$1,$4,$5*
1,1,$1+$1,$6,$7*
1,1,$1+$1,$8,$9*
0 Add four rect primitives between the rounded corners*
20,1,$1+$1,$2,$3,$4,$5,0*
20,1,$1+$1,$4,$5,$6,$7,0*
20,1,$1+$1,$6,$7,$8,$9,0*
20,1,$1+$1,$8,$9,$2,$3,0*%
G04 Aperture macros list end*
G04 #@! TA.AperFunction,SMDPad,CuDef*
%ADD10R,0.420000X1.300000*%
G04 #@! TD*
G04 #@! TA.AperFunction,SMDPad,CuDef*
%ADD11RoundRect,0.519231X-12.980769X-22.230769X12.980769X-22.230769X12.980769X22.230769X-12.980769X22.230769X0*%
G04 #@! TD*
G04 #@! TA.AperFunction,SMDPad,CuDef*
%ADD12RoundRect,0.519231X12.980769X22.230769X-12.980769X22.230769X-12.980769X-22.230769X12.980769X-22.230769X0*%
G04 #@! TD*
G04 #@! TA.AperFunction,ViaPad*
%ADD13C,0.600000*%
G04 #@! TD*
G04 #@! TA.AperFunction,Conductor*
%ADD14C,0.200000*%
G04 #@! TD*
G04 APERTURE END LIST*
D10*
X242700000Y-130500000D03*
X243550000Y-130500000D03*
X244400000Y-130500000D03*
X245250000Y-130500000D03*
X232975000Y-130500000D03*
X233825000Y-130500000D03*
X234675000Y-130500000D03*
X235525000Y-130500000D03*
X281225000Y-130500000D03*
X282075000Y-130500000D03*
X282925000Y-130500000D03*
X283775000Y-130500000D03*
X310250000Y-130500000D03*
X311100000Y-130500000D03*
X311950000Y-130500000D03*
X312800000Y-130500000D03*
X223225000Y-130500000D03*
X224075000Y-130500000D03*
X224925000Y-130500000D03*
X225775000Y-130500000D03*
X213700000Y-130500000D03*
X214550000Y-130500000D03*
X215400000Y-130500000D03*
X216250000Y-130500000D03*
D11*
X248750000Y-209000000D03*
D12*
X248750000Y-161500000D03*
D10*
X252250000Y-130500000D03*
X253100000Y-130500000D03*
X253950000Y-130500000D03*
X254800000Y-130500000D03*
X290975000Y-130500000D03*
X291825000Y-130500000D03*
X292675000Y-130500000D03*
X293525000Y-130500000D03*
X271725000Y-130500000D03*
X272575000Y-130500000D03*
X273425000Y-130500000D03*
X274275000Y-130500000D03*
D11*
X306750000Y-209000000D03*
D10*
X300725000Y-130500000D03*
X301575000Y-130500000D03*
X302425000Y-130500000D03*
X303275000Y-130500000D03*
D12*
X219750000Y-161500000D03*
D11*
X277750000Y-209000000D03*
D10*
X203975000Y-130500000D03*
X204825000Y-130500000D03*
X205675000Y-130500000D03*
X206525000Y-130500000D03*
X261975000Y-130500000D03*
X262825000Y-130500000D03*
X263675000Y-130500000D03*
X264525000Y-130500000D03*
D11*
X219750000Y-209000000D03*
D12*
X306750000Y-161500000D03*
X277750000Y-161500000D03*
D13*
X275250000Y-242750000D03*
X275250000Y-251375000D03*
X262500000Y-246000000D03*
X262500000Y-253875000D03*
X274000000Y-252625000D03*
X274000000Y-243750000D03*
X247000000Y-131075000D03*
X218000000Y-131075000D03*
X276250000Y-131075000D03*
X266500000Y-131075000D03*
X285500000Y-131075000D03*
X237500000Y-131075000D03*
X268250000Y-250125000D03*
X257000000Y-131075000D03*
X295250000Y-131075000D03*
X208250000Y-131075000D03*
X305000000Y-131075000D03*
X227750000Y-131075000D03*
X268250000Y-245750000D03*
X315000000Y-130650000D03*
X260750000Y-238000000D03*
X276500000Y-248875000D03*
X261500000Y-246000000D03*
X261500000Y-255125000D03*
X267000000Y-241750000D03*
X267437500Y-241062500D03*
X267500000Y-240000000D03*
X267142228Y-239284456D03*
X265500000Y-234000000D03*
X264500000Y-234750000D03*
X263500000Y-235250000D03*
X262500000Y-237000000D03*
X291750000Y-129000000D03*
X282000000Y-129000000D03*
X253000000Y-129000000D03*
X243500000Y-129000000D03*
X233750000Y-129000000D03*
X272500000Y-129000000D03*
X311000000Y-129000000D03*
X301500000Y-129000000D03*
X214549265Y-129049265D03*
X262750000Y-129000000D03*
X208000000Y-127750000D03*
X224000000Y-129000000D03*
X310250000Y-126500000D03*
X209500000Y-127348529D03*
D14*
X275250000Y-251375000D02*
X275250000Y-242750000D01*
X262500000Y-253875000D02*
X262500000Y-246000000D01*
X274000000Y-243750000D02*
X274000000Y-252625000D01*
X217500000Y-130500000D02*
X216250000Y-130500000D01*
X237500000Y-131075000D02*
X236925000Y-130500000D01*
X314850000Y-130500000D02*
X312800000Y-130500000D01*
X304500000Y-130500000D02*
X303275000Y-130500000D01*
X285000000Y-130500000D02*
X283775000Y-130500000D01*
X294675000Y-130500000D02*
X293525000Y-130500000D01*
X247000000Y-131075000D02*
X246425000Y-130500000D01*
X227250000Y-130500000D02*
X225775000Y-130500000D01*
X285500000Y-131075000D02*
X285500000Y-131000000D01*
X285500000Y-131000000D02*
X285000000Y-130500000D01*
X218000000Y-131075000D02*
X218000000Y-131000000D01*
X266500000Y-131075000D02*
X265925000Y-130500000D01*
X276250000Y-131000000D02*
X275750000Y-130500000D01*
X268250000Y-245750000D02*
X268250000Y-250125000D01*
X207750000Y-130500000D02*
X206525000Y-130500000D01*
X218000000Y-131000000D02*
X217500000Y-130500000D01*
X275750000Y-130500000D02*
X274275000Y-130500000D01*
X246425000Y-130500000D02*
X245250000Y-130500000D01*
X208250000Y-131075000D02*
X208250000Y-131000000D01*
X315000000Y-130650000D02*
X314850000Y-130500000D01*
X305000000Y-131000000D02*
X304500000Y-130500000D01*
X276250000Y-131075000D02*
X276250000Y-131000000D01*
X305000000Y-131075000D02*
X305000000Y-131000000D01*
X265925000Y-130500000D02*
X264525000Y-130500000D01*
X236925000Y-130500000D02*
X235525000Y-130500000D01*
X208250000Y-131000000D02*
X207750000Y-130500000D01*
X295250000Y-131075000D02*
X294675000Y-130500000D01*
X257000000Y-131075000D02*
X256425000Y-130500000D01*
X256425000Y-130500000D02*
X254800000Y-130500000D01*
X227750000Y-131075000D02*
X227750000Y-131000000D01*
X227750000Y-131000000D02*
X227250000Y-130500000D01*
X276500000Y-240000000D02*
X274500000Y-238000000D01*
X276500000Y-248875000D02*
X276500000Y-240000000D01*
X274500000Y-238000000D02*
X260750000Y-238000000D01*
X261500000Y-246000000D02*
X261500000Y-255125000D01*
X205950000Y-233200000D02*
X214500000Y-241750000D01*
X205950000Y-175300000D02*
X205950000Y-233200000D01*
X219750000Y-161500000D02*
X205950000Y-175300000D01*
X214500000Y-241750000D02*
X267000000Y-241750000D01*
X219750000Y-234750000D02*
X219750000Y-209000000D01*
X225750000Y-240750000D02*
X219750000Y-234750000D01*
X267125000Y-240750000D02*
X225750000Y-240750000D01*
X267437500Y-241062500D02*
X267125000Y-240750000D01*
X234000000Y-234000000D02*
X234000000Y-176250000D01*
X234000000Y-176250000D02*
X248750000Y-161500000D01*
X267250000Y-240250000D02*
X240250000Y-240250000D01*
X267500000Y-240000000D02*
X267250000Y-240250000D01*
X240250000Y-240250000D02*
X234000000Y-234000000D01*
X267142228Y-239284456D02*
X266676684Y-239750000D01*
X251250000Y-239750000D02*
X248750000Y-237250000D01*
X248750000Y-237250000D02*
X248750000Y-209000000D01*
X266676684Y-239750000D02*
X251250000Y-239750000D01*
X265500000Y-234000000D02*
X264500000Y-234000000D01*
X263000000Y-176250000D02*
X277750000Y-161500000D01*
X263000000Y-232500000D02*
X263000000Y-176250000D01*
X264500000Y-234000000D02*
X263000000Y-232500000D01*
X264500000Y-234750000D02*
X265000000Y-235250000D01*
X274500000Y-235250000D02*
X277750000Y-232000000D01*
X265000000Y-235250000D02*
X274500000Y-235250000D01*
X277750000Y-209000000D02*
X277750000Y-232000000D01*
X288250000Y-235750000D02*
X291750000Y-232250000D01*
X291750000Y-232250000D02*
X291750000Y-176500000D01*
X264000000Y-235750000D02*
X288250000Y-235750000D01*
X291750000Y-176500000D02*
X306750000Y-161500000D01*
X263500000Y-235250000D02*
X264000000Y-235750000D01*
X262500000Y-237000000D02*
X263100000Y-236400000D01*
X263100000Y-236400000D02*
X304600000Y-236400000D01*
X306750000Y-234250000D02*
X306750000Y-209000000D01*
X304600000Y-236400000D02*
X306750000Y-234250000D01*
X224075000Y-129075000D02*
X224075000Y-130500000D01*
X301575000Y-129075000D02*
X301500000Y-129000000D01*
X233750000Y-129000000D02*
X233825000Y-129075000D01*
X301575000Y-130500000D02*
X301575000Y-129075000D01*
X204825000Y-128675000D02*
X204825000Y-130500000D01*
X311100000Y-130500000D02*
X311100000Y-129100000D01*
X253100000Y-129100000D02*
X253000000Y-129000000D01*
X282075000Y-129075000D02*
X282000000Y-129000000D01*
X214550000Y-129050000D02*
X214550000Y-130500000D01*
X272575000Y-129075000D02*
X272575000Y-130500000D01*
X262825000Y-129075000D02*
X262750000Y-129000000D01*
X214549265Y-129049265D02*
X214550000Y-129050000D01*
X291825000Y-130500000D02*
X291825000Y-129075000D01*
X253100000Y-130500000D02*
X253100000Y-129100000D01*
X243550000Y-129050000D02*
X243550000Y-130500000D01*
X262825000Y-130500000D02*
X262825000Y-129075000D01*
X282075000Y-130500000D02*
X282075000Y-129075000D01*
X233825000Y-129075000D02*
X233825000Y-130500000D01*
X243500000Y-129000000D02*
X243550000Y-129050000D01*
X208000000Y-127750000D02*
X205750000Y-127750000D01*
X272500000Y-129000000D02*
X272575000Y-129075000D01*
X291825000Y-129075000D02*
X291750000Y-129000000D01*
X205750000Y-127750000D02*
X204825000Y-128675000D01*
X224000000Y-129000000D02*
X224075000Y-129075000D01*
X311100000Y-129100000D02*
X311000000Y-129000000D01*
X311500000Y-132250000D02*
X311950000Y-131800000D01*
X311950000Y-131800000D02*
X311950000Y-130500000D01*
X300725000Y-131725000D02*
X301250000Y-132250000D01*
X301250000Y-132250000D02*
X311500000Y-132250000D01*
X300725000Y-130500000D02*
X300725000Y-131725000D01*
X215400000Y-131600000D02*
X215400000Y-130500000D01*
X214750000Y-132250000D02*
X215400000Y-131600000D01*
X203975000Y-131725000D02*
X204500000Y-132250000D01*
X204500000Y-132250000D02*
X214750000Y-132250000D01*
X203975000Y-130500000D02*
X203975000Y-131725000D01*
X290975000Y-130500000D02*
X290975000Y-128525000D01*
X290975000Y-128525000D02*
X291250000Y-128250000D01*
X301750000Y-128250000D02*
X302425000Y-128925000D01*
X291250000Y-128250000D02*
X301750000Y-128250000D01*
X302425000Y-128925000D02*
X302425000Y-130500000D01*
X281225000Y-130500000D02*
X281225000Y-131475000D01*
X292675000Y-131790000D02*
X292675000Y-130500000D01*
X292215000Y-132250000D02*
X292675000Y-131790000D01*
X282000000Y-132250000D02*
X292215000Y-132250000D01*
X281225000Y-131475000D02*
X282000000Y-132250000D01*
X271725000Y-130500000D02*
X271725000Y-128525000D01*
X282925000Y-128925000D02*
X282925000Y-130500000D01*
X271725000Y-128525000D02*
X272000000Y-128250000D01*
X272000000Y-128250000D02*
X282250000Y-128250000D01*
X282250000Y-128250000D02*
X282925000Y-128925000D01*
X273000000Y-132250000D02*
X273425000Y-131825000D01*
X262500000Y-132250000D02*
X273000000Y-132250000D01*
X273425000Y-131825000D02*
X273425000Y-130500000D01*
X261975000Y-131725000D02*
X262500000Y-132250000D01*
X261975000Y-130500000D02*
X261975000Y-131725000D01*
X252250000Y-130500000D02*
X252250000Y-128750000D01*
X263250000Y-128250000D02*
X263675000Y-128675000D01*
X252750000Y-128250000D02*
X263250000Y-128250000D01*
X252250000Y-128750000D02*
X252750000Y-128250000D01*
X263675000Y-128675000D02*
X263675000Y-130500000D01*
X253950000Y-131800000D02*
X253950000Y-130500000D01*
X253250000Y-132500000D02*
X253950000Y-131800000D01*
X242700000Y-131950000D02*
X243250000Y-132500000D01*
X242700000Y-130500000D02*
X242700000Y-131950000D01*
X243250000Y-132500000D02*
X253250000Y-132500000D01*
X234017500Y-132250000D02*
X234675000Y-131592500D01*
X223225000Y-130500000D02*
X223225000Y-131725000D01*
X234675000Y-131592500D02*
X234675000Y-130500000D01*
X223750000Y-132250000D02*
X234017500Y-132250000D01*
X223225000Y-131725000D02*
X223750000Y-132250000D01*
X224250000Y-128250000D02*
X224267500Y-128250000D01*
X213700000Y-129050000D02*
X214500000Y-128250000D01*
X224925000Y-128907500D02*
X224925000Y-130500000D01*
X213700000Y-130500000D02*
X213700000Y-129050000D01*
X214500000Y-128232500D02*
X224250000Y-128232500D01*
X224267500Y-128250000D02*
X224925000Y-128907500D01*
X244000000Y-128250000D02*
X244400000Y-128650000D01*
X233500000Y-128250000D02*
X244000000Y-128250000D01*
X232975000Y-130500000D02*
X232975000Y-128775000D01*
X244400000Y-128650000D02*
X244400000Y-130500000D01*
X232975000Y-128775000D02*
X233500000Y-128250000D01*
X310250000Y-126500000D02*
X310250000Y-130500000D01*
X205675000Y-129325000D02*
X206000000Y-129000000D01*
X208750000Y-129000000D02*
X209500000Y-128250000D01*
X206000000Y-129000000D02*
X208750000Y-129000000D01*
X205675000Y-130500000D02*
X205675000Y-129325000D01*
X209500000Y-128250000D02*
X209500000Y-127348529D01*
M02*
