G04 #@! TF.GenerationSoftware,KiCad,Pcbnew,9.0.2*
G04 #@! TF.CreationDate,2025-05-26T23:57:56-05:00*
G04 #@! TF.ProjectId,touch-pads,746f7563-682d-4706-9164-732e6b696361,rev?*
G04 #@! TF.SameCoordinates,Original*
G04 #@! TF.FileFunction,Copper,L2,Bot*
G04 #@! TF.FilePolarity,Positive*
%FSLAX46Y46*%
G04 Gerber Fmt 4.6, Leading zero omitted, Abs format (unit mm)*
G04 Created by KiCad (PCBNEW 9.0.2) date 2025-05-26 23:57:56*
%MOMM*%
%LPD*%
G01*
G04 APERTURE LIST*
G04 Aperture macros list*
%AMRoundRect*
0 Rectangle with rounded corners*
0 $1 Rounding radius*
0 $2 $3 $4 $5 $6 $7 $8 $9 X,Y pos of 4 corners*
0 Add a 4 corners polygon primitive as box body*
4,1,4,$2,$3,$4,$5,$6,$7,$8,$9,$2,$3,0*
0 Add four circle primitives for the rounded corners*
1,1,$1+$1,$2,$3*
1,1,$1+$1,$4,$5*
1,1,$1+$1,$6,$7*
1,1,$1+$1,$8,$9*
0 Add four rect primitives between the rounded corners*
20,1,$1+$1,$2,$3,$4,$5,0*
20,1,$1+$1,$4,$5,$6,$7,0*
20,1,$1+$1,$6,$7,$8,$9,0*
20,1,$1+$1,$8,$9,$2,$3,0*%
%AMFreePoly0*
4,1,23,0.500000,-0.750000,0.000000,-0.750000,0.000000,-0.745722,-0.065263,-0.745722,-0.191342,-0.711940,-0.304381,-0.646677,-0.396677,-0.554381,-0.461940,-0.441342,-0.495722,-0.315263,-0.495722,-0.250000,-0.500000,-0.250000,-0.500000,0.250000,-0.495722,0.250000,-0.495722,0.315263,-0.461940,0.441342,-0.396677,0.554381,-0.304381,0.646677,-0.191342,0.711940,-0.065263,0.745722,0.000000,0.745722,
0.000000,0.750000,0.500000,0.750000,0.500000,-0.750000,0.500000,-0.750000,$1*%
%AMFreePoly1*
4,1,23,0.000000,0.745722,0.065263,0.745722,0.191342,0.711940,0.304381,0.646677,0.396677,0.554381,0.461940,0.441342,0.495722,0.315263,0.495722,0.250000,0.500000,0.250000,0.500000,-0.250000,0.495722,-0.250000,0.495722,-0.315263,0.461940,-0.441342,0.396677,-0.554381,0.304381,-0.646677,0.191342,-0.711940,0.065263,-0.745722,0.000000,-0.745722,0.000000,-0.750000,-0.500000,-0.750000,
-0.500000,0.750000,0.000000,0.750000,0.000000,0.745722,0.000000,0.745722,$1*%
G04 Aperture macros list end*
G04 #@! TA.AperFunction,ComponentPad*
%ADD10C,1.524000*%
G04 #@! TD*
G04 #@! TA.AperFunction,SMDPad,CuDef*
%ADD11RoundRect,0.250000X0.350000X0.450000X-0.350000X0.450000X-0.350000X-0.450000X0.350000X-0.450000X0*%
G04 #@! TD*
G04 #@! TA.AperFunction,SMDPad,CuDef*
%ADD12RoundRect,0.250000X0.475000X-0.337500X0.475000X0.337500X-0.475000X0.337500X-0.475000X-0.337500X0*%
G04 #@! TD*
G04 #@! TA.AperFunction,SMDPad,CuDef*
%ADD13R,0.254000X0.812800*%
G04 #@! TD*
G04 #@! TA.AperFunction,SMDPad,CuDef*
%ADD14R,0.812800X0.254000*%
G04 #@! TD*
G04 #@! TA.AperFunction,SMDPad,CuDef*
%ADD15R,2.590800X2.590800*%
G04 #@! TD*
G04 #@! TA.AperFunction,SMDPad,CuDef*
%ADD16FreePoly0,0.000000*%
G04 #@! TD*
G04 #@! TA.AperFunction,SMDPad,CuDef*
%ADD17FreePoly1,0.000000*%
G04 #@! TD*
G04 #@! TA.AperFunction,SMDPad,CuDef*
%ADD18RoundRect,0.250000X-1.500000X0.250000X-1.500000X-0.250000X1.500000X-0.250000X1.500000X0.250000X0*%
G04 #@! TD*
G04 #@! TA.AperFunction,SMDPad,CuDef*
%ADD19RoundRect,0.250001X-1.449999X0.499999X-1.449999X-0.499999X1.449999X-0.499999X1.449999X0.499999X0*%
G04 #@! TD*
G04 #@! TA.AperFunction,SMDPad,CuDef*
%ADD20RoundRect,0.150000X-0.700000X0.150000X-0.700000X-0.150000X0.700000X-0.150000X0.700000X0.150000X0*%
G04 #@! TD*
G04 #@! TA.AperFunction,SMDPad,CuDef*
%ADD21RoundRect,0.250000X-1.100000X0.250000X-1.100000X-0.250000X1.100000X-0.250000X1.100000X0.250000X0*%
G04 #@! TD*
G04 #@! TA.AperFunction,SMDPad,CuDef*
%ADD22RoundRect,0.250000X-0.475000X0.337500X-0.475000X-0.337500X0.475000X-0.337500X0.475000X0.337500X0*%
G04 #@! TD*
G04 #@! TA.AperFunction,SMDPad,CuDef*
%ADD23RoundRect,0.250000X1.500000X-0.250000X1.500000X0.250000X-1.500000X0.250000X-1.500000X-0.250000X0*%
G04 #@! TD*
G04 #@! TA.AperFunction,SMDPad,CuDef*
%ADD24RoundRect,0.250001X1.449999X-0.499999X1.449999X0.499999X-1.449999X0.499999X-1.449999X-0.499999X0*%
G04 #@! TD*
G04 #@! TA.AperFunction,SMDPad,CuDef*
%ADD25RoundRect,0.150000X0.700000X-0.150000X0.700000X0.150000X-0.700000X0.150000X-0.700000X-0.150000X0*%
G04 #@! TD*
G04 #@! TA.AperFunction,SMDPad,CuDef*
%ADD26RoundRect,0.250000X1.100000X-0.250000X1.100000X0.250000X-1.100000X0.250000X-1.100000X-0.250000X0*%
G04 #@! TD*
G04 #@! TA.AperFunction,ViaPad*
%ADD27C,0.600000*%
G04 #@! TD*
G04 #@! TA.AperFunction,Conductor*
%ADD28C,0.200000*%
G04 #@! TD*
G04 #@! TA.AperFunction,Conductor*
%ADD29C,0.600000*%
G04 #@! TD*
G04 APERTURE END LIST*
D10*
X256900000Y-259250000D03*
X259440000Y-259250000D03*
X261980000Y-259250000D03*
X264520000Y-259250000D03*
X267060000Y-259250000D03*
X269600000Y-259250000D03*
D11*
X266750000Y-245750000D03*
X264750000Y-245750000D03*
D12*
X313000000Y-131075000D03*
X313000000Y-129000000D03*
X235500000Y-131075000D03*
X235500000Y-129000000D03*
X210000000Y-131075000D03*
X210000000Y-129000000D03*
D11*
X260000000Y-237000000D03*
X258000000Y-237000000D03*
D12*
X225750000Y-131075000D03*
X225750000Y-129000000D03*
D13*
X264520000Y-242968500D03*
X264012000Y-242968500D03*
X263504000Y-242968500D03*
X262996000Y-242968500D03*
X262488000Y-242968500D03*
X261980000Y-242968500D03*
D14*
X261281500Y-242270000D03*
X261281500Y-241762000D03*
X261281500Y-241254000D03*
X261281500Y-240746000D03*
X261281500Y-240238000D03*
X261281500Y-239730000D03*
D13*
X261980000Y-239031500D03*
X262488000Y-239031500D03*
X262996000Y-239031500D03*
X263504000Y-239031500D03*
X264012000Y-239031500D03*
X264520000Y-239031500D03*
D14*
X265218500Y-239730000D03*
X265218500Y-240238000D03*
X265218500Y-240746000D03*
X265218500Y-241254000D03*
X265218500Y-241762000D03*
X265218500Y-242270000D03*
D15*
X263250000Y-241000000D03*
D16*
X245950000Y-247750000D03*
D17*
X247250000Y-247750000D03*
D16*
X245950000Y-250500000D03*
D17*
X247250000Y-250500000D03*
D18*
X288250000Y-115500000D03*
X288250000Y-117500000D03*
X288250000Y-119500000D03*
D19*
X294000000Y-113150000D03*
X294000000Y-121850000D03*
D12*
X264750000Y-131075000D03*
X264750000Y-129000000D03*
D20*
X286750000Y-251875000D03*
X286750000Y-253125000D03*
X286750000Y-254375000D03*
X286750000Y-255625000D03*
X286750000Y-256875000D03*
X286750000Y-258125000D03*
D21*
X289950000Y-250025000D03*
X289950000Y-259975000D03*
D12*
X274500000Y-131075000D03*
X274500000Y-129000000D03*
D22*
X272250000Y-242750000D03*
X272250000Y-244825000D03*
D12*
X255000000Y-131075000D03*
X255000000Y-129000000D03*
X283750000Y-131075000D03*
X283750000Y-129000000D03*
X293750000Y-131075000D03*
X293750000Y-129000000D03*
X216250000Y-131075000D03*
X216250000Y-129000000D03*
D22*
X269500000Y-242750000D03*
X269500000Y-244825000D03*
D12*
X245250000Y-131075000D03*
X245250000Y-129000000D03*
D23*
X238250000Y-119500000D03*
X238250000Y-117500000D03*
X238250000Y-115500000D03*
D24*
X232500000Y-121850000D03*
X232500000Y-113150000D03*
D20*
X286750000Y-236750000D03*
X286750000Y-238000000D03*
X286750000Y-239250000D03*
X286750000Y-240500000D03*
X286750000Y-241750000D03*
X286750000Y-243000000D03*
D21*
X289950000Y-234900000D03*
X289950000Y-244850000D03*
D25*
X239600000Y-258125000D03*
X239600000Y-256875000D03*
X239600000Y-255625000D03*
X239600000Y-254375000D03*
X239600000Y-253125000D03*
X239600000Y-251875000D03*
D26*
X236400000Y-259975000D03*
X236400000Y-250025000D03*
D12*
X303250000Y-131075000D03*
X303250000Y-129000000D03*
D16*
X245950000Y-253250000D03*
D17*
X247250000Y-253250000D03*
D16*
X245950000Y-245000000D03*
D17*
X247250000Y-245000000D03*
D25*
X239600000Y-243000000D03*
X239600000Y-241750000D03*
X239600000Y-240500000D03*
X239600000Y-239250000D03*
X239600000Y-238000000D03*
X239600000Y-236750000D03*
D26*
X236400000Y-244850000D03*
X236400000Y-234900000D03*
D27*
X256750000Y-247286657D03*
X274500000Y-243250000D03*
X274500000Y-247286657D03*
X263125000Y-246125000D03*
X264500000Y-248500000D03*
X268000000Y-249150000D03*
X268000000Y-244250000D03*
X247000000Y-131075000D03*
X218000000Y-131075000D03*
X276250000Y-131075000D03*
X266500000Y-131075000D03*
X285500000Y-131075000D03*
X237500000Y-131075000D03*
X257000000Y-131075000D03*
X295250000Y-131075000D03*
X208250000Y-131075000D03*
X259440000Y-246686657D03*
X305000000Y-131075000D03*
X227750000Y-131075000D03*
X315000000Y-130650000D03*
X258250000Y-249750000D03*
X258250000Y-245500000D03*
X262000000Y-247900000D03*
X262000000Y-245500000D03*
X267000000Y-241750000D03*
X267437500Y-241062500D03*
X267500000Y-240000000D03*
X267142228Y-239284456D03*
X265500000Y-234000000D03*
X264500000Y-234750000D03*
X263500000Y-235250000D03*
X262500000Y-237000000D03*
X291750000Y-129000000D03*
X282000000Y-129000000D03*
X253000000Y-129000000D03*
X243500000Y-129000000D03*
X233750000Y-129000000D03*
X272500000Y-129000000D03*
X311000000Y-129000000D03*
X301500000Y-129000000D03*
X214549265Y-129049265D03*
X262750000Y-129000000D03*
X208000000Y-127750000D03*
X224000000Y-129000000D03*
X310250000Y-126500000D03*
X209500000Y-127348529D03*
X267060000Y-256051000D03*
X269600000Y-254251000D03*
D28*
X265218500Y-241762000D02*
X266163471Y-241762000D01*
X267151471Y-242750000D02*
X271500000Y-242750000D01*
X266163471Y-241762000D02*
X267151471Y-242750000D01*
X274500000Y-247286657D02*
X275213343Y-247286657D01*
X274000000Y-242750000D02*
X274500000Y-243250000D01*
X255786657Y-247286657D02*
X246500000Y-238000000D01*
X256750000Y-247286657D02*
X255786657Y-247286657D01*
X284500000Y-238000000D02*
X286750000Y-238000000D01*
X272250000Y-242750000D02*
X274000000Y-242750000D01*
X274500000Y-247286657D02*
X256750000Y-247286657D01*
X271500000Y-242750000D02*
X272250000Y-242750000D01*
X275213343Y-247286657D02*
X284500000Y-238000000D01*
X246500000Y-238000000D02*
X239600000Y-238000000D01*
X262249943Y-248500000D02*
X264500000Y-248500000D01*
X247682900Y-240500000D02*
X255682900Y-248500000D01*
X262248943Y-248501000D02*
X262249943Y-248500000D01*
X239600000Y-240500000D02*
X247682900Y-240500000D01*
X261750057Y-248500000D02*
X261751057Y-248501000D01*
X263504000Y-245746000D02*
X263504000Y-242968500D01*
X255682900Y-248500000D02*
X261750057Y-248500000D01*
X283250000Y-240500000D02*
X286750000Y-240500000D01*
X275250000Y-248500000D02*
X283250000Y-240500000D01*
X263125000Y-246125000D02*
X263504000Y-245746000D01*
X261751057Y-248501000D02*
X262248943Y-248501000D01*
X264500000Y-248500000D02*
X275250000Y-248500000D01*
X282565686Y-241750000D02*
X286750000Y-241750000D01*
X248365800Y-241750000D02*
X255765800Y-249150000D01*
X268000000Y-249150000D02*
X275165686Y-249150000D01*
X239600000Y-241750000D02*
X248365800Y-241750000D01*
X255765800Y-249150000D02*
X268000000Y-249150000D01*
X266020000Y-242270000D02*
X265218500Y-242270000D01*
X275165686Y-249150000D02*
X282565686Y-241750000D01*
X268000000Y-244250000D02*
X266020000Y-242270000D01*
X272250000Y-244825000D02*
X269500000Y-244825000D01*
X261281500Y-239730000D02*
X261281500Y-242270000D01*
D29*
X207000000Y-130500000D02*
X207000000Y-118750000D01*
D28*
X264520000Y-243520000D02*
X266750000Y-245750000D01*
X261980000Y-244020000D02*
X261980000Y-242968500D01*
X261980000Y-242270000D02*
X261281500Y-242270000D01*
X264512100Y-242960600D02*
X264512100Y-242262100D01*
D29*
X210250000Y-115500000D02*
X238350000Y-115500000D01*
D28*
X266750000Y-245750000D02*
X268500000Y-245750000D01*
X239600000Y-236750000D02*
X246000000Y-236750000D01*
X261281500Y-239730000D02*
X262551500Y-241000000D01*
X261980000Y-242270000D02*
X263250000Y-241000000D01*
X255936657Y-246686657D02*
X246000000Y-236750000D01*
X261980000Y-242968500D02*
X261980000Y-242270000D01*
X259440000Y-246560000D02*
X261980000Y-244020000D01*
X277109314Y-244825000D02*
X285184314Y-236750000D01*
D29*
X207000000Y-118750000D02*
X210250000Y-115500000D01*
X315000000Y-117500000D02*
X313000000Y-115500000D01*
X313000000Y-115500000D02*
X288150000Y-115500000D01*
D28*
X246250000Y-237000000D02*
X246000000Y-236750000D01*
X268500000Y-245750000D02*
X269425000Y-244825000D01*
D29*
X207575000Y-131075000D02*
X207000000Y-130500000D01*
D28*
X261281500Y-242270000D02*
X261980000Y-242968500D01*
X264520000Y-242968500D02*
X264520000Y-243520000D01*
X264512100Y-242262100D02*
X263250000Y-241000000D01*
X259440000Y-246686657D02*
X259440000Y-246560000D01*
D29*
X315000000Y-130650000D02*
X315000000Y-117500000D01*
D28*
X259440000Y-246686657D02*
X255936657Y-246686657D01*
X262488000Y-242968500D02*
X261980000Y-242968500D01*
D29*
X314575000Y-131075000D02*
X207575000Y-131075000D01*
D28*
X285184314Y-236750000D02*
X286750000Y-236750000D01*
D29*
X315000000Y-130650000D02*
X314575000Y-131075000D01*
D28*
X272250000Y-244825000D02*
X277109314Y-244825000D01*
X258000000Y-237000000D02*
X246250000Y-237000000D01*
X259468500Y-239031500D02*
X258250000Y-240250000D01*
X239600000Y-243000000D02*
X240100000Y-242500000D01*
X240100000Y-242500000D02*
X248548700Y-242500000D01*
X258250000Y-240250000D02*
X258250000Y-245500000D01*
X248548700Y-242500000D02*
X255798700Y-249750000D01*
X261980000Y-239031500D02*
X259468500Y-239031500D01*
X258250000Y-249750000D02*
X275131372Y-249750000D01*
X275131372Y-249750000D02*
X281881372Y-243000000D01*
X255798700Y-249750000D02*
X258250000Y-249750000D01*
X281881372Y-243000000D02*
X286750000Y-243000000D01*
X255650000Y-247900000D02*
X247000000Y-239250000D01*
X262000000Y-247900000D02*
X275165686Y-247900000D01*
X262996000Y-244504000D02*
X262000000Y-245500000D01*
X262000000Y-247900000D02*
X255650000Y-247900000D01*
X247000000Y-239250000D02*
X239600000Y-239250000D01*
X275165686Y-247900000D02*
X283815686Y-239250000D01*
X283815686Y-239250000D02*
X286750000Y-239250000D01*
X262996000Y-242968500D02*
X262996000Y-244504000D01*
X267000000Y-241750000D02*
X266504000Y-241254000D01*
X266504000Y-241254000D02*
X265218500Y-241254000D01*
X267121000Y-240746000D02*
X265218500Y-240746000D01*
X267437500Y-241062500D02*
X267121000Y-240746000D01*
X267500000Y-240000000D02*
X267262000Y-240238000D01*
X267262000Y-240238000D02*
X265218500Y-240238000D01*
X267142228Y-239284456D02*
X266696684Y-239730000D01*
X266696684Y-239730000D02*
X265218500Y-239730000D01*
X265500000Y-237250000D02*
X265500000Y-234000000D01*
X265500000Y-237250000D02*
X264520000Y-238230000D01*
X264520000Y-238230000D02*
X264520000Y-239031500D01*
X264012000Y-239031500D02*
X264012000Y-237738000D01*
X264012000Y-237738000D02*
X264500000Y-237250000D01*
X264500000Y-234750000D02*
X264500000Y-237250000D01*
X263500000Y-237000000D02*
X263504000Y-237004000D01*
X263504000Y-237004000D02*
X263504000Y-239031500D01*
X263500000Y-235250000D02*
X263500000Y-237000000D01*
X262500000Y-237000000D02*
X262996000Y-237496000D01*
X262996000Y-237496000D02*
X262996000Y-239031500D01*
X264012000Y-244762000D02*
X264012000Y-242968500D01*
X264750000Y-245500000D02*
X264012000Y-244762000D01*
X262488000Y-237938000D02*
X261550000Y-237000000D01*
X261550000Y-237000000D02*
X260000000Y-237000000D01*
X262488000Y-239031500D02*
X262488000Y-237938000D01*
D29*
X208000000Y-127750000D02*
X208000000Y-120750000D01*
D28*
X291750000Y-129000000D02*
X292000000Y-129000000D01*
D29*
X211250000Y-117500000D02*
X238350000Y-117500000D01*
X313000000Y-129000000D02*
X313000000Y-118000000D01*
X209250000Y-129000000D02*
X313000000Y-129000000D01*
X208000000Y-120750000D02*
X211250000Y-117500000D01*
X313000000Y-118000000D02*
X312500000Y-117500000D01*
X208000000Y-127750000D02*
X209250000Y-129000000D01*
X312500000Y-117500000D02*
X288150000Y-117500000D01*
D28*
X310250000Y-126500000D02*
X310250000Y-122000000D01*
X310250000Y-122000000D02*
X307750000Y-119500000D01*
X307750000Y-119500000D02*
X288150000Y-119500000D01*
X212000000Y-119500000D02*
X238350000Y-119500000D01*
X209500000Y-122000000D02*
X212000000Y-119500000D01*
X209500000Y-127348529D02*
X209500000Y-122000000D01*
X286750000Y-258125000D02*
X286125000Y-258125000D01*
X242814600Y-258125000D02*
X239600000Y-258125000D01*
X232300000Y-255800000D02*
X234625000Y-258125000D01*
X234250000Y-246500000D02*
X244450000Y-246500000D01*
X234250000Y-246500000D02*
X232300000Y-248450000D01*
X285500000Y-257500000D02*
X275359850Y-257500000D01*
X286125000Y-258125000D02*
X285500000Y-257500000D01*
X232300000Y-248450000D02*
X232300000Y-255800000D01*
X234625000Y-258125000D02*
X239600000Y-258125000D01*
X243085600Y-257854000D02*
X242814600Y-258125000D01*
X275359850Y-257500000D02*
X275005850Y-257854000D01*
X244450000Y-246500000D02*
X245950000Y-245000000D01*
X275005850Y-257854000D02*
X243085600Y-257854000D01*
X274500000Y-255250000D02*
X244000000Y-255250000D01*
X244000000Y-255250000D02*
X240625000Y-251875000D01*
X277875000Y-251875000D02*
X286750000Y-251875000D01*
X277875000Y-251875000D02*
X274500000Y-255250000D01*
X240625000Y-251875000D02*
X239600000Y-251875000D01*
X234800000Y-247700000D02*
X233500000Y-249000000D01*
X240400000Y-247700000D02*
X245950000Y-253250000D01*
X234800000Y-247700000D02*
X240400000Y-247700000D01*
X234125000Y-254375000D02*
X239600000Y-254375000D01*
X233500000Y-249000000D02*
X233500000Y-253750000D01*
X274349000Y-256651000D02*
X243583900Y-256651000D01*
X241307900Y-254375000D02*
X239600000Y-254375000D01*
X243583900Y-256651000D02*
X241307900Y-254375000D01*
X286750000Y-254375000D02*
X276625000Y-254375000D01*
X276625000Y-254375000D02*
X274349000Y-256651000D01*
X233500000Y-253750000D02*
X234125000Y-254375000D01*
X267009000Y-256000000D02*
X243500000Y-256000000D01*
X267060000Y-256051000D02*
X267111000Y-256000000D01*
X274317100Y-256000000D02*
X277192100Y-253125000D01*
X240625000Y-253125000D02*
X239600000Y-253125000D01*
X267111000Y-256000000D02*
X274317100Y-256000000D01*
X277192100Y-253125000D02*
X286750000Y-253125000D01*
X267060000Y-256051000D02*
X267009000Y-256000000D01*
X243500000Y-256000000D02*
X240625000Y-253125000D01*
X286750000Y-255625000D02*
X276100650Y-255625000D01*
X242750000Y-247300000D02*
X245950000Y-250500000D01*
X233625000Y-255625000D02*
X239600000Y-255625000D01*
X234634314Y-247300000D02*
X242750000Y-247300000D01*
X234634314Y-247300000D02*
X233100000Y-248834314D01*
X276100650Y-255625000D02*
X274673650Y-257052000D01*
X243417800Y-257052000D02*
X241990800Y-255625000D01*
X241990800Y-255625000D02*
X239600000Y-255625000D01*
X233100000Y-255100000D02*
X233625000Y-255625000D01*
X274673650Y-257052000D02*
X243417800Y-257052000D01*
X233100000Y-248834314D02*
X233100000Y-255100000D01*
X242673700Y-256875000D02*
X239600000Y-256875000D01*
X234468628Y-246900000D02*
X245100000Y-246900000D01*
X234125000Y-256875000D02*
X239600000Y-256875000D01*
X242673700Y-256875000D02*
X243251700Y-257453000D01*
X234468628Y-246900000D02*
X232700000Y-248668628D01*
X274839750Y-257453000D02*
X275417750Y-256875000D01*
X275417750Y-256875000D02*
X286750000Y-256875000D01*
X232700000Y-248668628D02*
X232700000Y-255450000D01*
X245100000Y-246900000D02*
X245950000Y-247750000D01*
X243251700Y-257453000D02*
X274839750Y-257453000D01*
X232700000Y-255450000D02*
X234125000Y-256875000D01*
X248251000Y-254251000D02*
X247250000Y-253250000D01*
X247250000Y-245000000D02*
X247250000Y-253250000D01*
X269600000Y-254251000D02*
X248251000Y-254251000D01*
M02*
