G04 #@! TF.GenerationSoftware,KiCad,Pcbnew,9.0.2*
G04 #@! TF.CreationDate,2025-05-18T19:26:22-05:00*
G04 #@! TF.ProjectId,touch-pads,746f7563-682d-4706-9164-732e6b696361,rev?*
G04 #@! TF.SameCoordinates,Original*
G04 #@! TF.FileFunction,Paste,Bot*
G04 #@! TF.FilePolarity,Positive*
%FSLAX46Y46*%
G04 Gerber Fmt 4.6, Leading zero omitted, Abs format (unit mm)*
G04 Created by KiCad (PCBNEW 9.0.2) date 2025-05-18 19:26:22*
%MOMM*%
%LPD*%
G01*
G04 APERTURE LIST*
G04 Aperture macros list*
%AMRoundRect*
0 Rectangle with rounded corners*
0 $1 Rounding radius*
0 $2 $3 $4 $5 $6 $7 $8 $9 X,Y pos of 4 corners*
0 Add a 4 corners polygon primitive as box body*
4,1,4,$2,$3,$4,$5,$6,$7,$8,$9,$2,$3,0*
0 Add four circle primitives for the rounded corners*
1,1,$1+$1,$2,$3*
1,1,$1+$1,$4,$5*
1,1,$1+$1,$6,$7*
1,1,$1+$1,$8,$9*
0 Add four rect primitives between the rounded corners*
20,1,$1+$1,$2,$3,$4,$5,0*
20,1,$1+$1,$4,$5,$6,$7,0*
20,1,$1+$1,$6,$7,$8,$9,0*
20,1,$1+$1,$8,$9,$2,$3,0*%
G04 Aperture macros list end*
%ADD10C,0.000000*%
%ADD11RoundRect,0.250000X0.350000X0.450000X-0.350000X0.450000X-0.350000X-0.450000X0.350000X-0.450000X0*%
%ADD12RoundRect,0.250000X0.475000X-0.337500X0.475000X0.337500X-0.475000X0.337500X-0.475000X-0.337500X0*%
%ADD13R,0.254000X0.812800*%
%ADD14R,0.812800X0.254000*%
%ADD15R,2.590800X2.590800*%
%ADD16RoundRect,0.250000X-1.500000X0.250000X-1.500000X-0.250000X1.500000X-0.250000X1.500000X0.250000X0*%
%ADD17RoundRect,0.250001X-1.449999X0.499999X-1.449999X-0.499999X1.449999X-0.499999X1.449999X0.499999X0*%
%ADD18RoundRect,0.150000X-0.700000X0.150000X-0.700000X-0.150000X0.700000X-0.150000X0.700000X0.150000X0*%
%ADD19RoundRect,0.250000X-1.100000X0.250000X-1.100000X-0.250000X1.100000X-0.250000X1.100000X0.250000X0*%
%ADD20RoundRect,0.250000X-0.475000X0.337500X-0.475000X-0.337500X0.475000X-0.337500X0.475000X0.337500X0*%
%ADD21RoundRect,0.250000X1.500000X-0.250000X1.500000X0.250000X-1.500000X0.250000X-1.500000X-0.250000X0*%
%ADD22RoundRect,0.250001X1.449999X-0.499999X1.449999X0.499999X-1.449999X0.499999X-1.449999X-0.499999X0*%
%ADD23RoundRect,0.150000X0.700000X-0.150000X0.700000X0.150000X-0.700000X0.150000X-0.700000X-0.150000X0*%
%ADD24RoundRect,0.250000X1.100000X-0.250000X1.100000X0.250000X-1.100000X0.250000X-1.100000X-0.250000X0*%
G04 APERTURE END LIST*
D10*
G36*
X264445400Y-242195400D02*
G01*
X263350000Y-242195400D01*
X263350000Y-241100000D01*
X264445400Y-241100000D01*
X264445400Y-242195400D01*
G37*
G36*
X263150000Y-242195400D02*
G01*
X262054600Y-242195400D01*
X262054600Y-241100000D01*
X263150000Y-241100000D01*
X263150000Y-242195400D01*
G37*
G36*
X264445400Y-240900000D02*
G01*
X263350000Y-240900000D01*
X263350000Y-239804600D01*
X264445400Y-239804600D01*
X264445400Y-240900000D01*
G37*
G36*
X263150000Y-240900000D02*
G01*
X262054600Y-240900000D01*
X262054600Y-239804600D01*
X263150000Y-239804600D01*
X263150000Y-240900000D01*
G37*
D11*
X266750000Y-245750000D03*
X264750000Y-245750000D03*
D12*
X313000000Y-131075000D03*
X313000000Y-129000000D03*
X235500000Y-131075000D03*
X235500000Y-129000000D03*
X210000000Y-131075000D03*
X210000000Y-129000000D03*
D11*
X260000000Y-237000000D03*
X258000000Y-237000000D03*
D12*
X225750000Y-131075000D03*
X225750000Y-129000000D03*
D13*
X264520000Y-242968500D03*
X264012000Y-242968500D03*
X263504000Y-242968500D03*
X262996000Y-242968500D03*
X262488000Y-242968500D03*
X261980000Y-242968500D03*
D14*
X261281500Y-242270000D03*
X261281500Y-241762000D03*
X261281500Y-241254000D03*
X261281500Y-240746000D03*
X261281500Y-240238000D03*
X261281500Y-239730000D03*
D13*
X261980000Y-239031500D03*
X262488000Y-239031500D03*
X262996000Y-239031500D03*
X263504000Y-239031500D03*
X264012000Y-239031500D03*
X264520000Y-239031500D03*
D14*
X265218500Y-239730000D03*
X265218500Y-240238000D03*
X265218500Y-240746000D03*
X265218500Y-241254000D03*
X265218500Y-241762000D03*
X265218500Y-242270000D03*
D15*
X263250000Y-241000000D03*
D16*
X288250000Y-115500000D03*
X288250000Y-117500000D03*
X288250000Y-119500000D03*
D17*
X294000000Y-113150000D03*
X294000000Y-121850000D03*
D12*
X264750000Y-131075000D03*
X264750000Y-129000000D03*
D18*
X286750000Y-251875000D03*
X286750000Y-253125000D03*
X286750000Y-254375000D03*
X286750000Y-255625000D03*
X286750000Y-256875000D03*
X286750000Y-258125000D03*
D19*
X289950000Y-250025000D03*
X289950000Y-259975000D03*
D12*
X274500000Y-131075000D03*
X274500000Y-129000000D03*
D20*
X272250000Y-242750000D03*
X272250000Y-244825000D03*
D12*
X255000000Y-131075000D03*
X255000000Y-129000000D03*
X283750000Y-131075000D03*
X283750000Y-129000000D03*
X293750000Y-131075000D03*
X293750000Y-129000000D03*
X216250000Y-131075000D03*
X216250000Y-129000000D03*
D20*
X269500000Y-242750000D03*
X269500000Y-244825000D03*
D12*
X245250000Y-131075000D03*
X245250000Y-129000000D03*
D21*
X238250000Y-119500000D03*
X238250000Y-117500000D03*
X238250000Y-115500000D03*
D22*
X232500000Y-121850000D03*
X232500000Y-113150000D03*
D18*
X286750000Y-236750000D03*
X286750000Y-238000000D03*
X286750000Y-239250000D03*
X286750000Y-240500000D03*
X286750000Y-241750000D03*
X286750000Y-243000000D03*
D19*
X289950000Y-234900000D03*
X289950000Y-244850000D03*
D23*
X239600000Y-258125000D03*
X239600000Y-256875000D03*
X239600000Y-255625000D03*
X239600000Y-254375000D03*
X239600000Y-253125000D03*
X239600000Y-251875000D03*
D24*
X236400000Y-259975000D03*
X236400000Y-250025000D03*
D12*
X303250000Y-131075000D03*
X303250000Y-129000000D03*
D23*
X239600000Y-243000000D03*
X239600000Y-241750000D03*
X239600000Y-240500000D03*
X239600000Y-239250000D03*
X239600000Y-238000000D03*
X239600000Y-236750000D03*
D24*
X236400000Y-244850000D03*
X236400000Y-234900000D03*
M02*
