M48
; DRILL file {KiCad 9.0.2} date 2025-05-26T23:58:03-0500
; FORMAT={-:-/ absolute / metric / decimal}
; #@! TF.CreationDate,2025-05-26T23:58:03-05:00
; #@! TF.GenerationSoftware,Kicad,Pcbnew,9.0.2
; #@! TF.FileFunction,Plated,1,2,PTH
FMAT,2
METRIC
; #@! TA.AperFunction,Plated,PTH,ViaDrill
T1C0.300
; #@! TA.AperFunction,Plated,PTH,ComponentDrill
T2C0.762
%
G90
G05
T1
X208.0Y-127.75
X208.25Y-131.075
X209.5Y-127.349
X214.549Y-129.049
X218.0Y-131.075
X224.0Y-129.0
X227.75Y-131.075
X233.75Y-129.0
X237.5Y-131.075
X243.5Y-129.0
X247.0Y-131.075
X253.0Y-129.0
X256.75Y-247.287
X257.0Y-131.075
X258.25Y-245.5
X258.25Y-249.75
X259.44Y-246.687
X262.0Y-245.5
X262.0Y-247.9
X262.5Y-237.0
X262.75Y-129.0
X263.125Y-246.125
X263.5Y-235.25
X264.5Y-234.75
X264.5Y-248.5
X265.5Y-234.0
X266.5Y-131.075
X267.0Y-241.75
X267.06Y-256.051
X267.142Y-239.284
X267.438Y-241.062
X267.5Y-240.0
X268.0Y-244.25
X268.0Y-249.15
X269.6Y-254.251
X272.5Y-129.0
X274.5Y-243.25
X274.5Y-247.287
X276.25Y-131.075
X282.0Y-129.0
X285.5Y-131.075
X291.75Y-129.0
X295.25Y-131.075
X301.5Y-129.0
X305.0Y-131.075
X310.25Y-126.5
X311.0Y-129.0
X315.0Y-130.65
T2
X256.9Y-259.25
X259.44Y-259.25
X261.98Y-259.25
X264.52Y-259.25
X267.06Y-259.25
X269.6Y-259.25
M30
