G04 #@! TF.GenerationSoftware,KiCad,Pcbnew,9.0.2*
G04 #@! TF.CreationDate,2025-05-28T22:14:58-05:00*
G04 #@! TF.ProjectId,touch-pads,746f7563-682d-4706-9164-732e6b696361,rev?*
G04 #@! TF.SameCoordinates,Original*
G04 #@! TF.FileFunction,Soldermask,Bot*
G04 #@! TF.FilePolarity,Negative*
%FSLAX46Y46*%
G04 Gerber Fmt 4.6, Leading zero omitted, Abs format (unit mm)*
G04 Created by KiCad (PCBNEW 9.0.2) date 2025-05-28 22:14:58*
%MOMM*%
%LPD*%
G01*
G04 APERTURE LIST*
G04 Aperture macros list*
%AMRoundRect*
0 Rectangle with rounded corners*
0 $1 Rounding radius*
0 $2 $3 $4 $5 $6 $7 $8 $9 X,Y pos of 4 corners*
0 Add a 4 corners polygon primitive as box body*
4,1,4,$2,$3,$4,$5,$6,$7,$8,$9,$2,$3,0*
0 Add four circle primitives for the rounded corners*
1,1,$1+$1,$2,$3*
1,1,$1+$1,$4,$5*
1,1,$1+$1,$6,$7*
1,1,$1+$1,$8,$9*
0 Add four rect primitives between the rounded corners*
20,1,$1+$1,$2,$3,$4,$5,0*
20,1,$1+$1,$4,$5,$6,$7,0*
20,1,$1+$1,$6,$7,$8,$9,0*
20,1,$1+$1,$8,$9,$2,$3,0*%
%AMFreePoly0*
4,1,23,0.500000,-0.750000,0.000000,-0.750000,0.000000,-0.745722,-0.065263,-0.745722,-0.191342,-0.711940,-0.304381,-0.646677,-0.396677,-0.554381,-0.461940,-0.441342,-0.495722,-0.315263,-0.495722,-0.250000,-0.500000,-0.250000,-0.500000,0.250000,-0.495722,0.250000,-0.495722,0.315263,-0.461940,0.441342,-0.396677,0.554381,-0.304381,0.646677,-0.191342,0.711940,-0.065263,0.745722,0.000000,0.745722,
0.000000,0.750000,0.500000,0.750000,0.500000,-0.750000,0.500000,-0.750000,$1*%
%AMFreePoly1*
4,1,23,0.000000,0.745722,0.065263,0.745722,0.191342,0.711940,0.304381,0.646677,0.396677,0.554381,0.461940,0.441342,0.495722,0.315263,0.495722,0.250000,0.500000,0.250000,0.500000,-0.250000,0.495722,-0.250000,0.495722,-0.315263,0.461940,-0.441342,0.396677,-0.554381,0.304381,-0.646677,0.191342,-0.711940,0.065263,-0.745722,0.000000,-0.745722,0.000000,-0.750000,-0.500000,-0.750000,
-0.500000,0.750000,0.000000,0.750000,0.000000,0.745722,0.000000,0.745722,$1*%
G04 Aperture macros list end*
%ADD10C,0.000000*%
%ADD11C,3.200000*%
%ADD12C,1.524000*%
%ADD13RoundRect,0.250000X0.350000X0.450000X-0.350000X0.450000X-0.350000X-0.450000X0.350000X-0.450000X0*%
%ADD14RoundRect,0.250000X0.475000X-0.337500X0.475000X0.337500X-0.475000X0.337500X-0.475000X-0.337500X0*%
%ADD15R,0.254000X0.812800*%
%ADD16R,0.812800X0.254000*%
%ADD17R,2.590800X2.590800*%
%ADD18FreePoly0,0.000000*%
%ADD19FreePoly1,0.000000*%
%ADD20RoundRect,0.250000X-1.500000X0.250000X-1.500000X-0.250000X1.500000X-0.250000X1.500000X0.250000X0*%
%ADD21RoundRect,0.250001X-1.449999X0.499999X-1.449999X-0.499999X1.449999X-0.499999X1.449999X0.499999X0*%
%ADD22RoundRect,0.150000X-0.700000X0.150000X-0.700000X-0.150000X0.700000X-0.150000X0.700000X0.150000X0*%
%ADD23RoundRect,0.250000X-1.100000X0.250000X-1.100000X-0.250000X1.100000X-0.250000X1.100000X0.250000X0*%
%ADD24RoundRect,0.250000X-0.475000X0.337500X-0.475000X-0.337500X0.475000X-0.337500X0.475000X0.337500X0*%
%ADD25RoundRect,0.250000X1.500000X-0.250000X1.500000X0.250000X-1.500000X0.250000X-1.500000X-0.250000X0*%
%ADD26RoundRect,0.250001X1.449999X-0.499999X1.449999X0.499999X-1.449999X0.499999X-1.449999X-0.499999X0*%
%ADD27RoundRect,0.150000X0.700000X-0.150000X0.700000X0.150000X-0.700000X0.150000X-0.700000X-0.150000X0*%
%ADD28RoundRect,0.250000X1.100000X-0.250000X1.100000X0.250000X-1.100000X0.250000X-1.100000X-0.250000X0*%
G04 APERTURE END LIST*
G36*
X246450000Y-248500000D02*
G01*
X246750000Y-248500000D01*
X246750000Y-247000000D01*
X246450000Y-247000000D01*
X246450000Y-248500000D01*
G37*
G36*
X246450000Y-251250000D02*
G01*
X246750000Y-251250000D01*
X246750000Y-249750000D01*
X246450000Y-249750000D01*
X246450000Y-251250000D01*
G37*
D10*
G36*
X263627274Y-118389952D02*
G01*
X263634811Y-118410648D01*
X263632292Y-118430061D01*
X263618384Y-118451517D01*
X263595528Y-118466828D01*
X263571069Y-118473021D01*
X263547506Y-118470131D01*
X263531405Y-118457626D01*
X263525443Y-118436656D01*
X263525446Y-118436160D01*
X263532419Y-118410948D01*
X263551697Y-118391978D01*
X263581566Y-118380951D01*
X263583428Y-118380614D01*
X263610396Y-118380080D01*
X263627274Y-118389952D01*
G37*
G36*
X262558373Y-116035275D02*
G01*
X262574607Y-116047786D01*
X262585547Y-116069195D01*
X262585156Y-116092993D01*
X262573692Y-116115513D01*
X262551418Y-116133090D01*
X262541210Y-116136644D01*
X262517640Y-116136711D01*
X262494751Y-116128614D01*
X262477193Y-116114447D01*
X262469617Y-116096301D01*
X262471392Y-116072121D01*
X262482891Y-116046445D01*
X262502762Y-116030687D01*
X262528693Y-116026433D01*
X262558373Y-116035275D01*
G37*
G36*
X262552357Y-115228092D02*
G01*
X262573706Y-115241061D01*
X262586469Y-115260594D01*
X262585537Y-115282806D01*
X262570420Y-115305593D01*
X262568983Y-115306988D01*
X262544369Y-115321178D01*
X262517083Y-115321809D01*
X262490365Y-115308754D01*
X262483767Y-115303092D01*
X262468078Y-115281205D01*
X262466470Y-115259927D01*
X262478585Y-115241376D01*
X262504066Y-115227671D01*
X262509256Y-115226047D01*
X262531417Y-115222758D01*
X262552357Y-115228092D01*
G37*
G36*
X262161994Y-114943677D02*
G01*
X262186497Y-114963596D01*
X262199246Y-114986485D01*
X262198810Y-115009739D01*
X262184556Y-115030693D01*
X262156959Y-115047982D01*
X262149941Y-115050691D01*
X262121277Y-115054507D01*
X262095159Y-115048029D01*
X262074024Y-115033486D01*
X262060307Y-115013107D01*
X262056447Y-114989121D01*
X262064880Y-114963757D01*
X262079467Y-114947443D01*
X262104677Y-114935606D01*
X262133453Y-114934349D01*
X262161994Y-114943677D01*
G37*
G36*
X261440593Y-118180723D02*
G01*
X261475146Y-118193766D01*
X261496792Y-118207657D01*
X261512267Y-118225186D01*
X261516092Y-118242044D01*
X261507151Y-118256062D01*
X261485688Y-118264925D01*
X261456691Y-118266950D01*
X261426398Y-118262090D01*
X261400600Y-118250639D01*
X261386713Y-118240557D01*
X261375416Y-118227763D01*
X261375654Y-118215008D01*
X261386367Y-118198402D01*
X261390983Y-118193162D01*
X261412750Y-118180511D01*
X261440593Y-118180723D01*
G37*
G36*
X263669056Y-118181951D02*
G01*
X263681651Y-118193221D01*
X263692939Y-118215342D01*
X263690533Y-118236190D01*
X263674702Y-118253883D01*
X263646117Y-118267030D01*
X263639444Y-118268880D01*
X263609651Y-118273512D01*
X263585057Y-118271706D01*
X263569787Y-118263645D01*
X263568380Y-118261819D01*
X263563298Y-118243901D01*
X263570221Y-118224634D01*
X263587139Y-118206281D01*
X263612042Y-118191102D01*
X263642921Y-118181359D01*
X263653370Y-118179821D01*
X263669056Y-118181951D01*
G37*
G36*
X261493380Y-118382512D02*
G01*
X261516271Y-118389211D01*
X261537329Y-118401398D01*
X261544029Y-118407721D01*
X261554087Y-118426318D01*
X261553827Y-118444808D01*
X261542797Y-118458457D01*
X261535843Y-118461821D01*
X261511072Y-118465944D01*
X261486262Y-118461020D01*
X261466112Y-118448571D01*
X261455321Y-118430118D01*
X261452073Y-118415954D01*
X261448559Y-118402413D01*
X261448018Y-118394946D01*
X261455823Y-118385418D01*
X261472087Y-118381261D01*
X261493380Y-118382512D01*
G37*
G36*
X260295316Y-116714178D02*
G01*
X260323135Y-116729730D01*
X260337711Y-116747377D01*
X260345099Y-116773817D01*
X260340767Y-116802018D01*
X260325320Y-116828876D01*
X260299366Y-116851286D01*
X260292920Y-116854835D01*
X260264387Y-116861578D01*
X260236936Y-116855482D01*
X260213805Y-116837867D01*
X260198230Y-116810051D01*
X260194148Y-116784256D01*
X260200363Y-116756293D01*
X260216275Y-116733574D01*
X260239198Y-116717829D01*
X260266441Y-116710788D01*
X260295316Y-116714178D01*
G37*
G36*
X264623865Y-116486100D02*
G01*
X264651004Y-116499466D01*
X264674886Y-116526306D01*
X264684769Y-116545967D01*
X264689735Y-116577582D01*
X264683795Y-116608388D01*
X264667925Y-116634516D01*
X264643102Y-116652098D01*
X264640220Y-116653181D01*
X264613237Y-116655464D01*
X264584347Y-116647105D01*
X264558199Y-116630143D01*
X264539443Y-116606619D01*
X264528749Y-116573969D01*
X264529627Y-116542231D01*
X264541188Y-116514898D01*
X264562210Y-116494828D01*
X264591473Y-116484878D01*
X264623865Y-116486100D01*
G37*
G36*
X264832916Y-116710887D02*
G01*
X264860060Y-116720086D01*
X264881677Y-116737337D01*
X264893782Y-116761597D01*
X264895202Y-116774923D01*
X264889569Y-116804190D01*
X264874229Y-116830002D01*
X264851787Y-116847062D01*
X264838124Y-116852831D01*
X264823424Y-116856971D01*
X264811111Y-116855075D01*
X264794418Y-116847153D01*
X264775956Y-116834337D01*
X264757421Y-116809875D01*
X264749414Y-116781719D01*
X264752735Y-116753472D01*
X264768181Y-116728739D01*
X264777971Y-116720810D01*
X264804225Y-116710781D01*
X264832916Y-116710887D01*
G37*
G36*
X264356313Y-117380345D02*
G01*
X264384858Y-117397553D01*
X264404696Y-117423696D01*
X264413944Y-117456231D01*
X264410719Y-117492618D01*
X264404997Y-117510214D01*
X264390533Y-117534314D01*
X264366657Y-117554251D01*
X264342634Y-117564932D01*
X264314085Y-117565818D01*
X264287224Y-117555945D01*
X264263950Y-117537421D01*
X264246160Y-117512352D01*
X264235754Y-117482843D01*
X264234630Y-117451001D01*
X264244687Y-117418932D01*
X264262103Y-117394850D01*
X264288073Y-117379442D01*
X264323266Y-117374586D01*
X264356313Y-117380345D01*
G37*
G36*
X262966177Y-114982491D02*
G01*
X262975703Y-114994175D01*
X262977807Y-114997602D01*
X262984118Y-115020229D01*
X262976301Y-115039823D01*
X262954844Y-115054961D01*
X262954560Y-115055085D01*
X262932823Y-115061109D01*
X262913128Y-115061353D01*
X262899372Y-115056902D01*
X262879433Y-115046001D01*
X262863997Y-115032966D01*
X262857799Y-115021232D01*
X262863558Y-115008991D01*
X262880157Y-114995862D01*
X262903633Y-114985074D01*
X262929985Y-114978970D01*
X262935308Y-114978400D01*
X262954589Y-114977857D01*
X262966177Y-114982491D01*
G37*
G36*
X260509356Y-116488807D02*
G01*
X260510460Y-116489143D01*
X260538369Y-116503612D01*
X260554545Y-116526610D01*
X260559746Y-116559193D01*
X260559466Y-116566408D01*
X260550878Y-116600403D01*
X260532231Y-116629166D01*
X260506143Y-116648340D01*
X260475421Y-116655764D01*
X260444816Y-116649624D01*
X260417761Y-116629382D01*
X260411987Y-116622305D01*
X260399248Y-116594300D01*
X260398265Y-116564865D01*
X260407314Y-116536644D01*
X260424671Y-116512283D01*
X260448613Y-116494426D01*
X260477415Y-116485719D01*
X260509356Y-116488807D01*
G37*
G36*
X263680254Y-117957280D02*
G01*
X263686848Y-117964878D01*
X263695079Y-117986257D01*
X263688691Y-118008042D01*
X263667773Y-118030055D01*
X263632414Y-118052120D01*
X263625011Y-118055727D01*
X263603266Y-118064188D01*
X263586833Y-118067725D01*
X263586602Y-118067729D01*
X263568823Y-118062773D01*
X263553865Y-118050679D01*
X263547603Y-118036171D01*
X263550874Y-118023478D01*
X263563037Y-118002941D01*
X263580740Y-117982427D01*
X263600300Y-117966789D01*
X263611020Y-117960637D01*
X263640310Y-117948274D01*
X263662796Y-117947225D01*
X263680254Y-117957280D01*
G37*
G36*
X262564882Y-115681219D02*
G01*
X262599486Y-115697028D01*
X262628722Y-115724607D01*
X262640882Y-115746057D01*
X262647879Y-115780258D01*
X262643089Y-115814868D01*
X262627246Y-115846038D01*
X262601080Y-115869919D01*
X262583273Y-115877744D01*
X262550126Y-115883755D01*
X262515616Y-115882579D01*
X262486724Y-115873967D01*
X262455199Y-115851217D01*
X262432206Y-115821670D01*
X262420974Y-115789282D01*
X262419803Y-115771049D01*
X262424117Y-115751397D01*
X262436810Y-115728859D01*
X262459161Y-115703744D01*
X262491691Y-115684644D01*
X262527941Y-115677113D01*
X262564882Y-115681219D01*
G37*
G36*
X260794449Y-117377183D02*
G01*
X260823507Y-117399843D01*
X260837490Y-117417123D01*
X260845505Y-117436039D01*
X260847460Y-117461161D01*
X260847185Y-117469667D01*
X260839019Y-117506583D01*
X260820709Y-117536121D01*
X260793857Y-117555458D01*
X260785367Y-117559040D01*
X260765628Y-117565001D01*
X260748303Y-117563900D01*
X260725687Y-117555774D01*
X260698585Y-117537253D01*
X260680030Y-117509762D01*
X260671310Y-117477089D01*
X260673395Y-117442892D01*
X260687253Y-117410827D01*
X260703570Y-117391440D01*
X260732104Y-117373173D01*
X260763189Y-117368356D01*
X260794449Y-117377183D01*
G37*
G36*
X264386296Y-117034551D02*
G01*
X264396612Y-117043257D01*
X264405373Y-117055200D01*
X264406890Y-117074339D01*
X264395074Y-117094789D01*
X264372074Y-117116950D01*
X264341016Y-117138198D01*
X264304985Y-117156059D01*
X264297361Y-117159061D01*
X264256991Y-117171021D01*
X264221299Y-117175158D01*
X264193874Y-117170992D01*
X264187975Y-117167866D01*
X264186510Y-117160753D01*
X264193005Y-117146050D01*
X264206226Y-117127122D01*
X264233566Y-117100963D01*
X264268807Y-117075774D01*
X264308291Y-117054090D01*
X264348356Y-117038447D01*
X264359155Y-117035300D01*
X264375662Y-117032084D01*
X264386296Y-117034551D01*
G37*
G36*
X261433777Y-117954880D02*
G01*
X261454055Y-117963099D01*
X261460155Y-117966038D01*
X261483703Y-117981297D01*
X261504936Y-118000256D01*
X261520289Y-118019359D01*
X261526198Y-118035053D01*
X261523997Y-118041977D01*
X261513288Y-118052706D01*
X261510687Y-118054220D01*
X261501736Y-118058667D01*
X261492869Y-118059604D01*
X261479340Y-118056810D01*
X261456403Y-118050064D01*
X261447723Y-118047220D01*
X261417366Y-118032593D01*
X261396715Y-118014747D01*
X261386871Y-117995564D01*
X261388937Y-117976923D01*
X261404015Y-117960703D01*
X261409795Y-117957097D01*
X261420944Y-117952971D01*
X261433777Y-117954880D01*
G37*
G36*
X261417065Y-115295177D02*
G01*
X261452626Y-115304411D01*
X261478094Y-115321473D01*
X261492912Y-115344041D01*
X261496524Y-115369791D01*
X261488374Y-115396401D01*
X261467905Y-115421549D01*
X261434562Y-115442912D01*
X261433372Y-115443460D01*
X261397058Y-115454066D01*
X261359259Y-115455196D01*
X261324547Y-115447259D01*
X261297495Y-115430664D01*
X261297405Y-115430577D01*
X261281411Y-115410047D01*
X261275398Y-115390560D01*
X261275399Y-115390361D01*
X261282419Y-115361866D01*
X261301228Y-115335704D01*
X261328882Y-115314173D01*
X261362436Y-115299570D01*
X261398945Y-115294191D01*
X261417065Y-115295177D01*
G37*
G36*
X263671711Y-115294686D02*
G01*
X263718131Y-115302173D01*
X263755680Y-115318946D01*
X263782534Y-115344267D01*
X263783998Y-115346380D01*
X263796307Y-115375405D01*
X263794554Y-115403094D01*
X263779360Y-115427410D01*
X263751348Y-115446318D01*
X263750353Y-115446755D01*
X263724064Y-115452635D01*
X263690894Y-115452886D01*
X263657107Y-115447927D01*
X263628969Y-115438174D01*
X263615366Y-115429701D01*
X263592282Y-115408072D01*
X263575921Y-115383140D01*
X263569707Y-115359454D01*
X263573554Y-115340967D01*
X263591271Y-115315756D01*
X263601955Y-115305947D01*
X263615233Y-115298323D01*
X263632655Y-115295012D01*
X263659511Y-115294353D01*
X263671711Y-115294686D01*
G37*
G36*
X262183714Y-115379792D02*
G01*
X262226506Y-115389180D01*
X262263643Y-115407277D01*
X262291616Y-115433506D01*
X262300304Y-115446525D01*
X262316215Y-115485413D01*
X262318190Y-115523735D01*
X262306726Y-115559518D01*
X262282324Y-115590792D01*
X262245484Y-115615582D01*
X262242151Y-115617059D01*
X262213076Y-115623431D01*
X262171384Y-115624354D01*
X262132599Y-115619943D01*
X262086480Y-115605266D01*
X262049506Y-115581507D01*
X262023109Y-115549667D01*
X262008722Y-115510747D01*
X262009282Y-115481143D01*
X262021776Y-115449065D01*
X262044558Y-115420160D01*
X262075549Y-115397943D01*
X262095203Y-115389452D01*
X262138776Y-115379690D01*
X262183714Y-115379792D01*
G37*
G36*
X261892027Y-115071550D02*
G01*
X261941552Y-115087376D01*
X261961882Y-115098853D01*
X261991362Y-115125265D01*
X262008246Y-115155649D01*
X262012801Y-115188027D01*
X262005295Y-115220422D01*
X261985994Y-115250857D01*
X261955166Y-115277355D01*
X261913079Y-115297938D01*
X261891554Y-115304149D01*
X261848375Y-115309176D01*
X261805160Y-115305851D01*
X261764342Y-115295178D01*
X261728357Y-115278164D01*
X261699640Y-115255813D01*
X261680624Y-115229130D01*
X261673744Y-115199121D01*
X261676202Y-115177460D01*
X261690034Y-115147374D01*
X261716828Y-115120362D01*
X261757467Y-115095330D01*
X261786594Y-115082570D01*
X261839989Y-115069964D01*
X261892027Y-115071550D01*
G37*
G36*
X262944977Y-115382270D02*
G01*
X262987509Y-115395885D01*
X263023026Y-115418006D01*
X263049268Y-115447539D01*
X263063973Y-115483392D01*
X263064027Y-115509669D01*
X263052751Y-115540937D01*
X263031559Y-115570840D01*
X263002674Y-115596335D01*
X262968317Y-115614380D01*
X262949534Y-115619299D01*
X262919606Y-115623738D01*
X262888423Y-115625650D01*
X262870405Y-115625325D01*
X262825713Y-115618308D01*
X262791454Y-115601677D01*
X262766483Y-115574700D01*
X262749657Y-115536643D01*
X262746720Y-115523874D01*
X262747448Y-115486920D01*
X262760516Y-115451854D01*
X262784186Y-115421180D01*
X262816719Y-115397399D01*
X262856376Y-115383014D01*
X262897694Y-115378255D01*
X262944977Y-115382270D01*
G37*
G36*
X260740917Y-117038107D02*
G01*
X260772409Y-117051880D01*
X260787531Y-117060119D01*
X260812832Y-117077504D01*
X260838649Y-117098587D01*
X260862458Y-117120938D01*
X260881737Y-117142132D01*
X260893960Y-117159740D01*
X260896605Y-117171336D01*
X260896213Y-117172246D01*
X260884627Y-117180774D01*
X260863295Y-117182978D01*
X260835111Y-117179709D01*
X260802968Y-117171822D01*
X260769760Y-117160171D01*
X260738382Y-117145610D01*
X260711725Y-117128991D01*
X260692685Y-117111170D01*
X260689464Y-117106955D01*
X260674512Y-117080197D01*
X260673193Y-117058352D01*
X260685453Y-117040910D01*
X260688893Y-117038281D01*
X260702495Y-117031728D01*
X260718724Y-117031530D01*
X260740917Y-117038107D01*
G37*
G36*
X260435937Y-116971899D02*
G01*
X260476201Y-116984660D01*
X260512307Y-117007394D01*
X260542510Y-117039297D01*
X260565066Y-117079564D01*
X260578227Y-117127393D01*
X260580250Y-117181978D01*
X260575579Y-117215547D01*
X260558599Y-117264563D01*
X260530747Y-117304460D01*
X260492772Y-117334287D01*
X260445426Y-117353092D01*
X260413728Y-117355992D01*
X260373343Y-117350128D01*
X260332690Y-117336259D01*
X260296675Y-117316110D01*
X260270201Y-117291410D01*
X260259952Y-117277036D01*
X260234141Y-117227331D01*
X260221945Y-117177025D01*
X260223382Y-117127646D01*
X260238469Y-117080723D01*
X260267225Y-117037782D01*
X260268214Y-117036665D01*
X260307654Y-117001495D01*
X260349918Y-116979513D01*
X260393261Y-116969916D01*
X260435937Y-116971899D01*
G37*
G36*
X263245413Y-115071180D02*
G01*
X263287563Y-115081707D01*
X263332655Y-115101575D01*
X263365593Y-115127847D01*
X263385789Y-115160016D01*
X263392652Y-115197575D01*
X263392285Y-115209990D01*
X263388749Y-115226750D01*
X263379186Y-115241869D01*
X263360859Y-115260788D01*
X263346546Y-115273228D01*
X263323316Y-115289597D01*
X263303685Y-115299346D01*
X263284944Y-115304127D01*
X263238028Y-115308359D01*
X263189047Y-115304005D01*
X263143105Y-115291761D01*
X263105305Y-115272321D01*
X263093086Y-115261697D01*
X263073204Y-115235866D01*
X263058830Y-115206450D01*
X263053297Y-115179408D01*
X263053569Y-115172307D01*
X263062912Y-115138676D01*
X263084055Y-115110208D01*
X263114937Y-115088064D01*
X263153497Y-115073404D01*
X263197676Y-115067389D01*
X263245413Y-115071180D01*
G37*
G36*
X264741888Y-116977342D02*
G01*
X264780100Y-116992345D01*
X264807153Y-117012479D01*
X264838436Y-117048184D01*
X264860320Y-117089197D01*
X264861113Y-117091434D01*
X264866729Y-117121172D01*
X264867579Y-117158321D01*
X264863853Y-117196967D01*
X264855743Y-117231197D01*
X264845323Y-117253518D01*
X264823965Y-117284263D01*
X264797254Y-117313242D01*
X264768920Y-117336525D01*
X264742696Y-117350187D01*
X264720689Y-117355839D01*
X264671238Y-117359133D01*
X264625397Y-117349499D01*
X264585119Y-117327836D01*
X264552359Y-117295040D01*
X264529070Y-117252011D01*
X264516631Y-117203125D01*
X264515027Y-117150813D01*
X264524620Y-117100699D01*
X264544597Y-117055343D01*
X264574149Y-117017300D01*
X264612462Y-116989128D01*
X264613598Y-116988537D01*
X264653076Y-116975331D01*
X264697693Y-116971635D01*
X264741888Y-116977342D01*
G37*
G36*
X261452490Y-115620770D02*
G01*
X261533852Y-115632983D01*
X261604910Y-115655033D01*
X261666209Y-115687100D01*
X261718296Y-115729367D01*
X261727029Y-115738360D01*
X261755776Y-115775504D01*
X261771956Y-115813100D01*
X261777026Y-115854243D01*
X261776859Y-115859144D01*
X261770826Y-115886724D01*
X261758240Y-115911716D01*
X261741984Y-115928047D01*
X261725629Y-115934031D01*
X261698479Y-115934537D01*
X261662623Y-115926916D01*
X261616411Y-115910944D01*
X261588797Y-115900513D01*
X261486033Y-115868005D01*
X261388424Y-115847998D01*
X261293942Y-115840430D01*
X261200562Y-115845236D01*
X261106255Y-115862351D01*
X261008996Y-115891712D01*
X260971106Y-115904959D01*
X260940863Y-115914557D01*
X260920315Y-115919314D01*
X260907353Y-115919525D01*
X260899867Y-115915482D01*
X260895750Y-115907481D01*
X260894727Y-115892921D01*
X260902520Y-115866808D01*
X260919653Y-115836186D01*
X260944526Y-115803371D01*
X260975540Y-115770679D01*
X261011094Y-115740428D01*
X261030401Y-115726676D01*
X261081076Y-115696127D01*
X261137395Y-115668166D01*
X261193938Y-115645344D01*
X261245282Y-115630213D01*
X261246923Y-115629854D01*
X261285816Y-115623650D01*
X261332841Y-115619498D01*
X261381762Y-115617956D01*
X261452490Y-115620770D01*
G37*
G36*
X263776880Y-115622890D02*
G01*
X263869023Y-115639615D01*
X263951854Y-115667708D01*
X264025438Y-115707186D01*
X264041152Y-115717986D01*
X264076452Y-115745916D01*
X264109082Y-115776443D01*
X264137797Y-115807856D01*
X264161353Y-115838444D01*
X264178502Y-115866495D01*
X264188001Y-115890298D01*
X264188603Y-115908141D01*
X264179064Y-115918313D01*
X264177739Y-115918613D01*
X264164018Y-115917123D01*
X264141562Y-115911379D01*
X264114512Y-115902402D01*
X264096270Y-115895824D01*
X264026189Y-115873165D01*
X263962082Y-115857433D01*
X263898901Y-115847561D01*
X263831601Y-115842478D01*
X263790684Y-115841324D01*
X263733163Y-115842669D01*
X263680325Y-115848572D01*
X263627854Y-115859815D01*
X263571429Y-115877184D01*
X263506733Y-115901462D01*
X263465506Y-115917202D01*
X263425559Y-115930848D01*
X263394363Y-115939613D01*
X263374209Y-115942782D01*
X263372669Y-115942786D01*
X263340153Y-115936610D01*
X263316350Y-115918766D01*
X263301726Y-115889811D01*
X263296747Y-115850302D01*
X263299515Y-115821954D01*
X263315611Y-115778333D01*
X263345872Y-115737720D01*
X263390071Y-115700388D01*
X263447982Y-115666614D01*
X263466787Y-115657660D01*
X263514259Y-115638729D01*
X263561125Y-115626455D01*
X263612372Y-115619750D01*
X263672989Y-115617527D01*
X263675358Y-115617517D01*
X263776880Y-115622890D01*
G37*
G36*
X265526736Y-115530878D02*
G01*
X265526335Y-115584955D01*
X265524880Y-115635485D01*
X265522369Y-115678744D01*
X265518806Y-115711008D01*
X265514520Y-115737749D01*
X265508552Y-115774946D01*
X265503417Y-115806913D01*
X265502173Y-115814288D01*
X265492509Y-115860392D01*
X265479123Y-115912376D01*
X265463512Y-115965125D01*
X265447172Y-116013525D01*
X265431599Y-116052460D01*
X265410838Y-116097691D01*
X265372912Y-116176062D01*
X265336136Y-116245788D01*
X265298546Y-116310504D01*
X265258183Y-116373844D01*
X265244837Y-116394591D01*
X265229345Y-116420658D01*
X265218761Y-116440981D01*
X265214842Y-116452375D01*
X265215322Y-116455062D01*
X265223907Y-116465366D01*
X265244149Y-116478637D01*
X265277227Y-116495693D01*
X265290497Y-116501974D01*
X265319791Y-116515080D01*
X265344458Y-116525137D01*
X265360221Y-116530358D01*
X265372858Y-116533758D01*
X265407675Y-116546677D01*
X265453893Y-116567578D01*
X265454336Y-116567790D01*
X265471183Y-116574895D01*
X265482022Y-116577839D01*
X265488789Y-116579734D01*
X265505756Y-116586696D01*
X265527895Y-116597017D01*
X265530361Y-116598241D01*
X265563715Y-116619877D01*
X265584938Y-116646333D01*
X265595392Y-116680123D01*
X265596436Y-116723763D01*
X265596274Y-116726106D01*
X265593619Y-116748670D01*
X265592321Y-116759695D01*
X265585442Y-116798265D01*
X265576489Y-116838553D01*
X265566313Y-116877297D01*
X265555765Y-116911235D01*
X265545697Y-116937105D01*
X265536961Y-116951645D01*
X265534135Y-116957377D01*
X265532065Y-116972278D01*
X265531031Y-116982408D01*
X265526194Y-116995025D01*
X265524686Y-116997248D01*
X265517980Y-117011410D01*
X265510460Y-117031543D01*
X265507049Y-117041225D01*
X265486870Y-117088304D01*
X265459003Y-117142530D01*
X265425368Y-117200942D01*
X265387882Y-117260582D01*
X265348463Y-117318491D01*
X265309029Y-117371709D01*
X265271498Y-117417277D01*
X265237788Y-117452236D01*
X265227438Y-117461959D01*
X265218492Y-117472891D01*
X265218157Y-117481875D01*
X265224926Y-117493778D01*
X265225277Y-117494309D01*
X265239377Y-117509780D01*
X265261202Y-117523581D01*
X265294148Y-117537874D01*
X265306291Y-117542640D01*
X265327346Y-117551184D01*
X265329996Y-117552243D01*
X265347567Y-117558638D01*
X265373416Y-117567531D01*
X265402963Y-117577336D01*
X265432802Y-117587229D01*
X265465323Y-117598746D01*
X265490315Y-117608806D01*
X265511678Y-117618898D01*
X265519589Y-117622222D01*
X265534268Y-117625414D01*
X265538138Y-117625985D01*
X265554062Y-117631226D01*
X265574587Y-117640169D01*
X265583342Y-117644213D01*
X265602756Y-117651880D01*
X265615108Y-117654923D01*
X265620116Y-117656342D01*
X265636594Y-117663265D01*
X265661059Y-117674588D01*
X265690465Y-117688792D01*
X265721767Y-117704355D01*
X265751919Y-117719756D01*
X265777877Y-117733475D01*
X265796594Y-117743989D01*
X265805025Y-117749779D01*
X265806496Y-117751184D01*
X265817869Y-117758952D01*
X265835520Y-117769271D01*
X265847984Y-117776602D01*
X265878911Y-117798178D01*
X265909622Y-117823596D01*
X265937705Y-117850452D01*
X265960750Y-117876337D01*
X265976346Y-117898846D01*
X265982080Y-117915570D01*
X265981341Y-117920480D01*
X265971636Y-117935075D01*
X265955548Y-117945368D01*
X265939316Y-117946802D01*
X265938051Y-117946332D01*
X265924647Y-117939554D01*
X265902135Y-117926786D01*
X265873328Y-117909659D01*
X265841038Y-117889805D01*
X265816762Y-117874873D01*
X265683985Y-117801331D01*
X265550677Y-117741021D01*
X265418279Y-117694610D01*
X265408662Y-117691767D01*
X265383573Y-117684647D01*
X265365909Y-117680081D01*
X265359011Y-117678953D01*
X265357460Y-117682552D01*
X265349208Y-117707053D01*
X265342800Y-117733864D01*
X265340200Y-117755041D01*
X265339551Y-117760550D01*
X265333614Y-117776212D01*
X265320722Y-117798486D01*
X265299958Y-117828870D01*
X265270401Y-117868865D01*
X265256484Y-117887442D01*
X265234329Y-117917833D01*
X265216562Y-117943256D01*
X265204729Y-117961476D01*
X265200372Y-117970256D01*
X265205477Y-117979503D01*
X265220244Y-117993284D01*
X265241017Y-118008502D01*
X265264106Y-118022468D01*
X265285820Y-118032493D01*
X265289244Y-118033787D01*
X265304535Y-118041272D01*
X265310747Y-118047402D01*
X265311053Y-118049026D01*
X265318639Y-118053297D01*
X265323866Y-118054881D01*
X265339099Y-118062903D01*
X265358699Y-118075429D01*
X265371244Y-118083838D01*
X265387148Y-118093712D01*
X265395146Y-118097561D01*
X265401102Y-118100384D01*
X265416105Y-118109742D01*
X265436161Y-118123381D01*
X265453289Y-118135072D01*
X265469451Y-118145275D01*
X265477439Y-118149202D01*
X265478860Y-118149587D01*
X265489443Y-118155872D01*
X265505180Y-118167413D01*
X265524549Y-118182555D01*
X265571104Y-118218565D01*
X265615736Y-118252630D01*
X265618083Y-118254452D01*
X265635431Y-118269165D01*
X265659567Y-118290908D01*
X265687960Y-118317263D01*
X265718076Y-118345811D01*
X265747383Y-118374132D01*
X265773350Y-118399808D01*
X265793443Y-118420420D01*
X265805130Y-118433548D01*
X265813768Y-118444980D01*
X265841320Y-118487295D01*
X265856340Y-118522379D01*
X265858790Y-118550110D01*
X265848629Y-118570367D01*
X265843655Y-118574867D01*
X265838026Y-118577055D01*
X265830681Y-118575008D01*
X265819876Y-118567487D01*
X265803869Y-118553252D01*
X265780917Y-118531061D01*
X265749277Y-118499676D01*
X265722326Y-118473189D01*
X265658270Y-118412944D01*
X265597148Y-118359214D01*
X265540973Y-118313730D01*
X265491760Y-118278224D01*
X265467210Y-118261815D01*
X265442730Y-118245277D01*
X265425095Y-118233173D01*
X265420539Y-118230010D01*
X265353078Y-118186711D01*
X265275916Y-118142890D01*
X265193423Y-118101038D01*
X265171527Y-118090706D01*
X265146584Y-118079352D01*
X265129229Y-118071967D01*
X265122298Y-118069798D01*
X265121454Y-118070930D01*
X265114292Y-118081212D01*
X265101629Y-118099681D01*
X265085495Y-118123381D01*
X265064715Y-118153400D01*
X265033510Y-118195440D01*
X265001785Y-118233616D01*
X264965855Y-118272265D01*
X264922035Y-118315726D01*
X264898365Y-118338743D01*
X264877698Y-118359687D01*
X264865050Y-118374363D01*
X264858904Y-118384883D01*
X264857739Y-118393356D01*
X264860038Y-118401892D01*
X264863495Y-118407779D01*
X264877668Y-118423700D01*
X264899240Y-118443449D01*
X264925111Y-118464064D01*
X264987693Y-118511944D01*
X265046616Y-118560505D01*
X265092787Y-118602970D01*
X265101978Y-118612243D01*
X265128055Y-118639891D01*
X265156278Y-118671346D01*
X265184916Y-118704511D01*
X265212239Y-118737286D01*
X265236517Y-118767574D01*
X265256020Y-118793275D01*
X265269019Y-118812292D01*
X265273783Y-118822526D01*
X265274678Y-118825629D01*
X265281323Y-118838930D01*
X265292304Y-118857421D01*
X265300279Y-118873337D01*
X265307916Y-118898809D01*
X265311249Y-118924301D01*
X265309788Y-118945281D01*
X265303046Y-118957214D01*
X265300371Y-118958430D01*
X265292862Y-118957640D01*
X265282706Y-118950433D01*
X265268474Y-118935375D01*
X265248737Y-118911031D01*
X265222065Y-118875968D01*
X265207794Y-118857595D01*
X265166049Y-118808883D01*
X265117502Y-118757726D01*
X265066066Y-118708141D01*
X265015655Y-118664143D01*
X265003996Y-118654540D01*
X264978968Y-118633813D01*
X264949488Y-118609305D01*
X264919751Y-118584498D01*
X264899508Y-118567939D01*
X264871642Y-118546211D01*
X264847670Y-118528692D01*
X264831223Y-118518104D01*
X264829876Y-118517367D01*
X264805828Y-118502474D01*
X264783762Y-118486364D01*
X264762122Y-118468608D01*
X264721055Y-118499369D01*
X264718955Y-118500934D01*
X264700689Y-118513875D01*
X264677423Y-118529254D01*
X264647845Y-118547868D01*
X264610647Y-118570517D01*
X264564518Y-118598001D01*
X264508148Y-118631118D01*
X264440227Y-118670667D01*
X264414410Y-118685373D01*
X264376828Y-118706044D01*
X264337684Y-118726900D01*
X264299388Y-118746719D01*
X264264350Y-118764276D01*
X264234983Y-118778347D01*
X264213697Y-118787709D01*
X264202902Y-118791139D01*
X264202157Y-118791151D01*
X264192236Y-118792499D01*
X264184294Y-118797318D01*
X264177681Y-118807467D01*
X264171752Y-118824807D01*
X264165859Y-118851198D01*
X264159355Y-118888499D01*
X264151591Y-118938571D01*
X264148300Y-118961303D01*
X264143765Y-118995187D01*
X264140378Y-119023410D01*
X264138646Y-119036233D01*
X264134334Y-119056335D01*
X264129701Y-119067305D01*
X264126643Y-119075609D01*
X264124014Y-119095011D01*
X264123004Y-119120275D01*
X264123004Y-119166237D01*
X264144813Y-119159982D01*
X264164248Y-119153141D01*
X264187233Y-119142698D01*
X264229252Y-119121624D01*
X264264513Y-119107686D01*
X264296045Y-119100132D01*
X264327891Y-119097668D01*
X264329869Y-119097649D01*
X264355205Y-119098074D01*
X264371641Y-119101306D01*
X264384678Y-119109386D01*
X264399819Y-119124355D01*
X264401706Y-119126356D01*
X264413203Y-119139324D01*
X264420225Y-119150945D01*
X264423876Y-119165245D01*
X264425257Y-119186248D01*
X264425472Y-119217980D01*
X264425302Y-119232283D01*
X264423892Y-119259941D01*
X264421365Y-119280043D01*
X264418309Y-119288408D01*
X264418095Y-119288993D01*
X264414383Y-119293090D01*
X264410718Y-119306738D01*
X264407796Y-119322029D01*
X264400456Y-119341344D01*
X264398730Y-119344995D01*
X264388428Y-119367790D01*
X264377902Y-119392275D01*
X264363246Y-119425753D01*
X264311557Y-119525657D01*
X264246099Y-119629971D01*
X264166835Y-119738742D01*
X264073728Y-119852015D01*
X263966741Y-119969836D01*
X263845837Y-120092251D01*
X263710979Y-120219305D01*
X263645577Y-120277399D01*
X263573424Y-120337103D01*
X263501132Y-120391752D01*
X263423978Y-120445061D01*
X263421173Y-120446925D01*
X263384299Y-120471597D01*
X263347266Y-120496660D01*
X263314235Y-120519283D01*
X263289370Y-120536633D01*
X263232160Y-120575853D01*
X263153872Y-120625889D01*
X263071163Y-120675245D01*
X262986330Y-120722726D01*
X262901668Y-120767136D01*
X262819474Y-120807280D01*
X262742044Y-120841960D01*
X262671674Y-120869981D01*
X262610660Y-120890148D01*
X262571298Y-120898046D01*
X262514391Y-120898137D01*
X262452843Y-120885427D01*
X262412801Y-120872359D01*
X262341020Y-120844285D01*
X262260789Y-120808045D01*
X262173791Y-120764531D01*
X262081708Y-120714632D01*
X261986224Y-120659240D01*
X261889020Y-120599245D01*
X261791781Y-120535537D01*
X261791494Y-120535344D01*
X261751297Y-120508228D01*
X261712712Y-120482229D01*
X261678394Y-120459131D01*
X261650995Y-120440722D01*
X261633169Y-120428786D01*
X261630367Y-120426892D01*
X261605433Y-120408713D01*
X261576168Y-120385715D01*
X261548330Y-120362403D01*
X261543999Y-120358647D01*
X261516626Y-120335575D01*
X261489714Y-120313829D01*
X261468523Y-120297674D01*
X261445332Y-120280243D01*
X261399476Y-120242812D01*
X261347549Y-120197480D01*
X261291747Y-120146358D01*
X261234264Y-120091552D01*
X261177296Y-120035172D01*
X261123036Y-119979327D01*
X261073678Y-119926125D01*
X261031419Y-119877675D01*
X261013474Y-119856296D01*
X260988658Y-119826897D01*
X260966752Y-119801123D01*
X260951023Y-119782830D01*
X260927928Y-119755849D01*
X260903147Y-119725100D01*
X260888063Y-119703511D01*
X260884688Y-119698181D01*
X260873655Y-119681373D01*
X260857835Y-119657645D01*
X260839435Y-119630315D01*
X260813653Y-119591226D01*
X260763705Y-119508939D01*
X260721413Y-119429720D01*
X260687390Y-119354985D01*
X260664128Y-119291298D01*
X260860300Y-119291298D01*
X260893158Y-119352852D01*
X260925542Y-119410389D01*
X260993889Y-119517370D01*
X261073380Y-119626477D01*
X261162298Y-119735745D01*
X261258923Y-119843210D01*
X261361534Y-119946906D01*
X261468413Y-120044870D01*
X261577839Y-120135136D01*
X261621926Y-120168958D01*
X261685066Y-120216062D01*
X261752706Y-120265274D01*
X261822171Y-120314715D01*
X261890782Y-120362503D01*
X261955865Y-120406760D01*
X262014744Y-120445606D01*
X262064740Y-120477159D01*
X262065905Y-120477869D01*
X262106340Y-120501380D01*
X262155063Y-120527987D01*
X262208571Y-120555931D01*
X262263362Y-120583451D01*
X262315933Y-120608787D01*
X262362782Y-120630178D01*
X262400407Y-120645865D01*
X262429700Y-120657259D01*
X262461468Y-120669847D01*
X262486613Y-120680046D01*
X262495366Y-120683614D01*
X262514678Y-120690259D01*
X262531475Y-120692516D01*
X262549777Y-120690031D01*
X262573602Y-120682446D01*
X262606971Y-120669408D01*
X262612518Y-120667197D01*
X262645766Y-120654610D01*
X262677977Y-120643359D01*
X262702876Y-120635651D01*
X262719071Y-120630609D01*
X262750649Y-120618632D01*
X262780337Y-120605226D01*
X262798254Y-120596422D01*
X262826106Y-120583377D01*
X262848410Y-120573640D01*
X262855456Y-120570650D01*
X262889749Y-120553888D01*
X262933592Y-120529841D01*
X262985126Y-120499665D01*
X263042491Y-120464515D01*
X263103826Y-120425547D01*
X263167273Y-120383918D01*
X263230970Y-120340783D01*
X263293059Y-120297298D01*
X263332236Y-120269044D01*
X263495465Y-120144164D01*
X263646422Y-120016579D01*
X263784611Y-119886774D01*
X263909536Y-119755236D01*
X264020701Y-119622452D01*
X264117610Y-119488907D01*
X264120581Y-119484449D01*
X264143473Y-119448678D01*
X264165702Y-119411706D01*
X264186054Y-119375807D01*
X264203319Y-119343255D01*
X264216284Y-119316322D01*
X264223739Y-119297282D01*
X264224471Y-119288408D01*
X264221724Y-119288513D01*
X264207920Y-119292566D01*
X264185404Y-119300661D01*
X264157315Y-119311709D01*
X264155929Y-119312269D01*
X264128896Y-119321889D01*
X264095556Y-119331953D01*
X264058830Y-119341795D01*
X264021638Y-119350749D01*
X263986902Y-119358148D01*
X263957542Y-119363326D01*
X263936478Y-119365616D01*
X263926632Y-119364351D01*
X263925970Y-119359310D01*
X263926904Y-119342136D01*
X263929673Y-119316002D01*
X263933982Y-119284129D01*
X263935040Y-119276849D01*
X263940295Y-119237993D01*
X263946196Y-119190961D01*
X263952094Y-119141033D01*
X263957343Y-119093494D01*
X263959338Y-119074919D01*
X263964059Y-119033083D01*
X263968621Y-118995277D01*
X263972586Y-118965051D01*
X263975518Y-118945954D01*
X263977274Y-118935838D01*
X263979662Y-118918571D01*
X263979764Y-118910910D01*
X263975001Y-118912016D01*
X263959056Y-118917718D01*
X263934685Y-118927203D01*
X263904756Y-118939380D01*
X263900033Y-118941322D01*
X263863112Y-118955810D01*
X263818202Y-118972561D01*
X263770547Y-118989650D01*
X263725390Y-119005155D01*
X263619180Y-119040605D01*
X263592599Y-119091026D01*
X263580255Y-119113277D01*
X263532894Y-119184877D01*
X263471601Y-119260816D01*
X263396472Y-119340975D01*
X263381511Y-119355692D01*
X263285349Y-119438698D01*
X263179884Y-119511662D01*
X263067017Y-119573642D01*
X262948653Y-119623694D01*
X262826694Y-119660877D01*
X262703042Y-119684250D01*
X262672281Y-119687272D01*
X262621183Y-119689711D01*
X262562781Y-119690334D01*
X262500746Y-119689261D01*
X262438746Y-119686616D01*
X262380452Y-119682521D01*
X262329533Y-119677098D01*
X262289659Y-119670470D01*
X262254906Y-119662179D01*
X262173352Y-119637820D01*
X262089018Y-119606691D01*
X262006286Y-119570637D01*
X261929534Y-119531498D01*
X261863145Y-119491116D01*
X261798123Y-119443549D01*
X261722283Y-119379004D01*
X261650842Y-119308582D01*
X261586216Y-119234871D01*
X261530819Y-119160459D01*
X261487065Y-119087936D01*
X261481418Y-119077385D01*
X261466319Y-119052309D01*
X261454386Y-119038625D01*
X261444128Y-119034476D01*
X261435384Y-119032926D01*
X261414547Y-119026843D01*
X261386294Y-119017222D01*
X261354158Y-119005213D01*
X261352843Y-119004700D01*
X261288041Y-118979492D01*
X261235643Y-118959225D01*
X261194348Y-118943434D01*
X261162859Y-118931653D01*
X261139876Y-118923417D01*
X261124103Y-118918260D01*
X261114240Y-118915716D01*
X261108989Y-118915321D01*
X261107051Y-118916607D01*
X261107010Y-118924892D01*
X261108432Y-118945722D01*
X261111117Y-118976626D01*
X261114811Y-119015241D01*
X261119261Y-119059207D01*
X261124213Y-119106164D01*
X261129412Y-119153751D01*
X261134606Y-119199606D01*
X261139541Y-119241370D01*
X261143963Y-119276681D01*
X261147617Y-119303178D01*
X261150251Y-119318502D01*
X261153660Y-119333433D01*
X261157133Y-119353074D01*
X261155052Y-119364017D01*
X261145147Y-119367969D01*
X261125148Y-119366639D01*
X261092783Y-119361735D01*
X261076748Y-119359010D01*
X261033769Y-119350036D01*
X260988563Y-119338693D01*
X260945327Y-119326162D01*
X260908259Y-119313625D01*
X260881559Y-119302265D01*
X260860300Y-119291298D01*
X260664128Y-119291298D01*
X260662247Y-119286148D01*
X260646597Y-119224624D01*
X260641052Y-119171827D01*
X260644278Y-119152240D01*
X260655645Y-119127543D01*
X260672029Y-119107144D01*
X260690072Y-119096224D01*
X260693189Y-119095579D01*
X260713388Y-119094340D01*
X260739155Y-119095587D01*
X260765412Y-119098748D01*
X260787076Y-119103249D01*
X260799067Y-119108519D01*
X260806531Y-119112721D01*
X260822919Y-119115626D01*
X260824563Y-119115684D01*
X260843113Y-119120028D01*
X260863863Y-119129166D01*
X260870653Y-119132531D01*
X260896272Y-119141593D01*
X260923578Y-119147533D01*
X260934934Y-119148988D01*
X260950345Y-119149820D01*
X260955914Y-119146773D01*
X260954843Y-119138970D01*
X260954017Y-119135495D01*
X260951041Y-119118380D01*
X260946823Y-119090649D01*
X260941742Y-119055088D01*
X260936175Y-119014487D01*
X260930503Y-118971631D01*
X260925101Y-118929310D01*
X260920350Y-118890311D01*
X260916627Y-118857421D01*
X260914295Y-118841059D01*
X260909325Y-118820035D01*
X260903871Y-118808270D01*
X260903836Y-118808235D01*
X260892974Y-118801197D01*
X260872740Y-118791029D01*
X260847488Y-118779922D01*
X260810594Y-118764129D01*
X260751511Y-118736908D01*
X260689133Y-118706221D01*
X260625559Y-118673245D01*
X260562888Y-118639158D01*
X260503220Y-118605137D01*
X260448655Y-118572361D01*
X260401290Y-118542007D01*
X260363226Y-118515253D01*
X260336562Y-118493276D01*
X260335576Y-118492355D01*
X260321292Y-118483843D01*
X260305801Y-118486967D01*
X260279804Y-118501155D01*
X260242948Y-118524989D01*
X260195685Y-118558188D01*
X260138329Y-118600530D01*
X260071192Y-118651796D01*
X260046405Y-118672231D01*
X260010034Y-118704921D01*
X259969619Y-118743469D01*
X259928175Y-118784915D01*
X259888718Y-118826300D01*
X259854263Y-118864665D01*
X259846283Y-118873902D01*
X259818987Y-118905121D01*
X259798972Y-118926962D01*
X259784489Y-118940989D01*
X259773789Y-118948767D01*
X259765120Y-118951858D01*
X259756734Y-118951826D01*
X259743993Y-118947903D01*
X259731187Y-118937641D01*
X259729916Y-118927215D01*
X259735493Y-118905784D01*
X259747684Y-118877014D01*
X259765217Y-118843320D01*
X259786816Y-118807116D01*
X259811210Y-118770816D01*
X259837123Y-118736836D01*
X259869099Y-118700523D01*
X259912314Y-118656093D01*
X259962014Y-118608505D01*
X260015278Y-118560467D01*
X260069188Y-118514683D01*
X260120825Y-118473859D01*
X260143033Y-118456771D01*
X260170080Y-118435146D01*
X260191869Y-118416810D01*
X260205086Y-118404492D01*
X260222951Y-118385317D01*
X260121489Y-118283452D01*
X260085324Y-118246690D01*
X260045942Y-118205004D01*
X260015688Y-118170486D01*
X259993400Y-118141713D01*
X259977916Y-118117263D01*
X259968075Y-118095716D01*
X259959745Y-118081824D01*
X259948009Y-118075429D01*
X259934916Y-118077408D01*
X259907339Y-118086373D01*
X259870870Y-118101619D01*
X259827533Y-118122101D01*
X259779349Y-118146772D01*
X259728341Y-118174587D01*
X259676531Y-118204500D01*
X259625941Y-118235466D01*
X259578595Y-118266439D01*
X259561043Y-118278659D01*
X259519539Y-118309421D01*
X259476154Y-118343755D01*
X259432857Y-118379904D01*
X259391620Y-118416114D01*
X259354412Y-118450631D01*
X259323202Y-118481701D01*
X259299960Y-118507568D01*
X259286657Y-118526477D01*
X259272783Y-118547969D01*
X259252971Y-118565113D01*
X259233460Y-118570325D01*
X259216171Y-118565039D01*
X259203024Y-118550685D01*
X259195939Y-118528695D01*
X259196837Y-118500503D01*
X259207636Y-118467540D01*
X259211647Y-118460257D01*
X259228560Y-118436926D01*
X259253956Y-118407277D01*
X259285737Y-118373428D01*
X259321805Y-118337497D01*
X259360060Y-118301601D01*
X259398404Y-118267858D01*
X259434737Y-118238386D01*
X259498317Y-118190568D01*
X259569406Y-118140364D01*
X259636306Y-118097240D01*
X259702234Y-118059142D01*
X259770404Y-118024017D01*
X259798518Y-118010003D01*
X259828362Y-117994441D01*
X259851811Y-117981458D01*
X259865395Y-117972922D01*
X259882925Y-117959613D01*
X259812758Y-117876431D01*
X259784412Y-117842163D01*
X259755047Y-117804071D01*
X259734215Y-117772766D01*
X259720763Y-117746234D01*
X259713538Y-117722461D01*
X259711386Y-117699434D01*
X259710592Y-117681074D01*
X259707108Y-117672332D01*
X259699634Y-117672609D01*
X259687617Y-117676568D01*
X259668281Y-117681818D01*
X259656806Y-117685314D01*
X259632361Y-117694110D01*
X259600187Y-117706511D01*
X259563562Y-117721219D01*
X259525763Y-117736937D01*
X259490067Y-117752367D01*
X259468936Y-117761981D01*
X259417152Y-117787029D01*
X259358468Y-117817039D01*
X259296672Y-117850049D01*
X259235551Y-117884100D01*
X259202900Y-117902536D01*
X259168812Y-117920899D01*
X259143616Y-117932696D01*
X259125181Y-117938544D01*
X259111376Y-117939062D01*
X259100072Y-117934867D01*
X259089137Y-117926578D01*
X259084654Y-117922581D01*
X259075069Y-117911865D01*
X259074560Y-117901514D01*
X259081970Y-117884788D01*
X259085583Y-117878726D01*
X259102227Y-117858716D01*
X259126291Y-117835344D01*
X259154075Y-117811820D01*
X259181879Y-117791356D01*
X259206004Y-117777161D01*
X259212204Y-117774039D01*
X259234694Y-117761187D01*
X259257800Y-117746365D01*
X259262417Y-117743347D01*
X259284036Y-117730613D01*
X259314897Y-117713604D01*
X259351949Y-117693891D01*
X259392140Y-117673044D01*
X259432419Y-117652634D01*
X259469734Y-117634231D01*
X259501033Y-117619407D01*
X259523265Y-117609732D01*
X259541059Y-117603218D01*
X259569532Y-117593430D01*
X259604272Y-117581879D01*
X259641302Y-117569909D01*
X259644185Y-117568989D01*
X259678199Y-117557914D01*
X259707016Y-117548133D01*
X259727673Y-117540677D01*
X259737206Y-117536576D01*
X259739441Y-117535276D01*
X259753811Y-117529185D01*
X259774093Y-117522199D01*
X259783323Y-117518983D01*
X259810244Y-117507409D01*
X259837507Y-117493446D01*
X259857950Y-117480643D01*
X259856635Y-117477774D01*
X259847558Y-117466035D01*
X259831726Y-117447504D01*
X259811139Y-117424575D01*
X259798684Y-117410613D01*
X259778340Y-117385946D01*
X259757237Y-117357717D01*
X259734105Y-117324053D01*
X259707675Y-117283080D01*
X259676677Y-117232924D01*
X259639843Y-117171711D01*
X259631609Y-117157872D01*
X259613828Y-117127392D01*
X259600730Y-117103295D01*
X259590098Y-117081068D01*
X259579714Y-117056196D01*
X259567360Y-117024165D01*
X259567127Y-117023550D01*
X259556059Y-116994706D01*
X259545774Y-116968449D01*
X259538470Y-116950392D01*
X259522842Y-116910345D01*
X259504673Y-116856268D01*
X259489211Y-116801959D01*
X259477712Y-116751915D01*
X259476534Y-116744166D01*
X259663075Y-116744166D01*
X259664545Y-116753974D01*
X259668758Y-116768789D01*
X259674778Y-116784403D01*
X259678244Y-116793480D01*
X259685072Y-116814357D01*
X259693928Y-116843186D01*
X259703759Y-116876620D01*
X259709022Y-116894027D01*
X259736634Y-116969459D01*
X259772937Y-117050420D01*
X259816011Y-117133575D01*
X259863934Y-117215590D01*
X259914787Y-117293129D01*
X259966648Y-117362858D01*
X260017595Y-117421442D01*
X260024913Y-117429042D01*
X260047879Y-117452250D01*
X260064456Y-117467010D01*
X260077498Y-117475243D01*
X260089862Y-117478870D01*
X260104405Y-117479810D01*
X260119089Y-117480153D01*
X260164142Y-117482521D01*
X260211800Y-117486633D01*
X260259172Y-117492087D01*
X260303369Y-117498482D01*
X260341498Y-117505414D01*
X260370669Y-117512481D01*
X260387992Y-117519281D01*
X260389485Y-117520234D01*
X260408004Y-117536966D01*
X260414709Y-117554100D01*
X260408529Y-117569041D01*
X260403998Y-117572865D01*
X260397489Y-117576142D01*
X260387295Y-117579002D01*
X260371577Y-117581705D01*
X260348500Y-117584511D01*
X260316225Y-117587678D01*
X260272914Y-117591467D01*
X260216730Y-117596137D01*
X260158796Y-117601556D01*
X260099263Y-117608510D01*
X260044208Y-117616318D01*
X259995337Y-117624659D01*
X259954357Y-117633209D01*
X259922973Y-117641645D01*
X259902891Y-117649644D01*
X259895818Y-117656884D01*
X259898663Y-117667256D01*
X259907882Y-117688084D01*
X259921814Y-117715486D01*
X259938738Y-117746334D01*
X259956931Y-117777501D01*
X259974670Y-117805862D01*
X259990235Y-117828290D01*
X260000284Y-117841602D01*
X260021131Y-117868800D01*
X260036008Y-117886498D01*
X260047070Y-117896304D01*
X260056476Y-117899825D01*
X260066379Y-117898670D01*
X260078938Y-117894447D01*
X260080904Y-117893763D01*
X260103546Y-117886974D01*
X260137106Y-117878067D01*
X260178449Y-117867775D01*
X260224439Y-117856831D01*
X260271943Y-117845968D01*
X260317824Y-117835919D01*
X260358948Y-117827417D01*
X260392181Y-117821196D01*
X260467151Y-117810398D01*
X260553552Y-117801913D01*
X260642586Y-117796698D01*
X260730039Y-117794915D01*
X260811695Y-117796727D01*
X260883341Y-117802295D01*
X260908282Y-117805526D01*
X260936776Y-117811244D01*
X260954281Y-117818777D01*
X260963097Y-117829289D01*
X260965525Y-117843948D01*
X260964719Y-117853946D01*
X260957272Y-117870436D01*
X260940557Y-117882037D01*
X260912790Y-117889713D01*
X260872187Y-117894430D01*
X260793667Y-117900368D01*
X260711386Y-117906831D01*
X260640827Y-117912742D01*
X260580351Y-117918303D01*
X260528317Y-117923713D01*
X260483086Y-117929175D01*
X260443017Y-117934887D01*
X260406471Y-117941052D01*
X260371808Y-117947870D01*
X260337387Y-117955541D01*
X260301569Y-117964266D01*
X260293715Y-117966254D01*
X260238499Y-117981119D01*
X260194449Y-117994667D01*
X260162405Y-118006588D01*
X260143211Y-118016574D01*
X260137708Y-118024317D01*
X260140577Y-118030133D01*
X260152644Y-118046538D01*
X260172326Y-118069881D01*
X260197874Y-118098371D01*
X260227540Y-118130218D01*
X260259577Y-118163631D01*
X260292234Y-118196819D01*
X260323766Y-118227991D01*
X260352422Y-118255357D01*
X260376455Y-118277126D01*
X260394116Y-118291508D01*
X260403658Y-118296712D01*
X260403919Y-118296706D01*
X260415700Y-118293520D01*
X260436271Y-118285609D01*
X260461346Y-118274616D01*
X260463546Y-118273599D01*
X260487089Y-118262922D01*
X260504559Y-118255357D01*
X260512315Y-118252484D01*
X260513782Y-118252107D01*
X260526118Y-118247934D01*
X260548747Y-118239874D01*
X260579122Y-118228841D01*
X260614696Y-118215748D01*
X260619432Y-118214002D01*
X260661586Y-118198984D01*
X260704123Y-118184633D01*
X260742327Y-118172501D01*
X260771484Y-118164139D01*
X260791127Y-118159369D01*
X260831775Y-118150906D01*
X260874818Y-118143397D01*
X260916899Y-118137304D01*
X260954663Y-118133090D01*
X260984751Y-118131215D01*
X261003807Y-118132144D01*
X261008305Y-118133097D01*
X261019547Y-118137652D01*
X261023586Y-118147295D01*
X261023074Y-118166798D01*
X261022347Y-118174828D01*
X261020121Y-118185244D01*
X261015120Y-118194192D01*
X261005728Y-118202513D01*
X260990332Y-118211050D01*
X260967317Y-118220646D01*
X260935070Y-118232142D01*
X260891976Y-118246381D01*
X260836422Y-118264205D01*
X260804088Y-118274843D01*
X260752237Y-118292957D01*
X260700949Y-118311975D01*
X260654753Y-118330201D01*
X260618176Y-118345938D01*
X260614390Y-118347677D01*
X260581751Y-118362342D01*
X260553930Y-118374290D01*
X260533770Y-118382330D01*
X260524115Y-118385275D01*
X260518011Y-118386114D01*
X260517056Y-118390829D01*
X260526572Y-118400363D01*
X260547381Y-118415473D01*
X260580307Y-118436916D01*
X260634893Y-118470768D01*
X260727923Y-118525667D01*
X260824553Y-118579610D01*
X260921719Y-118630993D01*
X261016360Y-118678214D01*
X261105412Y-118719670D01*
X261185812Y-118753759D01*
X261210257Y-118763638D01*
X261243606Y-118777564D01*
X261271814Y-118789843D01*
X261290574Y-118798632D01*
X261301025Y-118803754D01*
X261328678Y-118816291D01*
X261356685Y-118827977D01*
X261374615Y-118834854D01*
X261387336Y-118838553D01*
X261391689Y-118836834D01*
X261390598Y-118829857D01*
X261386747Y-118815223D01*
X261382040Y-118794714D01*
X261378808Y-118781295D01*
X261373409Y-118761438D01*
X261547141Y-118761438D01*
X261552183Y-118785453D01*
X261553571Y-118791738D01*
X261570795Y-118847884D01*
X261597326Y-118910381D01*
X261631519Y-118976278D01*
X261671731Y-119042627D01*
X261716317Y-119106477D01*
X261763633Y-119164877D01*
X261803333Y-119208354D01*
X261846126Y-119250441D01*
X261889613Y-119287164D01*
X261937106Y-119321068D01*
X261991919Y-119354700D01*
X262057363Y-119390606D01*
X262109870Y-119417204D01*
X262168733Y-119443367D01*
X262224951Y-119463403D01*
X262283449Y-119479022D01*
X262349152Y-119491934D01*
X262383879Y-119496743D01*
X262431388Y-119501143D01*
X262483616Y-119504275D01*
X262536692Y-119506017D01*
X262586745Y-119506248D01*
X262629905Y-119504848D01*
X262662301Y-119501697D01*
X262757446Y-119483568D01*
X262871762Y-119451937D01*
X262977596Y-119410239D01*
X263077053Y-119357474D01*
X263172234Y-119292642D01*
X263265242Y-119214741D01*
X263283515Y-119197368D01*
X263315965Y-119164025D01*
X263346638Y-119129820D01*
X263370776Y-119099929D01*
X263386816Y-119076981D01*
X263411061Y-119038345D01*
X263436037Y-118994719D01*
X263460521Y-118948603D01*
X263483292Y-118902499D01*
X263503129Y-118858905D01*
X263518810Y-118820323D01*
X263529114Y-118789253D01*
X263532821Y-118768194D01*
X263532821Y-118751567D01*
X263516222Y-118767023D01*
X263512884Y-118769916D01*
X263490692Y-118784989D01*
X263458776Y-118802725D01*
X263420614Y-118821482D01*
X263379684Y-118839619D01*
X263339462Y-118855494D01*
X263303426Y-118867466D01*
X263301578Y-118867998D01*
X263231988Y-118885337D01*
X263165100Y-118895952D01*
X263095368Y-118900463D01*
X263017249Y-118899491D01*
X262991570Y-118898190D01*
X262927757Y-118892405D01*
X262868330Y-118882523D01*
X262810034Y-118867620D01*
X262749610Y-118846769D01*
X262683802Y-118819044D01*
X262609354Y-118783520D01*
X262533198Y-118745627D01*
X262473613Y-118779455D01*
X262468363Y-118782420D01*
X262382129Y-118826010D01*
X262297397Y-118858382D01*
X262210625Y-118880448D01*
X262118269Y-118893123D01*
X262016788Y-118897321D01*
X262005436Y-118897335D01*
X261958392Y-118896914D01*
X261921537Y-118895438D01*
X261891102Y-118892579D01*
X261863316Y-118888007D01*
X261834408Y-118881393D01*
X261798552Y-118871553D01*
X261740457Y-118852768D01*
X261683347Y-118831242D01*
X261631740Y-118808724D01*
X261590155Y-118786958D01*
X261547141Y-118761438D01*
X261373409Y-118761438D01*
X261371921Y-118755967D01*
X261363789Y-118728319D01*
X261358157Y-118709680D01*
X261347782Y-118674446D01*
X261338829Y-118643063D01*
X261331736Y-118623189D01*
X261311634Y-118584136D01*
X261282358Y-118539781D01*
X261258234Y-118504927D01*
X261215618Y-118432368D01*
X261183250Y-118358418D01*
X261160152Y-118280092D01*
X261145349Y-118194410D01*
X261137864Y-118098388D01*
X261136365Y-118036891D01*
X261138133Y-117965131D01*
X261144531Y-117901858D01*
X261155926Y-117843807D01*
X261172683Y-117787715D01*
X261173126Y-117786441D01*
X261186903Y-117746853D01*
X261196386Y-117719082D01*
X261202035Y-117701042D01*
X261204314Y-117690645D01*
X261203685Y-117685803D01*
X261200609Y-117684429D01*
X261195550Y-117684436D01*
X261187121Y-117685737D01*
X261167337Y-117691236D01*
X261143329Y-117699577D01*
X261126592Y-117705125D01*
X261100457Y-117711095D01*
X261080622Y-117712483D01*
X261065732Y-117709538D01*
X261058396Y-117701279D01*
X261055477Y-117683032D01*
X261058799Y-117649887D01*
X261075902Y-117618015D01*
X261106609Y-117590734D01*
X261106964Y-117590500D01*
X261124636Y-117580311D01*
X261142983Y-117573912D01*
X261166694Y-117570164D01*
X261200464Y-117567926D01*
X261251655Y-117568715D01*
X261301173Y-117578289D01*
X261341742Y-117597659D01*
X261374910Y-117627350D01*
X261384990Y-117639998D01*
X261395471Y-117656132D01*
X261398494Y-117665618D01*
X261397846Y-117666760D01*
X261387334Y-117672236D01*
X261369055Y-117675645D01*
X261362971Y-117676350D01*
X261345222Y-117681887D01*
X261331060Y-117693849D01*
X261319173Y-117714294D01*
X261308250Y-117745282D01*
X261296981Y-117788872D01*
X261296550Y-117790713D01*
X261290622Y-117817430D01*
X261286199Y-117841752D01*
X261283067Y-117866538D01*
X261281012Y-117894646D01*
X261279821Y-117928933D01*
X261279282Y-117972257D01*
X261279180Y-118027476D01*
X261279301Y-118189777D01*
X261307243Y-118270927D01*
X261324248Y-118317995D01*
X261341346Y-118358491D01*
X261360032Y-118394153D01*
X261382887Y-118429877D01*
X261412492Y-118470558D01*
X261454068Y-118518868D01*
X261517465Y-118576244D01*
X261590707Y-118628379D01*
X261671194Y-118673838D01*
X261756324Y-118711189D01*
X261843496Y-118738996D01*
X261930110Y-118755827D01*
X261980186Y-118759665D01*
X262056154Y-118757409D01*
X262134383Y-118746735D01*
X262212104Y-118728475D01*
X262286550Y-118703459D01*
X262354952Y-118672515D01*
X262414542Y-118636475D01*
X262462550Y-118596169D01*
X262478588Y-118579299D01*
X262487272Y-118567918D01*
X262487651Y-118561654D01*
X262480994Y-118557870D01*
X262434286Y-118540105D01*
X262366903Y-118509591D01*
X262296693Y-118471952D01*
X262221946Y-118426183D01*
X262140950Y-118371281D01*
X262051991Y-118306242D01*
X262050880Y-118305405D01*
X261966701Y-118240338D01*
X261893825Y-118180268D01*
X261830475Y-118123429D01*
X261774877Y-118068052D01*
X261725254Y-118012369D01*
X261679829Y-117954613D01*
X261636827Y-117893015D01*
X261614295Y-117857638D01*
X261591041Y-117815181D01*
X261575710Y-117776038D01*
X261573359Y-117765076D01*
X261744734Y-117765076D01*
X261745709Y-117765774D01*
X261758578Y-117771533D01*
X261783594Y-117780746D01*
X261819066Y-117792895D01*
X261863304Y-117807463D01*
X261914614Y-117823932D01*
X261971307Y-117841784D01*
X262031690Y-117860502D01*
X262094073Y-117879568D01*
X262156765Y-117898465D01*
X262218073Y-117916674D01*
X262276306Y-117933679D01*
X262329774Y-117948961D01*
X262376785Y-117962003D01*
X262415648Y-117972287D01*
X262444671Y-117979296D01*
X262462589Y-117982999D01*
X262515916Y-117990887D01*
X262562734Y-117993062D01*
X262599594Y-117989301D01*
X262650321Y-117977643D01*
X262706900Y-117963924D01*
X262765114Y-117949222D01*
X262820951Y-117934569D01*
X262870396Y-117920998D01*
X262909440Y-117909543D01*
X262935107Y-117901607D01*
X262974575Y-117889412D01*
X263010874Y-117878205D01*
X263038542Y-117869672D01*
X263055697Y-117864215D01*
X263087240Y-117853839D01*
X263126658Y-117840630D01*
X263170570Y-117825723D01*
X263215597Y-117810253D01*
X263256003Y-117796311D01*
X263292129Y-117783907D01*
X263321069Y-117774036D01*
X263340573Y-117767464D01*
X263348388Y-117764961D01*
X263348649Y-117764905D01*
X263345726Y-117762527D01*
X263329957Y-117757692D01*
X263302876Y-117750795D01*
X263266021Y-117742226D01*
X263220927Y-117732379D01*
X263204421Y-117729007D01*
X263173129Y-117723395D01*
X263139198Y-117718416D01*
X263101113Y-117713951D01*
X263057362Y-117709881D01*
X263006429Y-117706084D01*
X262946802Y-117702443D01*
X262876965Y-117698836D01*
X262795405Y-117695145D01*
X262700608Y-117691250D01*
X262650736Y-117689401D01*
X262577561Y-117687316D01*
X262509549Y-117686343D01*
X262443390Y-117686533D01*
X262375778Y-117687938D01*
X262303404Y-117690606D01*
X262222959Y-117694590D01*
X262131136Y-117699939D01*
X262118945Y-117700734D01*
X262068835Y-117704854D01*
X262016552Y-117710331D01*
X261963967Y-117716848D01*
X261912953Y-117724089D01*
X261865384Y-117731740D01*
X261823130Y-117739483D01*
X261788066Y-117747004D01*
X261762064Y-117753987D01*
X261746995Y-117760117D01*
X261744734Y-117765076D01*
X261573359Y-117765076D01*
X261567091Y-117735849D01*
X261563973Y-117690256D01*
X261565146Y-117634900D01*
X261566442Y-117614667D01*
X261573121Y-117556422D01*
X261583751Y-117494832D01*
X261597359Y-117434422D01*
X261612970Y-117379717D01*
X261629612Y-117335243D01*
X261635501Y-117321248D01*
X261641432Y-117304414D01*
X261642501Y-117296621D01*
X261637264Y-117296189D01*
X261621007Y-117298114D01*
X261598145Y-117302335D01*
X261576828Y-117305458D01*
X261529680Y-117306164D01*
X261478577Y-117300693D01*
X261429304Y-117289816D01*
X261387647Y-117274303D01*
X261382083Y-117271375D01*
X261355902Y-117254227D01*
X261326243Y-117230810D01*
X261298071Y-117204969D01*
X261279321Y-117184845D01*
X261234159Y-117122664D01*
X261197668Y-117051126D01*
X261170225Y-116972378D01*
X261152210Y-116888568D01*
X261143999Y-116801846D01*
X261145513Y-116734731D01*
X261249629Y-116734731D01*
X261254574Y-116759973D01*
X261273588Y-116786248D01*
X261275160Y-116787862D01*
X261298517Y-116803323D01*
X261324467Y-116804722D01*
X261354206Y-116792148D01*
X261362613Y-116786476D01*
X261384737Y-116762647D01*
X261393918Y-116735352D01*
X261389754Y-116707138D01*
X261371843Y-116680554D01*
X261367188Y-116676149D01*
X261350850Y-116663907D01*
X261338408Y-116658990D01*
X261332715Y-116659334D01*
X261305868Y-116667566D01*
X261279682Y-116683936D01*
X261260617Y-116704654D01*
X261258414Y-116708385D01*
X261249629Y-116734731D01*
X261145513Y-116734731D01*
X261145973Y-116714359D01*
X261158508Y-116628255D01*
X261181983Y-116545682D01*
X261199637Y-116503000D01*
X261208852Y-116485319D01*
X261334969Y-116485319D01*
X261338452Y-116532851D01*
X261356333Y-116582194D01*
X261363228Y-116595010D01*
X261388574Y-116629010D01*
X261420995Y-116653228D01*
X261464068Y-116670598D01*
X261480543Y-116675178D01*
X261511446Y-116680027D01*
X261539968Y-116677177D01*
X261573330Y-116666346D01*
X261611481Y-116647261D01*
X261640372Y-116621598D01*
X261660580Y-116587263D01*
X261674309Y-116541531D01*
X261678133Y-116517052D01*
X261675996Y-116468655D01*
X261659871Y-116424894D01*
X261629693Y-116385540D01*
X261611425Y-116369514D01*
X261569241Y-116345484D01*
X261523600Y-116334159D01*
X261477081Y-116335627D01*
X261432265Y-116349977D01*
X261391732Y-116377299D01*
X261370552Y-116399436D01*
X261345723Y-116440535D01*
X261334969Y-116485319D01*
X261208852Y-116485319D01*
X261231223Y-116442396D01*
X261267951Y-116385483D01*
X261306530Y-116337757D01*
X261335633Y-116309527D01*
X261370819Y-116280126D01*
X261407877Y-116252744D01*
X261442838Y-116230312D01*
X261471732Y-116215762D01*
X261493001Y-116207413D01*
X261459803Y-116196704D01*
X261429406Y-116189446D01*
X261386340Y-116183750D01*
X261339933Y-116181101D01*
X261296034Y-116181808D01*
X261260494Y-116186180D01*
X261215241Y-116199301D01*
X261150660Y-116229325D01*
X261088531Y-116270880D01*
X261031147Y-116322107D01*
X260980799Y-116381149D01*
X260939780Y-116446147D01*
X260918359Y-116493510D01*
X260897550Y-116555973D01*
X260881261Y-116623743D01*
X260870059Y-116693200D01*
X260864510Y-116760724D01*
X260865180Y-116822695D01*
X260872635Y-116875493D01*
X260885820Y-116919189D01*
X260913531Y-116982489D01*
X260950326Y-117046251D01*
X260993951Y-117106691D01*
X261042151Y-117160023D01*
X261057597Y-117176294D01*
X261068858Y-117190853D01*
X261071730Y-117198770D01*
X261067302Y-117201174D01*
X261051488Y-117201744D01*
X261029016Y-117198729D01*
X261004432Y-117192840D01*
X260982287Y-117184788D01*
X260975708Y-117181086D01*
X260955358Y-117163118D01*
X260936433Y-117138053D01*
X260928349Y-117125533D01*
X260908531Y-117097791D01*
X260889524Y-117074265D01*
X260866434Y-117045917D01*
X260836935Y-117004594D01*
X260808634Y-116960176D01*
X260785322Y-116918336D01*
X260777844Y-116902385D01*
X260757355Y-116842571D01*
X260743176Y-116773812D01*
X260735551Y-116699582D01*
X260734725Y-116623357D01*
X260740941Y-116548614D01*
X260754444Y-116478828D01*
X260767466Y-116433548D01*
X260796701Y-116357380D01*
X260834048Y-116289488D01*
X260881647Y-116226272D01*
X260941643Y-116164132D01*
X260966851Y-116141960D01*
X261030756Y-116096173D01*
X261099382Y-116059672D01*
X261168400Y-116034924D01*
X261178612Y-116032520D01*
X261210664Y-116026987D01*
X261248669Y-116022364D01*
X261286437Y-116019462D01*
X261367927Y-116020835D01*
X261443924Y-116034295D01*
X261513809Y-116060514D01*
X261579073Y-116100055D01*
X261641210Y-116153482D01*
X261663053Y-116175822D01*
X261717042Y-116239173D01*
X261760944Y-116305391D01*
X261797092Y-116378329D01*
X261827817Y-116461842D01*
X261833134Y-116478745D01*
X261844212Y-116517052D01*
X261846474Y-116524872D01*
X261856806Y-116568331D01*
X261864493Y-116612023D01*
X261869898Y-116658847D01*
X261873383Y-116711703D01*
X261874121Y-116735352D01*
X261875312Y-116773491D01*
X261876048Y-116847110D01*
X261876620Y-117024165D01*
X261849247Y-117105315D01*
X261847154Y-117111615D01*
X261836401Y-117146185D01*
X261824048Y-117188842D01*
X261810550Y-117237728D01*
X261796364Y-117290982D01*
X261781947Y-117346742D01*
X261767756Y-117403150D01*
X261754248Y-117458345D01*
X261741878Y-117510465D01*
X261731105Y-117557652D01*
X261722384Y-117598045D01*
X261716172Y-117629783D01*
X261712926Y-117651007D01*
X261713103Y-117659855D01*
X261717360Y-117659649D01*
X261733878Y-117656620D01*
X261760528Y-117650882D01*
X261794887Y-117642962D01*
X261834529Y-117633389D01*
X261868376Y-117625255D01*
X261906249Y-117616940D01*
X261942456Y-117610184D01*
X261980277Y-117604505D01*
X262022992Y-117599423D01*
X262073879Y-117594456D01*
X262136216Y-117589124D01*
X262215957Y-117582743D01*
X262292406Y-117577119D01*
X262359363Y-117572908D01*
X262419544Y-117570036D01*
X262475669Y-117568428D01*
X262530453Y-117568009D01*
X262586615Y-117568702D01*
X262646872Y-117570434D01*
X262713942Y-117573128D01*
X262745370Y-117574531D01*
X262830512Y-117578574D01*
X262903325Y-117582527D01*
X262965624Y-117586598D01*
X263019225Y-117590998D01*
X263065944Y-117595934D01*
X263107597Y-117601616D01*
X263146000Y-117608254D01*
X263182967Y-117616056D01*
X263220316Y-117625231D01*
X263259861Y-117635988D01*
X263270003Y-117638829D01*
X263300736Y-117647257D01*
X263326862Y-117654173D01*
X263343592Y-117658301D01*
X263364617Y-117662952D01*
X263359473Y-117623895D01*
X263357102Y-117606888D01*
X263345056Y-117535954D01*
X263328402Y-117454807D01*
X263307805Y-117366202D01*
X263283928Y-117272893D01*
X263257438Y-117177635D01*
X263228998Y-117083184D01*
X263198936Y-116987279D01*
X263203260Y-116821290D01*
X263206061Y-116743792D01*
X263206602Y-116735531D01*
X263695121Y-116735531D01*
X263696037Y-116752868D01*
X263702442Y-116772494D01*
X263717820Y-116791213D01*
X263732409Y-116803408D01*
X263759412Y-116813955D01*
X263787450Y-116809805D01*
X263816655Y-116790959D01*
X263823690Y-116784479D01*
X263842348Y-116760672D01*
X263847540Y-116737460D01*
X263839955Y-116712521D01*
X263825615Y-116692480D01*
X263800041Y-116674090D01*
X263770544Y-116666068D01*
X263740839Y-116669246D01*
X263714641Y-116684458D01*
X263705988Y-116693601D01*
X263697396Y-116710890D01*
X263695121Y-116735531D01*
X263206602Y-116735531D01*
X263211065Y-116667399D01*
X263218453Y-116600741D01*
X263228688Y-116541190D01*
X263242232Y-116486121D01*
X263242855Y-116484207D01*
X263408263Y-116484207D01*
X263409409Y-116513429D01*
X263410351Y-116523811D01*
X263422808Y-116574552D01*
X263447825Y-116617563D01*
X263485448Y-116652930D01*
X263492620Y-116657752D01*
X263532457Y-116674765D01*
X263575193Y-116679128D01*
X263618297Y-116671564D01*
X263659238Y-116652799D01*
X263695484Y-116623555D01*
X263724505Y-116584557D01*
X263737784Y-116552603D01*
X263744346Y-116507007D01*
X263738701Y-116461218D01*
X263720941Y-116419612D01*
X263712527Y-116407538D01*
X263690055Y-116381720D01*
X263666730Y-116361139D01*
X263657225Y-116354486D01*
X263641708Y-116345545D01*
X263625722Y-116340613D01*
X263604507Y-116338516D01*
X263573305Y-116338078D01*
X263557581Y-116338152D01*
X263531305Y-116339242D01*
X263512845Y-116342541D01*
X263497430Y-116349192D01*
X263480291Y-116360335D01*
X263452034Y-116386613D01*
X263427303Y-116423042D01*
X263417694Y-116442371D01*
X263410576Y-116462788D01*
X263408263Y-116484207D01*
X263242855Y-116484207D01*
X263259548Y-116432906D01*
X263281097Y-116378917D01*
X263318140Y-116305068D01*
X263369317Y-116228877D01*
X263428766Y-116162605D01*
X263495332Y-116107347D01*
X263567859Y-116064197D01*
X263645190Y-116034249D01*
X263652007Y-116032340D01*
X263727970Y-116019025D01*
X263807748Y-116018319D01*
X263888777Y-116029691D01*
X263968494Y-116052612D01*
X264044334Y-116086554D01*
X264113734Y-116130987D01*
X264136764Y-116150156D01*
X264178266Y-116191981D01*
X264219036Y-116241220D01*
X264255723Y-116293679D01*
X264284975Y-116345166D01*
X264298104Y-116373609D01*
X264328227Y-116458728D01*
X264347235Y-116547425D01*
X264355011Y-116637186D01*
X264351441Y-116725493D01*
X264336410Y-116809831D01*
X264309803Y-116887686D01*
X264302574Y-116903337D01*
X264279642Y-116947472D01*
X264251517Y-116996225D01*
X264220987Y-117045067D01*
X264190839Y-117089470D01*
X264163858Y-117124902D01*
X264151769Y-117139069D01*
X264129708Y-117161725D01*
X264109878Y-117176277D01*
X264088515Y-117185764D01*
X264076949Y-117189316D01*
X264051321Y-117194900D01*
X264028175Y-117197348D01*
X264011420Y-117196381D01*
X264004967Y-117191721D01*
X264004994Y-117191472D01*
X264010581Y-117183203D01*
X264024001Y-117168122D01*
X264042531Y-117149302D01*
X264081077Y-117108579D01*
X264136570Y-117035032D01*
X264179123Y-116956842D01*
X264207885Y-116875418D01*
X264215105Y-116833777D01*
X264218456Y-116781607D01*
X264218092Y-116723326D01*
X264214270Y-116662970D01*
X264207248Y-116604573D01*
X264197281Y-116552170D01*
X264184626Y-116509796D01*
X264165282Y-116465950D01*
X264124930Y-116397907D01*
X264075694Y-116336732D01*
X264019270Y-116283730D01*
X263957353Y-116240206D01*
X263891637Y-116207465D01*
X263823820Y-116186813D01*
X263755595Y-116179554D01*
X263744360Y-116179834D01*
X263716584Y-116182159D01*
X263686130Y-116186289D01*
X263656469Y-116191569D01*
X263631073Y-116197340D01*
X263613414Y-116202943D01*
X263606964Y-116207722D01*
X263612931Y-116212905D01*
X263628906Y-116222219D01*
X263651326Y-116233508D01*
X263679873Y-116250060D01*
X263717682Y-116278198D01*
X263758596Y-116314251D01*
X263766466Y-116321732D01*
X263792476Y-116347467D01*
X263811945Y-116369601D01*
X263827975Y-116392419D01*
X263843668Y-116420205D01*
X263862127Y-116457244D01*
X263884794Y-116507007D01*
X263887376Y-116512676D01*
X263912279Y-116579685D01*
X263928779Y-116644253D01*
X263937982Y-116710964D01*
X263939068Y-116737460D01*
X263940993Y-116784403D01*
X263940960Y-116808773D01*
X263939918Y-116850561D01*
X263937182Y-116884424D01*
X263932296Y-116914945D01*
X263924803Y-116946704D01*
X263922566Y-116954984D01*
X263892440Y-117040749D01*
X263852495Y-117115962D01*
X263802950Y-117180206D01*
X263774411Y-117209757D01*
X263735703Y-117244340D01*
X263699637Y-117268665D01*
X263663614Y-117284381D01*
X263625037Y-117293136D01*
X263615102Y-117294495D01*
X263553549Y-117299730D01*
X263502404Y-117298141D01*
X263463019Y-117289756D01*
X263455682Y-117287266D01*
X263438951Y-117282685D01*
X263430904Y-117282235D01*
X263430686Y-117283399D01*
X263432855Y-117294980D01*
X263438614Y-117315925D01*
X263447039Y-117342765D01*
X263450042Y-117351964D01*
X263468587Y-117413318D01*
X263485198Y-117475856D01*
X263499008Y-117535848D01*
X263509148Y-117589567D01*
X263514748Y-117633287D01*
X263515813Y-117652097D01*
X263512845Y-117711644D01*
X263501189Y-117764905D01*
X263499775Y-117771366D01*
X263476062Y-117832285D01*
X263441168Y-117895423D01*
X263394552Y-117961801D01*
X263335677Y-118032443D01*
X263264002Y-118108368D01*
X263221562Y-118149456D01*
X263158695Y-118205539D01*
X263090627Y-118261680D01*
X263019292Y-118316548D01*
X262946623Y-118368811D01*
X262874555Y-118417136D01*
X262805019Y-118460193D01*
X262739950Y-118496649D01*
X262681282Y-118525172D01*
X262630947Y-118544431D01*
X262611832Y-118551343D01*
X262595006Y-118559797D01*
X262588528Y-118566507D01*
X262588765Y-118568580D01*
X262597390Y-118582757D01*
X262616753Y-118601218D01*
X262644580Y-118622443D01*
X262678600Y-118644913D01*
X262716541Y-118667109D01*
X262756129Y-118687512D01*
X262795092Y-118704603D01*
X262823826Y-118715539D01*
X262884860Y-118735329D01*
X262942615Y-118748158D01*
X263002955Y-118755146D01*
X263071740Y-118757411D01*
X263112129Y-118757242D01*
X263149367Y-118755941D01*
X263179846Y-118753039D01*
X263207866Y-118748101D01*
X263237729Y-118740695D01*
X263289479Y-118725105D01*
X263388938Y-118686015D01*
X263479706Y-118637675D01*
X263560782Y-118580837D01*
X263631166Y-118516249D01*
X263689857Y-118444664D01*
X263735856Y-118366832D01*
X263764348Y-118301363D01*
X263793719Y-118206372D01*
X263809792Y-118108747D01*
X263812651Y-118007387D01*
X263802378Y-117901190D01*
X263779056Y-117789056D01*
X263768348Y-117750701D01*
X263752992Y-117707147D01*
X263736523Y-117674274D01*
X263717895Y-117649699D01*
X263709811Y-117640481D01*
X263703738Y-117627550D01*
X263709050Y-117615651D01*
X263726474Y-117600631D01*
X263734696Y-117594851D01*
X263775641Y-117574671D01*
X263821937Y-117562560D01*
X263866916Y-117560426D01*
X263894390Y-117564917D01*
X263932147Y-117577820D01*
X263966319Y-117596645D01*
X263994146Y-117619431D01*
X264012868Y-117644213D01*
X264019722Y-117669031D01*
X264018161Y-117684687D01*
X264011201Y-117696640D01*
X263996553Y-117703025D01*
X263971956Y-117704741D01*
X263935147Y-117702687D01*
X263923149Y-117701767D01*
X263897068Y-117700394D01*
X263878958Y-117700365D01*
X263872176Y-117701730D01*
X263873358Y-117706410D01*
X263878686Y-117721806D01*
X263886852Y-117743253D01*
X263896992Y-117771939D01*
X263911666Y-117823063D01*
X263925332Y-117880997D01*
X263937008Y-117941039D01*
X263945716Y-117998484D01*
X263950474Y-118048628D01*
X263951581Y-118071410D01*
X263952178Y-118102092D01*
X263950987Y-118129755D01*
X263947599Y-118158741D01*
X263941604Y-118193394D01*
X263932590Y-118238055D01*
X263922400Y-118284499D01*
X263908373Y-118338832D01*
X263893263Y-118384417D01*
X263875701Y-118424718D01*
X263854319Y-118463195D01*
X263827750Y-118503311D01*
X263816824Y-118519167D01*
X263796048Y-118550966D01*
X263778069Y-118580476D01*
X263765866Y-118602905D01*
X263759828Y-118616602D01*
X263749593Y-118642772D01*
X263737968Y-118674851D01*
X263725874Y-118710015D01*
X263714233Y-118745441D01*
X263712320Y-118751567D01*
X263703969Y-118778303D01*
X263696001Y-118805779D01*
X263691254Y-118825045D01*
X263690648Y-118833276D01*
X263698323Y-118832762D01*
X263717787Y-118826846D01*
X263747116Y-118816138D01*
X263784509Y-118801412D01*
X263828165Y-118783445D01*
X263876283Y-118763011D01*
X263927062Y-118740888D01*
X263978701Y-118717849D01*
X264029399Y-118694672D01*
X264077354Y-118672132D01*
X264120767Y-118651004D01*
X264157834Y-118632064D01*
X264175274Y-118622736D01*
X264217262Y-118599533D01*
X264262814Y-118573516D01*
X264310292Y-118545700D01*
X264358061Y-118517103D01*
X264404486Y-118488739D01*
X264447930Y-118461625D01*
X264486757Y-118436776D01*
X264519331Y-118415209D01*
X264544017Y-118397939D01*
X264559178Y-118385982D01*
X264563178Y-118380353D01*
X264561713Y-118379217D01*
X264548633Y-118372221D01*
X264525542Y-118361557D01*
X264495393Y-118348450D01*
X264461144Y-118334119D01*
X264425749Y-118319788D01*
X264392164Y-118306679D01*
X264363345Y-118296012D01*
X264342248Y-118289012D01*
X264317479Y-118281690D01*
X264260165Y-118264267D01*
X264205070Y-118246893D01*
X264154187Y-118230244D01*
X264109509Y-118214993D01*
X264073029Y-118201812D01*
X264046739Y-118191376D01*
X264032632Y-118184359D01*
X264017967Y-118169962D01*
X264012344Y-118148699D01*
X264012365Y-118144151D01*
X264013681Y-118134281D01*
X264019529Y-118129214D01*
X264033317Y-118127352D01*
X264058452Y-118127099D01*
X264076215Y-118127612D01*
X264125951Y-118132423D01*
X264185213Y-118141699D01*
X264251093Y-118154704D01*
X264320684Y-118170704D01*
X264391080Y-118188961D01*
X264459373Y-118208741D01*
X264522657Y-118229308D01*
X264578025Y-118249927D01*
X264622570Y-118269861D01*
X264637359Y-118277271D01*
X264657117Y-118285895D01*
X264670210Y-118287906D01*
X264680799Y-118283474D01*
X264693042Y-118272771D01*
X264700445Y-118265905D01*
X264718845Y-118249298D01*
X264742941Y-118227863D01*
X264769449Y-118204531D01*
X264788004Y-118187476D01*
X264813788Y-118162103D01*
X264841736Y-118133276D01*
X264869738Y-118103301D01*
X264895687Y-118074482D01*
X264917473Y-118049124D01*
X264932987Y-118029532D01*
X264940120Y-118018010D01*
X264934902Y-118012846D01*
X264919013Y-118005056D01*
X264895918Y-117996381D01*
X264867881Y-117987155D01*
X264816927Y-117971435D01*
X264768036Y-117958072D01*
X264719106Y-117946729D01*
X264668035Y-117937070D01*
X264612722Y-117928761D01*
X264551065Y-117921464D01*
X264480963Y-117914845D01*
X264400313Y-117908568D01*
X264307013Y-117902296D01*
X264284591Y-117900814D01*
X264236864Y-117897276D01*
X264194197Y-117893606D01*
X264159008Y-117890040D01*
X264133716Y-117886813D01*
X264120737Y-117884160D01*
X264117328Y-117882772D01*
X264104328Y-117872493D01*
X264100872Y-117854463D01*
X264101843Y-117845428D01*
X264110298Y-117829399D01*
X264128154Y-117816730D01*
X264156272Y-117807251D01*
X264195513Y-117800794D01*
X264246738Y-117797187D01*
X264310809Y-117796263D01*
X264388586Y-117797851D01*
X264437920Y-117799766D01*
X264529749Y-117805328D01*
X264613253Y-117813493D01*
X264692661Y-117824720D01*
X264772205Y-117839469D01*
X264772321Y-117839493D01*
X264805301Y-117846597D01*
X264843400Y-117855309D01*
X264883830Y-117864931D01*
X264923805Y-117874766D01*
X264960538Y-117884119D01*
X264991243Y-117892290D01*
X265013134Y-117898584D01*
X265023424Y-117902304D01*
X265024910Y-117902309D01*
X265034369Y-117895129D01*
X265049823Y-117878902D01*
X265069424Y-117855921D01*
X265091324Y-117828479D01*
X265113674Y-117798870D01*
X265134626Y-117769387D01*
X265152332Y-117742325D01*
X265159143Y-117731137D01*
X265175922Y-117700810D01*
X265183757Y-117679241D01*
X265182687Y-117664171D01*
X265172748Y-117653341D01*
X265153979Y-117644492D01*
X265149655Y-117642913D01*
X265102941Y-117628734D01*
X265046603Y-117616447D01*
X264979368Y-117605849D01*
X264899963Y-117596736D01*
X264807116Y-117588904D01*
X264778017Y-117586625D01*
X264736869Y-117582398D01*
X264707823Y-117577567D01*
X264689178Y-117571696D01*
X264679236Y-117564343D01*
X264676300Y-117555070D01*
X264682707Y-117539072D01*
X264702944Y-117524524D01*
X264737179Y-117511981D01*
X264785573Y-117501401D01*
X264848286Y-117492737D01*
X264925480Y-117485945D01*
X265013212Y-117479849D01*
X265049092Y-117441490D01*
X265049291Y-117441277D01*
X265109445Y-117372139D01*
X265167885Y-117295873D01*
X265222965Y-117215188D01*
X265273037Y-117132793D01*
X265316457Y-117051398D01*
X265351575Y-116973710D01*
X265376747Y-116902440D01*
X265386493Y-116870456D01*
X265399285Y-116830803D01*
X265411145Y-116796123D01*
X265412337Y-116792737D01*
X265420037Y-116767730D01*
X265424054Y-116748670D01*
X265423535Y-116739450D01*
X265415527Y-116735082D01*
X265396386Y-116726584D01*
X265369198Y-116715349D01*
X265336933Y-116702637D01*
X265302226Y-116688834D01*
X265162785Y-116624130D01*
X265032132Y-116548114D01*
X264911151Y-116461290D01*
X264904523Y-116456067D01*
X264870515Y-116430206D01*
X264834256Y-116403816D01*
X264802548Y-116381872D01*
X264785146Y-116370152D01*
X264766170Y-116356215D01*
X264756118Y-116345953D01*
X264752771Y-116336834D01*
X264753912Y-116326325D01*
X264755036Y-116317848D01*
X264753951Y-116305897D01*
X264749262Y-116291232D01*
X264740122Y-116272316D01*
X264725686Y-116247614D01*
X264705106Y-116215590D01*
X264677537Y-116174707D01*
X264642133Y-116123430D01*
X264581438Y-116038579D01*
X264502123Y-115933481D01*
X264422280Y-115832944D01*
X264595150Y-115832944D01*
X264596146Y-115835197D01*
X264604265Y-115846955D01*
X264618787Y-115865825D01*
X264637569Y-115888979D01*
X264657578Y-115913282D01*
X264697096Y-115962828D01*
X264729906Y-116006685D01*
X264758495Y-116048255D01*
X264785354Y-116090938D01*
X264794641Y-116106101D01*
X264812885Y-116134862D01*
X264828984Y-116159012D01*
X264840275Y-116174496D01*
X264857290Y-116195346D01*
X264879098Y-116170871D01*
X264885751Y-116163312D01*
X264951658Y-116076439D01*
X265004949Y-115982132D01*
X265045395Y-115880956D01*
X265072765Y-115773479D01*
X265086829Y-115660264D01*
X265087631Y-115628633D01*
X265085782Y-115577997D01*
X265081042Y-115522926D01*
X265073956Y-115468212D01*
X265065067Y-115418649D01*
X265054919Y-115379030D01*
X265038325Y-115334638D01*
X265012766Y-115282284D01*
X264983081Y-115234418D01*
X264951041Y-115193530D01*
X264918417Y-115162113D01*
X264886979Y-115142660D01*
X264860723Y-115134771D01*
X264820957Y-115133261D01*
X264784749Y-115143989D01*
X264771467Y-115152104D01*
X264745973Y-115171159D01*
X264716096Y-115196207D01*
X264685129Y-115224333D01*
X264656363Y-115252628D01*
X264633089Y-115278177D01*
X264604239Y-115312635D01*
X264693755Y-115312691D01*
X264741174Y-115314172D01*
X264809580Y-115322896D01*
X264865833Y-115339371D01*
X264909807Y-115363521D01*
X264941374Y-115395265D01*
X264960408Y-115434526D01*
X264966781Y-115481226D01*
X264966775Y-115482843D01*
X264965809Y-115492386D01*
X264963158Y-115518584D01*
X264952004Y-115552954D01*
X264932045Y-115588213D01*
X264902015Y-115626620D01*
X264860645Y-115670433D01*
X264818518Y-115708813D01*
X264757616Y-115754187D01*
X264694837Y-115790623D01*
X264633881Y-115815749D01*
X264618084Y-115821194D01*
X264601560Y-115828220D01*
X264595150Y-115832944D01*
X264422280Y-115832944D01*
X264418079Y-115827654D01*
X264332934Y-115725763D01*
X264301895Y-115689558D01*
X264277745Y-115660357D01*
X264260816Y-115637185D01*
X264255741Y-115627909D01*
X264386995Y-115627909D01*
X264441091Y-115682369D01*
X264458001Y-115699005D01*
X264478950Y-115718434D01*
X264494704Y-115731627D01*
X264502749Y-115736382D01*
X264506772Y-115735324D01*
X264522520Y-115729401D01*
X264546432Y-115719473D01*
X264575151Y-115706903D01*
X264625278Y-115682209D01*
X264680865Y-115649280D01*
X264730559Y-115613843D01*
X264772290Y-115577549D01*
X264803988Y-115542048D01*
X264823580Y-115508988D01*
X264829474Y-115492386D01*
X264828825Y-115482354D01*
X264820650Y-115474383D01*
X264819296Y-115473440D01*
X264796648Y-115463587D01*
X264761468Y-115455154D01*
X264715765Y-115448524D01*
X264661546Y-115444078D01*
X264650152Y-115443545D01*
X264581003Y-115445654D01*
X264517338Y-115458151D01*
X264453973Y-115481982D01*
X264437702Y-115489880D01*
X264422765Y-115499690D01*
X264412362Y-115512193D01*
X264404872Y-115530371D01*
X264398673Y-115557208D01*
X264392143Y-115595686D01*
X264386995Y-115627909D01*
X264255741Y-115627909D01*
X264249961Y-115617343D01*
X264244034Y-115598134D01*
X264241889Y-115576860D01*
X264242378Y-115550822D01*
X264244356Y-115517323D01*
X264253189Y-115416652D01*
X264256703Y-115392473D01*
X264420248Y-115392473D01*
X264420716Y-115392923D01*
X264427076Y-115387798D01*
X264439317Y-115372595D01*
X264455908Y-115349328D01*
X264475319Y-115320012D01*
X264512271Y-115264233D01*
X264562829Y-115194807D01*
X264610882Y-115137723D01*
X264657435Y-115091919D01*
X264703496Y-115056330D01*
X264750073Y-115029893D01*
X264780586Y-115018738D01*
X264830945Y-115010775D01*
X264882019Y-115013419D01*
X264928424Y-115026766D01*
X264945741Y-115035484D01*
X264990950Y-115068269D01*
X265033339Y-115113268D01*
X265071757Y-115168668D01*
X265105056Y-115232656D01*
X265132088Y-115303420D01*
X265151703Y-115379146D01*
X265153034Y-115386029D01*
X265161432Y-115442249D01*
X265167605Y-115506582D01*
X265171233Y-115573418D01*
X265171892Y-115628633D01*
X265171994Y-115637145D01*
X265169570Y-115692152D01*
X265159262Y-115768301D01*
X265134985Y-115868920D01*
X265099555Y-115969627D01*
X265054325Y-116067196D01*
X265000648Y-116158401D01*
X264939875Y-116240016D01*
X264908921Y-116276726D01*
X264930858Y-116292647D01*
X264943358Y-116302248D01*
X264965376Y-116320294D01*
X264988160Y-116339922D01*
X265005498Y-116355029D01*
X265019611Y-116366777D01*
X265025914Y-116371275D01*
X265028098Y-116369847D01*
X265038024Y-116359289D01*
X265053728Y-116340541D01*
X265073265Y-116316093D01*
X265094691Y-116288438D01*
X265116063Y-116260067D01*
X265135437Y-116233471D01*
X265150867Y-116211142D01*
X265172047Y-116176649D01*
X265199630Y-116126247D01*
X265227865Y-116069742D01*
X265254692Y-116011460D01*
X265278048Y-115955729D01*
X265295872Y-115906874D01*
X265302452Y-115886027D01*
X265331139Y-115770437D01*
X265348421Y-115651150D01*
X265354379Y-115530434D01*
X265349093Y-115410559D01*
X265332643Y-115293794D01*
X265305110Y-115182410D01*
X265266573Y-115078676D01*
X265260670Y-115065730D01*
X265223408Y-114995520D01*
X265178849Y-114927220D01*
X265129082Y-114863331D01*
X265076198Y-114806355D01*
X265022286Y-114758790D01*
X264969436Y-114723140D01*
X264915106Y-114696821D01*
X264860722Y-114680163D01*
X264809997Y-114675828D01*
X264762464Y-114684121D01*
X264717654Y-114705346D01*
X264675100Y-114739805D01*
X264634332Y-114787804D01*
X264594883Y-114849646D01*
X264556285Y-114925634D01*
X264518070Y-115016072D01*
X264517332Y-115017996D01*
X264509579Y-115040716D01*
X264499779Y-115072750D01*
X264488544Y-115111749D01*
X264476482Y-115155363D01*
X264464207Y-115201241D01*
X264452327Y-115247034D01*
X264441455Y-115290392D01*
X264432200Y-115328964D01*
X264425173Y-115360402D01*
X264420986Y-115382355D01*
X264420248Y-115392473D01*
X264256703Y-115392473D01*
X264272045Y-115286903D01*
X264298675Y-115159270D01*
X264332344Y-115036708D01*
X264372319Y-114922172D01*
X264417865Y-114818620D01*
X264430555Y-114792637D01*
X264442391Y-114767545D01*
X264450090Y-114750166D01*
X264452401Y-114743233D01*
X264448088Y-114744799D01*
X264432665Y-114752241D01*
X264408117Y-114764764D01*
X264376594Y-114781267D01*
X264340249Y-114800648D01*
X264322837Y-114809881D01*
X264287799Y-114828028D01*
X264245351Y-114849634D01*
X264197365Y-114873781D01*
X264145712Y-114899550D01*
X264092262Y-114926021D01*
X264038886Y-114952275D01*
X263987455Y-114977393D01*
X263939841Y-115000457D01*
X263897914Y-115020547D01*
X263863545Y-115036744D01*
X263838604Y-115048128D01*
X263824964Y-115053782D01*
X263820106Y-115055950D01*
X263818382Y-115060969D01*
X263825674Y-115069907D01*
X263843407Y-115085190D01*
X263847600Y-115088697D01*
X263872774Y-115111402D01*
X263902830Y-115140518D01*
X263935154Y-115173303D01*
X263967132Y-115207011D01*
X263996151Y-115238899D01*
X264019598Y-115266221D01*
X264034860Y-115286235D01*
X264045553Y-115303671D01*
X264055208Y-115326669D01*
X264054180Y-115340936D01*
X264042389Y-115345832D01*
X264038878Y-115345543D01*
X264017751Y-115338748D01*
X263985152Y-115322994D01*
X263941220Y-115298360D01*
X263886098Y-115264923D01*
X263819924Y-115222760D01*
X263773685Y-115192767D01*
X263734444Y-115167443D01*
X263702208Y-115146940D01*
X263674216Y-115129617D01*
X263647708Y-115113833D01*
X263619926Y-115097944D01*
X263588108Y-115080311D01*
X263549495Y-115059290D01*
X263501329Y-115033241D01*
X263477460Y-115020402D01*
X263396323Y-114977852D01*
X263326781Y-114943288D01*
X263268342Y-114916483D01*
X263220518Y-114897209D01*
X263182819Y-114885239D01*
X263173916Y-114883006D01*
X263156412Y-114879808D01*
X263142047Y-114880955D01*
X263125497Y-114887424D01*
X263101436Y-114900195D01*
X263077885Y-114911762D01*
X263048538Y-114923304D01*
X263024629Y-114929757D01*
X262992272Y-114934911D01*
X262997347Y-114901074D01*
X262997418Y-114900598D01*
X262999575Y-114879032D01*
X262997118Y-114867135D01*
X262989128Y-114860368D01*
X262987721Y-114859693D01*
X262967011Y-114854214D01*
X262934430Y-114850304D01*
X262892518Y-114848046D01*
X262843813Y-114847525D01*
X262790854Y-114848824D01*
X262736180Y-114852027D01*
X262715934Y-114853488D01*
X262679174Y-114855648D01*
X262649078Y-114856770D01*
X262628326Y-114856771D01*
X262619594Y-114855571D01*
X262622738Y-114849632D01*
X262635109Y-114835222D01*
X262655194Y-114814079D01*
X262681396Y-114787879D01*
X262712123Y-114758298D01*
X262722605Y-114748316D01*
X262774373Y-114696449D01*
X262817098Y-114648086D01*
X262853654Y-114599462D01*
X262886916Y-114546814D01*
X262919757Y-114486379D01*
X262934716Y-114456298D01*
X262945352Y-114431856D01*
X262949063Y-114417294D01*
X262946198Y-114411116D01*
X262937105Y-114411827D01*
X262932776Y-114413000D01*
X262914765Y-114417333D01*
X262888230Y-114423364D01*
X262857210Y-114430166D01*
X262852566Y-114431181D01*
X262791021Y-114446621D01*
X262719750Y-114467553D01*
X262641899Y-114492839D01*
X262560608Y-114521342D01*
X262479023Y-114551925D01*
X262400285Y-114583451D01*
X262327539Y-114614783D01*
X262263927Y-114644784D01*
X262246986Y-114653274D01*
X262220010Y-114666999D01*
X262194252Y-114680477D01*
X262167725Y-114694821D01*
X262138445Y-114711142D01*
X262104426Y-114730555D01*
X262063683Y-114754173D01*
X262014229Y-114783107D01*
X261954081Y-114818472D01*
X261919358Y-114838791D01*
X261878145Y-114862554D01*
X261834030Y-114887579D01*
X261784485Y-114915288D01*
X261726981Y-114947102D01*
X261658990Y-114984445D01*
X261650361Y-114989184D01*
X261591869Y-115022001D01*
X261533005Y-115056339D01*
X261471450Y-115093623D01*
X261404889Y-115135276D01*
X261331003Y-115182723D01*
X261247475Y-115237389D01*
X261213157Y-115259942D01*
X261161874Y-115293265D01*
X261121104Y-115319146D01*
X261089820Y-115338202D01*
X261066999Y-115351049D01*
X261051614Y-115358305D01*
X261042639Y-115360587D01*
X261042284Y-115360445D01*
X261040163Y-115352331D01*
X261039297Y-115335578D01*
X261041459Y-115320212D01*
X261051654Y-115296965D01*
X261071588Y-115267338D01*
X261088186Y-115246510D01*
X261113707Y-115216992D01*
X261143366Y-115184440D01*
X261174435Y-115151720D01*
X261204188Y-115121695D01*
X261229896Y-115097231D01*
X261248832Y-115081191D01*
X261252244Y-115078605D01*
X261264032Y-115068481D01*
X261267275Y-115063429D01*
X261266127Y-115062825D01*
X261254597Y-115057034D01*
X261232083Y-115045828D01*
X261200232Y-115030024D01*
X261160690Y-115010436D01*
X261115103Y-114987883D01*
X261065118Y-114963180D01*
X261011165Y-114936384D01*
X260951218Y-114906325D01*
X260891845Y-114876293D01*
X260836217Y-114847898D01*
X260787506Y-114822753D01*
X260748883Y-114802469D01*
X260714098Y-114784113D01*
X260680820Y-114766904D01*
X260654218Y-114753533D01*
X260636396Y-114745055D01*
X260629457Y-114742526D01*
X260629406Y-114743011D01*
X260632859Y-114752568D01*
X260641566Y-114772255D01*
X260654384Y-114799556D01*
X260670168Y-114831956D01*
X260696198Y-114888033D01*
X260737985Y-114996958D01*
X260772686Y-115115422D01*
X260800527Y-115244390D01*
X260817267Y-115355239D01*
X260821735Y-115384828D01*
X260836540Y-115537700D01*
X260837757Y-115556608D01*
X260837916Y-115580959D01*
X260834775Y-115601413D01*
X260827643Y-115619361D01*
X260827016Y-115620938D01*
X260813321Y-115642503D01*
X260792370Y-115669078D01*
X260762845Y-115703631D01*
X260761694Y-115704963D01*
X260738206Y-115733216D01*
X260707792Y-115771324D01*
X260671997Y-115817246D01*
X260658759Y-115834514D01*
X260632365Y-115868942D01*
X260590438Y-115924372D01*
X260547762Y-115981495D01*
X260505880Y-116038271D01*
X260466335Y-116092661D01*
X260430671Y-116142622D01*
X260429720Y-116143971D01*
X260395717Y-116192823D01*
X260369375Y-116232336D01*
X260349364Y-116264791D01*
X260334356Y-116292465D01*
X260323022Y-116317637D01*
X260314031Y-116342588D01*
X260313282Y-116344280D01*
X260302761Y-116356999D01*
X260282219Y-116376101D01*
X260253545Y-116400126D01*
X260218634Y-116427615D01*
X260179374Y-116457106D01*
X260137660Y-116487140D01*
X260095381Y-116516256D01*
X260054430Y-116542993D01*
X259986405Y-116584160D01*
X259913705Y-116624613D01*
X259842310Y-116660993D01*
X259775613Y-116691571D01*
X259717010Y-116714620D01*
X259695222Y-116722385D01*
X259675835Y-116730305D01*
X259665979Y-116736921D01*
X259663075Y-116744166D01*
X259476534Y-116744166D01*
X259471435Y-116710631D01*
X259470474Y-116699037D01*
X259469943Y-116673914D01*
X259473224Y-116656168D01*
X259481036Y-116640546D01*
X259488988Y-116629467D01*
X259499033Y-116619740D01*
X259513408Y-116610245D01*
X259534487Y-116599637D01*
X259564646Y-116586573D01*
X259606259Y-116569710D01*
X259620127Y-116564172D01*
X259641302Y-116555708D01*
X259655907Y-116549867D01*
X259676344Y-116541698D01*
X259677325Y-116541307D01*
X259696450Y-116534004D01*
X259718763Y-116525836D01*
X259721070Y-116525010D01*
X259776890Y-116503443D01*
X259821277Y-116483065D01*
X259852686Y-116464582D01*
X259872260Y-116450705D01*
X259833079Y-116394391D01*
X259825286Y-116383232D01*
X259806403Y-116356503D01*
X259790205Y-116333980D01*
X259779537Y-116319634D01*
X259774464Y-116312812D01*
X259753627Y-116280123D01*
X259729856Y-116237015D01*
X259704432Y-116186316D01*
X259678639Y-116130854D01*
X259653757Y-116073457D01*
X259631070Y-116016953D01*
X259611859Y-115964169D01*
X259597406Y-115917933D01*
X259593939Y-115905346D01*
X259575137Y-115833064D01*
X259561110Y-115769754D01*
X259551272Y-115711328D01*
X259545038Y-115653699D01*
X259541822Y-115592778D01*
X259541039Y-115524478D01*
X259541904Y-115489430D01*
X259725801Y-115489430D01*
X259727350Y-115572978D01*
X259732841Y-115656345D01*
X259742113Y-115735118D01*
X259755003Y-115804881D01*
X259774843Y-115876756D01*
X259808738Y-115969377D01*
X259851426Y-116063519D01*
X259901029Y-116155453D01*
X259955668Y-116241453D01*
X260013465Y-116317790D01*
X260019172Y-116324549D01*
X260036812Y-116344558D01*
X260050240Y-116358471D01*
X260056912Y-116363608D01*
X260059532Y-116362209D01*
X260071371Y-116353043D01*
X260089939Y-116337231D01*
X260112566Y-116317008D01*
X260163325Y-116270699D01*
X260141755Y-116245370D01*
X260141122Y-116244618D01*
X260126859Y-116225391D01*
X260107535Y-116196390D01*
X260084993Y-116160652D01*
X260061073Y-116121211D01*
X260037619Y-116081100D01*
X260016473Y-116043354D01*
X259999476Y-116011008D01*
X259988997Y-115989082D01*
X259953897Y-115897821D01*
X259927838Y-115798947D01*
X259911455Y-115696134D01*
X259905428Y-115593854D01*
X259993564Y-115593854D01*
X259994247Y-115658527D01*
X260002729Y-115728201D01*
X260019317Y-115805176D01*
X260044319Y-115891752D01*
X260058080Y-115929646D01*
X260086340Y-115990629D01*
X260124656Y-116058757D01*
X260173649Y-116135202D01*
X260188474Y-116157284D01*
X260202649Y-116176487D01*
X260213153Y-116184195D01*
X260222929Y-116180595D01*
X260234919Y-116165878D01*
X260252066Y-116140232D01*
X260261624Y-116126239D01*
X260287880Y-116089661D01*
X260319961Y-116046730D01*
X260355304Y-116000757D01*
X260391346Y-115955055D01*
X260425523Y-115912936D01*
X260455271Y-115877711D01*
X260492842Y-115834514D01*
X260438476Y-115814686D01*
X260407595Y-115801470D01*
X260362518Y-115777669D01*
X260314372Y-115748393D01*
X260267314Y-115716351D01*
X260225501Y-115684252D01*
X260193090Y-115654804D01*
X260155234Y-115607454D01*
X260130647Y-115556395D01*
X260119076Y-115500480D01*
X260118466Y-115485700D01*
X260249928Y-115485700D01*
X260252130Y-115495802D01*
X260262670Y-115517209D01*
X260279639Y-115542721D01*
X260300501Y-115568659D01*
X260322719Y-115591341D01*
X260327850Y-115595854D01*
X260366504Y-115625828D01*
X260413585Y-115657134D01*
X260464338Y-115686780D01*
X260514009Y-115711772D01*
X260520338Y-115714648D01*
X260549896Y-115727516D01*
X260569679Y-115734217D01*
X260582642Y-115735043D01*
X260591739Y-115730283D01*
X260599926Y-115720230D01*
X260601085Y-115718623D01*
X260613175Y-115704094D01*
X260631692Y-115683760D01*
X260653124Y-115661496D01*
X260694843Y-115619361D01*
X260680794Y-115547274D01*
X260666744Y-115475188D01*
X260596660Y-115458530D01*
X260557640Y-115450277D01*
X260500291Y-115441604D01*
X260444720Y-115436958D01*
X260392737Y-115436197D01*
X260346149Y-115439178D01*
X260306765Y-115445761D01*
X260276395Y-115455804D01*
X260256846Y-115469164D01*
X260249928Y-115485700D01*
X260118466Y-115485700D01*
X260117448Y-115461047D01*
X260121961Y-115427001D01*
X260134244Y-115398392D01*
X260155515Y-115370889D01*
X260161174Y-115364911D01*
X260181942Y-115346757D01*
X260205614Y-115333585D01*
X260238051Y-115321916D01*
X260253057Y-115317794D01*
X260300862Y-115309403D01*
X260354287Y-115305270D01*
X260407033Y-115305715D01*
X260452803Y-115311055D01*
X260482312Y-115316853D01*
X260404529Y-115240053D01*
X260373492Y-115210254D01*
X260333037Y-115174917D01*
X260299362Y-115150544D01*
X260271474Y-115136445D01*
X260248377Y-115131932D01*
X260235018Y-115132688D01*
X260193036Y-115144322D01*
X260152880Y-115168994D01*
X260115966Y-115205397D01*
X260083708Y-115252224D01*
X260057521Y-115308169D01*
X260055878Y-115312579D01*
X260038614Y-115365306D01*
X260022199Y-115426008D01*
X260008170Y-115488517D01*
X259998064Y-115546670D01*
X259993564Y-115593854D01*
X259905428Y-115593854D01*
X259905381Y-115593053D01*
X259910247Y-115493378D01*
X259913305Y-115467247D01*
X259926093Y-115386851D01*
X259943432Y-115316850D01*
X259966399Y-115254142D01*
X259996071Y-115195624D01*
X260033526Y-115138192D01*
X260040630Y-115128479D01*
X260077904Y-115083418D01*
X260114297Y-115050917D01*
X260152245Y-115029532D01*
X260194185Y-115017821D01*
X260242550Y-115014340D01*
X260281759Y-115016086D01*
X260319368Y-115023314D01*
X260353517Y-115037912D01*
X260390016Y-115061748D01*
X260394886Y-115065440D01*
X260424527Y-115091411D01*
X260459216Y-115126394D01*
X260496467Y-115167554D01*
X260533793Y-115212053D01*
X260568704Y-115257055D01*
X260598715Y-115299724D01*
X260614620Y-115323394D01*
X260630872Y-115346485D01*
X260642803Y-115362177D01*
X260648583Y-115367964D01*
X260650234Y-115366897D01*
X260651390Y-115355239D01*
X260648611Y-115332292D01*
X260642423Y-115299999D01*
X260633347Y-115260305D01*
X260621907Y-115215153D01*
X260608627Y-115166485D01*
X260594029Y-115116247D01*
X260578638Y-115066381D01*
X260562976Y-115018830D01*
X260547567Y-114975538D01*
X260532933Y-114938450D01*
X260531826Y-114935833D01*
X260502180Y-114871517D01*
X260472464Y-114819029D01*
X260440944Y-114775642D01*
X260405887Y-114738630D01*
X260384517Y-114720151D01*
X260341086Y-114692032D01*
X260297113Y-114677437D01*
X260250158Y-114675754D01*
X260197781Y-114686370D01*
X260158809Y-114700579D01*
X260095112Y-114734956D01*
X260033070Y-114781640D01*
X259973780Y-114839108D01*
X259918342Y-114905837D01*
X259867852Y-114980303D01*
X259823409Y-115060983D01*
X259786111Y-115146355D01*
X259757056Y-115234895D01*
X259737342Y-115325079D01*
X259735184Y-115339446D01*
X259728359Y-115410115D01*
X259725801Y-115489430D01*
X259541904Y-115489430D01*
X259543015Y-115444415D01*
X259548890Y-115370350D01*
X259559387Y-115295953D01*
X259575230Y-115214666D01*
X259580411Y-115192865D01*
X259594013Y-115145233D01*
X259611276Y-115092952D01*
X259630774Y-115039819D01*
X259651080Y-114989633D01*
X259670769Y-114946192D01*
X259688412Y-114913294D01*
X259689264Y-114911903D01*
X259703284Y-114888974D01*
X259721054Y-114859868D01*
X259738943Y-114830531D01*
X259761964Y-114796708D01*
X259800079Y-114749541D01*
X259844927Y-114700949D01*
X259893154Y-114654319D01*
X259941408Y-114613044D01*
X259986333Y-114580510D01*
X260034966Y-114550924D01*
X260091932Y-114521937D01*
X260146690Y-114501926D01*
X260203300Y-114489783D01*
X260265823Y-114484404D01*
X260338320Y-114484683D01*
X260364306Y-114485680D01*
X260404367Y-114487967D01*
X260435623Y-114491321D01*
X260461968Y-114496392D01*
X260487299Y-114503831D01*
X260515510Y-114514289D01*
X260530024Y-114519917D01*
X260548708Y-114526954D01*
X260554509Y-114529126D01*
X260587852Y-114542680D01*
X260629236Y-114560732D01*
X260674524Y-114581368D01*
X260719578Y-114602675D01*
X260760261Y-114622740D01*
X260792437Y-114639651D01*
X260793370Y-114640161D01*
X260808174Y-114647775D01*
X260833684Y-114660494D01*
X260867574Y-114677190D01*
X260907515Y-114696733D01*
X260951180Y-114717994D01*
X260996242Y-114739845D01*
X261040372Y-114761155D01*
X261081243Y-114780798D01*
X261116527Y-114797642D01*
X261143896Y-114810560D01*
X261161023Y-114818422D01*
X261164808Y-114820118D01*
X261185414Y-114829662D01*
X261214947Y-114843621D01*
X261250039Y-114860396D01*
X261287323Y-114878389D01*
X261301062Y-114884984D01*
X261335396Y-114900866D01*
X261364839Y-114913654D01*
X261386623Y-114922176D01*
X261397983Y-114925260D01*
X261405783Y-114922815D01*
X261424132Y-114913157D01*
X261448806Y-114897869D01*
X261476694Y-114878788D01*
X261494033Y-114866782D01*
X261534198Y-114840832D01*
X261577397Y-114814790D01*
X261616863Y-114792806D01*
X261626646Y-114787605D01*
X261663927Y-114767108D01*
X261707595Y-114742330D01*
X261752995Y-114715937D01*
X261795469Y-114690595D01*
X261811093Y-114681124D01*
X261852614Y-114655989D01*
X261893580Y-114631234D01*
X261929971Y-114609284D01*
X261957770Y-114592567D01*
X261963840Y-114589014D01*
X261989517Y-114574794D01*
X262025124Y-114555817D01*
X262068175Y-114533343D01*
X262116183Y-114508634D01*
X262166661Y-114482951D01*
X262217121Y-114457553D01*
X262265077Y-114433703D01*
X262308043Y-114412660D01*
X262343530Y-114395687D01*
X262369053Y-114384043D01*
X262380573Y-114379045D01*
X262412839Y-114365132D01*
X262437422Y-114354736D01*
X262458827Y-114345972D01*
X262481557Y-114336955D01*
X262493564Y-114332358D01*
X262522839Y-114321822D01*
X262547953Y-114313568D01*
X262553160Y-114311968D01*
X262575615Y-114304529D01*
X262592216Y-114298254D01*
X262592598Y-114298089D01*
X262624032Y-114286124D01*
X262663369Y-114273413D01*
X262704112Y-114261923D01*
X262739762Y-114253619D01*
X262758045Y-114250044D01*
X262791833Y-114243453D01*
X262820912Y-114237797D01*
X262835996Y-114235456D01*
X262866423Y-114232114D01*
X262903141Y-114229118D01*
X262941205Y-114226917D01*
X262958373Y-114226247D01*
X262999158Y-114226078D01*
X263029604Y-114229171D01*
X263052874Y-114236364D01*
X263072130Y-114248492D01*
X263090535Y-114266392D01*
X263094201Y-114270513D01*
X263112611Y-114295023D01*
X263123610Y-114319958D01*
X263128663Y-114349992D01*
X263129234Y-114389795D01*
X263127320Y-114416919D01*
X263117733Y-114472052D01*
X263101712Y-114528686D01*
X263080913Y-114581427D01*
X263056995Y-114624880D01*
X263045916Y-114642596D01*
X263037371Y-114659410D01*
X263035506Y-114668178D01*
X263036321Y-114669158D01*
X263048195Y-114675626D01*
X263069115Y-114682890D01*
X263094398Y-114689668D01*
X263119360Y-114694677D01*
X263139319Y-114696631D01*
X263144097Y-114696908D01*
X263164904Y-114700574D01*
X263192432Y-114707481D01*
X263222460Y-114716331D01*
X263250765Y-114725823D01*
X263273123Y-114734660D01*
X263285313Y-114741542D01*
X263290468Y-114744837D01*
X263305700Y-114748272D01*
X263314004Y-114749188D01*
X263331890Y-114755225D01*
X263334965Y-114756817D01*
X263351165Y-114764653D01*
X263375411Y-114775996D01*
X263403718Y-114788973D01*
X263413713Y-114793531D01*
X263441527Y-114806424D01*
X263464168Y-114817211D01*
X263477491Y-114823927D01*
X263503731Y-114838542D01*
X263547528Y-114863629D01*
X263578140Y-114882301D01*
X263595528Y-114894535D01*
X263613400Y-114908261D01*
X263640065Y-114921878D01*
X263665117Y-114923892D01*
X263692143Y-114915066D01*
X263695933Y-114913267D01*
X263718683Y-114902814D01*
X263743073Y-114891990D01*
X263747237Y-114890174D01*
X263780931Y-114875120D01*
X263821989Y-114856306D01*
X263867441Y-114835141D01*
X263914315Y-114813033D01*
X263959640Y-114791391D01*
X264000445Y-114771623D01*
X264033758Y-114755138D01*
X264056608Y-114743346D01*
X264071344Y-114735640D01*
X264099111Y-114721629D01*
X264132536Y-114705133D01*
X264167267Y-114688317D01*
X264181730Y-114681360D01*
X264220766Y-114662410D01*
X264266365Y-114640102D01*
X264313983Y-114616662D01*
X264359077Y-114594317D01*
X264386835Y-114580681D01*
X264425968Y-114562029D01*
X264460982Y-114545981D01*
X264488869Y-114533905D01*
X264506622Y-114527171D01*
X264516638Y-114523966D01*
X264536113Y-114517038D01*
X264547198Y-114512081D01*
X264552206Y-114509105D01*
X264581649Y-114497693D01*
X264621496Y-114488896D01*
X264668315Y-114483323D01*
X264718675Y-114481585D01*
X264753046Y-114482157D01*
X264809497Y-114485107D01*
X264856146Y-114490876D01*
X264896149Y-114499925D01*
X264932661Y-114512713D01*
X264948290Y-114519181D01*
X264969547Y-114527988D01*
X264999999Y-114541314D01*
X265058639Y-114572091D01*
X265112665Y-114608618D01*
X265165639Y-114653459D01*
X265221123Y-114709181D01*
X265236131Y-114725413D01*
X265278797Y-114774209D01*
X265314410Y-114820297D01*
X265345816Y-114867880D01*
X265375859Y-114921162D01*
X265407385Y-114984345D01*
X265414202Y-114998582D01*
X265427465Y-115026077D01*
X265438049Y-115047756D01*
X265444127Y-115059862D01*
X265447460Y-115067887D01*
X265450915Y-115086052D01*
X265451766Y-115093503D01*
X265457517Y-115106440D01*
X265459966Y-115110208D01*
X265466943Y-115127868D01*
X265475498Y-115156109D01*
X265484973Y-115192204D01*
X265494710Y-115233427D01*
X265504049Y-115277049D01*
X265512333Y-115320345D01*
X265518902Y-115360587D01*
X265521595Y-115384588D01*
X265524367Y-115426971D01*
X265526080Y-115476975D01*
X265526731Y-115530434D01*
X265526736Y-115530878D01*
G37*
G36*
X246450000Y-254000000D02*
G01*
X246750000Y-254000000D01*
X246750000Y-252500000D01*
X246450000Y-252500000D01*
X246450000Y-254000000D01*
G37*
G36*
X246450000Y-245750000D02*
G01*
X246750000Y-245750000D01*
X246750000Y-244250000D01*
X246450000Y-244250000D01*
X246450000Y-245750000D01*
G37*
D11*
X215250000Y-106750000D03*
X311250000Y-255750000D03*
X311250000Y-106750000D03*
X215250000Y-255750000D03*
D12*
X256900000Y-259250000D03*
X259440000Y-259250000D03*
X261980000Y-259250000D03*
X264520000Y-259250000D03*
X267060000Y-259250000D03*
X269600000Y-259250000D03*
D13*
X266750000Y-245750000D03*
X264750000Y-245750000D03*
D14*
X313000000Y-131075000D03*
X313000000Y-129000000D03*
X235500000Y-131075000D03*
X235500000Y-129000000D03*
X210000000Y-131075000D03*
X210000000Y-129000000D03*
D13*
X260000000Y-237000000D03*
X258000000Y-237000000D03*
D14*
X225750000Y-131075000D03*
X225750000Y-129000000D03*
D15*
X264520000Y-242968500D03*
X264012000Y-242968500D03*
X263504000Y-242968500D03*
X262996000Y-242968500D03*
X262488000Y-242968500D03*
X261980000Y-242968500D03*
D16*
X261281500Y-242270000D03*
X261281500Y-241762000D03*
X261281500Y-241254000D03*
X261281500Y-240746000D03*
X261281500Y-240238000D03*
X261281500Y-239730000D03*
D15*
X261980000Y-239031500D03*
X262488000Y-239031500D03*
X262996000Y-239031500D03*
X263504000Y-239031500D03*
X264012000Y-239031500D03*
X264520000Y-239031500D03*
D16*
X265218500Y-239730000D03*
X265218500Y-240238000D03*
X265218500Y-240746000D03*
X265218500Y-241254000D03*
X265218500Y-241762000D03*
X265218500Y-242270000D03*
D17*
X263250000Y-241000000D03*
D18*
X245950000Y-247750000D03*
D19*
X247250000Y-247750000D03*
D18*
X245950000Y-250500000D03*
D19*
X247250000Y-250500000D03*
D20*
X288250000Y-115500000D03*
X288250000Y-117500000D03*
X288250000Y-119500000D03*
D21*
X294000000Y-113150000D03*
X294000000Y-121850000D03*
D14*
X264750000Y-131075000D03*
X264750000Y-129000000D03*
D22*
X286750000Y-251875000D03*
X286750000Y-253125000D03*
X286750000Y-254375000D03*
X286750000Y-255625000D03*
X286750000Y-256875000D03*
X286750000Y-258125000D03*
D23*
X289950000Y-250025000D03*
X289950000Y-259975000D03*
D14*
X274500000Y-131075000D03*
X274500000Y-129000000D03*
D24*
X272250000Y-242750000D03*
X272250000Y-244825000D03*
D14*
X255000000Y-131075000D03*
X255000000Y-129000000D03*
X283750000Y-131075000D03*
X283750000Y-129000000D03*
X293750000Y-131075000D03*
X293750000Y-129000000D03*
X216250000Y-131075000D03*
X216250000Y-129000000D03*
D24*
X269500000Y-242750000D03*
X269500000Y-244825000D03*
D14*
X245250000Y-131075000D03*
X245250000Y-129000000D03*
D25*
X238250000Y-119500000D03*
X238250000Y-117500000D03*
X238250000Y-115500000D03*
D26*
X232500000Y-121850000D03*
X232500000Y-113150000D03*
D22*
X286750000Y-236750000D03*
X286750000Y-238000000D03*
X286750000Y-239250000D03*
X286750000Y-240500000D03*
X286750000Y-241750000D03*
X286750000Y-243000000D03*
D23*
X289950000Y-234900000D03*
X289950000Y-244850000D03*
D27*
X239600000Y-258125000D03*
X239600000Y-256875000D03*
X239600000Y-255625000D03*
X239600000Y-254375000D03*
X239600000Y-253125000D03*
X239600000Y-251875000D03*
D28*
X236400000Y-259975000D03*
X236400000Y-250025000D03*
D14*
X303250000Y-131075000D03*
X303250000Y-129000000D03*
D18*
X245950000Y-253250000D03*
D19*
X247250000Y-253250000D03*
D18*
X245950000Y-245000000D03*
D19*
X247250000Y-245000000D03*
D27*
X239600000Y-243000000D03*
X239600000Y-241750000D03*
X239600000Y-240500000D03*
X239600000Y-239250000D03*
X239600000Y-238000000D03*
X239600000Y-236750000D03*
D28*
X236400000Y-244850000D03*
X236400000Y-234900000D03*
M02*
