G04 #@! TF.GenerationSoftware,KiCad,Pcbnew,8.0.8*
G04 #@! TF.CreationDate,2025-01-22T20:08:14-06:00*
G04 #@! TF.ProjectId,touch-pads,746f7563-682d-4706-9164-732e6b696361,rev?*
G04 #@! TF.SameCoordinates,Original*
G04 #@! TF.FileFunction,Copper,L2,Bot*
G04 #@! TF.FilePolarity,Positive*
%FSLAX46Y46*%
G04 Gerber Fmt 4.6, Leading zero omitted, Abs format (unit mm)*
G04 Created by KiCad (PCBNEW 8.0.8) date 2025-01-22 20:08:14*
%MOMM*%
%LPD*%
G01*
G04 APERTURE LIST*
G04 Aperture macros list*
%AMRoundRect*
0 Rectangle with rounded corners*
0 $1 Rounding radius*
0 $2 $3 $4 $5 $6 $7 $8 $9 X,Y pos of 4 corners*
0 Add a 4 corners polygon primitive as box body*
4,1,4,$2,$3,$4,$5,$6,$7,$8,$9,$2,$3,0*
0 Add four circle primitives for the rounded corners*
1,1,$1+$1,$2,$3*
1,1,$1+$1,$4,$5*
1,1,$1+$1,$6,$7*
1,1,$1+$1,$8,$9*
0 Add four rect primitives between the rounded corners*
20,1,$1+$1,$2,$3,$4,$5,0*
20,1,$1+$1,$4,$5,$6,$7,0*
20,1,$1+$1,$6,$7,$8,$9,0*
20,1,$1+$1,$8,$9,$2,$3,0*%
G04 Aperture macros list end*
G04 #@! TA.AperFunction,SMDPad,CuDef*
%ADD10RoundRect,0.250000X0.350000X0.450000X-0.350000X0.450000X-0.350000X-0.450000X0.350000X-0.450000X0*%
G04 #@! TD*
G04 #@! TA.AperFunction,SMDPad,CuDef*
%ADD11RoundRect,0.250000X0.475000X-0.337500X0.475000X0.337500X-0.475000X0.337500X-0.475000X-0.337500X0*%
G04 #@! TD*
G04 #@! TA.AperFunction,SMDPad,CuDef*
%ADD12R,0.254000X0.812800*%
G04 #@! TD*
G04 #@! TA.AperFunction,SMDPad,CuDef*
%ADD13R,0.812800X0.254000*%
G04 #@! TD*
G04 #@! TA.AperFunction,SMDPad,CuDef*
%ADD14R,2.590800X2.590800*%
G04 #@! TD*
G04 #@! TA.AperFunction,SMDPad,CuDef*
%ADD15RoundRect,0.150000X0.700000X-0.150000X0.700000X0.150000X-0.700000X0.150000X-0.700000X-0.150000X0*%
G04 #@! TD*
G04 #@! TA.AperFunction,SMDPad,CuDef*
%ADD16RoundRect,0.250000X1.100000X-0.250000X1.100000X0.250000X-1.100000X0.250000X-1.100000X-0.250000X0*%
G04 #@! TD*
G04 #@! TA.AperFunction,SMDPad,CuDef*
%ADD17RoundRect,0.250000X-0.475000X0.337500X-0.475000X-0.337500X0.475000X-0.337500X0.475000X0.337500X0*%
G04 #@! TD*
G04 #@! TA.AperFunction,SMDPad,CuDef*
%ADD18RoundRect,0.250000X1.500000X-0.250000X1.500000X0.250000X-1.500000X0.250000X-1.500000X-0.250000X0*%
G04 #@! TD*
G04 #@! TA.AperFunction,SMDPad,CuDef*
%ADD19RoundRect,0.250001X1.449999X-0.499999X1.449999X0.499999X-1.449999X0.499999X-1.449999X-0.499999X0*%
G04 #@! TD*
G04 #@! TA.AperFunction,SMDPad,CuDef*
%ADD20RoundRect,0.250000X-1.500000X0.250000X-1.500000X-0.250000X1.500000X-0.250000X1.500000X0.250000X0*%
G04 #@! TD*
G04 #@! TA.AperFunction,SMDPad,CuDef*
%ADD21RoundRect,0.250001X-1.449999X0.499999X-1.449999X-0.499999X1.449999X-0.499999X1.449999X0.499999X0*%
G04 #@! TD*
G04 #@! TA.AperFunction,SMDPad,CuDef*
%ADD22RoundRect,0.150000X-0.700000X0.150000X-0.700000X-0.150000X0.700000X-0.150000X0.700000X0.150000X0*%
G04 #@! TD*
G04 #@! TA.AperFunction,SMDPad,CuDef*
%ADD23RoundRect,0.250000X-1.100000X0.250000X-1.100000X-0.250000X1.100000X-0.250000X1.100000X0.250000X0*%
G04 #@! TD*
G04 #@! TA.AperFunction,ViaPad*
%ADD24C,0.600000*%
G04 #@! TD*
G04 #@! TA.AperFunction,Conductor*
%ADD25C,0.200000*%
G04 #@! TD*
G04 #@! TA.AperFunction,Conductor*
%ADD26C,0.600000*%
G04 #@! TD*
G04 APERTURE END LIST*
D10*
X266750000Y-245750000D03*
X264750000Y-245750000D03*
D11*
X283250000Y-131075000D03*
X283250000Y-129000000D03*
X274500000Y-131075000D03*
X274500000Y-129000000D03*
X216250000Y-131075000D03*
X216250000Y-129000000D03*
D10*
X260250000Y-236500000D03*
X258250000Y-236500000D03*
D11*
X209500000Y-131075000D03*
X209500000Y-129000000D03*
D12*
X264520000Y-242968500D03*
X264012000Y-242968500D03*
X263504000Y-242968500D03*
X262996000Y-242968500D03*
X262488000Y-242968500D03*
X261980000Y-242968500D03*
D13*
X261281500Y-242270000D03*
X261281500Y-241762000D03*
X261281500Y-241254000D03*
X261281500Y-240746000D03*
X261281500Y-240238000D03*
X261281500Y-239730000D03*
D12*
X261980000Y-239031500D03*
X262488000Y-239031500D03*
X262996000Y-239031500D03*
X263504000Y-239031500D03*
X264012000Y-239031500D03*
X264520000Y-239031500D03*
D13*
X265218500Y-239730000D03*
X265218500Y-240238000D03*
X265218500Y-240746000D03*
X265218500Y-241254000D03*
X265218500Y-241762000D03*
X265218500Y-242270000D03*
D14*
X263250000Y-241000000D03*
D15*
X240350000Y-255125000D03*
X240350000Y-253875000D03*
X240350000Y-252625000D03*
X240350000Y-251375000D03*
X240350000Y-250125000D03*
X240350000Y-248875000D03*
D16*
X237150000Y-256975000D03*
X237150000Y-247025000D03*
D11*
X235750000Y-131075000D03*
X235750000Y-129000000D03*
X245250000Y-131075000D03*
X245250000Y-129000000D03*
X313000000Y-131075000D03*
X313000000Y-129000000D03*
X226000000Y-131075000D03*
X226000000Y-129000000D03*
D17*
X269500000Y-242750000D03*
X269500000Y-244825000D03*
X272250000Y-242750000D03*
X272250000Y-244825000D03*
D11*
X255250000Y-131075000D03*
X255250000Y-129000000D03*
X303250000Y-131075000D03*
X303250000Y-129000000D03*
X293500000Y-131075000D03*
X293500000Y-129000000D03*
D18*
X238350000Y-119500000D03*
X238350000Y-117500000D03*
X238350000Y-115500000D03*
D19*
X232600000Y-121850000D03*
X232600000Y-113150000D03*
D20*
X288150000Y-115500000D03*
X288150000Y-117500000D03*
X288150000Y-119500000D03*
D21*
X293900000Y-113150000D03*
X293900000Y-121850000D03*
D11*
X264750000Y-131075000D03*
X264750000Y-129000000D03*
D22*
X286150000Y-248875000D03*
X286150000Y-250125000D03*
X286150000Y-251375000D03*
X286150000Y-252625000D03*
X286150000Y-253875000D03*
X286150000Y-255125000D03*
D23*
X289350000Y-247025000D03*
X289350000Y-256975000D03*
D24*
X275250000Y-242750000D03*
X275250000Y-251375000D03*
X262500000Y-246000000D03*
X262500000Y-253875000D03*
X274000000Y-252625000D03*
X274000000Y-243750000D03*
X247000000Y-131075000D03*
X218000000Y-131075000D03*
X276250000Y-131075000D03*
X266500000Y-131075000D03*
X285500000Y-131075000D03*
X237500000Y-131075000D03*
X268250000Y-250125000D03*
X257000000Y-131075000D03*
X295250000Y-131075000D03*
X208250000Y-131075000D03*
X305000000Y-131075000D03*
X227750000Y-131075000D03*
X268250000Y-245750000D03*
X315000000Y-130650000D03*
X260750000Y-238000000D03*
X276500000Y-248875000D03*
X261500000Y-246000000D03*
X261500000Y-255125000D03*
X267000000Y-241750000D03*
X267437500Y-241062500D03*
X267500000Y-240000000D03*
X267142228Y-239284456D03*
X265500000Y-234000000D03*
X264500000Y-234750000D03*
X263500000Y-235250000D03*
X262500000Y-237000000D03*
X291750000Y-129000000D03*
X282000000Y-129000000D03*
X253000000Y-129000000D03*
X243500000Y-129000000D03*
X233750000Y-129000000D03*
X272500000Y-129000000D03*
X311000000Y-129000000D03*
X301500000Y-129000000D03*
X214549265Y-129049265D03*
X262750000Y-129000000D03*
X208000000Y-127750000D03*
X224000000Y-129000000D03*
X310250000Y-126500000D03*
X209500000Y-127348529D03*
D25*
X265218500Y-241762000D02*
X266163471Y-241762000D01*
X275250000Y-251375000D02*
X240350000Y-251375000D01*
X267151471Y-242750000D02*
X271500000Y-242750000D01*
X266163471Y-241762000D02*
X267151471Y-242750000D01*
X271500000Y-242750000D02*
X275250000Y-242750000D01*
X271500000Y-242750000D02*
X272250000Y-242750000D01*
X275250000Y-251375000D02*
X286150000Y-251375000D01*
X262500000Y-246000000D02*
X262500000Y-245000000D01*
X286150000Y-253875000D02*
X262500000Y-253875000D01*
X263504000Y-243996000D02*
X263504000Y-242968500D01*
X262500000Y-253875000D02*
X240350000Y-253875000D01*
X262500000Y-245000000D02*
X263504000Y-243996000D01*
X266020000Y-242270000D02*
X267500000Y-243750000D01*
X265218500Y-242270000D02*
X266020000Y-242270000D01*
X274000000Y-252625000D02*
X286150000Y-252625000D01*
X267500000Y-243750000D02*
X274000000Y-243750000D01*
X240350000Y-252625000D02*
X274000000Y-252625000D01*
X272250000Y-244825000D02*
X269500000Y-244825000D01*
X261281500Y-239730000D02*
X261281500Y-242270000D01*
X258250000Y-238000000D02*
X258250000Y-236500000D01*
D26*
X207000000Y-130500000D02*
X207000000Y-118750000D01*
D25*
X264520000Y-243520000D02*
X266750000Y-245750000D01*
X261980000Y-242270000D02*
X261281500Y-242270000D01*
X264512100Y-242960600D02*
X264512100Y-242262100D01*
D26*
X210250000Y-115500000D02*
X238350000Y-115500000D01*
D25*
X268250000Y-245750000D02*
X266750000Y-245750000D01*
X261281500Y-239730000D02*
X262551500Y-241000000D01*
X261980000Y-242270000D02*
X263250000Y-241000000D01*
X268250000Y-250125000D02*
X286150000Y-250125000D01*
X261980000Y-242968500D02*
X261980000Y-242270000D01*
X259980000Y-239730000D02*
X258250000Y-238000000D01*
X261281500Y-239730000D02*
X259980000Y-239730000D01*
D26*
X207000000Y-118750000D02*
X210250000Y-115500000D01*
X315000000Y-117500000D02*
X313000000Y-115500000D01*
X313000000Y-115500000D02*
X288150000Y-115500000D01*
D25*
X240350000Y-250125000D02*
X268250000Y-250125000D01*
X268500000Y-245750000D02*
X269425000Y-244825000D01*
D26*
X207575000Y-131075000D02*
X207000000Y-130500000D01*
D25*
X261281500Y-242270000D02*
X261980000Y-242968500D01*
X264520000Y-242968500D02*
X264520000Y-243520000D01*
X264512100Y-242262100D02*
X263250000Y-241000000D01*
D26*
X315000000Y-130650000D02*
X315000000Y-117500000D01*
D25*
X262488000Y-242968500D02*
X261980000Y-242968500D01*
D26*
X314575000Y-131075000D02*
X207575000Y-131075000D01*
X315000000Y-130650000D02*
X314575000Y-131075000D01*
D25*
X268250000Y-245750000D02*
X268500000Y-245750000D01*
X261980000Y-238230000D02*
X261750000Y-238000000D01*
X286150000Y-248875000D02*
X240350000Y-248875000D01*
X261750000Y-238000000D02*
X260750000Y-238000000D01*
X261980000Y-239031500D02*
X261980000Y-238230000D01*
X240350000Y-255125000D02*
X261500000Y-255125000D01*
X262996000Y-243754000D02*
X262996000Y-242968500D01*
X261500000Y-255125000D02*
X286150000Y-255125000D01*
X261500000Y-245250000D02*
X262996000Y-243754000D01*
X261500000Y-246000000D02*
X261500000Y-245250000D01*
X267000000Y-241750000D02*
X266504000Y-241254000D01*
X266504000Y-241254000D02*
X265218500Y-241254000D01*
X267121000Y-240746000D02*
X265218500Y-240746000D01*
X267437500Y-241062500D02*
X267121000Y-240746000D01*
X267500000Y-240000000D02*
X267262000Y-240238000D01*
X267262000Y-240238000D02*
X265218500Y-240238000D01*
X267142228Y-239284456D02*
X266696684Y-239730000D01*
X266696684Y-239730000D02*
X265218500Y-239730000D01*
X265500000Y-237250000D02*
X265500000Y-234000000D01*
X265500000Y-237250000D02*
X264520000Y-238230000D01*
X264520000Y-238230000D02*
X264520000Y-239031500D01*
X264012000Y-239031500D02*
X264012000Y-237738000D01*
X264012000Y-237738000D02*
X264500000Y-237250000D01*
X264500000Y-234750000D02*
X264500000Y-237250000D01*
X263500000Y-237000000D02*
X263504000Y-237004000D01*
X263504000Y-237004000D02*
X263504000Y-239031500D01*
X263500000Y-235250000D02*
X263500000Y-237000000D01*
X262500000Y-237000000D02*
X262996000Y-237496000D01*
X262996000Y-237496000D02*
X262996000Y-239031500D01*
X264012000Y-244762000D02*
X264012000Y-242968500D01*
X264750000Y-245500000D02*
X264012000Y-244762000D01*
X262488000Y-239031500D02*
X262488000Y-237938000D01*
X261050000Y-236500000D02*
X260250000Y-236500000D01*
X262488000Y-237938000D02*
X261050000Y-236500000D01*
D26*
X208000000Y-127750000D02*
X208000000Y-120750000D01*
D25*
X291750000Y-129000000D02*
X292000000Y-129000000D01*
D26*
X211250000Y-117500000D02*
X238350000Y-117500000D01*
X313000000Y-129000000D02*
X313000000Y-118000000D01*
X209250000Y-129000000D02*
X313000000Y-129000000D01*
X208000000Y-120750000D02*
X211250000Y-117500000D01*
X313000000Y-118000000D02*
X312500000Y-117500000D01*
X208000000Y-127750000D02*
X209250000Y-129000000D01*
X312500000Y-117500000D02*
X288150000Y-117500000D01*
D25*
X310250000Y-126500000D02*
X310250000Y-122000000D01*
X310250000Y-122000000D02*
X307750000Y-119500000D01*
X307750000Y-119500000D02*
X288150000Y-119500000D01*
X212000000Y-119500000D02*
X238350000Y-119500000D01*
X209500000Y-122000000D02*
X212000000Y-119500000D01*
X209500000Y-127348529D02*
X209500000Y-122000000D01*
M02*
