G04 #@! TF.GenerationSoftware,KiCad,Pcbnew,9.0.2*
G04 #@! TF.CreationDate,2025-05-28T22:14:58-05:00*
G04 #@! TF.ProjectId,touch-pads,746f7563-682d-4706-9164-732e6b696361,rev?*
G04 #@! TF.SameCoordinates,Original*
G04 #@! TF.FileFunction,Legend,Top*
G04 #@! TF.FilePolarity,Positive*
%FSLAX46Y46*%
G04 Gerber Fmt 4.6, Leading zero omitted, Abs format (unit mm)*
G04 Created by KiCad (PCBNEW 9.0.2) date 2025-05-28 22:14:58*
%MOMM*%
%LPD*%
G01*
G04 APERTURE LIST*
G04 Aperture macros list*
%AMRoundRect*
0 Rectangle with rounded corners*
0 $1 Rounding radius*
0 $2 $3 $4 $5 $6 $7 $8 $9 X,Y pos of 4 corners*
0 Add a 4 corners polygon primitive as box body*
4,1,4,$2,$3,$4,$5,$6,$7,$8,$9,$2,$3,0*
0 Add four circle primitives for the rounded corners*
1,1,$1+$1,$2,$3*
1,1,$1+$1,$4,$5*
1,1,$1+$1,$6,$7*
1,1,$1+$1,$8,$9*
0 Add four rect primitives between the rounded corners*
20,1,$1+$1,$2,$3,$4,$5,0*
20,1,$1+$1,$4,$5,$6,$7,0*
20,1,$1+$1,$6,$7,$8,$9,0*
20,1,$1+$1,$8,$9,$2,$3,0*%
G04 Aperture macros list end*
%ADD10C,0.150000*%
%ADD11C,0.100000*%
%ADD12C,0.127000*%
%ADD13C,0.200000*%
%ADD14C,3.200000*%
%ADD15RoundRect,0.102000X0.210000X0.650000X-0.210000X0.650000X-0.210000X-0.650000X0.210000X-0.650000X0*%
%ADD16C,1.524000*%
G04 APERTURE END LIST*
D10*
X266295479Y-255687030D02*
X266295479Y-255306078D01*
X266295479Y-255306078D02*
X267095479Y-255306078D01*
X266295479Y-255953697D02*
X267095479Y-255953697D01*
X267095479Y-255953697D02*
X267095479Y-256258459D01*
X267095479Y-256258459D02*
X267057384Y-256334649D01*
X267057384Y-256334649D02*
X267019289Y-256372744D01*
X267019289Y-256372744D02*
X266943098Y-256410840D01*
X266943098Y-256410840D02*
X266828813Y-256410840D01*
X266828813Y-256410840D02*
X266752622Y-256372744D01*
X266752622Y-256372744D02*
X266714527Y-256334649D01*
X266714527Y-256334649D02*
X266676432Y-256258459D01*
X266676432Y-256258459D02*
X266676432Y-255953697D01*
X266295479Y-256753697D02*
X267095479Y-256753697D01*
X267095479Y-256753697D02*
X266295479Y-257210840D01*
X266295479Y-257210840D02*
X267095479Y-257210840D01*
X265807524Y-252906078D02*
X265807524Y-253363221D01*
X265007524Y-253134649D02*
X265807524Y-253134649D01*
X265807524Y-253782269D02*
X265807524Y-253934650D01*
X265807524Y-253934650D02*
X265769429Y-254010840D01*
X265769429Y-254010840D02*
X265693239Y-254087031D01*
X265693239Y-254087031D02*
X265540858Y-254125126D01*
X265540858Y-254125126D02*
X265274191Y-254125126D01*
X265274191Y-254125126D02*
X265121810Y-254087031D01*
X265121810Y-254087031D02*
X265045620Y-254010840D01*
X265045620Y-254010840D02*
X265007524Y-253934650D01*
X265007524Y-253934650D02*
X265007524Y-253782269D01*
X265007524Y-253782269D02*
X265045620Y-253706078D01*
X265045620Y-253706078D02*
X265121810Y-253629888D01*
X265121810Y-253629888D02*
X265274191Y-253591792D01*
X265274191Y-253591792D02*
X265540858Y-253591792D01*
X265540858Y-253591792D02*
X265693239Y-253629888D01*
X265693239Y-253629888D02*
X265769429Y-253706078D01*
X265769429Y-253706078D02*
X265807524Y-253782269D01*
X265426572Y-254734649D02*
X265426572Y-254467983D01*
X265007524Y-254467983D02*
X265807524Y-254467983D01*
X265807524Y-254467983D02*
X265807524Y-254848935D01*
X264931334Y-254963221D02*
X264931334Y-255572744D01*
X265007524Y-255763221D02*
X265807524Y-255763221D01*
X265007524Y-256144173D02*
X265807524Y-256144173D01*
X265807524Y-256144173D02*
X265007524Y-256601316D01*
X265007524Y-256601316D02*
X265807524Y-256601316D01*
X265807524Y-256867982D02*
X265807524Y-257325125D01*
X265007524Y-257096553D02*
X265807524Y-257096553D01*
X263757665Y-253096553D02*
X263719569Y-253210839D01*
X263719569Y-253210839D02*
X263719569Y-253401315D01*
X263719569Y-253401315D02*
X263757665Y-253477506D01*
X263757665Y-253477506D02*
X263795760Y-253515601D01*
X263795760Y-253515601D02*
X263871950Y-253553696D01*
X263871950Y-253553696D02*
X263948141Y-253553696D01*
X263948141Y-253553696D02*
X264024331Y-253515601D01*
X264024331Y-253515601D02*
X264062426Y-253477506D01*
X264062426Y-253477506D02*
X264100522Y-253401315D01*
X264100522Y-253401315D02*
X264138617Y-253248934D01*
X264138617Y-253248934D02*
X264176712Y-253172744D01*
X264176712Y-253172744D02*
X264214807Y-253134649D01*
X264214807Y-253134649D02*
X264290998Y-253096553D01*
X264290998Y-253096553D02*
X264367188Y-253096553D01*
X264367188Y-253096553D02*
X264443379Y-253134649D01*
X264443379Y-253134649D02*
X264481474Y-253172744D01*
X264481474Y-253172744D02*
X264519569Y-253248934D01*
X264519569Y-253248934D02*
X264519569Y-253439411D01*
X264519569Y-253439411D02*
X264481474Y-253553696D01*
X263719569Y-253896554D02*
X264519569Y-253896554D01*
X264519569Y-253896554D02*
X263948141Y-254163220D01*
X263948141Y-254163220D02*
X264519569Y-254429887D01*
X264519569Y-254429887D02*
X263719569Y-254429887D01*
X263719569Y-254810840D02*
X264519569Y-254810840D01*
X264519569Y-254810840D02*
X264519569Y-255001316D01*
X264519569Y-255001316D02*
X264481474Y-255115602D01*
X264481474Y-255115602D02*
X264405284Y-255191792D01*
X264405284Y-255191792D02*
X264329093Y-255229887D01*
X264329093Y-255229887D02*
X264176712Y-255267983D01*
X264176712Y-255267983D02*
X264062426Y-255267983D01*
X264062426Y-255267983D02*
X263910045Y-255229887D01*
X263910045Y-255229887D02*
X263833855Y-255191792D01*
X263833855Y-255191792D02*
X263757665Y-255115602D01*
X263757665Y-255115602D02*
X263719569Y-255001316D01*
X263719569Y-255001316D02*
X263719569Y-254810840D01*
X263948141Y-255572744D02*
X263948141Y-255953697D01*
X263719569Y-255496554D02*
X264519569Y-255763221D01*
X264519569Y-255763221D02*
X263719569Y-256029887D01*
X264519569Y-256182268D02*
X264519569Y-256639411D01*
X263719569Y-256410839D02*
X264519569Y-256410839D01*
X263948141Y-256867982D02*
X263948141Y-257248935D01*
X263719569Y-256791792D02*
X264519569Y-257058459D01*
X264519569Y-257058459D02*
X263719569Y-257325125D01*
X262469710Y-253629886D02*
X262431614Y-253744172D01*
X262431614Y-253744172D02*
X262431614Y-253934648D01*
X262431614Y-253934648D02*
X262469710Y-254010839D01*
X262469710Y-254010839D02*
X262507805Y-254048934D01*
X262507805Y-254048934D02*
X262583995Y-254087029D01*
X262583995Y-254087029D02*
X262660186Y-254087029D01*
X262660186Y-254087029D02*
X262736376Y-254048934D01*
X262736376Y-254048934D02*
X262774471Y-254010839D01*
X262774471Y-254010839D02*
X262812567Y-253934648D01*
X262812567Y-253934648D02*
X262850662Y-253782267D01*
X262850662Y-253782267D02*
X262888757Y-253706077D01*
X262888757Y-253706077D02*
X262926852Y-253667982D01*
X262926852Y-253667982D02*
X263003043Y-253629886D01*
X263003043Y-253629886D02*
X263079233Y-253629886D01*
X263079233Y-253629886D02*
X263155424Y-253667982D01*
X263155424Y-253667982D02*
X263193519Y-253706077D01*
X263193519Y-253706077D02*
X263231614Y-253782267D01*
X263231614Y-253782267D02*
X263231614Y-253972744D01*
X263231614Y-253972744D02*
X263193519Y-254087029D01*
X262431614Y-254429887D02*
X263231614Y-254429887D01*
X263231614Y-254429887D02*
X262660186Y-254696553D01*
X262660186Y-254696553D02*
X263231614Y-254963220D01*
X263231614Y-254963220D02*
X262431614Y-254963220D01*
X262507805Y-255801316D02*
X262469710Y-255763220D01*
X262469710Y-255763220D02*
X262431614Y-255648935D01*
X262431614Y-255648935D02*
X262431614Y-255572744D01*
X262431614Y-255572744D02*
X262469710Y-255458458D01*
X262469710Y-255458458D02*
X262545900Y-255382268D01*
X262545900Y-255382268D02*
X262622090Y-255344173D01*
X262622090Y-255344173D02*
X262774471Y-255306077D01*
X262774471Y-255306077D02*
X262888757Y-255306077D01*
X262888757Y-255306077D02*
X263041138Y-255344173D01*
X263041138Y-255344173D02*
X263117329Y-255382268D01*
X263117329Y-255382268D02*
X263193519Y-255458458D01*
X263193519Y-255458458D02*
X263231614Y-255572744D01*
X263231614Y-255572744D02*
X263231614Y-255648935D01*
X263231614Y-255648935D02*
X263193519Y-255763220D01*
X263193519Y-255763220D02*
X263155424Y-255801316D01*
X262431614Y-256525125D02*
X262431614Y-256144173D01*
X262431614Y-256144173D02*
X263231614Y-256144173D01*
X262431614Y-256791792D02*
X263231614Y-256791792D01*
X262431614Y-257248935D02*
X262888757Y-256906077D01*
X263231614Y-257248935D02*
X262774471Y-256791792D01*
X261905564Y-255572744D02*
X261943659Y-255496554D01*
X261943659Y-255496554D02*
X261943659Y-255382268D01*
X261943659Y-255382268D02*
X261905564Y-255267982D01*
X261905564Y-255267982D02*
X261829374Y-255191792D01*
X261829374Y-255191792D02*
X261753183Y-255153697D01*
X261753183Y-255153697D02*
X261600802Y-255115601D01*
X261600802Y-255115601D02*
X261486516Y-255115601D01*
X261486516Y-255115601D02*
X261334135Y-255153697D01*
X261334135Y-255153697D02*
X261257945Y-255191792D01*
X261257945Y-255191792D02*
X261181755Y-255267982D01*
X261181755Y-255267982D02*
X261143659Y-255382268D01*
X261143659Y-255382268D02*
X261143659Y-255458459D01*
X261143659Y-255458459D02*
X261181755Y-255572744D01*
X261181755Y-255572744D02*
X261219850Y-255610840D01*
X261219850Y-255610840D02*
X261486516Y-255610840D01*
X261486516Y-255610840D02*
X261486516Y-255458459D01*
X261143659Y-255953697D02*
X261943659Y-255953697D01*
X261943659Y-255953697D02*
X261143659Y-256410840D01*
X261143659Y-256410840D02*
X261943659Y-256410840D01*
X261143659Y-256791792D02*
X261943659Y-256791792D01*
X261943659Y-256791792D02*
X261943659Y-256982268D01*
X261943659Y-256982268D02*
X261905564Y-257096554D01*
X261905564Y-257096554D02*
X261829374Y-257172744D01*
X261829374Y-257172744D02*
X261753183Y-257210839D01*
X261753183Y-257210839D02*
X261600802Y-257248935D01*
X261600802Y-257248935D02*
X261486516Y-257248935D01*
X261486516Y-257248935D02*
X261334135Y-257210839D01*
X261334135Y-257210839D02*
X261257945Y-257172744D01*
X261257945Y-257172744D02*
X261181755Y-257096554D01*
X261181755Y-257096554D02*
X261143659Y-256982268D01*
X261143659Y-256982268D02*
X261143659Y-256791792D01*
X260160466Y-254010840D02*
X260160466Y-254620364D01*
X259855704Y-254315602D02*
X260465228Y-254315602D01*
X260655704Y-254925125D02*
X260655704Y-255420363D01*
X260655704Y-255420363D02*
X260350942Y-255153697D01*
X260350942Y-255153697D02*
X260350942Y-255267982D01*
X260350942Y-255267982D02*
X260312847Y-255344173D01*
X260312847Y-255344173D02*
X260274752Y-255382268D01*
X260274752Y-255382268D02*
X260198561Y-255420363D01*
X260198561Y-255420363D02*
X260008085Y-255420363D01*
X260008085Y-255420363D02*
X259931895Y-255382268D01*
X259931895Y-255382268D02*
X259893800Y-255344173D01*
X259893800Y-255344173D02*
X259855704Y-255267982D01*
X259855704Y-255267982D02*
X259855704Y-255039411D01*
X259855704Y-255039411D02*
X259893800Y-254963220D01*
X259893800Y-254963220D02*
X259931895Y-254925125D01*
X259931895Y-255763221D02*
X259893800Y-255801316D01*
X259893800Y-255801316D02*
X259855704Y-255763221D01*
X259855704Y-255763221D02*
X259893800Y-255725125D01*
X259893800Y-255725125D02*
X259931895Y-255763221D01*
X259931895Y-255763221D02*
X259855704Y-255763221D01*
X260655704Y-256067982D02*
X260655704Y-256563220D01*
X260655704Y-256563220D02*
X260350942Y-256296554D01*
X260350942Y-256296554D02*
X260350942Y-256410839D01*
X260350942Y-256410839D02*
X260312847Y-256487030D01*
X260312847Y-256487030D02*
X260274752Y-256525125D01*
X260274752Y-256525125D02*
X260198561Y-256563220D01*
X260198561Y-256563220D02*
X260008085Y-256563220D01*
X260008085Y-256563220D02*
X259931895Y-256525125D01*
X259931895Y-256525125D02*
X259893800Y-256487030D01*
X259893800Y-256487030D02*
X259855704Y-256410839D01*
X259855704Y-256410839D02*
X259855704Y-256182268D01*
X259855704Y-256182268D02*
X259893800Y-256106077D01*
X259893800Y-256106077D02*
X259931895Y-256067982D01*
X260655704Y-256791792D02*
X259855704Y-257058459D01*
X259855704Y-257058459D02*
X260655704Y-257325125D01*
X244236905Y-129204819D02*
X244236905Y-128204819D01*
X244236905Y-128204819D02*
X244475000Y-128204819D01*
X244475000Y-128204819D02*
X244617857Y-128252438D01*
X244617857Y-128252438D02*
X244713095Y-128347676D01*
X244713095Y-128347676D02*
X244760714Y-128442914D01*
X244760714Y-128442914D02*
X244808333Y-128633390D01*
X244808333Y-128633390D02*
X244808333Y-128776247D01*
X244808333Y-128776247D02*
X244760714Y-128966723D01*
X244760714Y-128966723D02*
X244713095Y-129061961D01*
X244713095Y-129061961D02*
X244617857Y-129157200D01*
X244617857Y-129157200D02*
X244475000Y-129204819D01*
X244475000Y-129204819D02*
X244236905Y-129204819D01*
X245379762Y-128633390D02*
X245284524Y-128585771D01*
X245284524Y-128585771D02*
X245236905Y-128538152D01*
X245236905Y-128538152D02*
X245189286Y-128442914D01*
X245189286Y-128442914D02*
X245189286Y-128395295D01*
X245189286Y-128395295D02*
X245236905Y-128300057D01*
X245236905Y-128300057D02*
X245284524Y-128252438D01*
X245284524Y-128252438D02*
X245379762Y-128204819D01*
X245379762Y-128204819D02*
X245570238Y-128204819D01*
X245570238Y-128204819D02*
X245665476Y-128252438D01*
X245665476Y-128252438D02*
X245713095Y-128300057D01*
X245713095Y-128300057D02*
X245760714Y-128395295D01*
X245760714Y-128395295D02*
X245760714Y-128442914D01*
X245760714Y-128442914D02*
X245713095Y-128538152D01*
X245713095Y-128538152D02*
X245665476Y-128585771D01*
X245665476Y-128585771D02*
X245570238Y-128633390D01*
X245570238Y-128633390D02*
X245379762Y-128633390D01*
X245379762Y-128633390D02*
X245284524Y-128681009D01*
X245284524Y-128681009D02*
X245236905Y-128728628D01*
X245236905Y-128728628D02*
X245189286Y-128823866D01*
X245189286Y-128823866D02*
X245189286Y-129014342D01*
X245189286Y-129014342D02*
X245236905Y-129109580D01*
X245236905Y-129109580D02*
X245284524Y-129157200D01*
X245284524Y-129157200D02*
X245379762Y-129204819D01*
X245379762Y-129204819D02*
X245570238Y-129204819D01*
X245570238Y-129204819D02*
X245665476Y-129157200D01*
X245665476Y-129157200D02*
X245713095Y-129109580D01*
X245713095Y-129109580D02*
X245760714Y-129014342D01*
X245760714Y-129014342D02*
X245760714Y-128823866D01*
X245760714Y-128823866D02*
X245713095Y-128728628D01*
X245713095Y-128728628D02*
X245665476Y-128681009D01*
X245665476Y-128681009D02*
X245570238Y-128633390D01*
X234511905Y-129204819D02*
X234511905Y-128204819D01*
X234511905Y-128204819D02*
X234750000Y-128204819D01*
X234750000Y-128204819D02*
X234892857Y-128252438D01*
X234892857Y-128252438D02*
X234988095Y-128347676D01*
X234988095Y-128347676D02*
X235035714Y-128442914D01*
X235035714Y-128442914D02*
X235083333Y-128633390D01*
X235083333Y-128633390D02*
X235083333Y-128776247D01*
X235083333Y-128776247D02*
X235035714Y-128966723D01*
X235035714Y-128966723D02*
X234988095Y-129061961D01*
X234988095Y-129061961D02*
X234892857Y-129157200D01*
X234892857Y-129157200D02*
X234750000Y-129204819D01*
X234750000Y-129204819D02*
X234511905Y-129204819D01*
X235559524Y-129204819D02*
X235750000Y-129204819D01*
X235750000Y-129204819D02*
X235845238Y-129157200D01*
X235845238Y-129157200D02*
X235892857Y-129109580D01*
X235892857Y-129109580D02*
X235988095Y-128966723D01*
X235988095Y-128966723D02*
X236035714Y-128776247D01*
X236035714Y-128776247D02*
X236035714Y-128395295D01*
X236035714Y-128395295D02*
X235988095Y-128300057D01*
X235988095Y-128300057D02*
X235940476Y-128252438D01*
X235940476Y-128252438D02*
X235845238Y-128204819D01*
X235845238Y-128204819D02*
X235654762Y-128204819D01*
X235654762Y-128204819D02*
X235559524Y-128252438D01*
X235559524Y-128252438D02*
X235511905Y-128300057D01*
X235511905Y-128300057D02*
X235464286Y-128395295D01*
X235464286Y-128395295D02*
X235464286Y-128633390D01*
X235464286Y-128633390D02*
X235511905Y-128728628D01*
X235511905Y-128728628D02*
X235559524Y-128776247D01*
X235559524Y-128776247D02*
X235654762Y-128823866D01*
X235654762Y-128823866D02*
X235845238Y-128823866D01*
X235845238Y-128823866D02*
X235940476Y-128776247D01*
X235940476Y-128776247D02*
X235988095Y-128728628D01*
X235988095Y-128728628D02*
X236035714Y-128633390D01*
X282761905Y-129204819D02*
X282761905Y-128204819D01*
X282761905Y-128204819D02*
X283000000Y-128204819D01*
X283000000Y-128204819D02*
X283142857Y-128252438D01*
X283142857Y-128252438D02*
X283238095Y-128347676D01*
X283238095Y-128347676D02*
X283285714Y-128442914D01*
X283285714Y-128442914D02*
X283333333Y-128633390D01*
X283333333Y-128633390D02*
X283333333Y-128776247D01*
X283333333Y-128776247D02*
X283285714Y-128966723D01*
X283285714Y-128966723D02*
X283238095Y-129061961D01*
X283238095Y-129061961D02*
X283142857Y-129157200D01*
X283142857Y-129157200D02*
X283000000Y-129204819D01*
X283000000Y-129204819D02*
X282761905Y-129204819D01*
X284190476Y-128538152D02*
X284190476Y-129204819D01*
X283952381Y-128157200D02*
X283714286Y-128871485D01*
X283714286Y-128871485D02*
X284333333Y-128871485D01*
X311786905Y-129204819D02*
X311786905Y-128204819D01*
X311786905Y-128204819D02*
X312025000Y-128204819D01*
X312025000Y-128204819D02*
X312167857Y-128252438D01*
X312167857Y-128252438D02*
X312263095Y-128347676D01*
X312263095Y-128347676D02*
X312310714Y-128442914D01*
X312310714Y-128442914D02*
X312358333Y-128633390D01*
X312358333Y-128633390D02*
X312358333Y-128776247D01*
X312358333Y-128776247D02*
X312310714Y-128966723D01*
X312310714Y-128966723D02*
X312263095Y-129061961D01*
X312263095Y-129061961D02*
X312167857Y-129157200D01*
X312167857Y-129157200D02*
X312025000Y-129204819D01*
X312025000Y-129204819D02*
X311786905Y-129204819D01*
X313310714Y-129204819D02*
X312739286Y-129204819D01*
X313025000Y-129204819D02*
X313025000Y-128204819D01*
X313025000Y-128204819D02*
X312929762Y-128347676D01*
X312929762Y-128347676D02*
X312834524Y-128442914D01*
X312834524Y-128442914D02*
X312739286Y-128490533D01*
X224285714Y-129204819D02*
X224285714Y-128204819D01*
X224285714Y-128204819D02*
X224523809Y-128204819D01*
X224523809Y-128204819D02*
X224666666Y-128252438D01*
X224666666Y-128252438D02*
X224761904Y-128347676D01*
X224761904Y-128347676D02*
X224809523Y-128442914D01*
X224809523Y-128442914D02*
X224857142Y-128633390D01*
X224857142Y-128633390D02*
X224857142Y-128776247D01*
X224857142Y-128776247D02*
X224809523Y-128966723D01*
X224809523Y-128966723D02*
X224761904Y-129061961D01*
X224761904Y-129061961D02*
X224666666Y-129157200D01*
X224666666Y-129157200D02*
X224523809Y-129204819D01*
X224523809Y-129204819D02*
X224285714Y-129204819D01*
X225809523Y-129204819D02*
X225238095Y-129204819D01*
X225523809Y-129204819D02*
X225523809Y-128204819D01*
X225523809Y-128204819D02*
X225428571Y-128347676D01*
X225428571Y-128347676D02*
X225333333Y-128442914D01*
X225333333Y-128442914D02*
X225238095Y-128490533D01*
X226428571Y-128204819D02*
X226523809Y-128204819D01*
X226523809Y-128204819D02*
X226619047Y-128252438D01*
X226619047Y-128252438D02*
X226666666Y-128300057D01*
X226666666Y-128300057D02*
X226714285Y-128395295D01*
X226714285Y-128395295D02*
X226761904Y-128585771D01*
X226761904Y-128585771D02*
X226761904Y-128823866D01*
X226761904Y-128823866D02*
X226714285Y-129014342D01*
X226714285Y-129014342D02*
X226666666Y-129109580D01*
X226666666Y-129109580D02*
X226619047Y-129157200D01*
X226619047Y-129157200D02*
X226523809Y-129204819D01*
X226523809Y-129204819D02*
X226428571Y-129204819D01*
X226428571Y-129204819D02*
X226333333Y-129157200D01*
X226333333Y-129157200D02*
X226285714Y-129109580D01*
X226285714Y-129109580D02*
X226238095Y-129014342D01*
X226238095Y-129014342D02*
X226190476Y-128823866D01*
X226190476Y-128823866D02*
X226190476Y-128585771D01*
X226190476Y-128585771D02*
X226238095Y-128395295D01*
X226238095Y-128395295D02*
X226285714Y-128300057D01*
X226285714Y-128300057D02*
X226333333Y-128252438D01*
X226333333Y-128252438D02*
X226428571Y-128204819D01*
X214760714Y-129204819D02*
X214760714Y-128204819D01*
X214760714Y-128204819D02*
X214998809Y-128204819D01*
X214998809Y-128204819D02*
X215141666Y-128252438D01*
X215141666Y-128252438D02*
X215236904Y-128347676D01*
X215236904Y-128347676D02*
X215284523Y-128442914D01*
X215284523Y-128442914D02*
X215332142Y-128633390D01*
X215332142Y-128633390D02*
X215332142Y-128776247D01*
X215332142Y-128776247D02*
X215284523Y-128966723D01*
X215284523Y-128966723D02*
X215236904Y-129061961D01*
X215236904Y-129061961D02*
X215141666Y-129157200D01*
X215141666Y-129157200D02*
X214998809Y-129204819D01*
X214998809Y-129204819D02*
X214760714Y-129204819D01*
X216284523Y-129204819D02*
X215713095Y-129204819D01*
X215998809Y-129204819D02*
X215998809Y-128204819D01*
X215998809Y-128204819D02*
X215903571Y-128347676D01*
X215903571Y-128347676D02*
X215808333Y-128442914D01*
X215808333Y-128442914D02*
X215713095Y-128490533D01*
X217236904Y-129204819D02*
X216665476Y-129204819D01*
X216951190Y-129204819D02*
X216951190Y-128204819D01*
X216951190Y-128204819D02*
X216855952Y-128347676D01*
X216855952Y-128347676D02*
X216760714Y-128442914D01*
X216760714Y-128442914D02*
X216665476Y-128490533D01*
X253786905Y-129204819D02*
X253786905Y-128204819D01*
X253786905Y-128204819D02*
X254025000Y-128204819D01*
X254025000Y-128204819D02*
X254167857Y-128252438D01*
X254167857Y-128252438D02*
X254263095Y-128347676D01*
X254263095Y-128347676D02*
X254310714Y-128442914D01*
X254310714Y-128442914D02*
X254358333Y-128633390D01*
X254358333Y-128633390D02*
X254358333Y-128776247D01*
X254358333Y-128776247D02*
X254310714Y-128966723D01*
X254310714Y-128966723D02*
X254263095Y-129061961D01*
X254263095Y-129061961D02*
X254167857Y-129157200D01*
X254167857Y-129157200D02*
X254025000Y-129204819D01*
X254025000Y-129204819D02*
X253786905Y-129204819D01*
X254691667Y-128204819D02*
X255358333Y-128204819D01*
X255358333Y-128204819D02*
X254929762Y-129204819D01*
X292511905Y-129204819D02*
X292511905Y-128204819D01*
X292511905Y-128204819D02*
X292750000Y-128204819D01*
X292750000Y-128204819D02*
X292892857Y-128252438D01*
X292892857Y-128252438D02*
X292988095Y-128347676D01*
X292988095Y-128347676D02*
X293035714Y-128442914D01*
X293035714Y-128442914D02*
X293083333Y-128633390D01*
X293083333Y-128633390D02*
X293083333Y-128776247D01*
X293083333Y-128776247D02*
X293035714Y-128966723D01*
X293035714Y-128966723D02*
X292988095Y-129061961D01*
X292988095Y-129061961D02*
X292892857Y-129157200D01*
X292892857Y-129157200D02*
X292750000Y-129204819D01*
X292750000Y-129204819D02*
X292511905Y-129204819D01*
X293416667Y-128204819D02*
X294035714Y-128204819D01*
X294035714Y-128204819D02*
X293702381Y-128585771D01*
X293702381Y-128585771D02*
X293845238Y-128585771D01*
X293845238Y-128585771D02*
X293940476Y-128633390D01*
X293940476Y-128633390D02*
X293988095Y-128681009D01*
X293988095Y-128681009D02*
X294035714Y-128776247D01*
X294035714Y-128776247D02*
X294035714Y-129014342D01*
X294035714Y-129014342D02*
X293988095Y-129109580D01*
X293988095Y-129109580D02*
X293940476Y-129157200D01*
X293940476Y-129157200D02*
X293845238Y-129204819D01*
X293845238Y-129204819D02*
X293559524Y-129204819D01*
X293559524Y-129204819D02*
X293464286Y-129157200D01*
X293464286Y-129157200D02*
X293416667Y-129109580D01*
X273261905Y-129204819D02*
X273261905Y-128204819D01*
X273261905Y-128204819D02*
X273500000Y-128204819D01*
X273500000Y-128204819D02*
X273642857Y-128252438D01*
X273642857Y-128252438D02*
X273738095Y-128347676D01*
X273738095Y-128347676D02*
X273785714Y-128442914D01*
X273785714Y-128442914D02*
X273833333Y-128633390D01*
X273833333Y-128633390D02*
X273833333Y-128776247D01*
X273833333Y-128776247D02*
X273785714Y-128966723D01*
X273785714Y-128966723D02*
X273738095Y-129061961D01*
X273738095Y-129061961D02*
X273642857Y-129157200D01*
X273642857Y-129157200D02*
X273500000Y-129204819D01*
X273500000Y-129204819D02*
X273261905Y-129204819D01*
X274738095Y-128204819D02*
X274261905Y-128204819D01*
X274261905Y-128204819D02*
X274214286Y-128681009D01*
X274214286Y-128681009D02*
X274261905Y-128633390D01*
X274261905Y-128633390D02*
X274357143Y-128585771D01*
X274357143Y-128585771D02*
X274595238Y-128585771D01*
X274595238Y-128585771D02*
X274690476Y-128633390D01*
X274690476Y-128633390D02*
X274738095Y-128681009D01*
X274738095Y-128681009D02*
X274785714Y-128776247D01*
X274785714Y-128776247D02*
X274785714Y-129014342D01*
X274785714Y-129014342D02*
X274738095Y-129109580D01*
X274738095Y-129109580D02*
X274690476Y-129157200D01*
X274690476Y-129157200D02*
X274595238Y-129204819D01*
X274595238Y-129204819D02*
X274357143Y-129204819D01*
X274357143Y-129204819D02*
X274261905Y-129157200D01*
X274261905Y-129157200D02*
X274214286Y-129109580D01*
X302261905Y-129204819D02*
X302261905Y-128204819D01*
X302261905Y-128204819D02*
X302500000Y-128204819D01*
X302500000Y-128204819D02*
X302642857Y-128252438D01*
X302642857Y-128252438D02*
X302738095Y-128347676D01*
X302738095Y-128347676D02*
X302785714Y-128442914D01*
X302785714Y-128442914D02*
X302833333Y-128633390D01*
X302833333Y-128633390D02*
X302833333Y-128776247D01*
X302833333Y-128776247D02*
X302785714Y-128966723D01*
X302785714Y-128966723D02*
X302738095Y-129061961D01*
X302738095Y-129061961D02*
X302642857Y-129157200D01*
X302642857Y-129157200D02*
X302500000Y-129204819D01*
X302500000Y-129204819D02*
X302261905Y-129204819D01*
X303214286Y-128300057D02*
X303261905Y-128252438D01*
X303261905Y-128252438D02*
X303357143Y-128204819D01*
X303357143Y-128204819D02*
X303595238Y-128204819D01*
X303595238Y-128204819D02*
X303690476Y-128252438D01*
X303690476Y-128252438D02*
X303738095Y-128300057D01*
X303738095Y-128300057D02*
X303785714Y-128395295D01*
X303785714Y-128395295D02*
X303785714Y-128490533D01*
X303785714Y-128490533D02*
X303738095Y-128633390D01*
X303738095Y-128633390D02*
X303166667Y-129204819D01*
X303166667Y-129204819D02*
X303785714Y-129204819D01*
X205035714Y-129204819D02*
X205035714Y-128204819D01*
X205035714Y-128204819D02*
X205273809Y-128204819D01*
X205273809Y-128204819D02*
X205416666Y-128252438D01*
X205416666Y-128252438D02*
X205511904Y-128347676D01*
X205511904Y-128347676D02*
X205559523Y-128442914D01*
X205559523Y-128442914D02*
X205607142Y-128633390D01*
X205607142Y-128633390D02*
X205607142Y-128776247D01*
X205607142Y-128776247D02*
X205559523Y-128966723D01*
X205559523Y-128966723D02*
X205511904Y-129061961D01*
X205511904Y-129061961D02*
X205416666Y-129157200D01*
X205416666Y-129157200D02*
X205273809Y-129204819D01*
X205273809Y-129204819D02*
X205035714Y-129204819D01*
X206559523Y-129204819D02*
X205988095Y-129204819D01*
X206273809Y-129204819D02*
X206273809Y-128204819D01*
X206273809Y-128204819D02*
X206178571Y-128347676D01*
X206178571Y-128347676D02*
X206083333Y-128442914D01*
X206083333Y-128442914D02*
X205988095Y-128490533D01*
X206940476Y-128300057D02*
X206988095Y-128252438D01*
X206988095Y-128252438D02*
X207083333Y-128204819D01*
X207083333Y-128204819D02*
X207321428Y-128204819D01*
X207321428Y-128204819D02*
X207416666Y-128252438D01*
X207416666Y-128252438D02*
X207464285Y-128300057D01*
X207464285Y-128300057D02*
X207511904Y-128395295D01*
X207511904Y-128395295D02*
X207511904Y-128490533D01*
X207511904Y-128490533D02*
X207464285Y-128633390D01*
X207464285Y-128633390D02*
X206892857Y-129204819D01*
X206892857Y-129204819D02*
X207511904Y-129204819D01*
X263511905Y-129204819D02*
X263511905Y-128204819D01*
X263511905Y-128204819D02*
X263750000Y-128204819D01*
X263750000Y-128204819D02*
X263892857Y-128252438D01*
X263892857Y-128252438D02*
X263988095Y-128347676D01*
X263988095Y-128347676D02*
X264035714Y-128442914D01*
X264035714Y-128442914D02*
X264083333Y-128633390D01*
X264083333Y-128633390D02*
X264083333Y-128776247D01*
X264083333Y-128776247D02*
X264035714Y-128966723D01*
X264035714Y-128966723D02*
X263988095Y-129061961D01*
X263988095Y-129061961D02*
X263892857Y-129157200D01*
X263892857Y-129157200D02*
X263750000Y-129204819D01*
X263750000Y-129204819D02*
X263511905Y-129204819D01*
X264940476Y-128204819D02*
X264750000Y-128204819D01*
X264750000Y-128204819D02*
X264654762Y-128252438D01*
X264654762Y-128252438D02*
X264607143Y-128300057D01*
X264607143Y-128300057D02*
X264511905Y-128442914D01*
X264511905Y-128442914D02*
X264464286Y-128633390D01*
X264464286Y-128633390D02*
X264464286Y-129014342D01*
X264464286Y-129014342D02*
X264511905Y-129109580D01*
X264511905Y-129109580D02*
X264559524Y-129157200D01*
X264559524Y-129157200D02*
X264654762Y-129204819D01*
X264654762Y-129204819D02*
X264845238Y-129204819D01*
X264845238Y-129204819D02*
X264940476Y-129157200D01*
X264940476Y-129157200D02*
X264988095Y-129109580D01*
X264988095Y-129109580D02*
X265035714Y-129014342D01*
X265035714Y-129014342D02*
X265035714Y-128776247D01*
X265035714Y-128776247D02*
X264988095Y-128681009D01*
X264988095Y-128681009D02*
X264940476Y-128633390D01*
X264940476Y-128633390D02*
X264845238Y-128585771D01*
X264845238Y-128585771D02*
X264654762Y-128585771D01*
X264654762Y-128585771D02*
X264559524Y-128633390D01*
X264559524Y-128633390D02*
X264511905Y-128681009D01*
X264511905Y-128681009D02*
X264464286Y-128776247D01*
D11*
X249095238Y-259683609D02*
X249238095Y-259731228D01*
X249238095Y-259731228D02*
X249285714Y-259778847D01*
X249285714Y-259778847D02*
X249333333Y-259874085D01*
X249333333Y-259874085D02*
X249333333Y-260016942D01*
X249333333Y-260016942D02*
X249285714Y-260112180D01*
X249285714Y-260112180D02*
X249238095Y-260159800D01*
X249238095Y-260159800D02*
X249142857Y-260207419D01*
X249142857Y-260207419D02*
X248761905Y-260207419D01*
X248761905Y-260207419D02*
X248761905Y-259207419D01*
X248761905Y-259207419D02*
X249095238Y-259207419D01*
X249095238Y-259207419D02*
X249190476Y-259255038D01*
X249190476Y-259255038D02*
X249238095Y-259302657D01*
X249238095Y-259302657D02*
X249285714Y-259397895D01*
X249285714Y-259397895D02*
X249285714Y-259493133D01*
X249285714Y-259493133D02*
X249238095Y-259588371D01*
X249238095Y-259588371D02*
X249190476Y-259635990D01*
X249190476Y-259635990D02*
X249095238Y-259683609D01*
X249095238Y-259683609D02*
X248761905Y-259683609D01*
X250285714Y-260207419D02*
X249714286Y-260207419D01*
X250000000Y-260207419D02*
X250000000Y-259207419D01*
X250000000Y-259207419D02*
X249904762Y-259350276D01*
X249904762Y-259350276D02*
X249809524Y-259445514D01*
X249809524Y-259445514D02*
X249714286Y-259493133D01*
D12*
X245965000Y-132200000D02*
X241985000Y-132200000D01*
X245965000Y-130500000D02*
X245965000Y-132200000D01*
X245810000Y-130500000D02*
X245965000Y-130500000D01*
X241985000Y-132200000D02*
X241985000Y-130500000D01*
X241985000Y-130500000D02*
X242140000Y-130500000D01*
D13*
X242800000Y-129250000D02*
G75*
G02*
X242600000Y-129250000I-100000J0D01*
G01*
X242600000Y-129250000D02*
G75*
G02*
X242800000Y-129250000I100000J0D01*
G01*
D12*
X236240000Y-132200000D02*
X232260000Y-132200000D01*
X236240000Y-130500000D02*
X236240000Y-132200000D01*
X236085000Y-130500000D02*
X236240000Y-130500000D01*
X232260000Y-132200000D02*
X232260000Y-130500000D01*
X232260000Y-130500000D02*
X232415000Y-130500000D01*
D13*
X233075000Y-129250000D02*
G75*
G02*
X232875000Y-129250000I-100000J0D01*
G01*
X232875000Y-129250000D02*
G75*
G02*
X233075000Y-129250000I100000J0D01*
G01*
D12*
X284490000Y-132200000D02*
X280510000Y-132200000D01*
X284490000Y-130500000D02*
X284490000Y-132200000D01*
X284335000Y-130500000D02*
X284490000Y-130500000D01*
X280510000Y-132200000D02*
X280510000Y-130500000D01*
X280510000Y-130500000D02*
X280665000Y-130500000D01*
D13*
X281325000Y-129250000D02*
G75*
G02*
X281125000Y-129250000I-100000J0D01*
G01*
X281125000Y-129250000D02*
G75*
G02*
X281325000Y-129250000I100000J0D01*
G01*
D12*
X313515000Y-132200000D02*
X309535000Y-132200000D01*
X313515000Y-130500000D02*
X313515000Y-132200000D01*
X313360000Y-130500000D02*
X313515000Y-130500000D01*
X309535000Y-132200000D02*
X309535000Y-130500000D01*
X309535000Y-130500000D02*
X309690000Y-130500000D01*
D13*
X310350000Y-129250000D02*
G75*
G02*
X310150000Y-129250000I-100000J0D01*
G01*
X310150000Y-129250000D02*
G75*
G02*
X310350000Y-129250000I100000J0D01*
G01*
D12*
X226490000Y-132200000D02*
X222510000Y-132200000D01*
X226490000Y-130500000D02*
X226490000Y-132200000D01*
X226335000Y-130500000D02*
X226490000Y-130500000D01*
X222510000Y-132200000D02*
X222510000Y-130500000D01*
X222510000Y-130500000D02*
X222665000Y-130500000D01*
D13*
X223325000Y-129250000D02*
G75*
G02*
X223125000Y-129250000I-100000J0D01*
G01*
X223125000Y-129250000D02*
G75*
G02*
X223325000Y-129250000I100000J0D01*
G01*
D12*
X216965000Y-132200000D02*
X212985000Y-132200000D01*
X216965000Y-130500000D02*
X216965000Y-132200000D01*
X216810000Y-130500000D02*
X216965000Y-130500000D01*
X212985000Y-132200000D02*
X212985000Y-130500000D01*
X212985000Y-130500000D02*
X213140000Y-130500000D01*
D13*
X213800000Y-129250000D02*
G75*
G02*
X213600000Y-129250000I-100000J0D01*
G01*
X213600000Y-129250000D02*
G75*
G02*
X213800000Y-129250000I100000J0D01*
G01*
D12*
X255515000Y-132200000D02*
X251535000Y-132200000D01*
X255515000Y-130500000D02*
X255515000Y-132200000D01*
X255360000Y-130500000D02*
X255515000Y-130500000D01*
X251535000Y-132200000D02*
X251535000Y-130500000D01*
X251535000Y-130500000D02*
X251690000Y-130500000D01*
D13*
X252350000Y-129250000D02*
G75*
G02*
X252150000Y-129250000I-100000J0D01*
G01*
X252150000Y-129250000D02*
G75*
G02*
X252350000Y-129250000I100000J0D01*
G01*
D12*
X294240000Y-132200000D02*
X290260000Y-132200000D01*
X294240000Y-130500000D02*
X294240000Y-132200000D01*
X294085000Y-130500000D02*
X294240000Y-130500000D01*
X290260000Y-132200000D02*
X290260000Y-130500000D01*
X290260000Y-130500000D02*
X290415000Y-130500000D01*
D13*
X291075000Y-129250000D02*
G75*
G02*
X290875000Y-129250000I-100000J0D01*
G01*
X290875000Y-129250000D02*
G75*
G02*
X291075000Y-129250000I100000J0D01*
G01*
D12*
X274990000Y-132200000D02*
X271010000Y-132200000D01*
X274990000Y-130500000D02*
X274990000Y-132200000D01*
X274835000Y-130500000D02*
X274990000Y-130500000D01*
X271010000Y-132200000D02*
X271010000Y-130500000D01*
X271010000Y-130500000D02*
X271165000Y-130500000D01*
D13*
X271825000Y-129250000D02*
G75*
G02*
X271625000Y-129250000I-100000J0D01*
G01*
X271625000Y-129250000D02*
G75*
G02*
X271825000Y-129250000I100000J0D01*
G01*
D12*
X303990000Y-132200000D02*
X300010000Y-132200000D01*
X303990000Y-130500000D02*
X303990000Y-132200000D01*
X303835000Y-130500000D02*
X303990000Y-130500000D01*
X300010000Y-132200000D02*
X300010000Y-130500000D01*
X300010000Y-130500000D02*
X300165000Y-130500000D01*
D13*
X300825000Y-129250000D02*
G75*
G02*
X300625000Y-129250000I-100000J0D01*
G01*
X300625000Y-129250000D02*
G75*
G02*
X300825000Y-129250000I100000J0D01*
G01*
D12*
X207240000Y-132200000D02*
X203260000Y-132200000D01*
X207240000Y-130500000D02*
X207240000Y-132200000D01*
X207085000Y-130500000D02*
X207240000Y-130500000D01*
X203260000Y-132200000D02*
X203260000Y-130500000D01*
X203260000Y-130500000D02*
X203415000Y-130500000D01*
D13*
X204075000Y-129250000D02*
G75*
G02*
X203875000Y-129250000I-100000J0D01*
G01*
X203875000Y-129250000D02*
G75*
G02*
X204075000Y-129250000I100000J0D01*
G01*
D12*
X265240000Y-132200000D02*
X261260000Y-132200000D01*
X265240000Y-130500000D02*
X265240000Y-132200000D01*
X265085000Y-130500000D02*
X265240000Y-130500000D01*
X261260000Y-132200000D02*
X261260000Y-130500000D01*
X261260000Y-130500000D02*
X261415000Y-130500000D01*
D13*
X262075000Y-129250000D02*
G75*
G02*
X261875000Y-129250000I-100000J0D01*
G01*
X261875000Y-129250000D02*
G75*
G02*
X262075000Y-129250000I100000J0D01*
G01*
D10*
X275750000Y-260250000D02*
X250750000Y-260250000D01*
X250750000Y-250250000D01*
X275750000Y-250250000D01*
X275750000Y-260250000D01*
X274750000Y-255250000D02*
G75*
G02*
X271750000Y-255250000I-1500000J0D01*
G01*
X271750000Y-255250000D02*
G75*
G02*
X274750000Y-255250000I1500000J0D01*
G01*
X254750000Y-255250000D02*
G75*
G02*
X251750000Y-255250000I-1500000J0D01*
G01*
X251750000Y-255250000D02*
G75*
G02*
X254750000Y-255250000I1500000J0D01*
G01*
%LPC*%
D14*
X215250000Y-106750000D03*
D15*
X242700000Y-130500000D03*
X243550000Y-130500000D03*
X244400000Y-130500000D03*
X245250000Y-130500000D03*
X232975000Y-130500000D03*
X233825000Y-130500000D03*
X234675000Y-130500000D03*
X235525000Y-130500000D03*
X281225000Y-130500000D03*
X282075000Y-130500000D03*
X282925000Y-130500000D03*
X283775000Y-130500000D03*
X310250000Y-130500000D03*
X311100000Y-130500000D03*
X311950000Y-130500000D03*
X312800000Y-130500000D03*
X223225000Y-130500000D03*
X224075000Y-130500000D03*
X224925000Y-130500000D03*
X225775000Y-130500000D03*
X213700000Y-130500000D03*
X214550000Y-130500000D03*
X215400000Y-130500000D03*
X216250000Y-130500000D03*
D14*
X311250000Y-255750000D03*
D15*
X252250000Y-130500000D03*
X253100000Y-130500000D03*
X253950000Y-130500000D03*
X254800000Y-130500000D03*
X290975000Y-130500000D03*
X291825000Y-130500000D03*
X292675000Y-130500000D03*
X293525000Y-130500000D03*
D14*
X311250000Y-106750000D03*
D15*
X271725000Y-130500000D03*
X272575000Y-130500000D03*
X273425000Y-130500000D03*
X274275000Y-130500000D03*
X300725000Y-130500000D03*
X301575000Y-130500000D03*
X302425000Y-130500000D03*
X303275000Y-130500000D03*
X203975000Y-130500000D03*
X204825000Y-130500000D03*
X205675000Y-130500000D03*
X206525000Y-130500000D03*
X261975000Y-130500000D03*
X262825000Y-130500000D03*
X263675000Y-130500000D03*
X264525000Y-130500000D03*
D14*
X215250000Y-255750000D03*
D16*
X256900000Y-259250000D03*
X259440000Y-259250000D03*
X261980000Y-259250000D03*
X264520000Y-259250000D03*
X267060000Y-259250000D03*
X269600000Y-259250000D03*
%LPD*%
M02*
