%TF.GenerationSoftware,KiCad,Pcbnew,8.0.8*%
%TF.CreationDate,2025-01-22T20:08:17-06:00*%
%TF.ProjectId,touch-pads,746f7563-682d-4706-9164-732e6b696361,rev?*%
%TF.SameCoordinates,Original*%
%TF.FileFunction,Drillmap*%
%TF.FilePolarity,Positive*%
%FSLAX45Y45*%
G04 Gerber Fmt 4.5, Leading zero omitted, Abs format (unit mm)*
G04 Created by KiCad (PCBNEW 8.0.8) date 2025-01-22 20:08:17*
%MOMM*%
%LPD*%
G01*
G04 APERTURE LIST*
%ADD10C,0.050000*%
%ADD11C,0.200000*%
%ADD12C,0.320000*%
G04 APERTURE END LIST*
D10*
X32125000Y-10075000D02*
X32125000Y-12675000D01*
X20525000Y-10075000D02*
X20525000Y-12675000D01*
X20175000Y-12675000D02*
X20175000Y-13575000D01*
X32125000Y-13575000D02*
X31775000Y-13575000D01*
X32125000Y-13575000D02*
X32125000Y-26175000D01*
X20525000Y-13575000D02*
X20525000Y-26175000D01*
X32125000Y-26175000D02*
X20525000Y-26175000D01*
X20525000Y-13575000D02*
X20175000Y-13575000D01*
X20525000Y-10075000D02*
X32125000Y-10075000D01*
X31775000Y-12675000D02*
X31775000Y-13575000D01*
X20175000Y-12675000D02*
X20525000Y-12675000D01*
X31775000Y-12675000D02*
X32125000Y-12675000D01*
D11*
D12*
X21365000Y-10515000D02*
X21685000Y-10835000D01*
X21685000Y-10515000D02*
X21365000Y-10835000D01*
X30965000Y-10515000D02*
X31285000Y-10835000D01*
X31285000Y-10515000D02*
X30965000Y-10835000D01*
D11*
X20433277Y-26488984D02*
X20433277Y-26288984D01*
X20433277Y-26288984D02*
X20480896Y-26288984D01*
X20480896Y-26288984D02*
X20509467Y-26298508D01*
X20509467Y-26298508D02*
X20528515Y-26317555D01*
X20528515Y-26317555D02*
X20538039Y-26336603D01*
X20538039Y-26336603D02*
X20547563Y-26374698D01*
X20547563Y-26374698D02*
X20547563Y-26403269D01*
X20547563Y-26403269D02*
X20538039Y-26441365D01*
X20538039Y-26441365D02*
X20528515Y-26460412D01*
X20528515Y-26460412D02*
X20509467Y-26479460D01*
X20509467Y-26479460D02*
X20480896Y-26488984D01*
X20480896Y-26488984D02*
X20433277Y-26488984D01*
X20633277Y-26488984D02*
X20633277Y-26355650D01*
X20633277Y-26393746D02*
X20642801Y-26374698D01*
X20642801Y-26374698D02*
X20652324Y-26365174D01*
X20652324Y-26365174D02*
X20671372Y-26355650D01*
X20671372Y-26355650D02*
X20690420Y-26355650D01*
X20757086Y-26488984D02*
X20757086Y-26355650D01*
X20757086Y-26288984D02*
X20747563Y-26298508D01*
X20747563Y-26298508D02*
X20757086Y-26308031D01*
X20757086Y-26308031D02*
X20766610Y-26298508D01*
X20766610Y-26298508D02*
X20757086Y-26288984D01*
X20757086Y-26288984D02*
X20757086Y-26308031D01*
X20880896Y-26488984D02*
X20861848Y-26479460D01*
X20861848Y-26479460D02*
X20852324Y-26460412D01*
X20852324Y-26460412D02*
X20852324Y-26288984D01*
X20985658Y-26488984D02*
X20966610Y-26479460D01*
X20966610Y-26479460D02*
X20957086Y-26460412D01*
X20957086Y-26460412D02*
X20957086Y-26288984D01*
X21214229Y-26488984D02*
X21214229Y-26288984D01*
X21214229Y-26288984D02*
X21280896Y-26431841D01*
X21280896Y-26431841D02*
X21347563Y-26288984D01*
X21347563Y-26288984D02*
X21347563Y-26488984D01*
X21528515Y-26488984D02*
X21528515Y-26384222D01*
X21528515Y-26384222D02*
X21518991Y-26365174D01*
X21518991Y-26365174D02*
X21499944Y-26355650D01*
X21499944Y-26355650D02*
X21461848Y-26355650D01*
X21461848Y-26355650D02*
X21442801Y-26365174D01*
X21528515Y-26479460D02*
X21509467Y-26488984D01*
X21509467Y-26488984D02*
X21461848Y-26488984D01*
X21461848Y-26488984D02*
X21442801Y-26479460D01*
X21442801Y-26479460D02*
X21433277Y-26460412D01*
X21433277Y-26460412D02*
X21433277Y-26441365D01*
X21433277Y-26441365D02*
X21442801Y-26422317D01*
X21442801Y-26422317D02*
X21461848Y-26412793D01*
X21461848Y-26412793D02*
X21509467Y-26412793D01*
X21509467Y-26412793D02*
X21528515Y-26403269D01*
X21623753Y-26355650D02*
X21623753Y-26555650D01*
X21623753Y-26365174D02*
X21642801Y-26355650D01*
X21642801Y-26355650D02*
X21680896Y-26355650D01*
X21680896Y-26355650D02*
X21699944Y-26365174D01*
X21699944Y-26365174D02*
X21709467Y-26374698D01*
X21709467Y-26374698D02*
X21718991Y-26393746D01*
X21718991Y-26393746D02*
X21718991Y-26450888D01*
X21718991Y-26450888D02*
X21709467Y-26469936D01*
X21709467Y-26469936D02*
X21699944Y-26479460D01*
X21699944Y-26479460D02*
X21680896Y-26488984D01*
X21680896Y-26488984D02*
X21642801Y-26488984D01*
X21642801Y-26488984D02*
X21623753Y-26479460D01*
X21804705Y-26469936D02*
X21814229Y-26479460D01*
X21814229Y-26479460D02*
X21804705Y-26488984D01*
X21804705Y-26488984D02*
X21795182Y-26479460D01*
X21795182Y-26479460D02*
X21804705Y-26469936D01*
X21804705Y-26469936D02*
X21804705Y-26488984D01*
X21804705Y-26365174D02*
X21814229Y-26374698D01*
X21814229Y-26374698D02*
X21804705Y-26384222D01*
X21804705Y-26384222D02*
X21795182Y-26374698D01*
X21795182Y-26374698D02*
X21804705Y-26365174D01*
X21804705Y-26365174D02*
X21804705Y-26384222D01*
X19972500Y-26717500D02*
X20172500Y-26917500D01*
X20172500Y-26717500D02*
X19972500Y-26917500D01*
X20414229Y-26708984D02*
X20538039Y-26708984D01*
X20538039Y-26708984D02*
X20471372Y-26785174D01*
X20471372Y-26785174D02*
X20499944Y-26785174D01*
X20499944Y-26785174D02*
X20518991Y-26794698D01*
X20518991Y-26794698D02*
X20528515Y-26804222D01*
X20528515Y-26804222D02*
X20538039Y-26823269D01*
X20538039Y-26823269D02*
X20538039Y-26870888D01*
X20538039Y-26870888D02*
X20528515Y-26889936D01*
X20528515Y-26889936D02*
X20518991Y-26899460D01*
X20518991Y-26899460D02*
X20499944Y-26908984D01*
X20499944Y-26908984D02*
X20442801Y-26908984D01*
X20442801Y-26908984D02*
X20423753Y-26899460D01*
X20423753Y-26899460D02*
X20414229Y-26889936D01*
X20623753Y-26889936D02*
X20633277Y-26899460D01*
X20633277Y-26899460D02*
X20623753Y-26908984D01*
X20623753Y-26908984D02*
X20614229Y-26899460D01*
X20614229Y-26899460D02*
X20623753Y-26889936D01*
X20623753Y-26889936D02*
X20623753Y-26908984D01*
X20709467Y-26728031D02*
X20718991Y-26718508D01*
X20718991Y-26718508D02*
X20738039Y-26708984D01*
X20738039Y-26708984D02*
X20785658Y-26708984D01*
X20785658Y-26708984D02*
X20804705Y-26718508D01*
X20804705Y-26718508D02*
X20814229Y-26728031D01*
X20814229Y-26728031D02*
X20823753Y-26747079D01*
X20823753Y-26747079D02*
X20823753Y-26766127D01*
X20823753Y-26766127D02*
X20814229Y-26794698D01*
X20814229Y-26794698D02*
X20699944Y-26908984D01*
X20699944Y-26908984D02*
X20823753Y-26908984D01*
X20947563Y-26708984D02*
X20966610Y-26708984D01*
X20966610Y-26708984D02*
X20985658Y-26718508D01*
X20985658Y-26718508D02*
X20995182Y-26728031D01*
X20995182Y-26728031D02*
X21004705Y-26747079D01*
X21004705Y-26747079D02*
X21014229Y-26785174D01*
X21014229Y-26785174D02*
X21014229Y-26832793D01*
X21014229Y-26832793D02*
X21004705Y-26870888D01*
X21004705Y-26870888D02*
X20995182Y-26889936D01*
X20995182Y-26889936D02*
X20985658Y-26899460D01*
X20985658Y-26899460D02*
X20966610Y-26908984D01*
X20966610Y-26908984D02*
X20947563Y-26908984D01*
X20947563Y-26908984D02*
X20928515Y-26899460D01*
X20928515Y-26899460D02*
X20918991Y-26889936D01*
X20918991Y-26889936D02*
X20909467Y-26870888D01*
X20909467Y-26870888D02*
X20899944Y-26832793D01*
X20899944Y-26832793D02*
X20899944Y-26785174D01*
X20899944Y-26785174D02*
X20909467Y-26747079D01*
X20909467Y-26747079D02*
X20918991Y-26728031D01*
X20918991Y-26728031D02*
X20928515Y-26718508D01*
X20928515Y-26718508D02*
X20947563Y-26708984D01*
X21138039Y-26708984D02*
X21157086Y-26708984D01*
X21157086Y-26708984D02*
X21176134Y-26718508D01*
X21176134Y-26718508D02*
X21185658Y-26728031D01*
X21185658Y-26728031D02*
X21195182Y-26747079D01*
X21195182Y-26747079D02*
X21204705Y-26785174D01*
X21204705Y-26785174D02*
X21204705Y-26832793D01*
X21204705Y-26832793D02*
X21195182Y-26870888D01*
X21195182Y-26870888D02*
X21185658Y-26889936D01*
X21185658Y-26889936D02*
X21176134Y-26899460D01*
X21176134Y-26899460D02*
X21157086Y-26908984D01*
X21157086Y-26908984D02*
X21138039Y-26908984D01*
X21138039Y-26908984D02*
X21118991Y-26899460D01*
X21118991Y-26899460D02*
X21109467Y-26889936D01*
X21109467Y-26889936D02*
X21099944Y-26870888D01*
X21099944Y-26870888D02*
X21090420Y-26832793D01*
X21090420Y-26832793D02*
X21090420Y-26785174D01*
X21090420Y-26785174D02*
X21099944Y-26747079D01*
X21099944Y-26747079D02*
X21109467Y-26728031D01*
X21109467Y-26728031D02*
X21118991Y-26718508D01*
X21118991Y-26718508D02*
X21138039Y-26708984D01*
X21290420Y-26908984D02*
X21290420Y-26775650D01*
X21290420Y-26794698D02*
X21299944Y-26785174D01*
X21299944Y-26785174D02*
X21318991Y-26775650D01*
X21318991Y-26775650D02*
X21347563Y-26775650D01*
X21347563Y-26775650D02*
X21366610Y-26785174D01*
X21366610Y-26785174D02*
X21376134Y-26804222D01*
X21376134Y-26804222D02*
X21376134Y-26908984D01*
X21376134Y-26804222D02*
X21385658Y-26785174D01*
X21385658Y-26785174D02*
X21404705Y-26775650D01*
X21404705Y-26775650D02*
X21433277Y-26775650D01*
X21433277Y-26775650D02*
X21452325Y-26785174D01*
X21452325Y-26785174D02*
X21461848Y-26804222D01*
X21461848Y-26804222D02*
X21461848Y-26908984D01*
X21557086Y-26908984D02*
X21557086Y-26775650D01*
X21557086Y-26794698D02*
X21566610Y-26785174D01*
X21566610Y-26785174D02*
X21585658Y-26775650D01*
X21585658Y-26775650D02*
X21614229Y-26775650D01*
X21614229Y-26775650D02*
X21633277Y-26785174D01*
X21633277Y-26785174D02*
X21642801Y-26804222D01*
X21642801Y-26804222D02*
X21642801Y-26908984D01*
X21642801Y-26804222D02*
X21652325Y-26785174D01*
X21652325Y-26785174D02*
X21671372Y-26775650D01*
X21671372Y-26775650D02*
X21699944Y-26775650D01*
X21699944Y-26775650D02*
X21718991Y-26785174D01*
X21718991Y-26785174D02*
X21728515Y-26804222D01*
X21728515Y-26804222D02*
X21728515Y-26908984D01*
X22118991Y-26699460D02*
X21947563Y-26956603D01*
X22376134Y-26708984D02*
X22395182Y-26708984D01*
X22395182Y-26708984D02*
X22414229Y-26718508D01*
X22414229Y-26718508D02*
X22423753Y-26728031D01*
X22423753Y-26728031D02*
X22433277Y-26747079D01*
X22433277Y-26747079D02*
X22442801Y-26785174D01*
X22442801Y-26785174D02*
X22442801Y-26832793D01*
X22442801Y-26832793D02*
X22433277Y-26870888D01*
X22433277Y-26870888D02*
X22423753Y-26889936D01*
X22423753Y-26889936D02*
X22414229Y-26899460D01*
X22414229Y-26899460D02*
X22395182Y-26908984D01*
X22395182Y-26908984D02*
X22376134Y-26908984D01*
X22376134Y-26908984D02*
X22357087Y-26899460D01*
X22357087Y-26899460D02*
X22347563Y-26889936D01*
X22347563Y-26889936D02*
X22338039Y-26870888D01*
X22338039Y-26870888D02*
X22328515Y-26832793D01*
X22328515Y-26832793D02*
X22328515Y-26785174D01*
X22328515Y-26785174D02*
X22338039Y-26747079D01*
X22338039Y-26747079D02*
X22347563Y-26728031D01*
X22347563Y-26728031D02*
X22357087Y-26718508D01*
X22357087Y-26718508D02*
X22376134Y-26708984D01*
X22528515Y-26889936D02*
X22538039Y-26899460D01*
X22538039Y-26899460D02*
X22528515Y-26908984D01*
X22528515Y-26908984D02*
X22518991Y-26899460D01*
X22518991Y-26899460D02*
X22528515Y-26889936D01*
X22528515Y-26889936D02*
X22528515Y-26908984D01*
X22728515Y-26908984D02*
X22614229Y-26908984D01*
X22671372Y-26908984D02*
X22671372Y-26708984D01*
X22671372Y-26708984D02*
X22652325Y-26737555D01*
X22652325Y-26737555D02*
X22633277Y-26756603D01*
X22633277Y-26756603D02*
X22614229Y-26766127D01*
X22804706Y-26728031D02*
X22814229Y-26718508D01*
X22814229Y-26718508D02*
X22833277Y-26708984D01*
X22833277Y-26708984D02*
X22880896Y-26708984D01*
X22880896Y-26708984D02*
X22899944Y-26718508D01*
X22899944Y-26718508D02*
X22909467Y-26728031D01*
X22909467Y-26728031D02*
X22918991Y-26747079D01*
X22918991Y-26747079D02*
X22918991Y-26766127D01*
X22918991Y-26766127D02*
X22909467Y-26794698D01*
X22909467Y-26794698D02*
X22795182Y-26908984D01*
X22795182Y-26908984D02*
X22918991Y-26908984D01*
X23090420Y-26708984D02*
X23052325Y-26708984D01*
X23052325Y-26708984D02*
X23033277Y-26718508D01*
X23033277Y-26718508D02*
X23023753Y-26728031D01*
X23023753Y-26728031D02*
X23004706Y-26756603D01*
X23004706Y-26756603D02*
X22995182Y-26794698D01*
X22995182Y-26794698D02*
X22995182Y-26870888D01*
X22995182Y-26870888D02*
X23004706Y-26889936D01*
X23004706Y-26889936D02*
X23014229Y-26899460D01*
X23014229Y-26899460D02*
X23033277Y-26908984D01*
X23033277Y-26908984D02*
X23071372Y-26908984D01*
X23071372Y-26908984D02*
X23090420Y-26899460D01*
X23090420Y-26899460D02*
X23099944Y-26889936D01*
X23099944Y-26889936D02*
X23109467Y-26870888D01*
X23109467Y-26870888D02*
X23109467Y-26823269D01*
X23109467Y-26823269D02*
X23099944Y-26804222D01*
X23099944Y-26804222D02*
X23090420Y-26794698D01*
X23090420Y-26794698D02*
X23071372Y-26785174D01*
X23071372Y-26785174D02*
X23033277Y-26785174D01*
X23033277Y-26785174D02*
X23014229Y-26794698D01*
X23014229Y-26794698D02*
X23004706Y-26804222D01*
X23004706Y-26804222D02*
X22995182Y-26823269D01*
X23233277Y-26708984D02*
X23252325Y-26708984D01*
X23252325Y-26708984D02*
X23271372Y-26718508D01*
X23271372Y-26718508D02*
X23280896Y-26728031D01*
X23280896Y-26728031D02*
X23290420Y-26747079D01*
X23290420Y-26747079D02*
X23299944Y-26785174D01*
X23299944Y-26785174D02*
X23299944Y-26832793D01*
X23299944Y-26832793D02*
X23290420Y-26870888D01*
X23290420Y-26870888D02*
X23280896Y-26889936D01*
X23280896Y-26889936D02*
X23271372Y-26899460D01*
X23271372Y-26899460D02*
X23252325Y-26908984D01*
X23252325Y-26908984D02*
X23233277Y-26908984D01*
X23233277Y-26908984D02*
X23214229Y-26899460D01*
X23214229Y-26899460D02*
X23204706Y-26889936D01*
X23204706Y-26889936D02*
X23195182Y-26870888D01*
X23195182Y-26870888D02*
X23185658Y-26832793D01*
X23185658Y-26832793D02*
X23185658Y-26785174D01*
X23185658Y-26785174D02*
X23195182Y-26747079D01*
X23195182Y-26747079D02*
X23204706Y-26728031D01*
X23204706Y-26728031D02*
X23214229Y-26718508D01*
X23214229Y-26718508D02*
X23233277Y-26708984D01*
X23376134Y-26708984D02*
X23376134Y-26747079D01*
X23452325Y-26708984D02*
X23452325Y-26747079D01*
X23747563Y-26985174D02*
X23738039Y-26975650D01*
X23738039Y-26975650D02*
X23718991Y-26947079D01*
X23718991Y-26947079D02*
X23709468Y-26928031D01*
X23709468Y-26928031D02*
X23699944Y-26899460D01*
X23699944Y-26899460D02*
X23690420Y-26851841D01*
X23690420Y-26851841D02*
X23690420Y-26813746D01*
X23690420Y-26813746D02*
X23699944Y-26766127D01*
X23699944Y-26766127D02*
X23709468Y-26737555D01*
X23709468Y-26737555D02*
X23718991Y-26718508D01*
X23718991Y-26718508D02*
X23738039Y-26689936D01*
X23738039Y-26689936D02*
X23747563Y-26680412D01*
X23814229Y-26728031D02*
X23823753Y-26718508D01*
X23823753Y-26718508D02*
X23842801Y-26708984D01*
X23842801Y-26708984D02*
X23890420Y-26708984D01*
X23890420Y-26708984D02*
X23909468Y-26718508D01*
X23909468Y-26718508D02*
X23918991Y-26728031D01*
X23918991Y-26728031D02*
X23928515Y-26747079D01*
X23928515Y-26747079D02*
X23928515Y-26766127D01*
X23928515Y-26766127D02*
X23918991Y-26794698D01*
X23918991Y-26794698D02*
X23804706Y-26908984D01*
X23804706Y-26908984D02*
X23928515Y-26908984D01*
X24166610Y-26908984D02*
X24166610Y-26708984D01*
X24252325Y-26908984D02*
X24252325Y-26804222D01*
X24252325Y-26804222D02*
X24242801Y-26785174D01*
X24242801Y-26785174D02*
X24223753Y-26775650D01*
X24223753Y-26775650D02*
X24195182Y-26775650D01*
X24195182Y-26775650D02*
X24176134Y-26785174D01*
X24176134Y-26785174D02*
X24166610Y-26794698D01*
X24376134Y-26908984D02*
X24357087Y-26899460D01*
X24357087Y-26899460D02*
X24347563Y-26889936D01*
X24347563Y-26889936D02*
X24338039Y-26870888D01*
X24338039Y-26870888D02*
X24338039Y-26813746D01*
X24338039Y-26813746D02*
X24347563Y-26794698D01*
X24347563Y-26794698D02*
X24357087Y-26785174D01*
X24357087Y-26785174D02*
X24376134Y-26775650D01*
X24376134Y-26775650D02*
X24404706Y-26775650D01*
X24404706Y-26775650D02*
X24423753Y-26785174D01*
X24423753Y-26785174D02*
X24433277Y-26794698D01*
X24433277Y-26794698D02*
X24442801Y-26813746D01*
X24442801Y-26813746D02*
X24442801Y-26870888D01*
X24442801Y-26870888D02*
X24433277Y-26889936D01*
X24433277Y-26889936D02*
X24423753Y-26899460D01*
X24423753Y-26899460D02*
X24404706Y-26908984D01*
X24404706Y-26908984D02*
X24376134Y-26908984D01*
X24557087Y-26908984D02*
X24538039Y-26899460D01*
X24538039Y-26899460D02*
X24528515Y-26880412D01*
X24528515Y-26880412D02*
X24528515Y-26708984D01*
X24709468Y-26899460D02*
X24690420Y-26908984D01*
X24690420Y-26908984D02*
X24652325Y-26908984D01*
X24652325Y-26908984D02*
X24633277Y-26899460D01*
X24633277Y-26899460D02*
X24623753Y-26880412D01*
X24623753Y-26880412D02*
X24623753Y-26804222D01*
X24623753Y-26804222D02*
X24633277Y-26785174D01*
X24633277Y-26785174D02*
X24652325Y-26775650D01*
X24652325Y-26775650D02*
X24690420Y-26775650D01*
X24690420Y-26775650D02*
X24709468Y-26785174D01*
X24709468Y-26785174D02*
X24718991Y-26804222D01*
X24718991Y-26804222D02*
X24718991Y-26823269D01*
X24718991Y-26823269D02*
X24623753Y-26842317D01*
X24795182Y-26899460D02*
X24814230Y-26908984D01*
X24814230Y-26908984D02*
X24852325Y-26908984D01*
X24852325Y-26908984D02*
X24871372Y-26899460D01*
X24871372Y-26899460D02*
X24880896Y-26880412D01*
X24880896Y-26880412D02*
X24880896Y-26870888D01*
X24880896Y-26870888D02*
X24871372Y-26851841D01*
X24871372Y-26851841D02*
X24852325Y-26842317D01*
X24852325Y-26842317D02*
X24823753Y-26842317D01*
X24823753Y-26842317D02*
X24804706Y-26832793D01*
X24804706Y-26832793D02*
X24795182Y-26813746D01*
X24795182Y-26813746D02*
X24795182Y-26804222D01*
X24795182Y-26804222D02*
X24804706Y-26785174D01*
X24804706Y-26785174D02*
X24823753Y-26775650D01*
X24823753Y-26775650D02*
X24852325Y-26775650D01*
X24852325Y-26775650D02*
X24871372Y-26785174D01*
X24947563Y-26985174D02*
X24957087Y-26975650D01*
X24957087Y-26975650D02*
X24976134Y-26947079D01*
X24976134Y-26947079D02*
X24985658Y-26928031D01*
X24985658Y-26928031D02*
X24995182Y-26899460D01*
X24995182Y-26899460D02*
X25004706Y-26851841D01*
X25004706Y-26851841D02*
X25004706Y-26813746D01*
X25004706Y-26813746D02*
X24995182Y-26766127D01*
X24995182Y-26766127D02*
X24985658Y-26737555D01*
X24985658Y-26737555D02*
X24976134Y-26718508D01*
X24976134Y-26718508D02*
X24957087Y-26689936D01*
X24957087Y-26689936D02*
X24947563Y-26680412D01*
X25309468Y-26985174D02*
X25299944Y-26975650D01*
X25299944Y-26975650D02*
X25280896Y-26947079D01*
X25280896Y-26947079D02*
X25271372Y-26928031D01*
X25271372Y-26928031D02*
X25261849Y-26899460D01*
X25261849Y-26899460D02*
X25252325Y-26851841D01*
X25252325Y-26851841D02*
X25252325Y-26813746D01*
X25252325Y-26813746D02*
X25261849Y-26766127D01*
X25261849Y-26766127D02*
X25271372Y-26737555D01*
X25271372Y-26737555D02*
X25280896Y-26718508D01*
X25280896Y-26718508D02*
X25299944Y-26689936D01*
X25299944Y-26689936D02*
X25309468Y-26680412D01*
X25385658Y-26775650D02*
X25385658Y-26908984D01*
X25385658Y-26794698D02*
X25395182Y-26785174D01*
X25395182Y-26785174D02*
X25414230Y-26775650D01*
X25414230Y-26775650D02*
X25442801Y-26775650D01*
X25442801Y-26775650D02*
X25461849Y-26785174D01*
X25461849Y-26785174D02*
X25471372Y-26804222D01*
X25471372Y-26804222D02*
X25471372Y-26908984D01*
X25595182Y-26908984D02*
X25576134Y-26899460D01*
X25576134Y-26899460D02*
X25566611Y-26889936D01*
X25566611Y-26889936D02*
X25557087Y-26870888D01*
X25557087Y-26870888D02*
X25557087Y-26813746D01*
X25557087Y-26813746D02*
X25566611Y-26794698D01*
X25566611Y-26794698D02*
X25576134Y-26785174D01*
X25576134Y-26785174D02*
X25595182Y-26775650D01*
X25595182Y-26775650D02*
X25623753Y-26775650D01*
X25623753Y-26775650D02*
X25642801Y-26785174D01*
X25642801Y-26785174D02*
X25652325Y-26794698D01*
X25652325Y-26794698D02*
X25661849Y-26813746D01*
X25661849Y-26813746D02*
X25661849Y-26870888D01*
X25661849Y-26870888D02*
X25652325Y-26889936D01*
X25652325Y-26889936D02*
X25642801Y-26899460D01*
X25642801Y-26899460D02*
X25623753Y-26908984D01*
X25623753Y-26908984D02*
X25595182Y-26908984D01*
X25718992Y-26775650D02*
X25795182Y-26775650D01*
X25747563Y-26708984D02*
X25747563Y-26880412D01*
X25747563Y-26880412D02*
X25757087Y-26899460D01*
X25757087Y-26899460D02*
X25776134Y-26908984D01*
X25776134Y-26908984D02*
X25795182Y-26908984D01*
X26014230Y-26775650D02*
X26014230Y-26975650D01*
X26014230Y-26785174D02*
X26033277Y-26775650D01*
X26033277Y-26775650D02*
X26071373Y-26775650D01*
X26071373Y-26775650D02*
X26090420Y-26785174D01*
X26090420Y-26785174D02*
X26099944Y-26794698D01*
X26099944Y-26794698D02*
X26109468Y-26813746D01*
X26109468Y-26813746D02*
X26109468Y-26870888D01*
X26109468Y-26870888D02*
X26099944Y-26889936D01*
X26099944Y-26889936D02*
X26090420Y-26899460D01*
X26090420Y-26899460D02*
X26071373Y-26908984D01*
X26071373Y-26908984D02*
X26033277Y-26908984D01*
X26033277Y-26908984D02*
X26014230Y-26899460D01*
X26223753Y-26908984D02*
X26204706Y-26899460D01*
X26204706Y-26899460D02*
X26195182Y-26880412D01*
X26195182Y-26880412D02*
X26195182Y-26708984D01*
X26385658Y-26908984D02*
X26385658Y-26804222D01*
X26385658Y-26804222D02*
X26376134Y-26785174D01*
X26376134Y-26785174D02*
X26357087Y-26775650D01*
X26357087Y-26775650D02*
X26318992Y-26775650D01*
X26318992Y-26775650D02*
X26299944Y-26785174D01*
X26385658Y-26899460D02*
X26366611Y-26908984D01*
X26366611Y-26908984D02*
X26318992Y-26908984D01*
X26318992Y-26908984D02*
X26299944Y-26899460D01*
X26299944Y-26899460D02*
X26290420Y-26880412D01*
X26290420Y-26880412D02*
X26290420Y-26861365D01*
X26290420Y-26861365D02*
X26299944Y-26842317D01*
X26299944Y-26842317D02*
X26318992Y-26832793D01*
X26318992Y-26832793D02*
X26366611Y-26832793D01*
X26366611Y-26832793D02*
X26385658Y-26823269D01*
X26452325Y-26775650D02*
X26528515Y-26775650D01*
X26480896Y-26708984D02*
X26480896Y-26880412D01*
X26480896Y-26880412D02*
X26490420Y-26899460D01*
X26490420Y-26899460D02*
X26509468Y-26908984D01*
X26509468Y-26908984D02*
X26528515Y-26908984D01*
X26671373Y-26899460D02*
X26652325Y-26908984D01*
X26652325Y-26908984D02*
X26614230Y-26908984D01*
X26614230Y-26908984D02*
X26595182Y-26899460D01*
X26595182Y-26899460D02*
X26585658Y-26880412D01*
X26585658Y-26880412D02*
X26585658Y-26804222D01*
X26585658Y-26804222D02*
X26595182Y-26785174D01*
X26595182Y-26785174D02*
X26614230Y-26775650D01*
X26614230Y-26775650D02*
X26652325Y-26775650D01*
X26652325Y-26775650D02*
X26671373Y-26785174D01*
X26671373Y-26785174D02*
X26680896Y-26804222D01*
X26680896Y-26804222D02*
X26680896Y-26823269D01*
X26680896Y-26823269D02*
X26585658Y-26842317D01*
X26852325Y-26908984D02*
X26852325Y-26708984D01*
X26852325Y-26899460D02*
X26833277Y-26908984D01*
X26833277Y-26908984D02*
X26795182Y-26908984D01*
X26795182Y-26908984D02*
X26776134Y-26899460D01*
X26776134Y-26899460D02*
X26766611Y-26889936D01*
X26766611Y-26889936D02*
X26757087Y-26870888D01*
X26757087Y-26870888D02*
X26757087Y-26813746D01*
X26757087Y-26813746D02*
X26766611Y-26794698D01*
X26766611Y-26794698D02*
X26776134Y-26785174D01*
X26776134Y-26785174D02*
X26795182Y-26775650D01*
X26795182Y-26775650D02*
X26833277Y-26775650D01*
X26833277Y-26775650D02*
X26852325Y-26785174D01*
X26928515Y-26985174D02*
X26938039Y-26975650D01*
X26938039Y-26975650D02*
X26957087Y-26947079D01*
X26957087Y-26947079D02*
X26966611Y-26928031D01*
X26966611Y-26928031D02*
X26976134Y-26899460D01*
X26976134Y-26899460D02*
X26985658Y-26851841D01*
X26985658Y-26851841D02*
X26985658Y-26813746D01*
X26985658Y-26813746D02*
X26976134Y-26766127D01*
X26976134Y-26766127D02*
X26966611Y-26737555D01*
X26966611Y-26737555D02*
X26957087Y-26718508D01*
X26957087Y-26718508D02*
X26938039Y-26689936D01*
X26938039Y-26689936D02*
X26928515Y-26680412D01*
M02*
