M48
; DRILL file {KiCad 8.0.8} date 2025-01-22T20:08:15-0600
; FORMAT={-:-/ absolute / metric / decimal}
; #@! TF.CreationDate,2025-01-22T20:08:15-06:00
; #@! TF.GenerationSoftware,Kicad,Pcbnew,8.0.8
; #@! TF.FileFunction,Plated,1,2,PTH
FMAT,2
METRIC
; #@! TA.AperFunction,Plated,PTH,ViaDrill
T1C0.300
%
G90
G05
T1
X208.0Y-127.75
X208.25Y-131.075
X209.5Y-127.349
X214.549Y-129.049
X218.0Y-131.075
X224.0Y-129.0
X227.75Y-131.075
X233.75Y-129.0
X237.5Y-131.075
X243.5Y-129.0
X247.0Y-131.075
X253.0Y-129.0
X257.0Y-131.075
X260.75Y-238.0
X261.5Y-246.0
X261.5Y-255.125
X262.5Y-237.0
X262.5Y-246.0
X262.5Y-253.875
X262.75Y-129.0
X263.5Y-235.25
X264.5Y-234.75
X265.5Y-234.0
X266.5Y-131.075
X267.0Y-241.75
X267.142Y-239.284
X267.438Y-241.062
X267.5Y-240.0
X268.25Y-245.75
X268.25Y-250.125
X272.5Y-129.0
X274.0Y-243.75
X274.0Y-252.625
X275.25Y-242.75
X275.25Y-251.375
X276.25Y-131.075
X276.5Y-248.875
X282.0Y-129.0
X285.5Y-131.075
X291.75Y-129.0
X295.25Y-131.075
X301.5Y-129.0
X305.0Y-131.075
X310.25Y-126.5
X311.0Y-129.0
X315.0Y-130.65
M30
