G04 #@! TF.GenerationSoftware,KiCad,Pcbnew,8.0.8*
G04 #@! TF.CreationDate,2025-01-22T20:08:14-06:00*
G04 #@! TF.ProjectId,touch-pads,746f7563-682d-4706-9164-732e6b696361,rev?*
G04 #@! TF.SameCoordinates,Original*
G04 #@! TF.FileFunction,Legend,Top*
G04 #@! TF.FilePolarity,Positive*
%FSLAX46Y46*%
G04 Gerber Fmt 4.6, Leading zero omitted, Abs format (unit mm)*
G04 Created by KiCad (PCBNEW 8.0.8) date 2025-01-22 20:08:14*
%MOMM*%
%LPD*%
G01*
G04 APERTURE LIST*
G04 Aperture macros list*
%AMRoundRect*
0 Rectangle with rounded corners*
0 $1 Rounding radius*
0 $2 $3 $4 $5 $6 $7 $8 $9 X,Y pos of 4 corners*
0 Add a 4 corners polygon primitive as box body*
4,1,4,$2,$3,$4,$5,$6,$7,$8,$9,$2,$3,0*
0 Add four circle primitives for the rounded corners*
1,1,$1+$1,$2,$3*
1,1,$1+$1,$4,$5*
1,1,$1+$1,$6,$7*
1,1,$1+$1,$8,$9*
0 Add four rect primitives between the rounded corners*
20,1,$1+$1,$2,$3,$4,$5,0*
20,1,$1+$1,$4,$5,$6,$7,0*
20,1,$1+$1,$6,$7,$8,$9,0*
20,1,$1+$1,$8,$9,$2,$3,0*%
G04 Aperture macros list end*
%ADD10C,0.150000*%
%ADD11C,0.127000*%
%ADD12C,0.200000*%
%ADD13RoundRect,0.102000X0.210000X0.650000X-0.210000X0.650000X-0.210000X-0.650000X0.210000X-0.650000X0*%
%ADD14C,3.200000*%
G04 APERTURE END LIST*
D10*
X243736905Y-129204819D02*
X243736905Y-128204819D01*
X243736905Y-128204819D02*
X243975000Y-128204819D01*
X243975000Y-128204819D02*
X244117857Y-128252438D01*
X244117857Y-128252438D02*
X244213095Y-128347676D01*
X244213095Y-128347676D02*
X244260714Y-128442914D01*
X244260714Y-128442914D02*
X244308333Y-128633390D01*
X244308333Y-128633390D02*
X244308333Y-128776247D01*
X244308333Y-128776247D02*
X244260714Y-128966723D01*
X244260714Y-128966723D02*
X244213095Y-129061961D01*
X244213095Y-129061961D02*
X244117857Y-129157200D01*
X244117857Y-129157200D02*
X243975000Y-129204819D01*
X243975000Y-129204819D02*
X243736905Y-129204819D01*
X244879762Y-128633390D02*
X244784524Y-128585771D01*
X244784524Y-128585771D02*
X244736905Y-128538152D01*
X244736905Y-128538152D02*
X244689286Y-128442914D01*
X244689286Y-128442914D02*
X244689286Y-128395295D01*
X244689286Y-128395295D02*
X244736905Y-128300057D01*
X244736905Y-128300057D02*
X244784524Y-128252438D01*
X244784524Y-128252438D02*
X244879762Y-128204819D01*
X244879762Y-128204819D02*
X245070238Y-128204819D01*
X245070238Y-128204819D02*
X245165476Y-128252438D01*
X245165476Y-128252438D02*
X245213095Y-128300057D01*
X245213095Y-128300057D02*
X245260714Y-128395295D01*
X245260714Y-128395295D02*
X245260714Y-128442914D01*
X245260714Y-128442914D02*
X245213095Y-128538152D01*
X245213095Y-128538152D02*
X245165476Y-128585771D01*
X245165476Y-128585771D02*
X245070238Y-128633390D01*
X245070238Y-128633390D02*
X244879762Y-128633390D01*
X244879762Y-128633390D02*
X244784524Y-128681009D01*
X244784524Y-128681009D02*
X244736905Y-128728628D01*
X244736905Y-128728628D02*
X244689286Y-128823866D01*
X244689286Y-128823866D02*
X244689286Y-129014342D01*
X244689286Y-129014342D02*
X244736905Y-129109580D01*
X244736905Y-129109580D02*
X244784524Y-129157200D01*
X244784524Y-129157200D02*
X244879762Y-129204819D01*
X244879762Y-129204819D02*
X245070238Y-129204819D01*
X245070238Y-129204819D02*
X245165476Y-129157200D01*
X245165476Y-129157200D02*
X245213095Y-129109580D01*
X245213095Y-129109580D02*
X245260714Y-129014342D01*
X245260714Y-129014342D02*
X245260714Y-128823866D01*
X245260714Y-128823866D02*
X245213095Y-128728628D01*
X245213095Y-128728628D02*
X245165476Y-128681009D01*
X245165476Y-128681009D02*
X245070238Y-128633390D01*
X234011905Y-129204819D02*
X234011905Y-128204819D01*
X234011905Y-128204819D02*
X234250000Y-128204819D01*
X234250000Y-128204819D02*
X234392857Y-128252438D01*
X234392857Y-128252438D02*
X234488095Y-128347676D01*
X234488095Y-128347676D02*
X234535714Y-128442914D01*
X234535714Y-128442914D02*
X234583333Y-128633390D01*
X234583333Y-128633390D02*
X234583333Y-128776247D01*
X234583333Y-128776247D02*
X234535714Y-128966723D01*
X234535714Y-128966723D02*
X234488095Y-129061961D01*
X234488095Y-129061961D02*
X234392857Y-129157200D01*
X234392857Y-129157200D02*
X234250000Y-129204819D01*
X234250000Y-129204819D02*
X234011905Y-129204819D01*
X235059524Y-129204819D02*
X235250000Y-129204819D01*
X235250000Y-129204819D02*
X235345238Y-129157200D01*
X235345238Y-129157200D02*
X235392857Y-129109580D01*
X235392857Y-129109580D02*
X235488095Y-128966723D01*
X235488095Y-128966723D02*
X235535714Y-128776247D01*
X235535714Y-128776247D02*
X235535714Y-128395295D01*
X235535714Y-128395295D02*
X235488095Y-128300057D01*
X235488095Y-128300057D02*
X235440476Y-128252438D01*
X235440476Y-128252438D02*
X235345238Y-128204819D01*
X235345238Y-128204819D02*
X235154762Y-128204819D01*
X235154762Y-128204819D02*
X235059524Y-128252438D01*
X235059524Y-128252438D02*
X235011905Y-128300057D01*
X235011905Y-128300057D02*
X234964286Y-128395295D01*
X234964286Y-128395295D02*
X234964286Y-128633390D01*
X234964286Y-128633390D02*
X235011905Y-128728628D01*
X235011905Y-128728628D02*
X235059524Y-128776247D01*
X235059524Y-128776247D02*
X235154762Y-128823866D01*
X235154762Y-128823866D02*
X235345238Y-128823866D01*
X235345238Y-128823866D02*
X235440476Y-128776247D01*
X235440476Y-128776247D02*
X235488095Y-128728628D01*
X235488095Y-128728628D02*
X235535714Y-128633390D01*
X282261905Y-129204819D02*
X282261905Y-128204819D01*
X282261905Y-128204819D02*
X282500000Y-128204819D01*
X282500000Y-128204819D02*
X282642857Y-128252438D01*
X282642857Y-128252438D02*
X282738095Y-128347676D01*
X282738095Y-128347676D02*
X282785714Y-128442914D01*
X282785714Y-128442914D02*
X282833333Y-128633390D01*
X282833333Y-128633390D02*
X282833333Y-128776247D01*
X282833333Y-128776247D02*
X282785714Y-128966723D01*
X282785714Y-128966723D02*
X282738095Y-129061961D01*
X282738095Y-129061961D02*
X282642857Y-129157200D01*
X282642857Y-129157200D02*
X282500000Y-129204819D01*
X282500000Y-129204819D02*
X282261905Y-129204819D01*
X283690476Y-128538152D02*
X283690476Y-129204819D01*
X283452381Y-128157200D02*
X283214286Y-128871485D01*
X283214286Y-128871485D02*
X283833333Y-128871485D01*
X311286905Y-129204819D02*
X311286905Y-128204819D01*
X311286905Y-128204819D02*
X311525000Y-128204819D01*
X311525000Y-128204819D02*
X311667857Y-128252438D01*
X311667857Y-128252438D02*
X311763095Y-128347676D01*
X311763095Y-128347676D02*
X311810714Y-128442914D01*
X311810714Y-128442914D02*
X311858333Y-128633390D01*
X311858333Y-128633390D02*
X311858333Y-128776247D01*
X311858333Y-128776247D02*
X311810714Y-128966723D01*
X311810714Y-128966723D02*
X311763095Y-129061961D01*
X311763095Y-129061961D02*
X311667857Y-129157200D01*
X311667857Y-129157200D02*
X311525000Y-129204819D01*
X311525000Y-129204819D02*
X311286905Y-129204819D01*
X312810714Y-129204819D02*
X312239286Y-129204819D01*
X312525000Y-129204819D02*
X312525000Y-128204819D01*
X312525000Y-128204819D02*
X312429762Y-128347676D01*
X312429762Y-128347676D02*
X312334524Y-128442914D01*
X312334524Y-128442914D02*
X312239286Y-128490533D01*
X223785714Y-129204819D02*
X223785714Y-128204819D01*
X223785714Y-128204819D02*
X224023809Y-128204819D01*
X224023809Y-128204819D02*
X224166666Y-128252438D01*
X224166666Y-128252438D02*
X224261904Y-128347676D01*
X224261904Y-128347676D02*
X224309523Y-128442914D01*
X224309523Y-128442914D02*
X224357142Y-128633390D01*
X224357142Y-128633390D02*
X224357142Y-128776247D01*
X224357142Y-128776247D02*
X224309523Y-128966723D01*
X224309523Y-128966723D02*
X224261904Y-129061961D01*
X224261904Y-129061961D02*
X224166666Y-129157200D01*
X224166666Y-129157200D02*
X224023809Y-129204819D01*
X224023809Y-129204819D02*
X223785714Y-129204819D01*
X225309523Y-129204819D02*
X224738095Y-129204819D01*
X225023809Y-129204819D02*
X225023809Y-128204819D01*
X225023809Y-128204819D02*
X224928571Y-128347676D01*
X224928571Y-128347676D02*
X224833333Y-128442914D01*
X224833333Y-128442914D02*
X224738095Y-128490533D01*
X225928571Y-128204819D02*
X226023809Y-128204819D01*
X226023809Y-128204819D02*
X226119047Y-128252438D01*
X226119047Y-128252438D02*
X226166666Y-128300057D01*
X226166666Y-128300057D02*
X226214285Y-128395295D01*
X226214285Y-128395295D02*
X226261904Y-128585771D01*
X226261904Y-128585771D02*
X226261904Y-128823866D01*
X226261904Y-128823866D02*
X226214285Y-129014342D01*
X226214285Y-129014342D02*
X226166666Y-129109580D01*
X226166666Y-129109580D02*
X226119047Y-129157200D01*
X226119047Y-129157200D02*
X226023809Y-129204819D01*
X226023809Y-129204819D02*
X225928571Y-129204819D01*
X225928571Y-129204819D02*
X225833333Y-129157200D01*
X225833333Y-129157200D02*
X225785714Y-129109580D01*
X225785714Y-129109580D02*
X225738095Y-129014342D01*
X225738095Y-129014342D02*
X225690476Y-128823866D01*
X225690476Y-128823866D02*
X225690476Y-128585771D01*
X225690476Y-128585771D02*
X225738095Y-128395295D01*
X225738095Y-128395295D02*
X225785714Y-128300057D01*
X225785714Y-128300057D02*
X225833333Y-128252438D01*
X225833333Y-128252438D02*
X225928571Y-128204819D01*
X214260714Y-129204819D02*
X214260714Y-128204819D01*
X214260714Y-128204819D02*
X214498809Y-128204819D01*
X214498809Y-128204819D02*
X214641666Y-128252438D01*
X214641666Y-128252438D02*
X214736904Y-128347676D01*
X214736904Y-128347676D02*
X214784523Y-128442914D01*
X214784523Y-128442914D02*
X214832142Y-128633390D01*
X214832142Y-128633390D02*
X214832142Y-128776247D01*
X214832142Y-128776247D02*
X214784523Y-128966723D01*
X214784523Y-128966723D02*
X214736904Y-129061961D01*
X214736904Y-129061961D02*
X214641666Y-129157200D01*
X214641666Y-129157200D02*
X214498809Y-129204819D01*
X214498809Y-129204819D02*
X214260714Y-129204819D01*
X215784523Y-129204819D02*
X215213095Y-129204819D01*
X215498809Y-129204819D02*
X215498809Y-128204819D01*
X215498809Y-128204819D02*
X215403571Y-128347676D01*
X215403571Y-128347676D02*
X215308333Y-128442914D01*
X215308333Y-128442914D02*
X215213095Y-128490533D01*
X216736904Y-129204819D02*
X216165476Y-129204819D01*
X216451190Y-129204819D02*
X216451190Y-128204819D01*
X216451190Y-128204819D02*
X216355952Y-128347676D01*
X216355952Y-128347676D02*
X216260714Y-128442914D01*
X216260714Y-128442914D02*
X216165476Y-128490533D01*
X253286905Y-129204819D02*
X253286905Y-128204819D01*
X253286905Y-128204819D02*
X253525000Y-128204819D01*
X253525000Y-128204819D02*
X253667857Y-128252438D01*
X253667857Y-128252438D02*
X253763095Y-128347676D01*
X253763095Y-128347676D02*
X253810714Y-128442914D01*
X253810714Y-128442914D02*
X253858333Y-128633390D01*
X253858333Y-128633390D02*
X253858333Y-128776247D01*
X253858333Y-128776247D02*
X253810714Y-128966723D01*
X253810714Y-128966723D02*
X253763095Y-129061961D01*
X253763095Y-129061961D02*
X253667857Y-129157200D01*
X253667857Y-129157200D02*
X253525000Y-129204819D01*
X253525000Y-129204819D02*
X253286905Y-129204819D01*
X254191667Y-128204819D02*
X254858333Y-128204819D01*
X254858333Y-128204819D02*
X254429762Y-129204819D01*
X292011905Y-129204819D02*
X292011905Y-128204819D01*
X292011905Y-128204819D02*
X292250000Y-128204819D01*
X292250000Y-128204819D02*
X292392857Y-128252438D01*
X292392857Y-128252438D02*
X292488095Y-128347676D01*
X292488095Y-128347676D02*
X292535714Y-128442914D01*
X292535714Y-128442914D02*
X292583333Y-128633390D01*
X292583333Y-128633390D02*
X292583333Y-128776247D01*
X292583333Y-128776247D02*
X292535714Y-128966723D01*
X292535714Y-128966723D02*
X292488095Y-129061961D01*
X292488095Y-129061961D02*
X292392857Y-129157200D01*
X292392857Y-129157200D02*
X292250000Y-129204819D01*
X292250000Y-129204819D02*
X292011905Y-129204819D01*
X292916667Y-128204819D02*
X293535714Y-128204819D01*
X293535714Y-128204819D02*
X293202381Y-128585771D01*
X293202381Y-128585771D02*
X293345238Y-128585771D01*
X293345238Y-128585771D02*
X293440476Y-128633390D01*
X293440476Y-128633390D02*
X293488095Y-128681009D01*
X293488095Y-128681009D02*
X293535714Y-128776247D01*
X293535714Y-128776247D02*
X293535714Y-129014342D01*
X293535714Y-129014342D02*
X293488095Y-129109580D01*
X293488095Y-129109580D02*
X293440476Y-129157200D01*
X293440476Y-129157200D02*
X293345238Y-129204819D01*
X293345238Y-129204819D02*
X293059524Y-129204819D01*
X293059524Y-129204819D02*
X292964286Y-129157200D01*
X292964286Y-129157200D02*
X292916667Y-129109580D01*
X272761905Y-129204819D02*
X272761905Y-128204819D01*
X272761905Y-128204819D02*
X273000000Y-128204819D01*
X273000000Y-128204819D02*
X273142857Y-128252438D01*
X273142857Y-128252438D02*
X273238095Y-128347676D01*
X273238095Y-128347676D02*
X273285714Y-128442914D01*
X273285714Y-128442914D02*
X273333333Y-128633390D01*
X273333333Y-128633390D02*
X273333333Y-128776247D01*
X273333333Y-128776247D02*
X273285714Y-128966723D01*
X273285714Y-128966723D02*
X273238095Y-129061961D01*
X273238095Y-129061961D02*
X273142857Y-129157200D01*
X273142857Y-129157200D02*
X273000000Y-129204819D01*
X273000000Y-129204819D02*
X272761905Y-129204819D01*
X274238095Y-128204819D02*
X273761905Y-128204819D01*
X273761905Y-128204819D02*
X273714286Y-128681009D01*
X273714286Y-128681009D02*
X273761905Y-128633390D01*
X273761905Y-128633390D02*
X273857143Y-128585771D01*
X273857143Y-128585771D02*
X274095238Y-128585771D01*
X274095238Y-128585771D02*
X274190476Y-128633390D01*
X274190476Y-128633390D02*
X274238095Y-128681009D01*
X274238095Y-128681009D02*
X274285714Y-128776247D01*
X274285714Y-128776247D02*
X274285714Y-129014342D01*
X274285714Y-129014342D02*
X274238095Y-129109580D01*
X274238095Y-129109580D02*
X274190476Y-129157200D01*
X274190476Y-129157200D02*
X274095238Y-129204819D01*
X274095238Y-129204819D02*
X273857143Y-129204819D01*
X273857143Y-129204819D02*
X273761905Y-129157200D01*
X273761905Y-129157200D02*
X273714286Y-129109580D01*
X301761905Y-129204819D02*
X301761905Y-128204819D01*
X301761905Y-128204819D02*
X302000000Y-128204819D01*
X302000000Y-128204819D02*
X302142857Y-128252438D01*
X302142857Y-128252438D02*
X302238095Y-128347676D01*
X302238095Y-128347676D02*
X302285714Y-128442914D01*
X302285714Y-128442914D02*
X302333333Y-128633390D01*
X302333333Y-128633390D02*
X302333333Y-128776247D01*
X302333333Y-128776247D02*
X302285714Y-128966723D01*
X302285714Y-128966723D02*
X302238095Y-129061961D01*
X302238095Y-129061961D02*
X302142857Y-129157200D01*
X302142857Y-129157200D02*
X302000000Y-129204819D01*
X302000000Y-129204819D02*
X301761905Y-129204819D01*
X302714286Y-128300057D02*
X302761905Y-128252438D01*
X302761905Y-128252438D02*
X302857143Y-128204819D01*
X302857143Y-128204819D02*
X303095238Y-128204819D01*
X303095238Y-128204819D02*
X303190476Y-128252438D01*
X303190476Y-128252438D02*
X303238095Y-128300057D01*
X303238095Y-128300057D02*
X303285714Y-128395295D01*
X303285714Y-128395295D02*
X303285714Y-128490533D01*
X303285714Y-128490533D02*
X303238095Y-128633390D01*
X303238095Y-128633390D02*
X302666667Y-129204819D01*
X302666667Y-129204819D02*
X303285714Y-129204819D01*
X204535714Y-129204819D02*
X204535714Y-128204819D01*
X204535714Y-128204819D02*
X204773809Y-128204819D01*
X204773809Y-128204819D02*
X204916666Y-128252438D01*
X204916666Y-128252438D02*
X205011904Y-128347676D01*
X205011904Y-128347676D02*
X205059523Y-128442914D01*
X205059523Y-128442914D02*
X205107142Y-128633390D01*
X205107142Y-128633390D02*
X205107142Y-128776247D01*
X205107142Y-128776247D02*
X205059523Y-128966723D01*
X205059523Y-128966723D02*
X205011904Y-129061961D01*
X205011904Y-129061961D02*
X204916666Y-129157200D01*
X204916666Y-129157200D02*
X204773809Y-129204819D01*
X204773809Y-129204819D02*
X204535714Y-129204819D01*
X206059523Y-129204819D02*
X205488095Y-129204819D01*
X205773809Y-129204819D02*
X205773809Y-128204819D01*
X205773809Y-128204819D02*
X205678571Y-128347676D01*
X205678571Y-128347676D02*
X205583333Y-128442914D01*
X205583333Y-128442914D02*
X205488095Y-128490533D01*
X206440476Y-128300057D02*
X206488095Y-128252438D01*
X206488095Y-128252438D02*
X206583333Y-128204819D01*
X206583333Y-128204819D02*
X206821428Y-128204819D01*
X206821428Y-128204819D02*
X206916666Y-128252438D01*
X206916666Y-128252438D02*
X206964285Y-128300057D01*
X206964285Y-128300057D02*
X207011904Y-128395295D01*
X207011904Y-128395295D02*
X207011904Y-128490533D01*
X207011904Y-128490533D02*
X206964285Y-128633390D01*
X206964285Y-128633390D02*
X206392857Y-129204819D01*
X206392857Y-129204819D02*
X207011904Y-129204819D01*
X263011905Y-129204819D02*
X263011905Y-128204819D01*
X263011905Y-128204819D02*
X263250000Y-128204819D01*
X263250000Y-128204819D02*
X263392857Y-128252438D01*
X263392857Y-128252438D02*
X263488095Y-128347676D01*
X263488095Y-128347676D02*
X263535714Y-128442914D01*
X263535714Y-128442914D02*
X263583333Y-128633390D01*
X263583333Y-128633390D02*
X263583333Y-128776247D01*
X263583333Y-128776247D02*
X263535714Y-128966723D01*
X263535714Y-128966723D02*
X263488095Y-129061961D01*
X263488095Y-129061961D02*
X263392857Y-129157200D01*
X263392857Y-129157200D02*
X263250000Y-129204819D01*
X263250000Y-129204819D02*
X263011905Y-129204819D01*
X264440476Y-128204819D02*
X264250000Y-128204819D01*
X264250000Y-128204819D02*
X264154762Y-128252438D01*
X264154762Y-128252438D02*
X264107143Y-128300057D01*
X264107143Y-128300057D02*
X264011905Y-128442914D01*
X264011905Y-128442914D02*
X263964286Y-128633390D01*
X263964286Y-128633390D02*
X263964286Y-129014342D01*
X263964286Y-129014342D02*
X264011905Y-129109580D01*
X264011905Y-129109580D02*
X264059524Y-129157200D01*
X264059524Y-129157200D02*
X264154762Y-129204819D01*
X264154762Y-129204819D02*
X264345238Y-129204819D01*
X264345238Y-129204819D02*
X264440476Y-129157200D01*
X264440476Y-129157200D02*
X264488095Y-129109580D01*
X264488095Y-129109580D02*
X264535714Y-129014342D01*
X264535714Y-129014342D02*
X264535714Y-128776247D01*
X264535714Y-128776247D02*
X264488095Y-128681009D01*
X264488095Y-128681009D02*
X264440476Y-128633390D01*
X264440476Y-128633390D02*
X264345238Y-128585771D01*
X264345238Y-128585771D02*
X264154762Y-128585771D01*
X264154762Y-128585771D02*
X264059524Y-128633390D01*
X264059524Y-128633390D02*
X264011905Y-128681009D01*
X264011905Y-128681009D02*
X263964286Y-128776247D01*
D11*
X241985000Y-130500000D02*
X242140000Y-130500000D01*
X241985000Y-132200000D02*
X241985000Y-130500000D01*
X245810000Y-130500000D02*
X245965000Y-130500000D01*
X245965000Y-130500000D02*
X245965000Y-132200000D01*
X245965000Y-132200000D02*
X241985000Y-132200000D01*
D12*
X242800000Y-129250000D02*
G75*
G02*
X242600000Y-129250000I-100000J0D01*
G01*
X242600000Y-129250000D02*
G75*
G02*
X242800000Y-129250000I100000J0D01*
G01*
D11*
X232260000Y-130500000D02*
X232415000Y-130500000D01*
X232260000Y-132200000D02*
X232260000Y-130500000D01*
X236085000Y-130500000D02*
X236240000Y-130500000D01*
X236240000Y-130500000D02*
X236240000Y-132200000D01*
X236240000Y-132200000D02*
X232260000Y-132200000D01*
D12*
X233075000Y-129250000D02*
G75*
G02*
X232875000Y-129250000I-100000J0D01*
G01*
X232875000Y-129250000D02*
G75*
G02*
X233075000Y-129250000I100000J0D01*
G01*
D11*
X280510000Y-130500000D02*
X280665000Y-130500000D01*
X280510000Y-132200000D02*
X280510000Y-130500000D01*
X284335000Y-130500000D02*
X284490000Y-130500000D01*
X284490000Y-130500000D02*
X284490000Y-132200000D01*
X284490000Y-132200000D02*
X280510000Y-132200000D01*
D12*
X281325000Y-129250000D02*
G75*
G02*
X281125000Y-129250000I-100000J0D01*
G01*
X281125000Y-129250000D02*
G75*
G02*
X281325000Y-129250000I100000J0D01*
G01*
D11*
X309535000Y-130500000D02*
X309690000Y-130500000D01*
X309535000Y-132200000D02*
X309535000Y-130500000D01*
X313360000Y-130500000D02*
X313515000Y-130500000D01*
X313515000Y-130500000D02*
X313515000Y-132200000D01*
X313515000Y-132200000D02*
X309535000Y-132200000D01*
D12*
X310350000Y-129250000D02*
G75*
G02*
X310150000Y-129250000I-100000J0D01*
G01*
X310150000Y-129250000D02*
G75*
G02*
X310350000Y-129250000I100000J0D01*
G01*
D11*
X222510000Y-130500000D02*
X222665000Y-130500000D01*
X222510000Y-132200000D02*
X222510000Y-130500000D01*
X226335000Y-130500000D02*
X226490000Y-130500000D01*
X226490000Y-130500000D02*
X226490000Y-132200000D01*
X226490000Y-132200000D02*
X222510000Y-132200000D01*
D12*
X223325000Y-129250000D02*
G75*
G02*
X223125000Y-129250000I-100000J0D01*
G01*
X223125000Y-129250000D02*
G75*
G02*
X223325000Y-129250000I100000J0D01*
G01*
D11*
X212985000Y-130500000D02*
X213140000Y-130500000D01*
X212985000Y-132200000D02*
X212985000Y-130500000D01*
X216810000Y-130500000D02*
X216965000Y-130500000D01*
X216965000Y-130500000D02*
X216965000Y-132200000D01*
X216965000Y-132200000D02*
X212985000Y-132200000D01*
D12*
X213800000Y-129250000D02*
G75*
G02*
X213600000Y-129250000I-100000J0D01*
G01*
X213600000Y-129250000D02*
G75*
G02*
X213800000Y-129250000I100000J0D01*
G01*
D11*
X251535000Y-130500000D02*
X251690000Y-130500000D01*
X251535000Y-132200000D02*
X251535000Y-130500000D01*
X255360000Y-130500000D02*
X255515000Y-130500000D01*
X255515000Y-130500000D02*
X255515000Y-132200000D01*
X255515000Y-132200000D02*
X251535000Y-132200000D01*
D12*
X252350000Y-129250000D02*
G75*
G02*
X252150000Y-129250000I-100000J0D01*
G01*
X252150000Y-129250000D02*
G75*
G02*
X252350000Y-129250000I100000J0D01*
G01*
D11*
X290260000Y-130500000D02*
X290415000Y-130500000D01*
X290260000Y-132200000D02*
X290260000Y-130500000D01*
X294085000Y-130500000D02*
X294240000Y-130500000D01*
X294240000Y-130500000D02*
X294240000Y-132200000D01*
X294240000Y-132200000D02*
X290260000Y-132200000D01*
D12*
X291075000Y-129250000D02*
G75*
G02*
X290875000Y-129250000I-100000J0D01*
G01*
X290875000Y-129250000D02*
G75*
G02*
X291075000Y-129250000I100000J0D01*
G01*
D11*
X271010000Y-130500000D02*
X271165000Y-130500000D01*
X271010000Y-132200000D02*
X271010000Y-130500000D01*
X274835000Y-130500000D02*
X274990000Y-130500000D01*
X274990000Y-130500000D02*
X274990000Y-132200000D01*
X274990000Y-132200000D02*
X271010000Y-132200000D01*
D12*
X271825000Y-129250000D02*
G75*
G02*
X271625000Y-129250000I-100000J0D01*
G01*
X271625000Y-129250000D02*
G75*
G02*
X271825000Y-129250000I100000J0D01*
G01*
D11*
X300010000Y-130500000D02*
X300165000Y-130500000D01*
X300010000Y-132200000D02*
X300010000Y-130500000D01*
X303835000Y-130500000D02*
X303990000Y-130500000D01*
X303990000Y-130500000D02*
X303990000Y-132200000D01*
X303990000Y-132200000D02*
X300010000Y-132200000D01*
D12*
X300825000Y-129250000D02*
G75*
G02*
X300625000Y-129250000I-100000J0D01*
G01*
X300625000Y-129250000D02*
G75*
G02*
X300825000Y-129250000I100000J0D01*
G01*
D11*
X203260000Y-130500000D02*
X203415000Y-130500000D01*
X203260000Y-132200000D02*
X203260000Y-130500000D01*
X207085000Y-130500000D02*
X207240000Y-130500000D01*
X207240000Y-130500000D02*
X207240000Y-132200000D01*
X207240000Y-132200000D02*
X203260000Y-132200000D01*
D12*
X204075000Y-129250000D02*
G75*
G02*
X203875000Y-129250000I-100000J0D01*
G01*
X203875000Y-129250000D02*
G75*
G02*
X204075000Y-129250000I100000J0D01*
G01*
D11*
X261260000Y-130500000D02*
X261415000Y-130500000D01*
X261260000Y-132200000D02*
X261260000Y-130500000D01*
X265085000Y-130500000D02*
X265240000Y-130500000D01*
X265240000Y-130500000D02*
X265240000Y-132200000D01*
X265240000Y-132200000D02*
X261260000Y-132200000D01*
D12*
X262075000Y-129250000D02*
G75*
G02*
X261875000Y-129250000I-100000J0D01*
G01*
X261875000Y-129250000D02*
G75*
G02*
X262075000Y-129250000I100000J0D01*
G01*
%LPC*%
D13*
X242700000Y-130500000D03*
X243550000Y-130500000D03*
X244400000Y-130500000D03*
X245250000Y-130500000D03*
X232975000Y-130500000D03*
X233825000Y-130500000D03*
X234675000Y-130500000D03*
X235525000Y-130500000D03*
X281225000Y-130500000D03*
X282075000Y-130500000D03*
X282925000Y-130500000D03*
X283775000Y-130500000D03*
X310250000Y-130500000D03*
X311100000Y-130500000D03*
X311950000Y-130500000D03*
X312800000Y-130500000D03*
X223225000Y-130500000D03*
X224075000Y-130500000D03*
X224925000Y-130500000D03*
X225775000Y-130500000D03*
X213700000Y-130500000D03*
X214550000Y-130500000D03*
X215400000Y-130500000D03*
X216250000Y-130500000D03*
X252250000Y-130500000D03*
X253100000Y-130500000D03*
X253950000Y-130500000D03*
X254800000Y-130500000D03*
X290975000Y-130500000D03*
X291825000Y-130500000D03*
X292675000Y-130500000D03*
X293525000Y-130500000D03*
D14*
X311250000Y-106750000D03*
D13*
X271725000Y-130500000D03*
X272575000Y-130500000D03*
X273425000Y-130500000D03*
X274275000Y-130500000D03*
X300725000Y-130500000D03*
X301575000Y-130500000D03*
X302425000Y-130500000D03*
X303275000Y-130500000D03*
X203975000Y-130500000D03*
X204825000Y-130500000D03*
X205675000Y-130500000D03*
X206525000Y-130500000D03*
D14*
X215250000Y-106750000D03*
D13*
X261975000Y-130500000D03*
X262825000Y-130500000D03*
X263675000Y-130500000D03*
X264525000Y-130500000D03*
%LPD*%
M02*
