%TF.GenerationSoftware,KiCad,Pcbnew,8.0.8*%
%TF.CreationDate,2025-01-22T20:08:17-06:00*%
%TF.ProjectId,touch-pads,746f7563-682d-4706-9164-732e6b696361,rev?*%
%TF.SameCoordinates,Original*%
%TF.FileFunction,Drillmap*%
%TF.FilePolarity,Positive*%
%FSLAX45Y45*%
G04 Gerber Fmt 4.5, Leading zero omitted, Abs format (unit mm)*
G04 Created by KiCad (PCBNEW 8.0.8) date 2025-01-22 20:08:17*
%MOMM*%
%LPD*%
G01*
G04 APERTURE LIST*
%ADD10C,0.050000*%
%ADD11C,0.200000*%
%ADD12C,0.100000*%
G04 APERTURE END LIST*
D10*
X32125000Y-10075000D02*
X32125000Y-12675000D01*
X20525000Y-10075000D02*
X20525000Y-12675000D01*
X20175000Y-12675000D02*
X20175000Y-13575000D01*
X32125000Y-13575000D02*
X31775000Y-13575000D01*
X32125000Y-13575000D02*
X32125000Y-26175000D01*
X20525000Y-13575000D02*
X20525000Y-26175000D01*
X32125000Y-26175000D02*
X20525000Y-26175000D01*
X20525000Y-13575000D02*
X20175000Y-13575000D01*
X20525000Y-10075000D02*
X32125000Y-10075000D01*
X31775000Y-12675000D02*
X31775000Y-13575000D01*
X20175000Y-12675000D02*
X20525000Y-12675000D01*
X31775000Y-12675000D02*
X32125000Y-12675000D01*
D11*
D12*
X20785000Y-12760000D02*
X20815000Y-12790000D01*
X20815000Y-12760000D02*
X20785000Y-12790000D01*
X20810000Y-13092500D02*
X20840000Y-13122500D01*
X20840000Y-13092500D02*
X20810000Y-13122500D01*
X20935000Y-12719853D02*
X20965000Y-12749853D01*
X20965000Y-12719853D02*
X20935000Y-12749853D01*
X21439927Y-12889926D02*
X21469927Y-12919926D01*
X21469927Y-12889926D02*
X21439927Y-12919926D01*
X21785000Y-13092500D02*
X21815000Y-13122500D01*
X21815000Y-13092500D02*
X21785000Y-13122500D01*
X22385000Y-12885000D02*
X22415000Y-12915000D01*
X22415000Y-12885000D02*
X22385000Y-12915000D01*
X22760000Y-13092500D02*
X22790000Y-13122500D01*
X22790000Y-13092500D02*
X22760000Y-13122500D01*
X23360000Y-12885000D02*
X23390000Y-12915000D01*
X23390000Y-12885000D02*
X23360000Y-12915000D01*
X23735000Y-13092500D02*
X23765000Y-13122500D01*
X23765000Y-13092500D02*
X23735000Y-13122500D01*
X24335000Y-12885000D02*
X24365000Y-12915000D01*
X24365000Y-12885000D02*
X24335000Y-12915000D01*
X24685000Y-13092500D02*
X24715000Y-13122500D01*
X24715000Y-13092500D02*
X24685000Y-13122500D01*
X25285000Y-12885000D02*
X25315000Y-12915000D01*
X25315000Y-12885000D02*
X25285000Y-12915000D01*
X25685000Y-13092500D02*
X25715000Y-13122500D01*
X25715000Y-13092500D02*
X25685000Y-13122500D01*
X26060000Y-23785000D02*
X26090000Y-23815000D01*
X26090000Y-23785000D02*
X26060000Y-23815000D01*
X26135000Y-24585000D02*
X26165000Y-24615000D01*
X26165000Y-24585000D02*
X26135000Y-24615000D01*
X26135000Y-25497500D02*
X26165000Y-25527500D01*
X26165000Y-25497500D02*
X26135000Y-25527500D01*
X26235000Y-23685000D02*
X26265000Y-23715000D01*
X26265000Y-23685000D02*
X26235000Y-23715000D01*
X26235000Y-24585000D02*
X26265000Y-24615000D01*
X26265000Y-24585000D02*
X26235000Y-24615000D01*
X26235000Y-25372500D02*
X26265000Y-25402500D01*
X26265000Y-25372500D02*
X26235000Y-25402500D01*
X26260000Y-12885000D02*
X26290000Y-12915000D01*
X26290000Y-12885000D02*
X26260000Y-12915000D01*
X26335000Y-23510000D02*
X26365000Y-23540000D01*
X26365000Y-23510000D02*
X26335000Y-23540000D01*
X26435000Y-23460000D02*
X26465000Y-23490000D01*
X26465000Y-23460000D02*
X26435000Y-23490000D01*
X26535000Y-23385000D02*
X26565000Y-23415000D01*
X26565000Y-23385000D02*
X26535000Y-23415000D01*
X26635000Y-13092500D02*
X26665000Y-13122500D01*
X26665000Y-13092500D02*
X26635000Y-13122500D01*
X26685000Y-24160000D02*
X26715000Y-24190000D01*
X26715000Y-24160000D02*
X26685000Y-24190000D01*
X26699223Y-23913446D02*
X26729223Y-23943446D01*
X26729223Y-23913446D02*
X26699223Y-23943446D01*
X26728750Y-24091250D02*
X26758750Y-24121250D01*
X26758750Y-24091250D02*
X26728750Y-24121250D01*
X26735000Y-23985000D02*
X26765000Y-24015000D01*
X26765000Y-23985000D02*
X26735000Y-24015000D01*
X26810000Y-24560000D02*
X26840000Y-24590000D01*
X26840000Y-24560000D02*
X26810000Y-24590000D01*
X26810000Y-24997500D02*
X26840000Y-25027500D01*
X26840000Y-24997500D02*
X26810000Y-25027500D01*
X27235000Y-12885000D02*
X27265000Y-12915000D01*
X27265000Y-12885000D02*
X27235000Y-12915000D01*
X27385000Y-24360000D02*
X27415000Y-24390000D01*
X27415000Y-24360000D02*
X27385000Y-24390000D01*
X27385000Y-25247500D02*
X27415000Y-25277500D01*
X27415000Y-25247500D02*
X27385000Y-25277500D01*
X27510000Y-24260000D02*
X27540000Y-24290000D01*
X27540000Y-24260000D02*
X27510000Y-24290000D01*
X27510000Y-25122500D02*
X27540000Y-25152500D01*
X27540000Y-25122500D02*
X27510000Y-25152500D01*
X27610000Y-13092500D02*
X27640000Y-13122500D01*
X27640000Y-13092500D02*
X27610000Y-13122500D01*
X27635000Y-24872500D02*
X27665000Y-24902500D01*
X27665000Y-24872500D02*
X27635000Y-24902500D01*
X28185000Y-12885000D02*
X28215000Y-12915000D01*
X28215000Y-12885000D02*
X28185000Y-12915000D01*
X28535000Y-13092500D02*
X28565000Y-13122500D01*
X28565000Y-13092500D02*
X28535000Y-13122500D01*
X29160000Y-12885000D02*
X29190000Y-12915000D01*
X29190000Y-12885000D02*
X29160000Y-12915000D01*
X29510000Y-13092500D02*
X29540000Y-13122500D01*
X29540000Y-13092500D02*
X29510000Y-13122500D01*
X30135000Y-12885000D02*
X30165000Y-12915000D01*
X30165000Y-12885000D02*
X30135000Y-12915000D01*
X30485000Y-13092500D02*
X30515000Y-13122500D01*
X30515000Y-13092500D02*
X30485000Y-13122500D01*
X31010000Y-12635000D02*
X31040000Y-12665000D01*
X31040000Y-12635000D02*
X31010000Y-12665000D01*
X31085000Y-12885000D02*
X31115000Y-12915000D01*
X31115000Y-12885000D02*
X31085000Y-12915000D01*
X31485000Y-13050000D02*
X31515000Y-13080000D01*
X31515000Y-13050000D02*
X31485000Y-13080000D01*
D11*
X20433277Y-26488984D02*
X20433277Y-26288984D01*
X20433277Y-26288984D02*
X20480896Y-26288984D01*
X20480896Y-26288984D02*
X20509467Y-26298508D01*
X20509467Y-26298508D02*
X20528515Y-26317555D01*
X20528515Y-26317555D02*
X20538039Y-26336603D01*
X20538039Y-26336603D02*
X20547563Y-26374698D01*
X20547563Y-26374698D02*
X20547563Y-26403269D01*
X20547563Y-26403269D02*
X20538039Y-26441365D01*
X20538039Y-26441365D02*
X20528515Y-26460412D01*
X20528515Y-26460412D02*
X20509467Y-26479460D01*
X20509467Y-26479460D02*
X20480896Y-26488984D01*
X20480896Y-26488984D02*
X20433277Y-26488984D01*
X20633277Y-26488984D02*
X20633277Y-26355650D01*
X20633277Y-26393746D02*
X20642801Y-26374698D01*
X20642801Y-26374698D02*
X20652324Y-26365174D01*
X20652324Y-26365174D02*
X20671372Y-26355650D01*
X20671372Y-26355650D02*
X20690420Y-26355650D01*
X20757086Y-26488984D02*
X20757086Y-26355650D01*
X20757086Y-26288984D02*
X20747563Y-26298508D01*
X20747563Y-26298508D02*
X20757086Y-26308031D01*
X20757086Y-26308031D02*
X20766610Y-26298508D01*
X20766610Y-26298508D02*
X20757086Y-26288984D01*
X20757086Y-26288984D02*
X20757086Y-26308031D01*
X20880896Y-26488984D02*
X20861848Y-26479460D01*
X20861848Y-26479460D02*
X20852324Y-26460412D01*
X20852324Y-26460412D02*
X20852324Y-26288984D01*
X20985658Y-26488984D02*
X20966610Y-26479460D01*
X20966610Y-26479460D02*
X20957086Y-26460412D01*
X20957086Y-26460412D02*
X20957086Y-26288984D01*
X21214229Y-26488984D02*
X21214229Y-26288984D01*
X21214229Y-26288984D02*
X21280896Y-26431841D01*
X21280896Y-26431841D02*
X21347563Y-26288984D01*
X21347563Y-26288984D02*
X21347563Y-26488984D01*
X21528515Y-26488984D02*
X21528515Y-26384222D01*
X21528515Y-26384222D02*
X21518991Y-26365174D01*
X21518991Y-26365174D02*
X21499944Y-26355650D01*
X21499944Y-26355650D02*
X21461848Y-26355650D01*
X21461848Y-26355650D02*
X21442801Y-26365174D01*
X21528515Y-26479460D02*
X21509467Y-26488984D01*
X21509467Y-26488984D02*
X21461848Y-26488984D01*
X21461848Y-26488984D02*
X21442801Y-26479460D01*
X21442801Y-26479460D02*
X21433277Y-26460412D01*
X21433277Y-26460412D02*
X21433277Y-26441365D01*
X21433277Y-26441365D02*
X21442801Y-26422317D01*
X21442801Y-26422317D02*
X21461848Y-26412793D01*
X21461848Y-26412793D02*
X21509467Y-26412793D01*
X21509467Y-26412793D02*
X21528515Y-26403269D01*
X21623753Y-26355650D02*
X21623753Y-26555650D01*
X21623753Y-26365174D02*
X21642801Y-26355650D01*
X21642801Y-26355650D02*
X21680896Y-26355650D01*
X21680896Y-26355650D02*
X21699944Y-26365174D01*
X21699944Y-26365174D02*
X21709467Y-26374698D01*
X21709467Y-26374698D02*
X21718991Y-26393746D01*
X21718991Y-26393746D02*
X21718991Y-26450888D01*
X21718991Y-26450888D02*
X21709467Y-26469936D01*
X21709467Y-26469936D02*
X21699944Y-26479460D01*
X21699944Y-26479460D02*
X21680896Y-26488984D01*
X21680896Y-26488984D02*
X21642801Y-26488984D01*
X21642801Y-26488984D02*
X21623753Y-26479460D01*
X21804705Y-26469936D02*
X21814229Y-26479460D01*
X21814229Y-26479460D02*
X21804705Y-26488984D01*
X21804705Y-26488984D02*
X21795182Y-26479460D01*
X21795182Y-26479460D02*
X21804705Y-26469936D01*
X21804705Y-26469936D02*
X21804705Y-26488984D01*
X21804705Y-26365174D02*
X21814229Y-26374698D01*
X21814229Y-26374698D02*
X21804705Y-26384222D01*
X21804705Y-26384222D02*
X21795182Y-26374698D01*
X21795182Y-26374698D02*
X21804705Y-26365174D01*
X21804705Y-26365174D02*
X21804705Y-26384222D01*
D12*
X20142500Y-26802500D02*
X20172500Y-26832500D01*
X20172500Y-26802500D02*
X20142500Y-26832500D01*
D11*
X20471372Y-26708984D02*
X20490420Y-26708984D01*
X20490420Y-26708984D02*
X20509467Y-26718508D01*
X20509467Y-26718508D02*
X20518991Y-26728031D01*
X20518991Y-26728031D02*
X20528515Y-26747079D01*
X20528515Y-26747079D02*
X20538039Y-26785174D01*
X20538039Y-26785174D02*
X20538039Y-26832793D01*
X20538039Y-26832793D02*
X20528515Y-26870888D01*
X20528515Y-26870888D02*
X20518991Y-26889936D01*
X20518991Y-26889936D02*
X20509467Y-26899460D01*
X20509467Y-26899460D02*
X20490420Y-26908984D01*
X20490420Y-26908984D02*
X20471372Y-26908984D01*
X20471372Y-26908984D02*
X20452324Y-26899460D01*
X20452324Y-26899460D02*
X20442801Y-26889936D01*
X20442801Y-26889936D02*
X20433277Y-26870888D01*
X20433277Y-26870888D02*
X20423753Y-26832793D01*
X20423753Y-26832793D02*
X20423753Y-26785174D01*
X20423753Y-26785174D02*
X20433277Y-26747079D01*
X20433277Y-26747079D02*
X20442801Y-26728031D01*
X20442801Y-26728031D02*
X20452324Y-26718508D01*
X20452324Y-26718508D02*
X20471372Y-26708984D01*
X20623753Y-26889936D02*
X20633277Y-26899460D01*
X20633277Y-26899460D02*
X20623753Y-26908984D01*
X20623753Y-26908984D02*
X20614229Y-26899460D01*
X20614229Y-26899460D02*
X20623753Y-26889936D01*
X20623753Y-26889936D02*
X20623753Y-26908984D01*
X20699944Y-26708984D02*
X20823753Y-26708984D01*
X20823753Y-26708984D02*
X20757086Y-26785174D01*
X20757086Y-26785174D02*
X20785658Y-26785174D01*
X20785658Y-26785174D02*
X20804705Y-26794698D01*
X20804705Y-26794698D02*
X20814229Y-26804222D01*
X20814229Y-26804222D02*
X20823753Y-26823269D01*
X20823753Y-26823269D02*
X20823753Y-26870888D01*
X20823753Y-26870888D02*
X20814229Y-26889936D01*
X20814229Y-26889936D02*
X20804705Y-26899460D01*
X20804705Y-26899460D02*
X20785658Y-26908984D01*
X20785658Y-26908984D02*
X20728515Y-26908984D01*
X20728515Y-26908984D02*
X20709467Y-26899460D01*
X20709467Y-26899460D02*
X20699944Y-26889936D01*
X20947563Y-26708984D02*
X20966610Y-26708984D01*
X20966610Y-26708984D02*
X20985658Y-26718508D01*
X20985658Y-26718508D02*
X20995182Y-26728031D01*
X20995182Y-26728031D02*
X21004705Y-26747079D01*
X21004705Y-26747079D02*
X21014229Y-26785174D01*
X21014229Y-26785174D02*
X21014229Y-26832793D01*
X21014229Y-26832793D02*
X21004705Y-26870888D01*
X21004705Y-26870888D02*
X20995182Y-26889936D01*
X20995182Y-26889936D02*
X20985658Y-26899460D01*
X20985658Y-26899460D02*
X20966610Y-26908984D01*
X20966610Y-26908984D02*
X20947563Y-26908984D01*
X20947563Y-26908984D02*
X20928515Y-26899460D01*
X20928515Y-26899460D02*
X20918991Y-26889936D01*
X20918991Y-26889936D02*
X20909467Y-26870888D01*
X20909467Y-26870888D02*
X20899944Y-26832793D01*
X20899944Y-26832793D02*
X20899944Y-26785174D01*
X20899944Y-26785174D02*
X20909467Y-26747079D01*
X20909467Y-26747079D02*
X20918991Y-26728031D01*
X20918991Y-26728031D02*
X20928515Y-26718508D01*
X20928515Y-26718508D02*
X20947563Y-26708984D01*
X21138039Y-26708984D02*
X21157086Y-26708984D01*
X21157086Y-26708984D02*
X21176134Y-26718508D01*
X21176134Y-26718508D02*
X21185658Y-26728031D01*
X21185658Y-26728031D02*
X21195182Y-26747079D01*
X21195182Y-26747079D02*
X21204705Y-26785174D01*
X21204705Y-26785174D02*
X21204705Y-26832793D01*
X21204705Y-26832793D02*
X21195182Y-26870888D01*
X21195182Y-26870888D02*
X21185658Y-26889936D01*
X21185658Y-26889936D02*
X21176134Y-26899460D01*
X21176134Y-26899460D02*
X21157086Y-26908984D01*
X21157086Y-26908984D02*
X21138039Y-26908984D01*
X21138039Y-26908984D02*
X21118991Y-26899460D01*
X21118991Y-26899460D02*
X21109467Y-26889936D01*
X21109467Y-26889936D02*
X21099944Y-26870888D01*
X21099944Y-26870888D02*
X21090420Y-26832793D01*
X21090420Y-26832793D02*
X21090420Y-26785174D01*
X21090420Y-26785174D02*
X21099944Y-26747079D01*
X21099944Y-26747079D02*
X21109467Y-26728031D01*
X21109467Y-26728031D02*
X21118991Y-26718508D01*
X21118991Y-26718508D02*
X21138039Y-26708984D01*
X21290420Y-26908984D02*
X21290420Y-26775650D01*
X21290420Y-26794698D02*
X21299944Y-26785174D01*
X21299944Y-26785174D02*
X21318991Y-26775650D01*
X21318991Y-26775650D02*
X21347563Y-26775650D01*
X21347563Y-26775650D02*
X21366610Y-26785174D01*
X21366610Y-26785174D02*
X21376134Y-26804222D01*
X21376134Y-26804222D02*
X21376134Y-26908984D01*
X21376134Y-26804222D02*
X21385658Y-26785174D01*
X21385658Y-26785174D02*
X21404705Y-26775650D01*
X21404705Y-26775650D02*
X21433277Y-26775650D01*
X21433277Y-26775650D02*
X21452325Y-26785174D01*
X21452325Y-26785174D02*
X21461848Y-26804222D01*
X21461848Y-26804222D02*
X21461848Y-26908984D01*
X21557086Y-26908984D02*
X21557086Y-26775650D01*
X21557086Y-26794698D02*
X21566610Y-26785174D01*
X21566610Y-26785174D02*
X21585658Y-26775650D01*
X21585658Y-26775650D02*
X21614229Y-26775650D01*
X21614229Y-26775650D02*
X21633277Y-26785174D01*
X21633277Y-26785174D02*
X21642801Y-26804222D01*
X21642801Y-26804222D02*
X21642801Y-26908984D01*
X21642801Y-26804222D02*
X21652325Y-26785174D01*
X21652325Y-26785174D02*
X21671372Y-26775650D01*
X21671372Y-26775650D02*
X21699944Y-26775650D01*
X21699944Y-26775650D02*
X21718991Y-26785174D01*
X21718991Y-26785174D02*
X21728515Y-26804222D01*
X21728515Y-26804222D02*
X21728515Y-26908984D01*
X22118991Y-26699460D02*
X21947563Y-26956603D01*
X22376134Y-26708984D02*
X22395182Y-26708984D01*
X22395182Y-26708984D02*
X22414229Y-26718508D01*
X22414229Y-26718508D02*
X22423753Y-26728031D01*
X22423753Y-26728031D02*
X22433277Y-26747079D01*
X22433277Y-26747079D02*
X22442801Y-26785174D01*
X22442801Y-26785174D02*
X22442801Y-26832793D01*
X22442801Y-26832793D02*
X22433277Y-26870888D01*
X22433277Y-26870888D02*
X22423753Y-26889936D01*
X22423753Y-26889936D02*
X22414229Y-26899460D01*
X22414229Y-26899460D02*
X22395182Y-26908984D01*
X22395182Y-26908984D02*
X22376134Y-26908984D01*
X22376134Y-26908984D02*
X22357087Y-26899460D01*
X22357087Y-26899460D02*
X22347563Y-26889936D01*
X22347563Y-26889936D02*
X22338039Y-26870888D01*
X22338039Y-26870888D02*
X22328515Y-26832793D01*
X22328515Y-26832793D02*
X22328515Y-26785174D01*
X22328515Y-26785174D02*
X22338039Y-26747079D01*
X22338039Y-26747079D02*
X22347563Y-26728031D01*
X22347563Y-26728031D02*
X22357087Y-26718508D01*
X22357087Y-26718508D02*
X22376134Y-26708984D01*
X22528515Y-26889936D02*
X22538039Y-26899460D01*
X22538039Y-26899460D02*
X22528515Y-26908984D01*
X22528515Y-26908984D02*
X22518991Y-26899460D01*
X22518991Y-26899460D02*
X22528515Y-26889936D01*
X22528515Y-26889936D02*
X22528515Y-26908984D01*
X22661848Y-26708984D02*
X22680896Y-26708984D01*
X22680896Y-26708984D02*
X22699944Y-26718508D01*
X22699944Y-26718508D02*
X22709467Y-26728031D01*
X22709467Y-26728031D02*
X22718991Y-26747079D01*
X22718991Y-26747079D02*
X22728515Y-26785174D01*
X22728515Y-26785174D02*
X22728515Y-26832793D01*
X22728515Y-26832793D02*
X22718991Y-26870888D01*
X22718991Y-26870888D02*
X22709467Y-26889936D01*
X22709467Y-26889936D02*
X22699944Y-26899460D01*
X22699944Y-26899460D02*
X22680896Y-26908984D01*
X22680896Y-26908984D02*
X22661848Y-26908984D01*
X22661848Y-26908984D02*
X22642801Y-26899460D01*
X22642801Y-26899460D02*
X22633277Y-26889936D01*
X22633277Y-26889936D02*
X22623753Y-26870888D01*
X22623753Y-26870888D02*
X22614229Y-26832793D01*
X22614229Y-26832793D02*
X22614229Y-26785174D01*
X22614229Y-26785174D02*
X22623753Y-26747079D01*
X22623753Y-26747079D02*
X22633277Y-26728031D01*
X22633277Y-26728031D02*
X22642801Y-26718508D01*
X22642801Y-26718508D02*
X22661848Y-26708984D01*
X22918991Y-26908984D02*
X22804706Y-26908984D01*
X22861848Y-26908984D02*
X22861848Y-26708984D01*
X22861848Y-26708984D02*
X22842801Y-26737555D01*
X22842801Y-26737555D02*
X22823753Y-26756603D01*
X22823753Y-26756603D02*
X22804706Y-26766127D01*
X23109467Y-26908984D02*
X22995182Y-26908984D01*
X23052325Y-26908984D02*
X23052325Y-26708984D01*
X23052325Y-26708984D02*
X23033277Y-26737555D01*
X23033277Y-26737555D02*
X23014229Y-26756603D01*
X23014229Y-26756603D02*
X22995182Y-26766127D01*
X23223753Y-26794698D02*
X23204706Y-26785174D01*
X23204706Y-26785174D02*
X23195182Y-26775650D01*
X23195182Y-26775650D02*
X23185658Y-26756603D01*
X23185658Y-26756603D02*
X23185658Y-26747079D01*
X23185658Y-26747079D02*
X23195182Y-26728031D01*
X23195182Y-26728031D02*
X23204706Y-26718508D01*
X23204706Y-26718508D02*
X23223753Y-26708984D01*
X23223753Y-26708984D02*
X23261848Y-26708984D01*
X23261848Y-26708984D02*
X23280896Y-26718508D01*
X23280896Y-26718508D02*
X23290420Y-26728031D01*
X23290420Y-26728031D02*
X23299944Y-26747079D01*
X23299944Y-26747079D02*
X23299944Y-26756603D01*
X23299944Y-26756603D02*
X23290420Y-26775650D01*
X23290420Y-26775650D02*
X23280896Y-26785174D01*
X23280896Y-26785174D02*
X23261848Y-26794698D01*
X23261848Y-26794698D02*
X23223753Y-26794698D01*
X23223753Y-26794698D02*
X23204706Y-26804222D01*
X23204706Y-26804222D02*
X23195182Y-26813746D01*
X23195182Y-26813746D02*
X23185658Y-26832793D01*
X23185658Y-26832793D02*
X23185658Y-26870888D01*
X23185658Y-26870888D02*
X23195182Y-26889936D01*
X23195182Y-26889936D02*
X23204706Y-26899460D01*
X23204706Y-26899460D02*
X23223753Y-26908984D01*
X23223753Y-26908984D02*
X23261848Y-26908984D01*
X23261848Y-26908984D02*
X23280896Y-26899460D01*
X23280896Y-26899460D02*
X23290420Y-26889936D01*
X23290420Y-26889936D02*
X23299944Y-26870888D01*
X23299944Y-26870888D02*
X23299944Y-26832793D01*
X23299944Y-26832793D02*
X23290420Y-26813746D01*
X23290420Y-26813746D02*
X23280896Y-26804222D01*
X23280896Y-26804222D02*
X23261848Y-26794698D01*
X23376134Y-26708984D02*
X23376134Y-26747079D01*
X23452325Y-26708984D02*
X23452325Y-26747079D01*
X23747563Y-26985174D02*
X23738039Y-26975650D01*
X23738039Y-26975650D02*
X23718991Y-26947079D01*
X23718991Y-26947079D02*
X23709468Y-26928031D01*
X23709468Y-26928031D02*
X23699944Y-26899460D01*
X23699944Y-26899460D02*
X23690420Y-26851841D01*
X23690420Y-26851841D02*
X23690420Y-26813746D01*
X23690420Y-26813746D02*
X23699944Y-26766127D01*
X23699944Y-26766127D02*
X23709468Y-26737555D01*
X23709468Y-26737555D02*
X23718991Y-26718508D01*
X23718991Y-26718508D02*
X23738039Y-26689936D01*
X23738039Y-26689936D02*
X23747563Y-26680412D01*
X23909468Y-26775650D02*
X23909468Y-26908984D01*
X23861848Y-26699460D02*
X23814229Y-26842317D01*
X23814229Y-26842317D02*
X23938039Y-26842317D01*
X24099944Y-26708984D02*
X24061848Y-26708984D01*
X24061848Y-26708984D02*
X24042801Y-26718508D01*
X24042801Y-26718508D02*
X24033277Y-26728031D01*
X24033277Y-26728031D02*
X24014229Y-26756603D01*
X24014229Y-26756603D02*
X24004706Y-26794698D01*
X24004706Y-26794698D02*
X24004706Y-26870888D01*
X24004706Y-26870888D02*
X24014229Y-26889936D01*
X24014229Y-26889936D02*
X24023753Y-26899460D01*
X24023753Y-26899460D02*
X24042801Y-26908984D01*
X24042801Y-26908984D02*
X24080896Y-26908984D01*
X24080896Y-26908984D02*
X24099944Y-26899460D01*
X24099944Y-26899460D02*
X24109468Y-26889936D01*
X24109468Y-26889936D02*
X24118991Y-26870888D01*
X24118991Y-26870888D02*
X24118991Y-26823269D01*
X24118991Y-26823269D02*
X24109468Y-26804222D01*
X24109468Y-26804222D02*
X24099944Y-26794698D01*
X24099944Y-26794698D02*
X24080896Y-26785174D01*
X24080896Y-26785174D02*
X24042801Y-26785174D01*
X24042801Y-26785174D02*
X24023753Y-26794698D01*
X24023753Y-26794698D02*
X24014229Y-26804222D01*
X24014229Y-26804222D02*
X24004706Y-26823269D01*
X24357087Y-26908984D02*
X24357087Y-26708984D01*
X24442801Y-26908984D02*
X24442801Y-26804222D01*
X24442801Y-26804222D02*
X24433277Y-26785174D01*
X24433277Y-26785174D02*
X24414230Y-26775650D01*
X24414230Y-26775650D02*
X24385658Y-26775650D01*
X24385658Y-26775650D02*
X24366610Y-26785174D01*
X24366610Y-26785174D02*
X24357087Y-26794698D01*
X24566610Y-26908984D02*
X24547563Y-26899460D01*
X24547563Y-26899460D02*
X24538039Y-26889936D01*
X24538039Y-26889936D02*
X24528515Y-26870888D01*
X24528515Y-26870888D02*
X24528515Y-26813746D01*
X24528515Y-26813746D02*
X24538039Y-26794698D01*
X24538039Y-26794698D02*
X24547563Y-26785174D01*
X24547563Y-26785174D02*
X24566610Y-26775650D01*
X24566610Y-26775650D02*
X24595182Y-26775650D01*
X24595182Y-26775650D02*
X24614230Y-26785174D01*
X24614230Y-26785174D02*
X24623753Y-26794698D01*
X24623753Y-26794698D02*
X24633277Y-26813746D01*
X24633277Y-26813746D02*
X24633277Y-26870888D01*
X24633277Y-26870888D02*
X24623753Y-26889936D01*
X24623753Y-26889936D02*
X24614230Y-26899460D01*
X24614230Y-26899460D02*
X24595182Y-26908984D01*
X24595182Y-26908984D02*
X24566610Y-26908984D01*
X24747563Y-26908984D02*
X24728515Y-26899460D01*
X24728515Y-26899460D02*
X24718991Y-26880412D01*
X24718991Y-26880412D02*
X24718991Y-26708984D01*
X24899944Y-26899460D02*
X24880896Y-26908984D01*
X24880896Y-26908984D02*
X24842801Y-26908984D01*
X24842801Y-26908984D02*
X24823753Y-26899460D01*
X24823753Y-26899460D02*
X24814230Y-26880412D01*
X24814230Y-26880412D02*
X24814230Y-26804222D01*
X24814230Y-26804222D02*
X24823753Y-26785174D01*
X24823753Y-26785174D02*
X24842801Y-26775650D01*
X24842801Y-26775650D02*
X24880896Y-26775650D01*
X24880896Y-26775650D02*
X24899944Y-26785174D01*
X24899944Y-26785174D02*
X24909468Y-26804222D01*
X24909468Y-26804222D02*
X24909468Y-26823269D01*
X24909468Y-26823269D02*
X24814230Y-26842317D01*
X24985658Y-26899460D02*
X25004706Y-26908984D01*
X25004706Y-26908984D02*
X25042801Y-26908984D01*
X25042801Y-26908984D02*
X25061849Y-26899460D01*
X25061849Y-26899460D02*
X25071372Y-26880412D01*
X25071372Y-26880412D02*
X25071372Y-26870888D01*
X25071372Y-26870888D02*
X25061849Y-26851841D01*
X25061849Y-26851841D02*
X25042801Y-26842317D01*
X25042801Y-26842317D02*
X25014230Y-26842317D01*
X25014230Y-26842317D02*
X24995182Y-26832793D01*
X24995182Y-26832793D02*
X24985658Y-26813746D01*
X24985658Y-26813746D02*
X24985658Y-26804222D01*
X24985658Y-26804222D02*
X24995182Y-26785174D01*
X24995182Y-26785174D02*
X25014230Y-26775650D01*
X25014230Y-26775650D02*
X25042801Y-26775650D01*
X25042801Y-26775650D02*
X25061849Y-26785174D01*
X25138039Y-26985174D02*
X25147563Y-26975650D01*
X25147563Y-26975650D02*
X25166611Y-26947079D01*
X25166611Y-26947079D02*
X25176134Y-26928031D01*
X25176134Y-26928031D02*
X25185658Y-26899460D01*
X25185658Y-26899460D02*
X25195182Y-26851841D01*
X25195182Y-26851841D02*
X25195182Y-26813746D01*
X25195182Y-26813746D02*
X25185658Y-26766127D01*
X25185658Y-26766127D02*
X25176134Y-26737555D01*
X25176134Y-26737555D02*
X25166611Y-26718508D01*
X25166611Y-26718508D02*
X25147563Y-26689936D01*
X25147563Y-26689936D02*
X25138039Y-26680412D01*
M02*
