G04 #@! TF.GenerationSoftware,KiCad,Pcbnew,9.0.2*
G04 #@! TF.CreationDate,2025-05-18T19:26:22-05:00*
G04 #@! TF.ProjectId,touch-pads,746f7563-682d-4706-9164-732e6b696361,rev?*
G04 #@! TF.SameCoordinates,Original*
G04 #@! TF.FileFunction,Soldermask,Top*
G04 #@! TF.FilePolarity,Negative*
%FSLAX46Y46*%
G04 Gerber Fmt 4.6, Leading zero omitted, Abs format (unit mm)*
G04 Created by KiCad (PCBNEW 9.0.2) date 2025-05-18 19:26:22*
%MOMM*%
%LPD*%
G01*
G04 APERTURE LIST*
G04 Aperture macros list*
%AMRoundRect*
0 Rectangle with rounded corners*
0 $1 Rounding radius*
0 $2 $3 $4 $5 $6 $7 $8 $9 X,Y pos of 4 corners*
0 Add a 4 corners polygon primitive as box body*
4,1,4,$2,$3,$4,$5,$6,$7,$8,$9,$2,$3,0*
0 Add four circle primitives for the rounded corners*
1,1,$1+$1,$2,$3*
1,1,$1+$1,$4,$5*
1,1,$1+$1,$6,$7*
1,1,$1+$1,$8,$9*
0 Add four rect primitives between the rounded corners*
20,1,$1+$1,$2,$3,$4,$5,0*
20,1,$1+$1,$4,$5,$6,$7,0*
20,1,$1+$1,$6,$7,$8,$9,0*
20,1,$1+$1,$8,$9,$2,$3,0*%
G04 Aperture macros list end*
%ADD10RoundRect,0.102000X0.210000X0.650000X-0.210000X0.650000X-0.210000X-0.650000X0.210000X-0.650000X0*%
%ADD11C,3.200000*%
%ADD12C,1.524000*%
G04 APERTURE END LIST*
D10*
X242700000Y-130500000D03*
X243550000Y-130500000D03*
X244400000Y-130500000D03*
X245250000Y-130500000D03*
X232975000Y-130500000D03*
X233825000Y-130500000D03*
X234675000Y-130500000D03*
X235525000Y-130500000D03*
X281225000Y-130500000D03*
X282075000Y-130500000D03*
X282925000Y-130500000D03*
X283775000Y-130500000D03*
X310250000Y-130500000D03*
X311100000Y-130500000D03*
X311950000Y-130500000D03*
X312800000Y-130500000D03*
X223225000Y-130500000D03*
X224075000Y-130500000D03*
X224925000Y-130500000D03*
X225775000Y-130500000D03*
X213700000Y-130500000D03*
X214550000Y-130500000D03*
X215400000Y-130500000D03*
X216250000Y-130500000D03*
X252250000Y-130500000D03*
X253100000Y-130500000D03*
X253950000Y-130500000D03*
X254800000Y-130500000D03*
X290975000Y-130500000D03*
X291825000Y-130500000D03*
X292675000Y-130500000D03*
X293525000Y-130500000D03*
D11*
X311250000Y-106750000D03*
D10*
X271725000Y-130500000D03*
X272575000Y-130500000D03*
X273425000Y-130500000D03*
X274275000Y-130500000D03*
X300725000Y-130500000D03*
X301575000Y-130500000D03*
X302425000Y-130500000D03*
X303275000Y-130500000D03*
X203975000Y-130500000D03*
X204825000Y-130500000D03*
X205675000Y-130500000D03*
X206525000Y-130500000D03*
D11*
X215250000Y-106750000D03*
D10*
X261975000Y-130500000D03*
X262825000Y-130500000D03*
X263675000Y-130500000D03*
X264525000Y-130500000D03*
D12*
X256900000Y-251250000D03*
X259440000Y-251250000D03*
X261980000Y-251250000D03*
X264520000Y-251250000D03*
X267060000Y-251250000D03*
X269600000Y-251250000D03*
M02*
