G04 #@! TF.GenerationSoftware,KiCad,Pcbnew,9.0.2*
G04 #@! TF.CreationDate,2025-05-28T22:13:06-05:00*
G04 #@! TF.ProjectId,mainboard,6d61696e-626f-4617-9264-2e6b69636164,rev?*
G04 #@! TF.SameCoordinates,Original*
G04 #@! TF.FileFunction,Soldermask,Top*
G04 #@! TF.FilePolarity,Negative*
%FSLAX46Y46*%
G04 Gerber Fmt 4.6, Leading zero omitted, Abs format (unit mm)*
G04 Created by KiCad (PCBNEW 9.0.2) date 2025-05-28 22:13:06*
%MOMM*%
%LPD*%
G01*
G04 APERTURE LIST*
G04 Aperture macros list*
%AMRoundRect*
0 Rectangle with rounded corners*
0 $1 Rounding radius*
0 $2 $3 $4 $5 $6 $7 $8 $9 X,Y pos of 4 corners*
0 Add a 4 corners polygon primitive as box body*
4,1,4,$2,$3,$4,$5,$6,$7,$8,$9,$2,$3,0*
0 Add four circle primitives for the rounded corners*
1,1,$1+$1,$2,$3*
1,1,$1+$1,$4,$5*
1,1,$1+$1,$6,$7*
1,1,$1+$1,$8,$9*
0 Add four rect primitives between the rounded corners*
20,1,$1+$1,$2,$3,$4,$5,0*
20,1,$1+$1,$4,$5,$6,$7,0*
20,1,$1+$1,$6,$7,$8,$9,0*
20,1,$1+$1,$8,$9,$2,$3,0*%
G04 Aperture macros list end*
%ADD10C,0.000000*%
%ADD11R,1.500000X0.900000*%
%ADD12R,0.900000X1.500000*%
%ADD13R,0.900000X0.900000*%
%ADD14RoundRect,0.375000X0.625000X0.375000X-0.625000X0.375000X-0.625000X-0.375000X0.625000X-0.375000X0*%
%ADD15RoundRect,0.500000X0.500000X1.400000X-0.500000X1.400000X-0.500000X-1.400000X0.500000X-1.400000X0*%
%ADD16RoundRect,0.250000X0.450000X-0.350000X0.450000X0.350000X-0.450000X0.350000X-0.450000X-0.350000X0*%
%ADD17RoundRect,0.250000X-0.337500X-0.475000X0.337500X-0.475000X0.337500X0.475000X-0.337500X0.475000X0*%
%ADD18RoundRect,0.150000X0.150000X0.200000X-0.150000X0.200000X-0.150000X-0.200000X0.150000X-0.200000X0*%
%ADD19RoundRect,0.250000X-0.475000X0.337500X-0.475000X-0.337500X0.475000X-0.337500X0.475000X0.337500X0*%
%ADD20C,2.200000*%
%ADD21C,0.650000*%
%ADD22RoundRect,0.150000X0.150000X0.425000X-0.150000X0.425000X-0.150000X-0.425000X0.150000X-0.425000X0*%
%ADD23RoundRect,0.075000X0.075000X0.500000X-0.075000X0.500000X-0.075000X-0.500000X0.075000X-0.500000X0*%
%ADD24O,1.000000X2.100000*%
%ADD25O,1.000000X1.800000*%
%ADD26RoundRect,0.150000X0.700000X-0.150000X0.700000X0.150000X-0.700000X0.150000X-0.700000X-0.150000X0*%
%ADD27RoundRect,0.250000X1.100000X-0.250000X1.100000X0.250000X-1.100000X0.250000X-1.100000X-0.250000X0*%
%ADD28RoundRect,0.150000X-0.150000X-0.200000X0.150000X-0.200000X0.150000X0.200000X-0.150000X0.200000X0*%
%ADD29RoundRect,0.250000X0.450000X-0.325000X0.450000X0.325000X-0.450000X0.325000X-0.450000X-0.325000X0*%
%ADD30RoundRect,0.250000X1.500000X-0.250000X1.500000X0.250000X-1.500000X0.250000X-1.500000X-0.250000X0*%
%ADD31RoundRect,0.250001X1.449999X-0.499999X1.449999X0.499999X-1.449999X0.499999X-1.449999X-0.499999X0*%
%ADD32RoundRect,0.250000X0.550000X-1.500000X0.550000X1.500000X-0.550000X1.500000X-0.550000X-1.500000X0*%
G04 APERTURE END LIST*
D10*
G36*
X108416572Y-106380614D02*
G01*
X108418434Y-106380951D01*
X108448303Y-106391978D01*
X108467581Y-106410948D01*
X108474554Y-106436160D01*
X108474557Y-106436656D01*
X108468595Y-106457626D01*
X108452494Y-106470131D01*
X108428931Y-106473021D01*
X108404472Y-106466828D01*
X108381616Y-106451517D01*
X108367708Y-106430061D01*
X108365189Y-106410648D01*
X108372726Y-106389952D01*
X108389604Y-106380080D01*
X108416572Y-106380614D01*
G37*
G36*
X109497238Y-104030687D02*
G01*
X109517109Y-104046445D01*
X109528608Y-104072121D01*
X109530383Y-104096301D01*
X109522807Y-104114447D01*
X109505249Y-104128614D01*
X109482360Y-104136711D01*
X109458790Y-104136644D01*
X109448582Y-104133090D01*
X109426308Y-104115513D01*
X109414844Y-104092993D01*
X109414453Y-104069195D01*
X109425393Y-104047786D01*
X109441627Y-104035275D01*
X109471307Y-104026433D01*
X109497238Y-104030687D01*
G37*
G36*
X109490744Y-103226047D02*
G01*
X109495934Y-103227671D01*
X109521415Y-103241376D01*
X109533530Y-103259927D01*
X109531922Y-103281205D01*
X109516233Y-103303092D01*
X109509635Y-103308754D01*
X109482917Y-103321809D01*
X109455631Y-103321178D01*
X109431017Y-103306988D01*
X109429580Y-103305593D01*
X109414463Y-103282806D01*
X109413531Y-103260594D01*
X109426294Y-103241061D01*
X109447643Y-103228092D01*
X109468583Y-103222758D01*
X109490744Y-103226047D01*
G37*
G36*
X109895323Y-102935606D02*
G01*
X109920533Y-102947443D01*
X109935120Y-102963757D01*
X109943553Y-102989121D01*
X109939693Y-103013107D01*
X109925976Y-103033486D01*
X109904841Y-103048029D01*
X109878723Y-103054507D01*
X109850059Y-103050691D01*
X109843041Y-103047982D01*
X109815444Y-103030693D01*
X109801190Y-103009739D01*
X109800754Y-102986485D01*
X109813503Y-102963596D01*
X109838006Y-102943677D01*
X109866547Y-102934349D01*
X109895323Y-102935606D01*
G37*
G36*
X110609017Y-106193162D02*
G01*
X110613633Y-106198402D01*
X110624346Y-106215008D01*
X110624584Y-106227763D01*
X110613287Y-106240557D01*
X110599400Y-106250639D01*
X110573602Y-106262090D01*
X110543309Y-106266950D01*
X110514312Y-106264925D01*
X110492849Y-106256062D01*
X110483908Y-106242044D01*
X110487733Y-106225186D01*
X110503208Y-106207657D01*
X110524854Y-106193766D01*
X110559407Y-106180723D01*
X110587250Y-106180511D01*
X110609017Y-106193162D01*
G37*
G36*
X108357079Y-106181359D02*
G01*
X108387958Y-106191102D01*
X108412861Y-106206281D01*
X108429779Y-106224634D01*
X108436702Y-106243901D01*
X108431620Y-106261819D01*
X108430213Y-106263645D01*
X108414943Y-106271706D01*
X108390349Y-106273512D01*
X108360556Y-106268880D01*
X108353883Y-106267030D01*
X108325298Y-106253883D01*
X108309467Y-106236190D01*
X108307061Y-106215342D01*
X108318349Y-106193221D01*
X108330944Y-106181951D01*
X108346630Y-106179821D01*
X108357079Y-106181359D01*
G37*
G36*
X110544177Y-106385418D02*
G01*
X110551982Y-106394946D01*
X110551441Y-106402413D01*
X110547927Y-106415954D01*
X110544679Y-106430118D01*
X110533888Y-106448571D01*
X110513738Y-106461020D01*
X110488928Y-106465944D01*
X110464157Y-106461821D01*
X110457203Y-106458457D01*
X110446173Y-106444808D01*
X110445913Y-106426318D01*
X110455971Y-106407721D01*
X110462671Y-106401398D01*
X110483729Y-106389211D01*
X110506620Y-106382512D01*
X110527913Y-106381261D01*
X110544177Y-106385418D01*
G37*
G36*
X111760802Y-104717829D02*
G01*
X111783725Y-104733574D01*
X111799637Y-104756293D01*
X111805852Y-104784256D01*
X111801770Y-104810051D01*
X111786195Y-104837867D01*
X111763064Y-104855482D01*
X111735613Y-104861578D01*
X111707080Y-104854835D01*
X111700634Y-104851286D01*
X111674680Y-104828876D01*
X111659233Y-104802018D01*
X111654901Y-104773817D01*
X111662289Y-104747377D01*
X111676865Y-104729730D01*
X111704684Y-104714178D01*
X111733559Y-104710788D01*
X111760802Y-104717829D01*
G37*
G36*
X107437790Y-104494828D02*
G01*
X107458812Y-104514898D01*
X107470373Y-104542231D01*
X107471251Y-104573969D01*
X107460557Y-104606619D01*
X107441801Y-104630143D01*
X107415653Y-104647105D01*
X107386763Y-104655464D01*
X107359780Y-104653181D01*
X107356898Y-104652098D01*
X107332075Y-104634516D01*
X107316205Y-104608388D01*
X107310265Y-104577582D01*
X107315231Y-104545967D01*
X107325114Y-104526306D01*
X107348996Y-104499466D01*
X107376135Y-104486100D01*
X107408527Y-104484878D01*
X107437790Y-104494828D01*
G37*
G36*
X107222029Y-104720810D02*
G01*
X107231819Y-104728739D01*
X107247265Y-104753472D01*
X107250586Y-104781719D01*
X107242579Y-104809875D01*
X107224044Y-104834337D01*
X107205582Y-104847153D01*
X107188889Y-104855075D01*
X107176576Y-104856971D01*
X107161876Y-104852831D01*
X107148213Y-104847062D01*
X107125771Y-104830002D01*
X107110431Y-104804190D01*
X107104798Y-104774923D01*
X107106218Y-104761597D01*
X107118323Y-104737337D01*
X107139940Y-104720086D01*
X107167084Y-104710887D01*
X107195775Y-104710781D01*
X107222029Y-104720810D01*
G37*
G36*
X107711927Y-105379442D02*
G01*
X107737897Y-105394850D01*
X107755313Y-105418932D01*
X107765370Y-105451001D01*
X107764246Y-105482843D01*
X107753840Y-105512352D01*
X107736050Y-105537421D01*
X107712776Y-105555945D01*
X107685915Y-105565818D01*
X107657366Y-105564932D01*
X107633343Y-105554251D01*
X107609467Y-105534314D01*
X107595003Y-105510214D01*
X107589281Y-105492618D01*
X107586056Y-105456231D01*
X107595304Y-105423696D01*
X107615142Y-105397553D01*
X107643687Y-105380345D01*
X107676734Y-105374586D01*
X107711927Y-105379442D01*
G37*
G36*
X109064692Y-102978400D02*
G01*
X109070015Y-102978970D01*
X109096367Y-102985074D01*
X109119843Y-102995862D01*
X109136442Y-103008991D01*
X109142201Y-103021232D01*
X109136003Y-103032966D01*
X109120567Y-103046001D01*
X109100628Y-103056902D01*
X109086872Y-103061353D01*
X109067177Y-103061109D01*
X109045440Y-103055085D01*
X109045156Y-103054961D01*
X109023699Y-103039823D01*
X109015882Y-103020229D01*
X109022193Y-102997602D01*
X109024297Y-102994175D01*
X109033823Y-102982491D01*
X109045411Y-102977857D01*
X109064692Y-102978400D01*
G37*
G36*
X111551387Y-104494426D02*
G01*
X111575329Y-104512283D01*
X111592686Y-104536644D01*
X111601735Y-104564865D01*
X111600752Y-104594300D01*
X111588013Y-104622305D01*
X111582239Y-104629382D01*
X111555184Y-104649624D01*
X111524579Y-104655764D01*
X111493857Y-104648340D01*
X111467769Y-104629166D01*
X111449122Y-104600403D01*
X111440534Y-104566408D01*
X111440254Y-104559193D01*
X111445455Y-104526610D01*
X111461631Y-104503612D01*
X111489540Y-104489143D01*
X111490644Y-104488807D01*
X111522585Y-104485719D01*
X111551387Y-104494426D01*
G37*
G36*
X108359690Y-105948274D02*
G01*
X108388980Y-105960637D01*
X108399700Y-105966789D01*
X108419260Y-105982427D01*
X108436963Y-106002941D01*
X108449126Y-106023478D01*
X108452397Y-106036171D01*
X108446135Y-106050679D01*
X108431177Y-106062773D01*
X108413398Y-106067729D01*
X108413167Y-106067725D01*
X108396734Y-106064188D01*
X108374989Y-106055727D01*
X108367586Y-106052120D01*
X108332227Y-106030055D01*
X108311309Y-106008042D01*
X108304921Y-105986257D01*
X108313152Y-105964878D01*
X108319746Y-105957280D01*
X108337204Y-105947225D01*
X108359690Y-105948274D01*
G37*
G36*
X109508309Y-103684644D02*
G01*
X109540839Y-103703744D01*
X109563190Y-103728859D01*
X109575883Y-103751397D01*
X109580197Y-103771049D01*
X109579026Y-103789282D01*
X109567794Y-103821670D01*
X109544801Y-103851217D01*
X109513276Y-103873967D01*
X109484384Y-103882579D01*
X109449874Y-103883755D01*
X109416727Y-103877744D01*
X109398920Y-103869919D01*
X109372754Y-103846038D01*
X109356911Y-103814868D01*
X109352121Y-103780258D01*
X109359118Y-103746057D01*
X109371278Y-103724607D01*
X109400514Y-103697028D01*
X109435118Y-103681219D01*
X109472059Y-103677113D01*
X109508309Y-103684644D01*
G37*
G36*
X111267896Y-105373173D02*
G01*
X111296430Y-105391440D01*
X111312747Y-105410827D01*
X111326605Y-105442892D01*
X111328690Y-105477089D01*
X111319970Y-105509762D01*
X111301415Y-105537253D01*
X111274313Y-105555774D01*
X111251697Y-105563900D01*
X111234372Y-105565001D01*
X111214633Y-105559040D01*
X111206143Y-105555458D01*
X111179291Y-105536121D01*
X111160981Y-105506583D01*
X111152815Y-105469667D01*
X111152540Y-105461161D01*
X111154495Y-105436039D01*
X111162510Y-105417123D01*
X111176493Y-105399843D01*
X111205551Y-105377183D01*
X111236811Y-105368356D01*
X111267896Y-105373173D01*
G37*
G36*
X107640845Y-105035300D02*
G01*
X107651644Y-105038447D01*
X107691709Y-105054090D01*
X107731193Y-105075774D01*
X107766434Y-105100963D01*
X107793774Y-105127122D01*
X107806995Y-105146050D01*
X107813490Y-105160753D01*
X107812025Y-105167866D01*
X107806126Y-105170992D01*
X107778701Y-105175158D01*
X107743009Y-105171021D01*
X107702639Y-105159061D01*
X107695015Y-105156059D01*
X107658984Y-105138198D01*
X107627926Y-105116950D01*
X107604926Y-105094789D01*
X107593110Y-105074339D01*
X107594627Y-105055200D01*
X107603388Y-105043257D01*
X107613704Y-105034551D01*
X107624338Y-105032084D01*
X107640845Y-105035300D01*
G37*
G36*
X110590205Y-105957097D02*
G01*
X110595985Y-105960703D01*
X110611063Y-105976923D01*
X110613129Y-105995564D01*
X110603285Y-106014747D01*
X110582634Y-106032593D01*
X110552277Y-106047220D01*
X110543597Y-106050064D01*
X110520660Y-106056810D01*
X110507131Y-106059604D01*
X110498264Y-106058667D01*
X110489313Y-106054220D01*
X110486712Y-106052706D01*
X110476003Y-106041977D01*
X110473802Y-106035053D01*
X110479711Y-106019359D01*
X110495064Y-106000256D01*
X110516297Y-105981297D01*
X110539845Y-105966038D01*
X110545945Y-105963099D01*
X110566223Y-105954880D01*
X110579056Y-105952971D01*
X110590205Y-105957097D01*
G37*
G36*
X110637564Y-103299570D02*
G01*
X110671118Y-103314173D01*
X110698772Y-103335704D01*
X110717581Y-103361866D01*
X110724601Y-103390361D01*
X110724602Y-103390560D01*
X110718589Y-103410047D01*
X110702595Y-103430577D01*
X110702505Y-103430664D01*
X110675453Y-103447259D01*
X110640741Y-103455196D01*
X110602942Y-103454066D01*
X110566628Y-103443460D01*
X110565438Y-103442912D01*
X110532095Y-103421549D01*
X110511626Y-103396401D01*
X110503476Y-103369791D01*
X110507088Y-103344041D01*
X110521906Y-103321473D01*
X110547374Y-103304411D01*
X110582935Y-103295177D01*
X110601055Y-103294191D01*
X110637564Y-103299570D01*
G37*
G36*
X108367345Y-103295012D02*
G01*
X108384767Y-103298323D01*
X108398045Y-103305947D01*
X108408729Y-103315756D01*
X108426446Y-103340967D01*
X108430293Y-103359454D01*
X108424079Y-103383140D01*
X108407718Y-103408072D01*
X108384634Y-103429701D01*
X108371031Y-103438174D01*
X108342893Y-103447927D01*
X108309106Y-103452886D01*
X108275936Y-103452635D01*
X108249647Y-103446755D01*
X108248652Y-103446318D01*
X108220640Y-103427410D01*
X108205446Y-103403094D01*
X108203693Y-103375405D01*
X108216002Y-103346380D01*
X108217466Y-103344267D01*
X108244320Y-103318946D01*
X108281869Y-103302173D01*
X108328289Y-103294686D01*
X108340489Y-103294353D01*
X108367345Y-103295012D01*
G37*
G36*
X109904797Y-103389452D02*
G01*
X109924451Y-103397943D01*
X109955442Y-103420160D01*
X109978224Y-103449065D01*
X109990718Y-103481143D01*
X109991278Y-103510747D01*
X109976891Y-103549667D01*
X109950494Y-103581507D01*
X109913520Y-103605266D01*
X109867401Y-103619943D01*
X109828616Y-103624354D01*
X109786924Y-103623431D01*
X109757849Y-103617059D01*
X109754516Y-103615582D01*
X109717676Y-103590792D01*
X109693274Y-103559518D01*
X109681810Y-103523735D01*
X109683785Y-103485413D01*
X109699696Y-103446525D01*
X109708384Y-103433506D01*
X109736357Y-103407277D01*
X109773494Y-103389180D01*
X109816286Y-103379792D01*
X109861224Y-103379690D01*
X109904797Y-103389452D01*
G37*
G36*
X110213406Y-103082570D02*
G01*
X110242533Y-103095330D01*
X110283172Y-103120362D01*
X110309966Y-103147374D01*
X110323798Y-103177460D01*
X110326256Y-103199121D01*
X110319376Y-103229130D01*
X110300360Y-103255813D01*
X110271643Y-103278164D01*
X110235658Y-103295178D01*
X110194840Y-103305851D01*
X110151625Y-103309176D01*
X110108446Y-103304149D01*
X110086921Y-103297938D01*
X110044834Y-103277355D01*
X110014006Y-103250857D01*
X109994705Y-103220422D01*
X109987199Y-103188027D01*
X109991754Y-103155649D01*
X110008638Y-103125265D01*
X110038118Y-103098853D01*
X110058448Y-103087376D01*
X110107973Y-103071550D01*
X110160011Y-103069964D01*
X110213406Y-103082570D01*
G37*
G36*
X109143624Y-103383014D02*
G01*
X109183281Y-103397399D01*
X109215814Y-103421180D01*
X109239484Y-103451854D01*
X109252552Y-103486920D01*
X109253280Y-103523874D01*
X109250343Y-103536643D01*
X109233517Y-103574700D01*
X109208546Y-103601677D01*
X109174287Y-103618308D01*
X109129595Y-103625325D01*
X109111577Y-103625650D01*
X109080394Y-103623738D01*
X109050466Y-103619299D01*
X109031683Y-103614380D01*
X108997326Y-103596335D01*
X108968441Y-103570840D01*
X108947249Y-103540937D01*
X108935973Y-103509669D01*
X108936027Y-103483392D01*
X108950732Y-103447539D01*
X108976974Y-103418006D01*
X109012491Y-103395885D01*
X109055023Y-103382270D01*
X109102306Y-103378255D01*
X109143624Y-103383014D01*
G37*
G36*
X111297505Y-105031728D02*
G01*
X111311107Y-105038281D01*
X111314547Y-105040910D01*
X111326807Y-105058352D01*
X111325488Y-105080197D01*
X111310536Y-105106955D01*
X111307315Y-105111170D01*
X111288275Y-105128991D01*
X111261618Y-105145610D01*
X111230240Y-105160171D01*
X111197032Y-105171822D01*
X111164889Y-105179709D01*
X111136705Y-105182978D01*
X111115373Y-105180774D01*
X111103787Y-105172246D01*
X111103395Y-105171336D01*
X111106040Y-105159740D01*
X111118263Y-105142132D01*
X111137542Y-105120938D01*
X111161351Y-105098587D01*
X111187168Y-105077504D01*
X111212469Y-105060119D01*
X111227591Y-105051880D01*
X111259083Y-105038107D01*
X111281276Y-105031530D01*
X111297505Y-105031728D01*
G37*
G36*
X111650082Y-104979513D02*
G01*
X111692346Y-105001495D01*
X111731786Y-105036665D01*
X111732775Y-105037782D01*
X111761531Y-105080723D01*
X111776618Y-105127646D01*
X111778055Y-105177025D01*
X111765859Y-105227331D01*
X111740048Y-105277036D01*
X111729799Y-105291410D01*
X111703325Y-105316110D01*
X111667310Y-105336259D01*
X111626657Y-105350128D01*
X111586272Y-105355992D01*
X111554574Y-105353092D01*
X111507228Y-105334287D01*
X111469253Y-105304460D01*
X111441401Y-105264563D01*
X111424421Y-105215547D01*
X111419750Y-105181978D01*
X111421773Y-105127393D01*
X111434934Y-105079564D01*
X111457490Y-105039297D01*
X111487693Y-105007394D01*
X111523799Y-104984660D01*
X111564063Y-104971899D01*
X111606739Y-104969916D01*
X111650082Y-104979513D01*
G37*
G36*
X108846503Y-103073404D02*
G01*
X108885063Y-103088064D01*
X108915945Y-103110208D01*
X108937088Y-103138676D01*
X108946431Y-103172307D01*
X108946703Y-103179408D01*
X108941170Y-103206450D01*
X108926796Y-103235866D01*
X108906914Y-103261697D01*
X108894695Y-103272321D01*
X108856895Y-103291761D01*
X108810953Y-103304005D01*
X108761972Y-103308359D01*
X108715056Y-103304127D01*
X108696315Y-103299346D01*
X108676684Y-103289597D01*
X108653454Y-103273228D01*
X108639141Y-103260788D01*
X108620814Y-103241869D01*
X108611251Y-103226750D01*
X108607715Y-103209990D01*
X108607348Y-103197575D01*
X108614211Y-103160016D01*
X108634407Y-103127847D01*
X108667345Y-103101575D01*
X108712437Y-103081707D01*
X108754587Y-103071180D01*
X108802324Y-103067389D01*
X108846503Y-103073404D01*
G37*
G36*
X107346924Y-104975331D02*
G01*
X107386402Y-104988537D01*
X107387538Y-104989128D01*
X107425851Y-105017300D01*
X107455403Y-105055343D01*
X107475380Y-105100699D01*
X107484973Y-105150813D01*
X107483369Y-105203125D01*
X107470930Y-105252011D01*
X107447641Y-105295040D01*
X107414881Y-105327836D01*
X107374603Y-105349499D01*
X107328762Y-105359133D01*
X107279311Y-105355839D01*
X107257304Y-105350187D01*
X107231080Y-105336525D01*
X107202746Y-105313242D01*
X107176035Y-105284263D01*
X107154677Y-105253518D01*
X107144257Y-105231197D01*
X107136147Y-105196967D01*
X107132421Y-105158321D01*
X107133271Y-105121172D01*
X107138887Y-105091434D01*
X107139680Y-105089197D01*
X107161564Y-105048184D01*
X107192847Y-105012479D01*
X107219900Y-104992345D01*
X107258112Y-104977342D01*
X107302307Y-104971635D01*
X107346924Y-104975331D01*
G37*
G36*
X110667159Y-103619498D02*
G01*
X110714184Y-103623650D01*
X110753077Y-103629854D01*
X110754718Y-103630213D01*
X110806062Y-103645344D01*
X110862605Y-103668166D01*
X110918924Y-103696127D01*
X110969599Y-103726676D01*
X110988906Y-103740428D01*
X111024460Y-103770679D01*
X111055474Y-103803371D01*
X111080347Y-103836186D01*
X111097480Y-103866808D01*
X111105273Y-103892921D01*
X111104250Y-103907481D01*
X111100133Y-103915482D01*
X111092647Y-103919525D01*
X111079685Y-103919314D01*
X111059137Y-103914557D01*
X111028894Y-103904959D01*
X110991004Y-103891712D01*
X110893745Y-103862351D01*
X110799438Y-103845236D01*
X110706058Y-103840430D01*
X110611576Y-103847998D01*
X110513967Y-103868005D01*
X110411203Y-103900513D01*
X110383589Y-103910944D01*
X110337377Y-103926916D01*
X110301521Y-103934537D01*
X110274371Y-103934031D01*
X110258016Y-103928047D01*
X110241760Y-103911716D01*
X110229174Y-103886724D01*
X110223141Y-103859144D01*
X110222974Y-103854243D01*
X110228044Y-103813100D01*
X110244224Y-103775504D01*
X110272971Y-103738360D01*
X110281704Y-103729367D01*
X110333791Y-103687100D01*
X110395090Y-103655033D01*
X110466148Y-103632983D01*
X110547510Y-103620770D01*
X110618238Y-103617956D01*
X110667159Y-103619498D01*
G37*
G36*
X108327011Y-103617527D02*
G01*
X108387628Y-103619750D01*
X108438875Y-103626455D01*
X108485741Y-103638729D01*
X108533213Y-103657660D01*
X108552018Y-103666614D01*
X108609929Y-103700388D01*
X108654128Y-103737720D01*
X108684389Y-103778333D01*
X108700485Y-103821954D01*
X108703253Y-103850302D01*
X108698274Y-103889811D01*
X108683650Y-103918766D01*
X108659847Y-103936610D01*
X108627331Y-103942786D01*
X108625791Y-103942782D01*
X108605637Y-103939613D01*
X108574441Y-103930848D01*
X108534494Y-103917202D01*
X108493267Y-103901462D01*
X108428571Y-103877184D01*
X108372146Y-103859815D01*
X108319675Y-103848572D01*
X108266837Y-103842669D01*
X108209316Y-103841324D01*
X108168399Y-103842478D01*
X108101099Y-103847561D01*
X108037918Y-103857433D01*
X107973811Y-103873165D01*
X107903730Y-103895824D01*
X107885488Y-103902402D01*
X107858438Y-103911379D01*
X107835982Y-103917123D01*
X107822261Y-103918613D01*
X107820936Y-103918313D01*
X107811397Y-103908141D01*
X107811999Y-103890298D01*
X107821498Y-103866495D01*
X107838647Y-103838444D01*
X107862203Y-103807856D01*
X107890918Y-103776443D01*
X107923548Y-103745916D01*
X107958848Y-103717986D01*
X107974562Y-103707186D01*
X108048146Y-103667708D01*
X108130977Y-103639615D01*
X108223120Y-103622890D01*
X108324642Y-103617517D01*
X108327011Y-103617527D01*
G37*
G36*
X109041627Y-102226247D02*
G01*
X109058795Y-102226917D01*
X109096859Y-102229118D01*
X109133577Y-102232114D01*
X109164004Y-102235456D01*
X109179088Y-102237797D01*
X109208167Y-102243453D01*
X109241955Y-102250044D01*
X109260238Y-102253619D01*
X109295888Y-102261923D01*
X109336631Y-102273413D01*
X109375968Y-102286124D01*
X109407402Y-102298089D01*
X109407784Y-102298254D01*
X109424385Y-102304529D01*
X109446840Y-102311968D01*
X109452047Y-102313568D01*
X109477161Y-102321822D01*
X109506436Y-102332358D01*
X109518443Y-102336955D01*
X109541173Y-102345972D01*
X109562578Y-102354736D01*
X109587161Y-102365132D01*
X109619427Y-102379045D01*
X109630947Y-102384043D01*
X109656470Y-102395687D01*
X109691957Y-102412660D01*
X109734923Y-102433703D01*
X109782879Y-102457553D01*
X109833339Y-102482951D01*
X109883817Y-102508634D01*
X109931825Y-102533343D01*
X109974876Y-102555817D01*
X110010483Y-102574794D01*
X110036160Y-102589014D01*
X110042230Y-102592567D01*
X110070029Y-102609284D01*
X110106420Y-102631234D01*
X110147386Y-102655989D01*
X110188907Y-102681124D01*
X110204531Y-102690595D01*
X110247005Y-102715937D01*
X110292405Y-102742330D01*
X110336073Y-102767108D01*
X110373354Y-102787605D01*
X110383137Y-102792806D01*
X110422603Y-102814790D01*
X110465802Y-102840832D01*
X110505967Y-102866782D01*
X110523306Y-102878788D01*
X110551194Y-102897869D01*
X110575868Y-102913157D01*
X110594217Y-102922815D01*
X110602017Y-102925260D01*
X110613377Y-102922176D01*
X110635161Y-102913654D01*
X110664604Y-102900866D01*
X110698938Y-102884984D01*
X110712677Y-102878389D01*
X110749961Y-102860396D01*
X110785053Y-102843621D01*
X110814586Y-102829662D01*
X110835192Y-102820118D01*
X110838977Y-102818422D01*
X110856104Y-102810560D01*
X110883473Y-102797642D01*
X110918757Y-102780798D01*
X110959628Y-102761155D01*
X111003758Y-102739845D01*
X111048820Y-102717994D01*
X111092485Y-102696733D01*
X111132426Y-102677190D01*
X111166316Y-102660494D01*
X111191826Y-102647775D01*
X111206630Y-102640161D01*
X111207563Y-102639651D01*
X111239739Y-102622740D01*
X111280422Y-102602675D01*
X111325476Y-102581368D01*
X111370764Y-102560732D01*
X111412148Y-102542680D01*
X111445491Y-102529126D01*
X111451292Y-102526954D01*
X111469976Y-102519917D01*
X111484490Y-102514289D01*
X111512701Y-102503831D01*
X111538032Y-102496392D01*
X111564377Y-102491321D01*
X111595633Y-102487967D01*
X111635694Y-102485680D01*
X111661680Y-102484683D01*
X111734177Y-102484404D01*
X111796700Y-102489783D01*
X111853310Y-102501926D01*
X111908068Y-102521937D01*
X111965034Y-102550924D01*
X112013667Y-102580510D01*
X112058592Y-102613044D01*
X112106846Y-102654319D01*
X112155073Y-102700949D01*
X112199921Y-102749541D01*
X112238036Y-102796708D01*
X112261057Y-102830531D01*
X112278946Y-102859868D01*
X112296716Y-102888974D01*
X112310736Y-102911903D01*
X112311588Y-102913294D01*
X112329231Y-102946192D01*
X112348920Y-102989633D01*
X112369226Y-103039819D01*
X112388724Y-103092952D01*
X112405987Y-103145233D01*
X112419589Y-103192865D01*
X112424770Y-103214666D01*
X112440613Y-103295953D01*
X112451110Y-103370350D01*
X112456985Y-103444415D01*
X112458961Y-103524478D01*
X112458178Y-103592778D01*
X112454962Y-103653699D01*
X112448728Y-103711328D01*
X112438890Y-103769754D01*
X112424863Y-103833064D01*
X112406061Y-103905346D01*
X112402594Y-103917933D01*
X112388141Y-103964169D01*
X112368930Y-104016953D01*
X112346243Y-104073457D01*
X112321361Y-104130854D01*
X112295568Y-104186316D01*
X112270144Y-104237015D01*
X112246373Y-104280123D01*
X112225536Y-104312812D01*
X112220463Y-104319634D01*
X112209795Y-104333980D01*
X112193597Y-104356503D01*
X112174714Y-104383232D01*
X112166921Y-104394391D01*
X112127740Y-104450705D01*
X112147314Y-104464582D01*
X112178723Y-104483065D01*
X112223110Y-104503443D01*
X112278930Y-104525010D01*
X112281237Y-104525836D01*
X112303550Y-104534004D01*
X112322675Y-104541307D01*
X112323656Y-104541698D01*
X112344093Y-104549867D01*
X112358698Y-104555708D01*
X112379873Y-104564172D01*
X112393741Y-104569710D01*
X112435354Y-104586573D01*
X112465513Y-104599637D01*
X112486592Y-104610245D01*
X112500967Y-104619740D01*
X112511012Y-104629467D01*
X112518964Y-104640546D01*
X112526776Y-104656168D01*
X112530057Y-104673914D01*
X112529526Y-104699037D01*
X112528565Y-104710631D01*
X112522288Y-104751915D01*
X112510789Y-104801959D01*
X112495327Y-104856268D01*
X112477158Y-104910345D01*
X112461530Y-104950392D01*
X112454226Y-104968449D01*
X112443941Y-104994706D01*
X112432873Y-105023550D01*
X112432640Y-105024165D01*
X112420286Y-105056196D01*
X112409902Y-105081068D01*
X112399270Y-105103295D01*
X112386172Y-105127392D01*
X112368391Y-105157872D01*
X112360157Y-105171711D01*
X112323323Y-105232924D01*
X112292325Y-105283080D01*
X112265895Y-105324053D01*
X112242763Y-105357717D01*
X112221660Y-105385946D01*
X112201316Y-105410613D01*
X112188861Y-105424575D01*
X112168274Y-105447504D01*
X112152442Y-105466035D01*
X112143365Y-105477774D01*
X112142050Y-105480643D01*
X112162493Y-105493446D01*
X112189756Y-105507409D01*
X112216677Y-105518983D01*
X112225907Y-105522199D01*
X112246189Y-105529185D01*
X112260559Y-105535276D01*
X112262794Y-105536576D01*
X112272327Y-105540677D01*
X112292984Y-105548133D01*
X112321801Y-105557914D01*
X112355815Y-105568989D01*
X112358698Y-105569909D01*
X112395728Y-105581879D01*
X112430468Y-105593430D01*
X112458941Y-105603218D01*
X112476735Y-105609732D01*
X112498967Y-105619407D01*
X112530266Y-105634231D01*
X112567581Y-105652634D01*
X112607860Y-105673044D01*
X112648051Y-105693891D01*
X112685103Y-105713604D01*
X112715964Y-105730613D01*
X112737583Y-105743347D01*
X112742200Y-105746365D01*
X112765306Y-105761187D01*
X112787796Y-105774039D01*
X112793996Y-105777161D01*
X112818121Y-105791356D01*
X112845925Y-105811820D01*
X112873709Y-105835344D01*
X112897773Y-105858716D01*
X112914417Y-105878726D01*
X112918030Y-105884788D01*
X112925440Y-105901514D01*
X112924931Y-105911865D01*
X112915346Y-105922581D01*
X112910863Y-105926578D01*
X112899928Y-105934867D01*
X112888624Y-105939062D01*
X112874819Y-105938544D01*
X112856384Y-105932696D01*
X112831188Y-105920899D01*
X112797100Y-105902536D01*
X112764449Y-105884100D01*
X112703328Y-105850049D01*
X112641532Y-105817039D01*
X112582848Y-105787029D01*
X112531064Y-105761981D01*
X112509933Y-105752367D01*
X112474237Y-105736937D01*
X112436438Y-105721219D01*
X112399813Y-105706511D01*
X112367639Y-105694110D01*
X112343194Y-105685314D01*
X112331719Y-105681818D01*
X112312383Y-105676568D01*
X112300366Y-105672609D01*
X112292892Y-105672332D01*
X112289408Y-105681074D01*
X112288614Y-105699434D01*
X112286462Y-105722461D01*
X112279237Y-105746234D01*
X112265785Y-105772766D01*
X112244953Y-105804071D01*
X112215588Y-105842163D01*
X112187242Y-105876431D01*
X112117075Y-105959613D01*
X112134605Y-105972922D01*
X112148189Y-105981458D01*
X112171638Y-105994441D01*
X112201482Y-106010003D01*
X112229596Y-106024017D01*
X112297766Y-106059142D01*
X112363694Y-106097240D01*
X112430594Y-106140364D01*
X112501683Y-106190568D01*
X112565263Y-106238386D01*
X112601596Y-106267858D01*
X112639940Y-106301601D01*
X112678195Y-106337497D01*
X112714263Y-106373428D01*
X112746044Y-106407277D01*
X112771440Y-106436926D01*
X112788353Y-106460257D01*
X112792364Y-106467540D01*
X112803163Y-106500503D01*
X112804061Y-106528695D01*
X112796976Y-106550685D01*
X112783829Y-106565039D01*
X112766540Y-106570325D01*
X112747029Y-106565113D01*
X112727217Y-106547969D01*
X112713343Y-106526477D01*
X112700040Y-106507568D01*
X112676798Y-106481701D01*
X112645588Y-106450631D01*
X112608380Y-106416114D01*
X112567143Y-106379904D01*
X112523846Y-106343755D01*
X112480461Y-106309421D01*
X112438957Y-106278659D01*
X112421405Y-106266439D01*
X112374059Y-106235466D01*
X112323469Y-106204500D01*
X112271659Y-106174587D01*
X112220651Y-106146772D01*
X112172467Y-106122101D01*
X112129130Y-106101619D01*
X112092661Y-106086373D01*
X112065084Y-106077408D01*
X112051991Y-106075429D01*
X112040255Y-106081824D01*
X112031925Y-106095716D01*
X112022084Y-106117263D01*
X112006600Y-106141713D01*
X111984312Y-106170486D01*
X111954058Y-106205004D01*
X111914676Y-106246690D01*
X111878511Y-106283452D01*
X111777049Y-106385317D01*
X111794914Y-106404492D01*
X111808131Y-106416810D01*
X111829920Y-106435146D01*
X111856967Y-106456771D01*
X111879175Y-106473859D01*
X111930812Y-106514683D01*
X111984722Y-106560467D01*
X112037986Y-106608505D01*
X112087686Y-106656093D01*
X112130901Y-106700523D01*
X112162877Y-106736836D01*
X112188790Y-106770816D01*
X112213184Y-106807116D01*
X112234783Y-106843320D01*
X112252316Y-106877014D01*
X112264507Y-106905784D01*
X112270084Y-106927215D01*
X112268813Y-106937641D01*
X112256007Y-106947903D01*
X112243266Y-106951826D01*
X112234880Y-106951858D01*
X112226211Y-106948767D01*
X112215511Y-106940989D01*
X112201028Y-106926962D01*
X112181013Y-106905121D01*
X112153717Y-106873902D01*
X112145737Y-106864665D01*
X112111282Y-106826300D01*
X112071825Y-106784915D01*
X112030381Y-106743469D01*
X111989966Y-106704921D01*
X111953595Y-106672231D01*
X111928808Y-106651796D01*
X111861671Y-106600530D01*
X111804315Y-106558188D01*
X111757052Y-106524989D01*
X111720196Y-106501155D01*
X111694199Y-106486967D01*
X111678708Y-106483843D01*
X111664424Y-106492355D01*
X111663438Y-106493276D01*
X111636774Y-106515253D01*
X111598710Y-106542007D01*
X111551345Y-106572361D01*
X111496780Y-106605137D01*
X111437112Y-106639158D01*
X111374441Y-106673245D01*
X111310867Y-106706221D01*
X111248489Y-106736908D01*
X111189406Y-106764129D01*
X111152512Y-106779922D01*
X111127260Y-106791029D01*
X111107026Y-106801197D01*
X111096164Y-106808235D01*
X111096129Y-106808270D01*
X111090675Y-106820035D01*
X111085705Y-106841059D01*
X111083373Y-106857421D01*
X111079650Y-106890311D01*
X111074899Y-106929310D01*
X111069497Y-106971631D01*
X111063825Y-107014487D01*
X111058258Y-107055088D01*
X111053177Y-107090649D01*
X111048959Y-107118380D01*
X111045983Y-107135495D01*
X111045157Y-107138970D01*
X111044086Y-107146773D01*
X111049655Y-107149820D01*
X111065066Y-107148988D01*
X111076422Y-107147533D01*
X111103728Y-107141593D01*
X111129347Y-107132531D01*
X111136137Y-107129166D01*
X111156887Y-107120028D01*
X111175437Y-107115684D01*
X111177081Y-107115626D01*
X111193469Y-107112721D01*
X111200933Y-107108519D01*
X111212924Y-107103249D01*
X111234588Y-107098748D01*
X111260845Y-107095587D01*
X111286612Y-107094340D01*
X111306811Y-107095579D01*
X111309928Y-107096224D01*
X111327971Y-107107144D01*
X111344355Y-107127543D01*
X111355722Y-107152240D01*
X111358948Y-107171827D01*
X111353403Y-107224624D01*
X111337753Y-107286148D01*
X111312610Y-107354985D01*
X111278587Y-107429720D01*
X111236295Y-107508939D01*
X111186347Y-107591226D01*
X111160565Y-107630315D01*
X111142165Y-107657645D01*
X111126345Y-107681373D01*
X111115312Y-107698181D01*
X111111937Y-107703511D01*
X111096853Y-107725100D01*
X111072072Y-107755849D01*
X111048977Y-107782830D01*
X111033248Y-107801123D01*
X111011342Y-107826897D01*
X110986526Y-107856296D01*
X110968581Y-107877675D01*
X110926322Y-107926125D01*
X110876964Y-107979327D01*
X110822704Y-108035172D01*
X110765736Y-108091552D01*
X110708253Y-108146358D01*
X110652451Y-108197480D01*
X110600524Y-108242812D01*
X110554668Y-108280243D01*
X110531477Y-108297674D01*
X110510286Y-108313829D01*
X110483374Y-108335575D01*
X110456001Y-108358647D01*
X110451670Y-108362403D01*
X110423832Y-108385715D01*
X110394567Y-108408713D01*
X110369633Y-108426892D01*
X110366831Y-108428786D01*
X110349005Y-108440722D01*
X110321606Y-108459131D01*
X110287288Y-108482229D01*
X110248703Y-108508228D01*
X110208506Y-108535344D01*
X110208219Y-108535537D01*
X110110980Y-108599245D01*
X110013776Y-108659240D01*
X109918292Y-108714632D01*
X109826209Y-108764531D01*
X109739211Y-108808045D01*
X109658980Y-108844285D01*
X109587199Y-108872359D01*
X109547157Y-108885427D01*
X109485609Y-108898137D01*
X109428702Y-108898046D01*
X109389340Y-108890148D01*
X109328326Y-108869981D01*
X109257956Y-108841960D01*
X109180526Y-108807280D01*
X109098332Y-108767136D01*
X109013670Y-108722726D01*
X108928837Y-108675245D01*
X108846128Y-108625889D01*
X108767840Y-108575853D01*
X108710630Y-108536633D01*
X108685765Y-108519283D01*
X108652734Y-108496660D01*
X108615701Y-108471597D01*
X108578827Y-108446925D01*
X108576022Y-108445061D01*
X108498868Y-108391752D01*
X108426576Y-108337103D01*
X108354423Y-108277399D01*
X108289021Y-108219305D01*
X108154163Y-108092251D01*
X108033259Y-107969836D01*
X107926272Y-107852015D01*
X107833165Y-107738742D01*
X107753901Y-107629971D01*
X107688443Y-107525657D01*
X107636754Y-107425753D01*
X107622098Y-107392275D01*
X107611572Y-107367790D01*
X107601270Y-107344995D01*
X107599544Y-107341344D01*
X107592204Y-107322029D01*
X107589282Y-107306738D01*
X107585617Y-107293090D01*
X107581905Y-107288993D01*
X107581691Y-107288408D01*
X107775529Y-107288408D01*
X107776261Y-107297282D01*
X107783716Y-107316322D01*
X107796681Y-107343255D01*
X107813946Y-107375807D01*
X107834298Y-107411706D01*
X107856527Y-107448678D01*
X107879419Y-107484449D01*
X107882390Y-107488907D01*
X107979299Y-107622452D01*
X108090464Y-107755236D01*
X108215389Y-107886774D01*
X108353578Y-108016579D01*
X108504535Y-108144164D01*
X108667764Y-108269044D01*
X108706941Y-108297298D01*
X108769030Y-108340783D01*
X108832727Y-108383918D01*
X108896174Y-108425547D01*
X108957509Y-108464515D01*
X109014874Y-108499665D01*
X109066408Y-108529841D01*
X109110251Y-108553888D01*
X109144544Y-108570650D01*
X109151590Y-108573640D01*
X109173894Y-108583377D01*
X109201746Y-108596422D01*
X109219663Y-108605226D01*
X109249351Y-108618632D01*
X109280929Y-108630609D01*
X109297124Y-108635651D01*
X109322023Y-108643359D01*
X109354234Y-108654610D01*
X109387482Y-108667197D01*
X109393029Y-108669408D01*
X109426398Y-108682446D01*
X109450223Y-108690031D01*
X109468525Y-108692516D01*
X109485322Y-108690259D01*
X109504634Y-108683614D01*
X109513387Y-108680046D01*
X109538532Y-108669847D01*
X109570300Y-108657259D01*
X109599593Y-108645865D01*
X109637218Y-108630178D01*
X109684067Y-108608787D01*
X109736638Y-108583451D01*
X109791429Y-108555931D01*
X109844937Y-108527987D01*
X109893660Y-108501380D01*
X109934095Y-108477869D01*
X109935260Y-108477159D01*
X109985256Y-108445606D01*
X110044135Y-108406760D01*
X110109218Y-108362503D01*
X110177829Y-108314715D01*
X110247294Y-108265274D01*
X110314934Y-108216062D01*
X110378074Y-108168958D01*
X110422161Y-108135136D01*
X110531587Y-108044870D01*
X110638466Y-107946906D01*
X110741077Y-107843210D01*
X110837702Y-107735745D01*
X110926620Y-107626477D01*
X111006111Y-107517370D01*
X111074458Y-107410389D01*
X111106842Y-107352852D01*
X111139700Y-107291298D01*
X111118441Y-107302265D01*
X111091741Y-107313625D01*
X111054673Y-107326162D01*
X111011437Y-107338693D01*
X110966231Y-107350036D01*
X110923252Y-107359010D01*
X110907217Y-107361735D01*
X110874852Y-107366639D01*
X110854853Y-107367969D01*
X110844948Y-107364017D01*
X110842867Y-107353074D01*
X110846340Y-107333433D01*
X110849749Y-107318502D01*
X110852383Y-107303178D01*
X110856037Y-107276681D01*
X110860459Y-107241370D01*
X110865394Y-107199606D01*
X110870588Y-107153751D01*
X110875787Y-107106164D01*
X110880739Y-107059207D01*
X110885189Y-107015241D01*
X110888883Y-106976626D01*
X110891568Y-106945722D01*
X110892990Y-106924892D01*
X110892949Y-106916607D01*
X110891011Y-106915321D01*
X110885760Y-106915716D01*
X110875897Y-106918260D01*
X110860124Y-106923417D01*
X110837141Y-106931653D01*
X110805652Y-106943434D01*
X110764357Y-106959225D01*
X110711959Y-106979492D01*
X110647157Y-107004700D01*
X110645842Y-107005213D01*
X110613706Y-107017222D01*
X110585453Y-107026843D01*
X110564616Y-107032926D01*
X110555872Y-107034476D01*
X110545614Y-107038625D01*
X110533681Y-107052309D01*
X110518582Y-107077385D01*
X110512935Y-107087936D01*
X110469181Y-107160459D01*
X110413784Y-107234871D01*
X110349158Y-107308582D01*
X110277717Y-107379004D01*
X110201877Y-107443549D01*
X110136855Y-107491116D01*
X110070466Y-107531498D01*
X109993714Y-107570637D01*
X109910982Y-107606691D01*
X109826648Y-107637820D01*
X109745094Y-107662179D01*
X109710341Y-107670470D01*
X109670467Y-107677098D01*
X109619548Y-107682521D01*
X109561254Y-107686616D01*
X109499254Y-107689261D01*
X109437219Y-107690334D01*
X109378817Y-107689711D01*
X109327719Y-107687272D01*
X109296958Y-107684250D01*
X109173306Y-107660877D01*
X109051347Y-107623694D01*
X108932983Y-107573642D01*
X108820116Y-107511662D01*
X108714651Y-107438698D01*
X108618489Y-107355692D01*
X108603528Y-107340975D01*
X108528399Y-107260816D01*
X108467106Y-107184877D01*
X108419745Y-107113277D01*
X108407401Y-107091026D01*
X108380820Y-107040605D01*
X108274610Y-107005155D01*
X108229453Y-106989650D01*
X108181798Y-106972561D01*
X108136888Y-106955810D01*
X108099967Y-106941322D01*
X108095244Y-106939380D01*
X108065315Y-106927203D01*
X108040944Y-106917718D01*
X108024999Y-106912016D01*
X108020236Y-106910910D01*
X108020338Y-106918571D01*
X108022726Y-106935838D01*
X108024482Y-106945954D01*
X108027414Y-106965051D01*
X108031379Y-106995277D01*
X108035941Y-107033083D01*
X108040662Y-107074919D01*
X108042657Y-107093494D01*
X108047906Y-107141033D01*
X108053804Y-107190961D01*
X108059705Y-107237993D01*
X108064960Y-107276849D01*
X108066018Y-107284129D01*
X108070327Y-107316002D01*
X108073096Y-107342136D01*
X108074030Y-107359310D01*
X108073368Y-107364351D01*
X108063522Y-107365616D01*
X108042458Y-107363326D01*
X108013098Y-107358148D01*
X107978362Y-107350749D01*
X107941170Y-107341795D01*
X107904444Y-107331953D01*
X107871104Y-107321889D01*
X107844071Y-107312269D01*
X107842685Y-107311709D01*
X107814596Y-107300661D01*
X107792080Y-107292566D01*
X107778276Y-107288513D01*
X107775529Y-107288408D01*
X107581691Y-107288408D01*
X107578635Y-107280043D01*
X107576108Y-107259941D01*
X107574698Y-107232283D01*
X107574528Y-107217980D01*
X107574743Y-107186248D01*
X107576124Y-107165245D01*
X107579775Y-107150945D01*
X107586797Y-107139324D01*
X107598294Y-107126356D01*
X107600181Y-107124355D01*
X107615322Y-107109386D01*
X107628359Y-107101306D01*
X107644795Y-107098074D01*
X107670131Y-107097649D01*
X107672109Y-107097668D01*
X107703955Y-107100132D01*
X107735487Y-107107686D01*
X107770748Y-107121624D01*
X107812767Y-107142698D01*
X107835752Y-107153141D01*
X107855187Y-107159982D01*
X107876996Y-107166237D01*
X107876996Y-107120275D01*
X107875986Y-107095011D01*
X107873357Y-107075609D01*
X107870299Y-107067305D01*
X107865666Y-107056335D01*
X107861354Y-107036233D01*
X107859622Y-107023410D01*
X107856235Y-106995187D01*
X107851700Y-106961303D01*
X107848409Y-106938571D01*
X107840645Y-106888499D01*
X107834141Y-106851198D01*
X107828248Y-106824807D01*
X107822319Y-106807467D01*
X107815706Y-106797318D01*
X107807764Y-106792499D01*
X107797843Y-106791151D01*
X107797098Y-106791139D01*
X107786303Y-106787709D01*
X107765017Y-106778347D01*
X107735650Y-106764276D01*
X107700612Y-106746719D01*
X107662316Y-106726900D01*
X107623172Y-106706044D01*
X107585590Y-106685373D01*
X107559773Y-106670667D01*
X107491852Y-106631118D01*
X107435482Y-106598001D01*
X107389353Y-106570517D01*
X107352155Y-106547868D01*
X107322577Y-106529254D01*
X107299311Y-106513875D01*
X107281045Y-106500934D01*
X107278945Y-106499369D01*
X107237878Y-106468608D01*
X107216238Y-106486364D01*
X107194172Y-106502474D01*
X107170124Y-106517367D01*
X107168777Y-106518104D01*
X107152330Y-106528692D01*
X107128358Y-106546211D01*
X107100492Y-106567939D01*
X107080249Y-106584498D01*
X107050512Y-106609305D01*
X107021032Y-106633813D01*
X106996004Y-106654540D01*
X106984345Y-106664143D01*
X106933934Y-106708141D01*
X106882498Y-106757726D01*
X106833951Y-106808883D01*
X106792206Y-106857595D01*
X106777935Y-106875968D01*
X106751263Y-106911031D01*
X106731526Y-106935375D01*
X106717294Y-106950433D01*
X106707138Y-106957640D01*
X106699629Y-106958430D01*
X106696954Y-106957214D01*
X106690212Y-106945281D01*
X106688751Y-106924301D01*
X106692084Y-106898809D01*
X106699721Y-106873337D01*
X106707696Y-106857421D01*
X106718677Y-106838930D01*
X106725322Y-106825629D01*
X106726217Y-106822526D01*
X106730981Y-106812292D01*
X106743980Y-106793275D01*
X106763483Y-106767574D01*
X106787761Y-106737286D01*
X106815084Y-106704511D01*
X106843722Y-106671346D01*
X106871945Y-106639891D01*
X106898022Y-106612243D01*
X106907213Y-106602970D01*
X106953384Y-106560505D01*
X107012307Y-106511944D01*
X107074889Y-106464064D01*
X107100760Y-106443449D01*
X107122332Y-106423700D01*
X107136505Y-106407779D01*
X107139962Y-106401892D01*
X107142261Y-106393356D01*
X107141096Y-106384883D01*
X107134950Y-106374363D01*
X107122302Y-106359687D01*
X107101635Y-106338743D01*
X107077965Y-106315726D01*
X107034145Y-106272265D01*
X106998215Y-106233616D01*
X106966490Y-106195440D01*
X106935285Y-106153400D01*
X106914505Y-106123381D01*
X106898371Y-106099681D01*
X106885708Y-106081212D01*
X106878546Y-106070930D01*
X106877702Y-106069798D01*
X106870771Y-106071967D01*
X106853416Y-106079352D01*
X106828473Y-106090706D01*
X106806577Y-106101038D01*
X106724084Y-106142890D01*
X106646922Y-106186711D01*
X106579461Y-106230010D01*
X106574905Y-106233173D01*
X106557270Y-106245277D01*
X106532790Y-106261815D01*
X106508240Y-106278224D01*
X106459027Y-106313730D01*
X106402852Y-106359214D01*
X106341730Y-106412944D01*
X106277674Y-106473189D01*
X106250723Y-106499676D01*
X106219083Y-106531061D01*
X106196131Y-106553252D01*
X106180124Y-106567487D01*
X106169319Y-106575008D01*
X106161974Y-106577055D01*
X106156345Y-106574867D01*
X106151371Y-106570367D01*
X106141210Y-106550110D01*
X106143660Y-106522379D01*
X106158680Y-106487295D01*
X106186232Y-106444980D01*
X106194870Y-106433548D01*
X106206557Y-106420420D01*
X106226650Y-106399808D01*
X106252617Y-106374132D01*
X106281924Y-106345811D01*
X106312040Y-106317263D01*
X106340433Y-106290908D01*
X106364569Y-106269165D01*
X106381917Y-106254452D01*
X106384264Y-106252630D01*
X106428896Y-106218565D01*
X106475451Y-106182555D01*
X106494820Y-106167413D01*
X106510557Y-106155872D01*
X106521140Y-106149587D01*
X106522561Y-106149202D01*
X106530549Y-106145275D01*
X106546711Y-106135072D01*
X106563839Y-106123381D01*
X106583895Y-106109742D01*
X106598898Y-106100384D01*
X106604854Y-106097561D01*
X106612852Y-106093712D01*
X106628756Y-106083838D01*
X106641301Y-106075429D01*
X106660901Y-106062903D01*
X106676134Y-106054881D01*
X106681361Y-106053297D01*
X106688947Y-106049026D01*
X106689253Y-106047402D01*
X106695465Y-106041272D01*
X106710756Y-106033787D01*
X106714180Y-106032493D01*
X106735894Y-106022468D01*
X106758983Y-106008502D01*
X106779756Y-105993284D01*
X106794523Y-105979503D01*
X106799628Y-105970256D01*
X106795271Y-105961476D01*
X106783438Y-105943256D01*
X106765671Y-105917833D01*
X106743516Y-105887442D01*
X106729599Y-105868865D01*
X106700042Y-105828870D01*
X106679278Y-105798486D01*
X106666386Y-105776212D01*
X106660449Y-105760550D01*
X106659800Y-105755041D01*
X106657200Y-105733864D01*
X106650792Y-105707053D01*
X106642540Y-105682552D01*
X106640989Y-105678953D01*
X106634091Y-105680081D01*
X106616427Y-105684647D01*
X106591338Y-105691767D01*
X106581721Y-105694610D01*
X106449323Y-105741021D01*
X106316015Y-105801331D01*
X106183238Y-105874873D01*
X106158962Y-105889805D01*
X106126672Y-105909659D01*
X106097865Y-105926786D01*
X106075353Y-105939554D01*
X106061949Y-105946332D01*
X106060684Y-105946802D01*
X106044452Y-105945368D01*
X106028364Y-105935075D01*
X106018659Y-105920480D01*
X106017920Y-105915570D01*
X106023654Y-105898846D01*
X106039250Y-105876337D01*
X106062295Y-105850452D01*
X106090378Y-105823596D01*
X106121089Y-105798178D01*
X106152016Y-105776602D01*
X106164480Y-105769271D01*
X106182131Y-105758952D01*
X106193504Y-105751184D01*
X106194975Y-105749779D01*
X106203406Y-105743989D01*
X106222123Y-105733475D01*
X106248081Y-105719756D01*
X106278233Y-105704355D01*
X106309535Y-105688792D01*
X106338941Y-105674588D01*
X106363406Y-105663265D01*
X106379884Y-105656342D01*
X106384892Y-105654923D01*
X106397244Y-105651880D01*
X106416658Y-105644213D01*
X106425413Y-105640169D01*
X106445938Y-105631226D01*
X106461862Y-105625985D01*
X106465732Y-105625414D01*
X106480411Y-105622222D01*
X106488322Y-105618898D01*
X106509685Y-105608806D01*
X106534677Y-105598746D01*
X106567198Y-105587229D01*
X106597037Y-105577336D01*
X106626584Y-105567531D01*
X106652433Y-105558638D01*
X106670004Y-105552243D01*
X106672654Y-105551184D01*
X106693709Y-105542640D01*
X106705852Y-105537874D01*
X106738798Y-105523581D01*
X106760623Y-105509780D01*
X106774723Y-105494309D01*
X106775074Y-105493778D01*
X106781843Y-105481875D01*
X106781508Y-105472891D01*
X106772562Y-105461959D01*
X106762212Y-105452236D01*
X106728502Y-105417277D01*
X106690971Y-105371709D01*
X106651537Y-105318491D01*
X106612118Y-105260582D01*
X106574632Y-105200942D01*
X106540997Y-105142530D01*
X106513130Y-105088304D01*
X106492951Y-105041225D01*
X106489540Y-105031543D01*
X106482020Y-105011410D01*
X106475314Y-104997248D01*
X106473806Y-104995025D01*
X106468969Y-104982408D01*
X106467935Y-104972278D01*
X106465865Y-104957377D01*
X106463039Y-104951645D01*
X106454303Y-104937105D01*
X106444235Y-104911235D01*
X106433687Y-104877297D01*
X106423511Y-104838553D01*
X106414558Y-104798265D01*
X106407679Y-104759695D01*
X106406381Y-104748670D01*
X106575946Y-104748670D01*
X106579963Y-104767730D01*
X106587663Y-104792737D01*
X106588855Y-104796123D01*
X106600715Y-104830803D01*
X106613507Y-104870456D01*
X106623253Y-104902440D01*
X106648425Y-104973710D01*
X106683543Y-105051398D01*
X106726963Y-105132793D01*
X106777035Y-105215188D01*
X106832115Y-105295873D01*
X106890555Y-105372139D01*
X106950709Y-105441277D01*
X106950908Y-105441490D01*
X106986788Y-105479849D01*
X107074520Y-105485945D01*
X107151714Y-105492737D01*
X107214427Y-105501401D01*
X107262821Y-105511981D01*
X107297056Y-105524524D01*
X107317293Y-105539072D01*
X107323700Y-105555070D01*
X107320764Y-105564343D01*
X107310822Y-105571696D01*
X107292177Y-105577567D01*
X107263131Y-105582398D01*
X107221983Y-105586625D01*
X107192884Y-105588904D01*
X107100037Y-105596736D01*
X107020632Y-105605849D01*
X106953397Y-105616447D01*
X106897059Y-105628734D01*
X106850345Y-105642913D01*
X106846021Y-105644492D01*
X106827252Y-105653341D01*
X106817313Y-105664171D01*
X106816243Y-105679241D01*
X106824078Y-105700810D01*
X106840857Y-105731137D01*
X106847668Y-105742325D01*
X106865374Y-105769387D01*
X106886326Y-105798870D01*
X106908676Y-105828479D01*
X106930576Y-105855921D01*
X106950177Y-105878902D01*
X106965631Y-105895129D01*
X106975090Y-105902309D01*
X106976576Y-105902304D01*
X106986866Y-105898584D01*
X107008757Y-105892290D01*
X107039462Y-105884119D01*
X107076195Y-105874766D01*
X107116170Y-105864931D01*
X107156600Y-105855309D01*
X107194699Y-105846597D01*
X107227679Y-105839493D01*
X107227795Y-105839469D01*
X107307339Y-105824720D01*
X107386747Y-105813493D01*
X107470251Y-105805328D01*
X107562080Y-105799766D01*
X107611414Y-105797851D01*
X107689191Y-105796263D01*
X107753262Y-105797187D01*
X107804487Y-105800794D01*
X107843728Y-105807251D01*
X107871846Y-105816730D01*
X107889702Y-105829399D01*
X107898157Y-105845428D01*
X107899128Y-105854463D01*
X107895672Y-105872493D01*
X107882672Y-105882772D01*
X107879263Y-105884160D01*
X107866284Y-105886813D01*
X107840992Y-105890040D01*
X107805803Y-105893606D01*
X107763136Y-105897276D01*
X107715409Y-105900814D01*
X107692987Y-105902296D01*
X107599687Y-105908568D01*
X107519037Y-105914845D01*
X107448935Y-105921464D01*
X107387278Y-105928761D01*
X107331965Y-105937070D01*
X107280894Y-105946729D01*
X107231964Y-105958072D01*
X107183073Y-105971435D01*
X107132119Y-105987155D01*
X107104082Y-105996381D01*
X107080987Y-106005056D01*
X107065098Y-106012846D01*
X107059880Y-106018010D01*
X107067013Y-106029532D01*
X107082527Y-106049124D01*
X107104313Y-106074482D01*
X107130262Y-106103301D01*
X107158264Y-106133276D01*
X107186212Y-106162103D01*
X107211996Y-106187476D01*
X107230551Y-106204531D01*
X107257059Y-106227863D01*
X107281155Y-106249298D01*
X107299555Y-106265905D01*
X107306958Y-106272771D01*
X107319201Y-106283474D01*
X107329790Y-106287906D01*
X107342883Y-106285895D01*
X107362641Y-106277271D01*
X107377430Y-106269861D01*
X107421975Y-106249927D01*
X107477343Y-106229308D01*
X107540627Y-106208741D01*
X107608920Y-106188961D01*
X107679316Y-106170704D01*
X107748907Y-106154704D01*
X107814787Y-106141699D01*
X107874049Y-106132423D01*
X107923785Y-106127612D01*
X107941548Y-106127099D01*
X107966683Y-106127352D01*
X107980471Y-106129214D01*
X107986319Y-106134281D01*
X107987635Y-106144151D01*
X107987656Y-106148699D01*
X107982033Y-106169962D01*
X107967368Y-106184359D01*
X107953261Y-106191376D01*
X107926971Y-106201812D01*
X107890491Y-106214993D01*
X107845813Y-106230244D01*
X107794930Y-106246893D01*
X107739835Y-106264267D01*
X107682521Y-106281690D01*
X107657752Y-106289012D01*
X107636655Y-106296012D01*
X107607836Y-106306679D01*
X107574251Y-106319788D01*
X107538856Y-106334119D01*
X107504607Y-106348450D01*
X107474458Y-106361557D01*
X107451367Y-106372221D01*
X107438287Y-106379217D01*
X107436822Y-106380353D01*
X107440822Y-106385982D01*
X107455983Y-106397939D01*
X107480669Y-106415209D01*
X107513243Y-106436776D01*
X107552070Y-106461625D01*
X107595514Y-106488739D01*
X107641939Y-106517103D01*
X107689708Y-106545700D01*
X107737186Y-106573516D01*
X107782738Y-106599533D01*
X107824726Y-106622736D01*
X107842166Y-106632064D01*
X107879233Y-106651004D01*
X107922646Y-106672132D01*
X107970601Y-106694672D01*
X108021299Y-106717849D01*
X108072938Y-106740888D01*
X108123717Y-106763011D01*
X108171835Y-106783445D01*
X108215491Y-106801412D01*
X108252884Y-106816138D01*
X108282213Y-106826846D01*
X108301677Y-106832762D01*
X108309352Y-106833276D01*
X108308746Y-106825045D01*
X108303999Y-106805779D01*
X108296031Y-106778303D01*
X108287680Y-106751567D01*
X108467179Y-106751567D01*
X108467179Y-106768194D01*
X108470886Y-106789253D01*
X108481190Y-106820323D01*
X108496871Y-106858905D01*
X108516708Y-106902499D01*
X108539479Y-106948603D01*
X108563963Y-106994719D01*
X108588939Y-107038345D01*
X108613184Y-107076981D01*
X108629224Y-107099929D01*
X108653362Y-107129820D01*
X108684035Y-107164025D01*
X108716485Y-107197368D01*
X108734758Y-107214741D01*
X108827766Y-107292642D01*
X108922947Y-107357474D01*
X109022404Y-107410239D01*
X109128238Y-107451937D01*
X109242554Y-107483568D01*
X109337699Y-107501697D01*
X109370095Y-107504848D01*
X109413255Y-107506248D01*
X109463308Y-107506017D01*
X109516384Y-107504275D01*
X109568612Y-107501143D01*
X109616121Y-107496743D01*
X109650848Y-107491934D01*
X109716551Y-107479022D01*
X109775049Y-107463403D01*
X109831267Y-107443367D01*
X109890130Y-107417204D01*
X109942637Y-107390606D01*
X110008081Y-107354700D01*
X110062894Y-107321068D01*
X110110387Y-107287164D01*
X110153874Y-107250441D01*
X110196667Y-107208354D01*
X110236367Y-107164877D01*
X110283683Y-107106477D01*
X110328269Y-107042627D01*
X110368481Y-106976278D01*
X110402674Y-106910381D01*
X110429205Y-106847884D01*
X110446429Y-106791738D01*
X110447817Y-106785453D01*
X110452859Y-106761438D01*
X110409845Y-106786958D01*
X110368260Y-106808724D01*
X110316653Y-106831242D01*
X110259543Y-106852768D01*
X110201448Y-106871553D01*
X110165592Y-106881393D01*
X110136684Y-106888007D01*
X110108898Y-106892579D01*
X110078463Y-106895438D01*
X110041608Y-106896914D01*
X109994564Y-106897335D01*
X109983212Y-106897321D01*
X109881731Y-106893123D01*
X109789375Y-106880448D01*
X109702603Y-106858382D01*
X109617871Y-106826010D01*
X109531637Y-106782420D01*
X109526387Y-106779455D01*
X109466802Y-106745627D01*
X109390646Y-106783520D01*
X109316198Y-106819044D01*
X109250390Y-106846769D01*
X109189966Y-106867620D01*
X109131670Y-106882523D01*
X109072243Y-106892405D01*
X109008430Y-106898190D01*
X108982751Y-106899491D01*
X108904632Y-106900463D01*
X108834900Y-106895952D01*
X108768012Y-106885337D01*
X108698422Y-106867998D01*
X108696574Y-106867466D01*
X108660538Y-106855494D01*
X108620316Y-106839619D01*
X108579386Y-106821482D01*
X108541224Y-106802725D01*
X108509308Y-106784989D01*
X108487116Y-106769916D01*
X108483778Y-106767023D01*
X108467179Y-106751567D01*
X108287680Y-106751567D01*
X108285767Y-106745441D01*
X108274126Y-106710015D01*
X108262032Y-106674851D01*
X108250407Y-106642772D01*
X108240172Y-106616602D01*
X108234134Y-106602905D01*
X108221931Y-106580476D01*
X108203952Y-106550966D01*
X108183176Y-106519167D01*
X108172250Y-106503311D01*
X108145681Y-106463195D01*
X108124299Y-106424718D01*
X108106737Y-106384417D01*
X108091627Y-106338832D01*
X108077600Y-106284499D01*
X108067410Y-106238055D01*
X108058396Y-106193394D01*
X108052401Y-106158741D01*
X108049013Y-106129755D01*
X108047822Y-106102092D01*
X108048419Y-106071410D01*
X108049526Y-106048628D01*
X108054284Y-105998484D01*
X108062992Y-105941039D01*
X108074668Y-105880997D01*
X108088334Y-105823063D01*
X108103008Y-105771939D01*
X108113148Y-105743253D01*
X108121314Y-105721806D01*
X108126642Y-105706410D01*
X108127824Y-105701730D01*
X108121042Y-105700365D01*
X108102932Y-105700394D01*
X108076851Y-105701767D01*
X108064853Y-105702687D01*
X108028044Y-105704741D01*
X108003447Y-105703025D01*
X107988799Y-105696640D01*
X107981839Y-105684687D01*
X107980278Y-105669031D01*
X107987132Y-105644213D01*
X108005854Y-105619431D01*
X108033681Y-105596645D01*
X108067853Y-105577820D01*
X108105610Y-105564917D01*
X108133084Y-105560426D01*
X108178063Y-105562560D01*
X108224359Y-105574671D01*
X108265304Y-105594851D01*
X108273526Y-105600631D01*
X108290950Y-105615651D01*
X108296262Y-105627550D01*
X108290189Y-105640481D01*
X108282105Y-105649699D01*
X108263477Y-105674274D01*
X108247008Y-105707147D01*
X108231652Y-105750701D01*
X108220944Y-105789056D01*
X108197622Y-105901190D01*
X108187349Y-106007387D01*
X108190208Y-106108747D01*
X108206281Y-106206372D01*
X108235652Y-106301363D01*
X108264144Y-106366832D01*
X108310143Y-106444664D01*
X108368834Y-106516249D01*
X108439218Y-106580837D01*
X108520294Y-106637675D01*
X108611062Y-106686015D01*
X108710521Y-106725105D01*
X108762271Y-106740695D01*
X108792134Y-106748101D01*
X108820154Y-106753039D01*
X108850633Y-106755941D01*
X108887871Y-106757242D01*
X108928260Y-106757411D01*
X108997045Y-106755146D01*
X109057385Y-106748158D01*
X109115140Y-106735329D01*
X109176174Y-106715539D01*
X109204908Y-106704603D01*
X109243871Y-106687512D01*
X109283459Y-106667109D01*
X109321400Y-106644913D01*
X109355420Y-106622443D01*
X109383247Y-106601218D01*
X109402610Y-106582757D01*
X109411235Y-106568580D01*
X109411472Y-106566507D01*
X109404994Y-106559797D01*
X109388168Y-106551343D01*
X109369053Y-106544431D01*
X109318718Y-106525172D01*
X109260050Y-106496649D01*
X109194981Y-106460193D01*
X109125445Y-106417136D01*
X109053377Y-106368811D01*
X108980708Y-106316548D01*
X108909373Y-106261680D01*
X108841305Y-106205539D01*
X108778438Y-106149456D01*
X108735998Y-106108368D01*
X108664323Y-106032443D01*
X108605448Y-105961801D01*
X108558832Y-105895423D01*
X108523938Y-105832285D01*
X108500225Y-105771366D01*
X108498811Y-105764905D01*
X108651351Y-105764905D01*
X108651612Y-105764961D01*
X108659427Y-105767464D01*
X108678931Y-105774036D01*
X108707871Y-105783907D01*
X108743997Y-105796311D01*
X108784403Y-105810253D01*
X108829430Y-105825723D01*
X108873342Y-105840630D01*
X108912760Y-105853839D01*
X108944303Y-105864215D01*
X108961458Y-105869672D01*
X108989126Y-105878205D01*
X109025425Y-105889412D01*
X109064893Y-105901607D01*
X109090560Y-105909543D01*
X109129604Y-105920998D01*
X109179049Y-105934569D01*
X109234886Y-105949222D01*
X109293100Y-105963924D01*
X109349679Y-105977643D01*
X109400406Y-105989301D01*
X109437266Y-105993062D01*
X109484084Y-105990887D01*
X109537411Y-105982999D01*
X109555329Y-105979296D01*
X109584352Y-105972287D01*
X109623215Y-105962003D01*
X109670226Y-105948961D01*
X109723694Y-105933679D01*
X109781927Y-105916674D01*
X109843235Y-105898465D01*
X109905927Y-105879568D01*
X109968310Y-105860502D01*
X110028693Y-105841784D01*
X110085386Y-105823932D01*
X110136696Y-105807463D01*
X110180934Y-105792895D01*
X110216406Y-105780746D01*
X110241422Y-105771533D01*
X110254291Y-105765774D01*
X110255266Y-105765076D01*
X110253005Y-105760117D01*
X110237936Y-105753987D01*
X110211934Y-105747004D01*
X110176870Y-105739483D01*
X110134616Y-105731740D01*
X110087047Y-105724089D01*
X110036033Y-105716848D01*
X109983448Y-105710331D01*
X109931165Y-105704854D01*
X109881055Y-105700734D01*
X109868864Y-105699939D01*
X109777041Y-105694590D01*
X109696596Y-105690606D01*
X109624222Y-105687938D01*
X109556610Y-105686533D01*
X109490451Y-105686343D01*
X109422439Y-105687316D01*
X109349264Y-105689401D01*
X109299392Y-105691250D01*
X109204595Y-105695145D01*
X109123035Y-105698836D01*
X109053198Y-105702443D01*
X108993571Y-105706084D01*
X108942638Y-105709881D01*
X108898887Y-105713951D01*
X108860802Y-105718416D01*
X108826871Y-105723395D01*
X108795579Y-105729007D01*
X108779073Y-105732379D01*
X108733979Y-105742226D01*
X108697124Y-105750795D01*
X108670043Y-105757692D01*
X108654274Y-105762527D01*
X108651351Y-105764905D01*
X108498811Y-105764905D01*
X108487155Y-105711644D01*
X108484187Y-105652097D01*
X108485252Y-105633287D01*
X108490852Y-105589567D01*
X108500992Y-105535848D01*
X108514802Y-105475856D01*
X108531413Y-105413318D01*
X108549958Y-105351964D01*
X108552961Y-105342765D01*
X108561386Y-105315925D01*
X108567145Y-105294980D01*
X108569314Y-105283399D01*
X108569096Y-105282235D01*
X108561049Y-105282685D01*
X108544318Y-105287266D01*
X108536981Y-105289756D01*
X108497596Y-105298141D01*
X108446451Y-105299730D01*
X108384898Y-105294495D01*
X108374963Y-105293136D01*
X108336386Y-105284381D01*
X108300363Y-105268665D01*
X108264297Y-105244340D01*
X108225589Y-105209757D01*
X108197050Y-105180206D01*
X108147505Y-105115962D01*
X108107560Y-105040749D01*
X108077434Y-104954984D01*
X108075197Y-104946704D01*
X108067704Y-104914945D01*
X108062818Y-104884424D01*
X108060082Y-104850561D01*
X108059040Y-104808773D01*
X108059007Y-104784403D01*
X108060932Y-104737460D01*
X108152460Y-104737460D01*
X108157652Y-104760672D01*
X108176310Y-104784479D01*
X108183345Y-104790959D01*
X108212550Y-104809805D01*
X108240588Y-104813955D01*
X108267591Y-104803408D01*
X108282180Y-104791213D01*
X108297558Y-104772494D01*
X108303963Y-104752868D01*
X108304879Y-104735531D01*
X108302604Y-104710890D01*
X108294012Y-104693601D01*
X108285359Y-104684458D01*
X108259161Y-104669246D01*
X108229456Y-104666068D01*
X108199959Y-104674090D01*
X108174385Y-104692480D01*
X108160045Y-104712521D01*
X108152460Y-104737460D01*
X108060932Y-104737460D01*
X108062018Y-104710964D01*
X108071221Y-104644253D01*
X108087721Y-104579685D01*
X108112624Y-104512676D01*
X108115206Y-104507007D01*
X108255654Y-104507007D01*
X108262216Y-104552603D01*
X108275495Y-104584557D01*
X108304516Y-104623555D01*
X108340762Y-104652799D01*
X108381703Y-104671564D01*
X108424807Y-104679128D01*
X108467543Y-104674765D01*
X108507380Y-104657752D01*
X108514552Y-104652930D01*
X108552175Y-104617563D01*
X108577192Y-104574552D01*
X108589649Y-104523811D01*
X108590591Y-104513429D01*
X108591737Y-104484207D01*
X108589424Y-104462788D01*
X108582306Y-104442371D01*
X108572697Y-104423042D01*
X108547966Y-104386613D01*
X108519709Y-104360335D01*
X108502570Y-104349192D01*
X108487155Y-104342541D01*
X108468695Y-104339242D01*
X108442419Y-104338152D01*
X108426695Y-104338078D01*
X108395493Y-104338516D01*
X108374278Y-104340613D01*
X108358292Y-104345545D01*
X108342775Y-104354486D01*
X108333270Y-104361139D01*
X108309945Y-104381720D01*
X108287473Y-104407538D01*
X108279059Y-104419612D01*
X108261299Y-104461218D01*
X108255654Y-104507007D01*
X108115206Y-104507007D01*
X108137873Y-104457244D01*
X108156332Y-104420205D01*
X108172025Y-104392419D01*
X108188055Y-104369601D01*
X108207524Y-104347467D01*
X108233534Y-104321732D01*
X108241404Y-104314251D01*
X108282318Y-104278198D01*
X108320127Y-104250060D01*
X108348674Y-104233508D01*
X108371094Y-104222219D01*
X108387069Y-104212905D01*
X108393036Y-104207722D01*
X108386586Y-104202943D01*
X108368927Y-104197340D01*
X108343531Y-104191569D01*
X108313870Y-104186289D01*
X108283416Y-104182159D01*
X108255640Y-104179834D01*
X108244405Y-104179554D01*
X108176180Y-104186813D01*
X108108363Y-104207465D01*
X108042647Y-104240206D01*
X107980730Y-104283730D01*
X107924306Y-104336732D01*
X107875070Y-104397907D01*
X107834718Y-104465950D01*
X107815374Y-104509796D01*
X107802719Y-104552170D01*
X107792752Y-104604573D01*
X107785730Y-104662970D01*
X107781908Y-104723326D01*
X107781544Y-104781607D01*
X107784895Y-104833777D01*
X107792115Y-104875418D01*
X107820877Y-104956842D01*
X107863430Y-105035032D01*
X107918923Y-105108579D01*
X107957469Y-105149302D01*
X107975999Y-105168122D01*
X107989419Y-105183203D01*
X107995006Y-105191472D01*
X107995033Y-105191721D01*
X107988580Y-105196381D01*
X107971825Y-105197348D01*
X107948679Y-105194900D01*
X107923051Y-105189316D01*
X107911485Y-105185764D01*
X107890122Y-105176277D01*
X107870292Y-105161725D01*
X107848231Y-105139069D01*
X107836142Y-105124902D01*
X107809161Y-105089470D01*
X107779013Y-105045067D01*
X107748483Y-104996225D01*
X107720358Y-104947472D01*
X107697426Y-104903337D01*
X107690197Y-104887686D01*
X107663590Y-104809831D01*
X107648559Y-104725493D01*
X107644989Y-104637186D01*
X107652765Y-104547425D01*
X107671773Y-104458728D01*
X107701896Y-104373609D01*
X107715025Y-104345166D01*
X107744277Y-104293679D01*
X107780964Y-104241220D01*
X107821734Y-104191981D01*
X107863236Y-104150156D01*
X107886266Y-104130987D01*
X107955666Y-104086554D01*
X108031506Y-104052612D01*
X108111223Y-104029691D01*
X108192252Y-104018319D01*
X108272030Y-104019025D01*
X108347993Y-104032340D01*
X108354810Y-104034249D01*
X108432141Y-104064197D01*
X108504668Y-104107347D01*
X108571234Y-104162605D01*
X108630683Y-104228877D01*
X108681860Y-104305068D01*
X108718903Y-104378917D01*
X108740452Y-104432906D01*
X108757768Y-104486121D01*
X108771312Y-104541190D01*
X108781547Y-104600741D01*
X108788935Y-104667399D01*
X108793939Y-104743792D01*
X108796740Y-104821290D01*
X108801064Y-104987279D01*
X108771002Y-105083184D01*
X108742562Y-105177635D01*
X108716072Y-105272893D01*
X108692195Y-105366202D01*
X108671598Y-105454807D01*
X108654944Y-105535954D01*
X108642898Y-105606888D01*
X108640527Y-105623895D01*
X108635383Y-105662952D01*
X108656408Y-105658301D01*
X108673138Y-105654173D01*
X108699264Y-105647257D01*
X108729997Y-105638829D01*
X108740139Y-105635988D01*
X108779684Y-105625231D01*
X108817033Y-105616056D01*
X108854000Y-105608254D01*
X108892403Y-105601616D01*
X108934056Y-105595934D01*
X108980775Y-105590998D01*
X109034376Y-105586598D01*
X109096675Y-105582527D01*
X109169488Y-105578574D01*
X109254630Y-105574531D01*
X109286058Y-105573128D01*
X109353128Y-105570434D01*
X109413385Y-105568702D01*
X109469547Y-105568009D01*
X109524331Y-105568428D01*
X109580456Y-105570036D01*
X109640637Y-105572908D01*
X109707594Y-105577119D01*
X109784043Y-105582743D01*
X109863784Y-105589124D01*
X109926121Y-105594456D01*
X109977008Y-105599423D01*
X110019723Y-105604505D01*
X110057544Y-105610184D01*
X110093751Y-105616940D01*
X110131624Y-105625255D01*
X110165471Y-105633389D01*
X110205113Y-105642962D01*
X110239472Y-105650882D01*
X110266122Y-105656620D01*
X110282640Y-105659649D01*
X110286897Y-105659855D01*
X110287074Y-105651007D01*
X110283828Y-105629783D01*
X110277616Y-105598045D01*
X110268895Y-105557652D01*
X110258122Y-105510465D01*
X110245752Y-105458345D01*
X110232244Y-105403150D01*
X110218053Y-105346742D01*
X110203636Y-105290982D01*
X110189450Y-105237728D01*
X110175952Y-105188842D01*
X110163599Y-105146185D01*
X110152846Y-105111615D01*
X110150753Y-105105315D01*
X110123380Y-105024165D01*
X110123952Y-104847110D01*
X110124688Y-104773491D01*
X110125879Y-104735352D01*
X110606082Y-104735352D01*
X110615263Y-104762647D01*
X110637387Y-104786476D01*
X110645794Y-104792148D01*
X110675533Y-104804722D01*
X110701483Y-104803323D01*
X110724840Y-104787862D01*
X110726412Y-104786248D01*
X110745426Y-104759973D01*
X110750371Y-104734731D01*
X110741586Y-104708385D01*
X110739383Y-104704654D01*
X110720318Y-104683936D01*
X110694132Y-104667566D01*
X110667285Y-104659334D01*
X110661592Y-104658990D01*
X110649150Y-104663907D01*
X110632812Y-104676149D01*
X110628157Y-104680554D01*
X110610246Y-104707138D01*
X110606082Y-104735352D01*
X110125879Y-104735352D01*
X110126617Y-104711703D01*
X110130102Y-104658847D01*
X110135507Y-104612023D01*
X110143194Y-104568331D01*
X110153526Y-104524872D01*
X110155788Y-104517052D01*
X110321867Y-104517052D01*
X110325691Y-104541531D01*
X110339420Y-104587263D01*
X110359628Y-104621598D01*
X110388519Y-104647261D01*
X110426670Y-104666346D01*
X110460032Y-104677177D01*
X110488554Y-104680027D01*
X110519457Y-104675178D01*
X110535932Y-104670598D01*
X110579005Y-104653228D01*
X110611426Y-104629010D01*
X110636772Y-104595010D01*
X110643667Y-104582194D01*
X110661548Y-104532851D01*
X110665031Y-104485319D01*
X110654277Y-104440535D01*
X110629448Y-104399436D01*
X110608268Y-104377299D01*
X110567735Y-104349977D01*
X110522919Y-104335627D01*
X110476400Y-104334159D01*
X110430759Y-104345484D01*
X110388575Y-104369514D01*
X110370307Y-104385540D01*
X110340129Y-104424894D01*
X110324004Y-104468655D01*
X110321867Y-104517052D01*
X110155788Y-104517052D01*
X110166866Y-104478745D01*
X110172183Y-104461842D01*
X110202908Y-104378329D01*
X110239056Y-104305391D01*
X110282958Y-104239173D01*
X110336947Y-104175822D01*
X110358790Y-104153482D01*
X110420927Y-104100055D01*
X110486191Y-104060514D01*
X110556076Y-104034295D01*
X110632073Y-104020835D01*
X110713563Y-104019462D01*
X110751331Y-104022364D01*
X110789336Y-104026987D01*
X110821388Y-104032520D01*
X110831600Y-104034924D01*
X110900618Y-104059672D01*
X110969244Y-104096173D01*
X111033149Y-104141960D01*
X111058357Y-104164132D01*
X111118353Y-104226272D01*
X111165952Y-104289488D01*
X111203299Y-104357380D01*
X111232534Y-104433548D01*
X111245556Y-104478828D01*
X111259059Y-104548614D01*
X111265275Y-104623357D01*
X111264449Y-104699582D01*
X111256824Y-104773812D01*
X111242645Y-104842571D01*
X111222156Y-104902385D01*
X111214678Y-104918336D01*
X111191366Y-104960176D01*
X111163065Y-105004594D01*
X111133566Y-105045917D01*
X111110476Y-105074265D01*
X111091469Y-105097791D01*
X111071651Y-105125533D01*
X111063567Y-105138053D01*
X111044642Y-105163118D01*
X111024292Y-105181086D01*
X111017713Y-105184788D01*
X110995568Y-105192840D01*
X110970984Y-105198729D01*
X110948512Y-105201744D01*
X110932698Y-105201174D01*
X110928270Y-105198770D01*
X110931142Y-105190853D01*
X110942403Y-105176294D01*
X110957849Y-105160023D01*
X111006049Y-105106691D01*
X111049674Y-105046251D01*
X111086469Y-104982489D01*
X111114180Y-104919189D01*
X111127365Y-104875493D01*
X111134820Y-104822695D01*
X111135490Y-104760724D01*
X111129941Y-104693200D01*
X111118739Y-104623743D01*
X111102450Y-104555973D01*
X111081641Y-104493510D01*
X111060220Y-104446147D01*
X111019201Y-104381149D01*
X110968853Y-104322107D01*
X110911469Y-104270880D01*
X110849340Y-104229325D01*
X110784759Y-104199301D01*
X110739506Y-104186180D01*
X110703966Y-104181808D01*
X110660067Y-104181101D01*
X110613660Y-104183750D01*
X110570594Y-104189446D01*
X110540197Y-104196704D01*
X110506999Y-104207413D01*
X110528268Y-104215762D01*
X110557162Y-104230312D01*
X110592123Y-104252744D01*
X110629181Y-104280126D01*
X110664367Y-104309527D01*
X110693470Y-104337757D01*
X110732049Y-104385483D01*
X110768777Y-104442396D01*
X110800363Y-104503000D01*
X110818017Y-104545682D01*
X110841492Y-104628255D01*
X110854027Y-104714359D01*
X110856001Y-104801846D01*
X110847790Y-104888568D01*
X110829775Y-104972378D01*
X110802332Y-105051126D01*
X110765841Y-105122664D01*
X110720679Y-105184845D01*
X110701929Y-105204969D01*
X110673757Y-105230810D01*
X110644098Y-105254227D01*
X110617917Y-105271375D01*
X110612353Y-105274303D01*
X110570696Y-105289816D01*
X110521423Y-105300693D01*
X110470320Y-105306164D01*
X110423172Y-105305458D01*
X110401855Y-105302335D01*
X110378993Y-105298114D01*
X110362736Y-105296189D01*
X110357499Y-105296621D01*
X110358568Y-105304414D01*
X110364499Y-105321248D01*
X110370388Y-105335243D01*
X110387030Y-105379717D01*
X110402641Y-105434422D01*
X110416249Y-105494832D01*
X110426879Y-105556422D01*
X110433558Y-105614667D01*
X110434854Y-105634900D01*
X110436027Y-105690256D01*
X110432909Y-105735849D01*
X110424290Y-105776038D01*
X110408959Y-105815181D01*
X110385705Y-105857638D01*
X110363173Y-105893015D01*
X110320171Y-105954613D01*
X110274746Y-106012369D01*
X110225123Y-106068052D01*
X110169525Y-106123429D01*
X110106175Y-106180268D01*
X110033299Y-106240338D01*
X109949120Y-106305405D01*
X109948009Y-106306242D01*
X109859050Y-106371281D01*
X109778054Y-106426183D01*
X109703307Y-106471952D01*
X109633097Y-106509591D01*
X109565714Y-106540105D01*
X109519006Y-106557870D01*
X109512349Y-106561654D01*
X109512728Y-106567918D01*
X109521412Y-106579299D01*
X109537450Y-106596169D01*
X109585458Y-106636475D01*
X109645048Y-106672515D01*
X109713450Y-106703459D01*
X109787896Y-106728475D01*
X109865617Y-106746735D01*
X109943846Y-106757409D01*
X110019814Y-106759665D01*
X110069890Y-106755827D01*
X110156504Y-106738996D01*
X110243676Y-106711189D01*
X110328806Y-106673838D01*
X110409293Y-106628379D01*
X110482535Y-106576244D01*
X110545932Y-106518868D01*
X110587508Y-106470558D01*
X110617113Y-106429877D01*
X110639968Y-106394153D01*
X110658654Y-106358491D01*
X110675752Y-106317995D01*
X110692757Y-106270927D01*
X110720699Y-106189777D01*
X110720820Y-106027476D01*
X110720718Y-105972257D01*
X110720179Y-105928933D01*
X110718988Y-105894646D01*
X110716933Y-105866538D01*
X110713801Y-105841752D01*
X110709378Y-105817430D01*
X110703450Y-105790713D01*
X110703019Y-105788872D01*
X110691750Y-105745282D01*
X110680827Y-105714294D01*
X110668940Y-105693849D01*
X110654778Y-105681887D01*
X110637029Y-105676350D01*
X110630945Y-105675645D01*
X110612666Y-105672236D01*
X110602154Y-105666760D01*
X110601506Y-105665618D01*
X110604529Y-105656132D01*
X110615010Y-105639998D01*
X110625090Y-105627350D01*
X110658258Y-105597659D01*
X110698827Y-105578289D01*
X110748345Y-105568715D01*
X110799536Y-105567926D01*
X110833306Y-105570164D01*
X110857017Y-105573912D01*
X110875364Y-105580311D01*
X110893036Y-105590500D01*
X110893391Y-105590734D01*
X110924098Y-105618015D01*
X110941201Y-105649887D01*
X110944523Y-105683032D01*
X110941604Y-105701279D01*
X110934268Y-105709538D01*
X110919378Y-105712483D01*
X110899543Y-105711095D01*
X110873408Y-105705125D01*
X110856671Y-105699577D01*
X110832663Y-105691236D01*
X110812879Y-105685737D01*
X110804450Y-105684436D01*
X110799391Y-105684429D01*
X110796315Y-105685803D01*
X110795686Y-105690645D01*
X110797965Y-105701042D01*
X110803614Y-105719082D01*
X110813097Y-105746853D01*
X110826874Y-105786441D01*
X110827317Y-105787715D01*
X110844074Y-105843807D01*
X110855469Y-105901858D01*
X110861867Y-105965131D01*
X110863635Y-106036891D01*
X110862136Y-106098388D01*
X110854651Y-106194410D01*
X110839848Y-106280092D01*
X110816750Y-106358418D01*
X110784382Y-106432368D01*
X110741766Y-106504927D01*
X110717642Y-106539781D01*
X110688366Y-106584136D01*
X110668264Y-106623189D01*
X110661171Y-106643063D01*
X110652218Y-106674446D01*
X110641843Y-106709680D01*
X110636211Y-106728319D01*
X110628079Y-106755967D01*
X110621192Y-106781295D01*
X110617960Y-106794714D01*
X110613253Y-106815223D01*
X110609402Y-106829857D01*
X110608311Y-106836834D01*
X110612664Y-106838553D01*
X110625385Y-106834854D01*
X110643315Y-106827977D01*
X110671322Y-106816291D01*
X110698975Y-106803754D01*
X110709426Y-106798632D01*
X110728186Y-106789843D01*
X110756394Y-106777564D01*
X110789743Y-106763638D01*
X110814188Y-106753759D01*
X110894588Y-106719670D01*
X110983640Y-106678214D01*
X111078281Y-106630993D01*
X111175447Y-106579610D01*
X111272077Y-106525667D01*
X111365107Y-106470768D01*
X111419693Y-106436916D01*
X111452619Y-106415473D01*
X111473428Y-106400363D01*
X111482944Y-106390829D01*
X111481989Y-106386114D01*
X111475885Y-106385275D01*
X111466230Y-106382330D01*
X111446070Y-106374290D01*
X111418249Y-106362342D01*
X111385610Y-106347677D01*
X111381824Y-106345938D01*
X111345247Y-106330201D01*
X111299051Y-106311975D01*
X111247763Y-106292957D01*
X111195912Y-106274843D01*
X111163578Y-106264205D01*
X111108024Y-106246381D01*
X111064930Y-106232142D01*
X111032683Y-106220646D01*
X111009668Y-106211050D01*
X110994272Y-106202513D01*
X110984880Y-106194192D01*
X110979879Y-106185244D01*
X110977653Y-106174828D01*
X110976926Y-106166798D01*
X110976414Y-106147295D01*
X110980453Y-106137652D01*
X110991695Y-106133097D01*
X110996193Y-106132144D01*
X111015249Y-106131215D01*
X111045337Y-106133090D01*
X111083101Y-106137304D01*
X111125182Y-106143397D01*
X111168225Y-106150906D01*
X111208873Y-106159369D01*
X111228516Y-106164139D01*
X111257673Y-106172501D01*
X111295877Y-106184633D01*
X111338414Y-106198984D01*
X111380568Y-106214002D01*
X111385304Y-106215748D01*
X111420878Y-106228841D01*
X111451253Y-106239874D01*
X111473882Y-106247934D01*
X111486218Y-106252107D01*
X111487685Y-106252484D01*
X111495441Y-106255357D01*
X111512911Y-106262922D01*
X111536454Y-106273599D01*
X111538654Y-106274616D01*
X111563729Y-106285609D01*
X111584300Y-106293520D01*
X111596081Y-106296706D01*
X111596342Y-106296712D01*
X111605884Y-106291508D01*
X111623545Y-106277126D01*
X111647578Y-106255357D01*
X111676234Y-106227991D01*
X111707766Y-106196819D01*
X111740423Y-106163631D01*
X111772460Y-106130218D01*
X111802126Y-106098371D01*
X111827674Y-106069881D01*
X111847356Y-106046538D01*
X111859423Y-106030133D01*
X111862292Y-106024317D01*
X111856789Y-106016574D01*
X111837595Y-106006588D01*
X111805551Y-105994667D01*
X111761501Y-105981119D01*
X111706285Y-105966254D01*
X111698431Y-105964266D01*
X111662613Y-105955541D01*
X111628192Y-105947870D01*
X111593529Y-105941052D01*
X111556983Y-105934887D01*
X111516914Y-105929175D01*
X111471683Y-105923713D01*
X111419649Y-105918303D01*
X111359173Y-105912742D01*
X111288614Y-105906831D01*
X111206333Y-105900368D01*
X111127813Y-105894430D01*
X111087210Y-105889713D01*
X111059443Y-105882037D01*
X111042728Y-105870436D01*
X111035281Y-105853946D01*
X111034475Y-105843948D01*
X111036903Y-105829289D01*
X111045719Y-105818777D01*
X111063224Y-105811244D01*
X111091718Y-105805526D01*
X111116659Y-105802295D01*
X111188305Y-105796727D01*
X111269961Y-105794915D01*
X111357414Y-105796698D01*
X111446448Y-105801913D01*
X111532849Y-105810398D01*
X111607819Y-105821196D01*
X111641052Y-105827417D01*
X111682176Y-105835919D01*
X111728057Y-105845968D01*
X111775561Y-105856831D01*
X111821551Y-105867775D01*
X111862894Y-105878067D01*
X111896454Y-105886974D01*
X111919096Y-105893763D01*
X111921062Y-105894447D01*
X111933621Y-105898670D01*
X111943524Y-105899825D01*
X111952930Y-105896304D01*
X111963992Y-105886498D01*
X111978869Y-105868800D01*
X111999716Y-105841602D01*
X112009765Y-105828290D01*
X112025330Y-105805862D01*
X112043069Y-105777501D01*
X112061262Y-105746334D01*
X112078186Y-105715486D01*
X112092118Y-105688084D01*
X112101337Y-105667256D01*
X112104182Y-105656884D01*
X112097109Y-105649644D01*
X112077027Y-105641645D01*
X112045643Y-105633209D01*
X112004663Y-105624659D01*
X111955792Y-105616318D01*
X111900737Y-105608510D01*
X111841204Y-105601556D01*
X111783270Y-105596137D01*
X111727086Y-105591467D01*
X111683775Y-105587678D01*
X111651500Y-105584511D01*
X111628423Y-105581705D01*
X111612705Y-105579002D01*
X111602511Y-105576142D01*
X111596002Y-105572865D01*
X111591471Y-105569041D01*
X111585291Y-105554100D01*
X111591996Y-105536966D01*
X111610515Y-105520234D01*
X111612008Y-105519281D01*
X111629331Y-105512481D01*
X111658502Y-105505414D01*
X111696631Y-105498482D01*
X111740828Y-105492087D01*
X111788200Y-105486633D01*
X111835858Y-105482521D01*
X111880911Y-105480153D01*
X111895595Y-105479810D01*
X111910138Y-105478870D01*
X111922502Y-105475243D01*
X111935544Y-105467010D01*
X111952121Y-105452250D01*
X111975087Y-105429042D01*
X111982405Y-105421442D01*
X112033352Y-105362858D01*
X112085213Y-105293129D01*
X112136066Y-105215590D01*
X112183989Y-105133575D01*
X112227063Y-105050420D01*
X112263366Y-104969459D01*
X112290978Y-104894027D01*
X112296241Y-104876620D01*
X112306072Y-104843186D01*
X112314928Y-104814357D01*
X112321756Y-104793480D01*
X112325222Y-104784403D01*
X112331242Y-104768789D01*
X112335455Y-104753974D01*
X112336925Y-104744166D01*
X112334021Y-104736921D01*
X112324165Y-104730305D01*
X112304778Y-104722385D01*
X112282990Y-104714620D01*
X112224387Y-104691571D01*
X112157690Y-104660993D01*
X112086295Y-104624613D01*
X112013595Y-104584160D01*
X111945570Y-104542993D01*
X111904619Y-104516256D01*
X111862340Y-104487140D01*
X111820626Y-104457106D01*
X111781366Y-104427615D01*
X111746455Y-104400126D01*
X111717781Y-104376101D01*
X111697239Y-104356999D01*
X111686718Y-104344280D01*
X111685969Y-104342588D01*
X111676978Y-104317637D01*
X111665644Y-104292465D01*
X111650636Y-104264791D01*
X111630625Y-104232336D01*
X111604283Y-104192823D01*
X111570280Y-104143971D01*
X111569329Y-104142622D01*
X111533665Y-104092661D01*
X111494120Y-104038271D01*
X111452238Y-103981495D01*
X111409562Y-103924372D01*
X111367635Y-103868942D01*
X111341241Y-103834514D01*
X111507158Y-103834514D01*
X111544729Y-103877711D01*
X111574477Y-103912936D01*
X111608654Y-103955055D01*
X111644696Y-104000757D01*
X111680039Y-104046730D01*
X111712120Y-104089661D01*
X111738376Y-104126239D01*
X111747934Y-104140232D01*
X111765081Y-104165878D01*
X111777071Y-104180595D01*
X111786847Y-104184195D01*
X111797351Y-104176487D01*
X111811526Y-104157284D01*
X111826351Y-104135202D01*
X111875344Y-104058757D01*
X111913660Y-103990629D01*
X111941920Y-103929646D01*
X111955681Y-103891752D01*
X111980683Y-103805176D01*
X111997271Y-103728201D01*
X112005753Y-103658527D01*
X112006436Y-103593854D01*
X112001936Y-103546670D01*
X111991830Y-103488517D01*
X111977801Y-103426008D01*
X111961386Y-103365306D01*
X111944122Y-103312579D01*
X111942479Y-103308169D01*
X111916292Y-103252224D01*
X111884034Y-103205397D01*
X111847120Y-103168994D01*
X111806964Y-103144322D01*
X111764982Y-103132688D01*
X111751623Y-103131932D01*
X111728526Y-103136445D01*
X111700638Y-103150544D01*
X111666963Y-103174917D01*
X111626508Y-103210254D01*
X111595471Y-103240053D01*
X111517688Y-103316853D01*
X111547197Y-103311055D01*
X111592967Y-103305715D01*
X111645713Y-103305270D01*
X111699138Y-103309403D01*
X111746943Y-103317794D01*
X111761949Y-103321916D01*
X111794386Y-103333585D01*
X111818058Y-103346757D01*
X111838826Y-103364911D01*
X111844485Y-103370889D01*
X111865756Y-103398392D01*
X111878039Y-103427001D01*
X111882552Y-103461047D01*
X111880924Y-103500480D01*
X111869353Y-103556395D01*
X111844766Y-103607454D01*
X111806910Y-103654804D01*
X111774499Y-103684252D01*
X111732686Y-103716351D01*
X111685628Y-103748393D01*
X111637482Y-103777669D01*
X111592405Y-103801470D01*
X111561524Y-103814686D01*
X111507158Y-103834514D01*
X111341241Y-103834514D01*
X111328003Y-103817246D01*
X111292208Y-103771324D01*
X111261794Y-103733216D01*
X111238306Y-103704963D01*
X111237155Y-103703631D01*
X111207630Y-103669078D01*
X111186679Y-103642503D01*
X111172984Y-103620938D01*
X111172357Y-103619361D01*
X111305157Y-103619361D01*
X111346876Y-103661496D01*
X111368308Y-103683760D01*
X111386825Y-103704094D01*
X111398915Y-103718623D01*
X111400074Y-103720230D01*
X111408261Y-103730283D01*
X111417358Y-103735043D01*
X111430321Y-103734217D01*
X111450104Y-103727516D01*
X111479662Y-103714648D01*
X111485991Y-103711772D01*
X111535662Y-103686780D01*
X111586415Y-103657134D01*
X111633496Y-103625828D01*
X111672150Y-103595854D01*
X111677281Y-103591341D01*
X111699499Y-103568659D01*
X111720361Y-103542721D01*
X111737330Y-103517209D01*
X111747870Y-103495802D01*
X111750072Y-103485700D01*
X111743154Y-103469164D01*
X111723605Y-103455804D01*
X111693235Y-103445761D01*
X111653851Y-103439178D01*
X111607263Y-103436197D01*
X111555280Y-103436958D01*
X111499709Y-103441604D01*
X111442360Y-103450277D01*
X111403340Y-103458530D01*
X111333256Y-103475188D01*
X111319206Y-103547274D01*
X111305157Y-103619361D01*
X111172357Y-103619361D01*
X111165225Y-103601413D01*
X111162084Y-103580959D01*
X111162243Y-103556608D01*
X111163460Y-103537700D01*
X111178265Y-103384828D01*
X111182733Y-103355239D01*
X111348610Y-103355239D01*
X111349766Y-103366897D01*
X111351417Y-103367964D01*
X111357197Y-103362177D01*
X111369128Y-103346485D01*
X111385380Y-103323394D01*
X111401285Y-103299724D01*
X111431296Y-103257055D01*
X111466207Y-103212053D01*
X111503533Y-103167554D01*
X111540784Y-103126394D01*
X111575473Y-103091411D01*
X111605114Y-103065440D01*
X111609984Y-103061748D01*
X111646483Y-103037912D01*
X111680632Y-103023314D01*
X111718241Y-103016086D01*
X111757450Y-103014340D01*
X111805815Y-103017821D01*
X111847755Y-103029532D01*
X111885703Y-103050917D01*
X111922096Y-103083418D01*
X111959370Y-103128479D01*
X111966474Y-103138192D01*
X112003929Y-103195624D01*
X112033601Y-103254142D01*
X112056568Y-103316850D01*
X112073907Y-103386851D01*
X112086695Y-103467247D01*
X112089753Y-103493378D01*
X112094619Y-103593053D01*
X112088545Y-103696134D01*
X112072162Y-103798947D01*
X112046103Y-103897821D01*
X112011003Y-103989082D01*
X112000524Y-104011008D01*
X111983527Y-104043354D01*
X111962381Y-104081100D01*
X111938927Y-104121211D01*
X111915007Y-104160652D01*
X111892465Y-104196390D01*
X111873141Y-104225391D01*
X111858878Y-104244618D01*
X111858245Y-104245370D01*
X111836675Y-104270699D01*
X111887434Y-104317008D01*
X111910061Y-104337231D01*
X111928629Y-104353043D01*
X111940468Y-104362209D01*
X111943088Y-104363608D01*
X111949760Y-104358471D01*
X111963188Y-104344558D01*
X111980828Y-104324549D01*
X111986535Y-104317790D01*
X112044332Y-104241453D01*
X112098971Y-104155453D01*
X112148574Y-104063519D01*
X112191262Y-103969377D01*
X112225157Y-103876756D01*
X112244997Y-103804881D01*
X112257887Y-103735118D01*
X112267159Y-103656345D01*
X112272650Y-103572978D01*
X112274199Y-103489430D01*
X112271641Y-103410115D01*
X112264816Y-103339446D01*
X112262658Y-103325079D01*
X112242944Y-103234895D01*
X112213889Y-103146355D01*
X112176591Y-103060983D01*
X112132148Y-102980303D01*
X112081658Y-102905837D01*
X112026220Y-102839108D01*
X111966930Y-102781640D01*
X111904888Y-102734956D01*
X111841191Y-102700579D01*
X111802219Y-102686370D01*
X111749842Y-102675754D01*
X111702887Y-102677437D01*
X111658914Y-102692032D01*
X111615483Y-102720151D01*
X111594113Y-102738630D01*
X111559056Y-102775642D01*
X111527536Y-102819029D01*
X111497820Y-102871517D01*
X111468174Y-102935833D01*
X111467067Y-102938450D01*
X111452433Y-102975538D01*
X111437024Y-103018830D01*
X111421362Y-103066381D01*
X111405971Y-103116247D01*
X111391373Y-103166485D01*
X111378093Y-103215153D01*
X111366653Y-103260305D01*
X111357577Y-103299999D01*
X111351389Y-103332292D01*
X111348610Y-103355239D01*
X111182733Y-103355239D01*
X111199473Y-103244390D01*
X111227314Y-103115422D01*
X111262015Y-102996958D01*
X111303802Y-102888033D01*
X111329832Y-102831956D01*
X111345616Y-102799556D01*
X111358434Y-102772255D01*
X111367141Y-102752568D01*
X111370594Y-102743011D01*
X111370543Y-102742526D01*
X111363604Y-102745055D01*
X111345782Y-102753533D01*
X111319180Y-102766904D01*
X111285902Y-102784113D01*
X111251117Y-102802469D01*
X111212494Y-102822753D01*
X111163783Y-102847898D01*
X111108155Y-102876293D01*
X111048782Y-102906325D01*
X110988835Y-102936384D01*
X110934882Y-102963180D01*
X110884897Y-102987883D01*
X110839310Y-103010436D01*
X110799768Y-103030024D01*
X110767917Y-103045828D01*
X110745403Y-103057034D01*
X110733873Y-103062825D01*
X110732725Y-103063429D01*
X110735968Y-103068481D01*
X110747756Y-103078605D01*
X110751168Y-103081191D01*
X110770104Y-103097231D01*
X110795812Y-103121695D01*
X110825565Y-103151720D01*
X110856634Y-103184440D01*
X110886293Y-103216992D01*
X110911814Y-103246510D01*
X110928412Y-103267338D01*
X110948346Y-103296965D01*
X110958541Y-103320212D01*
X110960703Y-103335578D01*
X110959837Y-103352331D01*
X110957716Y-103360445D01*
X110957361Y-103360587D01*
X110948386Y-103358305D01*
X110933001Y-103351049D01*
X110910180Y-103338202D01*
X110878896Y-103319146D01*
X110838126Y-103293265D01*
X110786843Y-103259942D01*
X110752525Y-103237389D01*
X110668997Y-103182723D01*
X110595111Y-103135276D01*
X110528550Y-103093623D01*
X110466995Y-103056339D01*
X110408131Y-103022001D01*
X110349639Y-102989184D01*
X110341010Y-102984445D01*
X110273019Y-102947102D01*
X110215515Y-102915288D01*
X110165970Y-102887579D01*
X110121855Y-102862554D01*
X110080642Y-102838791D01*
X110045919Y-102818472D01*
X109985771Y-102783107D01*
X109936317Y-102754173D01*
X109895574Y-102730555D01*
X109861555Y-102711142D01*
X109832275Y-102694821D01*
X109805748Y-102680477D01*
X109779990Y-102666999D01*
X109753014Y-102653274D01*
X109736073Y-102644784D01*
X109672461Y-102614783D01*
X109599715Y-102583451D01*
X109520977Y-102551925D01*
X109439392Y-102521342D01*
X109358101Y-102492839D01*
X109280250Y-102467553D01*
X109208979Y-102446621D01*
X109147434Y-102431181D01*
X109142790Y-102430166D01*
X109111770Y-102423364D01*
X109085235Y-102417333D01*
X109067224Y-102413000D01*
X109062895Y-102411827D01*
X109053802Y-102411116D01*
X109050937Y-102417294D01*
X109054648Y-102431856D01*
X109065284Y-102456298D01*
X109080243Y-102486379D01*
X109113084Y-102546814D01*
X109146346Y-102599462D01*
X109182902Y-102648086D01*
X109225627Y-102696449D01*
X109277395Y-102748316D01*
X109287877Y-102758298D01*
X109318604Y-102787879D01*
X109344806Y-102814079D01*
X109364891Y-102835222D01*
X109377262Y-102849632D01*
X109380406Y-102855571D01*
X109371674Y-102856771D01*
X109350922Y-102856770D01*
X109320826Y-102855648D01*
X109284066Y-102853488D01*
X109263820Y-102852027D01*
X109209146Y-102848824D01*
X109156187Y-102847525D01*
X109107482Y-102848046D01*
X109065570Y-102850304D01*
X109032989Y-102854214D01*
X109012279Y-102859693D01*
X109010872Y-102860368D01*
X109002882Y-102867135D01*
X109000425Y-102879032D01*
X109002582Y-102900598D01*
X109002653Y-102901074D01*
X109007728Y-102934911D01*
X108975371Y-102929757D01*
X108951462Y-102923304D01*
X108922115Y-102911762D01*
X108898564Y-102900195D01*
X108874503Y-102887424D01*
X108857953Y-102880955D01*
X108843588Y-102879808D01*
X108826084Y-102883006D01*
X108817181Y-102885239D01*
X108779482Y-102897209D01*
X108731658Y-102916483D01*
X108673219Y-102943288D01*
X108603677Y-102977852D01*
X108522540Y-103020402D01*
X108498671Y-103033241D01*
X108450505Y-103059290D01*
X108411892Y-103080311D01*
X108380074Y-103097944D01*
X108352292Y-103113833D01*
X108325784Y-103129617D01*
X108297792Y-103146940D01*
X108265556Y-103167443D01*
X108226315Y-103192767D01*
X108180076Y-103222760D01*
X108113902Y-103264923D01*
X108058780Y-103298360D01*
X108014848Y-103322994D01*
X107982249Y-103338748D01*
X107961122Y-103345543D01*
X107957611Y-103345832D01*
X107945820Y-103340936D01*
X107944792Y-103326669D01*
X107954447Y-103303671D01*
X107965140Y-103286235D01*
X107980402Y-103266221D01*
X108003849Y-103238899D01*
X108032868Y-103207011D01*
X108064846Y-103173303D01*
X108097170Y-103140518D01*
X108127226Y-103111402D01*
X108152400Y-103088697D01*
X108156593Y-103085190D01*
X108174326Y-103069907D01*
X108181618Y-103060969D01*
X108179894Y-103055950D01*
X108175036Y-103053782D01*
X108161396Y-103048128D01*
X108136455Y-103036744D01*
X108102086Y-103020547D01*
X108060159Y-103000457D01*
X108012545Y-102977393D01*
X107961114Y-102952275D01*
X107907738Y-102926021D01*
X107854288Y-102899550D01*
X107802635Y-102873781D01*
X107754649Y-102849634D01*
X107712201Y-102828028D01*
X107677163Y-102809881D01*
X107659751Y-102800648D01*
X107623406Y-102781267D01*
X107591883Y-102764764D01*
X107567335Y-102752241D01*
X107551912Y-102744799D01*
X107547599Y-102743233D01*
X107549910Y-102750166D01*
X107557609Y-102767545D01*
X107569445Y-102792637D01*
X107582135Y-102818620D01*
X107627681Y-102922172D01*
X107667656Y-103036708D01*
X107701325Y-103159270D01*
X107727955Y-103286903D01*
X107746811Y-103416652D01*
X107755644Y-103517323D01*
X107757622Y-103550822D01*
X107758111Y-103576860D01*
X107755966Y-103598134D01*
X107750039Y-103617343D01*
X107739184Y-103637185D01*
X107722255Y-103660357D01*
X107698105Y-103689558D01*
X107667066Y-103725763D01*
X107581921Y-103827654D01*
X107497877Y-103933481D01*
X107418562Y-104038579D01*
X107357867Y-104123430D01*
X107322463Y-104174707D01*
X107294894Y-104215590D01*
X107274314Y-104247614D01*
X107259878Y-104272316D01*
X107250738Y-104291232D01*
X107246049Y-104305897D01*
X107244964Y-104317848D01*
X107246088Y-104326325D01*
X107247229Y-104336834D01*
X107243882Y-104345953D01*
X107233830Y-104356215D01*
X107214854Y-104370152D01*
X107197452Y-104381872D01*
X107165744Y-104403816D01*
X107129485Y-104430206D01*
X107095477Y-104456067D01*
X107088849Y-104461290D01*
X106967868Y-104548114D01*
X106837215Y-104624130D01*
X106697774Y-104688834D01*
X106663067Y-104702637D01*
X106630802Y-104715349D01*
X106603614Y-104726584D01*
X106584473Y-104735082D01*
X106576465Y-104739450D01*
X106575946Y-104748670D01*
X106406381Y-104748670D01*
X106403726Y-104726106D01*
X106403564Y-104723763D01*
X106404608Y-104680123D01*
X106415062Y-104646333D01*
X106436285Y-104619877D01*
X106469639Y-104598241D01*
X106472105Y-104597017D01*
X106494244Y-104586696D01*
X106511211Y-104579734D01*
X106517978Y-104577839D01*
X106528817Y-104574895D01*
X106545664Y-104567790D01*
X106546107Y-104567578D01*
X106592325Y-104546677D01*
X106627142Y-104533758D01*
X106639779Y-104530358D01*
X106655542Y-104525137D01*
X106680209Y-104515080D01*
X106709503Y-104501974D01*
X106722773Y-104495693D01*
X106755851Y-104478637D01*
X106776093Y-104465366D01*
X106784678Y-104455062D01*
X106785158Y-104452375D01*
X106781239Y-104440981D01*
X106770655Y-104420658D01*
X106755163Y-104394591D01*
X106741817Y-104373844D01*
X106701454Y-104310504D01*
X106663864Y-104245788D01*
X106627088Y-104176062D01*
X106589162Y-104097691D01*
X106568401Y-104052460D01*
X106552828Y-104013525D01*
X106536488Y-103965125D01*
X106520877Y-103912376D01*
X106507491Y-103860392D01*
X106497827Y-103814288D01*
X106496583Y-103806913D01*
X106491448Y-103774946D01*
X106485480Y-103737749D01*
X106481194Y-103711008D01*
X106477631Y-103678744D01*
X106475120Y-103635485D01*
X106473665Y-103584955D01*
X106473264Y-103530878D01*
X106473269Y-103530434D01*
X106645621Y-103530434D01*
X106651579Y-103651150D01*
X106668861Y-103770437D01*
X106697548Y-103886027D01*
X106704128Y-103906874D01*
X106721952Y-103955729D01*
X106745308Y-104011460D01*
X106772135Y-104069742D01*
X106800370Y-104126247D01*
X106827953Y-104176649D01*
X106849133Y-104211142D01*
X106864563Y-104233471D01*
X106883937Y-104260067D01*
X106905309Y-104288438D01*
X106926735Y-104316093D01*
X106946272Y-104340541D01*
X106961976Y-104359289D01*
X106971902Y-104369847D01*
X106974086Y-104371275D01*
X106980389Y-104366777D01*
X106994502Y-104355029D01*
X107011840Y-104339922D01*
X107034624Y-104320294D01*
X107056642Y-104302248D01*
X107069142Y-104292647D01*
X107091079Y-104276726D01*
X107060125Y-104240016D01*
X106999352Y-104158401D01*
X106945675Y-104067196D01*
X106900445Y-103969627D01*
X106865015Y-103868920D01*
X106840738Y-103768301D01*
X106830430Y-103692152D01*
X106828006Y-103637145D01*
X106828108Y-103628633D01*
X106912369Y-103628633D01*
X106913171Y-103660264D01*
X106927235Y-103773479D01*
X106954605Y-103880956D01*
X106995051Y-103982132D01*
X107048342Y-104076439D01*
X107114249Y-104163312D01*
X107120902Y-104170871D01*
X107142710Y-104195346D01*
X107159725Y-104174496D01*
X107171016Y-104159012D01*
X107187115Y-104134862D01*
X107205359Y-104106101D01*
X107214646Y-104090938D01*
X107241505Y-104048255D01*
X107270094Y-104006685D01*
X107302904Y-103962828D01*
X107342422Y-103913282D01*
X107362431Y-103888979D01*
X107381213Y-103865825D01*
X107395735Y-103846955D01*
X107403854Y-103835197D01*
X107404850Y-103832944D01*
X107398440Y-103828220D01*
X107381916Y-103821194D01*
X107366119Y-103815749D01*
X107305163Y-103790623D01*
X107242384Y-103754187D01*
X107181482Y-103708813D01*
X107139355Y-103670433D01*
X107097985Y-103626620D01*
X107067955Y-103588213D01*
X107047996Y-103552954D01*
X107036842Y-103518584D01*
X107034191Y-103492386D01*
X107170526Y-103492386D01*
X107176420Y-103508988D01*
X107196012Y-103542048D01*
X107227710Y-103577549D01*
X107269441Y-103613843D01*
X107319135Y-103649280D01*
X107374722Y-103682209D01*
X107424849Y-103706903D01*
X107453568Y-103719473D01*
X107477480Y-103729401D01*
X107493228Y-103735324D01*
X107497251Y-103736382D01*
X107505296Y-103731627D01*
X107521050Y-103718434D01*
X107541999Y-103699005D01*
X107558909Y-103682369D01*
X107613005Y-103627909D01*
X107607857Y-103595686D01*
X107601327Y-103557208D01*
X107595128Y-103530371D01*
X107587638Y-103512193D01*
X107577235Y-103499690D01*
X107562298Y-103489880D01*
X107546027Y-103481982D01*
X107482662Y-103458151D01*
X107418997Y-103445654D01*
X107349848Y-103443545D01*
X107338454Y-103444078D01*
X107284235Y-103448524D01*
X107238532Y-103455154D01*
X107203352Y-103463587D01*
X107180704Y-103473440D01*
X107179350Y-103474383D01*
X107171175Y-103482354D01*
X107170526Y-103492386D01*
X107034191Y-103492386D01*
X107033225Y-103482843D01*
X107033219Y-103481226D01*
X107039592Y-103434526D01*
X107058626Y-103395265D01*
X107090193Y-103363521D01*
X107134167Y-103339371D01*
X107190420Y-103322896D01*
X107258826Y-103314172D01*
X107306245Y-103312691D01*
X107395761Y-103312635D01*
X107366911Y-103278177D01*
X107343637Y-103252628D01*
X107314871Y-103224333D01*
X107283904Y-103196207D01*
X107254027Y-103171159D01*
X107228533Y-103152104D01*
X107215251Y-103143989D01*
X107179043Y-103133261D01*
X107139277Y-103134771D01*
X107113021Y-103142660D01*
X107081583Y-103162113D01*
X107048959Y-103193530D01*
X107016919Y-103234418D01*
X106987234Y-103282284D01*
X106961675Y-103334638D01*
X106945081Y-103379030D01*
X106934933Y-103418649D01*
X106926044Y-103468212D01*
X106918958Y-103522926D01*
X106914218Y-103577997D01*
X106912369Y-103628633D01*
X106828108Y-103628633D01*
X106828767Y-103573418D01*
X106832395Y-103506582D01*
X106838568Y-103442249D01*
X106846966Y-103386029D01*
X106848297Y-103379146D01*
X106867912Y-103303420D01*
X106894944Y-103232656D01*
X106928243Y-103168668D01*
X106966661Y-103113268D01*
X107009050Y-103068269D01*
X107054259Y-103035484D01*
X107071576Y-103026766D01*
X107117981Y-103013419D01*
X107169055Y-103010775D01*
X107219414Y-103018738D01*
X107249927Y-103029893D01*
X107296504Y-103056330D01*
X107342565Y-103091919D01*
X107389118Y-103137723D01*
X107437171Y-103194807D01*
X107487729Y-103264233D01*
X107524681Y-103320012D01*
X107544092Y-103349328D01*
X107560683Y-103372595D01*
X107572924Y-103387798D01*
X107579284Y-103392923D01*
X107579752Y-103392473D01*
X107579014Y-103382355D01*
X107574827Y-103360402D01*
X107567800Y-103328964D01*
X107558545Y-103290392D01*
X107547673Y-103247034D01*
X107535793Y-103201241D01*
X107523518Y-103155363D01*
X107511456Y-103111749D01*
X107500221Y-103072750D01*
X107490421Y-103040716D01*
X107482668Y-103017996D01*
X107481930Y-103016072D01*
X107443715Y-102925634D01*
X107405117Y-102849646D01*
X107365668Y-102787804D01*
X107324900Y-102739805D01*
X107282346Y-102705346D01*
X107237536Y-102684121D01*
X107190003Y-102675828D01*
X107139278Y-102680163D01*
X107084894Y-102696821D01*
X107030564Y-102723140D01*
X106977714Y-102758790D01*
X106923802Y-102806355D01*
X106870918Y-102863331D01*
X106821151Y-102927220D01*
X106776592Y-102995520D01*
X106739330Y-103065730D01*
X106733427Y-103078676D01*
X106694890Y-103182410D01*
X106667357Y-103293794D01*
X106650907Y-103410559D01*
X106645621Y-103530434D01*
X106473269Y-103530434D01*
X106473920Y-103476975D01*
X106475633Y-103426971D01*
X106478405Y-103384588D01*
X106481098Y-103360587D01*
X106487667Y-103320345D01*
X106495951Y-103277049D01*
X106505290Y-103233427D01*
X106515027Y-103192204D01*
X106524502Y-103156109D01*
X106533057Y-103127868D01*
X106540034Y-103110208D01*
X106542483Y-103106440D01*
X106548234Y-103093503D01*
X106549085Y-103086052D01*
X106552540Y-103067887D01*
X106555873Y-103059862D01*
X106561951Y-103047756D01*
X106572535Y-103026077D01*
X106585798Y-102998582D01*
X106592615Y-102984345D01*
X106624141Y-102921162D01*
X106654184Y-102867880D01*
X106685590Y-102820297D01*
X106721203Y-102774209D01*
X106763869Y-102725413D01*
X106778877Y-102709181D01*
X106834361Y-102653459D01*
X106887335Y-102608618D01*
X106941361Y-102572091D01*
X107000001Y-102541314D01*
X107030453Y-102527988D01*
X107051710Y-102519181D01*
X107067339Y-102512713D01*
X107103851Y-102499925D01*
X107143854Y-102490876D01*
X107190503Y-102485107D01*
X107246954Y-102482157D01*
X107281325Y-102481585D01*
X107331685Y-102483323D01*
X107378504Y-102488896D01*
X107418351Y-102497693D01*
X107447794Y-102509105D01*
X107452802Y-102512081D01*
X107463887Y-102517038D01*
X107483362Y-102523966D01*
X107493378Y-102527171D01*
X107511131Y-102533905D01*
X107539018Y-102545981D01*
X107574032Y-102562029D01*
X107613165Y-102580681D01*
X107640923Y-102594317D01*
X107686017Y-102616662D01*
X107733635Y-102640102D01*
X107779234Y-102662410D01*
X107818270Y-102681360D01*
X107832733Y-102688317D01*
X107867464Y-102705133D01*
X107900889Y-102721629D01*
X107928656Y-102735640D01*
X107943392Y-102743346D01*
X107966242Y-102755138D01*
X107999555Y-102771623D01*
X108040360Y-102791391D01*
X108085685Y-102813033D01*
X108132559Y-102835141D01*
X108178011Y-102856306D01*
X108219069Y-102875120D01*
X108252763Y-102890174D01*
X108256927Y-102891990D01*
X108281317Y-102902814D01*
X108304067Y-102913267D01*
X108307857Y-102915066D01*
X108334883Y-102923892D01*
X108359935Y-102921878D01*
X108386600Y-102908261D01*
X108404472Y-102894535D01*
X108421860Y-102882301D01*
X108452472Y-102863629D01*
X108496269Y-102838542D01*
X108522509Y-102823927D01*
X108535832Y-102817211D01*
X108558473Y-102806424D01*
X108586287Y-102793531D01*
X108596282Y-102788973D01*
X108624589Y-102775996D01*
X108648835Y-102764653D01*
X108665035Y-102756817D01*
X108668110Y-102755225D01*
X108685996Y-102749188D01*
X108694300Y-102748272D01*
X108709532Y-102744837D01*
X108714687Y-102741542D01*
X108726877Y-102734660D01*
X108749235Y-102725823D01*
X108777540Y-102716331D01*
X108807568Y-102707481D01*
X108835096Y-102700574D01*
X108855903Y-102696908D01*
X108860681Y-102696631D01*
X108880640Y-102694677D01*
X108905602Y-102689668D01*
X108930885Y-102682890D01*
X108951805Y-102675626D01*
X108963679Y-102669158D01*
X108964494Y-102668178D01*
X108962629Y-102659410D01*
X108954084Y-102642596D01*
X108943005Y-102624880D01*
X108919087Y-102581427D01*
X108898288Y-102528686D01*
X108882267Y-102472052D01*
X108872680Y-102416919D01*
X108870766Y-102389795D01*
X108871337Y-102349992D01*
X108876390Y-102319958D01*
X108887389Y-102295023D01*
X108905799Y-102270513D01*
X108909465Y-102266392D01*
X108927870Y-102248492D01*
X108947126Y-102236364D01*
X108970396Y-102229171D01*
X109000842Y-102226078D01*
X109041627Y-102226247D01*
G37*
D11*
X132900000Y-113120000D03*
X132900000Y-111850000D03*
X132900000Y-110580000D03*
X132900000Y-109310000D03*
X132900000Y-108040000D03*
X132900000Y-106770000D03*
X132900000Y-105500000D03*
X132900000Y-104230000D03*
X132900000Y-102960000D03*
X132900000Y-101690000D03*
X132900000Y-100420000D03*
X132900000Y-99150000D03*
X132900000Y-97880000D03*
X132900000Y-96610000D03*
D12*
X131135000Y-95360000D03*
X129865000Y-95360000D03*
X128595000Y-95360000D03*
X127325000Y-95360000D03*
X126055000Y-95360000D03*
X124785000Y-95360000D03*
X123515000Y-95360000D03*
X122245000Y-95360000D03*
X120975000Y-95360000D03*
X119705000Y-95360000D03*
X118435000Y-95360000D03*
X117165000Y-95360000D03*
D11*
X115400000Y-96610000D03*
X115400000Y-97880000D03*
X115400000Y-99150000D03*
X115400000Y-100420000D03*
X115400000Y-101690000D03*
X115400000Y-102960000D03*
X115400000Y-104230000D03*
X115400000Y-105500000D03*
X115400000Y-106770000D03*
X115400000Y-108040000D03*
X115400000Y-109310000D03*
X115400000Y-110580000D03*
X115400000Y-111850000D03*
X115400000Y-113120000D03*
D13*
X127050000Y-106800000D03*
X127050000Y-105400000D03*
X127050000Y-104000000D03*
X127050000Y-104000000D03*
X125650000Y-106800000D03*
X125650000Y-106800000D03*
X125650000Y-105400000D03*
X125650000Y-104000000D03*
X124250000Y-106800000D03*
X124250000Y-105400000D03*
X124250000Y-104000000D03*
D14*
X119150000Y-84800000D03*
X119150000Y-82500000D03*
D15*
X112850000Y-82500000D03*
D14*
X119150000Y-80200000D03*
D16*
X127750000Y-92750000D03*
X127750000Y-90750000D03*
D17*
X115212500Y-87750000D03*
X117287500Y-87750000D03*
D18*
X129000000Y-75250000D03*
X130400000Y-75250000D03*
D19*
X122500000Y-80212500D03*
X122500000Y-82287500D03*
D20*
X140250000Y-117250000D03*
D21*
X127140000Y-70605000D03*
X121360000Y-70605000D03*
D22*
X127450000Y-71680000D03*
X126650000Y-71680000D03*
D23*
X125500000Y-71680000D03*
X124500000Y-71680000D03*
X124000000Y-71680000D03*
X123000000Y-71680000D03*
D22*
X121850000Y-71680000D03*
X121050000Y-71680000D03*
X121050000Y-71680000D03*
X121850000Y-71680000D03*
D23*
X122500000Y-71680000D03*
X123500000Y-71680000D03*
X125000000Y-71680000D03*
X126000000Y-71680000D03*
D22*
X126650000Y-71680000D03*
X127450000Y-71680000D03*
D24*
X128570000Y-71105000D03*
D25*
X128570000Y-66925000D03*
D24*
X119930000Y-71105000D03*
D25*
X119930000Y-66925000D03*
D16*
X118000000Y-92500000D03*
X118000000Y-90500000D03*
X131700000Y-69500000D03*
X131700000Y-67500000D03*
D26*
X139150000Y-97625000D03*
X139150000Y-96375000D03*
X139150000Y-95125000D03*
X139150000Y-93875000D03*
X139150000Y-92625000D03*
X139150000Y-91375000D03*
D27*
X142350000Y-99475000D03*
X142350000Y-89525000D03*
D26*
X139150000Y-110375000D03*
X139150000Y-109125000D03*
X139150000Y-107875000D03*
X139150000Y-106625000D03*
X139150000Y-105375000D03*
X139150000Y-104125000D03*
D27*
X142350000Y-112225000D03*
X142350000Y-102275000D03*
D16*
X116750000Y-69500000D03*
X116750000Y-67500000D03*
D20*
X108250000Y-68250000D03*
D28*
X123450000Y-74500000D03*
X122050000Y-74500000D03*
D20*
X108250000Y-117250000D03*
D18*
X125000000Y-74500000D03*
X126400000Y-74500000D03*
D16*
X131250000Y-92750000D03*
X131250000Y-90750000D03*
D29*
X115250000Y-92525000D03*
X115250000Y-90475000D03*
D30*
X136250000Y-84000000D03*
X136250000Y-82000000D03*
X136250000Y-80000000D03*
D31*
X142000000Y-86350000D03*
X142000000Y-77650000D03*
D20*
X140250000Y-68250000D03*
D32*
X128000000Y-85200000D03*
X128000000Y-79800000D03*
M02*
