%TF.GenerationSoftware,KiCad,Pcbnew,8.0.8*%
%TF.CreationDate,2025-01-22T20:31:06-06:00*%
%TF.ProjectId,mainboard,6d61696e-626f-4617-9264-2e6b69636164,rev?*%
%TF.SameCoordinates,Original*%
%TF.FileFunction,Drillmap*%
%TF.FilePolarity,Positive*%
%FSLAX45Y45*%
G04 Gerber Fmt 4.5, Leading zero omitted, Abs format (unit mm)*
G04 Created by KiCad (PCBNEW 8.0.8) date 2025-01-22 20:31:06*
%MOMM*%
%LPD*%
G01*
G04 APERTURE LIST*
%ADD10C,0.050000*%
%ADD11C,0.200000*%
%ADD12C,0.100000*%
G04 APERTURE END LIST*
D10*
X10425000Y-6425000D02*
X14425000Y-6425000D01*
X14425000Y-12125000D01*
X10425000Y-12125000D01*
X10425000Y-6425000D01*
D11*
D12*
X11370000Y-9760000D02*
X11400000Y-9790000D01*
X11400000Y-9760000D02*
X11370000Y-9790000D01*
X11535000Y-8360000D02*
X11565000Y-8390000D01*
X11565000Y-8360000D02*
X11535000Y-8390000D01*
X11885000Y-8935000D02*
X11915000Y-8965000D01*
X11915000Y-8935000D02*
X11885000Y-8965000D01*
X12010000Y-9085000D02*
X12040000Y-9115000D01*
X12040000Y-9085000D02*
X12010000Y-9115000D01*
X12060000Y-7485000D02*
X12090000Y-7515000D01*
X12090000Y-7485000D02*
X12060000Y-7515000D01*
X12110000Y-8535000D02*
X12140000Y-8565000D01*
X12140000Y-8535000D02*
X12110000Y-8565000D01*
X12110000Y-8935000D02*
X12140000Y-8965000D01*
X12140000Y-8935000D02*
X12110000Y-8965000D01*
X12460000Y-8935000D02*
X12490000Y-8965000D01*
X12490000Y-8935000D02*
X12460000Y-8965000D01*
X12460000Y-9175000D02*
X12490000Y-9205000D01*
X12490000Y-9175000D02*
X12460000Y-9205000D01*
X12460000Y-9310000D02*
X12490000Y-9340000D01*
X12490000Y-9310000D02*
X12460000Y-9340000D01*
X12585000Y-9035000D02*
X12615000Y-9065000D01*
X12615000Y-9035000D02*
X12585000Y-9065000D01*
X12585000Y-9310000D02*
X12615000Y-9340000D01*
X12615000Y-9310000D02*
X12585000Y-9340000D01*
X12710000Y-9055000D02*
X12740000Y-9085000D01*
X12740000Y-9055000D02*
X12710000Y-9085000D01*
X12710000Y-9310000D02*
X12740000Y-9340000D01*
X12740000Y-9310000D02*
X12710000Y-9340000D01*
X12755000Y-7485000D02*
X12785000Y-7515000D01*
X12785000Y-7485000D02*
X12755000Y-7515000D01*
X12835000Y-8870000D02*
X12865000Y-8900000D01*
X12865000Y-8870000D02*
X12835000Y-8900000D01*
X12835000Y-9110000D02*
X12865000Y-9140000D01*
X12865000Y-9110000D02*
X12835000Y-9140000D01*
X12835000Y-9310000D02*
X12865000Y-9340000D01*
X12865000Y-9310000D02*
X12835000Y-9340000D01*
X13185000Y-8925000D02*
X13215000Y-8955000D01*
X13215000Y-8925000D02*
X13185000Y-8955000D01*
X13185000Y-9125000D02*
X13215000Y-9155000D01*
X13215000Y-9125000D02*
X13185000Y-9155000D01*
X13435000Y-8750000D02*
X13465000Y-8780000D01*
X13465000Y-8750000D02*
X13435000Y-8780000D01*
X13435000Y-9610000D02*
X13465000Y-9640000D01*
X13465000Y-9610000D02*
X13435000Y-9640000D01*
X13435000Y-9760000D02*
X13465000Y-9790000D01*
X13465000Y-9760000D02*
X13435000Y-9790000D01*
X13460000Y-9900000D02*
X13490000Y-9930000D01*
X13490000Y-9900000D02*
X13460000Y-9930000D01*
X13460000Y-10535000D02*
X13490000Y-10565000D01*
X13490000Y-10535000D02*
X13460000Y-10565000D01*
X13460000Y-10662000D02*
X13490000Y-10692000D01*
X13490000Y-10662000D02*
X13460000Y-10692000D01*
X13460000Y-10789000D02*
X13490000Y-10819000D01*
X13490000Y-10789000D02*
X13460000Y-10819000D01*
X13485000Y-11285000D02*
X13515000Y-11315000D01*
X13515000Y-11285000D02*
X13485000Y-11315000D01*
X13491123Y-11159040D02*
X13521123Y-11189040D01*
X13521123Y-11159040D02*
X13491123Y-11189040D01*
X13510289Y-8722953D02*
X13540289Y-8752953D01*
X13540289Y-8722953D02*
X13510289Y-8752953D01*
X13585000Y-8800000D02*
X13615000Y-8830000D01*
X13615000Y-8800000D02*
X13585000Y-8830000D01*
X13585000Y-10085000D02*
X13615000Y-10115000D01*
X13615000Y-10085000D02*
X13585000Y-10115000D01*
X13585000Y-10535000D02*
X13615000Y-10565000D01*
X13615000Y-10535000D02*
X13585000Y-10565000D01*
X13710000Y-9085000D02*
X13740000Y-9115000D01*
X13740000Y-9085000D02*
X13710000Y-9115000D01*
X13710000Y-9935000D02*
X13740000Y-9965000D01*
X13740000Y-9935000D02*
X13710000Y-9965000D01*
X12300000Y-7325000D02*
G75*
G02*
X12250000Y-7325000I-25000J0D01*
G01*
X12250000Y-7325000D02*
G75*
G02*
X12300000Y-7325000I25000J0D01*
G01*
X12625000Y-7325000D02*
G75*
G02*
X12575000Y-7325000I-25000J0D01*
G01*
X12575000Y-7325000D02*
G75*
G02*
X12625000Y-7325000I25000J0D01*
G01*
X11993000Y-6662500D02*
X11993000Y-6722500D01*
X11963000Y-6692500D02*
X12023000Y-6692500D01*
X12023000Y-6732500D02*
X12023000Y-6652500D01*
X11963000Y-6652500D02*
G75*
G02*
X12023000Y-6652500I30000J0D01*
G01*
X11963000Y-6652500D02*
X11963000Y-6732500D01*
X11963000Y-6732500D02*
G75*
G03*
X12023000Y-6732500I30000J0D01*
G01*
X11993000Y-7080500D02*
X11993000Y-7140500D01*
X11963000Y-7110500D02*
X12023000Y-7110500D01*
X12023000Y-7165500D02*
X12023000Y-7055500D01*
X11963000Y-7055500D02*
G75*
G02*
X12023000Y-7055500I30000J0D01*
G01*
X11963000Y-7055500D02*
X11963000Y-7165500D01*
X11963000Y-7165500D02*
G75*
G03*
X12023000Y-7165500I30000J0D01*
G01*
X12857000Y-6662500D02*
X12857000Y-6722500D01*
X12827000Y-6692500D02*
X12887000Y-6692500D01*
X12887000Y-6732500D02*
X12887000Y-6652500D01*
X12827000Y-6652500D02*
G75*
G02*
X12887000Y-6652500I30000J0D01*
G01*
X12827000Y-6652500D02*
X12827000Y-6732500D01*
X12827000Y-6732500D02*
G75*
G03*
X12887000Y-6732500I30000J0D01*
G01*
X12857000Y-7080500D02*
X12857000Y-7140500D01*
X12827000Y-7110500D02*
X12887000Y-7110500D01*
X12887000Y-7165500D02*
X12887000Y-7055500D01*
X12827000Y-7055500D02*
G75*
G02*
X12887000Y-7055500I30000J0D01*
G01*
X12827000Y-7055500D02*
X12827000Y-7165500D01*
X12827000Y-7165500D02*
G75*
G03*
X12887000Y-7165500I30000J0D01*
G01*
D11*
X10683277Y-12438984D02*
X10683277Y-12238984D01*
X10683277Y-12238984D02*
X10730896Y-12238984D01*
X10730896Y-12238984D02*
X10759467Y-12248508D01*
X10759467Y-12248508D02*
X10778515Y-12267555D01*
X10778515Y-12267555D02*
X10788039Y-12286603D01*
X10788039Y-12286603D02*
X10797563Y-12324698D01*
X10797563Y-12324698D02*
X10797563Y-12353269D01*
X10797563Y-12353269D02*
X10788039Y-12391365D01*
X10788039Y-12391365D02*
X10778515Y-12410412D01*
X10778515Y-12410412D02*
X10759467Y-12429460D01*
X10759467Y-12429460D02*
X10730896Y-12438984D01*
X10730896Y-12438984D02*
X10683277Y-12438984D01*
X10883277Y-12438984D02*
X10883277Y-12305650D01*
X10883277Y-12343746D02*
X10892801Y-12324698D01*
X10892801Y-12324698D02*
X10902324Y-12315174D01*
X10902324Y-12315174D02*
X10921372Y-12305650D01*
X10921372Y-12305650D02*
X10940420Y-12305650D01*
X11007086Y-12438984D02*
X11007086Y-12305650D01*
X11007086Y-12238984D02*
X10997563Y-12248508D01*
X10997563Y-12248508D02*
X11007086Y-12258031D01*
X11007086Y-12258031D02*
X11016610Y-12248508D01*
X11016610Y-12248508D02*
X11007086Y-12238984D01*
X11007086Y-12238984D02*
X11007086Y-12258031D01*
X11130896Y-12438984D02*
X11111848Y-12429460D01*
X11111848Y-12429460D02*
X11102324Y-12410412D01*
X11102324Y-12410412D02*
X11102324Y-12238984D01*
X11235658Y-12438984D02*
X11216610Y-12429460D01*
X11216610Y-12429460D02*
X11207086Y-12410412D01*
X11207086Y-12410412D02*
X11207086Y-12238984D01*
X11464229Y-12438984D02*
X11464229Y-12238984D01*
X11464229Y-12238984D02*
X11530896Y-12381841D01*
X11530896Y-12381841D02*
X11597562Y-12238984D01*
X11597562Y-12238984D02*
X11597562Y-12438984D01*
X11778515Y-12438984D02*
X11778515Y-12334222D01*
X11778515Y-12334222D02*
X11768991Y-12315174D01*
X11768991Y-12315174D02*
X11749943Y-12305650D01*
X11749943Y-12305650D02*
X11711848Y-12305650D01*
X11711848Y-12305650D02*
X11692801Y-12315174D01*
X11778515Y-12429460D02*
X11759467Y-12438984D01*
X11759467Y-12438984D02*
X11711848Y-12438984D01*
X11711848Y-12438984D02*
X11692801Y-12429460D01*
X11692801Y-12429460D02*
X11683277Y-12410412D01*
X11683277Y-12410412D02*
X11683277Y-12391365D01*
X11683277Y-12391365D02*
X11692801Y-12372317D01*
X11692801Y-12372317D02*
X11711848Y-12362793D01*
X11711848Y-12362793D02*
X11759467Y-12362793D01*
X11759467Y-12362793D02*
X11778515Y-12353269D01*
X11873753Y-12305650D02*
X11873753Y-12505650D01*
X11873753Y-12315174D02*
X11892801Y-12305650D01*
X11892801Y-12305650D02*
X11930896Y-12305650D01*
X11930896Y-12305650D02*
X11949943Y-12315174D01*
X11949943Y-12315174D02*
X11959467Y-12324698D01*
X11959467Y-12324698D02*
X11968991Y-12343746D01*
X11968991Y-12343746D02*
X11968991Y-12400888D01*
X11968991Y-12400888D02*
X11959467Y-12419936D01*
X11959467Y-12419936D02*
X11949943Y-12429460D01*
X11949943Y-12429460D02*
X11930896Y-12438984D01*
X11930896Y-12438984D02*
X11892801Y-12438984D01*
X11892801Y-12438984D02*
X11873753Y-12429460D01*
X12054705Y-12419936D02*
X12064229Y-12429460D01*
X12064229Y-12429460D02*
X12054705Y-12438984D01*
X12054705Y-12438984D02*
X12045182Y-12429460D01*
X12045182Y-12429460D02*
X12054705Y-12419936D01*
X12054705Y-12419936D02*
X12054705Y-12438984D01*
X12054705Y-12315174D02*
X12064229Y-12324698D01*
X12064229Y-12324698D02*
X12054705Y-12334222D01*
X12054705Y-12334222D02*
X12045182Y-12324698D01*
X12045182Y-12324698D02*
X12054705Y-12315174D01*
X12054705Y-12315174D02*
X12054705Y-12334222D01*
D12*
X10392500Y-12752500D02*
X10422500Y-12782500D01*
X10422500Y-12752500D02*
X10392500Y-12782500D01*
D11*
X10721372Y-12658984D02*
X10740420Y-12658984D01*
X10740420Y-12658984D02*
X10759467Y-12668508D01*
X10759467Y-12668508D02*
X10768991Y-12678031D01*
X10768991Y-12678031D02*
X10778515Y-12697079D01*
X10778515Y-12697079D02*
X10788039Y-12735174D01*
X10788039Y-12735174D02*
X10788039Y-12782793D01*
X10788039Y-12782793D02*
X10778515Y-12820888D01*
X10778515Y-12820888D02*
X10768991Y-12839936D01*
X10768991Y-12839936D02*
X10759467Y-12849460D01*
X10759467Y-12849460D02*
X10740420Y-12858984D01*
X10740420Y-12858984D02*
X10721372Y-12858984D01*
X10721372Y-12858984D02*
X10702324Y-12849460D01*
X10702324Y-12849460D02*
X10692801Y-12839936D01*
X10692801Y-12839936D02*
X10683277Y-12820888D01*
X10683277Y-12820888D02*
X10673753Y-12782793D01*
X10673753Y-12782793D02*
X10673753Y-12735174D01*
X10673753Y-12735174D02*
X10683277Y-12697079D01*
X10683277Y-12697079D02*
X10692801Y-12678031D01*
X10692801Y-12678031D02*
X10702324Y-12668508D01*
X10702324Y-12668508D02*
X10721372Y-12658984D01*
X10873753Y-12839936D02*
X10883277Y-12849460D01*
X10883277Y-12849460D02*
X10873753Y-12858984D01*
X10873753Y-12858984D02*
X10864229Y-12849460D01*
X10864229Y-12849460D02*
X10873753Y-12839936D01*
X10873753Y-12839936D02*
X10873753Y-12858984D01*
X10949944Y-12658984D02*
X11073753Y-12658984D01*
X11073753Y-12658984D02*
X11007086Y-12735174D01*
X11007086Y-12735174D02*
X11035658Y-12735174D01*
X11035658Y-12735174D02*
X11054705Y-12744698D01*
X11054705Y-12744698D02*
X11064229Y-12754222D01*
X11064229Y-12754222D02*
X11073753Y-12773269D01*
X11073753Y-12773269D02*
X11073753Y-12820888D01*
X11073753Y-12820888D02*
X11064229Y-12839936D01*
X11064229Y-12839936D02*
X11054705Y-12849460D01*
X11054705Y-12849460D02*
X11035658Y-12858984D01*
X11035658Y-12858984D02*
X10978515Y-12858984D01*
X10978515Y-12858984D02*
X10959467Y-12849460D01*
X10959467Y-12849460D02*
X10949944Y-12839936D01*
X11197562Y-12658984D02*
X11216610Y-12658984D01*
X11216610Y-12658984D02*
X11235658Y-12668508D01*
X11235658Y-12668508D02*
X11245182Y-12678031D01*
X11245182Y-12678031D02*
X11254705Y-12697079D01*
X11254705Y-12697079D02*
X11264229Y-12735174D01*
X11264229Y-12735174D02*
X11264229Y-12782793D01*
X11264229Y-12782793D02*
X11254705Y-12820888D01*
X11254705Y-12820888D02*
X11245182Y-12839936D01*
X11245182Y-12839936D02*
X11235658Y-12849460D01*
X11235658Y-12849460D02*
X11216610Y-12858984D01*
X11216610Y-12858984D02*
X11197562Y-12858984D01*
X11197562Y-12858984D02*
X11178515Y-12849460D01*
X11178515Y-12849460D02*
X11168991Y-12839936D01*
X11168991Y-12839936D02*
X11159467Y-12820888D01*
X11159467Y-12820888D02*
X11149944Y-12782793D01*
X11149944Y-12782793D02*
X11149944Y-12735174D01*
X11149944Y-12735174D02*
X11159467Y-12697079D01*
X11159467Y-12697079D02*
X11168991Y-12678031D01*
X11168991Y-12678031D02*
X11178515Y-12668508D01*
X11178515Y-12668508D02*
X11197562Y-12658984D01*
X11388039Y-12658984D02*
X11407086Y-12658984D01*
X11407086Y-12658984D02*
X11426134Y-12668508D01*
X11426134Y-12668508D02*
X11435658Y-12678031D01*
X11435658Y-12678031D02*
X11445182Y-12697079D01*
X11445182Y-12697079D02*
X11454705Y-12735174D01*
X11454705Y-12735174D02*
X11454705Y-12782793D01*
X11454705Y-12782793D02*
X11445182Y-12820888D01*
X11445182Y-12820888D02*
X11435658Y-12839936D01*
X11435658Y-12839936D02*
X11426134Y-12849460D01*
X11426134Y-12849460D02*
X11407086Y-12858984D01*
X11407086Y-12858984D02*
X11388039Y-12858984D01*
X11388039Y-12858984D02*
X11368991Y-12849460D01*
X11368991Y-12849460D02*
X11359467Y-12839936D01*
X11359467Y-12839936D02*
X11349943Y-12820888D01*
X11349943Y-12820888D02*
X11340420Y-12782793D01*
X11340420Y-12782793D02*
X11340420Y-12735174D01*
X11340420Y-12735174D02*
X11349943Y-12697079D01*
X11349943Y-12697079D02*
X11359467Y-12678031D01*
X11359467Y-12678031D02*
X11368991Y-12668508D01*
X11368991Y-12668508D02*
X11388039Y-12658984D01*
X11540420Y-12858984D02*
X11540420Y-12725650D01*
X11540420Y-12744698D02*
X11549943Y-12735174D01*
X11549943Y-12735174D02*
X11568991Y-12725650D01*
X11568991Y-12725650D02*
X11597563Y-12725650D01*
X11597563Y-12725650D02*
X11616610Y-12735174D01*
X11616610Y-12735174D02*
X11626134Y-12754222D01*
X11626134Y-12754222D02*
X11626134Y-12858984D01*
X11626134Y-12754222D02*
X11635658Y-12735174D01*
X11635658Y-12735174D02*
X11654705Y-12725650D01*
X11654705Y-12725650D02*
X11683277Y-12725650D01*
X11683277Y-12725650D02*
X11702324Y-12735174D01*
X11702324Y-12735174D02*
X11711848Y-12754222D01*
X11711848Y-12754222D02*
X11711848Y-12858984D01*
X11807086Y-12858984D02*
X11807086Y-12725650D01*
X11807086Y-12744698D02*
X11816610Y-12735174D01*
X11816610Y-12735174D02*
X11835658Y-12725650D01*
X11835658Y-12725650D02*
X11864229Y-12725650D01*
X11864229Y-12725650D02*
X11883277Y-12735174D01*
X11883277Y-12735174D02*
X11892801Y-12754222D01*
X11892801Y-12754222D02*
X11892801Y-12858984D01*
X11892801Y-12754222D02*
X11902324Y-12735174D01*
X11902324Y-12735174D02*
X11921372Y-12725650D01*
X11921372Y-12725650D02*
X11949943Y-12725650D01*
X11949943Y-12725650D02*
X11968991Y-12735174D01*
X11968991Y-12735174D02*
X11978515Y-12754222D01*
X11978515Y-12754222D02*
X11978515Y-12858984D01*
X12368991Y-12649460D02*
X12197563Y-12906603D01*
X12626134Y-12658984D02*
X12645182Y-12658984D01*
X12645182Y-12658984D02*
X12664229Y-12668508D01*
X12664229Y-12668508D02*
X12673753Y-12678031D01*
X12673753Y-12678031D02*
X12683277Y-12697079D01*
X12683277Y-12697079D02*
X12692801Y-12735174D01*
X12692801Y-12735174D02*
X12692801Y-12782793D01*
X12692801Y-12782793D02*
X12683277Y-12820888D01*
X12683277Y-12820888D02*
X12673753Y-12839936D01*
X12673753Y-12839936D02*
X12664229Y-12849460D01*
X12664229Y-12849460D02*
X12645182Y-12858984D01*
X12645182Y-12858984D02*
X12626134Y-12858984D01*
X12626134Y-12858984D02*
X12607086Y-12849460D01*
X12607086Y-12849460D02*
X12597563Y-12839936D01*
X12597563Y-12839936D02*
X12588039Y-12820888D01*
X12588039Y-12820888D02*
X12578515Y-12782793D01*
X12578515Y-12782793D02*
X12578515Y-12735174D01*
X12578515Y-12735174D02*
X12588039Y-12697079D01*
X12588039Y-12697079D02*
X12597563Y-12678031D01*
X12597563Y-12678031D02*
X12607086Y-12668508D01*
X12607086Y-12668508D02*
X12626134Y-12658984D01*
X12778515Y-12839936D02*
X12788039Y-12849460D01*
X12788039Y-12849460D02*
X12778515Y-12858984D01*
X12778515Y-12858984D02*
X12768991Y-12849460D01*
X12768991Y-12849460D02*
X12778515Y-12839936D01*
X12778515Y-12839936D02*
X12778515Y-12858984D01*
X12911848Y-12658984D02*
X12930896Y-12658984D01*
X12930896Y-12658984D02*
X12949944Y-12668508D01*
X12949944Y-12668508D02*
X12959467Y-12678031D01*
X12959467Y-12678031D02*
X12968991Y-12697079D01*
X12968991Y-12697079D02*
X12978515Y-12735174D01*
X12978515Y-12735174D02*
X12978515Y-12782793D01*
X12978515Y-12782793D02*
X12968991Y-12820888D01*
X12968991Y-12820888D02*
X12959467Y-12839936D01*
X12959467Y-12839936D02*
X12949944Y-12849460D01*
X12949944Y-12849460D02*
X12930896Y-12858984D01*
X12930896Y-12858984D02*
X12911848Y-12858984D01*
X12911848Y-12858984D02*
X12892801Y-12849460D01*
X12892801Y-12849460D02*
X12883277Y-12839936D01*
X12883277Y-12839936D02*
X12873753Y-12820888D01*
X12873753Y-12820888D02*
X12864229Y-12782793D01*
X12864229Y-12782793D02*
X12864229Y-12735174D01*
X12864229Y-12735174D02*
X12873753Y-12697079D01*
X12873753Y-12697079D02*
X12883277Y-12678031D01*
X12883277Y-12678031D02*
X12892801Y-12668508D01*
X12892801Y-12668508D02*
X12911848Y-12658984D01*
X13168991Y-12858984D02*
X13054706Y-12858984D01*
X13111848Y-12858984D02*
X13111848Y-12658984D01*
X13111848Y-12658984D02*
X13092801Y-12687555D01*
X13092801Y-12687555D02*
X13073753Y-12706603D01*
X13073753Y-12706603D02*
X13054706Y-12716127D01*
X13359467Y-12858984D02*
X13245182Y-12858984D01*
X13302325Y-12858984D02*
X13302325Y-12658984D01*
X13302325Y-12658984D02*
X13283277Y-12687555D01*
X13283277Y-12687555D02*
X13264229Y-12706603D01*
X13264229Y-12706603D02*
X13245182Y-12716127D01*
X13473753Y-12744698D02*
X13454706Y-12735174D01*
X13454706Y-12735174D02*
X13445182Y-12725650D01*
X13445182Y-12725650D02*
X13435658Y-12706603D01*
X13435658Y-12706603D02*
X13435658Y-12697079D01*
X13435658Y-12697079D02*
X13445182Y-12678031D01*
X13445182Y-12678031D02*
X13454706Y-12668508D01*
X13454706Y-12668508D02*
X13473753Y-12658984D01*
X13473753Y-12658984D02*
X13511848Y-12658984D01*
X13511848Y-12658984D02*
X13530896Y-12668508D01*
X13530896Y-12668508D02*
X13540420Y-12678031D01*
X13540420Y-12678031D02*
X13549944Y-12697079D01*
X13549944Y-12697079D02*
X13549944Y-12706603D01*
X13549944Y-12706603D02*
X13540420Y-12725650D01*
X13540420Y-12725650D02*
X13530896Y-12735174D01*
X13530896Y-12735174D02*
X13511848Y-12744698D01*
X13511848Y-12744698D02*
X13473753Y-12744698D01*
X13473753Y-12744698D02*
X13454706Y-12754222D01*
X13454706Y-12754222D02*
X13445182Y-12763746D01*
X13445182Y-12763746D02*
X13435658Y-12782793D01*
X13435658Y-12782793D02*
X13435658Y-12820888D01*
X13435658Y-12820888D02*
X13445182Y-12839936D01*
X13445182Y-12839936D02*
X13454706Y-12849460D01*
X13454706Y-12849460D02*
X13473753Y-12858984D01*
X13473753Y-12858984D02*
X13511848Y-12858984D01*
X13511848Y-12858984D02*
X13530896Y-12849460D01*
X13530896Y-12849460D02*
X13540420Y-12839936D01*
X13540420Y-12839936D02*
X13549944Y-12820888D01*
X13549944Y-12820888D02*
X13549944Y-12782793D01*
X13549944Y-12782793D02*
X13540420Y-12763746D01*
X13540420Y-12763746D02*
X13530896Y-12754222D01*
X13530896Y-12754222D02*
X13511848Y-12744698D01*
X13626134Y-12658984D02*
X13626134Y-12697079D01*
X13702325Y-12658984D02*
X13702325Y-12697079D01*
X13997563Y-12935174D02*
X13988039Y-12925650D01*
X13988039Y-12925650D02*
X13968991Y-12897079D01*
X13968991Y-12897079D02*
X13959468Y-12878031D01*
X13959468Y-12878031D02*
X13949944Y-12849460D01*
X13949944Y-12849460D02*
X13940420Y-12801841D01*
X13940420Y-12801841D02*
X13940420Y-12763746D01*
X13940420Y-12763746D02*
X13949944Y-12716127D01*
X13949944Y-12716127D02*
X13959468Y-12687555D01*
X13959468Y-12687555D02*
X13968991Y-12668508D01*
X13968991Y-12668508D02*
X13988039Y-12639936D01*
X13988039Y-12639936D02*
X13997563Y-12630412D01*
X14054706Y-12658984D02*
X14178515Y-12658984D01*
X14178515Y-12658984D02*
X14111848Y-12735174D01*
X14111848Y-12735174D02*
X14140420Y-12735174D01*
X14140420Y-12735174D02*
X14159468Y-12744698D01*
X14159468Y-12744698D02*
X14168991Y-12754222D01*
X14168991Y-12754222D02*
X14178515Y-12773269D01*
X14178515Y-12773269D02*
X14178515Y-12820888D01*
X14178515Y-12820888D02*
X14168991Y-12839936D01*
X14168991Y-12839936D02*
X14159468Y-12849460D01*
X14159468Y-12849460D02*
X14140420Y-12858984D01*
X14140420Y-12858984D02*
X14083277Y-12858984D01*
X14083277Y-12858984D02*
X14064229Y-12849460D01*
X14064229Y-12849460D02*
X14054706Y-12839936D01*
X14359468Y-12658984D02*
X14264229Y-12658984D01*
X14264229Y-12658984D02*
X14254706Y-12754222D01*
X14254706Y-12754222D02*
X14264229Y-12744698D01*
X14264229Y-12744698D02*
X14283277Y-12735174D01*
X14283277Y-12735174D02*
X14330896Y-12735174D01*
X14330896Y-12735174D02*
X14349944Y-12744698D01*
X14349944Y-12744698D02*
X14359468Y-12754222D01*
X14359468Y-12754222D02*
X14368991Y-12773269D01*
X14368991Y-12773269D02*
X14368991Y-12820888D01*
X14368991Y-12820888D02*
X14359468Y-12839936D01*
X14359468Y-12839936D02*
X14349944Y-12849460D01*
X14349944Y-12849460D02*
X14330896Y-12858984D01*
X14330896Y-12858984D02*
X14283277Y-12858984D01*
X14283277Y-12858984D02*
X14264229Y-12849460D01*
X14264229Y-12849460D02*
X14254706Y-12839936D01*
X14607087Y-12858984D02*
X14607087Y-12658984D01*
X14692801Y-12858984D02*
X14692801Y-12754222D01*
X14692801Y-12754222D02*
X14683277Y-12735174D01*
X14683277Y-12735174D02*
X14664230Y-12725650D01*
X14664230Y-12725650D02*
X14635658Y-12725650D01*
X14635658Y-12725650D02*
X14616610Y-12735174D01*
X14616610Y-12735174D02*
X14607087Y-12744698D01*
X14816610Y-12858984D02*
X14797563Y-12849460D01*
X14797563Y-12849460D02*
X14788039Y-12839936D01*
X14788039Y-12839936D02*
X14778515Y-12820888D01*
X14778515Y-12820888D02*
X14778515Y-12763746D01*
X14778515Y-12763746D02*
X14788039Y-12744698D01*
X14788039Y-12744698D02*
X14797563Y-12735174D01*
X14797563Y-12735174D02*
X14816610Y-12725650D01*
X14816610Y-12725650D02*
X14845182Y-12725650D01*
X14845182Y-12725650D02*
X14864230Y-12735174D01*
X14864230Y-12735174D02*
X14873753Y-12744698D01*
X14873753Y-12744698D02*
X14883277Y-12763746D01*
X14883277Y-12763746D02*
X14883277Y-12820888D01*
X14883277Y-12820888D02*
X14873753Y-12839936D01*
X14873753Y-12839936D02*
X14864230Y-12849460D01*
X14864230Y-12849460D02*
X14845182Y-12858984D01*
X14845182Y-12858984D02*
X14816610Y-12858984D01*
X14997563Y-12858984D02*
X14978515Y-12849460D01*
X14978515Y-12849460D02*
X14968991Y-12830412D01*
X14968991Y-12830412D02*
X14968991Y-12658984D01*
X15149944Y-12849460D02*
X15130896Y-12858984D01*
X15130896Y-12858984D02*
X15092801Y-12858984D01*
X15092801Y-12858984D02*
X15073753Y-12849460D01*
X15073753Y-12849460D02*
X15064230Y-12830412D01*
X15064230Y-12830412D02*
X15064230Y-12754222D01*
X15064230Y-12754222D02*
X15073753Y-12735174D01*
X15073753Y-12735174D02*
X15092801Y-12725650D01*
X15092801Y-12725650D02*
X15130896Y-12725650D01*
X15130896Y-12725650D02*
X15149944Y-12735174D01*
X15149944Y-12735174D02*
X15159468Y-12754222D01*
X15159468Y-12754222D02*
X15159468Y-12773269D01*
X15159468Y-12773269D02*
X15064230Y-12792317D01*
X15235658Y-12849460D02*
X15254706Y-12858984D01*
X15254706Y-12858984D02*
X15292801Y-12858984D01*
X15292801Y-12858984D02*
X15311849Y-12849460D01*
X15311849Y-12849460D02*
X15321372Y-12830412D01*
X15321372Y-12830412D02*
X15321372Y-12820888D01*
X15321372Y-12820888D02*
X15311849Y-12801841D01*
X15311849Y-12801841D02*
X15292801Y-12792317D01*
X15292801Y-12792317D02*
X15264230Y-12792317D01*
X15264230Y-12792317D02*
X15245182Y-12782793D01*
X15245182Y-12782793D02*
X15235658Y-12763746D01*
X15235658Y-12763746D02*
X15235658Y-12754222D01*
X15235658Y-12754222D02*
X15245182Y-12735174D01*
X15245182Y-12735174D02*
X15264230Y-12725650D01*
X15264230Y-12725650D02*
X15292801Y-12725650D01*
X15292801Y-12725650D02*
X15311849Y-12735174D01*
X15388039Y-12935174D02*
X15397563Y-12925650D01*
X15397563Y-12925650D02*
X15416611Y-12897079D01*
X15416611Y-12897079D02*
X15426134Y-12878031D01*
X15426134Y-12878031D02*
X15435658Y-12849460D01*
X15435658Y-12849460D02*
X15445182Y-12801841D01*
X15445182Y-12801841D02*
X15445182Y-12763746D01*
X15445182Y-12763746D02*
X15435658Y-12716127D01*
X15435658Y-12716127D02*
X15426134Y-12687555D01*
X15426134Y-12687555D02*
X15416611Y-12668508D01*
X15416611Y-12668508D02*
X15397563Y-12639936D01*
X15397563Y-12639936D02*
X15388039Y-12630412D01*
D12*
X10422500Y-13031500D02*
G75*
G02*
X10372500Y-13031500I-25000J0D01*
G01*
X10372500Y-13031500D02*
G75*
G02*
X10422500Y-13031500I25000J0D01*
G01*
D11*
X10721372Y-12922984D02*
X10740420Y-12922984D01*
X10740420Y-12922984D02*
X10759467Y-12932508D01*
X10759467Y-12932508D02*
X10768991Y-12942031D01*
X10768991Y-12942031D02*
X10778515Y-12961079D01*
X10778515Y-12961079D02*
X10788039Y-12999174D01*
X10788039Y-12999174D02*
X10788039Y-13046793D01*
X10788039Y-13046793D02*
X10778515Y-13084888D01*
X10778515Y-13084888D02*
X10768991Y-13103936D01*
X10768991Y-13103936D02*
X10759467Y-13113460D01*
X10759467Y-13113460D02*
X10740420Y-13122984D01*
X10740420Y-13122984D02*
X10721372Y-13122984D01*
X10721372Y-13122984D02*
X10702324Y-13113460D01*
X10702324Y-13113460D02*
X10692801Y-13103936D01*
X10692801Y-13103936D02*
X10683277Y-13084888D01*
X10683277Y-13084888D02*
X10673753Y-13046793D01*
X10673753Y-13046793D02*
X10673753Y-12999174D01*
X10673753Y-12999174D02*
X10683277Y-12961079D01*
X10683277Y-12961079D02*
X10692801Y-12942031D01*
X10692801Y-12942031D02*
X10702324Y-12932508D01*
X10702324Y-12932508D02*
X10721372Y-12922984D01*
X10873753Y-13103936D02*
X10883277Y-13113460D01*
X10883277Y-13113460D02*
X10873753Y-13122984D01*
X10873753Y-13122984D02*
X10864229Y-13113460D01*
X10864229Y-13113460D02*
X10873753Y-13103936D01*
X10873753Y-13103936D02*
X10873753Y-13122984D01*
X11064229Y-12922984D02*
X10968991Y-12922984D01*
X10968991Y-12922984D02*
X10959467Y-13018222D01*
X10959467Y-13018222D02*
X10968991Y-13008698D01*
X10968991Y-13008698D02*
X10988039Y-12999174D01*
X10988039Y-12999174D02*
X11035658Y-12999174D01*
X11035658Y-12999174D02*
X11054705Y-13008698D01*
X11054705Y-13008698D02*
X11064229Y-13018222D01*
X11064229Y-13018222D02*
X11073753Y-13037269D01*
X11073753Y-13037269D02*
X11073753Y-13084888D01*
X11073753Y-13084888D02*
X11064229Y-13103936D01*
X11064229Y-13103936D02*
X11054705Y-13113460D01*
X11054705Y-13113460D02*
X11035658Y-13122984D01*
X11035658Y-13122984D02*
X10988039Y-13122984D01*
X10988039Y-13122984D02*
X10968991Y-13113460D01*
X10968991Y-13113460D02*
X10959467Y-13103936D01*
X11197562Y-12922984D02*
X11216610Y-12922984D01*
X11216610Y-12922984D02*
X11235658Y-12932508D01*
X11235658Y-12932508D02*
X11245182Y-12942031D01*
X11245182Y-12942031D02*
X11254705Y-12961079D01*
X11254705Y-12961079D02*
X11264229Y-12999174D01*
X11264229Y-12999174D02*
X11264229Y-13046793D01*
X11264229Y-13046793D02*
X11254705Y-13084888D01*
X11254705Y-13084888D02*
X11245182Y-13103936D01*
X11245182Y-13103936D02*
X11235658Y-13113460D01*
X11235658Y-13113460D02*
X11216610Y-13122984D01*
X11216610Y-13122984D02*
X11197562Y-13122984D01*
X11197562Y-13122984D02*
X11178515Y-13113460D01*
X11178515Y-13113460D02*
X11168991Y-13103936D01*
X11168991Y-13103936D02*
X11159467Y-13084888D01*
X11159467Y-13084888D02*
X11149944Y-13046793D01*
X11149944Y-13046793D02*
X11149944Y-12999174D01*
X11149944Y-12999174D02*
X11159467Y-12961079D01*
X11159467Y-12961079D02*
X11168991Y-12942031D01*
X11168991Y-12942031D02*
X11178515Y-12932508D01*
X11178515Y-12932508D02*
X11197562Y-12922984D01*
X11388039Y-12922984D02*
X11407086Y-12922984D01*
X11407086Y-12922984D02*
X11426134Y-12932508D01*
X11426134Y-12932508D02*
X11435658Y-12942031D01*
X11435658Y-12942031D02*
X11445182Y-12961079D01*
X11445182Y-12961079D02*
X11454705Y-12999174D01*
X11454705Y-12999174D02*
X11454705Y-13046793D01*
X11454705Y-13046793D02*
X11445182Y-13084888D01*
X11445182Y-13084888D02*
X11435658Y-13103936D01*
X11435658Y-13103936D02*
X11426134Y-13113460D01*
X11426134Y-13113460D02*
X11407086Y-13122984D01*
X11407086Y-13122984D02*
X11388039Y-13122984D01*
X11388039Y-13122984D02*
X11368991Y-13113460D01*
X11368991Y-13113460D02*
X11359467Y-13103936D01*
X11359467Y-13103936D02*
X11349943Y-13084888D01*
X11349943Y-13084888D02*
X11340420Y-13046793D01*
X11340420Y-13046793D02*
X11340420Y-12999174D01*
X11340420Y-12999174D02*
X11349943Y-12961079D01*
X11349943Y-12961079D02*
X11359467Y-12942031D01*
X11359467Y-12942031D02*
X11368991Y-12932508D01*
X11368991Y-12932508D02*
X11388039Y-12922984D01*
X11540420Y-13122984D02*
X11540420Y-12989650D01*
X11540420Y-13008698D02*
X11549943Y-12999174D01*
X11549943Y-12999174D02*
X11568991Y-12989650D01*
X11568991Y-12989650D02*
X11597563Y-12989650D01*
X11597563Y-12989650D02*
X11616610Y-12999174D01*
X11616610Y-12999174D02*
X11626134Y-13018222D01*
X11626134Y-13018222D02*
X11626134Y-13122984D01*
X11626134Y-13018222D02*
X11635658Y-12999174D01*
X11635658Y-12999174D02*
X11654705Y-12989650D01*
X11654705Y-12989650D02*
X11683277Y-12989650D01*
X11683277Y-12989650D02*
X11702324Y-12999174D01*
X11702324Y-12999174D02*
X11711848Y-13018222D01*
X11711848Y-13018222D02*
X11711848Y-13122984D01*
X11807086Y-13122984D02*
X11807086Y-12989650D01*
X11807086Y-13008698D02*
X11816610Y-12999174D01*
X11816610Y-12999174D02*
X11835658Y-12989650D01*
X11835658Y-12989650D02*
X11864229Y-12989650D01*
X11864229Y-12989650D02*
X11883277Y-12999174D01*
X11883277Y-12999174D02*
X11892801Y-13018222D01*
X11892801Y-13018222D02*
X11892801Y-13122984D01*
X11892801Y-13018222D02*
X11902324Y-12999174D01*
X11902324Y-12999174D02*
X11921372Y-12989650D01*
X11921372Y-12989650D02*
X11949943Y-12989650D01*
X11949943Y-12989650D02*
X11968991Y-12999174D01*
X11968991Y-12999174D02*
X11978515Y-13018222D01*
X11978515Y-13018222D02*
X11978515Y-13122984D01*
X12368991Y-12913460D02*
X12197563Y-13170603D01*
X12626134Y-12922984D02*
X12645182Y-12922984D01*
X12645182Y-12922984D02*
X12664229Y-12932508D01*
X12664229Y-12932508D02*
X12673753Y-12942031D01*
X12673753Y-12942031D02*
X12683277Y-12961079D01*
X12683277Y-12961079D02*
X12692801Y-12999174D01*
X12692801Y-12999174D02*
X12692801Y-13046793D01*
X12692801Y-13046793D02*
X12683277Y-13084888D01*
X12683277Y-13084888D02*
X12673753Y-13103936D01*
X12673753Y-13103936D02*
X12664229Y-13113460D01*
X12664229Y-13113460D02*
X12645182Y-13122984D01*
X12645182Y-13122984D02*
X12626134Y-13122984D01*
X12626134Y-13122984D02*
X12607086Y-13113460D01*
X12607086Y-13113460D02*
X12597563Y-13103936D01*
X12597563Y-13103936D02*
X12588039Y-13084888D01*
X12588039Y-13084888D02*
X12578515Y-13046793D01*
X12578515Y-13046793D02*
X12578515Y-12999174D01*
X12578515Y-12999174D02*
X12588039Y-12961079D01*
X12588039Y-12961079D02*
X12597563Y-12942031D01*
X12597563Y-12942031D02*
X12607086Y-12932508D01*
X12607086Y-12932508D02*
X12626134Y-12922984D01*
X12778515Y-13103936D02*
X12788039Y-13113460D01*
X12788039Y-13113460D02*
X12778515Y-13122984D01*
X12778515Y-13122984D02*
X12768991Y-13113460D01*
X12768991Y-13113460D02*
X12778515Y-13103936D01*
X12778515Y-13103936D02*
X12778515Y-13122984D01*
X12911848Y-12922984D02*
X12930896Y-12922984D01*
X12930896Y-12922984D02*
X12949944Y-12932508D01*
X12949944Y-12932508D02*
X12959467Y-12942031D01*
X12959467Y-12942031D02*
X12968991Y-12961079D01*
X12968991Y-12961079D02*
X12978515Y-12999174D01*
X12978515Y-12999174D02*
X12978515Y-13046793D01*
X12978515Y-13046793D02*
X12968991Y-13084888D01*
X12968991Y-13084888D02*
X12959467Y-13103936D01*
X12959467Y-13103936D02*
X12949944Y-13113460D01*
X12949944Y-13113460D02*
X12930896Y-13122984D01*
X12930896Y-13122984D02*
X12911848Y-13122984D01*
X12911848Y-13122984D02*
X12892801Y-13113460D01*
X12892801Y-13113460D02*
X12883277Y-13103936D01*
X12883277Y-13103936D02*
X12873753Y-13084888D01*
X12873753Y-13084888D02*
X12864229Y-13046793D01*
X12864229Y-13046793D02*
X12864229Y-12999174D01*
X12864229Y-12999174D02*
X12873753Y-12961079D01*
X12873753Y-12961079D02*
X12883277Y-12942031D01*
X12883277Y-12942031D02*
X12892801Y-12932508D01*
X12892801Y-12932508D02*
X12911848Y-12922984D01*
X13168991Y-13122984D02*
X13054706Y-13122984D01*
X13111848Y-13122984D02*
X13111848Y-12922984D01*
X13111848Y-12922984D02*
X13092801Y-12951555D01*
X13092801Y-12951555D02*
X13073753Y-12970603D01*
X13073753Y-12970603D02*
X13054706Y-12980127D01*
X13264229Y-13122984D02*
X13302325Y-13122984D01*
X13302325Y-13122984D02*
X13321372Y-13113460D01*
X13321372Y-13113460D02*
X13330896Y-13103936D01*
X13330896Y-13103936D02*
X13349944Y-13075365D01*
X13349944Y-13075365D02*
X13359467Y-13037269D01*
X13359467Y-13037269D02*
X13359467Y-12961079D01*
X13359467Y-12961079D02*
X13349944Y-12942031D01*
X13349944Y-12942031D02*
X13340420Y-12932508D01*
X13340420Y-12932508D02*
X13321372Y-12922984D01*
X13321372Y-12922984D02*
X13283277Y-12922984D01*
X13283277Y-12922984D02*
X13264229Y-12932508D01*
X13264229Y-12932508D02*
X13254706Y-12942031D01*
X13254706Y-12942031D02*
X13245182Y-12961079D01*
X13245182Y-12961079D02*
X13245182Y-13008698D01*
X13245182Y-13008698D02*
X13254706Y-13027746D01*
X13254706Y-13027746D02*
X13264229Y-13037269D01*
X13264229Y-13037269D02*
X13283277Y-13046793D01*
X13283277Y-13046793D02*
X13321372Y-13046793D01*
X13321372Y-13046793D02*
X13340420Y-13037269D01*
X13340420Y-13037269D02*
X13349944Y-13027746D01*
X13349944Y-13027746D02*
X13359467Y-13008698D01*
X13426134Y-12922984D02*
X13559467Y-12922984D01*
X13559467Y-12922984D02*
X13473753Y-13122984D01*
X13626134Y-12922984D02*
X13626134Y-12961079D01*
X13702325Y-12922984D02*
X13702325Y-12961079D01*
X13997563Y-13199174D02*
X13988039Y-13189650D01*
X13988039Y-13189650D02*
X13968991Y-13161079D01*
X13968991Y-13161079D02*
X13959468Y-13142031D01*
X13959468Y-13142031D02*
X13949944Y-13113460D01*
X13949944Y-13113460D02*
X13940420Y-13065841D01*
X13940420Y-13065841D02*
X13940420Y-13027746D01*
X13940420Y-13027746D02*
X13949944Y-12980127D01*
X13949944Y-12980127D02*
X13959468Y-12951555D01*
X13959468Y-12951555D02*
X13968991Y-12932508D01*
X13968991Y-12932508D02*
X13988039Y-12903936D01*
X13988039Y-12903936D02*
X13997563Y-12894412D01*
X14064229Y-12942031D02*
X14073753Y-12932508D01*
X14073753Y-12932508D02*
X14092801Y-12922984D01*
X14092801Y-12922984D02*
X14140420Y-12922984D01*
X14140420Y-12922984D02*
X14159468Y-12932508D01*
X14159468Y-12932508D02*
X14168991Y-12942031D01*
X14168991Y-12942031D02*
X14178515Y-12961079D01*
X14178515Y-12961079D02*
X14178515Y-12980127D01*
X14178515Y-12980127D02*
X14168991Y-13008698D01*
X14168991Y-13008698D02*
X14054706Y-13122984D01*
X14054706Y-13122984D02*
X14178515Y-13122984D01*
X14416610Y-13122984D02*
X14416610Y-12922984D01*
X14502325Y-13122984D02*
X14502325Y-13018222D01*
X14502325Y-13018222D02*
X14492801Y-12999174D01*
X14492801Y-12999174D02*
X14473753Y-12989650D01*
X14473753Y-12989650D02*
X14445182Y-12989650D01*
X14445182Y-12989650D02*
X14426134Y-12999174D01*
X14426134Y-12999174D02*
X14416610Y-13008698D01*
X14626134Y-13122984D02*
X14607087Y-13113460D01*
X14607087Y-13113460D02*
X14597563Y-13103936D01*
X14597563Y-13103936D02*
X14588039Y-13084888D01*
X14588039Y-13084888D02*
X14588039Y-13027746D01*
X14588039Y-13027746D02*
X14597563Y-13008698D01*
X14597563Y-13008698D02*
X14607087Y-12999174D01*
X14607087Y-12999174D02*
X14626134Y-12989650D01*
X14626134Y-12989650D02*
X14654706Y-12989650D01*
X14654706Y-12989650D02*
X14673753Y-12999174D01*
X14673753Y-12999174D02*
X14683277Y-13008698D01*
X14683277Y-13008698D02*
X14692801Y-13027746D01*
X14692801Y-13027746D02*
X14692801Y-13084888D01*
X14692801Y-13084888D02*
X14683277Y-13103936D01*
X14683277Y-13103936D02*
X14673753Y-13113460D01*
X14673753Y-13113460D02*
X14654706Y-13122984D01*
X14654706Y-13122984D02*
X14626134Y-13122984D01*
X14807087Y-13122984D02*
X14788039Y-13113460D01*
X14788039Y-13113460D02*
X14778515Y-13094412D01*
X14778515Y-13094412D02*
X14778515Y-12922984D01*
X14959468Y-13113460D02*
X14940420Y-13122984D01*
X14940420Y-13122984D02*
X14902325Y-13122984D01*
X14902325Y-13122984D02*
X14883277Y-13113460D01*
X14883277Y-13113460D02*
X14873753Y-13094412D01*
X14873753Y-13094412D02*
X14873753Y-13018222D01*
X14873753Y-13018222D02*
X14883277Y-12999174D01*
X14883277Y-12999174D02*
X14902325Y-12989650D01*
X14902325Y-12989650D02*
X14940420Y-12989650D01*
X14940420Y-12989650D02*
X14959468Y-12999174D01*
X14959468Y-12999174D02*
X14968991Y-13018222D01*
X14968991Y-13018222D02*
X14968991Y-13037269D01*
X14968991Y-13037269D02*
X14873753Y-13056317D01*
X15045182Y-13113460D02*
X15064230Y-13122984D01*
X15064230Y-13122984D02*
X15102325Y-13122984D01*
X15102325Y-13122984D02*
X15121372Y-13113460D01*
X15121372Y-13113460D02*
X15130896Y-13094412D01*
X15130896Y-13094412D02*
X15130896Y-13084888D01*
X15130896Y-13084888D02*
X15121372Y-13065841D01*
X15121372Y-13065841D02*
X15102325Y-13056317D01*
X15102325Y-13056317D02*
X15073753Y-13056317D01*
X15073753Y-13056317D02*
X15054706Y-13046793D01*
X15054706Y-13046793D02*
X15045182Y-13027746D01*
X15045182Y-13027746D02*
X15045182Y-13018222D01*
X15045182Y-13018222D02*
X15054706Y-12999174D01*
X15054706Y-12999174D02*
X15073753Y-12989650D01*
X15073753Y-12989650D02*
X15102325Y-12989650D01*
X15102325Y-12989650D02*
X15121372Y-12999174D01*
X15197563Y-13199174D02*
X15207087Y-13189650D01*
X15207087Y-13189650D02*
X15226134Y-13161079D01*
X15226134Y-13161079D02*
X15235658Y-13142031D01*
X15235658Y-13142031D02*
X15245182Y-13113460D01*
X15245182Y-13113460D02*
X15254706Y-13065841D01*
X15254706Y-13065841D02*
X15254706Y-13027746D01*
X15254706Y-13027746D02*
X15245182Y-12980127D01*
X15245182Y-12980127D02*
X15235658Y-12951555D01*
X15235658Y-12951555D02*
X15226134Y-12932508D01*
X15226134Y-12932508D02*
X15207087Y-12903936D01*
X15207087Y-12903936D02*
X15197563Y-12894412D01*
D12*
X10392500Y-13265500D02*
X10392500Y-13325500D01*
X10362500Y-13295500D02*
X10422500Y-13295500D01*
D11*
X10721372Y-13186984D02*
X10740420Y-13186984D01*
X10740420Y-13186984D02*
X10759467Y-13196508D01*
X10759467Y-13196508D02*
X10768991Y-13206031D01*
X10768991Y-13206031D02*
X10778515Y-13225079D01*
X10778515Y-13225079D02*
X10788039Y-13263174D01*
X10788039Y-13263174D02*
X10788039Y-13310793D01*
X10788039Y-13310793D02*
X10778515Y-13348888D01*
X10778515Y-13348888D02*
X10768991Y-13367936D01*
X10768991Y-13367936D02*
X10759467Y-13377460D01*
X10759467Y-13377460D02*
X10740420Y-13386984D01*
X10740420Y-13386984D02*
X10721372Y-13386984D01*
X10721372Y-13386984D02*
X10702324Y-13377460D01*
X10702324Y-13377460D02*
X10692801Y-13367936D01*
X10692801Y-13367936D02*
X10683277Y-13348888D01*
X10683277Y-13348888D02*
X10673753Y-13310793D01*
X10673753Y-13310793D02*
X10673753Y-13263174D01*
X10673753Y-13263174D02*
X10683277Y-13225079D01*
X10683277Y-13225079D02*
X10692801Y-13206031D01*
X10692801Y-13206031D02*
X10702324Y-13196508D01*
X10702324Y-13196508D02*
X10721372Y-13186984D01*
X10873753Y-13367936D02*
X10883277Y-13377460D01*
X10883277Y-13377460D02*
X10873753Y-13386984D01*
X10873753Y-13386984D02*
X10864229Y-13377460D01*
X10864229Y-13377460D02*
X10873753Y-13367936D01*
X10873753Y-13367936D02*
X10873753Y-13386984D01*
X11054705Y-13186984D02*
X11016610Y-13186984D01*
X11016610Y-13186984D02*
X10997563Y-13196508D01*
X10997563Y-13196508D02*
X10988039Y-13206031D01*
X10988039Y-13206031D02*
X10968991Y-13234603D01*
X10968991Y-13234603D02*
X10959467Y-13272698D01*
X10959467Y-13272698D02*
X10959467Y-13348888D01*
X10959467Y-13348888D02*
X10968991Y-13367936D01*
X10968991Y-13367936D02*
X10978515Y-13377460D01*
X10978515Y-13377460D02*
X10997563Y-13386984D01*
X10997563Y-13386984D02*
X11035658Y-13386984D01*
X11035658Y-13386984D02*
X11054705Y-13377460D01*
X11054705Y-13377460D02*
X11064229Y-13367936D01*
X11064229Y-13367936D02*
X11073753Y-13348888D01*
X11073753Y-13348888D02*
X11073753Y-13301269D01*
X11073753Y-13301269D02*
X11064229Y-13282222D01*
X11064229Y-13282222D02*
X11054705Y-13272698D01*
X11054705Y-13272698D02*
X11035658Y-13263174D01*
X11035658Y-13263174D02*
X10997563Y-13263174D01*
X10997563Y-13263174D02*
X10978515Y-13272698D01*
X10978515Y-13272698D02*
X10968991Y-13282222D01*
X10968991Y-13282222D02*
X10959467Y-13301269D01*
X11197562Y-13186984D02*
X11216610Y-13186984D01*
X11216610Y-13186984D02*
X11235658Y-13196508D01*
X11235658Y-13196508D02*
X11245182Y-13206031D01*
X11245182Y-13206031D02*
X11254705Y-13225079D01*
X11254705Y-13225079D02*
X11264229Y-13263174D01*
X11264229Y-13263174D02*
X11264229Y-13310793D01*
X11264229Y-13310793D02*
X11254705Y-13348888D01*
X11254705Y-13348888D02*
X11245182Y-13367936D01*
X11245182Y-13367936D02*
X11235658Y-13377460D01*
X11235658Y-13377460D02*
X11216610Y-13386984D01*
X11216610Y-13386984D02*
X11197562Y-13386984D01*
X11197562Y-13386984D02*
X11178515Y-13377460D01*
X11178515Y-13377460D02*
X11168991Y-13367936D01*
X11168991Y-13367936D02*
X11159467Y-13348888D01*
X11159467Y-13348888D02*
X11149944Y-13310793D01*
X11149944Y-13310793D02*
X11149944Y-13263174D01*
X11149944Y-13263174D02*
X11159467Y-13225079D01*
X11159467Y-13225079D02*
X11168991Y-13206031D01*
X11168991Y-13206031D02*
X11178515Y-13196508D01*
X11178515Y-13196508D02*
X11197562Y-13186984D01*
X11388039Y-13186984D02*
X11407086Y-13186984D01*
X11407086Y-13186984D02*
X11426134Y-13196508D01*
X11426134Y-13196508D02*
X11435658Y-13206031D01*
X11435658Y-13206031D02*
X11445182Y-13225079D01*
X11445182Y-13225079D02*
X11454705Y-13263174D01*
X11454705Y-13263174D02*
X11454705Y-13310793D01*
X11454705Y-13310793D02*
X11445182Y-13348888D01*
X11445182Y-13348888D02*
X11435658Y-13367936D01*
X11435658Y-13367936D02*
X11426134Y-13377460D01*
X11426134Y-13377460D02*
X11407086Y-13386984D01*
X11407086Y-13386984D02*
X11388039Y-13386984D01*
X11388039Y-13386984D02*
X11368991Y-13377460D01*
X11368991Y-13377460D02*
X11359467Y-13367936D01*
X11359467Y-13367936D02*
X11349943Y-13348888D01*
X11349943Y-13348888D02*
X11340420Y-13310793D01*
X11340420Y-13310793D02*
X11340420Y-13263174D01*
X11340420Y-13263174D02*
X11349943Y-13225079D01*
X11349943Y-13225079D02*
X11359467Y-13206031D01*
X11359467Y-13206031D02*
X11368991Y-13196508D01*
X11368991Y-13196508D02*
X11388039Y-13186984D01*
X11540420Y-13386984D02*
X11540420Y-13253650D01*
X11540420Y-13272698D02*
X11549943Y-13263174D01*
X11549943Y-13263174D02*
X11568991Y-13253650D01*
X11568991Y-13253650D02*
X11597563Y-13253650D01*
X11597563Y-13253650D02*
X11616610Y-13263174D01*
X11616610Y-13263174D02*
X11626134Y-13282222D01*
X11626134Y-13282222D02*
X11626134Y-13386984D01*
X11626134Y-13282222D02*
X11635658Y-13263174D01*
X11635658Y-13263174D02*
X11654705Y-13253650D01*
X11654705Y-13253650D02*
X11683277Y-13253650D01*
X11683277Y-13253650D02*
X11702324Y-13263174D01*
X11702324Y-13263174D02*
X11711848Y-13282222D01*
X11711848Y-13282222D02*
X11711848Y-13386984D01*
X11807086Y-13386984D02*
X11807086Y-13253650D01*
X11807086Y-13272698D02*
X11816610Y-13263174D01*
X11816610Y-13263174D02*
X11835658Y-13253650D01*
X11835658Y-13253650D02*
X11864229Y-13253650D01*
X11864229Y-13253650D02*
X11883277Y-13263174D01*
X11883277Y-13263174D02*
X11892801Y-13282222D01*
X11892801Y-13282222D02*
X11892801Y-13386984D01*
X11892801Y-13282222D02*
X11902324Y-13263174D01*
X11902324Y-13263174D02*
X11921372Y-13253650D01*
X11921372Y-13253650D02*
X11949943Y-13253650D01*
X11949943Y-13253650D02*
X11968991Y-13263174D01*
X11968991Y-13263174D02*
X11978515Y-13282222D01*
X11978515Y-13282222D02*
X11978515Y-13386984D01*
X12368991Y-13177460D02*
X12197563Y-13434603D01*
X12626134Y-13186984D02*
X12645182Y-13186984D01*
X12645182Y-13186984D02*
X12664229Y-13196508D01*
X12664229Y-13196508D02*
X12673753Y-13206031D01*
X12673753Y-13206031D02*
X12683277Y-13225079D01*
X12683277Y-13225079D02*
X12692801Y-13263174D01*
X12692801Y-13263174D02*
X12692801Y-13310793D01*
X12692801Y-13310793D02*
X12683277Y-13348888D01*
X12683277Y-13348888D02*
X12673753Y-13367936D01*
X12673753Y-13367936D02*
X12664229Y-13377460D01*
X12664229Y-13377460D02*
X12645182Y-13386984D01*
X12645182Y-13386984D02*
X12626134Y-13386984D01*
X12626134Y-13386984D02*
X12607086Y-13377460D01*
X12607086Y-13377460D02*
X12597563Y-13367936D01*
X12597563Y-13367936D02*
X12588039Y-13348888D01*
X12588039Y-13348888D02*
X12578515Y-13310793D01*
X12578515Y-13310793D02*
X12578515Y-13263174D01*
X12578515Y-13263174D02*
X12588039Y-13225079D01*
X12588039Y-13225079D02*
X12597563Y-13206031D01*
X12597563Y-13206031D02*
X12607086Y-13196508D01*
X12607086Y-13196508D02*
X12626134Y-13186984D01*
X12778515Y-13367936D02*
X12788039Y-13377460D01*
X12788039Y-13377460D02*
X12778515Y-13386984D01*
X12778515Y-13386984D02*
X12768991Y-13377460D01*
X12768991Y-13377460D02*
X12778515Y-13367936D01*
X12778515Y-13367936D02*
X12778515Y-13386984D01*
X12911848Y-13186984D02*
X12930896Y-13186984D01*
X12930896Y-13186984D02*
X12949944Y-13196508D01*
X12949944Y-13196508D02*
X12959467Y-13206031D01*
X12959467Y-13206031D02*
X12968991Y-13225079D01*
X12968991Y-13225079D02*
X12978515Y-13263174D01*
X12978515Y-13263174D02*
X12978515Y-13310793D01*
X12978515Y-13310793D02*
X12968991Y-13348888D01*
X12968991Y-13348888D02*
X12959467Y-13367936D01*
X12959467Y-13367936D02*
X12949944Y-13377460D01*
X12949944Y-13377460D02*
X12930896Y-13386984D01*
X12930896Y-13386984D02*
X12911848Y-13386984D01*
X12911848Y-13386984D02*
X12892801Y-13377460D01*
X12892801Y-13377460D02*
X12883277Y-13367936D01*
X12883277Y-13367936D02*
X12873753Y-13348888D01*
X12873753Y-13348888D02*
X12864229Y-13310793D01*
X12864229Y-13310793D02*
X12864229Y-13263174D01*
X12864229Y-13263174D02*
X12873753Y-13225079D01*
X12873753Y-13225079D02*
X12883277Y-13206031D01*
X12883277Y-13206031D02*
X12892801Y-13196508D01*
X12892801Y-13196508D02*
X12911848Y-13186984D01*
X13054706Y-13206031D02*
X13064229Y-13196508D01*
X13064229Y-13196508D02*
X13083277Y-13186984D01*
X13083277Y-13186984D02*
X13130896Y-13186984D01*
X13130896Y-13186984D02*
X13149944Y-13196508D01*
X13149944Y-13196508D02*
X13159467Y-13206031D01*
X13159467Y-13206031D02*
X13168991Y-13225079D01*
X13168991Y-13225079D02*
X13168991Y-13244127D01*
X13168991Y-13244127D02*
X13159467Y-13272698D01*
X13159467Y-13272698D02*
X13045182Y-13386984D01*
X13045182Y-13386984D02*
X13168991Y-13386984D01*
X13235658Y-13186984D02*
X13359467Y-13186984D01*
X13359467Y-13186984D02*
X13292801Y-13263174D01*
X13292801Y-13263174D02*
X13321372Y-13263174D01*
X13321372Y-13263174D02*
X13340420Y-13272698D01*
X13340420Y-13272698D02*
X13349944Y-13282222D01*
X13349944Y-13282222D02*
X13359467Y-13301269D01*
X13359467Y-13301269D02*
X13359467Y-13348888D01*
X13359467Y-13348888D02*
X13349944Y-13367936D01*
X13349944Y-13367936D02*
X13340420Y-13377460D01*
X13340420Y-13377460D02*
X13321372Y-13386984D01*
X13321372Y-13386984D02*
X13264229Y-13386984D01*
X13264229Y-13386984D02*
X13245182Y-13377460D01*
X13245182Y-13377460D02*
X13235658Y-13367936D01*
X13530896Y-13186984D02*
X13492801Y-13186984D01*
X13492801Y-13186984D02*
X13473753Y-13196508D01*
X13473753Y-13196508D02*
X13464229Y-13206031D01*
X13464229Y-13206031D02*
X13445182Y-13234603D01*
X13445182Y-13234603D02*
X13435658Y-13272698D01*
X13435658Y-13272698D02*
X13435658Y-13348888D01*
X13435658Y-13348888D02*
X13445182Y-13367936D01*
X13445182Y-13367936D02*
X13454706Y-13377460D01*
X13454706Y-13377460D02*
X13473753Y-13386984D01*
X13473753Y-13386984D02*
X13511848Y-13386984D01*
X13511848Y-13386984D02*
X13530896Y-13377460D01*
X13530896Y-13377460D02*
X13540420Y-13367936D01*
X13540420Y-13367936D02*
X13549944Y-13348888D01*
X13549944Y-13348888D02*
X13549944Y-13301269D01*
X13549944Y-13301269D02*
X13540420Y-13282222D01*
X13540420Y-13282222D02*
X13530896Y-13272698D01*
X13530896Y-13272698D02*
X13511848Y-13263174D01*
X13511848Y-13263174D02*
X13473753Y-13263174D01*
X13473753Y-13263174D02*
X13454706Y-13272698D01*
X13454706Y-13272698D02*
X13445182Y-13282222D01*
X13445182Y-13282222D02*
X13435658Y-13301269D01*
X13626134Y-13186984D02*
X13626134Y-13225079D01*
X13702325Y-13186984D02*
X13702325Y-13225079D01*
X13997563Y-13463174D02*
X13988039Y-13453650D01*
X13988039Y-13453650D02*
X13968991Y-13425079D01*
X13968991Y-13425079D02*
X13959468Y-13406031D01*
X13959468Y-13406031D02*
X13949944Y-13377460D01*
X13949944Y-13377460D02*
X13940420Y-13329841D01*
X13940420Y-13329841D02*
X13940420Y-13291746D01*
X13940420Y-13291746D02*
X13949944Y-13244127D01*
X13949944Y-13244127D02*
X13959468Y-13215555D01*
X13959468Y-13215555D02*
X13968991Y-13196508D01*
X13968991Y-13196508D02*
X13988039Y-13167936D01*
X13988039Y-13167936D02*
X13997563Y-13158412D01*
X14111848Y-13186984D02*
X14130896Y-13186984D01*
X14130896Y-13186984D02*
X14149944Y-13196508D01*
X14149944Y-13196508D02*
X14159468Y-13206031D01*
X14159468Y-13206031D02*
X14168991Y-13225079D01*
X14168991Y-13225079D02*
X14178515Y-13263174D01*
X14178515Y-13263174D02*
X14178515Y-13310793D01*
X14178515Y-13310793D02*
X14168991Y-13348888D01*
X14168991Y-13348888D02*
X14159468Y-13367936D01*
X14159468Y-13367936D02*
X14149944Y-13377460D01*
X14149944Y-13377460D02*
X14130896Y-13386984D01*
X14130896Y-13386984D02*
X14111848Y-13386984D01*
X14111848Y-13386984D02*
X14092801Y-13377460D01*
X14092801Y-13377460D02*
X14083277Y-13367936D01*
X14083277Y-13367936D02*
X14073753Y-13348888D01*
X14073753Y-13348888D02*
X14064229Y-13310793D01*
X14064229Y-13310793D02*
X14064229Y-13263174D01*
X14064229Y-13263174D02*
X14073753Y-13225079D01*
X14073753Y-13225079D02*
X14083277Y-13206031D01*
X14083277Y-13206031D02*
X14092801Y-13196508D01*
X14092801Y-13196508D02*
X14111848Y-13186984D01*
X14416610Y-13386984D02*
X14416610Y-13186984D01*
X14502325Y-13386984D02*
X14502325Y-13282222D01*
X14502325Y-13282222D02*
X14492801Y-13263174D01*
X14492801Y-13263174D02*
X14473753Y-13253650D01*
X14473753Y-13253650D02*
X14445182Y-13253650D01*
X14445182Y-13253650D02*
X14426134Y-13263174D01*
X14426134Y-13263174D02*
X14416610Y-13272698D01*
X14626134Y-13386984D02*
X14607087Y-13377460D01*
X14607087Y-13377460D02*
X14597563Y-13367936D01*
X14597563Y-13367936D02*
X14588039Y-13348888D01*
X14588039Y-13348888D02*
X14588039Y-13291746D01*
X14588039Y-13291746D02*
X14597563Y-13272698D01*
X14597563Y-13272698D02*
X14607087Y-13263174D01*
X14607087Y-13263174D02*
X14626134Y-13253650D01*
X14626134Y-13253650D02*
X14654706Y-13253650D01*
X14654706Y-13253650D02*
X14673753Y-13263174D01*
X14673753Y-13263174D02*
X14683277Y-13272698D01*
X14683277Y-13272698D02*
X14692801Y-13291746D01*
X14692801Y-13291746D02*
X14692801Y-13348888D01*
X14692801Y-13348888D02*
X14683277Y-13367936D01*
X14683277Y-13367936D02*
X14673753Y-13377460D01*
X14673753Y-13377460D02*
X14654706Y-13386984D01*
X14654706Y-13386984D02*
X14626134Y-13386984D01*
X14807087Y-13386984D02*
X14788039Y-13377460D01*
X14788039Y-13377460D02*
X14778515Y-13358412D01*
X14778515Y-13358412D02*
X14778515Y-13186984D01*
X14959468Y-13377460D02*
X14940420Y-13386984D01*
X14940420Y-13386984D02*
X14902325Y-13386984D01*
X14902325Y-13386984D02*
X14883277Y-13377460D01*
X14883277Y-13377460D02*
X14873753Y-13358412D01*
X14873753Y-13358412D02*
X14873753Y-13282222D01*
X14873753Y-13282222D02*
X14883277Y-13263174D01*
X14883277Y-13263174D02*
X14902325Y-13253650D01*
X14902325Y-13253650D02*
X14940420Y-13253650D01*
X14940420Y-13253650D02*
X14959468Y-13263174D01*
X14959468Y-13263174D02*
X14968991Y-13282222D01*
X14968991Y-13282222D02*
X14968991Y-13301269D01*
X14968991Y-13301269D02*
X14873753Y-13320317D01*
X15045182Y-13377460D02*
X15064230Y-13386984D01*
X15064230Y-13386984D02*
X15102325Y-13386984D01*
X15102325Y-13386984D02*
X15121372Y-13377460D01*
X15121372Y-13377460D02*
X15130896Y-13358412D01*
X15130896Y-13358412D02*
X15130896Y-13348888D01*
X15130896Y-13348888D02*
X15121372Y-13329841D01*
X15121372Y-13329841D02*
X15102325Y-13320317D01*
X15102325Y-13320317D02*
X15073753Y-13320317D01*
X15073753Y-13320317D02*
X15054706Y-13310793D01*
X15054706Y-13310793D02*
X15045182Y-13291746D01*
X15045182Y-13291746D02*
X15045182Y-13282222D01*
X15045182Y-13282222D02*
X15054706Y-13263174D01*
X15054706Y-13263174D02*
X15073753Y-13253650D01*
X15073753Y-13253650D02*
X15102325Y-13253650D01*
X15102325Y-13253650D02*
X15121372Y-13263174D01*
X15368992Y-13310793D02*
X15521373Y-13310793D01*
X15445182Y-13386984D02*
X15445182Y-13234603D01*
X15854706Y-13253650D02*
X15854706Y-13386984D01*
X15807087Y-13177460D02*
X15759468Y-13320317D01*
X15759468Y-13320317D02*
X15883277Y-13320317D01*
X16102325Y-13377460D02*
X16121373Y-13386984D01*
X16121373Y-13386984D02*
X16159468Y-13386984D01*
X16159468Y-13386984D02*
X16178515Y-13377460D01*
X16178515Y-13377460D02*
X16188039Y-13358412D01*
X16188039Y-13358412D02*
X16188039Y-13348888D01*
X16188039Y-13348888D02*
X16178515Y-13329841D01*
X16178515Y-13329841D02*
X16159468Y-13320317D01*
X16159468Y-13320317D02*
X16130896Y-13320317D01*
X16130896Y-13320317D02*
X16111849Y-13310793D01*
X16111849Y-13310793D02*
X16102325Y-13291746D01*
X16102325Y-13291746D02*
X16102325Y-13282222D01*
X16102325Y-13282222D02*
X16111849Y-13263174D01*
X16111849Y-13263174D02*
X16130896Y-13253650D01*
X16130896Y-13253650D02*
X16159468Y-13253650D01*
X16159468Y-13253650D02*
X16178515Y-13263174D01*
X16302325Y-13386984D02*
X16283277Y-13377460D01*
X16283277Y-13377460D02*
X16273754Y-13358412D01*
X16273754Y-13358412D02*
X16273754Y-13186984D01*
X16407087Y-13386984D02*
X16388039Y-13377460D01*
X16388039Y-13377460D02*
X16378515Y-13367936D01*
X16378515Y-13367936D02*
X16368992Y-13348888D01*
X16368992Y-13348888D02*
X16368992Y-13291746D01*
X16368992Y-13291746D02*
X16378515Y-13272698D01*
X16378515Y-13272698D02*
X16388039Y-13263174D01*
X16388039Y-13263174D02*
X16407087Y-13253650D01*
X16407087Y-13253650D02*
X16435658Y-13253650D01*
X16435658Y-13253650D02*
X16454706Y-13263174D01*
X16454706Y-13263174D02*
X16464230Y-13272698D01*
X16464230Y-13272698D02*
X16473754Y-13291746D01*
X16473754Y-13291746D02*
X16473754Y-13348888D01*
X16473754Y-13348888D02*
X16464230Y-13367936D01*
X16464230Y-13367936D02*
X16454706Y-13377460D01*
X16454706Y-13377460D02*
X16435658Y-13386984D01*
X16435658Y-13386984D02*
X16407087Y-13386984D01*
X16530896Y-13253650D02*
X16607087Y-13253650D01*
X16559468Y-13186984D02*
X16559468Y-13358412D01*
X16559468Y-13358412D02*
X16568992Y-13377460D01*
X16568992Y-13377460D02*
X16588039Y-13386984D01*
X16588039Y-13386984D02*
X16607087Y-13386984D01*
X16664230Y-13377460D02*
X16683277Y-13386984D01*
X16683277Y-13386984D02*
X16721373Y-13386984D01*
X16721373Y-13386984D02*
X16740420Y-13377460D01*
X16740420Y-13377460D02*
X16749944Y-13358412D01*
X16749944Y-13358412D02*
X16749944Y-13348888D01*
X16749944Y-13348888D02*
X16740420Y-13329841D01*
X16740420Y-13329841D02*
X16721373Y-13320317D01*
X16721373Y-13320317D02*
X16692801Y-13320317D01*
X16692801Y-13320317D02*
X16673754Y-13310793D01*
X16673754Y-13310793D02*
X16664230Y-13291746D01*
X16664230Y-13291746D02*
X16664230Y-13282222D01*
X16664230Y-13282222D02*
X16673754Y-13263174D01*
X16673754Y-13263174D02*
X16692801Y-13253650D01*
X16692801Y-13253650D02*
X16721373Y-13253650D01*
X16721373Y-13253650D02*
X16740420Y-13263174D01*
X16816611Y-13463174D02*
X16826135Y-13453650D01*
X16826135Y-13453650D02*
X16845182Y-13425079D01*
X16845182Y-13425079D02*
X16854706Y-13406031D01*
X16854706Y-13406031D02*
X16864230Y-13377460D01*
X16864230Y-13377460D02*
X16873754Y-13329841D01*
X16873754Y-13329841D02*
X16873754Y-13291746D01*
X16873754Y-13291746D02*
X16864230Y-13244127D01*
X16864230Y-13244127D02*
X16854706Y-13215555D01*
X16854706Y-13215555D02*
X16845182Y-13196508D01*
X16845182Y-13196508D02*
X16826135Y-13167936D01*
X16826135Y-13167936D02*
X16816611Y-13158412D01*
M02*
