%TF.GenerationSoftware,KiCad,Pcbnew,8.0.8*%
%TF.CreationDate,2025-01-22T20:03:19-06:00*%
%TF.ProjectId,mainboard,6d61696e-626f-4617-9264-2e6b69636164,rev?*%
%TF.SameCoordinates,Original*%
%TF.FileFunction,Drillmap*%
%TF.FilePolarity,Positive*%
%FSLAX45Y45*%
G04 Gerber Fmt 4.5, Leading zero omitted, Abs format (unit mm)*
G04 Created by KiCad (PCBNEW 8.0.8) date 2025-01-22 20:03:19*
%MOMM*%
%LPD*%
G01*
G04 APERTURE LIST*
%ADD10C,0.050000*%
%ADD11C,0.200000*%
%ADD12C,0.100000*%
%ADD13C,0.220000*%
G04 APERTURE END LIST*
D10*
X10425000Y-6425000D02*
X14425000Y-6425000D01*
X14425000Y-12125000D01*
X10425000Y-12125000D01*
X10425000Y-6425000D01*
D11*
D12*
X12103500Y-7028000D02*
X12168500Y-7093000D01*
X12168500Y-7028000D02*
X12103500Y-7093000D01*
X12681500Y-7028000D02*
X12746500Y-7093000D01*
X12746500Y-7028000D02*
X12681500Y-7093000D01*
D13*
X10935000Y-6825000D02*
G75*
G02*
X10715000Y-6825000I-110000J0D01*
G01*
X10715000Y-6825000D02*
G75*
G02*
X10935000Y-6825000I110000J0D01*
G01*
X10935000Y-11725000D02*
G75*
G02*
X10715000Y-11725000I-110000J0D01*
G01*
X10715000Y-11725000D02*
G75*
G02*
X10935000Y-11725000I110000J0D01*
G01*
X14135000Y-6825000D02*
G75*
G02*
X13915000Y-6825000I-110000J0D01*
G01*
X13915000Y-6825000D02*
G75*
G02*
X14135000Y-6825000I110000J0D01*
G01*
X14135000Y-11725000D02*
G75*
G02*
X13915000Y-11725000I-110000J0D01*
G01*
X13915000Y-11725000D02*
G75*
G02*
X14135000Y-11725000I110000J0D01*
G01*
D11*
X10683277Y-12438984D02*
X10683277Y-12238984D01*
X10683277Y-12238984D02*
X10730896Y-12238984D01*
X10730896Y-12238984D02*
X10759467Y-12248508D01*
X10759467Y-12248508D02*
X10778515Y-12267555D01*
X10778515Y-12267555D02*
X10788039Y-12286603D01*
X10788039Y-12286603D02*
X10797563Y-12324698D01*
X10797563Y-12324698D02*
X10797563Y-12353269D01*
X10797563Y-12353269D02*
X10788039Y-12391365D01*
X10788039Y-12391365D02*
X10778515Y-12410412D01*
X10778515Y-12410412D02*
X10759467Y-12429460D01*
X10759467Y-12429460D02*
X10730896Y-12438984D01*
X10730896Y-12438984D02*
X10683277Y-12438984D01*
X10883277Y-12438984D02*
X10883277Y-12305650D01*
X10883277Y-12343746D02*
X10892801Y-12324698D01*
X10892801Y-12324698D02*
X10902324Y-12315174D01*
X10902324Y-12315174D02*
X10921372Y-12305650D01*
X10921372Y-12305650D02*
X10940420Y-12305650D01*
X11007086Y-12438984D02*
X11007086Y-12305650D01*
X11007086Y-12238984D02*
X10997563Y-12248508D01*
X10997563Y-12248508D02*
X11007086Y-12258031D01*
X11007086Y-12258031D02*
X11016610Y-12248508D01*
X11016610Y-12248508D02*
X11007086Y-12238984D01*
X11007086Y-12238984D02*
X11007086Y-12258031D01*
X11130896Y-12438984D02*
X11111848Y-12429460D01*
X11111848Y-12429460D02*
X11102324Y-12410412D01*
X11102324Y-12410412D02*
X11102324Y-12238984D01*
X11235658Y-12438984D02*
X11216610Y-12429460D01*
X11216610Y-12429460D02*
X11207086Y-12410412D01*
X11207086Y-12410412D02*
X11207086Y-12238984D01*
X11464229Y-12438984D02*
X11464229Y-12238984D01*
X11464229Y-12238984D02*
X11530896Y-12381841D01*
X11530896Y-12381841D02*
X11597562Y-12238984D01*
X11597562Y-12238984D02*
X11597562Y-12438984D01*
X11778515Y-12438984D02*
X11778515Y-12334222D01*
X11778515Y-12334222D02*
X11768991Y-12315174D01*
X11768991Y-12315174D02*
X11749943Y-12305650D01*
X11749943Y-12305650D02*
X11711848Y-12305650D01*
X11711848Y-12305650D02*
X11692801Y-12315174D01*
X11778515Y-12429460D02*
X11759467Y-12438984D01*
X11759467Y-12438984D02*
X11711848Y-12438984D01*
X11711848Y-12438984D02*
X11692801Y-12429460D01*
X11692801Y-12429460D02*
X11683277Y-12410412D01*
X11683277Y-12410412D02*
X11683277Y-12391365D01*
X11683277Y-12391365D02*
X11692801Y-12372317D01*
X11692801Y-12372317D02*
X11711848Y-12362793D01*
X11711848Y-12362793D02*
X11759467Y-12362793D01*
X11759467Y-12362793D02*
X11778515Y-12353269D01*
X11873753Y-12305650D02*
X11873753Y-12505650D01*
X11873753Y-12315174D02*
X11892801Y-12305650D01*
X11892801Y-12305650D02*
X11930896Y-12305650D01*
X11930896Y-12305650D02*
X11949943Y-12315174D01*
X11949943Y-12315174D02*
X11959467Y-12324698D01*
X11959467Y-12324698D02*
X11968991Y-12343746D01*
X11968991Y-12343746D02*
X11968991Y-12400888D01*
X11968991Y-12400888D02*
X11959467Y-12419936D01*
X11959467Y-12419936D02*
X11949943Y-12429460D01*
X11949943Y-12429460D02*
X11930896Y-12438984D01*
X11930896Y-12438984D02*
X11892801Y-12438984D01*
X11892801Y-12438984D02*
X11873753Y-12429460D01*
X12054705Y-12419936D02*
X12064229Y-12429460D01*
X12064229Y-12429460D02*
X12054705Y-12438984D01*
X12054705Y-12438984D02*
X12045182Y-12429460D01*
X12045182Y-12429460D02*
X12054705Y-12419936D01*
X12054705Y-12419936D02*
X12054705Y-12438984D01*
X12054705Y-12315174D02*
X12064229Y-12324698D01*
X12064229Y-12324698D02*
X12054705Y-12334222D01*
X12054705Y-12334222D02*
X12045182Y-12324698D01*
X12045182Y-12324698D02*
X12054705Y-12315174D01*
X12054705Y-12315174D02*
X12054705Y-12334222D01*
D12*
X10357500Y-12735000D02*
X10422500Y-12800000D01*
X10422500Y-12735000D02*
X10357500Y-12800000D01*
D11*
X10721372Y-12658984D02*
X10740420Y-12658984D01*
X10740420Y-12658984D02*
X10759467Y-12668508D01*
X10759467Y-12668508D02*
X10768991Y-12678031D01*
X10768991Y-12678031D02*
X10778515Y-12697079D01*
X10778515Y-12697079D02*
X10788039Y-12735174D01*
X10788039Y-12735174D02*
X10788039Y-12782793D01*
X10788039Y-12782793D02*
X10778515Y-12820888D01*
X10778515Y-12820888D02*
X10768991Y-12839936D01*
X10768991Y-12839936D02*
X10759467Y-12849460D01*
X10759467Y-12849460D02*
X10740420Y-12858984D01*
X10740420Y-12858984D02*
X10721372Y-12858984D01*
X10721372Y-12858984D02*
X10702324Y-12849460D01*
X10702324Y-12849460D02*
X10692801Y-12839936D01*
X10692801Y-12839936D02*
X10683277Y-12820888D01*
X10683277Y-12820888D02*
X10673753Y-12782793D01*
X10673753Y-12782793D02*
X10673753Y-12735174D01*
X10673753Y-12735174D02*
X10683277Y-12697079D01*
X10683277Y-12697079D02*
X10692801Y-12678031D01*
X10692801Y-12678031D02*
X10702324Y-12668508D01*
X10702324Y-12668508D02*
X10721372Y-12658984D01*
X10873753Y-12839936D02*
X10883277Y-12849460D01*
X10883277Y-12849460D02*
X10873753Y-12858984D01*
X10873753Y-12858984D02*
X10864229Y-12849460D01*
X10864229Y-12849460D02*
X10873753Y-12839936D01*
X10873753Y-12839936D02*
X10873753Y-12858984D01*
X11054705Y-12658984D02*
X11016610Y-12658984D01*
X11016610Y-12658984D02*
X10997563Y-12668508D01*
X10997563Y-12668508D02*
X10988039Y-12678031D01*
X10988039Y-12678031D02*
X10968991Y-12706603D01*
X10968991Y-12706603D02*
X10959467Y-12744698D01*
X10959467Y-12744698D02*
X10959467Y-12820888D01*
X10959467Y-12820888D02*
X10968991Y-12839936D01*
X10968991Y-12839936D02*
X10978515Y-12849460D01*
X10978515Y-12849460D02*
X10997563Y-12858984D01*
X10997563Y-12858984D02*
X11035658Y-12858984D01*
X11035658Y-12858984D02*
X11054705Y-12849460D01*
X11054705Y-12849460D02*
X11064229Y-12839936D01*
X11064229Y-12839936D02*
X11073753Y-12820888D01*
X11073753Y-12820888D02*
X11073753Y-12773269D01*
X11073753Y-12773269D02*
X11064229Y-12754222D01*
X11064229Y-12754222D02*
X11054705Y-12744698D01*
X11054705Y-12744698D02*
X11035658Y-12735174D01*
X11035658Y-12735174D02*
X10997563Y-12735174D01*
X10997563Y-12735174D02*
X10978515Y-12744698D01*
X10978515Y-12744698D02*
X10968991Y-12754222D01*
X10968991Y-12754222D02*
X10959467Y-12773269D01*
X11254705Y-12658984D02*
X11159467Y-12658984D01*
X11159467Y-12658984D02*
X11149944Y-12754222D01*
X11149944Y-12754222D02*
X11159467Y-12744698D01*
X11159467Y-12744698D02*
X11178515Y-12735174D01*
X11178515Y-12735174D02*
X11226134Y-12735174D01*
X11226134Y-12735174D02*
X11245182Y-12744698D01*
X11245182Y-12744698D02*
X11254705Y-12754222D01*
X11254705Y-12754222D02*
X11264229Y-12773269D01*
X11264229Y-12773269D02*
X11264229Y-12820888D01*
X11264229Y-12820888D02*
X11254705Y-12839936D01*
X11254705Y-12839936D02*
X11245182Y-12849460D01*
X11245182Y-12849460D02*
X11226134Y-12858984D01*
X11226134Y-12858984D02*
X11178515Y-12858984D01*
X11178515Y-12858984D02*
X11159467Y-12849460D01*
X11159467Y-12849460D02*
X11149944Y-12839936D01*
X11388039Y-12658984D02*
X11407086Y-12658984D01*
X11407086Y-12658984D02*
X11426134Y-12668508D01*
X11426134Y-12668508D02*
X11435658Y-12678031D01*
X11435658Y-12678031D02*
X11445182Y-12697079D01*
X11445182Y-12697079D02*
X11454705Y-12735174D01*
X11454705Y-12735174D02*
X11454705Y-12782793D01*
X11454705Y-12782793D02*
X11445182Y-12820888D01*
X11445182Y-12820888D02*
X11435658Y-12839936D01*
X11435658Y-12839936D02*
X11426134Y-12849460D01*
X11426134Y-12849460D02*
X11407086Y-12858984D01*
X11407086Y-12858984D02*
X11388039Y-12858984D01*
X11388039Y-12858984D02*
X11368991Y-12849460D01*
X11368991Y-12849460D02*
X11359467Y-12839936D01*
X11359467Y-12839936D02*
X11349943Y-12820888D01*
X11349943Y-12820888D02*
X11340420Y-12782793D01*
X11340420Y-12782793D02*
X11340420Y-12735174D01*
X11340420Y-12735174D02*
X11349943Y-12697079D01*
X11349943Y-12697079D02*
X11359467Y-12678031D01*
X11359467Y-12678031D02*
X11368991Y-12668508D01*
X11368991Y-12668508D02*
X11388039Y-12658984D01*
X11540420Y-12858984D02*
X11540420Y-12725650D01*
X11540420Y-12744698D02*
X11549943Y-12735174D01*
X11549943Y-12735174D02*
X11568991Y-12725650D01*
X11568991Y-12725650D02*
X11597563Y-12725650D01*
X11597563Y-12725650D02*
X11616610Y-12735174D01*
X11616610Y-12735174D02*
X11626134Y-12754222D01*
X11626134Y-12754222D02*
X11626134Y-12858984D01*
X11626134Y-12754222D02*
X11635658Y-12735174D01*
X11635658Y-12735174D02*
X11654705Y-12725650D01*
X11654705Y-12725650D02*
X11683277Y-12725650D01*
X11683277Y-12725650D02*
X11702324Y-12735174D01*
X11702324Y-12735174D02*
X11711848Y-12754222D01*
X11711848Y-12754222D02*
X11711848Y-12858984D01*
X11807086Y-12858984D02*
X11807086Y-12725650D01*
X11807086Y-12744698D02*
X11816610Y-12735174D01*
X11816610Y-12735174D02*
X11835658Y-12725650D01*
X11835658Y-12725650D02*
X11864229Y-12725650D01*
X11864229Y-12725650D02*
X11883277Y-12735174D01*
X11883277Y-12735174D02*
X11892801Y-12754222D01*
X11892801Y-12754222D02*
X11892801Y-12858984D01*
X11892801Y-12754222D02*
X11902324Y-12735174D01*
X11902324Y-12735174D02*
X11921372Y-12725650D01*
X11921372Y-12725650D02*
X11949943Y-12725650D01*
X11949943Y-12725650D02*
X11968991Y-12735174D01*
X11968991Y-12735174D02*
X11978515Y-12754222D01*
X11978515Y-12754222D02*
X11978515Y-12858984D01*
X12368991Y-12649460D02*
X12197563Y-12906603D01*
X12626134Y-12658984D02*
X12645182Y-12658984D01*
X12645182Y-12658984D02*
X12664229Y-12668508D01*
X12664229Y-12668508D02*
X12673753Y-12678031D01*
X12673753Y-12678031D02*
X12683277Y-12697079D01*
X12683277Y-12697079D02*
X12692801Y-12735174D01*
X12692801Y-12735174D02*
X12692801Y-12782793D01*
X12692801Y-12782793D02*
X12683277Y-12820888D01*
X12683277Y-12820888D02*
X12673753Y-12839936D01*
X12673753Y-12839936D02*
X12664229Y-12849460D01*
X12664229Y-12849460D02*
X12645182Y-12858984D01*
X12645182Y-12858984D02*
X12626134Y-12858984D01*
X12626134Y-12858984D02*
X12607086Y-12849460D01*
X12607086Y-12849460D02*
X12597563Y-12839936D01*
X12597563Y-12839936D02*
X12588039Y-12820888D01*
X12588039Y-12820888D02*
X12578515Y-12782793D01*
X12578515Y-12782793D02*
X12578515Y-12735174D01*
X12578515Y-12735174D02*
X12588039Y-12697079D01*
X12588039Y-12697079D02*
X12597563Y-12678031D01*
X12597563Y-12678031D02*
X12607086Y-12668508D01*
X12607086Y-12668508D02*
X12626134Y-12658984D01*
X12778515Y-12839936D02*
X12788039Y-12849460D01*
X12788039Y-12849460D02*
X12778515Y-12858984D01*
X12778515Y-12858984D02*
X12768991Y-12849460D01*
X12768991Y-12849460D02*
X12778515Y-12839936D01*
X12778515Y-12839936D02*
X12778515Y-12858984D01*
X12911848Y-12658984D02*
X12930896Y-12658984D01*
X12930896Y-12658984D02*
X12949944Y-12668508D01*
X12949944Y-12668508D02*
X12959467Y-12678031D01*
X12959467Y-12678031D02*
X12968991Y-12697079D01*
X12968991Y-12697079D02*
X12978515Y-12735174D01*
X12978515Y-12735174D02*
X12978515Y-12782793D01*
X12978515Y-12782793D02*
X12968991Y-12820888D01*
X12968991Y-12820888D02*
X12959467Y-12839936D01*
X12959467Y-12839936D02*
X12949944Y-12849460D01*
X12949944Y-12849460D02*
X12930896Y-12858984D01*
X12930896Y-12858984D02*
X12911848Y-12858984D01*
X12911848Y-12858984D02*
X12892801Y-12849460D01*
X12892801Y-12849460D02*
X12883277Y-12839936D01*
X12883277Y-12839936D02*
X12873753Y-12820888D01*
X12873753Y-12820888D02*
X12864229Y-12782793D01*
X12864229Y-12782793D02*
X12864229Y-12735174D01*
X12864229Y-12735174D02*
X12873753Y-12697079D01*
X12873753Y-12697079D02*
X12883277Y-12678031D01*
X12883277Y-12678031D02*
X12892801Y-12668508D01*
X12892801Y-12668508D02*
X12911848Y-12658984D01*
X13054706Y-12678031D02*
X13064229Y-12668508D01*
X13064229Y-12668508D02*
X13083277Y-12658984D01*
X13083277Y-12658984D02*
X13130896Y-12658984D01*
X13130896Y-12658984D02*
X13149944Y-12668508D01*
X13149944Y-12668508D02*
X13159467Y-12678031D01*
X13159467Y-12678031D02*
X13168991Y-12697079D01*
X13168991Y-12697079D02*
X13168991Y-12716127D01*
X13168991Y-12716127D02*
X13159467Y-12744698D01*
X13159467Y-12744698D02*
X13045182Y-12858984D01*
X13045182Y-12858984D02*
X13168991Y-12858984D01*
X13349944Y-12658984D02*
X13254706Y-12658984D01*
X13254706Y-12658984D02*
X13245182Y-12754222D01*
X13245182Y-12754222D02*
X13254706Y-12744698D01*
X13254706Y-12744698D02*
X13273753Y-12735174D01*
X13273753Y-12735174D02*
X13321372Y-12735174D01*
X13321372Y-12735174D02*
X13340420Y-12744698D01*
X13340420Y-12744698D02*
X13349944Y-12754222D01*
X13349944Y-12754222D02*
X13359467Y-12773269D01*
X13359467Y-12773269D02*
X13359467Y-12820888D01*
X13359467Y-12820888D02*
X13349944Y-12839936D01*
X13349944Y-12839936D02*
X13340420Y-12849460D01*
X13340420Y-12849460D02*
X13321372Y-12858984D01*
X13321372Y-12858984D02*
X13273753Y-12858984D01*
X13273753Y-12858984D02*
X13254706Y-12849460D01*
X13254706Y-12849460D02*
X13245182Y-12839936D01*
X13530896Y-12658984D02*
X13492801Y-12658984D01*
X13492801Y-12658984D02*
X13473753Y-12668508D01*
X13473753Y-12668508D02*
X13464229Y-12678031D01*
X13464229Y-12678031D02*
X13445182Y-12706603D01*
X13445182Y-12706603D02*
X13435658Y-12744698D01*
X13435658Y-12744698D02*
X13435658Y-12820888D01*
X13435658Y-12820888D02*
X13445182Y-12839936D01*
X13445182Y-12839936D02*
X13454706Y-12849460D01*
X13454706Y-12849460D02*
X13473753Y-12858984D01*
X13473753Y-12858984D02*
X13511848Y-12858984D01*
X13511848Y-12858984D02*
X13530896Y-12849460D01*
X13530896Y-12849460D02*
X13540420Y-12839936D01*
X13540420Y-12839936D02*
X13549944Y-12820888D01*
X13549944Y-12820888D02*
X13549944Y-12773269D01*
X13549944Y-12773269D02*
X13540420Y-12754222D01*
X13540420Y-12754222D02*
X13530896Y-12744698D01*
X13530896Y-12744698D02*
X13511848Y-12735174D01*
X13511848Y-12735174D02*
X13473753Y-12735174D01*
X13473753Y-12735174D02*
X13454706Y-12744698D01*
X13454706Y-12744698D02*
X13445182Y-12754222D01*
X13445182Y-12754222D02*
X13435658Y-12773269D01*
X13626134Y-12658984D02*
X13626134Y-12697079D01*
X13702325Y-12658984D02*
X13702325Y-12697079D01*
X13997563Y-12935174D02*
X13988039Y-12925650D01*
X13988039Y-12925650D02*
X13968991Y-12897079D01*
X13968991Y-12897079D02*
X13959468Y-12878031D01*
X13959468Y-12878031D02*
X13949944Y-12849460D01*
X13949944Y-12849460D02*
X13940420Y-12801841D01*
X13940420Y-12801841D02*
X13940420Y-12763746D01*
X13940420Y-12763746D02*
X13949944Y-12716127D01*
X13949944Y-12716127D02*
X13959468Y-12687555D01*
X13959468Y-12687555D02*
X13968991Y-12668508D01*
X13968991Y-12668508D02*
X13988039Y-12639936D01*
X13988039Y-12639936D02*
X13997563Y-12630412D01*
X14064229Y-12678031D02*
X14073753Y-12668508D01*
X14073753Y-12668508D02*
X14092801Y-12658984D01*
X14092801Y-12658984D02*
X14140420Y-12658984D01*
X14140420Y-12658984D02*
X14159468Y-12668508D01*
X14159468Y-12668508D02*
X14168991Y-12678031D01*
X14168991Y-12678031D02*
X14178515Y-12697079D01*
X14178515Y-12697079D02*
X14178515Y-12716127D01*
X14178515Y-12716127D02*
X14168991Y-12744698D01*
X14168991Y-12744698D02*
X14054706Y-12858984D01*
X14054706Y-12858984D02*
X14178515Y-12858984D01*
X14416610Y-12858984D02*
X14416610Y-12658984D01*
X14502325Y-12858984D02*
X14502325Y-12754222D01*
X14502325Y-12754222D02*
X14492801Y-12735174D01*
X14492801Y-12735174D02*
X14473753Y-12725650D01*
X14473753Y-12725650D02*
X14445182Y-12725650D01*
X14445182Y-12725650D02*
X14426134Y-12735174D01*
X14426134Y-12735174D02*
X14416610Y-12744698D01*
X14626134Y-12858984D02*
X14607087Y-12849460D01*
X14607087Y-12849460D02*
X14597563Y-12839936D01*
X14597563Y-12839936D02*
X14588039Y-12820888D01*
X14588039Y-12820888D02*
X14588039Y-12763746D01*
X14588039Y-12763746D02*
X14597563Y-12744698D01*
X14597563Y-12744698D02*
X14607087Y-12735174D01*
X14607087Y-12735174D02*
X14626134Y-12725650D01*
X14626134Y-12725650D02*
X14654706Y-12725650D01*
X14654706Y-12725650D02*
X14673753Y-12735174D01*
X14673753Y-12735174D02*
X14683277Y-12744698D01*
X14683277Y-12744698D02*
X14692801Y-12763746D01*
X14692801Y-12763746D02*
X14692801Y-12820888D01*
X14692801Y-12820888D02*
X14683277Y-12839936D01*
X14683277Y-12839936D02*
X14673753Y-12849460D01*
X14673753Y-12849460D02*
X14654706Y-12858984D01*
X14654706Y-12858984D02*
X14626134Y-12858984D01*
X14807087Y-12858984D02*
X14788039Y-12849460D01*
X14788039Y-12849460D02*
X14778515Y-12830412D01*
X14778515Y-12830412D02*
X14778515Y-12658984D01*
X14959468Y-12849460D02*
X14940420Y-12858984D01*
X14940420Y-12858984D02*
X14902325Y-12858984D01*
X14902325Y-12858984D02*
X14883277Y-12849460D01*
X14883277Y-12849460D02*
X14873753Y-12830412D01*
X14873753Y-12830412D02*
X14873753Y-12754222D01*
X14873753Y-12754222D02*
X14883277Y-12735174D01*
X14883277Y-12735174D02*
X14902325Y-12725650D01*
X14902325Y-12725650D02*
X14940420Y-12725650D01*
X14940420Y-12725650D02*
X14959468Y-12735174D01*
X14959468Y-12735174D02*
X14968991Y-12754222D01*
X14968991Y-12754222D02*
X14968991Y-12773269D01*
X14968991Y-12773269D02*
X14873753Y-12792317D01*
X15045182Y-12849460D02*
X15064230Y-12858984D01*
X15064230Y-12858984D02*
X15102325Y-12858984D01*
X15102325Y-12858984D02*
X15121372Y-12849460D01*
X15121372Y-12849460D02*
X15130896Y-12830412D01*
X15130896Y-12830412D02*
X15130896Y-12820888D01*
X15130896Y-12820888D02*
X15121372Y-12801841D01*
X15121372Y-12801841D02*
X15102325Y-12792317D01*
X15102325Y-12792317D02*
X15073753Y-12792317D01*
X15073753Y-12792317D02*
X15054706Y-12782793D01*
X15054706Y-12782793D02*
X15045182Y-12763746D01*
X15045182Y-12763746D02*
X15045182Y-12754222D01*
X15045182Y-12754222D02*
X15054706Y-12735174D01*
X15054706Y-12735174D02*
X15073753Y-12725650D01*
X15073753Y-12725650D02*
X15102325Y-12725650D01*
X15102325Y-12725650D02*
X15121372Y-12735174D01*
X15197563Y-12935174D02*
X15207087Y-12925650D01*
X15207087Y-12925650D02*
X15226134Y-12897079D01*
X15226134Y-12897079D02*
X15235658Y-12878031D01*
X15235658Y-12878031D02*
X15245182Y-12849460D01*
X15245182Y-12849460D02*
X15254706Y-12801841D01*
X15254706Y-12801841D02*
X15254706Y-12763746D01*
X15254706Y-12763746D02*
X15245182Y-12716127D01*
X15245182Y-12716127D02*
X15235658Y-12687555D01*
X15235658Y-12687555D02*
X15226134Y-12668508D01*
X15226134Y-12668508D02*
X15207087Y-12639936D01*
X15207087Y-12639936D02*
X15197563Y-12630412D01*
X15559468Y-12935174D02*
X15549944Y-12925650D01*
X15549944Y-12925650D02*
X15530896Y-12897079D01*
X15530896Y-12897079D02*
X15521372Y-12878031D01*
X15521372Y-12878031D02*
X15511849Y-12849460D01*
X15511849Y-12849460D02*
X15502325Y-12801841D01*
X15502325Y-12801841D02*
X15502325Y-12763746D01*
X15502325Y-12763746D02*
X15511849Y-12716127D01*
X15511849Y-12716127D02*
X15521372Y-12687555D01*
X15521372Y-12687555D02*
X15530896Y-12668508D01*
X15530896Y-12668508D02*
X15549944Y-12639936D01*
X15549944Y-12639936D02*
X15559468Y-12630412D01*
X15635658Y-12725650D02*
X15635658Y-12858984D01*
X15635658Y-12744698D02*
X15645182Y-12735174D01*
X15645182Y-12735174D02*
X15664230Y-12725650D01*
X15664230Y-12725650D02*
X15692801Y-12725650D01*
X15692801Y-12725650D02*
X15711849Y-12735174D01*
X15711849Y-12735174D02*
X15721372Y-12754222D01*
X15721372Y-12754222D02*
X15721372Y-12858984D01*
X15845182Y-12858984D02*
X15826134Y-12849460D01*
X15826134Y-12849460D02*
X15816611Y-12839936D01*
X15816611Y-12839936D02*
X15807087Y-12820888D01*
X15807087Y-12820888D02*
X15807087Y-12763746D01*
X15807087Y-12763746D02*
X15816611Y-12744698D01*
X15816611Y-12744698D02*
X15826134Y-12735174D01*
X15826134Y-12735174D02*
X15845182Y-12725650D01*
X15845182Y-12725650D02*
X15873753Y-12725650D01*
X15873753Y-12725650D02*
X15892801Y-12735174D01*
X15892801Y-12735174D02*
X15902325Y-12744698D01*
X15902325Y-12744698D02*
X15911849Y-12763746D01*
X15911849Y-12763746D02*
X15911849Y-12820888D01*
X15911849Y-12820888D02*
X15902325Y-12839936D01*
X15902325Y-12839936D02*
X15892801Y-12849460D01*
X15892801Y-12849460D02*
X15873753Y-12858984D01*
X15873753Y-12858984D02*
X15845182Y-12858984D01*
X15968992Y-12725650D02*
X16045182Y-12725650D01*
X15997563Y-12658984D02*
X15997563Y-12830412D01*
X15997563Y-12830412D02*
X16007087Y-12849460D01*
X16007087Y-12849460D02*
X16026134Y-12858984D01*
X16026134Y-12858984D02*
X16045182Y-12858984D01*
X16264230Y-12725650D02*
X16264230Y-12925650D01*
X16264230Y-12735174D02*
X16283277Y-12725650D01*
X16283277Y-12725650D02*
X16321373Y-12725650D01*
X16321373Y-12725650D02*
X16340420Y-12735174D01*
X16340420Y-12735174D02*
X16349944Y-12744698D01*
X16349944Y-12744698D02*
X16359468Y-12763746D01*
X16359468Y-12763746D02*
X16359468Y-12820888D01*
X16359468Y-12820888D02*
X16349944Y-12839936D01*
X16349944Y-12839936D02*
X16340420Y-12849460D01*
X16340420Y-12849460D02*
X16321373Y-12858984D01*
X16321373Y-12858984D02*
X16283277Y-12858984D01*
X16283277Y-12858984D02*
X16264230Y-12849460D01*
X16473753Y-12858984D02*
X16454706Y-12849460D01*
X16454706Y-12849460D02*
X16445182Y-12830412D01*
X16445182Y-12830412D02*
X16445182Y-12658984D01*
X16635658Y-12858984D02*
X16635658Y-12754222D01*
X16635658Y-12754222D02*
X16626134Y-12735174D01*
X16626134Y-12735174D02*
X16607087Y-12725650D01*
X16607087Y-12725650D02*
X16568992Y-12725650D01*
X16568992Y-12725650D02*
X16549944Y-12735174D01*
X16635658Y-12849460D02*
X16616611Y-12858984D01*
X16616611Y-12858984D02*
X16568992Y-12858984D01*
X16568992Y-12858984D02*
X16549944Y-12849460D01*
X16549944Y-12849460D02*
X16540420Y-12830412D01*
X16540420Y-12830412D02*
X16540420Y-12811365D01*
X16540420Y-12811365D02*
X16549944Y-12792317D01*
X16549944Y-12792317D02*
X16568992Y-12782793D01*
X16568992Y-12782793D02*
X16616611Y-12782793D01*
X16616611Y-12782793D02*
X16635658Y-12773269D01*
X16702325Y-12725650D02*
X16778515Y-12725650D01*
X16730896Y-12658984D02*
X16730896Y-12830412D01*
X16730896Y-12830412D02*
X16740420Y-12849460D01*
X16740420Y-12849460D02*
X16759468Y-12858984D01*
X16759468Y-12858984D02*
X16778515Y-12858984D01*
X16921373Y-12849460D02*
X16902325Y-12858984D01*
X16902325Y-12858984D02*
X16864230Y-12858984D01*
X16864230Y-12858984D02*
X16845182Y-12849460D01*
X16845182Y-12849460D02*
X16835658Y-12830412D01*
X16835658Y-12830412D02*
X16835658Y-12754222D01*
X16835658Y-12754222D02*
X16845182Y-12735174D01*
X16845182Y-12735174D02*
X16864230Y-12725650D01*
X16864230Y-12725650D02*
X16902325Y-12725650D01*
X16902325Y-12725650D02*
X16921373Y-12735174D01*
X16921373Y-12735174D02*
X16930896Y-12754222D01*
X16930896Y-12754222D02*
X16930896Y-12773269D01*
X16930896Y-12773269D02*
X16835658Y-12792317D01*
X17102325Y-12858984D02*
X17102325Y-12658984D01*
X17102325Y-12849460D02*
X17083277Y-12858984D01*
X17083277Y-12858984D02*
X17045182Y-12858984D01*
X17045182Y-12858984D02*
X17026135Y-12849460D01*
X17026135Y-12849460D02*
X17016611Y-12839936D01*
X17016611Y-12839936D02*
X17007087Y-12820888D01*
X17007087Y-12820888D02*
X17007087Y-12763746D01*
X17007087Y-12763746D02*
X17016611Y-12744698D01*
X17016611Y-12744698D02*
X17026135Y-12735174D01*
X17026135Y-12735174D02*
X17045182Y-12725650D01*
X17045182Y-12725650D02*
X17083277Y-12725650D01*
X17083277Y-12725650D02*
X17102325Y-12735174D01*
X17178516Y-12935174D02*
X17188039Y-12925650D01*
X17188039Y-12925650D02*
X17207087Y-12897079D01*
X17207087Y-12897079D02*
X17216611Y-12878031D01*
X17216611Y-12878031D02*
X17226135Y-12849460D01*
X17226135Y-12849460D02*
X17235658Y-12801841D01*
X17235658Y-12801841D02*
X17235658Y-12763746D01*
X17235658Y-12763746D02*
X17226135Y-12716127D01*
X17226135Y-12716127D02*
X17216611Y-12687555D01*
X17216611Y-12687555D02*
X17207087Y-12668508D01*
X17207087Y-12668508D02*
X17188039Y-12639936D01*
X17188039Y-12639936D02*
X17178516Y-12630412D01*
X10422500Y-13031500D02*
G75*
G02*
X10222500Y-13031500I-100000J0D01*
G01*
X10222500Y-13031500D02*
G75*
G02*
X10422500Y-13031500I100000J0D01*
G01*
X10673753Y-12942031D02*
X10683277Y-12932508D01*
X10683277Y-12932508D02*
X10702324Y-12922984D01*
X10702324Y-12922984D02*
X10749944Y-12922984D01*
X10749944Y-12922984D02*
X10768991Y-12932508D01*
X10768991Y-12932508D02*
X10778515Y-12942031D01*
X10778515Y-12942031D02*
X10788039Y-12961079D01*
X10788039Y-12961079D02*
X10788039Y-12980127D01*
X10788039Y-12980127D02*
X10778515Y-13008698D01*
X10778515Y-13008698D02*
X10664229Y-13122984D01*
X10664229Y-13122984D02*
X10788039Y-13122984D01*
X10873753Y-13103936D02*
X10883277Y-13113460D01*
X10883277Y-13113460D02*
X10873753Y-13122984D01*
X10873753Y-13122984D02*
X10864229Y-13113460D01*
X10864229Y-13113460D02*
X10873753Y-13103936D01*
X10873753Y-13103936D02*
X10873753Y-13122984D01*
X10959467Y-12942031D02*
X10968991Y-12932508D01*
X10968991Y-12932508D02*
X10988039Y-12922984D01*
X10988039Y-12922984D02*
X11035658Y-12922984D01*
X11035658Y-12922984D02*
X11054705Y-12932508D01*
X11054705Y-12932508D02*
X11064229Y-12942031D01*
X11064229Y-12942031D02*
X11073753Y-12961079D01*
X11073753Y-12961079D02*
X11073753Y-12980127D01*
X11073753Y-12980127D02*
X11064229Y-13008698D01*
X11064229Y-13008698D02*
X10949944Y-13122984D01*
X10949944Y-13122984D02*
X11073753Y-13122984D01*
X11197562Y-12922984D02*
X11216610Y-12922984D01*
X11216610Y-12922984D02*
X11235658Y-12932508D01*
X11235658Y-12932508D02*
X11245182Y-12942031D01*
X11245182Y-12942031D02*
X11254705Y-12961079D01*
X11254705Y-12961079D02*
X11264229Y-12999174D01*
X11264229Y-12999174D02*
X11264229Y-13046793D01*
X11264229Y-13046793D02*
X11254705Y-13084888D01*
X11254705Y-13084888D02*
X11245182Y-13103936D01*
X11245182Y-13103936D02*
X11235658Y-13113460D01*
X11235658Y-13113460D02*
X11216610Y-13122984D01*
X11216610Y-13122984D02*
X11197562Y-13122984D01*
X11197562Y-13122984D02*
X11178515Y-13113460D01*
X11178515Y-13113460D02*
X11168991Y-13103936D01*
X11168991Y-13103936D02*
X11159467Y-13084888D01*
X11159467Y-13084888D02*
X11149944Y-13046793D01*
X11149944Y-13046793D02*
X11149944Y-12999174D01*
X11149944Y-12999174D02*
X11159467Y-12961079D01*
X11159467Y-12961079D02*
X11168991Y-12942031D01*
X11168991Y-12942031D02*
X11178515Y-12932508D01*
X11178515Y-12932508D02*
X11197562Y-12922984D01*
X11388039Y-12922984D02*
X11407086Y-12922984D01*
X11407086Y-12922984D02*
X11426134Y-12932508D01*
X11426134Y-12932508D02*
X11435658Y-12942031D01*
X11435658Y-12942031D02*
X11445182Y-12961079D01*
X11445182Y-12961079D02*
X11454705Y-12999174D01*
X11454705Y-12999174D02*
X11454705Y-13046793D01*
X11454705Y-13046793D02*
X11445182Y-13084888D01*
X11445182Y-13084888D02*
X11435658Y-13103936D01*
X11435658Y-13103936D02*
X11426134Y-13113460D01*
X11426134Y-13113460D02*
X11407086Y-13122984D01*
X11407086Y-13122984D02*
X11388039Y-13122984D01*
X11388039Y-13122984D02*
X11368991Y-13113460D01*
X11368991Y-13113460D02*
X11359467Y-13103936D01*
X11359467Y-13103936D02*
X11349943Y-13084888D01*
X11349943Y-13084888D02*
X11340420Y-13046793D01*
X11340420Y-13046793D02*
X11340420Y-12999174D01*
X11340420Y-12999174D02*
X11349943Y-12961079D01*
X11349943Y-12961079D02*
X11359467Y-12942031D01*
X11359467Y-12942031D02*
X11368991Y-12932508D01*
X11368991Y-12932508D02*
X11388039Y-12922984D01*
X11540420Y-13122984D02*
X11540420Y-12989650D01*
X11540420Y-13008698D02*
X11549943Y-12999174D01*
X11549943Y-12999174D02*
X11568991Y-12989650D01*
X11568991Y-12989650D02*
X11597563Y-12989650D01*
X11597563Y-12989650D02*
X11616610Y-12999174D01*
X11616610Y-12999174D02*
X11626134Y-13018222D01*
X11626134Y-13018222D02*
X11626134Y-13122984D01*
X11626134Y-13018222D02*
X11635658Y-12999174D01*
X11635658Y-12999174D02*
X11654705Y-12989650D01*
X11654705Y-12989650D02*
X11683277Y-12989650D01*
X11683277Y-12989650D02*
X11702324Y-12999174D01*
X11702324Y-12999174D02*
X11711848Y-13018222D01*
X11711848Y-13018222D02*
X11711848Y-13122984D01*
X11807086Y-13122984D02*
X11807086Y-12989650D01*
X11807086Y-13008698D02*
X11816610Y-12999174D01*
X11816610Y-12999174D02*
X11835658Y-12989650D01*
X11835658Y-12989650D02*
X11864229Y-12989650D01*
X11864229Y-12989650D02*
X11883277Y-12999174D01*
X11883277Y-12999174D02*
X11892801Y-13018222D01*
X11892801Y-13018222D02*
X11892801Y-13122984D01*
X11892801Y-13018222D02*
X11902324Y-12999174D01*
X11902324Y-12999174D02*
X11921372Y-12989650D01*
X11921372Y-12989650D02*
X11949943Y-12989650D01*
X11949943Y-12989650D02*
X11968991Y-12999174D01*
X11968991Y-12999174D02*
X11978515Y-13018222D01*
X11978515Y-13018222D02*
X11978515Y-13122984D01*
X12368991Y-12913460D02*
X12197563Y-13170603D01*
X12626134Y-12922984D02*
X12645182Y-12922984D01*
X12645182Y-12922984D02*
X12664229Y-12932508D01*
X12664229Y-12932508D02*
X12673753Y-12942031D01*
X12673753Y-12942031D02*
X12683277Y-12961079D01*
X12683277Y-12961079D02*
X12692801Y-12999174D01*
X12692801Y-12999174D02*
X12692801Y-13046793D01*
X12692801Y-13046793D02*
X12683277Y-13084888D01*
X12683277Y-13084888D02*
X12673753Y-13103936D01*
X12673753Y-13103936D02*
X12664229Y-13113460D01*
X12664229Y-13113460D02*
X12645182Y-13122984D01*
X12645182Y-13122984D02*
X12626134Y-13122984D01*
X12626134Y-13122984D02*
X12607086Y-13113460D01*
X12607086Y-13113460D02*
X12597563Y-13103936D01*
X12597563Y-13103936D02*
X12588039Y-13084888D01*
X12588039Y-13084888D02*
X12578515Y-13046793D01*
X12578515Y-13046793D02*
X12578515Y-12999174D01*
X12578515Y-12999174D02*
X12588039Y-12961079D01*
X12588039Y-12961079D02*
X12597563Y-12942031D01*
X12597563Y-12942031D02*
X12607086Y-12932508D01*
X12607086Y-12932508D02*
X12626134Y-12922984D01*
X12778515Y-13103936D02*
X12788039Y-13113460D01*
X12788039Y-13113460D02*
X12778515Y-13122984D01*
X12778515Y-13122984D02*
X12768991Y-13113460D01*
X12768991Y-13113460D02*
X12778515Y-13103936D01*
X12778515Y-13103936D02*
X12778515Y-13122984D01*
X12911848Y-12922984D02*
X12930896Y-12922984D01*
X12930896Y-12922984D02*
X12949944Y-12932508D01*
X12949944Y-12932508D02*
X12959467Y-12942031D01*
X12959467Y-12942031D02*
X12968991Y-12961079D01*
X12968991Y-12961079D02*
X12978515Y-12999174D01*
X12978515Y-12999174D02*
X12978515Y-13046793D01*
X12978515Y-13046793D02*
X12968991Y-13084888D01*
X12968991Y-13084888D02*
X12959467Y-13103936D01*
X12959467Y-13103936D02*
X12949944Y-13113460D01*
X12949944Y-13113460D02*
X12930896Y-13122984D01*
X12930896Y-13122984D02*
X12911848Y-13122984D01*
X12911848Y-13122984D02*
X12892801Y-13113460D01*
X12892801Y-13113460D02*
X12883277Y-13103936D01*
X12883277Y-13103936D02*
X12873753Y-13084888D01*
X12873753Y-13084888D02*
X12864229Y-13046793D01*
X12864229Y-13046793D02*
X12864229Y-12999174D01*
X12864229Y-12999174D02*
X12873753Y-12961079D01*
X12873753Y-12961079D02*
X12883277Y-12942031D01*
X12883277Y-12942031D02*
X12892801Y-12932508D01*
X12892801Y-12932508D02*
X12911848Y-12922984D01*
X13092801Y-13008698D02*
X13073753Y-12999174D01*
X13073753Y-12999174D02*
X13064229Y-12989650D01*
X13064229Y-12989650D02*
X13054706Y-12970603D01*
X13054706Y-12970603D02*
X13054706Y-12961079D01*
X13054706Y-12961079D02*
X13064229Y-12942031D01*
X13064229Y-12942031D02*
X13073753Y-12932508D01*
X13073753Y-12932508D02*
X13092801Y-12922984D01*
X13092801Y-12922984D02*
X13130896Y-12922984D01*
X13130896Y-12922984D02*
X13149944Y-12932508D01*
X13149944Y-12932508D02*
X13159467Y-12942031D01*
X13159467Y-12942031D02*
X13168991Y-12961079D01*
X13168991Y-12961079D02*
X13168991Y-12970603D01*
X13168991Y-12970603D02*
X13159467Y-12989650D01*
X13159467Y-12989650D02*
X13149944Y-12999174D01*
X13149944Y-12999174D02*
X13130896Y-13008698D01*
X13130896Y-13008698D02*
X13092801Y-13008698D01*
X13092801Y-13008698D02*
X13073753Y-13018222D01*
X13073753Y-13018222D02*
X13064229Y-13027746D01*
X13064229Y-13027746D02*
X13054706Y-13046793D01*
X13054706Y-13046793D02*
X13054706Y-13084888D01*
X13054706Y-13084888D02*
X13064229Y-13103936D01*
X13064229Y-13103936D02*
X13073753Y-13113460D01*
X13073753Y-13113460D02*
X13092801Y-13122984D01*
X13092801Y-13122984D02*
X13130896Y-13122984D01*
X13130896Y-13122984D02*
X13149944Y-13113460D01*
X13149944Y-13113460D02*
X13159467Y-13103936D01*
X13159467Y-13103936D02*
X13168991Y-13084888D01*
X13168991Y-13084888D02*
X13168991Y-13046793D01*
X13168991Y-13046793D02*
X13159467Y-13027746D01*
X13159467Y-13027746D02*
X13149944Y-13018222D01*
X13149944Y-13018222D02*
X13130896Y-13008698D01*
X13340420Y-12922984D02*
X13302325Y-12922984D01*
X13302325Y-12922984D02*
X13283277Y-12932508D01*
X13283277Y-12932508D02*
X13273753Y-12942031D01*
X13273753Y-12942031D02*
X13254706Y-12970603D01*
X13254706Y-12970603D02*
X13245182Y-13008698D01*
X13245182Y-13008698D02*
X13245182Y-13084888D01*
X13245182Y-13084888D02*
X13254706Y-13103936D01*
X13254706Y-13103936D02*
X13264229Y-13113460D01*
X13264229Y-13113460D02*
X13283277Y-13122984D01*
X13283277Y-13122984D02*
X13321372Y-13122984D01*
X13321372Y-13122984D02*
X13340420Y-13113460D01*
X13340420Y-13113460D02*
X13349944Y-13103936D01*
X13349944Y-13103936D02*
X13359467Y-13084888D01*
X13359467Y-13084888D02*
X13359467Y-13037269D01*
X13359467Y-13037269D02*
X13349944Y-13018222D01*
X13349944Y-13018222D02*
X13340420Y-13008698D01*
X13340420Y-13008698D02*
X13321372Y-12999174D01*
X13321372Y-12999174D02*
X13283277Y-12999174D01*
X13283277Y-12999174D02*
X13264229Y-13008698D01*
X13264229Y-13008698D02*
X13254706Y-13018222D01*
X13254706Y-13018222D02*
X13245182Y-13037269D01*
X13530896Y-12922984D02*
X13492801Y-12922984D01*
X13492801Y-12922984D02*
X13473753Y-12932508D01*
X13473753Y-12932508D02*
X13464229Y-12942031D01*
X13464229Y-12942031D02*
X13445182Y-12970603D01*
X13445182Y-12970603D02*
X13435658Y-13008698D01*
X13435658Y-13008698D02*
X13435658Y-13084888D01*
X13435658Y-13084888D02*
X13445182Y-13103936D01*
X13445182Y-13103936D02*
X13454706Y-13113460D01*
X13454706Y-13113460D02*
X13473753Y-13122984D01*
X13473753Y-13122984D02*
X13511848Y-13122984D01*
X13511848Y-13122984D02*
X13530896Y-13113460D01*
X13530896Y-13113460D02*
X13540420Y-13103936D01*
X13540420Y-13103936D02*
X13549944Y-13084888D01*
X13549944Y-13084888D02*
X13549944Y-13037269D01*
X13549944Y-13037269D02*
X13540420Y-13018222D01*
X13540420Y-13018222D02*
X13530896Y-13008698D01*
X13530896Y-13008698D02*
X13511848Y-12999174D01*
X13511848Y-12999174D02*
X13473753Y-12999174D01*
X13473753Y-12999174D02*
X13454706Y-13008698D01*
X13454706Y-13008698D02*
X13445182Y-13018222D01*
X13445182Y-13018222D02*
X13435658Y-13037269D01*
X13626134Y-12922984D02*
X13626134Y-12961079D01*
X13702325Y-12922984D02*
X13702325Y-12961079D01*
X13997563Y-13199174D02*
X13988039Y-13189650D01*
X13988039Y-13189650D02*
X13968991Y-13161079D01*
X13968991Y-13161079D02*
X13959468Y-13142031D01*
X13959468Y-13142031D02*
X13949944Y-13113460D01*
X13949944Y-13113460D02*
X13940420Y-13065841D01*
X13940420Y-13065841D02*
X13940420Y-13027746D01*
X13940420Y-13027746D02*
X13949944Y-12980127D01*
X13949944Y-12980127D02*
X13959468Y-12951555D01*
X13959468Y-12951555D02*
X13968991Y-12932508D01*
X13968991Y-12932508D02*
X13988039Y-12903936D01*
X13988039Y-12903936D02*
X13997563Y-12894412D01*
X14159468Y-12989650D02*
X14159468Y-13122984D01*
X14111848Y-12913460D02*
X14064229Y-13056317D01*
X14064229Y-13056317D02*
X14188039Y-13056317D01*
X14416610Y-13122984D02*
X14416610Y-12922984D01*
X14502325Y-13122984D02*
X14502325Y-13018222D01*
X14502325Y-13018222D02*
X14492801Y-12999174D01*
X14492801Y-12999174D02*
X14473753Y-12989650D01*
X14473753Y-12989650D02*
X14445182Y-12989650D01*
X14445182Y-12989650D02*
X14426134Y-12999174D01*
X14426134Y-12999174D02*
X14416610Y-13008698D01*
X14626134Y-13122984D02*
X14607087Y-13113460D01*
X14607087Y-13113460D02*
X14597563Y-13103936D01*
X14597563Y-13103936D02*
X14588039Y-13084888D01*
X14588039Y-13084888D02*
X14588039Y-13027746D01*
X14588039Y-13027746D02*
X14597563Y-13008698D01*
X14597563Y-13008698D02*
X14607087Y-12999174D01*
X14607087Y-12999174D02*
X14626134Y-12989650D01*
X14626134Y-12989650D02*
X14654706Y-12989650D01*
X14654706Y-12989650D02*
X14673753Y-12999174D01*
X14673753Y-12999174D02*
X14683277Y-13008698D01*
X14683277Y-13008698D02*
X14692801Y-13027746D01*
X14692801Y-13027746D02*
X14692801Y-13084888D01*
X14692801Y-13084888D02*
X14683277Y-13103936D01*
X14683277Y-13103936D02*
X14673753Y-13113460D01*
X14673753Y-13113460D02*
X14654706Y-13122984D01*
X14654706Y-13122984D02*
X14626134Y-13122984D01*
X14807087Y-13122984D02*
X14788039Y-13113460D01*
X14788039Y-13113460D02*
X14778515Y-13094412D01*
X14778515Y-13094412D02*
X14778515Y-12922984D01*
X14959468Y-13113460D02*
X14940420Y-13122984D01*
X14940420Y-13122984D02*
X14902325Y-13122984D01*
X14902325Y-13122984D02*
X14883277Y-13113460D01*
X14883277Y-13113460D02*
X14873753Y-13094412D01*
X14873753Y-13094412D02*
X14873753Y-13018222D01*
X14873753Y-13018222D02*
X14883277Y-12999174D01*
X14883277Y-12999174D02*
X14902325Y-12989650D01*
X14902325Y-12989650D02*
X14940420Y-12989650D01*
X14940420Y-12989650D02*
X14959468Y-12999174D01*
X14959468Y-12999174D02*
X14968991Y-13018222D01*
X14968991Y-13018222D02*
X14968991Y-13037269D01*
X14968991Y-13037269D02*
X14873753Y-13056317D01*
X15045182Y-13113460D02*
X15064230Y-13122984D01*
X15064230Y-13122984D02*
X15102325Y-13122984D01*
X15102325Y-13122984D02*
X15121372Y-13113460D01*
X15121372Y-13113460D02*
X15130896Y-13094412D01*
X15130896Y-13094412D02*
X15130896Y-13084888D01*
X15130896Y-13084888D02*
X15121372Y-13065841D01*
X15121372Y-13065841D02*
X15102325Y-13056317D01*
X15102325Y-13056317D02*
X15073753Y-13056317D01*
X15073753Y-13056317D02*
X15054706Y-13046793D01*
X15054706Y-13046793D02*
X15045182Y-13027746D01*
X15045182Y-13027746D02*
X15045182Y-13018222D01*
X15045182Y-13018222D02*
X15054706Y-12999174D01*
X15054706Y-12999174D02*
X15073753Y-12989650D01*
X15073753Y-12989650D02*
X15102325Y-12989650D01*
X15102325Y-12989650D02*
X15121372Y-12999174D01*
X15197563Y-13199174D02*
X15207087Y-13189650D01*
X15207087Y-13189650D02*
X15226134Y-13161079D01*
X15226134Y-13161079D02*
X15235658Y-13142031D01*
X15235658Y-13142031D02*
X15245182Y-13113460D01*
X15245182Y-13113460D02*
X15254706Y-13065841D01*
X15254706Y-13065841D02*
X15254706Y-13027746D01*
X15254706Y-13027746D02*
X15245182Y-12980127D01*
X15245182Y-12980127D02*
X15235658Y-12951555D01*
X15235658Y-12951555D02*
X15226134Y-12932508D01*
X15226134Y-12932508D02*
X15207087Y-12903936D01*
X15207087Y-12903936D02*
X15197563Y-12894412D01*
X15559468Y-13199174D02*
X15549944Y-13189650D01*
X15549944Y-13189650D02*
X15530896Y-13161079D01*
X15530896Y-13161079D02*
X15521372Y-13142031D01*
X15521372Y-13142031D02*
X15511849Y-13113460D01*
X15511849Y-13113460D02*
X15502325Y-13065841D01*
X15502325Y-13065841D02*
X15502325Y-13027746D01*
X15502325Y-13027746D02*
X15511849Y-12980127D01*
X15511849Y-12980127D02*
X15521372Y-12951555D01*
X15521372Y-12951555D02*
X15530896Y-12932508D01*
X15530896Y-12932508D02*
X15549944Y-12903936D01*
X15549944Y-12903936D02*
X15559468Y-12894412D01*
X15635658Y-12989650D02*
X15635658Y-13122984D01*
X15635658Y-13008698D02*
X15645182Y-12999174D01*
X15645182Y-12999174D02*
X15664230Y-12989650D01*
X15664230Y-12989650D02*
X15692801Y-12989650D01*
X15692801Y-12989650D02*
X15711849Y-12999174D01*
X15711849Y-12999174D02*
X15721372Y-13018222D01*
X15721372Y-13018222D02*
X15721372Y-13122984D01*
X15845182Y-13122984D02*
X15826134Y-13113460D01*
X15826134Y-13113460D02*
X15816611Y-13103936D01*
X15816611Y-13103936D02*
X15807087Y-13084888D01*
X15807087Y-13084888D02*
X15807087Y-13027746D01*
X15807087Y-13027746D02*
X15816611Y-13008698D01*
X15816611Y-13008698D02*
X15826134Y-12999174D01*
X15826134Y-12999174D02*
X15845182Y-12989650D01*
X15845182Y-12989650D02*
X15873753Y-12989650D01*
X15873753Y-12989650D02*
X15892801Y-12999174D01*
X15892801Y-12999174D02*
X15902325Y-13008698D01*
X15902325Y-13008698D02*
X15911849Y-13027746D01*
X15911849Y-13027746D02*
X15911849Y-13084888D01*
X15911849Y-13084888D02*
X15902325Y-13103936D01*
X15902325Y-13103936D02*
X15892801Y-13113460D01*
X15892801Y-13113460D02*
X15873753Y-13122984D01*
X15873753Y-13122984D02*
X15845182Y-13122984D01*
X15968992Y-12989650D02*
X16045182Y-12989650D01*
X15997563Y-12922984D02*
X15997563Y-13094412D01*
X15997563Y-13094412D02*
X16007087Y-13113460D01*
X16007087Y-13113460D02*
X16026134Y-13122984D01*
X16026134Y-13122984D02*
X16045182Y-13122984D01*
X16264230Y-12989650D02*
X16264230Y-13189650D01*
X16264230Y-12999174D02*
X16283277Y-12989650D01*
X16283277Y-12989650D02*
X16321373Y-12989650D01*
X16321373Y-12989650D02*
X16340420Y-12999174D01*
X16340420Y-12999174D02*
X16349944Y-13008698D01*
X16349944Y-13008698D02*
X16359468Y-13027746D01*
X16359468Y-13027746D02*
X16359468Y-13084888D01*
X16359468Y-13084888D02*
X16349944Y-13103936D01*
X16349944Y-13103936D02*
X16340420Y-13113460D01*
X16340420Y-13113460D02*
X16321373Y-13122984D01*
X16321373Y-13122984D02*
X16283277Y-13122984D01*
X16283277Y-13122984D02*
X16264230Y-13113460D01*
X16473753Y-13122984D02*
X16454706Y-13113460D01*
X16454706Y-13113460D02*
X16445182Y-13094412D01*
X16445182Y-13094412D02*
X16445182Y-12922984D01*
X16635658Y-13122984D02*
X16635658Y-13018222D01*
X16635658Y-13018222D02*
X16626134Y-12999174D01*
X16626134Y-12999174D02*
X16607087Y-12989650D01*
X16607087Y-12989650D02*
X16568992Y-12989650D01*
X16568992Y-12989650D02*
X16549944Y-12999174D01*
X16635658Y-13113460D02*
X16616611Y-13122984D01*
X16616611Y-13122984D02*
X16568992Y-13122984D01*
X16568992Y-13122984D02*
X16549944Y-13113460D01*
X16549944Y-13113460D02*
X16540420Y-13094412D01*
X16540420Y-13094412D02*
X16540420Y-13075365D01*
X16540420Y-13075365D02*
X16549944Y-13056317D01*
X16549944Y-13056317D02*
X16568992Y-13046793D01*
X16568992Y-13046793D02*
X16616611Y-13046793D01*
X16616611Y-13046793D02*
X16635658Y-13037269D01*
X16702325Y-12989650D02*
X16778515Y-12989650D01*
X16730896Y-12922984D02*
X16730896Y-13094412D01*
X16730896Y-13094412D02*
X16740420Y-13113460D01*
X16740420Y-13113460D02*
X16759468Y-13122984D01*
X16759468Y-13122984D02*
X16778515Y-13122984D01*
X16921373Y-13113460D02*
X16902325Y-13122984D01*
X16902325Y-13122984D02*
X16864230Y-13122984D01*
X16864230Y-13122984D02*
X16845182Y-13113460D01*
X16845182Y-13113460D02*
X16835658Y-13094412D01*
X16835658Y-13094412D02*
X16835658Y-13018222D01*
X16835658Y-13018222D02*
X16845182Y-12999174D01*
X16845182Y-12999174D02*
X16864230Y-12989650D01*
X16864230Y-12989650D02*
X16902325Y-12989650D01*
X16902325Y-12989650D02*
X16921373Y-12999174D01*
X16921373Y-12999174D02*
X16930896Y-13018222D01*
X16930896Y-13018222D02*
X16930896Y-13037269D01*
X16930896Y-13037269D02*
X16835658Y-13056317D01*
X17102325Y-13122984D02*
X17102325Y-12922984D01*
X17102325Y-13113460D02*
X17083277Y-13122984D01*
X17083277Y-13122984D02*
X17045182Y-13122984D01*
X17045182Y-13122984D02*
X17026135Y-13113460D01*
X17026135Y-13113460D02*
X17016611Y-13103936D01*
X17016611Y-13103936D02*
X17007087Y-13084888D01*
X17007087Y-13084888D02*
X17007087Y-13027746D01*
X17007087Y-13027746D02*
X17016611Y-13008698D01*
X17016611Y-13008698D02*
X17026135Y-12999174D01*
X17026135Y-12999174D02*
X17045182Y-12989650D01*
X17045182Y-12989650D02*
X17083277Y-12989650D01*
X17083277Y-12989650D02*
X17102325Y-12999174D01*
X17178516Y-13199174D02*
X17188039Y-13189650D01*
X17188039Y-13189650D02*
X17207087Y-13161079D01*
X17207087Y-13161079D02*
X17216611Y-13142031D01*
X17216611Y-13142031D02*
X17226135Y-13113460D01*
X17226135Y-13113460D02*
X17235658Y-13065841D01*
X17235658Y-13065841D02*
X17235658Y-13027746D01*
X17235658Y-13027746D02*
X17226135Y-12980127D01*
X17226135Y-12980127D02*
X17216611Y-12951555D01*
X17216611Y-12951555D02*
X17207087Y-12932508D01*
X17207087Y-12932508D02*
X17188039Y-12903936D01*
X17188039Y-12903936D02*
X17178516Y-12894412D01*
M02*
