G04 #@! TF.GenerationSoftware,KiCad,Pcbnew,9.0.2*
G04 #@! TF.CreationDate,2025-05-26T23:51:25-05:00*
G04 #@! TF.ProjectId,mainboard,6d61696e-626f-4617-9264-2e6b69636164,rev?*
G04 #@! TF.SameCoordinates,Original*
G04 #@! TF.FileFunction,Legend,Top*
G04 #@! TF.FilePolarity,Positive*
%FSLAX46Y46*%
G04 Gerber Fmt 4.6, Leading zero omitted, Abs format (unit mm)*
G04 Created by KiCad (PCBNEW 9.0.2) date 2025-05-26 23:51:25*
%MOMM*%
%LPD*%
G01*
G04 APERTURE LIST*
G04 Aperture macros list*
%AMRoundRect*
0 Rectangle with rounded corners*
0 $1 Rounding radius*
0 $2 $3 $4 $5 $6 $7 $8 $9 X,Y pos of 4 corners*
0 Add a 4 corners polygon primitive as box body*
4,1,4,$2,$3,$4,$5,$6,$7,$8,$9,$2,$3,0*
0 Add four circle primitives for the rounded corners*
1,1,$1+$1,$2,$3*
1,1,$1+$1,$4,$5*
1,1,$1+$1,$6,$7*
1,1,$1+$1,$8,$9*
0 Add four rect primitives between the rounded corners*
20,1,$1+$1,$2,$3,$4,$5,0*
20,1,$1+$1,$4,$5,$6,$7,0*
20,1,$1+$1,$6,$7,$8,$9,0*
20,1,$1+$1,$8,$9,$2,$3,0*%
G04 Aperture macros list end*
%ADD10C,0.100000*%
%ADD11C,0.150000*%
%ADD12C,0.120000*%
%ADD13C,0.000000*%
%ADD14R,1.500000X0.900000*%
%ADD15R,0.900000X1.500000*%
%ADD16R,0.900000X0.900000*%
%ADD17RoundRect,0.375000X0.375000X-0.625000X0.375000X0.625000X-0.375000X0.625000X-0.375000X-0.625000X0*%
%ADD18RoundRect,0.500000X1.400000X-0.500000X1.400000X0.500000X-1.400000X0.500000X-1.400000X-0.500000X0*%
%ADD19RoundRect,0.250000X0.450000X-0.350000X0.450000X0.350000X-0.450000X0.350000X-0.450000X-0.350000X0*%
%ADD20RoundRect,0.250000X0.337500X0.475000X-0.337500X0.475000X-0.337500X-0.475000X0.337500X-0.475000X0*%
%ADD21RoundRect,0.150000X0.150000X0.200000X-0.150000X0.200000X-0.150000X-0.200000X0.150000X-0.200000X0*%
%ADD22RoundRect,0.250000X0.475000X-0.337500X0.475000X0.337500X-0.475000X0.337500X-0.475000X-0.337500X0*%
%ADD23C,2.200000*%
%ADD24C,0.650000*%
%ADD25RoundRect,0.150000X0.150000X0.425000X-0.150000X0.425000X-0.150000X-0.425000X0.150000X-0.425000X0*%
%ADD26RoundRect,0.075000X0.075000X0.500000X-0.075000X0.500000X-0.075000X-0.500000X0.075000X-0.500000X0*%
%ADD27O,1.000000X2.100000*%
%ADD28O,1.000000X1.800000*%
%ADD29RoundRect,0.250000X0.350000X0.450000X-0.350000X0.450000X-0.350000X-0.450000X0.350000X-0.450000X0*%
%ADD30RoundRect,0.150000X0.700000X-0.150000X0.700000X0.150000X-0.700000X0.150000X-0.700000X-0.150000X0*%
%ADD31RoundRect,0.250000X1.100000X-0.250000X1.100000X0.250000X-1.100000X0.250000X-1.100000X-0.250000X0*%
%ADD32RoundRect,0.150000X-0.150000X-0.200000X0.150000X-0.200000X0.150000X0.200000X-0.150000X0.200000X0*%
%ADD33RoundRect,0.250000X-0.325000X-0.450000X0.325000X-0.450000X0.325000X0.450000X-0.325000X0.450000X0*%
%ADD34RoundRect,0.250000X1.500000X-0.250000X1.500000X0.250000X-1.500000X0.250000X-1.500000X-0.250000X0*%
%ADD35RoundRect,0.250001X1.449999X-0.499999X1.449999X0.499999X-1.449999X0.499999X-1.449999X-0.499999X0*%
%ADD36RoundRect,0.250000X0.550000X-1.500000X0.550000X1.500000X-0.550000X1.500000X-0.550000X-1.500000X0*%
G04 APERTURE END LIST*
D10*
X136062782Y-88770112D02*
X136005640Y-88741541D01*
X136005640Y-88741541D02*
X135919925Y-88741541D01*
X135919925Y-88741541D02*
X135834211Y-88770112D01*
X135834211Y-88770112D02*
X135777068Y-88827255D01*
X135777068Y-88827255D02*
X135748497Y-88884398D01*
X135748497Y-88884398D02*
X135719925Y-88998684D01*
X135719925Y-88998684D02*
X135719925Y-89084398D01*
X135719925Y-89084398D02*
X135748497Y-89198684D01*
X135748497Y-89198684D02*
X135777068Y-89255827D01*
X135777068Y-89255827D02*
X135834211Y-89312970D01*
X135834211Y-89312970D02*
X135919925Y-89341541D01*
X135919925Y-89341541D02*
X135977068Y-89341541D01*
X135977068Y-89341541D02*
X136062782Y-89312970D01*
X136062782Y-89312970D02*
X136091354Y-89284398D01*
X136091354Y-89284398D02*
X136091354Y-89084398D01*
X136091354Y-89084398D02*
X135977068Y-89084398D01*
X136348497Y-89341541D02*
X136348497Y-88741541D01*
X136348497Y-88741541D02*
X136691354Y-89341541D01*
X136691354Y-89341541D02*
X136691354Y-88741541D01*
X136977068Y-89341541D02*
X136977068Y-88741541D01*
X136977068Y-88741541D02*
X137119925Y-88741541D01*
X137119925Y-88741541D02*
X137205639Y-88770112D01*
X137205639Y-88770112D02*
X137262782Y-88827255D01*
X137262782Y-88827255D02*
X137291353Y-88884398D01*
X137291353Y-88884398D02*
X137319925Y-88998684D01*
X137319925Y-88998684D02*
X137319925Y-89084398D01*
X137319925Y-89084398D02*
X137291353Y-89198684D01*
X137291353Y-89198684D02*
X137262782Y-89255827D01*
X137262782Y-89255827D02*
X137205639Y-89312970D01*
X137205639Y-89312970D02*
X137119925Y-89341541D01*
X137119925Y-89341541D02*
X136977068Y-89341541D01*
X134891353Y-90078936D02*
X135348496Y-90078936D01*
X135119924Y-90307507D02*
X135119924Y-89850364D01*
X135577067Y-89707507D02*
X135948495Y-89707507D01*
X135948495Y-89707507D02*
X135748495Y-89936078D01*
X135748495Y-89936078D02*
X135834210Y-89936078D01*
X135834210Y-89936078D02*
X135891353Y-89964650D01*
X135891353Y-89964650D02*
X135919924Y-89993221D01*
X135919924Y-89993221D02*
X135948495Y-90050364D01*
X135948495Y-90050364D02*
X135948495Y-90193221D01*
X135948495Y-90193221D02*
X135919924Y-90250364D01*
X135919924Y-90250364D02*
X135891353Y-90278936D01*
X135891353Y-90278936D02*
X135834210Y-90307507D01*
X135834210Y-90307507D02*
X135662781Y-90307507D01*
X135662781Y-90307507D02*
X135605638Y-90278936D01*
X135605638Y-90278936D02*
X135577067Y-90250364D01*
X136205639Y-90250364D02*
X136234210Y-90278936D01*
X136234210Y-90278936D02*
X136205639Y-90307507D01*
X136205639Y-90307507D02*
X136177067Y-90278936D01*
X136177067Y-90278936D02*
X136205639Y-90250364D01*
X136205639Y-90250364D02*
X136205639Y-90307507D01*
X136434210Y-89707507D02*
X136805638Y-89707507D01*
X136805638Y-89707507D02*
X136605638Y-89936078D01*
X136605638Y-89936078D02*
X136691353Y-89936078D01*
X136691353Y-89936078D02*
X136748496Y-89964650D01*
X136748496Y-89964650D02*
X136777067Y-89993221D01*
X136777067Y-89993221D02*
X136805638Y-90050364D01*
X136805638Y-90050364D02*
X136805638Y-90193221D01*
X136805638Y-90193221D02*
X136777067Y-90250364D01*
X136777067Y-90250364D02*
X136748496Y-90278936D01*
X136748496Y-90278936D02*
X136691353Y-90307507D01*
X136691353Y-90307507D02*
X136519924Y-90307507D01*
X136519924Y-90307507D02*
X136462781Y-90278936D01*
X136462781Y-90278936D02*
X136434210Y-90250364D01*
X136977067Y-89707507D02*
X137177067Y-90307507D01*
X137177067Y-90307507D02*
X137377067Y-89707507D01*
X134605639Y-91244902D02*
X134691354Y-91273473D01*
X134691354Y-91273473D02*
X134834211Y-91273473D01*
X134834211Y-91273473D02*
X134891354Y-91244902D01*
X134891354Y-91244902D02*
X134919925Y-91216330D01*
X134919925Y-91216330D02*
X134948496Y-91159187D01*
X134948496Y-91159187D02*
X134948496Y-91102044D01*
X134948496Y-91102044D02*
X134919925Y-91044902D01*
X134919925Y-91044902D02*
X134891354Y-91016330D01*
X134891354Y-91016330D02*
X134834211Y-90987759D01*
X134834211Y-90987759D02*
X134719925Y-90959187D01*
X134719925Y-90959187D02*
X134662782Y-90930616D01*
X134662782Y-90930616D02*
X134634211Y-90902044D01*
X134634211Y-90902044D02*
X134605639Y-90844902D01*
X134605639Y-90844902D02*
X134605639Y-90787759D01*
X134605639Y-90787759D02*
X134634211Y-90730616D01*
X134634211Y-90730616D02*
X134662782Y-90702044D01*
X134662782Y-90702044D02*
X134719925Y-90673473D01*
X134719925Y-90673473D02*
X134862782Y-90673473D01*
X134862782Y-90673473D02*
X134948496Y-90702044D01*
X135205640Y-91273473D02*
X135205640Y-90673473D01*
X135205640Y-90673473D02*
X135405640Y-91102044D01*
X135405640Y-91102044D02*
X135605640Y-90673473D01*
X135605640Y-90673473D02*
X135605640Y-91273473D01*
X136234211Y-91216330D02*
X136205639Y-91244902D01*
X136205639Y-91244902D02*
X136119925Y-91273473D01*
X136119925Y-91273473D02*
X136062782Y-91273473D01*
X136062782Y-91273473D02*
X135977068Y-91244902D01*
X135977068Y-91244902D02*
X135919925Y-91187759D01*
X135919925Y-91187759D02*
X135891354Y-91130616D01*
X135891354Y-91130616D02*
X135862782Y-91016330D01*
X135862782Y-91016330D02*
X135862782Y-90930616D01*
X135862782Y-90930616D02*
X135891354Y-90816330D01*
X135891354Y-90816330D02*
X135919925Y-90759187D01*
X135919925Y-90759187D02*
X135977068Y-90702044D01*
X135977068Y-90702044D02*
X136062782Y-90673473D01*
X136062782Y-90673473D02*
X136119925Y-90673473D01*
X136119925Y-90673473D02*
X136205639Y-90702044D01*
X136205639Y-90702044D02*
X136234211Y-90730616D01*
X136777068Y-91273473D02*
X136491354Y-91273473D01*
X136491354Y-91273473D02*
X136491354Y-90673473D01*
X136977068Y-91273473D02*
X136977068Y-90673473D01*
X137319925Y-91273473D02*
X137062782Y-90930616D01*
X137319925Y-90673473D02*
X136977068Y-91016330D01*
X134205638Y-92210868D02*
X134291353Y-92239439D01*
X134291353Y-92239439D02*
X134434210Y-92239439D01*
X134434210Y-92239439D02*
X134491353Y-92210868D01*
X134491353Y-92210868D02*
X134519924Y-92182296D01*
X134519924Y-92182296D02*
X134548495Y-92125153D01*
X134548495Y-92125153D02*
X134548495Y-92068010D01*
X134548495Y-92068010D02*
X134519924Y-92010868D01*
X134519924Y-92010868D02*
X134491353Y-91982296D01*
X134491353Y-91982296D02*
X134434210Y-91953725D01*
X134434210Y-91953725D02*
X134319924Y-91925153D01*
X134319924Y-91925153D02*
X134262781Y-91896582D01*
X134262781Y-91896582D02*
X134234210Y-91868010D01*
X134234210Y-91868010D02*
X134205638Y-91810868D01*
X134205638Y-91810868D02*
X134205638Y-91753725D01*
X134205638Y-91753725D02*
X134234210Y-91696582D01*
X134234210Y-91696582D02*
X134262781Y-91668010D01*
X134262781Y-91668010D02*
X134319924Y-91639439D01*
X134319924Y-91639439D02*
X134462781Y-91639439D01*
X134462781Y-91639439D02*
X134548495Y-91668010D01*
X134805639Y-92239439D02*
X134805639Y-91639439D01*
X134805639Y-91639439D02*
X135005639Y-92068010D01*
X135005639Y-92068010D02*
X135205639Y-91639439D01*
X135205639Y-91639439D02*
X135205639Y-92239439D01*
X135491353Y-92239439D02*
X135491353Y-91639439D01*
X135491353Y-91639439D02*
X135634210Y-91639439D01*
X135634210Y-91639439D02*
X135719924Y-91668010D01*
X135719924Y-91668010D02*
X135777067Y-91725153D01*
X135777067Y-91725153D02*
X135805638Y-91782296D01*
X135805638Y-91782296D02*
X135834210Y-91896582D01*
X135834210Y-91896582D02*
X135834210Y-91982296D01*
X135834210Y-91982296D02*
X135805638Y-92096582D01*
X135805638Y-92096582D02*
X135777067Y-92153725D01*
X135777067Y-92153725D02*
X135719924Y-92210868D01*
X135719924Y-92210868D02*
X135634210Y-92239439D01*
X135634210Y-92239439D02*
X135491353Y-92239439D01*
X136062781Y-92068010D02*
X136348496Y-92068010D01*
X136005638Y-92239439D02*
X136205638Y-91639439D01*
X136205638Y-91639439D02*
X136405638Y-92239439D01*
X136519924Y-91639439D02*
X136862782Y-91639439D01*
X136691353Y-92239439D02*
X136691353Y-91639439D01*
X137034210Y-92068010D02*
X137319925Y-92068010D01*
X136977067Y-92239439D02*
X137177067Y-91639439D01*
X137177067Y-91639439D02*
X137377067Y-92239439D01*
X134177067Y-92605405D02*
X134519925Y-92605405D01*
X134348496Y-93205405D02*
X134348496Y-92605405D01*
X135062782Y-93148262D02*
X135034210Y-93176834D01*
X135034210Y-93176834D02*
X134948496Y-93205405D01*
X134948496Y-93205405D02*
X134891353Y-93205405D01*
X134891353Y-93205405D02*
X134805639Y-93176834D01*
X134805639Y-93176834D02*
X134748496Y-93119691D01*
X134748496Y-93119691D02*
X134719925Y-93062548D01*
X134719925Y-93062548D02*
X134691353Y-92948262D01*
X134691353Y-92948262D02*
X134691353Y-92862548D01*
X134691353Y-92862548D02*
X134719925Y-92748262D01*
X134719925Y-92748262D02*
X134748496Y-92691119D01*
X134748496Y-92691119D02*
X134805639Y-92633976D01*
X134805639Y-92633976D02*
X134891353Y-92605405D01*
X134891353Y-92605405D02*
X134948496Y-92605405D01*
X134948496Y-92605405D02*
X135034210Y-92633976D01*
X135034210Y-92633976D02*
X135062782Y-92662548D01*
X135319925Y-93205405D02*
X135319925Y-92605405D01*
X135319925Y-92891119D02*
X135662782Y-92891119D01*
X135662782Y-93205405D02*
X135662782Y-92605405D01*
X136291353Y-93205405D02*
X136091353Y-92919691D01*
X135948496Y-93205405D02*
X135948496Y-92605405D01*
X135948496Y-92605405D02*
X136177067Y-92605405D01*
X136177067Y-92605405D02*
X136234210Y-92633976D01*
X136234210Y-92633976D02*
X136262781Y-92662548D01*
X136262781Y-92662548D02*
X136291353Y-92719691D01*
X136291353Y-92719691D02*
X136291353Y-92805405D01*
X136291353Y-92805405D02*
X136262781Y-92862548D01*
X136262781Y-92862548D02*
X136234210Y-92891119D01*
X136234210Y-92891119D02*
X136177067Y-92919691D01*
X136177067Y-92919691D02*
X135948496Y-92919691D01*
X136519924Y-93176834D02*
X136605639Y-93205405D01*
X136605639Y-93205405D02*
X136748496Y-93205405D01*
X136748496Y-93205405D02*
X136805639Y-93176834D01*
X136805639Y-93176834D02*
X136834210Y-93148262D01*
X136834210Y-93148262D02*
X136862781Y-93091119D01*
X136862781Y-93091119D02*
X136862781Y-93033976D01*
X136862781Y-93033976D02*
X136834210Y-92976834D01*
X136834210Y-92976834D02*
X136805639Y-92948262D01*
X136805639Y-92948262D02*
X136748496Y-92919691D01*
X136748496Y-92919691D02*
X136634210Y-92891119D01*
X136634210Y-92891119D02*
X136577067Y-92862548D01*
X136577067Y-92862548D02*
X136548496Y-92833976D01*
X136548496Y-92833976D02*
X136519924Y-92776834D01*
X136519924Y-92776834D02*
X136519924Y-92719691D01*
X136519924Y-92719691D02*
X136548496Y-92662548D01*
X136548496Y-92662548D02*
X136577067Y-92633976D01*
X136577067Y-92633976D02*
X136634210Y-92605405D01*
X136634210Y-92605405D02*
X136777067Y-92605405D01*
X136777067Y-92605405D02*
X136862781Y-92633976D01*
X137034210Y-92605405D02*
X137377068Y-92605405D01*
X137205639Y-93205405D02*
X137205639Y-92605405D01*
X133748496Y-93571371D02*
X134091354Y-93571371D01*
X133919925Y-94171371D02*
X133919925Y-93571371D01*
X134634211Y-94114228D02*
X134605639Y-94142800D01*
X134605639Y-94142800D02*
X134519925Y-94171371D01*
X134519925Y-94171371D02*
X134462782Y-94171371D01*
X134462782Y-94171371D02*
X134377068Y-94142800D01*
X134377068Y-94142800D02*
X134319925Y-94085657D01*
X134319925Y-94085657D02*
X134291354Y-94028514D01*
X134291354Y-94028514D02*
X134262782Y-93914228D01*
X134262782Y-93914228D02*
X134262782Y-93828514D01*
X134262782Y-93828514D02*
X134291354Y-93714228D01*
X134291354Y-93714228D02*
X134319925Y-93657085D01*
X134319925Y-93657085D02*
X134377068Y-93599942D01*
X134377068Y-93599942D02*
X134462782Y-93571371D01*
X134462782Y-93571371D02*
X134519925Y-93571371D01*
X134519925Y-93571371D02*
X134605639Y-93599942D01*
X134605639Y-93599942D02*
X134634211Y-93628514D01*
X134891354Y-94171371D02*
X134891354Y-93571371D01*
X134891354Y-93857085D02*
X135234211Y-93857085D01*
X135234211Y-94171371D02*
X135234211Y-93571371D01*
X135491353Y-93999942D02*
X135777068Y-93999942D01*
X135434210Y-94171371D02*
X135634210Y-93571371D01*
X135634210Y-93571371D02*
X135834210Y-94171371D01*
X136319925Y-94171371D02*
X136034211Y-94171371D01*
X136034211Y-94171371D02*
X136034211Y-93571371D01*
X136862782Y-94171371D02*
X136662782Y-93885657D01*
X136519925Y-94171371D02*
X136519925Y-93571371D01*
X136519925Y-93571371D02*
X136748496Y-93571371D01*
X136748496Y-93571371D02*
X136805639Y-93599942D01*
X136805639Y-93599942D02*
X136834210Y-93628514D01*
X136834210Y-93628514D02*
X136862782Y-93685657D01*
X136862782Y-93685657D02*
X136862782Y-93771371D01*
X136862782Y-93771371D02*
X136834210Y-93828514D01*
X136834210Y-93828514D02*
X136805639Y-93857085D01*
X136805639Y-93857085D02*
X136748496Y-93885657D01*
X136748496Y-93885657D02*
X136519925Y-93885657D01*
X137034210Y-93571371D02*
X137377068Y-93571371D01*
X137205639Y-94171371D02*
X137205639Y-93571371D01*
X134955639Y-104841541D02*
X134755639Y-104555827D01*
X134612782Y-104841541D02*
X134612782Y-104241541D01*
X134612782Y-104241541D02*
X134841353Y-104241541D01*
X134841353Y-104241541D02*
X134898496Y-104270112D01*
X134898496Y-104270112D02*
X134927067Y-104298684D01*
X134927067Y-104298684D02*
X134955639Y-104355827D01*
X134955639Y-104355827D02*
X134955639Y-104441541D01*
X134955639Y-104441541D02*
X134927067Y-104498684D01*
X134927067Y-104498684D02*
X134898496Y-104527255D01*
X134898496Y-104527255D02*
X134841353Y-104555827D01*
X134841353Y-104555827D02*
X134612782Y-104555827D01*
X135212782Y-104527255D02*
X135412782Y-104527255D01*
X135498496Y-104841541D02*
X135212782Y-104841541D01*
X135212782Y-104841541D02*
X135212782Y-104241541D01*
X135212782Y-104241541D02*
X135498496Y-104241541D01*
X135727067Y-104812970D02*
X135812782Y-104841541D01*
X135812782Y-104841541D02*
X135955639Y-104841541D01*
X135955639Y-104841541D02*
X136012782Y-104812970D01*
X136012782Y-104812970D02*
X136041353Y-104784398D01*
X136041353Y-104784398D02*
X136069924Y-104727255D01*
X136069924Y-104727255D02*
X136069924Y-104670112D01*
X136069924Y-104670112D02*
X136041353Y-104612970D01*
X136041353Y-104612970D02*
X136012782Y-104584398D01*
X136012782Y-104584398D02*
X135955639Y-104555827D01*
X135955639Y-104555827D02*
X135841353Y-104527255D01*
X135841353Y-104527255D02*
X135784210Y-104498684D01*
X135784210Y-104498684D02*
X135755639Y-104470112D01*
X135755639Y-104470112D02*
X135727067Y-104412970D01*
X135727067Y-104412970D02*
X135727067Y-104355827D01*
X135727067Y-104355827D02*
X135755639Y-104298684D01*
X135755639Y-104298684D02*
X135784210Y-104270112D01*
X135784210Y-104270112D02*
X135841353Y-104241541D01*
X135841353Y-104241541D02*
X135984210Y-104241541D01*
X135984210Y-104241541D02*
X136069924Y-104270112D01*
X136327068Y-104527255D02*
X136527068Y-104527255D01*
X136612782Y-104841541D02*
X136327068Y-104841541D01*
X136327068Y-104841541D02*
X136327068Y-104241541D01*
X136327068Y-104241541D02*
X136612782Y-104241541D01*
X136784210Y-104241541D02*
X137127068Y-104241541D01*
X136955639Y-104841541D02*
X136955639Y-104241541D01*
X135955640Y-105807507D02*
X135955640Y-105207507D01*
X136241354Y-105807507D02*
X136241354Y-105207507D01*
X136241354Y-105207507D02*
X136584211Y-105807507D01*
X136584211Y-105807507D02*
X136584211Y-105207507D01*
X136784210Y-105207507D02*
X137127068Y-105207507D01*
X136955639Y-105807507D02*
X136955639Y-105207507D01*
X135327068Y-106773473D02*
X135041354Y-106773473D01*
X135041354Y-106773473D02*
X135041354Y-106173473D01*
X135527068Y-106773473D02*
X135527068Y-106173473D01*
X135527068Y-106173473D02*
X135755639Y-106173473D01*
X135755639Y-106173473D02*
X135812782Y-106202044D01*
X135812782Y-106202044D02*
X135841353Y-106230616D01*
X135841353Y-106230616D02*
X135869925Y-106287759D01*
X135869925Y-106287759D02*
X135869925Y-106373473D01*
X135869925Y-106373473D02*
X135841353Y-106430616D01*
X135841353Y-106430616D02*
X135812782Y-106459187D01*
X135812782Y-106459187D02*
X135755639Y-106487759D01*
X135755639Y-106487759D02*
X135527068Y-106487759D01*
X136127068Y-106773473D02*
X136127068Y-106173473D01*
X136127068Y-106173473D02*
X136469925Y-106773473D01*
X136469925Y-106773473D02*
X136469925Y-106173473D01*
X136698496Y-106173473D02*
X137069924Y-106173473D01*
X137069924Y-106173473D02*
X136869924Y-106402044D01*
X136869924Y-106402044D02*
X136955639Y-106402044D01*
X136955639Y-106402044D02*
X137012782Y-106430616D01*
X137012782Y-106430616D02*
X137041353Y-106459187D01*
X137041353Y-106459187D02*
X137069924Y-106516330D01*
X137069924Y-106516330D02*
X137069924Y-106659187D01*
X137069924Y-106659187D02*
X137041353Y-106716330D01*
X137041353Y-106716330D02*
X137012782Y-106744902D01*
X137012782Y-106744902D02*
X136955639Y-106773473D01*
X136955639Y-106773473D02*
X136784210Y-106773473D01*
X136784210Y-106773473D02*
X136727067Y-106744902D01*
X136727067Y-106744902D02*
X136698496Y-106716330D01*
X135327068Y-107739439D02*
X135041354Y-107739439D01*
X135041354Y-107739439D02*
X135041354Y-107139439D01*
X135527068Y-107739439D02*
X135527068Y-107139439D01*
X135527068Y-107139439D02*
X135755639Y-107139439D01*
X135755639Y-107139439D02*
X135812782Y-107168010D01*
X135812782Y-107168010D02*
X135841353Y-107196582D01*
X135841353Y-107196582D02*
X135869925Y-107253725D01*
X135869925Y-107253725D02*
X135869925Y-107339439D01*
X135869925Y-107339439D02*
X135841353Y-107396582D01*
X135841353Y-107396582D02*
X135812782Y-107425153D01*
X135812782Y-107425153D02*
X135755639Y-107453725D01*
X135755639Y-107453725D02*
X135527068Y-107453725D01*
X136127068Y-107739439D02*
X136127068Y-107139439D01*
X136127068Y-107139439D02*
X136469925Y-107739439D01*
X136469925Y-107739439D02*
X136469925Y-107139439D01*
X136727067Y-107196582D02*
X136755639Y-107168010D01*
X136755639Y-107168010D02*
X136812782Y-107139439D01*
X136812782Y-107139439D02*
X136955639Y-107139439D01*
X136955639Y-107139439D02*
X137012782Y-107168010D01*
X137012782Y-107168010D02*
X137041353Y-107196582D01*
X137041353Y-107196582D02*
X137069924Y-107253725D01*
X137069924Y-107253725D02*
X137069924Y-107310868D01*
X137069924Y-107310868D02*
X137041353Y-107396582D01*
X137041353Y-107396582D02*
X136698496Y-107739439D01*
X136698496Y-107739439D02*
X137069924Y-107739439D01*
X135327068Y-108705405D02*
X135041354Y-108705405D01*
X135041354Y-108705405D02*
X135041354Y-108105405D01*
X135527068Y-108705405D02*
X135527068Y-108105405D01*
X135527068Y-108105405D02*
X135755639Y-108105405D01*
X135755639Y-108105405D02*
X135812782Y-108133976D01*
X135812782Y-108133976D02*
X135841353Y-108162548D01*
X135841353Y-108162548D02*
X135869925Y-108219691D01*
X135869925Y-108219691D02*
X135869925Y-108305405D01*
X135869925Y-108305405D02*
X135841353Y-108362548D01*
X135841353Y-108362548D02*
X135812782Y-108391119D01*
X135812782Y-108391119D02*
X135755639Y-108419691D01*
X135755639Y-108419691D02*
X135527068Y-108419691D01*
X136127068Y-108705405D02*
X136127068Y-108105405D01*
X136127068Y-108105405D02*
X136469925Y-108705405D01*
X136469925Y-108705405D02*
X136469925Y-108105405D01*
X137069924Y-108705405D02*
X136727067Y-108705405D01*
X136898496Y-108705405D02*
X136898496Y-108105405D01*
X136898496Y-108105405D02*
X136841353Y-108191119D01*
X136841353Y-108191119D02*
X136784210Y-108248262D01*
X136784210Y-108248262D02*
X136727067Y-108276834D01*
X135327068Y-109671371D02*
X135041354Y-109671371D01*
X135041354Y-109671371D02*
X135041354Y-109071371D01*
X135527068Y-109671371D02*
X135527068Y-109071371D01*
X135527068Y-109071371D02*
X135755639Y-109071371D01*
X135755639Y-109071371D02*
X135812782Y-109099942D01*
X135812782Y-109099942D02*
X135841353Y-109128514D01*
X135841353Y-109128514D02*
X135869925Y-109185657D01*
X135869925Y-109185657D02*
X135869925Y-109271371D01*
X135869925Y-109271371D02*
X135841353Y-109328514D01*
X135841353Y-109328514D02*
X135812782Y-109357085D01*
X135812782Y-109357085D02*
X135755639Y-109385657D01*
X135755639Y-109385657D02*
X135527068Y-109385657D01*
X136127068Y-109671371D02*
X136127068Y-109071371D01*
X136127068Y-109071371D02*
X136469925Y-109671371D01*
X136469925Y-109671371D02*
X136469925Y-109071371D01*
X136869924Y-109071371D02*
X136927067Y-109071371D01*
X136927067Y-109071371D02*
X136984210Y-109099942D01*
X136984210Y-109099942D02*
X137012782Y-109128514D01*
X137012782Y-109128514D02*
X137041353Y-109185657D01*
X137041353Y-109185657D02*
X137069924Y-109299942D01*
X137069924Y-109299942D02*
X137069924Y-109442800D01*
X137069924Y-109442800D02*
X137041353Y-109557085D01*
X137041353Y-109557085D02*
X137012782Y-109614228D01*
X137012782Y-109614228D02*
X136984210Y-109642800D01*
X136984210Y-109642800D02*
X136927067Y-109671371D01*
X136927067Y-109671371D02*
X136869924Y-109671371D01*
X136869924Y-109671371D02*
X136812782Y-109642800D01*
X136812782Y-109642800D02*
X136784210Y-109614228D01*
X136784210Y-109614228D02*
X136755639Y-109557085D01*
X136755639Y-109557085D02*
X136727067Y-109442800D01*
X136727067Y-109442800D02*
X136727067Y-109299942D01*
X136727067Y-109299942D02*
X136755639Y-109185657D01*
X136755639Y-109185657D02*
X136784210Y-109128514D01*
X136784210Y-109128514D02*
X136812782Y-109099942D01*
X136812782Y-109099942D02*
X136869924Y-109071371D01*
X142062782Y-73168010D02*
X142005640Y-73139439D01*
X142005640Y-73139439D02*
X141919925Y-73139439D01*
X141919925Y-73139439D02*
X141834211Y-73168010D01*
X141834211Y-73168010D02*
X141777068Y-73225153D01*
X141777068Y-73225153D02*
X141748497Y-73282296D01*
X141748497Y-73282296D02*
X141719925Y-73396582D01*
X141719925Y-73396582D02*
X141719925Y-73482296D01*
X141719925Y-73482296D02*
X141748497Y-73596582D01*
X141748497Y-73596582D02*
X141777068Y-73653725D01*
X141777068Y-73653725D02*
X141834211Y-73710868D01*
X141834211Y-73710868D02*
X141919925Y-73739439D01*
X141919925Y-73739439D02*
X141977068Y-73739439D01*
X141977068Y-73739439D02*
X142062782Y-73710868D01*
X142062782Y-73710868D02*
X142091354Y-73682296D01*
X142091354Y-73682296D02*
X142091354Y-73482296D01*
X142091354Y-73482296D02*
X141977068Y-73482296D01*
X142348497Y-73739439D02*
X142348497Y-73139439D01*
X142348497Y-73139439D02*
X142691354Y-73739439D01*
X142691354Y-73739439D02*
X142691354Y-73139439D01*
X142977068Y-73739439D02*
X142977068Y-73139439D01*
X142977068Y-73139439D02*
X143119925Y-73139439D01*
X143119925Y-73139439D02*
X143205639Y-73168010D01*
X143205639Y-73168010D02*
X143262782Y-73225153D01*
X143262782Y-73225153D02*
X143291353Y-73282296D01*
X143291353Y-73282296D02*
X143319925Y-73396582D01*
X143319925Y-73396582D02*
X143319925Y-73482296D01*
X143319925Y-73482296D02*
X143291353Y-73596582D01*
X143291353Y-73596582D02*
X143262782Y-73653725D01*
X143262782Y-73653725D02*
X143205639Y-73710868D01*
X143205639Y-73710868D02*
X143119925Y-73739439D01*
X143119925Y-73739439D02*
X142977068Y-73739439D01*
X141748496Y-74476834D02*
X142205639Y-74476834D01*
X141977067Y-74705405D02*
X141977067Y-74248262D01*
X142777067Y-74105405D02*
X142491353Y-74105405D01*
X142491353Y-74105405D02*
X142462781Y-74391119D01*
X142462781Y-74391119D02*
X142491353Y-74362548D01*
X142491353Y-74362548D02*
X142548496Y-74333976D01*
X142548496Y-74333976D02*
X142691353Y-74333976D01*
X142691353Y-74333976D02*
X142748496Y-74362548D01*
X142748496Y-74362548D02*
X142777067Y-74391119D01*
X142777067Y-74391119D02*
X142805638Y-74448262D01*
X142805638Y-74448262D02*
X142805638Y-74591119D01*
X142805638Y-74591119D02*
X142777067Y-74648262D01*
X142777067Y-74648262D02*
X142748496Y-74676834D01*
X142748496Y-74676834D02*
X142691353Y-74705405D01*
X142691353Y-74705405D02*
X142548496Y-74705405D01*
X142548496Y-74705405D02*
X142491353Y-74676834D01*
X142491353Y-74676834D02*
X142462781Y-74648262D01*
X142977067Y-74105405D02*
X143177067Y-74705405D01*
X143177067Y-74705405D02*
X143377067Y-74105405D01*
X139691353Y-75671371D02*
X139405639Y-75671371D01*
X139405639Y-75671371D02*
X139405639Y-75071371D01*
X139891353Y-75357085D02*
X140091353Y-75357085D01*
X140177067Y-75671371D02*
X139891353Y-75671371D01*
X139891353Y-75671371D02*
X139891353Y-75071371D01*
X139891353Y-75071371D02*
X140177067Y-75071371D01*
X140434210Y-75671371D02*
X140434210Y-75071371D01*
X140434210Y-75071371D02*
X140577067Y-75071371D01*
X140577067Y-75071371D02*
X140662781Y-75099942D01*
X140662781Y-75099942D02*
X140719924Y-75157085D01*
X140719924Y-75157085D02*
X140748495Y-75214228D01*
X140748495Y-75214228D02*
X140777067Y-75328514D01*
X140777067Y-75328514D02*
X140777067Y-75414228D01*
X140777067Y-75414228D02*
X140748495Y-75528514D01*
X140748495Y-75528514D02*
X140719924Y-75585657D01*
X140719924Y-75585657D02*
X140662781Y-75642800D01*
X140662781Y-75642800D02*
X140577067Y-75671371D01*
X140577067Y-75671371D02*
X140434210Y-75671371D01*
X140891353Y-75728514D02*
X141348495Y-75728514D01*
X141491353Y-75671371D02*
X141491353Y-75071371D01*
X141491353Y-75071371D02*
X141634210Y-75071371D01*
X141634210Y-75071371D02*
X141719924Y-75099942D01*
X141719924Y-75099942D02*
X141777067Y-75157085D01*
X141777067Y-75157085D02*
X141805638Y-75214228D01*
X141805638Y-75214228D02*
X141834210Y-75328514D01*
X141834210Y-75328514D02*
X141834210Y-75414228D01*
X141834210Y-75414228D02*
X141805638Y-75528514D01*
X141805638Y-75528514D02*
X141777067Y-75585657D01*
X141777067Y-75585657D02*
X141719924Y-75642800D01*
X141719924Y-75642800D02*
X141634210Y-75671371D01*
X141634210Y-75671371D02*
X141491353Y-75671371D01*
X142062781Y-75499942D02*
X142348496Y-75499942D01*
X142005638Y-75671371D02*
X142205638Y-75071371D01*
X142205638Y-75071371D02*
X142405638Y-75671371D01*
X142519924Y-75071371D02*
X142862782Y-75071371D01*
X142691353Y-75671371D02*
X142691353Y-75071371D01*
X143034210Y-75499942D02*
X143319925Y-75499942D01*
X142977067Y-75671371D02*
X143177067Y-75071371D01*
X143177067Y-75071371D02*
X143377067Y-75671371D01*
D11*
X111988095Y-118954819D02*
X111988095Y-119764342D01*
X111988095Y-119764342D02*
X112035714Y-119859580D01*
X112035714Y-119859580D02*
X112083333Y-119907200D01*
X112083333Y-119907200D02*
X112178571Y-119954819D01*
X112178571Y-119954819D02*
X112369047Y-119954819D01*
X112369047Y-119954819D02*
X112464285Y-119907200D01*
X112464285Y-119907200D02*
X112511904Y-119859580D01*
X112511904Y-119859580D02*
X112559523Y-119764342D01*
X112559523Y-119764342D02*
X112559523Y-118954819D01*
X112940476Y-118954819D02*
X113559523Y-118954819D01*
X113559523Y-118954819D02*
X113226190Y-119335771D01*
X113226190Y-119335771D02*
X113369047Y-119335771D01*
X113369047Y-119335771D02*
X113464285Y-119383390D01*
X113464285Y-119383390D02*
X113511904Y-119431009D01*
X113511904Y-119431009D02*
X113559523Y-119526247D01*
X113559523Y-119526247D02*
X113559523Y-119764342D01*
X113559523Y-119764342D02*
X113511904Y-119859580D01*
X113511904Y-119859580D02*
X113464285Y-119907200D01*
X113464285Y-119907200D02*
X113369047Y-119954819D01*
X113369047Y-119954819D02*
X113083333Y-119954819D01*
X113083333Y-119954819D02*
X112988095Y-119907200D01*
X112988095Y-119907200D02*
X112940476Y-119859580D01*
X119388094Y-117779104D02*
X119864284Y-117779104D01*
X119292856Y-118064819D02*
X119626189Y-117064819D01*
X119626189Y-117064819D02*
X119959522Y-118064819D01*
X120292856Y-117398152D02*
X120292856Y-118064819D01*
X120292856Y-117493390D02*
X120340475Y-117445771D01*
X120340475Y-117445771D02*
X120435713Y-117398152D01*
X120435713Y-117398152D02*
X120578570Y-117398152D01*
X120578570Y-117398152D02*
X120673808Y-117445771D01*
X120673808Y-117445771D02*
X120721427Y-117541009D01*
X120721427Y-117541009D02*
X120721427Y-118064819D01*
X121054761Y-117398152D02*
X121435713Y-117398152D01*
X121197618Y-117064819D02*
X121197618Y-117921961D01*
X121197618Y-117921961D02*
X121245237Y-118017200D01*
X121245237Y-118017200D02*
X121340475Y-118064819D01*
X121340475Y-118064819D02*
X121435713Y-118064819D01*
X122149999Y-118017200D02*
X122054761Y-118064819D01*
X122054761Y-118064819D02*
X121864285Y-118064819D01*
X121864285Y-118064819D02*
X121769047Y-118017200D01*
X121769047Y-118017200D02*
X121721428Y-117921961D01*
X121721428Y-117921961D02*
X121721428Y-117541009D01*
X121721428Y-117541009D02*
X121769047Y-117445771D01*
X121769047Y-117445771D02*
X121864285Y-117398152D01*
X121864285Y-117398152D02*
X122054761Y-117398152D01*
X122054761Y-117398152D02*
X122149999Y-117445771D01*
X122149999Y-117445771D02*
X122197618Y-117541009D01*
X122197618Y-117541009D02*
X122197618Y-117636247D01*
X122197618Y-117636247D02*
X121721428Y-117731485D01*
X122626190Y-117398152D02*
X122626190Y-118064819D01*
X122626190Y-117493390D02*
X122673809Y-117445771D01*
X122673809Y-117445771D02*
X122769047Y-117398152D01*
X122769047Y-117398152D02*
X122911904Y-117398152D01*
X122911904Y-117398152D02*
X123007142Y-117445771D01*
X123007142Y-117445771D02*
X123054761Y-117541009D01*
X123054761Y-117541009D02*
X123054761Y-118064819D01*
X123530952Y-117398152D02*
X123530952Y-118064819D01*
X123530952Y-117493390D02*
X123578571Y-117445771D01*
X123578571Y-117445771D02*
X123673809Y-117398152D01*
X123673809Y-117398152D02*
X123816666Y-117398152D01*
X123816666Y-117398152D02*
X123911904Y-117445771D01*
X123911904Y-117445771D02*
X123959523Y-117541009D01*
X123959523Y-117541009D02*
X123959523Y-118064819D01*
X124864285Y-118064819D02*
X124864285Y-117541009D01*
X124864285Y-117541009D02*
X124816666Y-117445771D01*
X124816666Y-117445771D02*
X124721428Y-117398152D01*
X124721428Y-117398152D02*
X124530952Y-117398152D01*
X124530952Y-117398152D02*
X124435714Y-117445771D01*
X124864285Y-118017200D02*
X124769047Y-118064819D01*
X124769047Y-118064819D02*
X124530952Y-118064819D01*
X124530952Y-118064819D02*
X124435714Y-118017200D01*
X124435714Y-118017200D02*
X124388095Y-117921961D01*
X124388095Y-117921961D02*
X124388095Y-117826723D01*
X124388095Y-117826723D02*
X124435714Y-117731485D01*
X124435714Y-117731485D02*
X124530952Y-117683866D01*
X124530952Y-117683866D02*
X124769047Y-117683866D01*
X124769047Y-117683866D02*
X124864285Y-117636247D01*
X126054762Y-117779104D02*
X126530952Y-117779104D01*
X125959524Y-118064819D02*
X126292857Y-117064819D01*
X126292857Y-117064819D02*
X126626190Y-118064819D01*
X126959524Y-118064819D02*
X126959524Y-117398152D01*
X126959524Y-117588628D02*
X127007143Y-117493390D01*
X127007143Y-117493390D02*
X127054762Y-117445771D01*
X127054762Y-117445771D02*
X127150000Y-117398152D01*
X127150000Y-117398152D02*
X127245238Y-117398152D01*
X127959524Y-118017200D02*
X127864286Y-118064819D01*
X127864286Y-118064819D02*
X127673810Y-118064819D01*
X127673810Y-118064819D02*
X127578572Y-118017200D01*
X127578572Y-118017200D02*
X127530953Y-117921961D01*
X127530953Y-117921961D02*
X127530953Y-117541009D01*
X127530953Y-117541009D02*
X127578572Y-117445771D01*
X127578572Y-117445771D02*
X127673810Y-117398152D01*
X127673810Y-117398152D02*
X127864286Y-117398152D01*
X127864286Y-117398152D02*
X127959524Y-117445771D01*
X127959524Y-117445771D02*
X128007143Y-117541009D01*
X128007143Y-117541009D02*
X128007143Y-117636247D01*
X128007143Y-117636247D02*
X127530953Y-117731485D01*
X128864286Y-118064819D02*
X128864286Y-117541009D01*
X128864286Y-117541009D02*
X128816667Y-117445771D01*
X128816667Y-117445771D02*
X128721429Y-117398152D01*
X128721429Y-117398152D02*
X128530953Y-117398152D01*
X128530953Y-117398152D02*
X128435715Y-117445771D01*
X128864286Y-118017200D02*
X128769048Y-118064819D01*
X128769048Y-118064819D02*
X128530953Y-118064819D01*
X128530953Y-118064819D02*
X128435715Y-118017200D01*
X128435715Y-118017200D02*
X128388096Y-117921961D01*
X128388096Y-117921961D02*
X128388096Y-117826723D01*
X128388096Y-117826723D02*
X128435715Y-117731485D01*
X128435715Y-117731485D02*
X128530953Y-117683866D01*
X128530953Y-117683866D02*
X128769048Y-117683866D01*
X128769048Y-117683866D02*
X128864286Y-117636247D01*
X113238095Y-79204819D02*
X113238095Y-80014342D01*
X113238095Y-80014342D02*
X113285714Y-80109580D01*
X113285714Y-80109580D02*
X113333333Y-80157200D01*
X113333333Y-80157200D02*
X113428571Y-80204819D01*
X113428571Y-80204819D02*
X113619047Y-80204819D01*
X113619047Y-80204819D02*
X113714285Y-80157200D01*
X113714285Y-80157200D02*
X113761904Y-80109580D01*
X113761904Y-80109580D02*
X113809523Y-80014342D01*
X113809523Y-80014342D02*
X113809523Y-79204819D01*
X114761904Y-79204819D02*
X114285714Y-79204819D01*
X114285714Y-79204819D02*
X114238095Y-79681009D01*
X114238095Y-79681009D02*
X114285714Y-79633390D01*
X114285714Y-79633390D02*
X114380952Y-79585771D01*
X114380952Y-79585771D02*
X114619047Y-79585771D01*
X114619047Y-79585771D02*
X114714285Y-79633390D01*
X114714285Y-79633390D02*
X114761904Y-79681009D01*
X114761904Y-79681009D02*
X114809523Y-79776247D01*
X114809523Y-79776247D02*
X114809523Y-80014342D01*
X114809523Y-80014342D02*
X114761904Y-80109580D01*
X114761904Y-80109580D02*
X114714285Y-80157200D01*
X114714285Y-80157200D02*
X114619047Y-80204819D01*
X114619047Y-80204819D02*
X114380952Y-80204819D01*
X114380952Y-80204819D02*
X114285714Y-80157200D01*
X114285714Y-80157200D02*
X114238095Y-80109580D01*
X127583333Y-89454819D02*
X127250000Y-88978628D01*
X127011905Y-89454819D02*
X127011905Y-88454819D01*
X127011905Y-88454819D02*
X127392857Y-88454819D01*
X127392857Y-88454819D02*
X127488095Y-88502438D01*
X127488095Y-88502438D02*
X127535714Y-88550057D01*
X127535714Y-88550057D02*
X127583333Y-88645295D01*
X127583333Y-88645295D02*
X127583333Y-88788152D01*
X127583333Y-88788152D02*
X127535714Y-88883390D01*
X127535714Y-88883390D02*
X127488095Y-88931009D01*
X127488095Y-88931009D02*
X127392857Y-88978628D01*
X127392857Y-88978628D02*
X127011905Y-88978628D01*
X128488095Y-88454819D02*
X128011905Y-88454819D01*
X128011905Y-88454819D02*
X127964286Y-88931009D01*
X127964286Y-88931009D02*
X128011905Y-88883390D01*
X128011905Y-88883390D02*
X128107143Y-88835771D01*
X128107143Y-88835771D02*
X128345238Y-88835771D01*
X128345238Y-88835771D02*
X128440476Y-88883390D01*
X128440476Y-88883390D02*
X128488095Y-88931009D01*
X128488095Y-88931009D02*
X128535714Y-89026247D01*
X128535714Y-89026247D02*
X128535714Y-89264342D01*
X128535714Y-89264342D02*
X128488095Y-89359580D01*
X128488095Y-89359580D02*
X128440476Y-89407200D01*
X128440476Y-89407200D02*
X128345238Y-89454819D01*
X128345238Y-89454819D02*
X128107143Y-89454819D01*
X128107143Y-89454819D02*
X128011905Y-89407200D01*
X128011905Y-89407200D02*
X127964286Y-89359580D01*
X115083333Y-90109580D02*
X115035714Y-90157200D01*
X115035714Y-90157200D02*
X114892857Y-90204819D01*
X114892857Y-90204819D02*
X114797619Y-90204819D01*
X114797619Y-90204819D02*
X114654762Y-90157200D01*
X114654762Y-90157200D02*
X114559524Y-90061961D01*
X114559524Y-90061961D02*
X114511905Y-89966723D01*
X114511905Y-89966723D02*
X114464286Y-89776247D01*
X114464286Y-89776247D02*
X114464286Y-89633390D01*
X114464286Y-89633390D02*
X114511905Y-89442914D01*
X114511905Y-89442914D02*
X114559524Y-89347676D01*
X114559524Y-89347676D02*
X114654762Y-89252438D01*
X114654762Y-89252438D02*
X114797619Y-89204819D01*
X114797619Y-89204819D02*
X114892857Y-89204819D01*
X114892857Y-89204819D02*
X115035714Y-89252438D01*
X115035714Y-89252438D02*
X115083333Y-89300057D01*
X115988095Y-89204819D02*
X115511905Y-89204819D01*
X115511905Y-89204819D02*
X115464286Y-89681009D01*
X115464286Y-89681009D02*
X115511905Y-89633390D01*
X115511905Y-89633390D02*
X115607143Y-89585771D01*
X115607143Y-89585771D02*
X115845238Y-89585771D01*
X115845238Y-89585771D02*
X115940476Y-89633390D01*
X115940476Y-89633390D02*
X115988095Y-89681009D01*
X115988095Y-89681009D02*
X116035714Y-89776247D01*
X116035714Y-89776247D02*
X116035714Y-90014342D01*
X116035714Y-90014342D02*
X115988095Y-90109580D01*
X115988095Y-90109580D02*
X115940476Y-90157200D01*
X115940476Y-90157200D02*
X115845238Y-90204819D01*
X115845238Y-90204819D02*
X115607143Y-90204819D01*
X115607143Y-90204819D02*
X115511905Y-90157200D01*
X115511905Y-90157200D02*
X115464286Y-90109580D01*
X128938095Y-73204819D02*
X128938095Y-74014342D01*
X128938095Y-74014342D02*
X128985714Y-74109580D01*
X128985714Y-74109580D02*
X129033333Y-74157200D01*
X129033333Y-74157200D02*
X129128571Y-74204819D01*
X129128571Y-74204819D02*
X129319047Y-74204819D01*
X129319047Y-74204819D02*
X129414285Y-74157200D01*
X129414285Y-74157200D02*
X129461904Y-74109580D01*
X129461904Y-74109580D02*
X129509523Y-74014342D01*
X129509523Y-74014342D02*
X129509523Y-73204819D01*
X130414285Y-73538152D02*
X130414285Y-74204819D01*
X130176190Y-73157200D02*
X129938095Y-73871485D01*
X129938095Y-73871485D02*
X130557142Y-73871485D01*
X122583333Y-79859580D02*
X122535714Y-79907200D01*
X122535714Y-79907200D02*
X122392857Y-79954819D01*
X122392857Y-79954819D02*
X122297619Y-79954819D01*
X122297619Y-79954819D02*
X122154762Y-79907200D01*
X122154762Y-79907200D02*
X122059524Y-79811961D01*
X122059524Y-79811961D02*
X122011905Y-79716723D01*
X122011905Y-79716723D02*
X121964286Y-79526247D01*
X121964286Y-79526247D02*
X121964286Y-79383390D01*
X121964286Y-79383390D02*
X122011905Y-79192914D01*
X122011905Y-79192914D02*
X122059524Y-79097676D01*
X122059524Y-79097676D02*
X122154762Y-79002438D01*
X122154762Y-79002438D02*
X122297619Y-78954819D01*
X122297619Y-78954819D02*
X122392857Y-78954819D01*
X122392857Y-78954819D02*
X122535714Y-79002438D01*
X122535714Y-79002438D02*
X122583333Y-79050057D01*
X123440476Y-79288152D02*
X123440476Y-79954819D01*
X123202381Y-78907200D02*
X122964286Y-79621485D01*
X122964286Y-79621485D02*
X123583333Y-79621485D01*
X123916666Y-65204819D02*
X123916666Y-65919104D01*
X123916666Y-65919104D02*
X123869047Y-66061961D01*
X123869047Y-66061961D02*
X123773809Y-66157200D01*
X123773809Y-66157200D02*
X123630952Y-66204819D01*
X123630952Y-66204819D02*
X123535714Y-66204819D01*
X124916666Y-66204819D02*
X124345238Y-66204819D01*
X124630952Y-66204819D02*
X124630952Y-65204819D01*
X124630952Y-65204819D02*
X124535714Y-65347676D01*
X124535714Y-65347676D02*
X124440476Y-65442914D01*
X124440476Y-65442914D02*
X124345238Y-65490533D01*
X110333333Y-92704819D02*
X110000000Y-92228628D01*
X109761905Y-92704819D02*
X109761905Y-91704819D01*
X109761905Y-91704819D02*
X110142857Y-91704819D01*
X110142857Y-91704819D02*
X110238095Y-91752438D01*
X110238095Y-91752438D02*
X110285714Y-91800057D01*
X110285714Y-91800057D02*
X110333333Y-91895295D01*
X110333333Y-91895295D02*
X110333333Y-92038152D01*
X110333333Y-92038152D02*
X110285714Y-92133390D01*
X110285714Y-92133390D02*
X110238095Y-92181009D01*
X110238095Y-92181009D02*
X110142857Y-92228628D01*
X110142857Y-92228628D02*
X109761905Y-92228628D01*
X110904762Y-92133390D02*
X110809524Y-92085771D01*
X110809524Y-92085771D02*
X110761905Y-92038152D01*
X110761905Y-92038152D02*
X110714286Y-91942914D01*
X110714286Y-91942914D02*
X110714286Y-91895295D01*
X110714286Y-91895295D02*
X110761905Y-91800057D01*
X110761905Y-91800057D02*
X110809524Y-91752438D01*
X110809524Y-91752438D02*
X110904762Y-91704819D01*
X110904762Y-91704819D02*
X111095238Y-91704819D01*
X111095238Y-91704819D02*
X111190476Y-91752438D01*
X111190476Y-91752438D02*
X111238095Y-91800057D01*
X111238095Y-91800057D02*
X111285714Y-91895295D01*
X111285714Y-91895295D02*
X111285714Y-91942914D01*
X111285714Y-91942914D02*
X111238095Y-92038152D01*
X111238095Y-92038152D02*
X111190476Y-92085771D01*
X111190476Y-92085771D02*
X111095238Y-92133390D01*
X111095238Y-92133390D02*
X110904762Y-92133390D01*
X110904762Y-92133390D02*
X110809524Y-92181009D01*
X110809524Y-92181009D02*
X110761905Y-92228628D01*
X110761905Y-92228628D02*
X110714286Y-92323866D01*
X110714286Y-92323866D02*
X110714286Y-92514342D01*
X110714286Y-92514342D02*
X110761905Y-92609580D01*
X110761905Y-92609580D02*
X110809524Y-92657200D01*
X110809524Y-92657200D02*
X110904762Y-92704819D01*
X110904762Y-92704819D02*
X111095238Y-92704819D01*
X111095238Y-92704819D02*
X111190476Y-92657200D01*
X111190476Y-92657200D02*
X111238095Y-92609580D01*
X111238095Y-92609580D02*
X111285714Y-92514342D01*
X111285714Y-92514342D02*
X111285714Y-92323866D01*
X111285714Y-92323866D02*
X111238095Y-92228628D01*
X111238095Y-92228628D02*
X111190476Y-92181009D01*
X111190476Y-92181009D02*
X111095238Y-92133390D01*
X131533333Y-66204819D02*
X131200000Y-65728628D01*
X130961905Y-66204819D02*
X130961905Y-65204819D01*
X130961905Y-65204819D02*
X131342857Y-65204819D01*
X131342857Y-65204819D02*
X131438095Y-65252438D01*
X131438095Y-65252438D02*
X131485714Y-65300057D01*
X131485714Y-65300057D02*
X131533333Y-65395295D01*
X131533333Y-65395295D02*
X131533333Y-65538152D01*
X131533333Y-65538152D02*
X131485714Y-65633390D01*
X131485714Y-65633390D02*
X131438095Y-65681009D01*
X131438095Y-65681009D02*
X131342857Y-65728628D01*
X131342857Y-65728628D02*
X130961905Y-65728628D01*
X131866667Y-65204819D02*
X132485714Y-65204819D01*
X132485714Y-65204819D02*
X132152381Y-65585771D01*
X132152381Y-65585771D02*
X132295238Y-65585771D01*
X132295238Y-65585771D02*
X132390476Y-65633390D01*
X132390476Y-65633390D02*
X132438095Y-65681009D01*
X132438095Y-65681009D02*
X132485714Y-65776247D01*
X132485714Y-65776247D02*
X132485714Y-66014342D01*
X132485714Y-66014342D02*
X132438095Y-66109580D01*
X132438095Y-66109580D02*
X132390476Y-66157200D01*
X132390476Y-66157200D02*
X132295238Y-66204819D01*
X132295238Y-66204819D02*
X132009524Y-66204819D01*
X132009524Y-66204819D02*
X131914286Y-66157200D01*
X131914286Y-66157200D02*
X131866667Y-66109580D01*
X141916666Y-93954819D02*
X141916666Y-94669104D01*
X141916666Y-94669104D02*
X141869047Y-94811961D01*
X141869047Y-94811961D02*
X141773809Y-94907200D01*
X141773809Y-94907200D02*
X141630952Y-94954819D01*
X141630952Y-94954819D02*
X141535714Y-94954819D01*
X142297619Y-93954819D02*
X142916666Y-93954819D01*
X142916666Y-93954819D02*
X142583333Y-94335771D01*
X142583333Y-94335771D02*
X142726190Y-94335771D01*
X142726190Y-94335771D02*
X142821428Y-94383390D01*
X142821428Y-94383390D02*
X142869047Y-94431009D01*
X142869047Y-94431009D02*
X142916666Y-94526247D01*
X142916666Y-94526247D02*
X142916666Y-94764342D01*
X142916666Y-94764342D02*
X142869047Y-94859580D01*
X142869047Y-94859580D02*
X142821428Y-94907200D01*
X142821428Y-94907200D02*
X142726190Y-94954819D01*
X142726190Y-94954819D02*
X142440476Y-94954819D01*
X142440476Y-94954819D02*
X142345238Y-94907200D01*
X142345238Y-94907200D02*
X142297619Y-94859580D01*
X141916666Y-106704819D02*
X141916666Y-107419104D01*
X141916666Y-107419104D02*
X141869047Y-107561961D01*
X141869047Y-107561961D02*
X141773809Y-107657200D01*
X141773809Y-107657200D02*
X141630952Y-107704819D01*
X141630952Y-107704819D02*
X141535714Y-107704819D01*
X142821428Y-107038152D02*
X142821428Y-107704819D01*
X142583333Y-106657200D02*
X142345238Y-107371485D01*
X142345238Y-107371485D02*
X142964285Y-107371485D01*
X116583333Y-66204819D02*
X116250000Y-65728628D01*
X116011905Y-66204819D02*
X116011905Y-65204819D01*
X116011905Y-65204819D02*
X116392857Y-65204819D01*
X116392857Y-65204819D02*
X116488095Y-65252438D01*
X116488095Y-65252438D02*
X116535714Y-65300057D01*
X116535714Y-65300057D02*
X116583333Y-65395295D01*
X116583333Y-65395295D02*
X116583333Y-65538152D01*
X116583333Y-65538152D02*
X116535714Y-65633390D01*
X116535714Y-65633390D02*
X116488095Y-65681009D01*
X116488095Y-65681009D02*
X116392857Y-65728628D01*
X116392857Y-65728628D02*
X116011905Y-65728628D01*
X116964286Y-65300057D02*
X117011905Y-65252438D01*
X117011905Y-65252438D02*
X117107143Y-65204819D01*
X117107143Y-65204819D02*
X117345238Y-65204819D01*
X117345238Y-65204819D02*
X117440476Y-65252438D01*
X117440476Y-65252438D02*
X117488095Y-65300057D01*
X117488095Y-65300057D02*
X117535714Y-65395295D01*
X117535714Y-65395295D02*
X117535714Y-65490533D01*
X117535714Y-65490533D02*
X117488095Y-65633390D01*
X117488095Y-65633390D02*
X116916667Y-66204819D01*
X116916667Y-66204819D02*
X117535714Y-66204819D01*
X121938095Y-75454819D02*
X121938095Y-76264342D01*
X121938095Y-76264342D02*
X121985714Y-76359580D01*
X121985714Y-76359580D02*
X122033333Y-76407200D01*
X122033333Y-76407200D02*
X122128571Y-76454819D01*
X122128571Y-76454819D02*
X122319047Y-76454819D01*
X122319047Y-76454819D02*
X122414285Y-76407200D01*
X122414285Y-76407200D02*
X122461904Y-76359580D01*
X122461904Y-76359580D02*
X122509523Y-76264342D01*
X122509523Y-76264342D02*
X122509523Y-75454819D01*
X122938095Y-75550057D02*
X122985714Y-75502438D01*
X122985714Y-75502438D02*
X123080952Y-75454819D01*
X123080952Y-75454819D02*
X123319047Y-75454819D01*
X123319047Y-75454819D02*
X123414285Y-75502438D01*
X123414285Y-75502438D02*
X123461904Y-75550057D01*
X123461904Y-75550057D02*
X123509523Y-75645295D01*
X123509523Y-75645295D02*
X123509523Y-75740533D01*
X123509523Y-75740533D02*
X123461904Y-75883390D01*
X123461904Y-75883390D02*
X122890476Y-76454819D01*
X122890476Y-76454819D02*
X123509523Y-76454819D01*
X124938095Y-75454819D02*
X124938095Y-76264342D01*
X124938095Y-76264342D02*
X124985714Y-76359580D01*
X124985714Y-76359580D02*
X125033333Y-76407200D01*
X125033333Y-76407200D02*
X125128571Y-76454819D01*
X125128571Y-76454819D02*
X125319047Y-76454819D01*
X125319047Y-76454819D02*
X125414285Y-76407200D01*
X125414285Y-76407200D02*
X125461904Y-76359580D01*
X125461904Y-76359580D02*
X125509523Y-76264342D01*
X125509523Y-76264342D02*
X125509523Y-75454819D01*
X126509523Y-76454819D02*
X125938095Y-76454819D01*
X126223809Y-76454819D02*
X126223809Y-75454819D01*
X126223809Y-75454819D02*
X126128571Y-75597676D01*
X126128571Y-75597676D02*
X126033333Y-75692914D01*
X126033333Y-75692914D02*
X125938095Y-75740533D01*
X131083333Y-89454819D02*
X130750000Y-88978628D01*
X130511905Y-89454819D02*
X130511905Y-88454819D01*
X130511905Y-88454819D02*
X130892857Y-88454819D01*
X130892857Y-88454819D02*
X130988095Y-88502438D01*
X130988095Y-88502438D02*
X131035714Y-88550057D01*
X131035714Y-88550057D02*
X131083333Y-88645295D01*
X131083333Y-88645295D02*
X131083333Y-88788152D01*
X131083333Y-88788152D02*
X131035714Y-88883390D01*
X131035714Y-88883390D02*
X130988095Y-88931009D01*
X130988095Y-88931009D02*
X130892857Y-88978628D01*
X130892857Y-88978628D02*
X130511905Y-88978628D01*
X131940476Y-88788152D02*
X131940476Y-89454819D01*
X131702381Y-88407200D02*
X131464286Y-89121485D01*
X131464286Y-89121485D02*
X132083333Y-89121485D01*
X120511905Y-92704819D02*
X120511905Y-91704819D01*
X120511905Y-91704819D02*
X120750000Y-91704819D01*
X120750000Y-91704819D02*
X120892857Y-91752438D01*
X120892857Y-91752438D02*
X120988095Y-91847676D01*
X120988095Y-91847676D02*
X121035714Y-91942914D01*
X121035714Y-91942914D02*
X121083333Y-92133390D01*
X121083333Y-92133390D02*
X121083333Y-92276247D01*
X121083333Y-92276247D02*
X121035714Y-92466723D01*
X121035714Y-92466723D02*
X120988095Y-92561961D01*
X120988095Y-92561961D02*
X120892857Y-92657200D01*
X120892857Y-92657200D02*
X120750000Y-92704819D01*
X120750000Y-92704819D02*
X120511905Y-92704819D01*
X122035714Y-92704819D02*
X121464286Y-92704819D01*
X121750000Y-92704819D02*
X121750000Y-91704819D01*
X121750000Y-91704819D02*
X121654762Y-91847676D01*
X121654762Y-91847676D02*
X121559524Y-91942914D01*
X121559524Y-91942914D02*
X121464286Y-91990533D01*
X141916666Y-81454819D02*
X141916666Y-82169104D01*
X141916666Y-82169104D02*
X141869047Y-82311961D01*
X141869047Y-82311961D02*
X141773809Y-82407200D01*
X141773809Y-82407200D02*
X141630952Y-82454819D01*
X141630952Y-82454819D02*
X141535714Y-82454819D01*
X142345238Y-81550057D02*
X142392857Y-81502438D01*
X142392857Y-81502438D02*
X142488095Y-81454819D01*
X142488095Y-81454819D02*
X142726190Y-81454819D01*
X142726190Y-81454819D02*
X142821428Y-81502438D01*
X142821428Y-81502438D02*
X142869047Y-81550057D01*
X142869047Y-81550057D02*
X142916666Y-81645295D01*
X142916666Y-81645295D02*
X142916666Y-81740533D01*
X142916666Y-81740533D02*
X142869047Y-81883390D01*
X142869047Y-81883390D02*
X142297619Y-82454819D01*
X142297619Y-82454819D02*
X142916666Y-82454819D01*
X130083333Y-78359580D02*
X130035714Y-78407200D01*
X130035714Y-78407200D02*
X129892857Y-78454819D01*
X129892857Y-78454819D02*
X129797619Y-78454819D01*
X129797619Y-78454819D02*
X129654762Y-78407200D01*
X129654762Y-78407200D02*
X129559524Y-78311961D01*
X129559524Y-78311961D02*
X129511905Y-78216723D01*
X129511905Y-78216723D02*
X129464286Y-78026247D01*
X129464286Y-78026247D02*
X129464286Y-77883390D01*
X129464286Y-77883390D02*
X129511905Y-77692914D01*
X129511905Y-77692914D02*
X129559524Y-77597676D01*
X129559524Y-77597676D02*
X129654762Y-77502438D01*
X129654762Y-77502438D02*
X129797619Y-77454819D01*
X129797619Y-77454819D02*
X129892857Y-77454819D01*
X129892857Y-77454819D02*
X130035714Y-77502438D01*
X130035714Y-77502438D02*
X130083333Y-77550057D01*
X130940476Y-77454819D02*
X130750000Y-77454819D01*
X130750000Y-77454819D02*
X130654762Y-77502438D01*
X130654762Y-77502438D02*
X130607143Y-77550057D01*
X130607143Y-77550057D02*
X130511905Y-77692914D01*
X130511905Y-77692914D02*
X130464286Y-77883390D01*
X130464286Y-77883390D02*
X130464286Y-78264342D01*
X130464286Y-78264342D02*
X130511905Y-78359580D01*
X130511905Y-78359580D02*
X130559524Y-78407200D01*
X130559524Y-78407200D02*
X130654762Y-78454819D01*
X130654762Y-78454819D02*
X130845238Y-78454819D01*
X130845238Y-78454819D02*
X130940476Y-78407200D01*
X130940476Y-78407200D02*
X130988095Y-78359580D01*
X130988095Y-78359580D02*
X131035714Y-78264342D01*
X131035714Y-78264342D02*
X131035714Y-78026247D01*
X131035714Y-78026247D02*
X130988095Y-77931009D01*
X130988095Y-77931009D02*
X130940476Y-77883390D01*
X130940476Y-77883390D02*
X130845238Y-77835771D01*
X130845238Y-77835771D02*
X130654762Y-77835771D01*
X130654762Y-77835771D02*
X130559524Y-77883390D01*
X130559524Y-77883390D02*
X130511905Y-77931009D01*
X130511905Y-77931009D02*
X130464286Y-78026247D01*
D12*
X133150000Y-120610000D02*
X133150000Y-113860000D01*
X133150000Y-120610000D02*
X115150000Y-120610000D01*
X133150000Y-95860000D02*
X133150000Y-95110000D01*
X133150000Y-95110000D02*
X132150000Y-95110000D01*
X115150000Y-120610000D02*
X115150000Y-113860000D01*
X115150000Y-114670000D02*
X133150000Y-114670000D01*
X115150000Y-95860000D02*
X115150000Y-95110000D01*
X115150000Y-95110000D02*
X116150000Y-95110000D01*
X113840000Y-84850000D02*
X113840000Y-81090000D01*
X120660000Y-84850000D02*
X120660000Y-81090000D01*
X113840000Y-81090000D02*
X115100000Y-81090000D01*
X120660000Y-81090000D02*
X119400000Y-81090000D01*
X113940000Y-86130000D02*
X113610000Y-86370000D01*
X113610000Y-85890000D01*
X113940000Y-86130000D01*
G36*
X113940000Y-86130000D02*
G01*
X113610000Y-86370000D01*
X113610000Y-85890000D01*
X113940000Y-86130000D01*
G37*
X127015000Y-91977064D02*
X127015000Y-91522936D01*
X128485000Y-91977064D02*
X128485000Y-91522936D01*
X118511252Y-90485000D02*
X117988748Y-90485000D01*
X118511252Y-89015000D02*
X117988748Y-89015000D01*
X128440000Y-74650000D02*
X128440000Y-75850000D01*
X130400000Y-74650000D02*
X128440000Y-74650000D01*
X130400000Y-75850000D02*
X128440000Y-75850000D01*
X122015000Y-82511252D02*
X122015000Y-81988748D01*
X123485000Y-82511252D02*
X123485000Y-81988748D01*
X128920000Y-68100000D02*
X128920000Y-69800000D01*
X119580000Y-68100000D02*
X119580000Y-69800000D01*
X113727064Y-92985000D02*
X113272936Y-92985000D01*
X113727064Y-91515000D02*
X113272936Y-91515000D01*
X130965000Y-68727064D02*
X130965000Y-68272936D01*
X132435000Y-68727064D02*
X132435000Y-68272936D01*
X139290000Y-99985000D02*
X139290000Y-98185000D01*
X140740000Y-99985000D02*
X139290000Y-99985000D01*
X143560000Y-98715000D02*
X143560000Y-90285000D01*
X139290000Y-98185000D02*
X138300000Y-98185000D01*
X139290000Y-89015000D02*
X139290000Y-90815000D01*
X140740000Y-89015000D02*
X139290000Y-89015000D01*
X139290000Y-112735000D02*
X139290000Y-110935000D01*
X140740000Y-112735000D02*
X139290000Y-112735000D01*
X143560000Y-111465000D02*
X143560000Y-103035000D01*
X139290000Y-110935000D02*
X138300000Y-110935000D01*
X139290000Y-101765000D02*
X139290000Y-103565000D01*
X140740000Y-101765000D02*
X139290000Y-101765000D01*
X116015000Y-68727064D02*
X116015000Y-68272936D01*
X117485000Y-68727064D02*
X117485000Y-68272936D01*
X124010000Y-75100000D02*
X124010000Y-73900000D01*
X122050000Y-75100000D02*
X124010000Y-75100000D01*
X122050000Y-73900000D02*
X124010000Y-73900000D01*
X124440000Y-73900000D02*
X124440000Y-75100000D01*
X126400000Y-73900000D02*
X124440000Y-73900000D01*
X126400000Y-75100000D02*
X124440000Y-75100000D01*
X130515000Y-91977064D02*
X130515000Y-91522936D01*
X131985000Y-91977064D02*
X131985000Y-91522936D01*
X116390000Y-91290000D02*
X116390000Y-93210000D01*
X116390000Y-93210000D02*
X119250000Y-93210000D01*
X119250000Y-91290000D02*
X116390000Y-91290000D01*
X135790000Y-87060000D02*
X135790000Y-86040000D01*
X140040000Y-87060000D02*
X135790000Y-87060000D01*
X135790000Y-86040000D02*
X137390000Y-86040000D01*
X137390000Y-86040000D02*
X137390000Y-84760000D01*
X143610000Y-85340000D02*
X143610000Y-78660000D01*
X137390000Y-84760000D02*
X134500000Y-84760000D01*
X135790000Y-77960000D02*
X137390000Y-77960000D01*
X137390000Y-77960000D02*
X137390000Y-79240000D01*
X135790000Y-76940000D02*
X135790000Y-77960000D01*
X140040000Y-76940000D02*
X135790000Y-76940000D01*
X126152500Y-86937500D02*
X126152500Y-86150000D01*
X125758750Y-86543750D02*
X126546250Y-86543750D01*
X125654437Y-85910000D02*
X126940000Y-85910000D01*
X125654437Y-85910000D02*
X124590000Y-84845563D01*
X130345563Y-85910000D02*
X129060000Y-85910000D01*
X130345563Y-85910000D02*
X131410000Y-84845563D01*
X124590000Y-84845563D02*
X124590000Y-79090000D01*
X131410000Y-84845563D02*
X131410000Y-79090000D01*
X124590000Y-79090000D02*
X126940000Y-79090000D01*
X131410000Y-79090000D02*
X129060000Y-79090000D01*
%LPC*%
D13*
G36*
X108416572Y-110880614D02*
G01*
X108418434Y-110880951D01*
X108448303Y-110891978D01*
X108467581Y-110910948D01*
X108474554Y-110936160D01*
X108474557Y-110936656D01*
X108468595Y-110957626D01*
X108452494Y-110970131D01*
X108428931Y-110973021D01*
X108404472Y-110966828D01*
X108381616Y-110951517D01*
X108367708Y-110930061D01*
X108365189Y-110910648D01*
X108372726Y-110889952D01*
X108389604Y-110880080D01*
X108416572Y-110880614D01*
G37*
G36*
X109497238Y-108530687D02*
G01*
X109517109Y-108546445D01*
X109528608Y-108572121D01*
X109530383Y-108596301D01*
X109522807Y-108614447D01*
X109505249Y-108628614D01*
X109482360Y-108636711D01*
X109458790Y-108636644D01*
X109448582Y-108633090D01*
X109426308Y-108615513D01*
X109414844Y-108592993D01*
X109414453Y-108569195D01*
X109425393Y-108547786D01*
X109441627Y-108535275D01*
X109471307Y-108526433D01*
X109497238Y-108530687D01*
G37*
G36*
X109490744Y-107726047D02*
G01*
X109495934Y-107727671D01*
X109521415Y-107741376D01*
X109533530Y-107759927D01*
X109531922Y-107781205D01*
X109516233Y-107803092D01*
X109509635Y-107808754D01*
X109482917Y-107821809D01*
X109455631Y-107821178D01*
X109431017Y-107806988D01*
X109429580Y-107805593D01*
X109414463Y-107782806D01*
X109413531Y-107760594D01*
X109426294Y-107741061D01*
X109447643Y-107728092D01*
X109468583Y-107722758D01*
X109490744Y-107726047D01*
G37*
G36*
X109895323Y-107435606D02*
G01*
X109920533Y-107447443D01*
X109935120Y-107463757D01*
X109943553Y-107489121D01*
X109939693Y-107513107D01*
X109925976Y-107533486D01*
X109904841Y-107548029D01*
X109878723Y-107554507D01*
X109850059Y-107550691D01*
X109843041Y-107547982D01*
X109815444Y-107530693D01*
X109801190Y-107509739D01*
X109800754Y-107486485D01*
X109813503Y-107463596D01*
X109838006Y-107443677D01*
X109866547Y-107434349D01*
X109895323Y-107435606D01*
G37*
G36*
X110609017Y-110693162D02*
G01*
X110613633Y-110698402D01*
X110624346Y-110715008D01*
X110624584Y-110727763D01*
X110613287Y-110740557D01*
X110599400Y-110750639D01*
X110573602Y-110762090D01*
X110543309Y-110766950D01*
X110514312Y-110764925D01*
X110492849Y-110756062D01*
X110483908Y-110742044D01*
X110487733Y-110725186D01*
X110503208Y-110707657D01*
X110524854Y-110693766D01*
X110559407Y-110680723D01*
X110587250Y-110680511D01*
X110609017Y-110693162D01*
G37*
G36*
X108357079Y-110681359D02*
G01*
X108387958Y-110691102D01*
X108412861Y-110706281D01*
X108429779Y-110724634D01*
X108436702Y-110743901D01*
X108431620Y-110761819D01*
X108430213Y-110763645D01*
X108414943Y-110771706D01*
X108390349Y-110773512D01*
X108360556Y-110768880D01*
X108353883Y-110767030D01*
X108325298Y-110753883D01*
X108309467Y-110736190D01*
X108307061Y-110715342D01*
X108318349Y-110693221D01*
X108330944Y-110681951D01*
X108346630Y-110679821D01*
X108357079Y-110681359D01*
G37*
G36*
X110544177Y-110885418D02*
G01*
X110551982Y-110894946D01*
X110551441Y-110902413D01*
X110547927Y-110915954D01*
X110544679Y-110930118D01*
X110533888Y-110948571D01*
X110513738Y-110961020D01*
X110488928Y-110965944D01*
X110464157Y-110961821D01*
X110457203Y-110958457D01*
X110446173Y-110944808D01*
X110445913Y-110926318D01*
X110455971Y-110907721D01*
X110462671Y-110901398D01*
X110483729Y-110889211D01*
X110506620Y-110882512D01*
X110527913Y-110881261D01*
X110544177Y-110885418D01*
G37*
G36*
X111760802Y-109217829D02*
G01*
X111783725Y-109233574D01*
X111799637Y-109256293D01*
X111805852Y-109284256D01*
X111801770Y-109310051D01*
X111786195Y-109337867D01*
X111763064Y-109355482D01*
X111735613Y-109361578D01*
X111707080Y-109354835D01*
X111700634Y-109351286D01*
X111674680Y-109328876D01*
X111659233Y-109302018D01*
X111654901Y-109273817D01*
X111662289Y-109247377D01*
X111676865Y-109229730D01*
X111704684Y-109214178D01*
X111733559Y-109210788D01*
X111760802Y-109217829D01*
G37*
G36*
X107437790Y-108994828D02*
G01*
X107458812Y-109014898D01*
X107470373Y-109042231D01*
X107471251Y-109073969D01*
X107460557Y-109106619D01*
X107441801Y-109130143D01*
X107415653Y-109147105D01*
X107386763Y-109155464D01*
X107359780Y-109153181D01*
X107356898Y-109152098D01*
X107332075Y-109134516D01*
X107316205Y-109108388D01*
X107310265Y-109077582D01*
X107315231Y-109045967D01*
X107325114Y-109026306D01*
X107348996Y-108999466D01*
X107376135Y-108986100D01*
X107408527Y-108984878D01*
X107437790Y-108994828D01*
G37*
G36*
X107222029Y-109220810D02*
G01*
X107231819Y-109228739D01*
X107247265Y-109253472D01*
X107250586Y-109281719D01*
X107242579Y-109309875D01*
X107224044Y-109334337D01*
X107205582Y-109347153D01*
X107188889Y-109355075D01*
X107176576Y-109356971D01*
X107161876Y-109352831D01*
X107148213Y-109347062D01*
X107125771Y-109330002D01*
X107110431Y-109304190D01*
X107104798Y-109274923D01*
X107106218Y-109261597D01*
X107118323Y-109237337D01*
X107139940Y-109220086D01*
X107167084Y-109210887D01*
X107195775Y-109210781D01*
X107222029Y-109220810D01*
G37*
G36*
X107711927Y-109879442D02*
G01*
X107737897Y-109894850D01*
X107755313Y-109918932D01*
X107765370Y-109951001D01*
X107764246Y-109982843D01*
X107753840Y-110012352D01*
X107736050Y-110037421D01*
X107712776Y-110055945D01*
X107685915Y-110065818D01*
X107657366Y-110064932D01*
X107633343Y-110054251D01*
X107609467Y-110034314D01*
X107595003Y-110010214D01*
X107589281Y-109992618D01*
X107586056Y-109956231D01*
X107595304Y-109923696D01*
X107615142Y-109897553D01*
X107643687Y-109880345D01*
X107676734Y-109874586D01*
X107711927Y-109879442D01*
G37*
G36*
X109064692Y-107478400D02*
G01*
X109070015Y-107478970D01*
X109096367Y-107485074D01*
X109119843Y-107495862D01*
X109136442Y-107508991D01*
X109142201Y-107521232D01*
X109136003Y-107532966D01*
X109120567Y-107546001D01*
X109100628Y-107556902D01*
X109086872Y-107561353D01*
X109067177Y-107561109D01*
X109045440Y-107555085D01*
X109045156Y-107554961D01*
X109023699Y-107539823D01*
X109015882Y-107520229D01*
X109022193Y-107497602D01*
X109024297Y-107494175D01*
X109033823Y-107482491D01*
X109045411Y-107477857D01*
X109064692Y-107478400D01*
G37*
G36*
X111551387Y-108994426D02*
G01*
X111575329Y-109012283D01*
X111592686Y-109036644D01*
X111601735Y-109064865D01*
X111600752Y-109094300D01*
X111588013Y-109122305D01*
X111582239Y-109129382D01*
X111555184Y-109149624D01*
X111524579Y-109155764D01*
X111493857Y-109148340D01*
X111467769Y-109129166D01*
X111449122Y-109100403D01*
X111440534Y-109066408D01*
X111440254Y-109059193D01*
X111445455Y-109026610D01*
X111461631Y-109003612D01*
X111489540Y-108989143D01*
X111490644Y-108988807D01*
X111522585Y-108985719D01*
X111551387Y-108994426D01*
G37*
G36*
X108359690Y-110448274D02*
G01*
X108388980Y-110460637D01*
X108399700Y-110466789D01*
X108419260Y-110482427D01*
X108436963Y-110502941D01*
X108449126Y-110523478D01*
X108452397Y-110536171D01*
X108446135Y-110550679D01*
X108431177Y-110562773D01*
X108413398Y-110567729D01*
X108413167Y-110567725D01*
X108396734Y-110564188D01*
X108374989Y-110555727D01*
X108367586Y-110552120D01*
X108332227Y-110530055D01*
X108311309Y-110508042D01*
X108304921Y-110486257D01*
X108313152Y-110464878D01*
X108319746Y-110457280D01*
X108337204Y-110447225D01*
X108359690Y-110448274D01*
G37*
G36*
X109508309Y-108184644D02*
G01*
X109540839Y-108203744D01*
X109563190Y-108228859D01*
X109575883Y-108251397D01*
X109580197Y-108271049D01*
X109579026Y-108289282D01*
X109567794Y-108321670D01*
X109544801Y-108351217D01*
X109513276Y-108373967D01*
X109484384Y-108382579D01*
X109449874Y-108383755D01*
X109416727Y-108377744D01*
X109398920Y-108369919D01*
X109372754Y-108346038D01*
X109356911Y-108314868D01*
X109352121Y-108280258D01*
X109359118Y-108246057D01*
X109371278Y-108224607D01*
X109400514Y-108197028D01*
X109435118Y-108181219D01*
X109472059Y-108177113D01*
X109508309Y-108184644D01*
G37*
G36*
X111267896Y-109873173D02*
G01*
X111296430Y-109891440D01*
X111312747Y-109910827D01*
X111326605Y-109942892D01*
X111328690Y-109977089D01*
X111319970Y-110009762D01*
X111301415Y-110037253D01*
X111274313Y-110055774D01*
X111251697Y-110063900D01*
X111234372Y-110065001D01*
X111214633Y-110059040D01*
X111206143Y-110055458D01*
X111179291Y-110036121D01*
X111160981Y-110006583D01*
X111152815Y-109969667D01*
X111152540Y-109961161D01*
X111154495Y-109936039D01*
X111162510Y-109917123D01*
X111176493Y-109899843D01*
X111205551Y-109877183D01*
X111236811Y-109868356D01*
X111267896Y-109873173D01*
G37*
G36*
X107640845Y-109535300D02*
G01*
X107651644Y-109538447D01*
X107691709Y-109554090D01*
X107731193Y-109575774D01*
X107766434Y-109600963D01*
X107793774Y-109627122D01*
X107806995Y-109646050D01*
X107813490Y-109660753D01*
X107812025Y-109667866D01*
X107806126Y-109670992D01*
X107778701Y-109675158D01*
X107743009Y-109671021D01*
X107702639Y-109659061D01*
X107695015Y-109656059D01*
X107658984Y-109638198D01*
X107627926Y-109616950D01*
X107604926Y-109594789D01*
X107593110Y-109574339D01*
X107594627Y-109555200D01*
X107603388Y-109543257D01*
X107613704Y-109534551D01*
X107624338Y-109532084D01*
X107640845Y-109535300D01*
G37*
G36*
X110590205Y-110457097D02*
G01*
X110595985Y-110460703D01*
X110611063Y-110476923D01*
X110613129Y-110495564D01*
X110603285Y-110514747D01*
X110582634Y-110532593D01*
X110552277Y-110547220D01*
X110543597Y-110550064D01*
X110520660Y-110556810D01*
X110507131Y-110559604D01*
X110498264Y-110558667D01*
X110489313Y-110554220D01*
X110486712Y-110552706D01*
X110476003Y-110541977D01*
X110473802Y-110535053D01*
X110479711Y-110519359D01*
X110495064Y-110500256D01*
X110516297Y-110481297D01*
X110539845Y-110466038D01*
X110545945Y-110463099D01*
X110566223Y-110454880D01*
X110579056Y-110452971D01*
X110590205Y-110457097D01*
G37*
G36*
X110637564Y-107799570D02*
G01*
X110671118Y-107814173D01*
X110698772Y-107835704D01*
X110717581Y-107861866D01*
X110724601Y-107890361D01*
X110724602Y-107890560D01*
X110718589Y-107910047D01*
X110702595Y-107930577D01*
X110702505Y-107930664D01*
X110675453Y-107947259D01*
X110640741Y-107955196D01*
X110602942Y-107954066D01*
X110566628Y-107943460D01*
X110565438Y-107942912D01*
X110532095Y-107921549D01*
X110511626Y-107896401D01*
X110503476Y-107869791D01*
X110507088Y-107844041D01*
X110521906Y-107821473D01*
X110547374Y-107804411D01*
X110582935Y-107795177D01*
X110601055Y-107794191D01*
X110637564Y-107799570D01*
G37*
G36*
X108367345Y-107795012D02*
G01*
X108384767Y-107798323D01*
X108398045Y-107805947D01*
X108408729Y-107815756D01*
X108426446Y-107840967D01*
X108430293Y-107859454D01*
X108424079Y-107883140D01*
X108407718Y-107908072D01*
X108384634Y-107929701D01*
X108371031Y-107938174D01*
X108342893Y-107947927D01*
X108309106Y-107952886D01*
X108275936Y-107952635D01*
X108249647Y-107946755D01*
X108248652Y-107946318D01*
X108220640Y-107927410D01*
X108205446Y-107903094D01*
X108203693Y-107875405D01*
X108216002Y-107846380D01*
X108217466Y-107844267D01*
X108244320Y-107818946D01*
X108281869Y-107802173D01*
X108328289Y-107794686D01*
X108340489Y-107794353D01*
X108367345Y-107795012D01*
G37*
G36*
X109904797Y-107889452D02*
G01*
X109924451Y-107897943D01*
X109955442Y-107920160D01*
X109978224Y-107949065D01*
X109990718Y-107981143D01*
X109991278Y-108010747D01*
X109976891Y-108049667D01*
X109950494Y-108081507D01*
X109913520Y-108105266D01*
X109867401Y-108119943D01*
X109828616Y-108124354D01*
X109786924Y-108123431D01*
X109757849Y-108117059D01*
X109754516Y-108115582D01*
X109717676Y-108090792D01*
X109693274Y-108059518D01*
X109681810Y-108023735D01*
X109683785Y-107985413D01*
X109699696Y-107946525D01*
X109708384Y-107933506D01*
X109736357Y-107907277D01*
X109773494Y-107889180D01*
X109816286Y-107879792D01*
X109861224Y-107879690D01*
X109904797Y-107889452D01*
G37*
G36*
X110213406Y-107582570D02*
G01*
X110242533Y-107595330D01*
X110283172Y-107620362D01*
X110309966Y-107647374D01*
X110323798Y-107677460D01*
X110326256Y-107699121D01*
X110319376Y-107729130D01*
X110300360Y-107755813D01*
X110271643Y-107778164D01*
X110235658Y-107795178D01*
X110194840Y-107805851D01*
X110151625Y-107809176D01*
X110108446Y-107804149D01*
X110086921Y-107797938D01*
X110044834Y-107777355D01*
X110014006Y-107750857D01*
X109994705Y-107720422D01*
X109987199Y-107688027D01*
X109991754Y-107655649D01*
X110008638Y-107625265D01*
X110038118Y-107598853D01*
X110058448Y-107587376D01*
X110107973Y-107571550D01*
X110160011Y-107569964D01*
X110213406Y-107582570D01*
G37*
G36*
X109143624Y-107883014D02*
G01*
X109183281Y-107897399D01*
X109215814Y-107921180D01*
X109239484Y-107951854D01*
X109252552Y-107986920D01*
X109253280Y-108023874D01*
X109250343Y-108036643D01*
X109233517Y-108074700D01*
X109208546Y-108101677D01*
X109174287Y-108118308D01*
X109129595Y-108125325D01*
X109111577Y-108125650D01*
X109080394Y-108123738D01*
X109050466Y-108119299D01*
X109031683Y-108114380D01*
X108997326Y-108096335D01*
X108968441Y-108070840D01*
X108947249Y-108040937D01*
X108935973Y-108009669D01*
X108936027Y-107983392D01*
X108950732Y-107947539D01*
X108976974Y-107918006D01*
X109012491Y-107895885D01*
X109055023Y-107882270D01*
X109102306Y-107878255D01*
X109143624Y-107883014D01*
G37*
G36*
X111297505Y-109531728D02*
G01*
X111311107Y-109538281D01*
X111314547Y-109540910D01*
X111326807Y-109558352D01*
X111325488Y-109580197D01*
X111310536Y-109606955D01*
X111307315Y-109611170D01*
X111288275Y-109628991D01*
X111261618Y-109645610D01*
X111230240Y-109660171D01*
X111197032Y-109671822D01*
X111164889Y-109679709D01*
X111136705Y-109682978D01*
X111115373Y-109680774D01*
X111103787Y-109672246D01*
X111103395Y-109671336D01*
X111106040Y-109659740D01*
X111118263Y-109642132D01*
X111137542Y-109620938D01*
X111161351Y-109598587D01*
X111187168Y-109577504D01*
X111212469Y-109560119D01*
X111227591Y-109551880D01*
X111259083Y-109538107D01*
X111281276Y-109531530D01*
X111297505Y-109531728D01*
G37*
G36*
X111650082Y-109479513D02*
G01*
X111692346Y-109501495D01*
X111731786Y-109536665D01*
X111732775Y-109537782D01*
X111761531Y-109580723D01*
X111776618Y-109627646D01*
X111778055Y-109677025D01*
X111765859Y-109727331D01*
X111740048Y-109777036D01*
X111729799Y-109791410D01*
X111703325Y-109816110D01*
X111667310Y-109836259D01*
X111626657Y-109850128D01*
X111586272Y-109855992D01*
X111554574Y-109853092D01*
X111507228Y-109834287D01*
X111469253Y-109804460D01*
X111441401Y-109764563D01*
X111424421Y-109715547D01*
X111419750Y-109681978D01*
X111421773Y-109627393D01*
X111434934Y-109579564D01*
X111457490Y-109539297D01*
X111487693Y-109507394D01*
X111523799Y-109484660D01*
X111564063Y-109471899D01*
X111606739Y-109469916D01*
X111650082Y-109479513D01*
G37*
G36*
X108846503Y-107573404D02*
G01*
X108885063Y-107588064D01*
X108915945Y-107610208D01*
X108937088Y-107638676D01*
X108946431Y-107672307D01*
X108946703Y-107679408D01*
X108941170Y-107706450D01*
X108926796Y-107735866D01*
X108906914Y-107761697D01*
X108894695Y-107772321D01*
X108856895Y-107791761D01*
X108810953Y-107804005D01*
X108761972Y-107808359D01*
X108715056Y-107804127D01*
X108696315Y-107799346D01*
X108676684Y-107789597D01*
X108653454Y-107773228D01*
X108639141Y-107760788D01*
X108620814Y-107741869D01*
X108611251Y-107726750D01*
X108607715Y-107709990D01*
X108607348Y-107697575D01*
X108614211Y-107660016D01*
X108634407Y-107627847D01*
X108667345Y-107601575D01*
X108712437Y-107581707D01*
X108754587Y-107571180D01*
X108802324Y-107567389D01*
X108846503Y-107573404D01*
G37*
G36*
X107346924Y-109475331D02*
G01*
X107386402Y-109488537D01*
X107387538Y-109489128D01*
X107425851Y-109517300D01*
X107455403Y-109555343D01*
X107475380Y-109600699D01*
X107484973Y-109650813D01*
X107483369Y-109703125D01*
X107470930Y-109752011D01*
X107447641Y-109795040D01*
X107414881Y-109827836D01*
X107374603Y-109849499D01*
X107328762Y-109859133D01*
X107279311Y-109855839D01*
X107257304Y-109850187D01*
X107231080Y-109836525D01*
X107202746Y-109813242D01*
X107176035Y-109784263D01*
X107154677Y-109753518D01*
X107144257Y-109731197D01*
X107136147Y-109696967D01*
X107132421Y-109658321D01*
X107133271Y-109621172D01*
X107138887Y-109591434D01*
X107139680Y-109589197D01*
X107161564Y-109548184D01*
X107192847Y-109512479D01*
X107219900Y-109492345D01*
X107258112Y-109477342D01*
X107302307Y-109471635D01*
X107346924Y-109475331D01*
G37*
G36*
X110667159Y-108119498D02*
G01*
X110714184Y-108123650D01*
X110753077Y-108129854D01*
X110754718Y-108130213D01*
X110806062Y-108145344D01*
X110862605Y-108168166D01*
X110918924Y-108196127D01*
X110969599Y-108226676D01*
X110988906Y-108240428D01*
X111024460Y-108270679D01*
X111055474Y-108303371D01*
X111080347Y-108336186D01*
X111097480Y-108366808D01*
X111105273Y-108392921D01*
X111104250Y-108407481D01*
X111100133Y-108415482D01*
X111092647Y-108419525D01*
X111079685Y-108419314D01*
X111059137Y-108414557D01*
X111028894Y-108404959D01*
X110991004Y-108391712D01*
X110893745Y-108362351D01*
X110799438Y-108345236D01*
X110706058Y-108340430D01*
X110611576Y-108347998D01*
X110513967Y-108368005D01*
X110411203Y-108400513D01*
X110383589Y-108410944D01*
X110337377Y-108426916D01*
X110301521Y-108434537D01*
X110274371Y-108434031D01*
X110258016Y-108428047D01*
X110241760Y-108411716D01*
X110229174Y-108386724D01*
X110223141Y-108359144D01*
X110222974Y-108354243D01*
X110228044Y-108313100D01*
X110244224Y-108275504D01*
X110272971Y-108238360D01*
X110281704Y-108229367D01*
X110333791Y-108187100D01*
X110395090Y-108155033D01*
X110466148Y-108132983D01*
X110547510Y-108120770D01*
X110618238Y-108117956D01*
X110667159Y-108119498D01*
G37*
G36*
X108327011Y-108117527D02*
G01*
X108387628Y-108119750D01*
X108438875Y-108126455D01*
X108485741Y-108138729D01*
X108533213Y-108157660D01*
X108552018Y-108166614D01*
X108609929Y-108200388D01*
X108654128Y-108237720D01*
X108684389Y-108278333D01*
X108700485Y-108321954D01*
X108703253Y-108350302D01*
X108698274Y-108389811D01*
X108683650Y-108418766D01*
X108659847Y-108436610D01*
X108627331Y-108442786D01*
X108625791Y-108442782D01*
X108605637Y-108439613D01*
X108574441Y-108430848D01*
X108534494Y-108417202D01*
X108493267Y-108401462D01*
X108428571Y-108377184D01*
X108372146Y-108359815D01*
X108319675Y-108348572D01*
X108266837Y-108342669D01*
X108209316Y-108341324D01*
X108168399Y-108342478D01*
X108101099Y-108347561D01*
X108037918Y-108357433D01*
X107973811Y-108373165D01*
X107903730Y-108395824D01*
X107885488Y-108402402D01*
X107858438Y-108411379D01*
X107835982Y-108417123D01*
X107822261Y-108418613D01*
X107820936Y-108418313D01*
X107811397Y-108408141D01*
X107811999Y-108390298D01*
X107821498Y-108366495D01*
X107838647Y-108338444D01*
X107862203Y-108307856D01*
X107890918Y-108276443D01*
X107923548Y-108245916D01*
X107958848Y-108217986D01*
X107974562Y-108207186D01*
X108048146Y-108167708D01*
X108130977Y-108139615D01*
X108223120Y-108122890D01*
X108324642Y-108117517D01*
X108327011Y-108117527D01*
G37*
G36*
X109041627Y-106726247D02*
G01*
X109058795Y-106726917D01*
X109096859Y-106729118D01*
X109133577Y-106732114D01*
X109164004Y-106735456D01*
X109179088Y-106737797D01*
X109208167Y-106743453D01*
X109241955Y-106750044D01*
X109260238Y-106753619D01*
X109295888Y-106761923D01*
X109336631Y-106773413D01*
X109375968Y-106786124D01*
X109407402Y-106798089D01*
X109407784Y-106798254D01*
X109424385Y-106804529D01*
X109446840Y-106811968D01*
X109452047Y-106813568D01*
X109477161Y-106821822D01*
X109506436Y-106832358D01*
X109518443Y-106836955D01*
X109541173Y-106845972D01*
X109562578Y-106854736D01*
X109587161Y-106865132D01*
X109619427Y-106879045D01*
X109630947Y-106884043D01*
X109656470Y-106895687D01*
X109691957Y-106912660D01*
X109734923Y-106933703D01*
X109782879Y-106957553D01*
X109833339Y-106982951D01*
X109883817Y-107008634D01*
X109931825Y-107033343D01*
X109974876Y-107055817D01*
X110010483Y-107074794D01*
X110036160Y-107089014D01*
X110042230Y-107092567D01*
X110070029Y-107109284D01*
X110106420Y-107131234D01*
X110147386Y-107155989D01*
X110188907Y-107181124D01*
X110204531Y-107190595D01*
X110247005Y-107215937D01*
X110292405Y-107242330D01*
X110336073Y-107267108D01*
X110373354Y-107287605D01*
X110383137Y-107292806D01*
X110422603Y-107314790D01*
X110465802Y-107340832D01*
X110505967Y-107366782D01*
X110523306Y-107378788D01*
X110551194Y-107397869D01*
X110575868Y-107413157D01*
X110594217Y-107422815D01*
X110602017Y-107425260D01*
X110613377Y-107422176D01*
X110635161Y-107413654D01*
X110664604Y-107400866D01*
X110698938Y-107384984D01*
X110712677Y-107378389D01*
X110749961Y-107360396D01*
X110785053Y-107343621D01*
X110814586Y-107329662D01*
X110835192Y-107320118D01*
X110838977Y-107318422D01*
X110856104Y-107310560D01*
X110883473Y-107297642D01*
X110918757Y-107280798D01*
X110959628Y-107261155D01*
X111003758Y-107239845D01*
X111048820Y-107217994D01*
X111092485Y-107196733D01*
X111132426Y-107177190D01*
X111166316Y-107160494D01*
X111191826Y-107147775D01*
X111206630Y-107140161D01*
X111207563Y-107139651D01*
X111239739Y-107122740D01*
X111280422Y-107102675D01*
X111325476Y-107081368D01*
X111370764Y-107060732D01*
X111412148Y-107042680D01*
X111445491Y-107029126D01*
X111451292Y-107026954D01*
X111469976Y-107019917D01*
X111484490Y-107014289D01*
X111512701Y-107003831D01*
X111538032Y-106996392D01*
X111564377Y-106991321D01*
X111595633Y-106987967D01*
X111635694Y-106985680D01*
X111661680Y-106984683D01*
X111734177Y-106984404D01*
X111796700Y-106989783D01*
X111853310Y-107001926D01*
X111908068Y-107021937D01*
X111965034Y-107050924D01*
X112013667Y-107080510D01*
X112058592Y-107113044D01*
X112106846Y-107154319D01*
X112155073Y-107200949D01*
X112199921Y-107249541D01*
X112238036Y-107296708D01*
X112261057Y-107330531D01*
X112278946Y-107359868D01*
X112296716Y-107388974D01*
X112310736Y-107411903D01*
X112311588Y-107413294D01*
X112329231Y-107446192D01*
X112348920Y-107489633D01*
X112369226Y-107539819D01*
X112388724Y-107592952D01*
X112405987Y-107645233D01*
X112419589Y-107692865D01*
X112424770Y-107714666D01*
X112440613Y-107795953D01*
X112451110Y-107870350D01*
X112456985Y-107944415D01*
X112458961Y-108024478D01*
X112458178Y-108092778D01*
X112454962Y-108153699D01*
X112448728Y-108211328D01*
X112438890Y-108269754D01*
X112424863Y-108333064D01*
X112406061Y-108405346D01*
X112402594Y-108417933D01*
X112388141Y-108464169D01*
X112368930Y-108516953D01*
X112346243Y-108573457D01*
X112321361Y-108630854D01*
X112295568Y-108686316D01*
X112270144Y-108737015D01*
X112246373Y-108780123D01*
X112225536Y-108812812D01*
X112220463Y-108819634D01*
X112209795Y-108833980D01*
X112193597Y-108856503D01*
X112174714Y-108883232D01*
X112166921Y-108894391D01*
X112127740Y-108950705D01*
X112147314Y-108964582D01*
X112178723Y-108983065D01*
X112223110Y-109003443D01*
X112278930Y-109025010D01*
X112281237Y-109025836D01*
X112303550Y-109034004D01*
X112322675Y-109041307D01*
X112323656Y-109041698D01*
X112344093Y-109049867D01*
X112358698Y-109055708D01*
X112379873Y-109064172D01*
X112393741Y-109069710D01*
X112435354Y-109086573D01*
X112465513Y-109099637D01*
X112486592Y-109110245D01*
X112500967Y-109119740D01*
X112511012Y-109129467D01*
X112518964Y-109140546D01*
X112526776Y-109156168D01*
X112530057Y-109173914D01*
X112529526Y-109199037D01*
X112528565Y-109210631D01*
X112522288Y-109251915D01*
X112510789Y-109301959D01*
X112495327Y-109356268D01*
X112477158Y-109410345D01*
X112461530Y-109450392D01*
X112454226Y-109468449D01*
X112443941Y-109494706D01*
X112432873Y-109523550D01*
X112432640Y-109524165D01*
X112420286Y-109556196D01*
X112409902Y-109581068D01*
X112399270Y-109603295D01*
X112386172Y-109627392D01*
X112368391Y-109657872D01*
X112360157Y-109671711D01*
X112323323Y-109732924D01*
X112292325Y-109783080D01*
X112265895Y-109824053D01*
X112242763Y-109857717D01*
X112221660Y-109885946D01*
X112201316Y-109910613D01*
X112188861Y-109924575D01*
X112168274Y-109947504D01*
X112152442Y-109966035D01*
X112143365Y-109977774D01*
X112142050Y-109980643D01*
X112162493Y-109993446D01*
X112189756Y-110007409D01*
X112216677Y-110018983D01*
X112225907Y-110022199D01*
X112246189Y-110029185D01*
X112260559Y-110035276D01*
X112262794Y-110036576D01*
X112272327Y-110040677D01*
X112292984Y-110048133D01*
X112321801Y-110057914D01*
X112355815Y-110068989D01*
X112358698Y-110069909D01*
X112395728Y-110081879D01*
X112430468Y-110093430D01*
X112458941Y-110103218D01*
X112476735Y-110109732D01*
X112498967Y-110119407D01*
X112530266Y-110134231D01*
X112567581Y-110152634D01*
X112607860Y-110173044D01*
X112648051Y-110193891D01*
X112685103Y-110213604D01*
X112715964Y-110230613D01*
X112737583Y-110243347D01*
X112742200Y-110246365D01*
X112765306Y-110261187D01*
X112787796Y-110274039D01*
X112793996Y-110277161D01*
X112818121Y-110291356D01*
X112845925Y-110311820D01*
X112873709Y-110335344D01*
X112897773Y-110358716D01*
X112914417Y-110378726D01*
X112918030Y-110384788D01*
X112925440Y-110401514D01*
X112924931Y-110411865D01*
X112915346Y-110422581D01*
X112910863Y-110426578D01*
X112899928Y-110434867D01*
X112888624Y-110439062D01*
X112874819Y-110438544D01*
X112856384Y-110432696D01*
X112831188Y-110420899D01*
X112797100Y-110402536D01*
X112764449Y-110384100D01*
X112703328Y-110350049D01*
X112641532Y-110317039D01*
X112582848Y-110287029D01*
X112531064Y-110261981D01*
X112509933Y-110252367D01*
X112474237Y-110236937D01*
X112436438Y-110221219D01*
X112399813Y-110206511D01*
X112367639Y-110194110D01*
X112343194Y-110185314D01*
X112331719Y-110181818D01*
X112312383Y-110176568D01*
X112300366Y-110172609D01*
X112292892Y-110172332D01*
X112289408Y-110181074D01*
X112288614Y-110199434D01*
X112286462Y-110222461D01*
X112279237Y-110246234D01*
X112265785Y-110272766D01*
X112244953Y-110304071D01*
X112215588Y-110342163D01*
X112187242Y-110376431D01*
X112117075Y-110459613D01*
X112134605Y-110472922D01*
X112148189Y-110481458D01*
X112171638Y-110494441D01*
X112201482Y-110510003D01*
X112229596Y-110524017D01*
X112297766Y-110559142D01*
X112363694Y-110597240D01*
X112430594Y-110640364D01*
X112501683Y-110690568D01*
X112565263Y-110738386D01*
X112601596Y-110767858D01*
X112639940Y-110801601D01*
X112678195Y-110837497D01*
X112714263Y-110873428D01*
X112746044Y-110907277D01*
X112771440Y-110936926D01*
X112788353Y-110960257D01*
X112792364Y-110967540D01*
X112803163Y-111000503D01*
X112804061Y-111028695D01*
X112796976Y-111050685D01*
X112783829Y-111065039D01*
X112766540Y-111070325D01*
X112747029Y-111065113D01*
X112727217Y-111047969D01*
X112713343Y-111026477D01*
X112700040Y-111007568D01*
X112676798Y-110981701D01*
X112645588Y-110950631D01*
X112608380Y-110916114D01*
X112567143Y-110879904D01*
X112523846Y-110843755D01*
X112480461Y-110809421D01*
X112438957Y-110778659D01*
X112421405Y-110766439D01*
X112374059Y-110735466D01*
X112323469Y-110704500D01*
X112271659Y-110674587D01*
X112220651Y-110646772D01*
X112172467Y-110622101D01*
X112129130Y-110601619D01*
X112092661Y-110586373D01*
X112065084Y-110577408D01*
X112051991Y-110575429D01*
X112040255Y-110581824D01*
X112031925Y-110595716D01*
X112022084Y-110617263D01*
X112006600Y-110641713D01*
X111984312Y-110670486D01*
X111954058Y-110705004D01*
X111914676Y-110746690D01*
X111878511Y-110783452D01*
X111777049Y-110885317D01*
X111794914Y-110904492D01*
X111808131Y-110916810D01*
X111829920Y-110935146D01*
X111856967Y-110956771D01*
X111879175Y-110973859D01*
X111930812Y-111014683D01*
X111984722Y-111060467D01*
X112037986Y-111108505D01*
X112087686Y-111156093D01*
X112130901Y-111200523D01*
X112162877Y-111236836D01*
X112188790Y-111270816D01*
X112213184Y-111307116D01*
X112234783Y-111343320D01*
X112252316Y-111377014D01*
X112264507Y-111405784D01*
X112270084Y-111427215D01*
X112268813Y-111437641D01*
X112256007Y-111447903D01*
X112243266Y-111451826D01*
X112234880Y-111451858D01*
X112226211Y-111448767D01*
X112215511Y-111440989D01*
X112201028Y-111426962D01*
X112181013Y-111405121D01*
X112153717Y-111373902D01*
X112145737Y-111364665D01*
X112111282Y-111326300D01*
X112071825Y-111284915D01*
X112030381Y-111243469D01*
X111989966Y-111204921D01*
X111953595Y-111172231D01*
X111928808Y-111151796D01*
X111861671Y-111100530D01*
X111804315Y-111058188D01*
X111757052Y-111024989D01*
X111720196Y-111001155D01*
X111694199Y-110986967D01*
X111678708Y-110983843D01*
X111664424Y-110992355D01*
X111663438Y-110993276D01*
X111636774Y-111015253D01*
X111598710Y-111042007D01*
X111551345Y-111072361D01*
X111496780Y-111105137D01*
X111437112Y-111139158D01*
X111374441Y-111173245D01*
X111310867Y-111206221D01*
X111248489Y-111236908D01*
X111189406Y-111264129D01*
X111152512Y-111279922D01*
X111127260Y-111291029D01*
X111107026Y-111301197D01*
X111096164Y-111308235D01*
X111096129Y-111308270D01*
X111090675Y-111320035D01*
X111085705Y-111341059D01*
X111083373Y-111357421D01*
X111079650Y-111390311D01*
X111074899Y-111429310D01*
X111069497Y-111471631D01*
X111063825Y-111514487D01*
X111058258Y-111555088D01*
X111053177Y-111590649D01*
X111048959Y-111618380D01*
X111045983Y-111635495D01*
X111045157Y-111638970D01*
X111044086Y-111646773D01*
X111049655Y-111649820D01*
X111065066Y-111648988D01*
X111076422Y-111647533D01*
X111103728Y-111641593D01*
X111129347Y-111632531D01*
X111136137Y-111629166D01*
X111156887Y-111620028D01*
X111175437Y-111615684D01*
X111177081Y-111615626D01*
X111193469Y-111612721D01*
X111200933Y-111608519D01*
X111212924Y-111603249D01*
X111234588Y-111598748D01*
X111260845Y-111595587D01*
X111286612Y-111594340D01*
X111306811Y-111595579D01*
X111309928Y-111596224D01*
X111327971Y-111607144D01*
X111344355Y-111627543D01*
X111355722Y-111652240D01*
X111358948Y-111671827D01*
X111353403Y-111724624D01*
X111337753Y-111786148D01*
X111312610Y-111854985D01*
X111278587Y-111929720D01*
X111236295Y-112008939D01*
X111186347Y-112091226D01*
X111160565Y-112130315D01*
X111142165Y-112157645D01*
X111126345Y-112181373D01*
X111115312Y-112198181D01*
X111111937Y-112203511D01*
X111096853Y-112225100D01*
X111072072Y-112255849D01*
X111048977Y-112282830D01*
X111033248Y-112301123D01*
X111011342Y-112326897D01*
X110986526Y-112356296D01*
X110968581Y-112377675D01*
X110926322Y-112426125D01*
X110876964Y-112479327D01*
X110822704Y-112535172D01*
X110765736Y-112591552D01*
X110708253Y-112646358D01*
X110652451Y-112697480D01*
X110600524Y-112742812D01*
X110554668Y-112780243D01*
X110531477Y-112797674D01*
X110510286Y-112813829D01*
X110483374Y-112835575D01*
X110456001Y-112858647D01*
X110451670Y-112862403D01*
X110423832Y-112885715D01*
X110394567Y-112908713D01*
X110369633Y-112926892D01*
X110366831Y-112928786D01*
X110349005Y-112940722D01*
X110321606Y-112959131D01*
X110287288Y-112982229D01*
X110248703Y-113008228D01*
X110208506Y-113035344D01*
X110208219Y-113035537D01*
X110110980Y-113099245D01*
X110013776Y-113159240D01*
X109918292Y-113214632D01*
X109826209Y-113264531D01*
X109739211Y-113308045D01*
X109658980Y-113344285D01*
X109587199Y-113372359D01*
X109547157Y-113385427D01*
X109485609Y-113398137D01*
X109428702Y-113398046D01*
X109389340Y-113390148D01*
X109328326Y-113369981D01*
X109257956Y-113341960D01*
X109180526Y-113307280D01*
X109098332Y-113267136D01*
X109013670Y-113222726D01*
X108928837Y-113175245D01*
X108846128Y-113125889D01*
X108767840Y-113075853D01*
X108710630Y-113036633D01*
X108685765Y-113019283D01*
X108652734Y-112996660D01*
X108615701Y-112971597D01*
X108578827Y-112946925D01*
X108576022Y-112945061D01*
X108498868Y-112891752D01*
X108426576Y-112837103D01*
X108354423Y-112777399D01*
X108289021Y-112719305D01*
X108154163Y-112592251D01*
X108033259Y-112469836D01*
X107926272Y-112352015D01*
X107833165Y-112238742D01*
X107753901Y-112129971D01*
X107688443Y-112025657D01*
X107636754Y-111925753D01*
X107622098Y-111892275D01*
X107611572Y-111867790D01*
X107601270Y-111844995D01*
X107599544Y-111841344D01*
X107592204Y-111822029D01*
X107589282Y-111806738D01*
X107585617Y-111793090D01*
X107581905Y-111788993D01*
X107581691Y-111788408D01*
X107775529Y-111788408D01*
X107776261Y-111797282D01*
X107783716Y-111816322D01*
X107796681Y-111843255D01*
X107813946Y-111875807D01*
X107834298Y-111911706D01*
X107856527Y-111948678D01*
X107879419Y-111984449D01*
X107882390Y-111988907D01*
X107979299Y-112122452D01*
X108090464Y-112255236D01*
X108215389Y-112386774D01*
X108353578Y-112516579D01*
X108504535Y-112644164D01*
X108667764Y-112769044D01*
X108706941Y-112797298D01*
X108769030Y-112840783D01*
X108832727Y-112883918D01*
X108896174Y-112925547D01*
X108957509Y-112964515D01*
X109014874Y-112999665D01*
X109066408Y-113029841D01*
X109110251Y-113053888D01*
X109144544Y-113070650D01*
X109151590Y-113073640D01*
X109173894Y-113083377D01*
X109201746Y-113096422D01*
X109219663Y-113105226D01*
X109249351Y-113118632D01*
X109280929Y-113130609D01*
X109297124Y-113135651D01*
X109322023Y-113143359D01*
X109354234Y-113154610D01*
X109387482Y-113167197D01*
X109393029Y-113169408D01*
X109426398Y-113182446D01*
X109450223Y-113190031D01*
X109468525Y-113192516D01*
X109485322Y-113190259D01*
X109504634Y-113183614D01*
X109513387Y-113180046D01*
X109538532Y-113169847D01*
X109570300Y-113157259D01*
X109599593Y-113145865D01*
X109637218Y-113130178D01*
X109684067Y-113108787D01*
X109736638Y-113083451D01*
X109791429Y-113055931D01*
X109844937Y-113027987D01*
X109893660Y-113001380D01*
X109934095Y-112977869D01*
X109935260Y-112977159D01*
X109985256Y-112945606D01*
X110044135Y-112906760D01*
X110109218Y-112862503D01*
X110177829Y-112814715D01*
X110247294Y-112765274D01*
X110314934Y-112716062D01*
X110378074Y-112668958D01*
X110422161Y-112635136D01*
X110531587Y-112544870D01*
X110638466Y-112446906D01*
X110741077Y-112343210D01*
X110837702Y-112235745D01*
X110926620Y-112126477D01*
X111006111Y-112017370D01*
X111074458Y-111910389D01*
X111106842Y-111852852D01*
X111139700Y-111791298D01*
X111118441Y-111802265D01*
X111091741Y-111813625D01*
X111054673Y-111826162D01*
X111011437Y-111838693D01*
X110966231Y-111850036D01*
X110923252Y-111859010D01*
X110907217Y-111861735D01*
X110874852Y-111866639D01*
X110854853Y-111867969D01*
X110844948Y-111864017D01*
X110842867Y-111853074D01*
X110846340Y-111833433D01*
X110849749Y-111818502D01*
X110852383Y-111803178D01*
X110856037Y-111776681D01*
X110860459Y-111741370D01*
X110865394Y-111699606D01*
X110870588Y-111653751D01*
X110875787Y-111606164D01*
X110880739Y-111559207D01*
X110885189Y-111515241D01*
X110888883Y-111476626D01*
X110891568Y-111445722D01*
X110892990Y-111424892D01*
X110892949Y-111416607D01*
X110891011Y-111415321D01*
X110885760Y-111415716D01*
X110875897Y-111418260D01*
X110860124Y-111423417D01*
X110837141Y-111431653D01*
X110805652Y-111443434D01*
X110764357Y-111459225D01*
X110711959Y-111479492D01*
X110647157Y-111504700D01*
X110645842Y-111505213D01*
X110613706Y-111517222D01*
X110585453Y-111526843D01*
X110564616Y-111532926D01*
X110555872Y-111534476D01*
X110545614Y-111538625D01*
X110533681Y-111552309D01*
X110518582Y-111577385D01*
X110512935Y-111587936D01*
X110469181Y-111660459D01*
X110413784Y-111734871D01*
X110349158Y-111808582D01*
X110277717Y-111879004D01*
X110201877Y-111943549D01*
X110136855Y-111991116D01*
X110070466Y-112031498D01*
X109993714Y-112070637D01*
X109910982Y-112106691D01*
X109826648Y-112137820D01*
X109745094Y-112162179D01*
X109710341Y-112170470D01*
X109670467Y-112177098D01*
X109619548Y-112182521D01*
X109561254Y-112186616D01*
X109499254Y-112189261D01*
X109437219Y-112190334D01*
X109378817Y-112189711D01*
X109327719Y-112187272D01*
X109296958Y-112184250D01*
X109173306Y-112160877D01*
X109051347Y-112123694D01*
X108932983Y-112073642D01*
X108820116Y-112011662D01*
X108714651Y-111938698D01*
X108618489Y-111855692D01*
X108603528Y-111840975D01*
X108528399Y-111760816D01*
X108467106Y-111684877D01*
X108419745Y-111613277D01*
X108407401Y-111591026D01*
X108380820Y-111540605D01*
X108274610Y-111505155D01*
X108229453Y-111489650D01*
X108181798Y-111472561D01*
X108136888Y-111455810D01*
X108099967Y-111441322D01*
X108095244Y-111439380D01*
X108065315Y-111427203D01*
X108040944Y-111417718D01*
X108024999Y-111412016D01*
X108020236Y-111410910D01*
X108020338Y-111418571D01*
X108022726Y-111435838D01*
X108024482Y-111445954D01*
X108027414Y-111465051D01*
X108031379Y-111495277D01*
X108035941Y-111533083D01*
X108040662Y-111574919D01*
X108042657Y-111593494D01*
X108047906Y-111641033D01*
X108053804Y-111690961D01*
X108059705Y-111737993D01*
X108064960Y-111776849D01*
X108066018Y-111784129D01*
X108070327Y-111816002D01*
X108073096Y-111842136D01*
X108074030Y-111859310D01*
X108073368Y-111864351D01*
X108063522Y-111865616D01*
X108042458Y-111863326D01*
X108013098Y-111858148D01*
X107978362Y-111850749D01*
X107941170Y-111841795D01*
X107904444Y-111831953D01*
X107871104Y-111821889D01*
X107844071Y-111812269D01*
X107842685Y-111811709D01*
X107814596Y-111800661D01*
X107792080Y-111792566D01*
X107778276Y-111788513D01*
X107775529Y-111788408D01*
X107581691Y-111788408D01*
X107578635Y-111780043D01*
X107576108Y-111759941D01*
X107574698Y-111732283D01*
X107574528Y-111717980D01*
X107574743Y-111686248D01*
X107576124Y-111665245D01*
X107579775Y-111650945D01*
X107586797Y-111639324D01*
X107598294Y-111626356D01*
X107600181Y-111624355D01*
X107615322Y-111609386D01*
X107628359Y-111601306D01*
X107644795Y-111598074D01*
X107670131Y-111597649D01*
X107672109Y-111597668D01*
X107703955Y-111600132D01*
X107735487Y-111607686D01*
X107770748Y-111621624D01*
X107812767Y-111642698D01*
X107835752Y-111653141D01*
X107855187Y-111659982D01*
X107876996Y-111666237D01*
X107876996Y-111620275D01*
X107875986Y-111595011D01*
X107873357Y-111575609D01*
X107870299Y-111567305D01*
X107865666Y-111556335D01*
X107861354Y-111536233D01*
X107859622Y-111523410D01*
X107856235Y-111495187D01*
X107851700Y-111461303D01*
X107848409Y-111438571D01*
X107840645Y-111388499D01*
X107834141Y-111351198D01*
X107828248Y-111324807D01*
X107822319Y-111307467D01*
X107815706Y-111297318D01*
X107807764Y-111292499D01*
X107797843Y-111291151D01*
X107797098Y-111291139D01*
X107786303Y-111287709D01*
X107765017Y-111278347D01*
X107735650Y-111264276D01*
X107700612Y-111246719D01*
X107662316Y-111226900D01*
X107623172Y-111206044D01*
X107585590Y-111185373D01*
X107559773Y-111170667D01*
X107491852Y-111131118D01*
X107435482Y-111098001D01*
X107389353Y-111070517D01*
X107352155Y-111047868D01*
X107322577Y-111029254D01*
X107299311Y-111013875D01*
X107281045Y-111000934D01*
X107278945Y-110999369D01*
X107237878Y-110968608D01*
X107216238Y-110986364D01*
X107194172Y-111002474D01*
X107170124Y-111017367D01*
X107168777Y-111018104D01*
X107152330Y-111028692D01*
X107128358Y-111046211D01*
X107100492Y-111067939D01*
X107080249Y-111084498D01*
X107050512Y-111109305D01*
X107021032Y-111133813D01*
X106996004Y-111154540D01*
X106984345Y-111164143D01*
X106933934Y-111208141D01*
X106882498Y-111257726D01*
X106833951Y-111308883D01*
X106792206Y-111357595D01*
X106777935Y-111375968D01*
X106751263Y-111411031D01*
X106731526Y-111435375D01*
X106717294Y-111450433D01*
X106707138Y-111457640D01*
X106699629Y-111458430D01*
X106696954Y-111457214D01*
X106690212Y-111445281D01*
X106688751Y-111424301D01*
X106692084Y-111398809D01*
X106699721Y-111373337D01*
X106707696Y-111357421D01*
X106718677Y-111338930D01*
X106725322Y-111325629D01*
X106726217Y-111322526D01*
X106730981Y-111312292D01*
X106743980Y-111293275D01*
X106763483Y-111267574D01*
X106787761Y-111237286D01*
X106815084Y-111204511D01*
X106843722Y-111171346D01*
X106871945Y-111139891D01*
X106898022Y-111112243D01*
X106907213Y-111102970D01*
X106953384Y-111060505D01*
X107012307Y-111011944D01*
X107074889Y-110964064D01*
X107100760Y-110943449D01*
X107122332Y-110923700D01*
X107136505Y-110907779D01*
X107139962Y-110901892D01*
X107142261Y-110893356D01*
X107141096Y-110884883D01*
X107134950Y-110874363D01*
X107122302Y-110859687D01*
X107101635Y-110838743D01*
X107077965Y-110815726D01*
X107034145Y-110772265D01*
X106998215Y-110733616D01*
X106966490Y-110695440D01*
X106935285Y-110653400D01*
X106914505Y-110623381D01*
X106898371Y-110599681D01*
X106885708Y-110581212D01*
X106878546Y-110570930D01*
X106877702Y-110569798D01*
X106870771Y-110571967D01*
X106853416Y-110579352D01*
X106828473Y-110590706D01*
X106806577Y-110601038D01*
X106724084Y-110642890D01*
X106646922Y-110686711D01*
X106579461Y-110730010D01*
X106574905Y-110733173D01*
X106557270Y-110745277D01*
X106532790Y-110761815D01*
X106508240Y-110778224D01*
X106459027Y-110813730D01*
X106402852Y-110859214D01*
X106341730Y-110912944D01*
X106277674Y-110973189D01*
X106250723Y-110999676D01*
X106219083Y-111031061D01*
X106196131Y-111053252D01*
X106180124Y-111067487D01*
X106169319Y-111075008D01*
X106161974Y-111077055D01*
X106156345Y-111074867D01*
X106151371Y-111070367D01*
X106141210Y-111050110D01*
X106143660Y-111022379D01*
X106158680Y-110987295D01*
X106186232Y-110944980D01*
X106194870Y-110933548D01*
X106206557Y-110920420D01*
X106226650Y-110899808D01*
X106252617Y-110874132D01*
X106281924Y-110845811D01*
X106312040Y-110817263D01*
X106340433Y-110790908D01*
X106364569Y-110769165D01*
X106381917Y-110754452D01*
X106384264Y-110752630D01*
X106428896Y-110718565D01*
X106475451Y-110682555D01*
X106494820Y-110667413D01*
X106510557Y-110655872D01*
X106521140Y-110649587D01*
X106522561Y-110649202D01*
X106530549Y-110645275D01*
X106546711Y-110635072D01*
X106563839Y-110623381D01*
X106583895Y-110609742D01*
X106598898Y-110600384D01*
X106604854Y-110597561D01*
X106612852Y-110593712D01*
X106628756Y-110583838D01*
X106641301Y-110575429D01*
X106660901Y-110562903D01*
X106676134Y-110554881D01*
X106681361Y-110553297D01*
X106688947Y-110549026D01*
X106689253Y-110547402D01*
X106695465Y-110541272D01*
X106710756Y-110533787D01*
X106714180Y-110532493D01*
X106735894Y-110522468D01*
X106758983Y-110508502D01*
X106779756Y-110493284D01*
X106794523Y-110479503D01*
X106799628Y-110470256D01*
X106795271Y-110461476D01*
X106783438Y-110443256D01*
X106765671Y-110417833D01*
X106743516Y-110387442D01*
X106729599Y-110368865D01*
X106700042Y-110328870D01*
X106679278Y-110298486D01*
X106666386Y-110276212D01*
X106660449Y-110260550D01*
X106659800Y-110255041D01*
X106657200Y-110233864D01*
X106650792Y-110207053D01*
X106642540Y-110182552D01*
X106640989Y-110178953D01*
X106634091Y-110180081D01*
X106616427Y-110184647D01*
X106591338Y-110191767D01*
X106581721Y-110194610D01*
X106449323Y-110241021D01*
X106316015Y-110301331D01*
X106183238Y-110374873D01*
X106158962Y-110389805D01*
X106126672Y-110409659D01*
X106097865Y-110426786D01*
X106075353Y-110439554D01*
X106061949Y-110446332D01*
X106060684Y-110446802D01*
X106044452Y-110445368D01*
X106028364Y-110435075D01*
X106018659Y-110420480D01*
X106017920Y-110415570D01*
X106023654Y-110398846D01*
X106039250Y-110376337D01*
X106062295Y-110350452D01*
X106090378Y-110323596D01*
X106121089Y-110298178D01*
X106152016Y-110276602D01*
X106164480Y-110269271D01*
X106182131Y-110258952D01*
X106193504Y-110251184D01*
X106194975Y-110249779D01*
X106203406Y-110243989D01*
X106222123Y-110233475D01*
X106248081Y-110219756D01*
X106278233Y-110204355D01*
X106309535Y-110188792D01*
X106338941Y-110174588D01*
X106363406Y-110163265D01*
X106379884Y-110156342D01*
X106384892Y-110154923D01*
X106397244Y-110151880D01*
X106416658Y-110144213D01*
X106425413Y-110140169D01*
X106445938Y-110131226D01*
X106461862Y-110125985D01*
X106465732Y-110125414D01*
X106480411Y-110122222D01*
X106488322Y-110118898D01*
X106509685Y-110108806D01*
X106534677Y-110098746D01*
X106567198Y-110087229D01*
X106597037Y-110077336D01*
X106626584Y-110067531D01*
X106652433Y-110058638D01*
X106670004Y-110052243D01*
X106672654Y-110051184D01*
X106693709Y-110042640D01*
X106705852Y-110037874D01*
X106738798Y-110023581D01*
X106760623Y-110009780D01*
X106774723Y-109994309D01*
X106775074Y-109993778D01*
X106781843Y-109981875D01*
X106781508Y-109972891D01*
X106772562Y-109961959D01*
X106762212Y-109952236D01*
X106728502Y-109917277D01*
X106690971Y-109871709D01*
X106651537Y-109818491D01*
X106612118Y-109760582D01*
X106574632Y-109700942D01*
X106540997Y-109642530D01*
X106513130Y-109588304D01*
X106492951Y-109541225D01*
X106489540Y-109531543D01*
X106482020Y-109511410D01*
X106475314Y-109497248D01*
X106473806Y-109495025D01*
X106468969Y-109482408D01*
X106467935Y-109472278D01*
X106465865Y-109457377D01*
X106463039Y-109451645D01*
X106454303Y-109437105D01*
X106444235Y-109411235D01*
X106433687Y-109377297D01*
X106423511Y-109338553D01*
X106414558Y-109298265D01*
X106407679Y-109259695D01*
X106406381Y-109248670D01*
X106575946Y-109248670D01*
X106579963Y-109267730D01*
X106587663Y-109292737D01*
X106588855Y-109296123D01*
X106600715Y-109330803D01*
X106613507Y-109370456D01*
X106623253Y-109402440D01*
X106648425Y-109473710D01*
X106683543Y-109551398D01*
X106726963Y-109632793D01*
X106777035Y-109715188D01*
X106832115Y-109795873D01*
X106890555Y-109872139D01*
X106950709Y-109941277D01*
X106950908Y-109941490D01*
X106986788Y-109979849D01*
X107074520Y-109985945D01*
X107151714Y-109992737D01*
X107214427Y-110001401D01*
X107262821Y-110011981D01*
X107297056Y-110024524D01*
X107317293Y-110039072D01*
X107323700Y-110055070D01*
X107320764Y-110064343D01*
X107310822Y-110071696D01*
X107292177Y-110077567D01*
X107263131Y-110082398D01*
X107221983Y-110086625D01*
X107192884Y-110088904D01*
X107100037Y-110096736D01*
X107020632Y-110105849D01*
X106953397Y-110116447D01*
X106897059Y-110128734D01*
X106850345Y-110142913D01*
X106846021Y-110144492D01*
X106827252Y-110153341D01*
X106817313Y-110164171D01*
X106816243Y-110179241D01*
X106824078Y-110200810D01*
X106840857Y-110231137D01*
X106847668Y-110242325D01*
X106865374Y-110269387D01*
X106886326Y-110298870D01*
X106908676Y-110328479D01*
X106930576Y-110355921D01*
X106950177Y-110378902D01*
X106965631Y-110395129D01*
X106975090Y-110402309D01*
X106976576Y-110402304D01*
X106986866Y-110398584D01*
X107008757Y-110392290D01*
X107039462Y-110384119D01*
X107076195Y-110374766D01*
X107116170Y-110364931D01*
X107156600Y-110355309D01*
X107194699Y-110346597D01*
X107227679Y-110339493D01*
X107227795Y-110339469D01*
X107307339Y-110324720D01*
X107386747Y-110313493D01*
X107470251Y-110305328D01*
X107562080Y-110299766D01*
X107611414Y-110297851D01*
X107689191Y-110296263D01*
X107753262Y-110297187D01*
X107804487Y-110300794D01*
X107843728Y-110307251D01*
X107871846Y-110316730D01*
X107889702Y-110329399D01*
X107898157Y-110345428D01*
X107899128Y-110354463D01*
X107895672Y-110372493D01*
X107882672Y-110382772D01*
X107879263Y-110384160D01*
X107866284Y-110386813D01*
X107840992Y-110390040D01*
X107805803Y-110393606D01*
X107763136Y-110397276D01*
X107715409Y-110400814D01*
X107692987Y-110402296D01*
X107599687Y-110408568D01*
X107519037Y-110414845D01*
X107448935Y-110421464D01*
X107387278Y-110428761D01*
X107331965Y-110437070D01*
X107280894Y-110446729D01*
X107231964Y-110458072D01*
X107183073Y-110471435D01*
X107132119Y-110487155D01*
X107104082Y-110496381D01*
X107080987Y-110505056D01*
X107065098Y-110512846D01*
X107059880Y-110518010D01*
X107067013Y-110529532D01*
X107082527Y-110549124D01*
X107104313Y-110574482D01*
X107130262Y-110603301D01*
X107158264Y-110633276D01*
X107186212Y-110662103D01*
X107211996Y-110687476D01*
X107230551Y-110704531D01*
X107257059Y-110727863D01*
X107281155Y-110749298D01*
X107299555Y-110765905D01*
X107306958Y-110772771D01*
X107319201Y-110783474D01*
X107329790Y-110787906D01*
X107342883Y-110785895D01*
X107362641Y-110777271D01*
X107377430Y-110769861D01*
X107421975Y-110749927D01*
X107477343Y-110729308D01*
X107540627Y-110708741D01*
X107608920Y-110688961D01*
X107679316Y-110670704D01*
X107748907Y-110654704D01*
X107814787Y-110641699D01*
X107874049Y-110632423D01*
X107923785Y-110627612D01*
X107941548Y-110627099D01*
X107966683Y-110627352D01*
X107980471Y-110629214D01*
X107986319Y-110634281D01*
X107987635Y-110644151D01*
X107987656Y-110648699D01*
X107982033Y-110669962D01*
X107967368Y-110684359D01*
X107953261Y-110691376D01*
X107926971Y-110701812D01*
X107890491Y-110714993D01*
X107845813Y-110730244D01*
X107794930Y-110746893D01*
X107739835Y-110764267D01*
X107682521Y-110781690D01*
X107657752Y-110789012D01*
X107636655Y-110796012D01*
X107607836Y-110806679D01*
X107574251Y-110819788D01*
X107538856Y-110834119D01*
X107504607Y-110848450D01*
X107474458Y-110861557D01*
X107451367Y-110872221D01*
X107438287Y-110879217D01*
X107436822Y-110880353D01*
X107440822Y-110885982D01*
X107455983Y-110897939D01*
X107480669Y-110915209D01*
X107513243Y-110936776D01*
X107552070Y-110961625D01*
X107595514Y-110988739D01*
X107641939Y-111017103D01*
X107689708Y-111045700D01*
X107737186Y-111073516D01*
X107782738Y-111099533D01*
X107824726Y-111122736D01*
X107842166Y-111132064D01*
X107879233Y-111151004D01*
X107922646Y-111172132D01*
X107970601Y-111194672D01*
X108021299Y-111217849D01*
X108072938Y-111240888D01*
X108123717Y-111263011D01*
X108171835Y-111283445D01*
X108215491Y-111301412D01*
X108252884Y-111316138D01*
X108282213Y-111326846D01*
X108301677Y-111332762D01*
X108309352Y-111333276D01*
X108308746Y-111325045D01*
X108303999Y-111305779D01*
X108296031Y-111278303D01*
X108287680Y-111251567D01*
X108467179Y-111251567D01*
X108467179Y-111268194D01*
X108470886Y-111289253D01*
X108481190Y-111320323D01*
X108496871Y-111358905D01*
X108516708Y-111402499D01*
X108539479Y-111448603D01*
X108563963Y-111494719D01*
X108588939Y-111538345D01*
X108613184Y-111576981D01*
X108629224Y-111599929D01*
X108653362Y-111629820D01*
X108684035Y-111664025D01*
X108716485Y-111697368D01*
X108734758Y-111714741D01*
X108827766Y-111792642D01*
X108922947Y-111857474D01*
X109022404Y-111910239D01*
X109128238Y-111951937D01*
X109242554Y-111983568D01*
X109337699Y-112001697D01*
X109370095Y-112004848D01*
X109413255Y-112006248D01*
X109463308Y-112006017D01*
X109516384Y-112004275D01*
X109568612Y-112001143D01*
X109616121Y-111996743D01*
X109650848Y-111991934D01*
X109716551Y-111979022D01*
X109775049Y-111963403D01*
X109831267Y-111943367D01*
X109890130Y-111917204D01*
X109942637Y-111890606D01*
X110008081Y-111854700D01*
X110062894Y-111821068D01*
X110110387Y-111787164D01*
X110153874Y-111750441D01*
X110196667Y-111708354D01*
X110236367Y-111664877D01*
X110283683Y-111606477D01*
X110328269Y-111542627D01*
X110368481Y-111476278D01*
X110402674Y-111410381D01*
X110429205Y-111347884D01*
X110446429Y-111291738D01*
X110447817Y-111285453D01*
X110452859Y-111261438D01*
X110409845Y-111286958D01*
X110368260Y-111308724D01*
X110316653Y-111331242D01*
X110259543Y-111352768D01*
X110201448Y-111371553D01*
X110165592Y-111381393D01*
X110136684Y-111388007D01*
X110108898Y-111392579D01*
X110078463Y-111395438D01*
X110041608Y-111396914D01*
X109994564Y-111397335D01*
X109983212Y-111397321D01*
X109881731Y-111393123D01*
X109789375Y-111380448D01*
X109702603Y-111358382D01*
X109617871Y-111326010D01*
X109531637Y-111282420D01*
X109526387Y-111279455D01*
X109466802Y-111245627D01*
X109390646Y-111283520D01*
X109316198Y-111319044D01*
X109250390Y-111346769D01*
X109189966Y-111367620D01*
X109131670Y-111382523D01*
X109072243Y-111392405D01*
X109008430Y-111398190D01*
X108982751Y-111399491D01*
X108904632Y-111400463D01*
X108834900Y-111395952D01*
X108768012Y-111385337D01*
X108698422Y-111367998D01*
X108696574Y-111367466D01*
X108660538Y-111355494D01*
X108620316Y-111339619D01*
X108579386Y-111321482D01*
X108541224Y-111302725D01*
X108509308Y-111284989D01*
X108487116Y-111269916D01*
X108483778Y-111267023D01*
X108467179Y-111251567D01*
X108287680Y-111251567D01*
X108285767Y-111245441D01*
X108274126Y-111210015D01*
X108262032Y-111174851D01*
X108250407Y-111142772D01*
X108240172Y-111116602D01*
X108234134Y-111102905D01*
X108221931Y-111080476D01*
X108203952Y-111050966D01*
X108183176Y-111019167D01*
X108172250Y-111003311D01*
X108145681Y-110963195D01*
X108124299Y-110924718D01*
X108106737Y-110884417D01*
X108091627Y-110838832D01*
X108077600Y-110784499D01*
X108067410Y-110738055D01*
X108058396Y-110693394D01*
X108052401Y-110658741D01*
X108049013Y-110629755D01*
X108047822Y-110602092D01*
X108048419Y-110571410D01*
X108049526Y-110548628D01*
X108054284Y-110498484D01*
X108062992Y-110441039D01*
X108074668Y-110380997D01*
X108088334Y-110323063D01*
X108103008Y-110271939D01*
X108113148Y-110243253D01*
X108121314Y-110221806D01*
X108126642Y-110206410D01*
X108127824Y-110201730D01*
X108121042Y-110200365D01*
X108102932Y-110200394D01*
X108076851Y-110201767D01*
X108064853Y-110202687D01*
X108028044Y-110204741D01*
X108003447Y-110203025D01*
X107988799Y-110196640D01*
X107981839Y-110184687D01*
X107980278Y-110169031D01*
X107987132Y-110144213D01*
X108005854Y-110119431D01*
X108033681Y-110096645D01*
X108067853Y-110077820D01*
X108105610Y-110064917D01*
X108133084Y-110060426D01*
X108178063Y-110062560D01*
X108224359Y-110074671D01*
X108265304Y-110094851D01*
X108273526Y-110100631D01*
X108290950Y-110115651D01*
X108296262Y-110127550D01*
X108290189Y-110140481D01*
X108282105Y-110149699D01*
X108263477Y-110174274D01*
X108247008Y-110207147D01*
X108231652Y-110250701D01*
X108220944Y-110289056D01*
X108197622Y-110401190D01*
X108187349Y-110507387D01*
X108190208Y-110608747D01*
X108206281Y-110706372D01*
X108235652Y-110801363D01*
X108264144Y-110866832D01*
X108310143Y-110944664D01*
X108368834Y-111016249D01*
X108439218Y-111080837D01*
X108520294Y-111137675D01*
X108611062Y-111186015D01*
X108710521Y-111225105D01*
X108762271Y-111240695D01*
X108792134Y-111248101D01*
X108820154Y-111253039D01*
X108850633Y-111255941D01*
X108887871Y-111257242D01*
X108928260Y-111257411D01*
X108997045Y-111255146D01*
X109057385Y-111248158D01*
X109115140Y-111235329D01*
X109176174Y-111215539D01*
X109204908Y-111204603D01*
X109243871Y-111187512D01*
X109283459Y-111167109D01*
X109321400Y-111144913D01*
X109355420Y-111122443D01*
X109383247Y-111101218D01*
X109402610Y-111082757D01*
X109411235Y-111068580D01*
X109411472Y-111066507D01*
X109404994Y-111059797D01*
X109388168Y-111051343D01*
X109369053Y-111044431D01*
X109318718Y-111025172D01*
X109260050Y-110996649D01*
X109194981Y-110960193D01*
X109125445Y-110917136D01*
X109053377Y-110868811D01*
X108980708Y-110816548D01*
X108909373Y-110761680D01*
X108841305Y-110705539D01*
X108778438Y-110649456D01*
X108735998Y-110608368D01*
X108664323Y-110532443D01*
X108605448Y-110461801D01*
X108558832Y-110395423D01*
X108523938Y-110332285D01*
X108500225Y-110271366D01*
X108498811Y-110264905D01*
X108651351Y-110264905D01*
X108651612Y-110264961D01*
X108659427Y-110267464D01*
X108678931Y-110274036D01*
X108707871Y-110283907D01*
X108743997Y-110296311D01*
X108784403Y-110310253D01*
X108829430Y-110325723D01*
X108873342Y-110340630D01*
X108912760Y-110353839D01*
X108944303Y-110364215D01*
X108961458Y-110369672D01*
X108989126Y-110378205D01*
X109025425Y-110389412D01*
X109064893Y-110401607D01*
X109090560Y-110409543D01*
X109129604Y-110420998D01*
X109179049Y-110434569D01*
X109234886Y-110449222D01*
X109293100Y-110463924D01*
X109349679Y-110477643D01*
X109400406Y-110489301D01*
X109437266Y-110493062D01*
X109484084Y-110490887D01*
X109537411Y-110482999D01*
X109555329Y-110479296D01*
X109584352Y-110472287D01*
X109623215Y-110462003D01*
X109670226Y-110448961D01*
X109723694Y-110433679D01*
X109781927Y-110416674D01*
X109843235Y-110398465D01*
X109905927Y-110379568D01*
X109968310Y-110360502D01*
X110028693Y-110341784D01*
X110085386Y-110323932D01*
X110136696Y-110307463D01*
X110180934Y-110292895D01*
X110216406Y-110280746D01*
X110241422Y-110271533D01*
X110254291Y-110265774D01*
X110255266Y-110265076D01*
X110253005Y-110260117D01*
X110237936Y-110253987D01*
X110211934Y-110247004D01*
X110176870Y-110239483D01*
X110134616Y-110231740D01*
X110087047Y-110224089D01*
X110036033Y-110216848D01*
X109983448Y-110210331D01*
X109931165Y-110204854D01*
X109881055Y-110200734D01*
X109868864Y-110199939D01*
X109777041Y-110194590D01*
X109696596Y-110190606D01*
X109624222Y-110187938D01*
X109556610Y-110186533D01*
X109490451Y-110186343D01*
X109422439Y-110187316D01*
X109349264Y-110189401D01*
X109299392Y-110191250D01*
X109204595Y-110195145D01*
X109123035Y-110198836D01*
X109053198Y-110202443D01*
X108993571Y-110206084D01*
X108942638Y-110209881D01*
X108898887Y-110213951D01*
X108860802Y-110218416D01*
X108826871Y-110223395D01*
X108795579Y-110229007D01*
X108779073Y-110232379D01*
X108733979Y-110242226D01*
X108697124Y-110250795D01*
X108670043Y-110257692D01*
X108654274Y-110262527D01*
X108651351Y-110264905D01*
X108498811Y-110264905D01*
X108487155Y-110211644D01*
X108484187Y-110152097D01*
X108485252Y-110133287D01*
X108490852Y-110089567D01*
X108500992Y-110035848D01*
X108514802Y-109975856D01*
X108531413Y-109913318D01*
X108549958Y-109851964D01*
X108552961Y-109842765D01*
X108561386Y-109815925D01*
X108567145Y-109794980D01*
X108569314Y-109783399D01*
X108569096Y-109782235D01*
X108561049Y-109782685D01*
X108544318Y-109787266D01*
X108536981Y-109789756D01*
X108497596Y-109798141D01*
X108446451Y-109799730D01*
X108384898Y-109794495D01*
X108374963Y-109793136D01*
X108336386Y-109784381D01*
X108300363Y-109768665D01*
X108264297Y-109744340D01*
X108225589Y-109709757D01*
X108197050Y-109680206D01*
X108147505Y-109615962D01*
X108107560Y-109540749D01*
X108077434Y-109454984D01*
X108075197Y-109446704D01*
X108067704Y-109414945D01*
X108062818Y-109384424D01*
X108060082Y-109350561D01*
X108059040Y-109308773D01*
X108059007Y-109284403D01*
X108060932Y-109237460D01*
X108152460Y-109237460D01*
X108157652Y-109260672D01*
X108176310Y-109284479D01*
X108183345Y-109290959D01*
X108212550Y-109309805D01*
X108240588Y-109313955D01*
X108267591Y-109303408D01*
X108282180Y-109291213D01*
X108297558Y-109272494D01*
X108303963Y-109252868D01*
X108304879Y-109235531D01*
X108302604Y-109210890D01*
X108294012Y-109193601D01*
X108285359Y-109184458D01*
X108259161Y-109169246D01*
X108229456Y-109166068D01*
X108199959Y-109174090D01*
X108174385Y-109192480D01*
X108160045Y-109212521D01*
X108152460Y-109237460D01*
X108060932Y-109237460D01*
X108062018Y-109210964D01*
X108071221Y-109144253D01*
X108087721Y-109079685D01*
X108112624Y-109012676D01*
X108115206Y-109007007D01*
X108255654Y-109007007D01*
X108262216Y-109052603D01*
X108275495Y-109084557D01*
X108304516Y-109123555D01*
X108340762Y-109152799D01*
X108381703Y-109171564D01*
X108424807Y-109179128D01*
X108467543Y-109174765D01*
X108507380Y-109157752D01*
X108514552Y-109152930D01*
X108552175Y-109117563D01*
X108577192Y-109074552D01*
X108589649Y-109023811D01*
X108590591Y-109013429D01*
X108591737Y-108984207D01*
X108589424Y-108962788D01*
X108582306Y-108942371D01*
X108572697Y-108923042D01*
X108547966Y-108886613D01*
X108519709Y-108860335D01*
X108502570Y-108849192D01*
X108487155Y-108842541D01*
X108468695Y-108839242D01*
X108442419Y-108838152D01*
X108426695Y-108838078D01*
X108395493Y-108838516D01*
X108374278Y-108840613D01*
X108358292Y-108845545D01*
X108342775Y-108854486D01*
X108333270Y-108861139D01*
X108309945Y-108881720D01*
X108287473Y-108907538D01*
X108279059Y-108919612D01*
X108261299Y-108961218D01*
X108255654Y-109007007D01*
X108115206Y-109007007D01*
X108137873Y-108957244D01*
X108156332Y-108920205D01*
X108172025Y-108892419D01*
X108188055Y-108869601D01*
X108207524Y-108847467D01*
X108233534Y-108821732D01*
X108241404Y-108814251D01*
X108282318Y-108778198D01*
X108320127Y-108750060D01*
X108348674Y-108733508D01*
X108371094Y-108722219D01*
X108387069Y-108712905D01*
X108393036Y-108707722D01*
X108386586Y-108702943D01*
X108368927Y-108697340D01*
X108343531Y-108691569D01*
X108313870Y-108686289D01*
X108283416Y-108682159D01*
X108255640Y-108679834D01*
X108244405Y-108679554D01*
X108176180Y-108686813D01*
X108108363Y-108707465D01*
X108042647Y-108740206D01*
X107980730Y-108783730D01*
X107924306Y-108836732D01*
X107875070Y-108897907D01*
X107834718Y-108965950D01*
X107815374Y-109009796D01*
X107802719Y-109052170D01*
X107792752Y-109104573D01*
X107785730Y-109162970D01*
X107781908Y-109223326D01*
X107781544Y-109281607D01*
X107784895Y-109333777D01*
X107792115Y-109375418D01*
X107820877Y-109456842D01*
X107863430Y-109535032D01*
X107918923Y-109608579D01*
X107957469Y-109649302D01*
X107975999Y-109668122D01*
X107989419Y-109683203D01*
X107995006Y-109691472D01*
X107995033Y-109691721D01*
X107988580Y-109696381D01*
X107971825Y-109697348D01*
X107948679Y-109694900D01*
X107923051Y-109689316D01*
X107911485Y-109685764D01*
X107890122Y-109676277D01*
X107870292Y-109661725D01*
X107848231Y-109639069D01*
X107836142Y-109624902D01*
X107809161Y-109589470D01*
X107779013Y-109545067D01*
X107748483Y-109496225D01*
X107720358Y-109447472D01*
X107697426Y-109403337D01*
X107690197Y-109387686D01*
X107663590Y-109309831D01*
X107648559Y-109225493D01*
X107644989Y-109137186D01*
X107652765Y-109047425D01*
X107671773Y-108958728D01*
X107701896Y-108873609D01*
X107715025Y-108845166D01*
X107744277Y-108793679D01*
X107780964Y-108741220D01*
X107821734Y-108691981D01*
X107863236Y-108650156D01*
X107886266Y-108630987D01*
X107955666Y-108586554D01*
X108031506Y-108552612D01*
X108111223Y-108529691D01*
X108192252Y-108518319D01*
X108272030Y-108519025D01*
X108347993Y-108532340D01*
X108354810Y-108534249D01*
X108432141Y-108564197D01*
X108504668Y-108607347D01*
X108571234Y-108662605D01*
X108630683Y-108728877D01*
X108681860Y-108805068D01*
X108718903Y-108878917D01*
X108740452Y-108932906D01*
X108757768Y-108986121D01*
X108771312Y-109041190D01*
X108781547Y-109100741D01*
X108788935Y-109167399D01*
X108793939Y-109243792D01*
X108796740Y-109321290D01*
X108801064Y-109487279D01*
X108771002Y-109583184D01*
X108742562Y-109677635D01*
X108716072Y-109772893D01*
X108692195Y-109866202D01*
X108671598Y-109954807D01*
X108654944Y-110035954D01*
X108642898Y-110106888D01*
X108640527Y-110123895D01*
X108635383Y-110162952D01*
X108656408Y-110158301D01*
X108673138Y-110154173D01*
X108699264Y-110147257D01*
X108729997Y-110138829D01*
X108740139Y-110135988D01*
X108779684Y-110125231D01*
X108817033Y-110116056D01*
X108854000Y-110108254D01*
X108892403Y-110101616D01*
X108934056Y-110095934D01*
X108980775Y-110090998D01*
X109034376Y-110086598D01*
X109096675Y-110082527D01*
X109169488Y-110078574D01*
X109254630Y-110074531D01*
X109286058Y-110073128D01*
X109353128Y-110070434D01*
X109413385Y-110068702D01*
X109469547Y-110068009D01*
X109524331Y-110068428D01*
X109580456Y-110070036D01*
X109640637Y-110072908D01*
X109707594Y-110077119D01*
X109784043Y-110082743D01*
X109863784Y-110089124D01*
X109926121Y-110094456D01*
X109977008Y-110099423D01*
X110019723Y-110104505D01*
X110057544Y-110110184D01*
X110093751Y-110116940D01*
X110131624Y-110125255D01*
X110165471Y-110133389D01*
X110205113Y-110142962D01*
X110239472Y-110150882D01*
X110266122Y-110156620D01*
X110282640Y-110159649D01*
X110286897Y-110159855D01*
X110287074Y-110151007D01*
X110283828Y-110129783D01*
X110277616Y-110098045D01*
X110268895Y-110057652D01*
X110258122Y-110010465D01*
X110245752Y-109958345D01*
X110232244Y-109903150D01*
X110218053Y-109846742D01*
X110203636Y-109790982D01*
X110189450Y-109737728D01*
X110175952Y-109688842D01*
X110163599Y-109646185D01*
X110152846Y-109611615D01*
X110150753Y-109605315D01*
X110123380Y-109524165D01*
X110123952Y-109347110D01*
X110124688Y-109273491D01*
X110125879Y-109235352D01*
X110606082Y-109235352D01*
X110615263Y-109262647D01*
X110637387Y-109286476D01*
X110645794Y-109292148D01*
X110675533Y-109304722D01*
X110701483Y-109303323D01*
X110724840Y-109287862D01*
X110726412Y-109286248D01*
X110745426Y-109259973D01*
X110750371Y-109234731D01*
X110741586Y-109208385D01*
X110739383Y-109204654D01*
X110720318Y-109183936D01*
X110694132Y-109167566D01*
X110667285Y-109159334D01*
X110661592Y-109158990D01*
X110649150Y-109163907D01*
X110632812Y-109176149D01*
X110628157Y-109180554D01*
X110610246Y-109207138D01*
X110606082Y-109235352D01*
X110125879Y-109235352D01*
X110126617Y-109211703D01*
X110130102Y-109158847D01*
X110135507Y-109112023D01*
X110143194Y-109068331D01*
X110153526Y-109024872D01*
X110155788Y-109017052D01*
X110321867Y-109017052D01*
X110325691Y-109041531D01*
X110339420Y-109087263D01*
X110359628Y-109121598D01*
X110388519Y-109147261D01*
X110426670Y-109166346D01*
X110460032Y-109177177D01*
X110488554Y-109180027D01*
X110519457Y-109175178D01*
X110535932Y-109170598D01*
X110579005Y-109153228D01*
X110611426Y-109129010D01*
X110636772Y-109095010D01*
X110643667Y-109082194D01*
X110661548Y-109032851D01*
X110665031Y-108985319D01*
X110654277Y-108940535D01*
X110629448Y-108899436D01*
X110608268Y-108877299D01*
X110567735Y-108849977D01*
X110522919Y-108835627D01*
X110476400Y-108834159D01*
X110430759Y-108845484D01*
X110388575Y-108869514D01*
X110370307Y-108885540D01*
X110340129Y-108924894D01*
X110324004Y-108968655D01*
X110321867Y-109017052D01*
X110155788Y-109017052D01*
X110166866Y-108978745D01*
X110172183Y-108961842D01*
X110202908Y-108878329D01*
X110239056Y-108805391D01*
X110282958Y-108739173D01*
X110336947Y-108675822D01*
X110358790Y-108653482D01*
X110420927Y-108600055D01*
X110486191Y-108560514D01*
X110556076Y-108534295D01*
X110632073Y-108520835D01*
X110713563Y-108519462D01*
X110751331Y-108522364D01*
X110789336Y-108526987D01*
X110821388Y-108532520D01*
X110831600Y-108534924D01*
X110900618Y-108559672D01*
X110969244Y-108596173D01*
X111033149Y-108641960D01*
X111058357Y-108664132D01*
X111118353Y-108726272D01*
X111165952Y-108789488D01*
X111203299Y-108857380D01*
X111232534Y-108933548D01*
X111245556Y-108978828D01*
X111259059Y-109048614D01*
X111265275Y-109123357D01*
X111264449Y-109199582D01*
X111256824Y-109273812D01*
X111242645Y-109342571D01*
X111222156Y-109402385D01*
X111214678Y-109418336D01*
X111191366Y-109460176D01*
X111163065Y-109504594D01*
X111133566Y-109545917D01*
X111110476Y-109574265D01*
X111091469Y-109597791D01*
X111071651Y-109625533D01*
X111063567Y-109638053D01*
X111044642Y-109663118D01*
X111024292Y-109681086D01*
X111017713Y-109684788D01*
X110995568Y-109692840D01*
X110970984Y-109698729D01*
X110948512Y-109701744D01*
X110932698Y-109701174D01*
X110928270Y-109698770D01*
X110931142Y-109690853D01*
X110942403Y-109676294D01*
X110957849Y-109660023D01*
X111006049Y-109606691D01*
X111049674Y-109546251D01*
X111086469Y-109482489D01*
X111114180Y-109419189D01*
X111127365Y-109375493D01*
X111134820Y-109322695D01*
X111135490Y-109260724D01*
X111129941Y-109193200D01*
X111118739Y-109123743D01*
X111102450Y-109055973D01*
X111081641Y-108993510D01*
X111060220Y-108946147D01*
X111019201Y-108881149D01*
X110968853Y-108822107D01*
X110911469Y-108770880D01*
X110849340Y-108729325D01*
X110784759Y-108699301D01*
X110739506Y-108686180D01*
X110703966Y-108681808D01*
X110660067Y-108681101D01*
X110613660Y-108683750D01*
X110570594Y-108689446D01*
X110540197Y-108696704D01*
X110506999Y-108707413D01*
X110528268Y-108715762D01*
X110557162Y-108730312D01*
X110592123Y-108752744D01*
X110629181Y-108780126D01*
X110664367Y-108809527D01*
X110693470Y-108837757D01*
X110732049Y-108885483D01*
X110768777Y-108942396D01*
X110800363Y-109003000D01*
X110818017Y-109045682D01*
X110841492Y-109128255D01*
X110854027Y-109214359D01*
X110856001Y-109301846D01*
X110847790Y-109388568D01*
X110829775Y-109472378D01*
X110802332Y-109551126D01*
X110765841Y-109622664D01*
X110720679Y-109684845D01*
X110701929Y-109704969D01*
X110673757Y-109730810D01*
X110644098Y-109754227D01*
X110617917Y-109771375D01*
X110612353Y-109774303D01*
X110570696Y-109789816D01*
X110521423Y-109800693D01*
X110470320Y-109806164D01*
X110423172Y-109805458D01*
X110401855Y-109802335D01*
X110378993Y-109798114D01*
X110362736Y-109796189D01*
X110357499Y-109796621D01*
X110358568Y-109804414D01*
X110364499Y-109821248D01*
X110370388Y-109835243D01*
X110387030Y-109879717D01*
X110402641Y-109934422D01*
X110416249Y-109994832D01*
X110426879Y-110056422D01*
X110433558Y-110114667D01*
X110434854Y-110134900D01*
X110436027Y-110190256D01*
X110432909Y-110235849D01*
X110424290Y-110276038D01*
X110408959Y-110315181D01*
X110385705Y-110357638D01*
X110363173Y-110393015D01*
X110320171Y-110454613D01*
X110274746Y-110512369D01*
X110225123Y-110568052D01*
X110169525Y-110623429D01*
X110106175Y-110680268D01*
X110033299Y-110740338D01*
X109949120Y-110805405D01*
X109948009Y-110806242D01*
X109859050Y-110871281D01*
X109778054Y-110926183D01*
X109703307Y-110971952D01*
X109633097Y-111009591D01*
X109565714Y-111040105D01*
X109519006Y-111057870D01*
X109512349Y-111061654D01*
X109512728Y-111067918D01*
X109521412Y-111079299D01*
X109537450Y-111096169D01*
X109585458Y-111136475D01*
X109645048Y-111172515D01*
X109713450Y-111203459D01*
X109787896Y-111228475D01*
X109865617Y-111246735D01*
X109943846Y-111257409D01*
X110019814Y-111259665D01*
X110069890Y-111255827D01*
X110156504Y-111238996D01*
X110243676Y-111211189D01*
X110328806Y-111173838D01*
X110409293Y-111128379D01*
X110482535Y-111076244D01*
X110545932Y-111018868D01*
X110587508Y-110970558D01*
X110617113Y-110929877D01*
X110639968Y-110894153D01*
X110658654Y-110858491D01*
X110675752Y-110817995D01*
X110692757Y-110770927D01*
X110720699Y-110689777D01*
X110720820Y-110527476D01*
X110720718Y-110472257D01*
X110720179Y-110428933D01*
X110718988Y-110394646D01*
X110716933Y-110366538D01*
X110713801Y-110341752D01*
X110709378Y-110317430D01*
X110703450Y-110290713D01*
X110703019Y-110288872D01*
X110691750Y-110245282D01*
X110680827Y-110214294D01*
X110668940Y-110193849D01*
X110654778Y-110181887D01*
X110637029Y-110176350D01*
X110630945Y-110175645D01*
X110612666Y-110172236D01*
X110602154Y-110166760D01*
X110601506Y-110165618D01*
X110604529Y-110156132D01*
X110615010Y-110139998D01*
X110625090Y-110127350D01*
X110658258Y-110097659D01*
X110698827Y-110078289D01*
X110748345Y-110068715D01*
X110799536Y-110067926D01*
X110833306Y-110070164D01*
X110857017Y-110073912D01*
X110875364Y-110080311D01*
X110893036Y-110090500D01*
X110893391Y-110090734D01*
X110924098Y-110118015D01*
X110941201Y-110149887D01*
X110944523Y-110183032D01*
X110941604Y-110201279D01*
X110934268Y-110209538D01*
X110919378Y-110212483D01*
X110899543Y-110211095D01*
X110873408Y-110205125D01*
X110856671Y-110199577D01*
X110832663Y-110191236D01*
X110812879Y-110185737D01*
X110804450Y-110184436D01*
X110799391Y-110184429D01*
X110796315Y-110185803D01*
X110795686Y-110190645D01*
X110797965Y-110201042D01*
X110803614Y-110219082D01*
X110813097Y-110246853D01*
X110826874Y-110286441D01*
X110827317Y-110287715D01*
X110844074Y-110343807D01*
X110855469Y-110401858D01*
X110861867Y-110465131D01*
X110863635Y-110536891D01*
X110862136Y-110598388D01*
X110854651Y-110694410D01*
X110839848Y-110780092D01*
X110816750Y-110858418D01*
X110784382Y-110932368D01*
X110741766Y-111004927D01*
X110717642Y-111039781D01*
X110688366Y-111084136D01*
X110668264Y-111123189D01*
X110661171Y-111143063D01*
X110652218Y-111174446D01*
X110641843Y-111209680D01*
X110636211Y-111228319D01*
X110628079Y-111255967D01*
X110621192Y-111281295D01*
X110617960Y-111294714D01*
X110613253Y-111315223D01*
X110609402Y-111329857D01*
X110608311Y-111336834D01*
X110612664Y-111338553D01*
X110625385Y-111334854D01*
X110643315Y-111327977D01*
X110671322Y-111316291D01*
X110698975Y-111303754D01*
X110709426Y-111298632D01*
X110728186Y-111289843D01*
X110756394Y-111277564D01*
X110789743Y-111263638D01*
X110814188Y-111253759D01*
X110894588Y-111219670D01*
X110983640Y-111178214D01*
X111078281Y-111130993D01*
X111175447Y-111079610D01*
X111272077Y-111025667D01*
X111365107Y-110970768D01*
X111419693Y-110936916D01*
X111452619Y-110915473D01*
X111473428Y-110900363D01*
X111482944Y-110890829D01*
X111481989Y-110886114D01*
X111475885Y-110885275D01*
X111466230Y-110882330D01*
X111446070Y-110874290D01*
X111418249Y-110862342D01*
X111385610Y-110847677D01*
X111381824Y-110845938D01*
X111345247Y-110830201D01*
X111299051Y-110811975D01*
X111247763Y-110792957D01*
X111195912Y-110774843D01*
X111163578Y-110764205D01*
X111108024Y-110746381D01*
X111064930Y-110732142D01*
X111032683Y-110720646D01*
X111009668Y-110711050D01*
X110994272Y-110702513D01*
X110984880Y-110694192D01*
X110979879Y-110685244D01*
X110977653Y-110674828D01*
X110976926Y-110666798D01*
X110976414Y-110647295D01*
X110980453Y-110637652D01*
X110991695Y-110633097D01*
X110996193Y-110632144D01*
X111015249Y-110631215D01*
X111045337Y-110633090D01*
X111083101Y-110637304D01*
X111125182Y-110643397D01*
X111168225Y-110650906D01*
X111208873Y-110659369D01*
X111228516Y-110664139D01*
X111257673Y-110672501D01*
X111295877Y-110684633D01*
X111338414Y-110698984D01*
X111380568Y-110714002D01*
X111385304Y-110715748D01*
X111420878Y-110728841D01*
X111451253Y-110739874D01*
X111473882Y-110747934D01*
X111486218Y-110752107D01*
X111487685Y-110752484D01*
X111495441Y-110755357D01*
X111512911Y-110762922D01*
X111536454Y-110773599D01*
X111538654Y-110774616D01*
X111563729Y-110785609D01*
X111584300Y-110793520D01*
X111596081Y-110796706D01*
X111596342Y-110796712D01*
X111605884Y-110791508D01*
X111623545Y-110777126D01*
X111647578Y-110755357D01*
X111676234Y-110727991D01*
X111707766Y-110696819D01*
X111740423Y-110663631D01*
X111772460Y-110630218D01*
X111802126Y-110598371D01*
X111827674Y-110569881D01*
X111847356Y-110546538D01*
X111859423Y-110530133D01*
X111862292Y-110524317D01*
X111856789Y-110516574D01*
X111837595Y-110506588D01*
X111805551Y-110494667D01*
X111761501Y-110481119D01*
X111706285Y-110466254D01*
X111698431Y-110464266D01*
X111662613Y-110455541D01*
X111628192Y-110447870D01*
X111593529Y-110441052D01*
X111556983Y-110434887D01*
X111516914Y-110429175D01*
X111471683Y-110423713D01*
X111419649Y-110418303D01*
X111359173Y-110412742D01*
X111288614Y-110406831D01*
X111206333Y-110400368D01*
X111127813Y-110394430D01*
X111087210Y-110389713D01*
X111059443Y-110382037D01*
X111042728Y-110370436D01*
X111035281Y-110353946D01*
X111034475Y-110343948D01*
X111036903Y-110329289D01*
X111045719Y-110318777D01*
X111063224Y-110311244D01*
X111091718Y-110305526D01*
X111116659Y-110302295D01*
X111188305Y-110296727D01*
X111269961Y-110294915D01*
X111357414Y-110296698D01*
X111446448Y-110301913D01*
X111532849Y-110310398D01*
X111607819Y-110321196D01*
X111641052Y-110327417D01*
X111682176Y-110335919D01*
X111728057Y-110345968D01*
X111775561Y-110356831D01*
X111821551Y-110367775D01*
X111862894Y-110378067D01*
X111896454Y-110386974D01*
X111919096Y-110393763D01*
X111921062Y-110394447D01*
X111933621Y-110398670D01*
X111943524Y-110399825D01*
X111952930Y-110396304D01*
X111963992Y-110386498D01*
X111978869Y-110368800D01*
X111999716Y-110341602D01*
X112009765Y-110328290D01*
X112025330Y-110305862D01*
X112043069Y-110277501D01*
X112061262Y-110246334D01*
X112078186Y-110215486D01*
X112092118Y-110188084D01*
X112101337Y-110167256D01*
X112104182Y-110156884D01*
X112097109Y-110149644D01*
X112077027Y-110141645D01*
X112045643Y-110133209D01*
X112004663Y-110124659D01*
X111955792Y-110116318D01*
X111900737Y-110108510D01*
X111841204Y-110101556D01*
X111783270Y-110096137D01*
X111727086Y-110091467D01*
X111683775Y-110087678D01*
X111651500Y-110084511D01*
X111628423Y-110081705D01*
X111612705Y-110079002D01*
X111602511Y-110076142D01*
X111596002Y-110072865D01*
X111591471Y-110069041D01*
X111585291Y-110054100D01*
X111591996Y-110036966D01*
X111610515Y-110020234D01*
X111612008Y-110019281D01*
X111629331Y-110012481D01*
X111658502Y-110005414D01*
X111696631Y-109998482D01*
X111740828Y-109992087D01*
X111788200Y-109986633D01*
X111835858Y-109982521D01*
X111880911Y-109980153D01*
X111895595Y-109979810D01*
X111910138Y-109978870D01*
X111922502Y-109975243D01*
X111935544Y-109967010D01*
X111952121Y-109952250D01*
X111975087Y-109929042D01*
X111982405Y-109921442D01*
X112033352Y-109862858D01*
X112085213Y-109793129D01*
X112136066Y-109715590D01*
X112183989Y-109633575D01*
X112227063Y-109550420D01*
X112263366Y-109469459D01*
X112290978Y-109394027D01*
X112296241Y-109376620D01*
X112306072Y-109343186D01*
X112314928Y-109314357D01*
X112321756Y-109293480D01*
X112325222Y-109284403D01*
X112331242Y-109268789D01*
X112335455Y-109253974D01*
X112336925Y-109244166D01*
X112334021Y-109236921D01*
X112324165Y-109230305D01*
X112304778Y-109222385D01*
X112282990Y-109214620D01*
X112224387Y-109191571D01*
X112157690Y-109160993D01*
X112086295Y-109124613D01*
X112013595Y-109084160D01*
X111945570Y-109042993D01*
X111904619Y-109016256D01*
X111862340Y-108987140D01*
X111820626Y-108957106D01*
X111781366Y-108927615D01*
X111746455Y-108900126D01*
X111717781Y-108876101D01*
X111697239Y-108856999D01*
X111686718Y-108844280D01*
X111685969Y-108842588D01*
X111676978Y-108817637D01*
X111665644Y-108792465D01*
X111650636Y-108764791D01*
X111630625Y-108732336D01*
X111604283Y-108692823D01*
X111570280Y-108643971D01*
X111569329Y-108642622D01*
X111533665Y-108592661D01*
X111494120Y-108538271D01*
X111452238Y-108481495D01*
X111409562Y-108424372D01*
X111367635Y-108368942D01*
X111341241Y-108334514D01*
X111507158Y-108334514D01*
X111544729Y-108377711D01*
X111574477Y-108412936D01*
X111608654Y-108455055D01*
X111644696Y-108500757D01*
X111680039Y-108546730D01*
X111712120Y-108589661D01*
X111738376Y-108626239D01*
X111747934Y-108640232D01*
X111765081Y-108665878D01*
X111777071Y-108680595D01*
X111786847Y-108684195D01*
X111797351Y-108676487D01*
X111811526Y-108657284D01*
X111826351Y-108635202D01*
X111875344Y-108558757D01*
X111913660Y-108490629D01*
X111941920Y-108429646D01*
X111955681Y-108391752D01*
X111980683Y-108305176D01*
X111997271Y-108228201D01*
X112005753Y-108158527D01*
X112006436Y-108093854D01*
X112001936Y-108046670D01*
X111991830Y-107988517D01*
X111977801Y-107926008D01*
X111961386Y-107865306D01*
X111944122Y-107812579D01*
X111942479Y-107808169D01*
X111916292Y-107752224D01*
X111884034Y-107705397D01*
X111847120Y-107668994D01*
X111806964Y-107644322D01*
X111764982Y-107632688D01*
X111751623Y-107631932D01*
X111728526Y-107636445D01*
X111700638Y-107650544D01*
X111666963Y-107674917D01*
X111626508Y-107710254D01*
X111595471Y-107740053D01*
X111517688Y-107816853D01*
X111547197Y-107811055D01*
X111592967Y-107805715D01*
X111645713Y-107805270D01*
X111699138Y-107809403D01*
X111746943Y-107817794D01*
X111761949Y-107821916D01*
X111794386Y-107833585D01*
X111818058Y-107846757D01*
X111838826Y-107864911D01*
X111844485Y-107870889D01*
X111865756Y-107898392D01*
X111878039Y-107927001D01*
X111882552Y-107961047D01*
X111880924Y-108000480D01*
X111869353Y-108056395D01*
X111844766Y-108107454D01*
X111806910Y-108154804D01*
X111774499Y-108184252D01*
X111732686Y-108216351D01*
X111685628Y-108248393D01*
X111637482Y-108277669D01*
X111592405Y-108301470D01*
X111561524Y-108314686D01*
X111507158Y-108334514D01*
X111341241Y-108334514D01*
X111328003Y-108317246D01*
X111292208Y-108271324D01*
X111261794Y-108233216D01*
X111238306Y-108204963D01*
X111237155Y-108203631D01*
X111207630Y-108169078D01*
X111186679Y-108142503D01*
X111172984Y-108120938D01*
X111172357Y-108119361D01*
X111305157Y-108119361D01*
X111346876Y-108161496D01*
X111368308Y-108183760D01*
X111386825Y-108204094D01*
X111398915Y-108218623D01*
X111400074Y-108220230D01*
X111408261Y-108230283D01*
X111417358Y-108235043D01*
X111430321Y-108234217D01*
X111450104Y-108227516D01*
X111479662Y-108214648D01*
X111485991Y-108211772D01*
X111535662Y-108186780D01*
X111586415Y-108157134D01*
X111633496Y-108125828D01*
X111672150Y-108095854D01*
X111677281Y-108091341D01*
X111699499Y-108068659D01*
X111720361Y-108042721D01*
X111737330Y-108017209D01*
X111747870Y-107995802D01*
X111750072Y-107985700D01*
X111743154Y-107969164D01*
X111723605Y-107955804D01*
X111693235Y-107945761D01*
X111653851Y-107939178D01*
X111607263Y-107936197D01*
X111555280Y-107936958D01*
X111499709Y-107941604D01*
X111442360Y-107950277D01*
X111403340Y-107958530D01*
X111333256Y-107975188D01*
X111319206Y-108047274D01*
X111305157Y-108119361D01*
X111172357Y-108119361D01*
X111165225Y-108101413D01*
X111162084Y-108080959D01*
X111162243Y-108056608D01*
X111163460Y-108037700D01*
X111178265Y-107884828D01*
X111182733Y-107855239D01*
X111348610Y-107855239D01*
X111349766Y-107866897D01*
X111351417Y-107867964D01*
X111357197Y-107862177D01*
X111369128Y-107846485D01*
X111385380Y-107823394D01*
X111401285Y-107799724D01*
X111431296Y-107757055D01*
X111466207Y-107712053D01*
X111503533Y-107667554D01*
X111540784Y-107626394D01*
X111575473Y-107591411D01*
X111605114Y-107565440D01*
X111609984Y-107561748D01*
X111646483Y-107537912D01*
X111680632Y-107523314D01*
X111718241Y-107516086D01*
X111757450Y-107514340D01*
X111805815Y-107517821D01*
X111847755Y-107529532D01*
X111885703Y-107550917D01*
X111922096Y-107583418D01*
X111959370Y-107628479D01*
X111966474Y-107638192D01*
X112003929Y-107695624D01*
X112033601Y-107754142D01*
X112056568Y-107816850D01*
X112073907Y-107886851D01*
X112086695Y-107967247D01*
X112089753Y-107993378D01*
X112094619Y-108093053D01*
X112088545Y-108196134D01*
X112072162Y-108298947D01*
X112046103Y-108397821D01*
X112011003Y-108489082D01*
X112000524Y-108511008D01*
X111983527Y-108543354D01*
X111962381Y-108581100D01*
X111938927Y-108621211D01*
X111915007Y-108660652D01*
X111892465Y-108696390D01*
X111873141Y-108725391D01*
X111858878Y-108744618D01*
X111858245Y-108745370D01*
X111836675Y-108770699D01*
X111887434Y-108817008D01*
X111910061Y-108837231D01*
X111928629Y-108853043D01*
X111940468Y-108862209D01*
X111943088Y-108863608D01*
X111949760Y-108858471D01*
X111963188Y-108844558D01*
X111980828Y-108824549D01*
X111986535Y-108817790D01*
X112044332Y-108741453D01*
X112098971Y-108655453D01*
X112148574Y-108563519D01*
X112191262Y-108469377D01*
X112225157Y-108376756D01*
X112244997Y-108304881D01*
X112257887Y-108235118D01*
X112267159Y-108156345D01*
X112272650Y-108072978D01*
X112274199Y-107989430D01*
X112271641Y-107910115D01*
X112264816Y-107839446D01*
X112262658Y-107825079D01*
X112242944Y-107734895D01*
X112213889Y-107646355D01*
X112176591Y-107560983D01*
X112132148Y-107480303D01*
X112081658Y-107405837D01*
X112026220Y-107339108D01*
X111966930Y-107281640D01*
X111904888Y-107234956D01*
X111841191Y-107200579D01*
X111802219Y-107186370D01*
X111749842Y-107175754D01*
X111702887Y-107177437D01*
X111658914Y-107192032D01*
X111615483Y-107220151D01*
X111594113Y-107238630D01*
X111559056Y-107275642D01*
X111527536Y-107319029D01*
X111497820Y-107371517D01*
X111468174Y-107435833D01*
X111467067Y-107438450D01*
X111452433Y-107475538D01*
X111437024Y-107518830D01*
X111421362Y-107566381D01*
X111405971Y-107616247D01*
X111391373Y-107666485D01*
X111378093Y-107715153D01*
X111366653Y-107760305D01*
X111357577Y-107799999D01*
X111351389Y-107832292D01*
X111348610Y-107855239D01*
X111182733Y-107855239D01*
X111199473Y-107744390D01*
X111227314Y-107615422D01*
X111262015Y-107496958D01*
X111303802Y-107388033D01*
X111329832Y-107331956D01*
X111345616Y-107299556D01*
X111358434Y-107272255D01*
X111367141Y-107252568D01*
X111370594Y-107243011D01*
X111370543Y-107242526D01*
X111363604Y-107245055D01*
X111345782Y-107253533D01*
X111319180Y-107266904D01*
X111285902Y-107284113D01*
X111251117Y-107302469D01*
X111212494Y-107322753D01*
X111163783Y-107347898D01*
X111108155Y-107376293D01*
X111048782Y-107406325D01*
X110988835Y-107436384D01*
X110934882Y-107463180D01*
X110884897Y-107487883D01*
X110839310Y-107510436D01*
X110799768Y-107530024D01*
X110767917Y-107545828D01*
X110745403Y-107557034D01*
X110733873Y-107562825D01*
X110732725Y-107563429D01*
X110735968Y-107568481D01*
X110747756Y-107578605D01*
X110751168Y-107581191D01*
X110770104Y-107597231D01*
X110795812Y-107621695D01*
X110825565Y-107651720D01*
X110856634Y-107684440D01*
X110886293Y-107716992D01*
X110911814Y-107746510D01*
X110928412Y-107767338D01*
X110948346Y-107796965D01*
X110958541Y-107820212D01*
X110960703Y-107835578D01*
X110959837Y-107852331D01*
X110957716Y-107860445D01*
X110957361Y-107860587D01*
X110948386Y-107858305D01*
X110933001Y-107851049D01*
X110910180Y-107838202D01*
X110878896Y-107819146D01*
X110838126Y-107793265D01*
X110786843Y-107759942D01*
X110752525Y-107737389D01*
X110668997Y-107682723D01*
X110595111Y-107635276D01*
X110528550Y-107593623D01*
X110466995Y-107556339D01*
X110408131Y-107522001D01*
X110349639Y-107489184D01*
X110341010Y-107484445D01*
X110273019Y-107447102D01*
X110215515Y-107415288D01*
X110165970Y-107387579D01*
X110121855Y-107362554D01*
X110080642Y-107338791D01*
X110045919Y-107318472D01*
X109985771Y-107283107D01*
X109936317Y-107254173D01*
X109895574Y-107230555D01*
X109861555Y-107211142D01*
X109832275Y-107194821D01*
X109805748Y-107180477D01*
X109779990Y-107166999D01*
X109753014Y-107153274D01*
X109736073Y-107144784D01*
X109672461Y-107114783D01*
X109599715Y-107083451D01*
X109520977Y-107051925D01*
X109439392Y-107021342D01*
X109358101Y-106992839D01*
X109280250Y-106967553D01*
X109208979Y-106946621D01*
X109147434Y-106931181D01*
X109142790Y-106930166D01*
X109111770Y-106923364D01*
X109085235Y-106917333D01*
X109067224Y-106913000D01*
X109062895Y-106911827D01*
X109053802Y-106911116D01*
X109050937Y-106917294D01*
X109054648Y-106931856D01*
X109065284Y-106956298D01*
X109080243Y-106986379D01*
X109113084Y-107046814D01*
X109146346Y-107099462D01*
X109182902Y-107148086D01*
X109225627Y-107196449D01*
X109277395Y-107248316D01*
X109287877Y-107258298D01*
X109318604Y-107287879D01*
X109344806Y-107314079D01*
X109364891Y-107335222D01*
X109377262Y-107349632D01*
X109380406Y-107355571D01*
X109371674Y-107356771D01*
X109350922Y-107356770D01*
X109320826Y-107355648D01*
X109284066Y-107353488D01*
X109263820Y-107352027D01*
X109209146Y-107348824D01*
X109156187Y-107347525D01*
X109107482Y-107348046D01*
X109065570Y-107350304D01*
X109032989Y-107354214D01*
X109012279Y-107359693D01*
X109010872Y-107360368D01*
X109002882Y-107367135D01*
X109000425Y-107379032D01*
X109002582Y-107400598D01*
X109002653Y-107401074D01*
X109007728Y-107434911D01*
X108975371Y-107429757D01*
X108951462Y-107423304D01*
X108922115Y-107411762D01*
X108898564Y-107400195D01*
X108874503Y-107387424D01*
X108857953Y-107380955D01*
X108843588Y-107379808D01*
X108826084Y-107383006D01*
X108817181Y-107385239D01*
X108779482Y-107397209D01*
X108731658Y-107416483D01*
X108673219Y-107443288D01*
X108603677Y-107477852D01*
X108522540Y-107520402D01*
X108498671Y-107533241D01*
X108450505Y-107559290D01*
X108411892Y-107580311D01*
X108380074Y-107597944D01*
X108352292Y-107613833D01*
X108325784Y-107629617D01*
X108297792Y-107646940D01*
X108265556Y-107667443D01*
X108226315Y-107692767D01*
X108180076Y-107722760D01*
X108113902Y-107764923D01*
X108058780Y-107798360D01*
X108014848Y-107822994D01*
X107982249Y-107838748D01*
X107961122Y-107845543D01*
X107957611Y-107845832D01*
X107945820Y-107840936D01*
X107944792Y-107826669D01*
X107954447Y-107803671D01*
X107965140Y-107786235D01*
X107980402Y-107766221D01*
X108003849Y-107738899D01*
X108032868Y-107707011D01*
X108064846Y-107673303D01*
X108097170Y-107640518D01*
X108127226Y-107611402D01*
X108152400Y-107588697D01*
X108156593Y-107585190D01*
X108174326Y-107569907D01*
X108181618Y-107560969D01*
X108179894Y-107555950D01*
X108175036Y-107553782D01*
X108161396Y-107548128D01*
X108136455Y-107536744D01*
X108102086Y-107520547D01*
X108060159Y-107500457D01*
X108012545Y-107477393D01*
X107961114Y-107452275D01*
X107907738Y-107426021D01*
X107854288Y-107399550D01*
X107802635Y-107373781D01*
X107754649Y-107349634D01*
X107712201Y-107328028D01*
X107677163Y-107309881D01*
X107659751Y-107300648D01*
X107623406Y-107281267D01*
X107591883Y-107264764D01*
X107567335Y-107252241D01*
X107551912Y-107244799D01*
X107547599Y-107243233D01*
X107549910Y-107250166D01*
X107557609Y-107267545D01*
X107569445Y-107292637D01*
X107582135Y-107318620D01*
X107627681Y-107422172D01*
X107667656Y-107536708D01*
X107701325Y-107659270D01*
X107727955Y-107786903D01*
X107746811Y-107916652D01*
X107755644Y-108017323D01*
X107757622Y-108050822D01*
X107758111Y-108076860D01*
X107755966Y-108098134D01*
X107750039Y-108117343D01*
X107739184Y-108137185D01*
X107722255Y-108160357D01*
X107698105Y-108189558D01*
X107667066Y-108225763D01*
X107581921Y-108327654D01*
X107497877Y-108433481D01*
X107418562Y-108538579D01*
X107357867Y-108623430D01*
X107322463Y-108674707D01*
X107294894Y-108715590D01*
X107274314Y-108747614D01*
X107259878Y-108772316D01*
X107250738Y-108791232D01*
X107246049Y-108805897D01*
X107244964Y-108817848D01*
X107246088Y-108826325D01*
X107247229Y-108836834D01*
X107243882Y-108845953D01*
X107233830Y-108856215D01*
X107214854Y-108870152D01*
X107197452Y-108881872D01*
X107165744Y-108903816D01*
X107129485Y-108930206D01*
X107095477Y-108956067D01*
X107088849Y-108961290D01*
X106967868Y-109048114D01*
X106837215Y-109124130D01*
X106697774Y-109188834D01*
X106663067Y-109202637D01*
X106630802Y-109215349D01*
X106603614Y-109226584D01*
X106584473Y-109235082D01*
X106576465Y-109239450D01*
X106575946Y-109248670D01*
X106406381Y-109248670D01*
X106403726Y-109226106D01*
X106403564Y-109223763D01*
X106404608Y-109180123D01*
X106415062Y-109146333D01*
X106436285Y-109119877D01*
X106469639Y-109098241D01*
X106472105Y-109097017D01*
X106494244Y-109086696D01*
X106511211Y-109079734D01*
X106517978Y-109077839D01*
X106528817Y-109074895D01*
X106545664Y-109067790D01*
X106546107Y-109067578D01*
X106592325Y-109046677D01*
X106627142Y-109033758D01*
X106639779Y-109030358D01*
X106655542Y-109025137D01*
X106680209Y-109015080D01*
X106709503Y-109001974D01*
X106722773Y-108995693D01*
X106755851Y-108978637D01*
X106776093Y-108965366D01*
X106784678Y-108955062D01*
X106785158Y-108952375D01*
X106781239Y-108940981D01*
X106770655Y-108920658D01*
X106755163Y-108894591D01*
X106741817Y-108873844D01*
X106701454Y-108810504D01*
X106663864Y-108745788D01*
X106627088Y-108676062D01*
X106589162Y-108597691D01*
X106568401Y-108552460D01*
X106552828Y-108513525D01*
X106536488Y-108465125D01*
X106520877Y-108412376D01*
X106507491Y-108360392D01*
X106497827Y-108314288D01*
X106496583Y-108306913D01*
X106491448Y-108274946D01*
X106485480Y-108237749D01*
X106481194Y-108211008D01*
X106477631Y-108178744D01*
X106475120Y-108135485D01*
X106473665Y-108084955D01*
X106473264Y-108030878D01*
X106473269Y-108030434D01*
X106645621Y-108030434D01*
X106651579Y-108151150D01*
X106668861Y-108270437D01*
X106697548Y-108386027D01*
X106704128Y-108406874D01*
X106721952Y-108455729D01*
X106745308Y-108511460D01*
X106772135Y-108569742D01*
X106800370Y-108626247D01*
X106827953Y-108676649D01*
X106849133Y-108711142D01*
X106864563Y-108733471D01*
X106883937Y-108760067D01*
X106905309Y-108788438D01*
X106926735Y-108816093D01*
X106946272Y-108840541D01*
X106961976Y-108859289D01*
X106971902Y-108869847D01*
X106974086Y-108871275D01*
X106980389Y-108866777D01*
X106994502Y-108855029D01*
X107011840Y-108839922D01*
X107034624Y-108820294D01*
X107056642Y-108802248D01*
X107069142Y-108792647D01*
X107091079Y-108776726D01*
X107060125Y-108740016D01*
X106999352Y-108658401D01*
X106945675Y-108567196D01*
X106900445Y-108469627D01*
X106865015Y-108368920D01*
X106840738Y-108268301D01*
X106830430Y-108192152D01*
X106828006Y-108137145D01*
X106828108Y-108128633D01*
X106912369Y-108128633D01*
X106913171Y-108160264D01*
X106927235Y-108273479D01*
X106954605Y-108380956D01*
X106995051Y-108482132D01*
X107048342Y-108576439D01*
X107114249Y-108663312D01*
X107120902Y-108670871D01*
X107142710Y-108695346D01*
X107159725Y-108674496D01*
X107171016Y-108659012D01*
X107187115Y-108634862D01*
X107205359Y-108606101D01*
X107214646Y-108590938D01*
X107241505Y-108548255D01*
X107270094Y-108506685D01*
X107302904Y-108462828D01*
X107342422Y-108413282D01*
X107362431Y-108388979D01*
X107381213Y-108365825D01*
X107395735Y-108346955D01*
X107403854Y-108335197D01*
X107404850Y-108332944D01*
X107398440Y-108328220D01*
X107381916Y-108321194D01*
X107366119Y-108315749D01*
X107305163Y-108290623D01*
X107242384Y-108254187D01*
X107181482Y-108208813D01*
X107139355Y-108170433D01*
X107097985Y-108126620D01*
X107067955Y-108088213D01*
X107047996Y-108052954D01*
X107036842Y-108018584D01*
X107034191Y-107992386D01*
X107170526Y-107992386D01*
X107176420Y-108008988D01*
X107196012Y-108042048D01*
X107227710Y-108077549D01*
X107269441Y-108113843D01*
X107319135Y-108149280D01*
X107374722Y-108182209D01*
X107424849Y-108206903D01*
X107453568Y-108219473D01*
X107477480Y-108229401D01*
X107493228Y-108235324D01*
X107497251Y-108236382D01*
X107505296Y-108231627D01*
X107521050Y-108218434D01*
X107541999Y-108199005D01*
X107558909Y-108182369D01*
X107613005Y-108127909D01*
X107607857Y-108095686D01*
X107601327Y-108057208D01*
X107595128Y-108030371D01*
X107587638Y-108012193D01*
X107577235Y-107999690D01*
X107562298Y-107989880D01*
X107546027Y-107981982D01*
X107482662Y-107958151D01*
X107418997Y-107945654D01*
X107349848Y-107943545D01*
X107338454Y-107944078D01*
X107284235Y-107948524D01*
X107238532Y-107955154D01*
X107203352Y-107963587D01*
X107180704Y-107973440D01*
X107179350Y-107974383D01*
X107171175Y-107982354D01*
X107170526Y-107992386D01*
X107034191Y-107992386D01*
X107033225Y-107982843D01*
X107033219Y-107981226D01*
X107039592Y-107934526D01*
X107058626Y-107895265D01*
X107090193Y-107863521D01*
X107134167Y-107839371D01*
X107190420Y-107822896D01*
X107258826Y-107814172D01*
X107306245Y-107812691D01*
X107395761Y-107812635D01*
X107366911Y-107778177D01*
X107343637Y-107752628D01*
X107314871Y-107724333D01*
X107283904Y-107696207D01*
X107254027Y-107671159D01*
X107228533Y-107652104D01*
X107215251Y-107643989D01*
X107179043Y-107633261D01*
X107139277Y-107634771D01*
X107113021Y-107642660D01*
X107081583Y-107662113D01*
X107048959Y-107693530D01*
X107016919Y-107734418D01*
X106987234Y-107782284D01*
X106961675Y-107834638D01*
X106945081Y-107879030D01*
X106934933Y-107918649D01*
X106926044Y-107968212D01*
X106918958Y-108022926D01*
X106914218Y-108077997D01*
X106912369Y-108128633D01*
X106828108Y-108128633D01*
X106828767Y-108073418D01*
X106832395Y-108006582D01*
X106838568Y-107942249D01*
X106846966Y-107886029D01*
X106848297Y-107879146D01*
X106867912Y-107803420D01*
X106894944Y-107732656D01*
X106928243Y-107668668D01*
X106966661Y-107613268D01*
X107009050Y-107568269D01*
X107054259Y-107535484D01*
X107071576Y-107526766D01*
X107117981Y-107513419D01*
X107169055Y-107510775D01*
X107219414Y-107518738D01*
X107249927Y-107529893D01*
X107296504Y-107556330D01*
X107342565Y-107591919D01*
X107389118Y-107637723D01*
X107437171Y-107694807D01*
X107487729Y-107764233D01*
X107524681Y-107820012D01*
X107544092Y-107849328D01*
X107560683Y-107872595D01*
X107572924Y-107887798D01*
X107579284Y-107892923D01*
X107579752Y-107892473D01*
X107579014Y-107882355D01*
X107574827Y-107860402D01*
X107567800Y-107828964D01*
X107558545Y-107790392D01*
X107547673Y-107747034D01*
X107535793Y-107701241D01*
X107523518Y-107655363D01*
X107511456Y-107611749D01*
X107500221Y-107572750D01*
X107490421Y-107540716D01*
X107482668Y-107517996D01*
X107481930Y-107516072D01*
X107443715Y-107425634D01*
X107405117Y-107349646D01*
X107365668Y-107287804D01*
X107324900Y-107239805D01*
X107282346Y-107205346D01*
X107237536Y-107184121D01*
X107190003Y-107175828D01*
X107139278Y-107180163D01*
X107084894Y-107196821D01*
X107030564Y-107223140D01*
X106977714Y-107258790D01*
X106923802Y-107306355D01*
X106870918Y-107363331D01*
X106821151Y-107427220D01*
X106776592Y-107495520D01*
X106739330Y-107565730D01*
X106733427Y-107578676D01*
X106694890Y-107682410D01*
X106667357Y-107793794D01*
X106650907Y-107910559D01*
X106645621Y-108030434D01*
X106473269Y-108030434D01*
X106473920Y-107976975D01*
X106475633Y-107926971D01*
X106478405Y-107884588D01*
X106481098Y-107860587D01*
X106487667Y-107820345D01*
X106495951Y-107777049D01*
X106505290Y-107733427D01*
X106515027Y-107692204D01*
X106524502Y-107656109D01*
X106533057Y-107627868D01*
X106540034Y-107610208D01*
X106542483Y-107606440D01*
X106548234Y-107593503D01*
X106549085Y-107586052D01*
X106552540Y-107567887D01*
X106555873Y-107559862D01*
X106561951Y-107547756D01*
X106572535Y-107526077D01*
X106585798Y-107498582D01*
X106592615Y-107484345D01*
X106624141Y-107421162D01*
X106654184Y-107367880D01*
X106685590Y-107320297D01*
X106721203Y-107274209D01*
X106763869Y-107225413D01*
X106778877Y-107209181D01*
X106834361Y-107153459D01*
X106887335Y-107108618D01*
X106941361Y-107072091D01*
X107000001Y-107041314D01*
X107030453Y-107027988D01*
X107051710Y-107019181D01*
X107067339Y-107012713D01*
X107103851Y-106999925D01*
X107143854Y-106990876D01*
X107190503Y-106985107D01*
X107246954Y-106982157D01*
X107281325Y-106981585D01*
X107331685Y-106983323D01*
X107378504Y-106988896D01*
X107418351Y-106997693D01*
X107447794Y-107009105D01*
X107452802Y-107012081D01*
X107463887Y-107017038D01*
X107483362Y-107023966D01*
X107493378Y-107027171D01*
X107511131Y-107033905D01*
X107539018Y-107045981D01*
X107574032Y-107062029D01*
X107613165Y-107080681D01*
X107640923Y-107094317D01*
X107686017Y-107116662D01*
X107733635Y-107140102D01*
X107779234Y-107162410D01*
X107818270Y-107181360D01*
X107832733Y-107188317D01*
X107867464Y-107205133D01*
X107900889Y-107221629D01*
X107928656Y-107235640D01*
X107943392Y-107243346D01*
X107966242Y-107255138D01*
X107999555Y-107271623D01*
X108040360Y-107291391D01*
X108085685Y-107313033D01*
X108132559Y-107335141D01*
X108178011Y-107356306D01*
X108219069Y-107375120D01*
X108252763Y-107390174D01*
X108256927Y-107391990D01*
X108281317Y-107402814D01*
X108304067Y-107413267D01*
X108307857Y-107415066D01*
X108334883Y-107423892D01*
X108359935Y-107421878D01*
X108386600Y-107408261D01*
X108404472Y-107394535D01*
X108421860Y-107382301D01*
X108452472Y-107363629D01*
X108496269Y-107338542D01*
X108522509Y-107323927D01*
X108535832Y-107317211D01*
X108558473Y-107306424D01*
X108586287Y-107293531D01*
X108596282Y-107288973D01*
X108624589Y-107275996D01*
X108648835Y-107264653D01*
X108665035Y-107256817D01*
X108668110Y-107255225D01*
X108685996Y-107249188D01*
X108694300Y-107248272D01*
X108709532Y-107244837D01*
X108714687Y-107241542D01*
X108726877Y-107234660D01*
X108749235Y-107225823D01*
X108777540Y-107216331D01*
X108807568Y-107207481D01*
X108835096Y-107200574D01*
X108855903Y-107196908D01*
X108860681Y-107196631D01*
X108880640Y-107194677D01*
X108905602Y-107189668D01*
X108930885Y-107182890D01*
X108951805Y-107175626D01*
X108963679Y-107169158D01*
X108964494Y-107168178D01*
X108962629Y-107159410D01*
X108954084Y-107142596D01*
X108943005Y-107124880D01*
X108919087Y-107081427D01*
X108898288Y-107028686D01*
X108882267Y-106972052D01*
X108872680Y-106916919D01*
X108870766Y-106889795D01*
X108871337Y-106849992D01*
X108876390Y-106819958D01*
X108887389Y-106795023D01*
X108905799Y-106770513D01*
X108909465Y-106766392D01*
X108927870Y-106748492D01*
X108947126Y-106736364D01*
X108970396Y-106729171D01*
X109000842Y-106726078D01*
X109041627Y-106726247D01*
G37*
D14*
X132900000Y-113120000D03*
X132900000Y-111850000D03*
X132900000Y-110580000D03*
X132900000Y-109310000D03*
X132900000Y-108040000D03*
X132900000Y-106770000D03*
X132900000Y-105500000D03*
X132900000Y-104230000D03*
X132900000Y-102960000D03*
X132900000Y-101690000D03*
X132900000Y-100420000D03*
X132900000Y-99150000D03*
X132900000Y-97880000D03*
X132900000Y-96610000D03*
D15*
X131135000Y-95360000D03*
X129865000Y-95360000D03*
X128595000Y-95360000D03*
X127325000Y-95360000D03*
X126055000Y-95360000D03*
X124785000Y-95360000D03*
X123515000Y-95360000D03*
X122245000Y-95360000D03*
X120975000Y-95360000D03*
X119705000Y-95360000D03*
X118435000Y-95360000D03*
X117165000Y-95360000D03*
D14*
X115400000Y-96610000D03*
X115400000Y-97880000D03*
X115400000Y-99150000D03*
X115400000Y-100420000D03*
X115400000Y-101690000D03*
X115400000Y-102960000D03*
X115400000Y-104230000D03*
X115400000Y-105500000D03*
X115400000Y-106770000D03*
X115400000Y-108040000D03*
X115400000Y-109310000D03*
X115400000Y-110580000D03*
X115400000Y-111850000D03*
X115400000Y-113120000D03*
D16*
X127050000Y-106800000D03*
X127050000Y-105400000D03*
X127050000Y-104000000D03*
X127050000Y-104000000D03*
X125650000Y-106800000D03*
X125650000Y-106800000D03*
X125650000Y-105400000D03*
X125650000Y-104000000D03*
X124250000Y-106800000D03*
X124250000Y-105400000D03*
X124250000Y-104000000D03*
D17*
X114950000Y-86150000D03*
X117250000Y-86150000D03*
D18*
X117250000Y-79850000D03*
D17*
X119550000Y-86150000D03*
D19*
X127750000Y-92750000D03*
X127750000Y-90750000D03*
D20*
X119287500Y-89750000D03*
X117212500Y-89750000D03*
D21*
X129000000Y-75250000D03*
X130400000Y-75250000D03*
D22*
X122750000Y-83287500D03*
X122750000Y-81212500D03*
D23*
X140250000Y-117250000D03*
D24*
X127140000Y-70605000D03*
X121360000Y-70605000D03*
D25*
X127450000Y-71680000D03*
X126650000Y-71680000D03*
D26*
X125500000Y-71680000D03*
X124500000Y-71680000D03*
X124000000Y-71680000D03*
X123000000Y-71680000D03*
D25*
X121850000Y-71680000D03*
X121050000Y-71680000D03*
X121050000Y-71680000D03*
X121850000Y-71680000D03*
D26*
X122500000Y-71680000D03*
X123500000Y-71680000D03*
X125000000Y-71680000D03*
X126000000Y-71680000D03*
D25*
X126650000Y-71680000D03*
X127450000Y-71680000D03*
D27*
X128570000Y-71105000D03*
D28*
X128570000Y-66925000D03*
D27*
X119930000Y-71105000D03*
D28*
X119930000Y-66925000D03*
D29*
X114500000Y-92250000D03*
X112500000Y-92250000D03*
D19*
X131700000Y-69500000D03*
X131700000Y-67500000D03*
D30*
X139150000Y-97625000D03*
X139150000Y-96375000D03*
X139150000Y-95125000D03*
X139150000Y-93875000D03*
X139150000Y-92625000D03*
X139150000Y-91375000D03*
D31*
X142350000Y-99475000D03*
X142350000Y-89525000D03*
D30*
X139150000Y-110375000D03*
X139150000Y-109125000D03*
X139150000Y-107875000D03*
X139150000Y-106625000D03*
X139150000Y-105375000D03*
X139150000Y-104125000D03*
D31*
X142350000Y-112225000D03*
X142350000Y-102275000D03*
D19*
X116750000Y-69500000D03*
X116750000Y-67500000D03*
D23*
X108250000Y-68250000D03*
D32*
X123450000Y-74500000D03*
X122050000Y-74500000D03*
D23*
X108250000Y-117250000D03*
D21*
X125000000Y-74500000D03*
X126400000Y-74500000D03*
D19*
X131250000Y-92750000D03*
X131250000Y-90750000D03*
D33*
X117225000Y-92250000D03*
X119275000Y-92250000D03*
D34*
X136250000Y-84000000D03*
X136250000Y-82000000D03*
X136250000Y-80000000D03*
D35*
X142000000Y-86350000D03*
X142000000Y-77650000D03*
D23*
X140250000Y-68250000D03*
D36*
X128000000Y-85200000D03*
X128000000Y-79800000D03*
%LPD*%
M02*
