M48
; DRILL file {KiCad 9.0.2} date 2025-05-28T22:13:47-0500
; FORMAT={-:-/ absolute / metric / decimal}
; #@! TF.CreationDate,2025-05-28T22:13:47-05:00
; #@! TF.GenerationSoftware,Kicad,Pcbnew,9.0.2
; #@! TF.FileFunction,Plated,1,2,PTH
FMAT,2
METRIC
; #@! TA.AperFunction,Plated,PTH,ViaDrill
T1C0.300
; #@! TA.AperFunction,Plated,PTH,ViaDrill
T2C0.500
; #@! TA.AperFunction,Plated,PTH,ComponentDrill
T3C0.600
%
G90
G05
T1
X113.0Y-88.25
X120.75Y-75.0
X122.125Y-84.375
X124.0Y-75.5
X125.5Y-75.55
X127.7Y-75.0
X129.401Y-90.75
X134.5Y-96.25
X134.75Y-97.5
X134.75Y-101.25
X134.76Y-99.51
X135.0Y-113.0
X135.25Y-111.0
X136.0Y-114.25
T2
X122.75Y-73.25
X126.0Y-73.25
T3
X119.93Y-67.325G85X119.93Y-66.525
G05
X119.93Y-71.655G85X119.93Y-70.555
G05
X128.57Y-67.325G85X128.57Y-66.525
G05
X128.57Y-71.655G85X128.57Y-70.555
G05
M30
