G04 #@! TF.GenerationSoftware,KiCad,Pcbnew,8.0.8*
G04 #@! TF.CreationDate,2025-01-22T20:31:02-06:00*
G04 #@! TF.ProjectId,mainboard,6d61696e-626f-4617-9264-2e6b69636164,rev?*
G04 #@! TF.SameCoordinates,Original*
G04 #@! TF.FileFunction,Legend,Bot*
G04 #@! TF.FilePolarity,Positive*
%FSLAX46Y46*%
G04 Gerber Fmt 4.6, Leading zero omitted, Abs format (unit mm)*
G04 Created by KiCad (PCBNEW 8.0.8) date 2025-01-22 20:31:02*
%MOMM*%
%LPD*%
G01*
G04 APERTURE LIST*
G04 Aperture macros list*
%AMRoundRect*
0 Rectangle with rounded corners*
0 $1 Rounding radius*
0 $2 $3 $4 $5 $6 $7 $8 $9 X,Y pos of 4 corners*
0 Add a 4 corners polygon primitive as box body*
4,1,4,$2,$3,$4,$5,$6,$7,$8,$9,$2,$3,0*
0 Add four circle primitives for the rounded corners*
1,1,$1+$1,$2,$3*
1,1,$1+$1,$4,$5*
1,1,$1+$1,$6,$7*
1,1,$1+$1,$8,$9*
0 Add four rect primitives between the rounded corners*
20,1,$1+$1,$2,$3,$4,$5,0*
20,1,$1+$1,$4,$5,$6,$7,0*
20,1,$1+$1,$6,$7,$8,$9,0*
20,1,$1+$1,$8,$9,$2,$3,0*%
G04 Aperture macros list end*
%ADD10C,0.150000*%
%ADD11C,0.120000*%
%ADD12C,2.200000*%
%ADD13O,1.000000X1.800000*%
%ADD14O,1.000000X2.100000*%
%ADD15C,0.650000*%
%ADD16RoundRect,0.250000X0.450000X-0.350000X0.450000X0.350000X-0.450000X0.350000X-0.450000X-0.350000X0*%
%ADD17RoundRect,0.250000X0.350000X0.450000X-0.350000X0.450000X-0.350000X-0.450000X0.350000X-0.450000X0*%
%ADD18RoundRect,0.250000X0.475000X-0.337500X0.475000X0.337500X-0.475000X0.337500X-0.475000X-0.337500X0*%
%ADD19RoundRect,0.250000X-0.450000X0.350000X-0.450000X-0.350000X0.450000X-0.350000X0.450000X0.350000X0*%
G04 APERTURE END LIST*
D10*
X122916666Y-101454819D02*
X123249999Y-100978628D01*
X123488094Y-101454819D02*
X123488094Y-100454819D01*
X123488094Y-100454819D02*
X123107142Y-100454819D01*
X123107142Y-100454819D02*
X123011904Y-100502438D01*
X123011904Y-100502438D02*
X122964285Y-100550057D01*
X122964285Y-100550057D02*
X122916666Y-100645295D01*
X122916666Y-100645295D02*
X122916666Y-100788152D01*
X122916666Y-100788152D02*
X122964285Y-100883390D01*
X122964285Y-100883390D02*
X123011904Y-100931009D01*
X123011904Y-100931009D02*
X123107142Y-100978628D01*
X123107142Y-100978628D02*
X123488094Y-100978628D01*
X122011904Y-100454819D02*
X122488094Y-100454819D01*
X122488094Y-100454819D02*
X122535713Y-100931009D01*
X122535713Y-100931009D02*
X122488094Y-100883390D01*
X122488094Y-100883390D02*
X122392856Y-100835771D01*
X122392856Y-100835771D02*
X122154761Y-100835771D01*
X122154761Y-100835771D02*
X122059523Y-100883390D01*
X122059523Y-100883390D02*
X122011904Y-100931009D01*
X122011904Y-100931009D02*
X121964285Y-101026247D01*
X121964285Y-101026247D02*
X121964285Y-101264342D01*
X121964285Y-101264342D02*
X122011904Y-101359580D01*
X122011904Y-101359580D02*
X122059523Y-101407200D01*
X122059523Y-101407200D02*
X122154761Y-101454819D01*
X122154761Y-101454819D02*
X122392856Y-101454819D01*
X122392856Y-101454819D02*
X122488094Y-101407200D01*
X122488094Y-101407200D02*
X122535713Y-101359580D01*
X133166666Y-104204819D02*
X133499999Y-103728628D01*
X133738094Y-104204819D02*
X133738094Y-103204819D01*
X133738094Y-103204819D02*
X133357142Y-103204819D01*
X133357142Y-103204819D02*
X133261904Y-103252438D01*
X133261904Y-103252438D02*
X133214285Y-103300057D01*
X133214285Y-103300057D02*
X133166666Y-103395295D01*
X133166666Y-103395295D02*
X133166666Y-103538152D01*
X133166666Y-103538152D02*
X133214285Y-103633390D01*
X133214285Y-103633390D02*
X133261904Y-103681009D01*
X133261904Y-103681009D02*
X133357142Y-103728628D01*
X133357142Y-103728628D02*
X133738094Y-103728628D01*
X132595237Y-103633390D02*
X132690475Y-103585771D01*
X132690475Y-103585771D02*
X132738094Y-103538152D01*
X132738094Y-103538152D02*
X132785713Y-103442914D01*
X132785713Y-103442914D02*
X132785713Y-103395295D01*
X132785713Y-103395295D02*
X132738094Y-103300057D01*
X132738094Y-103300057D02*
X132690475Y-103252438D01*
X132690475Y-103252438D02*
X132595237Y-103204819D01*
X132595237Y-103204819D02*
X132404761Y-103204819D01*
X132404761Y-103204819D02*
X132309523Y-103252438D01*
X132309523Y-103252438D02*
X132261904Y-103300057D01*
X132261904Y-103300057D02*
X132214285Y-103395295D01*
X132214285Y-103395295D02*
X132214285Y-103442914D01*
X132214285Y-103442914D02*
X132261904Y-103538152D01*
X132261904Y-103538152D02*
X132309523Y-103585771D01*
X132309523Y-103585771D02*
X132404761Y-103633390D01*
X132404761Y-103633390D02*
X132595237Y-103633390D01*
X132595237Y-103633390D02*
X132690475Y-103681009D01*
X132690475Y-103681009D02*
X132738094Y-103728628D01*
X132738094Y-103728628D02*
X132785713Y-103823866D01*
X132785713Y-103823866D02*
X132785713Y-104014342D01*
X132785713Y-104014342D02*
X132738094Y-104109580D01*
X132738094Y-104109580D02*
X132690475Y-104157200D01*
X132690475Y-104157200D02*
X132595237Y-104204819D01*
X132595237Y-104204819D02*
X132404761Y-104204819D01*
X132404761Y-104204819D02*
X132309523Y-104157200D01*
X132309523Y-104157200D02*
X132261904Y-104109580D01*
X132261904Y-104109580D02*
X132214285Y-104014342D01*
X132214285Y-104014342D02*
X132214285Y-103823866D01*
X132214285Y-103823866D02*
X132261904Y-103728628D01*
X132261904Y-103728628D02*
X132309523Y-103681009D01*
X132309523Y-103681009D02*
X132404761Y-103633390D01*
X125166666Y-101454819D02*
X125499999Y-100978628D01*
X125738094Y-101454819D02*
X125738094Y-100454819D01*
X125738094Y-100454819D02*
X125357142Y-100454819D01*
X125357142Y-100454819D02*
X125261904Y-100502438D01*
X125261904Y-100502438D02*
X125214285Y-100550057D01*
X125214285Y-100550057D02*
X125166666Y-100645295D01*
X125166666Y-100645295D02*
X125166666Y-100788152D01*
X125166666Y-100788152D02*
X125214285Y-100883390D01*
X125214285Y-100883390D02*
X125261904Y-100931009D01*
X125261904Y-100931009D02*
X125357142Y-100978628D01*
X125357142Y-100978628D02*
X125738094Y-100978628D01*
X124833332Y-100454819D02*
X124166666Y-100454819D01*
X124166666Y-100454819D02*
X124595237Y-101454819D01*
X131666666Y-112647080D02*
X131714285Y-112694700D01*
X131714285Y-112694700D02*
X131857142Y-112742319D01*
X131857142Y-112742319D02*
X131952380Y-112742319D01*
X131952380Y-112742319D02*
X132095237Y-112694700D01*
X132095237Y-112694700D02*
X132190475Y-112599461D01*
X132190475Y-112599461D02*
X132238094Y-112504223D01*
X132238094Y-112504223D02*
X132285713Y-112313747D01*
X132285713Y-112313747D02*
X132285713Y-112170890D01*
X132285713Y-112170890D02*
X132238094Y-111980414D01*
X132238094Y-111980414D02*
X132190475Y-111885176D01*
X132190475Y-111885176D02*
X132095237Y-111789938D01*
X132095237Y-111789938D02*
X131952380Y-111742319D01*
X131952380Y-111742319D02*
X131857142Y-111742319D01*
X131857142Y-111742319D02*
X131714285Y-111789938D01*
X131714285Y-111789938D02*
X131666666Y-111837557D01*
X131285713Y-111837557D02*
X131238094Y-111789938D01*
X131238094Y-111789938D02*
X131142856Y-111742319D01*
X131142856Y-111742319D02*
X130904761Y-111742319D01*
X130904761Y-111742319D02*
X130809523Y-111789938D01*
X130809523Y-111789938D02*
X130761904Y-111837557D01*
X130761904Y-111837557D02*
X130714285Y-111932795D01*
X130714285Y-111932795D02*
X130714285Y-112028033D01*
X130714285Y-112028033D02*
X130761904Y-112170890D01*
X130761904Y-112170890D02*
X131333332Y-112742319D01*
X131333332Y-112742319D02*
X130714285Y-112742319D01*
X133166666Y-108704819D02*
X133499999Y-108228628D01*
X133738094Y-108704819D02*
X133738094Y-107704819D01*
X133738094Y-107704819D02*
X133357142Y-107704819D01*
X133357142Y-107704819D02*
X133261904Y-107752438D01*
X133261904Y-107752438D02*
X133214285Y-107800057D01*
X133214285Y-107800057D02*
X133166666Y-107895295D01*
X133166666Y-107895295D02*
X133166666Y-108038152D01*
X133166666Y-108038152D02*
X133214285Y-108133390D01*
X133214285Y-108133390D02*
X133261904Y-108181009D01*
X133261904Y-108181009D02*
X133357142Y-108228628D01*
X133357142Y-108228628D02*
X133738094Y-108228628D01*
X132309523Y-108038152D02*
X132309523Y-108704819D01*
X132547618Y-107657200D02*
X132785713Y-108371485D01*
X132785713Y-108371485D02*
X132166666Y-108371485D01*
X126666666Y-110097080D02*
X126714285Y-110144700D01*
X126714285Y-110144700D02*
X126857142Y-110192319D01*
X126857142Y-110192319D02*
X126952380Y-110192319D01*
X126952380Y-110192319D02*
X127095237Y-110144700D01*
X127095237Y-110144700D02*
X127190475Y-110049461D01*
X127190475Y-110049461D02*
X127238094Y-109954223D01*
X127238094Y-109954223D02*
X127285713Y-109763747D01*
X127285713Y-109763747D02*
X127285713Y-109620890D01*
X127285713Y-109620890D02*
X127238094Y-109430414D01*
X127238094Y-109430414D02*
X127190475Y-109335176D01*
X127190475Y-109335176D02*
X127095237Y-109239938D01*
X127095237Y-109239938D02*
X126952380Y-109192319D01*
X126952380Y-109192319D02*
X126857142Y-109192319D01*
X126857142Y-109192319D02*
X126714285Y-109239938D01*
X126714285Y-109239938D02*
X126666666Y-109287557D01*
X126333332Y-109192319D02*
X125714285Y-109192319D01*
X125714285Y-109192319D02*
X126047618Y-109573271D01*
X126047618Y-109573271D02*
X125904761Y-109573271D01*
X125904761Y-109573271D02*
X125809523Y-109620890D01*
X125809523Y-109620890D02*
X125761904Y-109668509D01*
X125761904Y-109668509D02*
X125714285Y-109763747D01*
X125714285Y-109763747D02*
X125714285Y-110001842D01*
X125714285Y-110001842D02*
X125761904Y-110097080D01*
X125761904Y-110097080D02*
X125809523Y-110144700D01*
X125809523Y-110144700D02*
X125904761Y-110192319D01*
X125904761Y-110192319D02*
X126190475Y-110192319D01*
X126190475Y-110192319D02*
X126285713Y-110144700D01*
X126285713Y-110144700D02*
X126333332Y-110097080D01*
X132642857Y-98454819D02*
X132976190Y-97978628D01*
X133214285Y-98454819D02*
X133214285Y-97454819D01*
X133214285Y-97454819D02*
X132833333Y-97454819D01*
X132833333Y-97454819D02*
X132738095Y-97502438D01*
X132738095Y-97502438D02*
X132690476Y-97550057D01*
X132690476Y-97550057D02*
X132642857Y-97645295D01*
X132642857Y-97645295D02*
X132642857Y-97788152D01*
X132642857Y-97788152D02*
X132690476Y-97883390D01*
X132690476Y-97883390D02*
X132738095Y-97931009D01*
X132738095Y-97931009D02*
X132833333Y-97978628D01*
X132833333Y-97978628D02*
X133214285Y-97978628D01*
X131690476Y-98454819D02*
X132261904Y-98454819D01*
X131976190Y-98454819D02*
X131976190Y-97454819D01*
X131976190Y-97454819D02*
X132071428Y-97597676D01*
X132071428Y-97597676D02*
X132166666Y-97692914D01*
X132166666Y-97692914D02*
X132261904Y-97740533D01*
X130738095Y-98454819D02*
X131309523Y-98454819D01*
X131023809Y-98454819D02*
X131023809Y-97454819D01*
X131023809Y-97454819D02*
X131119047Y-97597676D01*
X131119047Y-97597676D02*
X131214285Y-97692914D01*
X131214285Y-97692914D02*
X131309523Y-97740533D01*
X134142857Y-101954819D02*
X134476190Y-101478628D01*
X134714285Y-101954819D02*
X134714285Y-100954819D01*
X134714285Y-100954819D02*
X134333333Y-100954819D01*
X134333333Y-100954819D02*
X134238095Y-101002438D01*
X134238095Y-101002438D02*
X134190476Y-101050057D01*
X134190476Y-101050057D02*
X134142857Y-101145295D01*
X134142857Y-101145295D02*
X134142857Y-101288152D01*
X134142857Y-101288152D02*
X134190476Y-101383390D01*
X134190476Y-101383390D02*
X134238095Y-101431009D01*
X134238095Y-101431009D02*
X134333333Y-101478628D01*
X134333333Y-101478628D02*
X134714285Y-101478628D01*
X133190476Y-101954819D02*
X133761904Y-101954819D01*
X133476190Y-101954819D02*
X133476190Y-100954819D01*
X133476190Y-100954819D02*
X133571428Y-101097676D01*
X133571428Y-101097676D02*
X133666666Y-101192914D01*
X133666666Y-101192914D02*
X133761904Y-101240533D01*
X132571428Y-100954819D02*
X132476190Y-100954819D01*
X132476190Y-100954819D02*
X132380952Y-101002438D01*
X132380952Y-101002438D02*
X132333333Y-101050057D01*
X132333333Y-101050057D02*
X132285714Y-101145295D01*
X132285714Y-101145295D02*
X132238095Y-101335771D01*
X132238095Y-101335771D02*
X132238095Y-101573866D01*
X132238095Y-101573866D02*
X132285714Y-101764342D01*
X132285714Y-101764342D02*
X132333333Y-101859580D01*
X132333333Y-101859580D02*
X132380952Y-101907200D01*
X132380952Y-101907200D02*
X132476190Y-101954819D01*
X132476190Y-101954819D02*
X132571428Y-101954819D01*
X132571428Y-101954819D02*
X132666666Y-101907200D01*
X132666666Y-101907200D02*
X132714285Y-101859580D01*
X132714285Y-101859580D02*
X132761904Y-101764342D01*
X132761904Y-101764342D02*
X132809523Y-101573866D01*
X132809523Y-101573866D02*
X132809523Y-101335771D01*
X132809523Y-101335771D02*
X132761904Y-101145295D01*
X132761904Y-101145295D02*
X132714285Y-101050057D01*
X132714285Y-101050057D02*
X132666666Y-101002438D01*
X132666666Y-101002438D02*
X132571428Y-100954819D01*
X127892857Y-95954819D02*
X128226190Y-95478628D01*
X128464285Y-95954819D02*
X128464285Y-94954819D01*
X128464285Y-94954819D02*
X128083333Y-94954819D01*
X128083333Y-94954819D02*
X127988095Y-95002438D01*
X127988095Y-95002438D02*
X127940476Y-95050057D01*
X127940476Y-95050057D02*
X127892857Y-95145295D01*
X127892857Y-95145295D02*
X127892857Y-95288152D01*
X127892857Y-95288152D02*
X127940476Y-95383390D01*
X127940476Y-95383390D02*
X127988095Y-95431009D01*
X127988095Y-95431009D02*
X128083333Y-95478628D01*
X128083333Y-95478628D02*
X128464285Y-95478628D01*
X126940476Y-95954819D02*
X127511904Y-95954819D01*
X127226190Y-95954819D02*
X127226190Y-94954819D01*
X127226190Y-94954819D02*
X127321428Y-95097676D01*
X127321428Y-95097676D02*
X127416666Y-95192914D01*
X127416666Y-95192914D02*
X127511904Y-95240533D01*
X126559523Y-95050057D02*
X126511904Y-95002438D01*
X126511904Y-95002438D02*
X126416666Y-94954819D01*
X126416666Y-94954819D02*
X126178571Y-94954819D01*
X126178571Y-94954819D02*
X126083333Y-95002438D01*
X126083333Y-95002438D02*
X126035714Y-95050057D01*
X126035714Y-95050057D02*
X125988095Y-95145295D01*
X125988095Y-95145295D02*
X125988095Y-95240533D01*
X125988095Y-95240533D02*
X126035714Y-95383390D01*
X126035714Y-95383390D02*
X126607142Y-95954819D01*
X126607142Y-95954819D02*
X125988095Y-95954819D01*
X133166666Y-106454819D02*
X133499999Y-105978628D01*
X133738094Y-106454819D02*
X133738094Y-105454819D01*
X133738094Y-105454819D02*
X133357142Y-105454819D01*
X133357142Y-105454819D02*
X133261904Y-105502438D01*
X133261904Y-105502438D02*
X133214285Y-105550057D01*
X133214285Y-105550057D02*
X133166666Y-105645295D01*
X133166666Y-105645295D02*
X133166666Y-105788152D01*
X133166666Y-105788152D02*
X133214285Y-105883390D01*
X133214285Y-105883390D02*
X133261904Y-105931009D01*
X133261904Y-105931009D02*
X133357142Y-105978628D01*
X133357142Y-105978628D02*
X133738094Y-105978628D01*
X132309523Y-105454819D02*
X132499999Y-105454819D01*
X132499999Y-105454819D02*
X132595237Y-105502438D01*
X132595237Y-105502438D02*
X132642856Y-105550057D01*
X132642856Y-105550057D02*
X132738094Y-105692914D01*
X132738094Y-105692914D02*
X132785713Y-105883390D01*
X132785713Y-105883390D02*
X132785713Y-106264342D01*
X132785713Y-106264342D02*
X132738094Y-106359580D01*
X132738094Y-106359580D02*
X132690475Y-106407200D01*
X132690475Y-106407200D02*
X132595237Y-106454819D01*
X132595237Y-106454819D02*
X132404761Y-106454819D01*
X132404761Y-106454819D02*
X132309523Y-106407200D01*
X132309523Y-106407200D02*
X132261904Y-106359580D01*
X132261904Y-106359580D02*
X132214285Y-106264342D01*
X132214285Y-106264342D02*
X132214285Y-106026247D01*
X132214285Y-106026247D02*
X132261904Y-105931009D01*
X132261904Y-105931009D02*
X132309523Y-105883390D01*
X132309523Y-105883390D02*
X132404761Y-105835771D01*
X132404761Y-105835771D02*
X132595237Y-105835771D01*
X132595237Y-105835771D02*
X132690475Y-105883390D01*
X132690475Y-105883390D02*
X132738094Y-105931009D01*
X132738094Y-105931009D02*
X132785713Y-106026247D01*
D11*
X122015000Y-98022936D02*
X122015000Y-98477064D01*
X123485000Y-98022936D02*
X123485000Y-98477064D01*
X129772936Y-103015000D02*
X130227064Y-103015000D01*
X129772936Y-104485000D02*
X130227064Y-104485000D01*
X124265000Y-98022936D02*
X124265000Y-98477064D01*
X125735000Y-98022936D02*
X125735000Y-98477064D01*
X128765000Y-112026248D02*
X128765000Y-112548752D01*
X130235000Y-112026248D02*
X130235000Y-112548752D01*
X129772936Y-107515000D02*
X130227064Y-107515000D01*
X129772936Y-108985000D02*
X130227064Y-108985000D01*
X125765000Y-112026248D02*
X125765000Y-112548752D01*
X127235000Y-112026248D02*
X127235000Y-112548752D01*
X128765000Y-98477064D02*
X128765000Y-98022936D01*
X130235000Y-98477064D02*
X130235000Y-98022936D01*
X129772936Y-100765000D02*
X130227064Y-100765000D01*
X129772936Y-102235000D02*
X130227064Y-102235000D01*
X126515000Y-98477064D02*
X126515000Y-98022936D01*
X127985000Y-98477064D02*
X127985000Y-98022936D01*
X129772936Y-105265000D02*
X130227064Y-105265000D01*
X129772936Y-106735000D02*
X130227064Y-106735000D01*
%LPC*%
D12*
X140250000Y-117250000D03*
D13*
X119930000Y-66925000D03*
D14*
X119930000Y-71105000D03*
D13*
X128570000Y-66925000D03*
D14*
X128570000Y-71105000D03*
D15*
X121360000Y-70605000D03*
X127140000Y-70605000D03*
D12*
X108250000Y-68250000D03*
X108250000Y-117250000D03*
X140250000Y-68250000D03*
D16*
X122750000Y-99250000D03*
X122750000Y-97250000D03*
D17*
X131000000Y-103750000D03*
X129000000Y-103750000D03*
D16*
X125000000Y-99250000D03*
X125000000Y-97250000D03*
D18*
X129500000Y-113325000D03*
X129500000Y-111250000D03*
D17*
X131000000Y-108250000D03*
X129000000Y-108250000D03*
D18*
X126500000Y-113325000D03*
X126500000Y-111250000D03*
D19*
X129500000Y-97250000D03*
X129500000Y-99250000D03*
D17*
X131000000Y-101500000D03*
X129000000Y-101500000D03*
D19*
X127250000Y-97250000D03*
X127250000Y-99250000D03*
D17*
X131000000Y-106000000D03*
X129000000Y-106000000D03*
%LPD*%
M02*
