G04 #@! TF.GenerationSoftware,KiCad,Pcbnew,8.0.8*
G04 #@! TF.CreationDate,2025-01-22T20:31:02-06:00*
G04 #@! TF.ProjectId,mainboard,6d61696e-626f-4617-9264-2e6b69636164,rev?*
G04 #@! TF.SameCoordinates,Original*
G04 #@! TF.FileFunction,Copper,L1,Top*
G04 #@! TF.FilePolarity,Positive*
%FSLAX46Y46*%
G04 Gerber Fmt 4.6, Leading zero omitted, Abs format (unit mm)*
G04 Created by KiCad (PCBNEW 8.0.8) date 2025-01-22 20:31:02*
%MOMM*%
%LPD*%
G01*
G04 APERTURE LIST*
G04 Aperture macros list*
%AMRoundRect*
0 Rectangle with rounded corners*
0 $1 Rounding radius*
0 $2 $3 $4 $5 $6 $7 $8 $9 X,Y pos of 4 corners*
0 Add a 4 corners polygon primitive as box body*
4,1,4,$2,$3,$4,$5,$6,$7,$8,$9,$2,$3,0*
0 Add four circle primitives for the rounded corners*
1,1,$1+$1,$2,$3*
1,1,$1+$1,$4,$5*
1,1,$1+$1,$6,$7*
1,1,$1+$1,$8,$9*
0 Add four rect primitives between the rounded corners*
20,1,$1+$1,$2,$3,$4,$5,0*
20,1,$1+$1,$4,$5,$6,$7,0*
20,1,$1+$1,$6,$7,$8,$9,0*
20,1,$1+$1,$8,$9,$2,$3,0*%
G04 Aperture macros list end*
G04 #@! TA.AperFunction,SMDPad,CuDef*
%ADD10R,1.500000X0.900000*%
G04 #@! TD*
G04 #@! TA.AperFunction,SMDPad,CuDef*
%ADD11R,0.900000X1.500000*%
G04 #@! TD*
G04 #@! TA.AperFunction,SMDPad,CuDef*
%ADD12R,0.900000X0.900000*%
G04 #@! TD*
G04 #@! TA.AperFunction,SMDPad,CuDef*
%ADD13RoundRect,0.375000X-0.375000X0.625000X-0.375000X-0.625000X0.375000X-0.625000X0.375000X0.625000X0*%
G04 #@! TD*
G04 #@! TA.AperFunction,SMDPad,CuDef*
%ADD14RoundRect,0.500000X-1.400000X0.500000X-1.400000X-0.500000X1.400000X-0.500000X1.400000X0.500000X0*%
G04 #@! TD*
G04 #@! TA.AperFunction,SMDPad,CuDef*
%ADD15RoundRect,0.250000X0.475000X-0.337500X0.475000X0.337500X-0.475000X0.337500X-0.475000X-0.337500X0*%
G04 #@! TD*
G04 #@! TA.AperFunction,SMDPad,CuDef*
%ADD16RoundRect,0.150000X0.150000X0.200000X-0.150000X0.200000X-0.150000X-0.200000X0.150000X-0.200000X0*%
G04 #@! TD*
G04 #@! TA.AperFunction,SMDPad,CuDef*
%ADD17RoundRect,0.250000X-0.475000X0.337500X-0.475000X-0.337500X0.475000X-0.337500X0.475000X0.337500X0*%
G04 #@! TD*
G04 #@! TA.AperFunction,SMDPad,CuDef*
%ADD18RoundRect,0.250000X-0.337500X-0.475000X0.337500X-0.475000X0.337500X0.475000X-0.337500X0.475000X0*%
G04 #@! TD*
G04 #@! TA.AperFunction,HeatsinkPad*
%ADD19O,1.000000X1.800000*%
G04 #@! TD*
G04 #@! TA.AperFunction,HeatsinkPad*
%ADD20O,1.000000X2.100000*%
G04 #@! TD*
G04 #@! TA.AperFunction,SMDPad,CuDef*
%ADD21RoundRect,0.150000X0.150000X0.425000X-0.150000X0.425000X-0.150000X-0.425000X0.150000X-0.425000X0*%
G04 #@! TD*
G04 #@! TA.AperFunction,SMDPad,CuDef*
%ADD22RoundRect,0.075000X0.075000X0.500000X-0.075000X0.500000X-0.075000X-0.500000X0.075000X-0.500000X0*%
G04 #@! TD*
G04 #@! TA.AperFunction,SMDPad,CuDef*
%ADD23RoundRect,0.250000X0.450000X-0.350000X0.450000X0.350000X-0.450000X0.350000X-0.450000X-0.350000X0*%
G04 #@! TD*
G04 #@! TA.AperFunction,SMDPad,CuDef*
%ADD24RoundRect,0.150000X0.700000X-0.150000X0.700000X0.150000X-0.700000X0.150000X-0.700000X-0.150000X0*%
G04 #@! TD*
G04 #@! TA.AperFunction,SMDPad,CuDef*
%ADD25RoundRect,0.250000X1.100000X-0.250000X1.100000X0.250000X-1.100000X0.250000X-1.100000X-0.250000X0*%
G04 #@! TD*
G04 #@! TA.AperFunction,SMDPad,CuDef*
%ADD26RoundRect,0.150000X-0.700000X0.150000X-0.700000X-0.150000X0.700000X-0.150000X0.700000X0.150000X0*%
G04 #@! TD*
G04 #@! TA.AperFunction,SMDPad,CuDef*
%ADD27RoundRect,0.250000X-1.100000X0.250000X-1.100000X-0.250000X1.100000X-0.250000X1.100000X0.250000X0*%
G04 #@! TD*
G04 #@! TA.AperFunction,SMDPad,CuDef*
%ADD28RoundRect,0.250000X-1.500000X0.250000X-1.500000X-0.250000X1.500000X-0.250000X1.500000X0.250000X0*%
G04 #@! TD*
G04 #@! TA.AperFunction,SMDPad,CuDef*
%ADD29RoundRect,0.250001X-1.449999X0.499999X-1.449999X-0.499999X1.449999X-0.499999X1.449999X0.499999X0*%
G04 #@! TD*
G04 #@! TA.AperFunction,SMDPad,CuDef*
%ADD30RoundRect,0.250000X0.350000X0.450000X-0.350000X0.450000X-0.350000X-0.450000X0.350000X-0.450000X0*%
G04 #@! TD*
G04 #@! TA.AperFunction,SMDPad,CuDef*
%ADD31RoundRect,0.150000X-0.150000X-0.200000X0.150000X-0.200000X0.150000X0.200000X-0.150000X0.200000X0*%
G04 #@! TD*
G04 #@! TA.AperFunction,SMDPad,CuDef*
%ADD32RoundRect,0.250000X0.325000X0.450000X-0.325000X0.450000X-0.325000X-0.450000X0.325000X-0.450000X0*%
G04 #@! TD*
G04 #@! TA.AperFunction,SMDPad,CuDef*
%ADD33RoundRect,0.250000X-0.450000X0.350000X-0.450000X-0.350000X0.450000X-0.350000X0.450000X0.350000X0*%
G04 #@! TD*
G04 #@! TA.AperFunction,SMDPad,CuDef*
%ADD34RoundRect,0.250000X1.500000X0.550000X-1.500000X0.550000X-1.500000X-0.550000X1.500000X-0.550000X0*%
G04 #@! TD*
G04 #@! TA.AperFunction,ViaPad*
%ADD35C,0.600000*%
G04 #@! TD*
G04 #@! TA.AperFunction,ViaPad*
%ADD36C,0.800000*%
G04 #@! TD*
G04 #@! TA.AperFunction,Conductor*
%ADD37C,0.600000*%
G04 #@! TD*
G04 #@! TA.AperFunction,Conductor*
%ADD38C,0.400000*%
G04 #@! TD*
G04 #@! TA.AperFunction,Conductor*
%ADD39C,0.200000*%
G04 #@! TD*
G04 #@! TA.AperFunction,Conductor*
%ADD40C,1.200000*%
G04 #@! TD*
G04 APERTURE END LIST*
D10*
X132900000Y-113120000D03*
X132900000Y-111850000D03*
X132900000Y-110580000D03*
X132900000Y-109310000D03*
X132900000Y-108040000D03*
X132900000Y-106770000D03*
X132900000Y-105500000D03*
X132900000Y-104230000D03*
X132900000Y-102960000D03*
X132900000Y-101690000D03*
X132900000Y-100420000D03*
X132900000Y-99150000D03*
X132900000Y-97880000D03*
X132900000Y-96610000D03*
D11*
X131135000Y-95360000D03*
X129865000Y-95360000D03*
X128595000Y-95360000D03*
X127325000Y-95360000D03*
X126055000Y-95360000D03*
X124785000Y-95360000D03*
X123515000Y-95360000D03*
X122245000Y-95360000D03*
X120975000Y-95360000D03*
X119705000Y-95360000D03*
X118435000Y-95360000D03*
X117165000Y-95360000D03*
D10*
X115400000Y-96610000D03*
X115400000Y-97880000D03*
X115400000Y-99150000D03*
X115400000Y-100420000D03*
X115400000Y-101690000D03*
X115400000Y-102960000D03*
X115400000Y-104230000D03*
X115400000Y-105500000D03*
X115400000Y-106770000D03*
X115400000Y-108040000D03*
X115400000Y-109310000D03*
X115400000Y-110580000D03*
X115400000Y-111850000D03*
X115400000Y-113120000D03*
D12*
X127050000Y-106800000D03*
X127050000Y-105400000D03*
X127050000Y-104000000D03*
X127050000Y-104000000D03*
X125650000Y-106800000D03*
X125650000Y-106800000D03*
X125650000Y-105400000D03*
X125650000Y-104000000D03*
X124250000Y-106800000D03*
X124250000Y-105400000D03*
X124250000Y-104000000D03*
D13*
X126550000Y-78650000D03*
X124250000Y-78650000D03*
D14*
X124250000Y-84950000D03*
D13*
X121950000Y-78650000D03*
D15*
X129750000Y-85337500D03*
X129750000Y-83262500D03*
D16*
X129000000Y-75250000D03*
X130400000Y-75250000D03*
D17*
X138750000Y-110462500D03*
X138750000Y-112537500D03*
D18*
X129962500Y-77500000D03*
X132037500Y-77500000D03*
D19*
X119930000Y-66925000D03*
D20*
X119930000Y-71105000D03*
D19*
X128570000Y-66925000D03*
D20*
X128570000Y-71105000D03*
D21*
X127450000Y-71680000D03*
X126650000Y-71680000D03*
D22*
X126000000Y-71680000D03*
X125000000Y-71680000D03*
X123500000Y-71680000D03*
X122500000Y-71680000D03*
D21*
X121850000Y-71680000D03*
X121050000Y-71680000D03*
X121050000Y-71680000D03*
X121850000Y-71680000D03*
D22*
X123000000Y-71680000D03*
X124000000Y-71680000D03*
X124500000Y-71680000D03*
X125500000Y-71680000D03*
D21*
X126650000Y-71680000D03*
X127450000Y-71680000D03*
D23*
X131700000Y-69500000D03*
X131700000Y-67500000D03*
D24*
X139150000Y-92625000D03*
X139150000Y-91375000D03*
X139150000Y-90125000D03*
X139150000Y-88875000D03*
X139150000Y-87625000D03*
X139150000Y-86375000D03*
D25*
X142350000Y-94475000D03*
X142350000Y-84525000D03*
D26*
X109350000Y-98500000D03*
X109350000Y-99750000D03*
X109350000Y-101000000D03*
X109350000Y-102250000D03*
X109350000Y-103500000D03*
X109350000Y-104750000D03*
X109350000Y-106000000D03*
D27*
X106150000Y-96650000D03*
X106150000Y-107850000D03*
D28*
X112350000Y-83750000D03*
X112350000Y-85750000D03*
X112350000Y-87750000D03*
D29*
X106600000Y-81400000D03*
X106600000Y-90100000D03*
D30*
X134750000Y-82050000D03*
X132750000Y-82050000D03*
D23*
X116250000Y-70500000D03*
X116250000Y-68500000D03*
D31*
X123450000Y-74500000D03*
X122050000Y-74500000D03*
D16*
X125000000Y-74500000D03*
X126400000Y-74500000D03*
D32*
X134775000Y-85300000D03*
X132725000Y-85300000D03*
D33*
X141500000Y-110500000D03*
X141500000Y-112500000D03*
D24*
X139150000Y-106250000D03*
X139150000Y-105000000D03*
X139150000Y-103750000D03*
X139150000Y-102500000D03*
X139150000Y-101250000D03*
X139150000Y-100000000D03*
X139150000Y-98750000D03*
D25*
X142350000Y-108100000D03*
X142350000Y-96900000D03*
D34*
X116650000Y-75750000D03*
X111250000Y-75750000D03*
D35*
X120750000Y-75000000D03*
X121250000Y-89500000D03*
X135000000Y-113000000D03*
X127700000Y-75000000D03*
X119000000Y-89500000D03*
X137250000Y-99500000D03*
X120250000Y-91000000D03*
X121250000Y-85500000D03*
X135061226Y-111740402D03*
X137250000Y-91000000D03*
D36*
X126000000Y-73250000D03*
X122750000Y-73250000D03*
D35*
X135252893Y-87379528D03*
X134500000Y-97750000D03*
X134500000Y-87650000D03*
X134500000Y-96250000D03*
X127250000Y-90700000D03*
X127250000Y-93250000D03*
X136000000Y-101000000D03*
X132000000Y-89400000D03*
X132000000Y-91400000D03*
X134750000Y-99150000D03*
X126000000Y-90500000D03*
X126000000Y-93250000D03*
X128500000Y-91250000D03*
X128500000Y-88850000D03*
X128500000Y-93250000D03*
X134750000Y-108040000D03*
X124750000Y-89500000D03*
X124750000Y-93250000D03*
X124750000Y-91900000D03*
X134750000Y-106770000D03*
X136000000Y-105500000D03*
X136000000Y-88150000D03*
X134750000Y-105500000D03*
X115500000Y-83750000D03*
X113850000Y-97750000D03*
D37*
X127995000Y-71680000D02*
X128570000Y-71105000D01*
X126550000Y-78650000D02*
X127400000Y-79500000D01*
D38*
X117930000Y-113120000D02*
X124250000Y-106800000D01*
D39*
X129145000Y-67500000D02*
X128570000Y-66925000D01*
D37*
X111300000Y-75750000D02*
X111300000Y-71450000D01*
X127450000Y-71680000D02*
X127995000Y-71680000D01*
D39*
X109350000Y-108850000D02*
X109350000Y-106000000D01*
D37*
X110600000Y-87750000D02*
X112350000Y-87750000D01*
X121050000Y-71680000D02*
X120505000Y-71680000D01*
D38*
X127200000Y-74500000D02*
X127700000Y-75000000D01*
X125650000Y-104000000D02*
X125650000Y-106800000D01*
D37*
X109250000Y-77800000D02*
X109250000Y-86400000D01*
X129750000Y-79500000D02*
X131000000Y-79500000D01*
D38*
X129750000Y-83262500D02*
X129750000Y-79500000D01*
D39*
X131700000Y-67500000D02*
X129145000Y-67500000D01*
X140500000Y-91875001D02*
X139999999Y-91375000D01*
D37*
X120505000Y-71680000D02*
X119930000Y-71105000D01*
X130400000Y-75250000D02*
X130400000Y-72935000D01*
D39*
X132750000Y-81250000D02*
X132750000Y-82050000D01*
D38*
X115400000Y-113120000D02*
X117930000Y-113120000D01*
X122050000Y-74500000D02*
X121200000Y-74500000D01*
X124250000Y-106800000D02*
X124250000Y-104000000D01*
X133020000Y-113000000D02*
X132900000Y-113120000D01*
D39*
X139999999Y-91375000D02*
X140500000Y-90874999D01*
D37*
X118355000Y-68500000D02*
X119930000Y-66925000D01*
D38*
X127050000Y-108000000D02*
X132170000Y-113120000D01*
D39*
X135462500Y-112537500D02*
X135000000Y-113000000D01*
X139150000Y-98750000D02*
X140250000Y-98750000D01*
D37*
X130400000Y-75862500D02*
X132037500Y-77500000D01*
D39*
X130962500Y-82050000D02*
X132750000Y-82050000D01*
X115400000Y-113120000D02*
X113620000Y-113120000D01*
D38*
X117250000Y-87750000D02*
X112350000Y-87750000D01*
X124250000Y-104000000D02*
X127050000Y-104000000D01*
D39*
X140500000Y-90874999D02*
X140500000Y-84500000D01*
X140500000Y-84500000D02*
X136500000Y-80500000D01*
D37*
X132037500Y-78462500D02*
X132037500Y-77500000D01*
D38*
X124250000Y-105400000D02*
X127050000Y-105400000D01*
D37*
X130400000Y-72935000D02*
X128570000Y-71105000D01*
D39*
X113620000Y-113120000D02*
X109350000Y-108850000D01*
X133500000Y-80500000D02*
X132750000Y-81250000D01*
D38*
X132170000Y-113120000D02*
X132900000Y-113120000D01*
X127050000Y-106800000D02*
X124250000Y-106800000D01*
D37*
X114250000Y-68500000D02*
X116250000Y-68500000D01*
D39*
X139150000Y-91375000D02*
X139999999Y-91375000D01*
D37*
X131000000Y-79500000D02*
X132037500Y-78462500D01*
X130400000Y-75250000D02*
X130400000Y-75862500D01*
X111300000Y-75750000D02*
X109250000Y-77800000D01*
D39*
X121250000Y-89500000D02*
X119000000Y-89500000D01*
D38*
X127050000Y-104000000D02*
X127050000Y-106800000D01*
X126400000Y-74500000D02*
X127200000Y-74500000D01*
D39*
X136500000Y-80500000D02*
X133500000Y-80500000D01*
D38*
X119000000Y-89500000D02*
X117250000Y-87750000D01*
D39*
X140250000Y-98750000D02*
X140500000Y-98500000D01*
D37*
X127400000Y-79500000D02*
X129750000Y-79500000D01*
D38*
X135000000Y-113000000D02*
X133020000Y-113000000D01*
D39*
X130962500Y-82050000D02*
X129750000Y-83262500D01*
X140500000Y-98500000D02*
X140500000Y-91875001D01*
D37*
X109250000Y-86400000D02*
X110600000Y-87750000D01*
D38*
X121200000Y-74500000D02*
X120700000Y-75000000D01*
D39*
X138750000Y-112537500D02*
X135462500Y-112537500D01*
D37*
X111300000Y-71450000D02*
X114250000Y-68500000D01*
D38*
X127050000Y-106800000D02*
X127050000Y-108000000D01*
D37*
X116250000Y-68500000D02*
X118355000Y-68500000D01*
D39*
X138750000Y-110462500D02*
X133017500Y-110462500D01*
X138787500Y-110500000D02*
X138750000Y-110462500D01*
X141500000Y-110500000D02*
X138787500Y-110500000D01*
X133017500Y-110462500D02*
X132900000Y-110580000D01*
D38*
X135000000Y-111750000D02*
X133000000Y-111750000D01*
D39*
X140500000Y-111500000D02*
X135301628Y-111500000D01*
X139150000Y-100000000D02*
X137750000Y-100000000D01*
X108000000Y-104249999D02*
X108500001Y-104750000D01*
D38*
X129362500Y-84950000D02*
X129750000Y-85337500D01*
D39*
X141500000Y-112500000D02*
X140500000Y-111500000D01*
X135301628Y-111500000D02*
X135061226Y-111740402D01*
X139150000Y-90125000D02*
X138125000Y-90125000D01*
D38*
X124250000Y-84950000D02*
X121800000Y-84950000D01*
D40*
X124250000Y-78650000D02*
X124250000Y-84950000D01*
D39*
X129787500Y-85300000D02*
X129750000Y-85337500D01*
D38*
X121800000Y-84950000D02*
X121250000Y-85500000D01*
D39*
X112400000Y-91350000D02*
X108000000Y-95750000D01*
X108500001Y-104750000D02*
X109350000Y-104750000D01*
X137750000Y-100000000D02*
X137250000Y-99500000D01*
D38*
X133000000Y-111750000D02*
X132900000Y-111850000D01*
D39*
X119900000Y-91350000D02*
X112400000Y-91350000D01*
X120250000Y-91000000D02*
X119900000Y-91350000D01*
D38*
X124250000Y-84950000D02*
X129362500Y-84950000D01*
D39*
X108000000Y-95750000D02*
X108000000Y-104249999D01*
X132725000Y-85300000D02*
X129787500Y-85300000D01*
X138125000Y-90125000D02*
X137250000Y-91000000D01*
D37*
X123400000Y-76350000D02*
X121950000Y-77800000D01*
X121950000Y-77800000D02*
X121950000Y-78650000D01*
X122750000Y-73250000D02*
X122679748Y-73250000D01*
X122750000Y-73250000D02*
X121000000Y-73250000D01*
X115250000Y-85750000D02*
X112350000Y-85750000D01*
X129000000Y-74050000D02*
X129000000Y-75250000D01*
X128200000Y-73250000D02*
X129000000Y-74050000D01*
X122679748Y-73250000D02*
X121850000Y-72420252D01*
X128350000Y-76350000D02*
X129500000Y-77500000D01*
X121850000Y-72420252D02*
X121850000Y-71680000D01*
X118500000Y-75750000D02*
X121000000Y-73250000D01*
X128350000Y-76350000D02*
X123400000Y-76350000D01*
X128350000Y-76350000D02*
X129000000Y-75700000D01*
X129000000Y-75250000D02*
X129000000Y-75700000D01*
X126000000Y-73250000D02*
X126000000Y-73200000D01*
X116650000Y-75750000D02*
X116650000Y-84350000D01*
X116650000Y-84350000D02*
X115250000Y-85750000D01*
X126000000Y-73250000D02*
X128200000Y-73250000D01*
X116700000Y-75750000D02*
X118500000Y-75750000D01*
X126650000Y-72550000D02*
X126650000Y-71680000D01*
X126000000Y-73200000D02*
X126650000Y-72550000D01*
X129500000Y-77500000D02*
X129962500Y-77500000D01*
D39*
X124732410Y-72555000D02*
X125000000Y-72287410D01*
X125000000Y-75500000D02*
X125000000Y-74500000D01*
X134251471Y-87050000D02*
X133951471Y-87350000D01*
X134500000Y-97750000D02*
X134370000Y-97880000D01*
X134748529Y-87050000D02*
X134251471Y-87050000D01*
X135078057Y-87379528D02*
X134748529Y-87050000D01*
X120850000Y-87350000D02*
X119750000Y-86250000D01*
X119750000Y-77250000D02*
X120000000Y-77000000D01*
X119750000Y-86250000D02*
X119750000Y-77250000D01*
X124267590Y-72555000D02*
X124732410Y-72555000D01*
X124000000Y-72287410D02*
X124267590Y-72555000D01*
X124750000Y-75750000D02*
X125000000Y-75500000D01*
X122765686Y-75750000D02*
X124750000Y-75750000D01*
X124000000Y-71680000D02*
X124000000Y-72287410D01*
X125000000Y-72287410D02*
X125000000Y-71680000D01*
X134370000Y-97880000D02*
X132900000Y-97880000D01*
X133951471Y-87350000D02*
X120850000Y-87350000D01*
X120000000Y-77000000D02*
X121515686Y-77000000D01*
X121515686Y-77000000D02*
X122765686Y-75750000D01*
X125000000Y-71680000D02*
X125000000Y-74500000D01*
X135252893Y-87379528D02*
X135078057Y-87379528D01*
X118250000Y-70500000D02*
X116250000Y-70500000D01*
X119250000Y-69500000D02*
X121750000Y-69500000D01*
X121750000Y-69500000D02*
X122500000Y-70250000D01*
X119250000Y-69500000D02*
X118250000Y-70500000D01*
X122500000Y-70250000D02*
X122500000Y-71680000D01*
X119834314Y-76600000D02*
X119350000Y-77084314D01*
X123500000Y-71072590D02*
X123822590Y-70750000D01*
X121350000Y-76600000D02*
X119834314Y-76600000D01*
X123500000Y-71680000D02*
X123500000Y-71072590D01*
X120684314Y-87750000D02*
X134400000Y-87750000D01*
X124500000Y-71000000D02*
X124500000Y-71680000D01*
X119350000Y-77084314D02*
X119350000Y-86415686D01*
X134400000Y-87750000D02*
X134500000Y-87650000D01*
X123500000Y-74450000D02*
X123450000Y-74500000D01*
X123822590Y-70750000D02*
X124250000Y-70750000D01*
X134500000Y-96250000D02*
X134140000Y-96610000D01*
X119350000Y-86415686D02*
X120684314Y-87750000D01*
X134140000Y-96610000D02*
X132900000Y-96610000D01*
X123500000Y-71680000D02*
X123500000Y-74450000D01*
X123450000Y-74500000D02*
X121350000Y-76600000D01*
X124250000Y-70750000D02*
X124500000Y-71000000D01*
X125500000Y-70250000D02*
X126250000Y-69500000D01*
X125500000Y-71680000D02*
X125500000Y-70250000D01*
X126250000Y-69500000D02*
X131700000Y-69500000D01*
X127250000Y-90700000D02*
X127550000Y-90400000D01*
X127250000Y-93250000D02*
X127250000Y-95285000D01*
X127550000Y-90400000D02*
X133912744Y-90400000D01*
X136137744Y-92625000D02*
X139900000Y-92625000D01*
X127250000Y-95285000D02*
X127325000Y-95360000D01*
X133912744Y-90400000D02*
X136137744Y-92625000D01*
X137625000Y-87625000D02*
X139150000Y-87625000D01*
X136000000Y-101000000D02*
X136000000Y-102500000D01*
X136250000Y-100000000D02*
X136250000Y-93868628D01*
X112000000Y-99500000D02*
X112000000Y-94368628D01*
X110500000Y-101000000D02*
X112000000Y-99500000D01*
X131800000Y-89600000D02*
X132000000Y-89400000D01*
X122551471Y-92600000D02*
X125551471Y-89600000D01*
X134750000Y-99150000D02*
X132900000Y-99150000D01*
X112000000Y-94368628D02*
X113768628Y-92600000D01*
X136000000Y-101000000D02*
X136000000Y-100250000D01*
X136250000Y-93868628D02*
X133881372Y-91500000D01*
X136000000Y-102500000D02*
X137250000Y-103750000D01*
X109350000Y-101000000D02*
X110500000Y-101000000D01*
X136000000Y-100250000D02*
X136250000Y-100000000D01*
X133881372Y-91500000D02*
X132100000Y-91500000D01*
X137250000Y-103750000D02*
X139150000Y-103750000D01*
X132100000Y-91500000D02*
X132000000Y-91400000D01*
X132100000Y-89500000D02*
X136750000Y-89500000D01*
X136750000Y-89500000D02*
X137250000Y-89000000D01*
X125551471Y-89600000D02*
X131800000Y-89600000D01*
X137250000Y-89000000D02*
X137250000Y-88000000D01*
X113768628Y-92600000D02*
X122551471Y-92600000D01*
X137250000Y-88000000D02*
X137625000Y-87625000D01*
X132000000Y-89400000D02*
X132100000Y-89500000D01*
X126000000Y-95305000D02*
X126055000Y-95360000D01*
X137000000Y-90000000D02*
X138125000Y-88875000D01*
X126500000Y-90000000D02*
X137000000Y-90000000D01*
X126000000Y-93250000D02*
X126000000Y-95305000D01*
X138125000Y-88875000D02*
X139150000Y-88875000D01*
X126000000Y-90500000D02*
X126500000Y-90000000D01*
X136650000Y-93702942D02*
X136650000Y-102150000D01*
X128500000Y-95265000D02*
X128595000Y-95360000D01*
X128500000Y-88850000D02*
X128600000Y-88750000D01*
X128500000Y-93250000D02*
X128500000Y-95265000D01*
X136248529Y-88750000D02*
X136600000Y-88398529D01*
X132448529Y-91000000D02*
X133947058Y-91000000D01*
X128500000Y-91250000D02*
X128450000Y-91300000D01*
X128600000Y-88750000D02*
X136248529Y-88750000D01*
X133947058Y-91000000D02*
X136650000Y-93702942D01*
X137375000Y-86375000D02*
X139150000Y-86375000D01*
X136600000Y-88398529D02*
X136600000Y-87150000D01*
X131751471Y-90800000D02*
X132248529Y-90800000D01*
X124501471Y-91300000D02*
X122801471Y-93000000D01*
X112400000Y-94534314D02*
X112400000Y-100100000D01*
X128500000Y-91250000D02*
X131301471Y-91250000D01*
X131301471Y-91250000D02*
X131751471Y-90800000D01*
X136650000Y-102150000D02*
X137000000Y-102500000D01*
X136600000Y-87150000D02*
X137375000Y-86375000D01*
X113934314Y-93000000D02*
X112400000Y-94534314D01*
X122801471Y-93000000D02*
X113934314Y-93000000D01*
X128450000Y-91300000D02*
X124501471Y-91300000D01*
X137000000Y-102500000D02*
X139150000Y-102500000D01*
X112400000Y-100100000D02*
X110250000Y-102250000D01*
X110250000Y-102250000D02*
X109350000Y-102250000D01*
X132248529Y-90800000D02*
X132448529Y-91000000D01*
X138850552Y-108040000D02*
X140750000Y-106140552D01*
X134750000Y-108040000D02*
X132900000Y-108040000D01*
X140000000Y-101250000D02*
X139150000Y-101250000D01*
X134750000Y-108040000D02*
X138850552Y-108040000D01*
X140750000Y-102000000D02*
X140000000Y-101250000D01*
X140750000Y-106140552D02*
X140750000Y-102000000D01*
X110500000Y-99750000D02*
X109350000Y-99750000D01*
X124750000Y-95325000D02*
X124785000Y-95360000D01*
X135398529Y-100101471D02*
X135750000Y-99750000D01*
X111500000Y-98750000D02*
X110500000Y-99750000D01*
X133815686Y-92000000D02*
X135750000Y-93934314D01*
X135398529Y-102898529D02*
X135398529Y-100101471D01*
X135750000Y-93934314D02*
X135750000Y-99750000D01*
X124750000Y-89500000D02*
X122100000Y-92150000D01*
X124850000Y-92000000D02*
X133815686Y-92000000D01*
X139150000Y-105000000D02*
X137500000Y-105000000D01*
X113652942Y-92150000D02*
X111500000Y-94302942D01*
X111500000Y-94302942D02*
X111500000Y-98750000D01*
X124750000Y-93250000D02*
X124750000Y-95325000D01*
X137500000Y-105000000D02*
X135398529Y-102898529D01*
X122100000Y-92150000D02*
X113652942Y-92150000D01*
X124750000Y-91900000D02*
X124850000Y-92000000D01*
X123651470Y-93500000D02*
X124501471Y-92650000D01*
X112800000Y-100549999D02*
X109849999Y-103500000D01*
X112800000Y-100549999D02*
X112800000Y-94700000D01*
X135350000Y-99398529D02*
X134998529Y-99750000D01*
X134998529Y-104900000D02*
X135350000Y-105251471D01*
X112800000Y-94700000D02*
X114000000Y-93500000D01*
X109849999Y-103500000D02*
X109350000Y-103500000D01*
X124501471Y-92650000D02*
X133650000Y-92650000D01*
X135350000Y-94350000D02*
X135350000Y-99398529D01*
X132900000Y-106770000D02*
X134750000Y-106770000D01*
X133650000Y-92650000D02*
X135350000Y-94350000D01*
X135350000Y-105251471D02*
X135350000Y-106170000D01*
X134998529Y-99750000D02*
X134998529Y-104900000D01*
X135350000Y-106170000D02*
X134750000Y-106770000D01*
X114000000Y-93500000D02*
X123651470Y-93500000D01*
X110750000Y-98500000D02*
X109350000Y-98500000D01*
X125151471Y-88250000D02*
X121651471Y-91750000D01*
X136750000Y-106250000D02*
X139150000Y-106250000D01*
X135900000Y-88250000D02*
X125151471Y-88250000D01*
X111000000Y-94237256D02*
X111000000Y-98250000D01*
X113487256Y-91750000D02*
X111000000Y-94237256D01*
X134750000Y-105500000D02*
X132900000Y-105500000D01*
X136000000Y-88150000D02*
X135900000Y-88250000D01*
X136000000Y-105500000D02*
X136750000Y-106250000D01*
X121651471Y-91750000D02*
X113487256Y-91750000D01*
X111000000Y-98250000D02*
X110750000Y-98500000D01*
X113850000Y-97750000D02*
X113980000Y-97880000D01*
X115500000Y-83750000D02*
X112350000Y-83750000D01*
X113980000Y-97880000D02*
X115400000Y-97880000D01*
X134775000Y-85300000D02*
X134775000Y-82075000D01*
X134775000Y-82075000D02*
X134750000Y-82050000D01*
M02*
