G04 #@! TF.GenerationSoftware,KiCad,Pcbnew,9.0.2*
G04 #@! TF.CreationDate,2025-05-18T19:28:29-05:00*
G04 #@! TF.ProjectId,mainboard,6d61696e-626f-4617-9264-2e6b69636164,rev?*
G04 #@! TF.SameCoordinates,Original*
G04 #@! TF.FileFunction,Copper,L1,Top*
G04 #@! TF.FilePolarity,Positive*
%FSLAX46Y46*%
G04 Gerber Fmt 4.6, Leading zero omitted, Abs format (unit mm)*
G04 Created by KiCad (PCBNEW 9.0.2) date 2025-05-18 19:28:29*
%MOMM*%
%LPD*%
G01*
G04 APERTURE LIST*
G04 Aperture macros list*
%AMRoundRect*
0 Rectangle with rounded corners*
0 $1 Rounding radius*
0 $2 $3 $4 $5 $6 $7 $8 $9 X,Y pos of 4 corners*
0 Add a 4 corners polygon primitive as box body*
4,1,4,$2,$3,$4,$5,$6,$7,$8,$9,$2,$3,0*
0 Add four circle primitives for the rounded corners*
1,1,$1+$1,$2,$3*
1,1,$1+$1,$4,$5*
1,1,$1+$1,$6,$7*
1,1,$1+$1,$8,$9*
0 Add four rect primitives between the rounded corners*
20,1,$1+$1,$2,$3,$4,$5,0*
20,1,$1+$1,$4,$5,$6,$7,0*
20,1,$1+$1,$6,$7,$8,$9,0*
20,1,$1+$1,$8,$9,$2,$3,0*%
G04 Aperture macros list end*
G04 #@! TA.AperFunction,SMDPad,CuDef*
%ADD10R,1.500000X0.900000*%
G04 #@! TD*
G04 #@! TA.AperFunction,SMDPad,CuDef*
%ADD11R,0.900000X1.500000*%
G04 #@! TD*
G04 #@! TA.AperFunction,SMDPad,CuDef*
%ADD12R,0.900000X0.900000*%
G04 #@! TD*
G04 #@! TA.AperFunction,SMDPad,CuDef*
%ADD13RoundRect,0.375000X-0.375000X0.625000X-0.375000X-0.625000X0.375000X-0.625000X0.375000X0.625000X0*%
G04 #@! TD*
G04 #@! TA.AperFunction,SMDPad,CuDef*
%ADD14RoundRect,0.500000X-1.400000X0.500000X-1.400000X-0.500000X1.400000X-0.500000X1.400000X0.500000X0*%
G04 #@! TD*
G04 #@! TA.AperFunction,SMDPad,CuDef*
%ADD15RoundRect,0.250000X0.450000X-0.350000X0.450000X0.350000X-0.450000X0.350000X-0.450000X-0.350000X0*%
G04 #@! TD*
G04 #@! TA.AperFunction,SMDPad,CuDef*
%ADD16RoundRect,0.250000X0.475000X-0.337500X0.475000X0.337500X-0.475000X0.337500X-0.475000X-0.337500X0*%
G04 #@! TD*
G04 #@! TA.AperFunction,SMDPad,CuDef*
%ADD17RoundRect,0.150000X0.150000X0.200000X-0.150000X0.200000X-0.150000X-0.200000X0.150000X-0.200000X0*%
G04 #@! TD*
G04 #@! TA.AperFunction,SMDPad,CuDef*
%ADD18RoundRect,0.250000X-0.475000X0.337500X-0.475000X-0.337500X0.475000X-0.337500X0.475000X0.337500X0*%
G04 #@! TD*
G04 #@! TA.AperFunction,SMDPad,CuDef*
%ADD19RoundRect,0.250000X-0.337500X-0.475000X0.337500X-0.475000X0.337500X0.475000X-0.337500X0.475000X0*%
G04 #@! TD*
G04 #@! TA.AperFunction,SMDPad,CuDef*
%ADD20RoundRect,0.150000X0.150000X0.425000X-0.150000X0.425000X-0.150000X-0.425000X0.150000X-0.425000X0*%
G04 #@! TD*
G04 #@! TA.AperFunction,SMDPad,CuDef*
%ADD21RoundRect,0.075000X0.075000X0.500000X-0.075000X0.500000X-0.075000X-0.500000X0.075000X-0.500000X0*%
G04 #@! TD*
G04 #@! TA.AperFunction,HeatsinkPad*
%ADD22O,1.000000X2.100000*%
G04 #@! TD*
G04 #@! TA.AperFunction,HeatsinkPad*
%ADD23O,1.000000X1.800000*%
G04 #@! TD*
G04 #@! TA.AperFunction,SMDPad,CuDef*
%ADD24RoundRect,0.250000X0.350000X0.450000X-0.350000X0.450000X-0.350000X-0.450000X0.350000X-0.450000X0*%
G04 #@! TD*
G04 #@! TA.AperFunction,SMDPad,CuDef*
%ADD25RoundRect,0.150000X0.700000X-0.150000X0.700000X0.150000X-0.700000X0.150000X-0.700000X-0.150000X0*%
G04 #@! TD*
G04 #@! TA.AperFunction,SMDPad,CuDef*
%ADD26RoundRect,0.250000X1.100000X-0.250000X1.100000X0.250000X-1.100000X0.250000X-1.100000X-0.250000X0*%
G04 #@! TD*
G04 #@! TA.AperFunction,SMDPad,CuDef*
%ADD27RoundRect,0.150000X-0.150000X-0.200000X0.150000X-0.200000X0.150000X0.200000X-0.150000X0.200000X0*%
G04 #@! TD*
G04 #@! TA.AperFunction,SMDPad,CuDef*
%ADD28RoundRect,0.250000X0.325000X0.450000X-0.325000X0.450000X-0.325000X-0.450000X0.325000X-0.450000X0*%
G04 #@! TD*
G04 #@! TA.AperFunction,SMDPad,CuDef*
%ADD29RoundRect,0.250000X-0.450000X0.350000X-0.450000X-0.350000X0.450000X-0.350000X0.450000X0.350000X0*%
G04 #@! TD*
G04 #@! TA.AperFunction,SMDPad,CuDef*
%ADD30RoundRect,0.250000X-1.500000X0.250000X-1.500000X-0.250000X1.500000X-0.250000X1.500000X0.250000X0*%
G04 #@! TD*
G04 #@! TA.AperFunction,SMDPad,CuDef*
%ADD31RoundRect,0.250001X-1.449999X0.499999X-1.449999X-0.499999X1.449999X-0.499999X1.449999X0.499999X0*%
G04 #@! TD*
G04 #@! TA.AperFunction,SMDPad,CuDef*
%ADD32RoundRect,0.250000X1.500000X0.550000X-1.500000X0.550000X-1.500000X-0.550000X1.500000X-0.550000X0*%
G04 #@! TD*
G04 #@! TA.AperFunction,ViaPad*
%ADD33C,0.600000*%
G04 #@! TD*
G04 #@! TA.AperFunction,ViaPad*
%ADD34C,0.800000*%
G04 #@! TD*
G04 #@! TA.AperFunction,Conductor*
%ADD35C,0.600000*%
G04 #@! TD*
G04 #@! TA.AperFunction,Conductor*
%ADD36C,0.400000*%
G04 #@! TD*
G04 #@! TA.AperFunction,Conductor*
%ADD37C,0.200000*%
G04 #@! TD*
G04 #@! TA.AperFunction,Conductor*
%ADD38C,1.200000*%
G04 #@! TD*
G04 APERTURE END LIST*
D10*
X132900000Y-113120000D03*
X132900000Y-111850000D03*
X132900000Y-110580000D03*
X132900000Y-109310000D03*
X132900000Y-108040000D03*
X132900000Y-106770000D03*
X132900000Y-105500000D03*
X132900000Y-104230000D03*
X132900000Y-102960000D03*
X132900000Y-101690000D03*
X132900000Y-100420000D03*
X132900000Y-99150000D03*
X132900000Y-97880000D03*
X132900000Y-96610000D03*
D11*
X131135000Y-95360000D03*
X129865000Y-95360000D03*
X128595000Y-95360000D03*
X127325000Y-95360000D03*
X126055000Y-95360000D03*
X124785000Y-95360000D03*
X123515000Y-95360000D03*
X122245000Y-95360000D03*
X120975000Y-95360000D03*
X119705000Y-95360000D03*
X118435000Y-95360000D03*
X117165000Y-95360000D03*
D10*
X115400000Y-96610000D03*
X115400000Y-97880000D03*
X115400000Y-99150000D03*
X115400000Y-100420000D03*
X115400000Y-101690000D03*
X115400000Y-102960000D03*
X115400000Y-104230000D03*
X115400000Y-105500000D03*
X115400000Y-106770000D03*
X115400000Y-108040000D03*
X115400000Y-109310000D03*
X115400000Y-110580000D03*
X115400000Y-111850000D03*
X115400000Y-113120000D03*
D12*
X127050000Y-106800000D03*
X127050000Y-105400000D03*
X127050000Y-104000000D03*
X127050000Y-104000000D03*
X125650000Y-106800000D03*
X125650000Y-106800000D03*
X125650000Y-105400000D03*
X125650000Y-104000000D03*
X124250000Y-106800000D03*
X124250000Y-105400000D03*
X124250000Y-104000000D03*
D13*
X126550000Y-78650000D03*
X124250000Y-78650000D03*
D14*
X124250000Y-84950000D03*
D13*
X121950000Y-78650000D03*
D15*
X127750000Y-92750000D03*
X127750000Y-90750000D03*
D16*
X129750000Y-85337500D03*
X129750000Y-83262500D03*
D17*
X129000000Y-75250000D03*
X130400000Y-75250000D03*
D18*
X138750000Y-110462500D03*
X138750000Y-112537500D03*
D19*
X129962500Y-77500000D03*
X132037500Y-77500000D03*
D20*
X127450000Y-71680000D03*
X126650000Y-71680000D03*
D21*
X125500000Y-71680000D03*
X124500000Y-71680000D03*
X124000000Y-71680000D03*
X123000000Y-71680000D03*
D20*
X121850000Y-71680000D03*
X121050000Y-71680000D03*
X121050000Y-71680000D03*
X121850000Y-71680000D03*
D21*
X122500000Y-71680000D03*
X123500000Y-71680000D03*
X125000000Y-71680000D03*
X126000000Y-71680000D03*
D20*
X126650000Y-71680000D03*
X127450000Y-71680000D03*
D22*
X128570000Y-71105000D03*
D23*
X128570000Y-66925000D03*
D22*
X119930000Y-71105000D03*
D23*
X119930000Y-66925000D03*
D24*
X134750000Y-82750000D03*
X132750000Y-82750000D03*
D15*
X131700000Y-69500000D03*
X131700000Y-67500000D03*
D25*
X139150000Y-92250000D03*
X139150000Y-91000000D03*
X139150000Y-89750000D03*
X139150000Y-88500000D03*
X139150000Y-87250000D03*
X139150000Y-86000000D03*
D26*
X142350000Y-94100000D03*
X142350000Y-84150000D03*
D25*
X139150000Y-106125000D03*
X139150000Y-104875000D03*
X139150000Y-103625000D03*
X139150000Y-102375000D03*
X139150000Y-101125000D03*
X139150000Y-99875000D03*
D26*
X142350000Y-107975000D03*
X142350000Y-98025000D03*
D15*
X116250000Y-70500000D03*
X116250000Y-68500000D03*
D27*
X123450000Y-74500000D03*
X122050000Y-74500000D03*
D17*
X125000000Y-74500000D03*
X126400000Y-74500000D03*
D15*
X131250000Y-92750000D03*
X131250000Y-90750000D03*
D28*
X134775000Y-85300000D03*
X132725000Y-85300000D03*
D29*
X141500000Y-110500000D03*
X141500000Y-112500000D03*
D30*
X112350000Y-83750000D03*
X112350000Y-85750000D03*
X112350000Y-87750000D03*
D31*
X106600000Y-81400000D03*
X106600000Y-90100000D03*
D32*
X116650000Y-75750000D03*
X111250000Y-75750000D03*
D33*
X120750000Y-75000000D03*
X135000000Y-113000000D03*
X127700000Y-75000000D03*
X119000000Y-89500000D03*
X125650000Y-101900000D03*
X121250000Y-85500000D03*
X135061226Y-111740402D03*
D34*
X126000000Y-73250000D03*
X122750000Y-73250000D03*
D33*
X134750000Y-97500000D03*
X125500000Y-75550000D03*
X124000000Y-75500000D03*
X134500000Y-96250000D03*
X134760000Y-99510000D03*
X134750000Y-101250000D03*
X115500000Y-83750000D03*
X113850000Y-97750000D03*
D35*
X127995000Y-71680000D02*
X128570000Y-71105000D01*
X126550000Y-78650000D02*
X127400000Y-79500000D01*
D36*
X117930000Y-113120000D02*
X124250000Y-106800000D01*
D37*
X137750000Y-86000000D02*
X137000000Y-85250000D01*
X129145000Y-67500000D02*
X128570000Y-66925000D01*
D35*
X111300000Y-75750000D02*
X111300000Y-71450000D01*
X127450000Y-71680000D02*
X127995000Y-71680000D01*
X110600000Y-87750000D02*
X112350000Y-87750000D01*
X121050000Y-71680000D02*
X120505000Y-71680000D01*
D36*
X127200000Y-74500000D02*
X127700000Y-75000000D01*
D37*
X137000000Y-81250000D02*
X133250000Y-77500000D01*
D36*
X125650000Y-104000000D02*
X125650000Y-106800000D01*
D35*
X109250000Y-77800000D02*
X109250000Y-86400000D01*
X129750000Y-79500000D02*
X131000000Y-79500000D01*
D36*
X129750000Y-83262500D02*
X129750000Y-79500000D01*
D37*
X131700000Y-67500000D02*
X129145000Y-67500000D01*
D35*
X120505000Y-71680000D02*
X119930000Y-71105000D01*
X130400000Y-75250000D02*
X130400000Y-72935000D01*
D36*
X115400000Y-113120000D02*
X117930000Y-113120000D01*
X122050000Y-74500000D02*
X121200000Y-74500000D01*
D37*
X133250000Y-77500000D02*
X132037500Y-77500000D01*
D36*
X124250000Y-106800000D02*
X124250000Y-104000000D01*
X133020000Y-113000000D02*
X132900000Y-113120000D01*
D37*
X125650000Y-101900000D02*
X125650000Y-104000000D01*
D35*
X118355000Y-68500000D02*
X119930000Y-66925000D01*
D36*
X127050000Y-108000000D02*
X132170000Y-113120000D01*
D37*
X132250000Y-83250000D02*
X129762500Y-83250000D01*
X135462500Y-112537500D02*
X135000000Y-113000000D01*
D35*
X130400000Y-75862500D02*
X132037500Y-77500000D01*
D37*
X137000000Y-85250000D02*
X137000000Y-81250000D01*
D36*
X117250000Y-87750000D02*
X112350000Y-87750000D01*
X124250000Y-104000000D02*
X127050000Y-104000000D01*
D35*
X132037500Y-78462500D02*
X132037500Y-77500000D01*
D37*
X139150000Y-86000000D02*
X137750000Y-86000000D01*
D36*
X124250000Y-105400000D02*
X127050000Y-105400000D01*
D35*
X130400000Y-72935000D02*
X128570000Y-71105000D01*
D37*
X132750000Y-82750000D02*
X132250000Y-83250000D01*
D36*
X132170000Y-113120000D02*
X132900000Y-113120000D01*
X127050000Y-106800000D02*
X124250000Y-106800000D01*
D35*
X114250000Y-68500000D02*
X116250000Y-68500000D01*
X131000000Y-79500000D02*
X132037500Y-78462500D01*
X130400000Y-75250000D02*
X130400000Y-75862500D01*
D37*
X129762500Y-83250000D02*
X129750000Y-83262500D01*
D35*
X111300000Y-75750000D02*
X109250000Y-77800000D01*
D36*
X127050000Y-104000000D02*
X127050000Y-106800000D01*
X126400000Y-74500000D02*
X127200000Y-74500000D01*
X119000000Y-89500000D02*
X117250000Y-87750000D01*
D35*
X127400000Y-79500000D02*
X129750000Y-79500000D01*
D36*
X135000000Y-113000000D02*
X133020000Y-113000000D01*
D35*
X109250000Y-86400000D02*
X110600000Y-87750000D01*
D36*
X121200000Y-74500000D02*
X120700000Y-75000000D01*
D37*
X138750000Y-112537500D02*
X135462500Y-112537500D01*
D35*
X111300000Y-71450000D02*
X114250000Y-68500000D01*
D36*
X127050000Y-106800000D02*
X127050000Y-108000000D01*
D35*
X116250000Y-68500000D02*
X118355000Y-68500000D01*
D37*
X138750000Y-110462500D02*
X133017500Y-110462500D01*
X138787500Y-110500000D02*
X138750000Y-110462500D01*
X141500000Y-110500000D02*
X138787500Y-110500000D01*
X133017500Y-110462500D02*
X132900000Y-110580000D01*
D36*
X135000000Y-111750000D02*
X133000000Y-111750000D01*
D37*
X140500000Y-111500000D02*
X135301628Y-111500000D01*
D36*
X129362500Y-84950000D02*
X129750000Y-85337500D01*
D37*
X141500000Y-112500000D02*
X140500000Y-111500000D01*
X135301628Y-111500000D02*
X135061226Y-111740402D01*
D36*
X124250000Y-84950000D02*
X121800000Y-84950000D01*
D38*
X124250000Y-78650000D02*
X124250000Y-84950000D01*
D37*
X129787500Y-85300000D02*
X129750000Y-85337500D01*
X139150000Y-87250000D02*
X134675000Y-87250000D01*
D36*
X121800000Y-84950000D02*
X121250000Y-85500000D01*
D37*
X134675000Y-87250000D02*
X132725000Y-85300000D01*
D36*
X133000000Y-111750000D02*
X132900000Y-111850000D01*
D37*
X127750000Y-87337500D02*
X127750000Y-90750000D01*
D36*
X124250000Y-84950000D02*
X129362500Y-84950000D01*
D37*
X127750000Y-90750000D02*
X131250000Y-90750000D01*
X129750000Y-85337500D02*
X127750000Y-87337500D01*
X132725000Y-85300000D02*
X129787500Y-85300000D01*
D35*
X123400000Y-76350000D02*
X121950000Y-77800000D01*
X121950000Y-77800000D02*
X121950000Y-78650000D01*
X122750000Y-73250000D02*
X122679748Y-73250000D01*
X122750000Y-73250000D02*
X121000000Y-73250000D01*
X115250000Y-85750000D02*
X112350000Y-85750000D01*
X129000000Y-74050000D02*
X129000000Y-75250000D01*
X128200000Y-73250000D02*
X129000000Y-74050000D01*
X122679748Y-73250000D02*
X121850000Y-72420252D01*
X128350000Y-76350000D02*
X129500000Y-77500000D01*
X121850000Y-72420252D02*
X121850000Y-71680000D01*
X118500000Y-75750000D02*
X121000000Y-73250000D01*
X128350000Y-76350000D02*
X123400000Y-76350000D01*
X128350000Y-76350000D02*
X129000000Y-75700000D01*
X129000000Y-75250000D02*
X129000000Y-75700000D01*
X126000000Y-73250000D02*
X126000000Y-73200000D01*
X116650000Y-75750000D02*
X116650000Y-84350000D01*
X116650000Y-84350000D02*
X115250000Y-85750000D01*
X126000000Y-73250000D02*
X128200000Y-73250000D01*
X116700000Y-75750000D02*
X118500000Y-75750000D01*
X126650000Y-72550000D02*
X126650000Y-71680000D01*
X126000000Y-73200000D02*
X126650000Y-72550000D01*
X129500000Y-77500000D02*
X129962500Y-77500000D01*
D37*
X124732410Y-72555000D02*
X125000000Y-72287410D01*
X124267590Y-72555000D02*
X124732410Y-72555000D01*
X124000000Y-72287410D02*
X124267590Y-72555000D01*
X124000000Y-71680000D02*
X124000000Y-72287410D01*
X134370000Y-97880000D02*
X132900000Y-97880000D01*
X125000000Y-72287410D02*
X125000000Y-71680000D01*
X134900000Y-97350000D02*
X134370000Y-97880000D01*
X125000000Y-74500000D02*
X125000000Y-75050000D01*
X125000000Y-71680000D02*
X125000000Y-74500000D01*
X125000000Y-75050000D02*
X125500000Y-75550000D01*
X118250000Y-70500000D02*
X116250000Y-70500000D01*
X119250000Y-69500000D02*
X121750000Y-69500000D01*
X121750000Y-69500000D02*
X122500000Y-70250000D01*
X119250000Y-69500000D02*
X118250000Y-70500000D01*
X122500000Y-70250000D02*
X122500000Y-71680000D01*
X123450000Y-74950000D02*
X123450000Y-74500000D01*
X123500000Y-71072590D02*
X123822590Y-70750000D01*
X134140000Y-96610000D02*
X132900000Y-96610000D01*
X124000000Y-75500000D02*
X123450000Y-74950000D01*
X123500000Y-71680000D02*
X123500000Y-71072590D01*
X124500000Y-71000000D02*
X124500000Y-71680000D01*
X123500000Y-74450000D02*
X123450000Y-74500000D01*
X123822590Y-70750000D02*
X124250000Y-70750000D01*
X134500000Y-96250000D02*
X134140000Y-96610000D01*
X123500000Y-71680000D02*
X123500000Y-74450000D01*
X124250000Y-70750000D02*
X124500000Y-71000000D01*
X125500000Y-70250000D02*
X126250000Y-69500000D01*
X125500000Y-71680000D02*
X125500000Y-70250000D01*
X126250000Y-69500000D02*
X131700000Y-69500000D01*
X132900000Y-100420000D02*
X133850000Y-100420000D01*
X133850000Y-100420000D02*
X134760000Y-99510000D01*
X137500000Y-91000000D02*
X139150000Y-91000000D01*
X136350000Y-97920000D02*
X136350000Y-92150000D01*
X136350000Y-92150000D02*
X137500000Y-91000000D01*
X134760000Y-99510000D02*
X136350000Y-97920000D01*
X139150000Y-89750000D02*
X137500000Y-89750000D01*
X134500000Y-92750000D02*
X135750000Y-91500000D01*
X133948529Y-99150000D02*
X135750000Y-97348529D01*
X131250000Y-92750000D02*
X134500000Y-92750000D01*
X133948529Y-99150000D02*
X132900000Y-99150000D01*
X137500000Y-89750000D02*
X135750000Y-91500000D01*
X135750000Y-91500000D02*
X135750000Y-97348529D01*
X136750000Y-93000000D02*
X137500000Y-92250000D01*
X137500000Y-92250000D02*
X139150000Y-92250000D01*
X136750000Y-99250000D02*
X136750000Y-93000000D01*
X134750000Y-101250000D02*
X136750000Y-99250000D01*
X134310000Y-101690000D02*
X134750000Y-101250000D01*
X132900000Y-101690000D02*
X134310000Y-101690000D01*
X133850000Y-91650000D02*
X137000000Y-88500000D01*
X128850000Y-91650000D02*
X127750000Y-92750000D01*
X133850000Y-91650000D02*
X128850000Y-91650000D01*
X128595000Y-93595000D02*
X128595000Y-95360000D01*
X127750000Y-92750000D02*
X128595000Y-93595000D01*
X137000000Y-88500000D02*
X139150000Y-88500000D01*
X137375000Y-106125000D02*
X139150000Y-106125000D01*
X132900000Y-109310000D02*
X134190000Y-109310000D01*
X134190000Y-109310000D02*
X137375000Y-106125000D01*
X134290000Y-102960000D02*
X137375000Y-99875000D01*
X132900000Y-102960000D02*
X134290000Y-102960000D01*
X137375000Y-99875000D02*
X139150000Y-99875000D01*
X132900000Y-108040000D02*
X134210000Y-108040000D01*
X134210000Y-108040000D02*
X137375000Y-104875000D01*
X137375000Y-104875000D02*
X139150000Y-104875000D01*
X134270000Y-104230000D02*
X137375000Y-101125000D01*
X132900000Y-104230000D02*
X134270000Y-104230000D01*
X137375000Y-101125000D02*
X139150000Y-101125000D01*
X132900000Y-105500000D02*
X134500000Y-105500000D01*
X137625000Y-102375000D02*
X139150000Y-102375000D01*
X134500000Y-105500000D02*
X137625000Y-102375000D01*
X113850000Y-97750000D02*
X113980000Y-97880000D01*
X115500000Y-83750000D02*
X112350000Y-83750000D01*
X113980000Y-97880000D02*
X115400000Y-97880000D01*
X132900000Y-106770000D02*
X134230000Y-106770000D01*
X134230000Y-106770000D02*
X137375000Y-103625000D01*
X137375000Y-103625000D02*
X139150000Y-103625000D01*
X134750000Y-82750000D02*
X134750000Y-85275000D01*
X134750000Y-85275000D02*
X134775000Y-85300000D01*
M02*
