G04 #@! TF.GenerationSoftware,KiCad,Pcbnew,9.0.2*
G04 #@! TF.CreationDate,2025-05-28T22:13:06-05:00*
G04 #@! TF.ProjectId,mainboard,6d61696e-626f-4617-9264-2e6b69636164,rev?*
G04 #@! TF.SameCoordinates,Original*
G04 #@! TF.FileFunction,Legend,Bot*
G04 #@! TF.FilePolarity,Positive*
%FSLAX46Y46*%
G04 Gerber Fmt 4.6, Leading zero omitted, Abs format (unit mm)*
G04 Created by KiCad (PCBNEW 9.0.2) date 2025-05-28 22:13:06*
%MOMM*%
%LPD*%
G01*
G04 APERTURE LIST*
G04 Aperture macros list*
%AMRoundRect*
0 Rectangle with rounded corners*
0 $1 Rounding radius*
0 $2 $3 $4 $5 $6 $7 $8 $9 X,Y pos of 4 corners*
0 Add a 4 corners polygon primitive as box body*
4,1,4,$2,$3,$4,$5,$6,$7,$8,$9,$2,$3,0*
0 Add four circle primitives for the rounded corners*
1,1,$1+$1,$2,$3*
1,1,$1+$1,$4,$5*
1,1,$1+$1,$6,$7*
1,1,$1+$1,$8,$9*
0 Add four rect primitives between the rounded corners*
20,1,$1+$1,$2,$3,$4,$5,0*
20,1,$1+$1,$4,$5,$6,$7,0*
20,1,$1+$1,$6,$7,$8,$9,0*
20,1,$1+$1,$8,$9,$2,$3,0*%
G04 Aperture macros list end*
%ADD10C,0.150000*%
%ADD11C,0.120000*%
%ADD12C,2.200000*%
%ADD13C,0.650000*%
%ADD14O,1.000000X2.100000*%
%ADD15O,1.000000X1.800000*%
%ADD16RoundRect,0.250000X-0.475000X0.337500X-0.475000X-0.337500X0.475000X-0.337500X0.475000X0.337500X0*%
%ADD17RoundRect,0.250000X0.350000X0.450000X-0.350000X0.450000X-0.350000X-0.450000X0.350000X-0.450000X0*%
%ADD18RoundRect,0.250000X-0.450000X0.350000X-0.450000X-0.350000X0.450000X-0.350000X0.450000X0.350000X0*%
%ADD19RoundRect,0.250000X-0.350000X-0.450000X0.350000X-0.450000X0.350000X0.450000X-0.350000X0.450000X0*%
G04 APERTURE END LIST*
D10*
X137916666Y-109109580D02*
X137964285Y-109157200D01*
X137964285Y-109157200D02*
X138107142Y-109204819D01*
X138107142Y-109204819D02*
X138202380Y-109204819D01*
X138202380Y-109204819D02*
X138345237Y-109157200D01*
X138345237Y-109157200D02*
X138440475Y-109061961D01*
X138440475Y-109061961D02*
X138488094Y-108966723D01*
X138488094Y-108966723D02*
X138535713Y-108776247D01*
X138535713Y-108776247D02*
X138535713Y-108633390D01*
X138535713Y-108633390D02*
X138488094Y-108442914D01*
X138488094Y-108442914D02*
X138440475Y-108347676D01*
X138440475Y-108347676D02*
X138345237Y-108252438D01*
X138345237Y-108252438D02*
X138202380Y-108204819D01*
X138202380Y-108204819D02*
X138107142Y-108204819D01*
X138107142Y-108204819D02*
X137964285Y-108252438D01*
X137964285Y-108252438D02*
X137916666Y-108300057D01*
X136964285Y-109204819D02*
X137535713Y-109204819D01*
X137249999Y-109204819D02*
X137249999Y-108204819D01*
X137249999Y-108204819D02*
X137345237Y-108347676D01*
X137345237Y-108347676D02*
X137440475Y-108442914D01*
X137440475Y-108442914D02*
X137535713Y-108490533D01*
X126916666Y-102704819D02*
X127249999Y-102228628D01*
X127488094Y-102704819D02*
X127488094Y-101704819D01*
X127488094Y-101704819D02*
X127107142Y-101704819D01*
X127107142Y-101704819D02*
X127011904Y-101752438D01*
X127011904Y-101752438D02*
X126964285Y-101800057D01*
X126964285Y-101800057D02*
X126916666Y-101895295D01*
X126916666Y-101895295D02*
X126916666Y-102038152D01*
X126916666Y-102038152D02*
X126964285Y-102133390D01*
X126964285Y-102133390D02*
X127011904Y-102181009D01*
X127011904Y-102181009D02*
X127107142Y-102228628D01*
X127107142Y-102228628D02*
X127488094Y-102228628D01*
X126583332Y-101704819D02*
X125916666Y-101704819D01*
X125916666Y-101704819D02*
X126345237Y-102704819D01*
X129666666Y-109609580D02*
X129714285Y-109657200D01*
X129714285Y-109657200D02*
X129857142Y-109704819D01*
X129857142Y-109704819D02*
X129952380Y-109704819D01*
X129952380Y-109704819D02*
X130095237Y-109657200D01*
X130095237Y-109657200D02*
X130190475Y-109561961D01*
X130190475Y-109561961D02*
X130238094Y-109466723D01*
X130238094Y-109466723D02*
X130285713Y-109276247D01*
X130285713Y-109276247D02*
X130285713Y-109133390D01*
X130285713Y-109133390D02*
X130238094Y-108942914D01*
X130238094Y-108942914D02*
X130190475Y-108847676D01*
X130190475Y-108847676D02*
X130095237Y-108752438D01*
X130095237Y-108752438D02*
X129952380Y-108704819D01*
X129952380Y-108704819D02*
X129857142Y-108704819D01*
X129857142Y-108704819D02*
X129714285Y-108752438D01*
X129714285Y-108752438D02*
X129666666Y-108800057D01*
X129285713Y-108800057D02*
X129238094Y-108752438D01*
X129238094Y-108752438D02*
X129142856Y-108704819D01*
X129142856Y-108704819D02*
X128904761Y-108704819D01*
X128904761Y-108704819D02*
X128809523Y-108752438D01*
X128809523Y-108752438D02*
X128761904Y-108800057D01*
X128761904Y-108800057D02*
X128714285Y-108895295D01*
X128714285Y-108895295D02*
X128714285Y-108990533D01*
X128714285Y-108990533D02*
X128761904Y-109133390D01*
X128761904Y-109133390D02*
X129333332Y-109704819D01*
X129333332Y-109704819D02*
X128714285Y-109704819D01*
X126666666Y-109609580D02*
X126714285Y-109657200D01*
X126714285Y-109657200D02*
X126857142Y-109704819D01*
X126857142Y-109704819D02*
X126952380Y-109704819D01*
X126952380Y-109704819D02*
X127095237Y-109657200D01*
X127095237Y-109657200D02*
X127190475Y-109561961D01*
X127190475Y-109561961D02*
X127238094Y-109466723D01*
X127238094Y-109466723D02*
X127285713Y-109276247D01*
X127285713Y-109276247D02*
X127285713Y-109133390D01*
X127285713Y-109133390D02*
X127238094Y-108942914D01*
X127238094Y-108942914D02*
X127190475Y-108847676D01*
X127190475Y-108847676D02*
X127095237Y-108752438D01*
X127095237Y-108752438D02*
X126952380Y-108704819D01*
X126952380Y-108704819D02*
X126857142Y-108704819D01*
X126857142Y-108704819D02*
X126714285Y-108752438D01*
X126714285Y-108752438D02*
X126666666Y-108800057D01*
X126333332Y-108704819D02*
X125714285Y-108704819D01*
X125714285Y-108704819D02*
X126047618Y-109085771D01*
X126047618Y-109085771D02*
X125904761Y-109085771D01*
X125904761Y-109085771D02*
X125809523Y-109133390D01*
X125809523Y-109133390D02*
X125761904Y-109181009D01*
X125761904Y-109181009D02*
X125714285Y-109276247D01*
X125714285Y-109276247D02*
X125714285Y-109514342D01*
X125714285Y-109514342D02*
X125761904Y-109609580D01*
X125761904Y-109609580D02*
X125809523Y-109657200D01*
X125809523Y-109657200D02*
X125904761Y-109704819D01*
X125904761Y-109704819D02*
X126190475Y-109704819D01*
X126190475Y-109704819D02*
X126285713Y-109657200D01*
X126285713Y-109657200D02*
X126333332Y-109609580D01*
X140166666Y-109204819D02*
X140499999Y-108728628D01*
X140738094Y-109204819D02*
X140738094Y-108204819D01*
X140738094Y-108204819D02*
X140357142Y-108204819D01*
X140357142Y-108204819D02*
X140261904Y-108252438D01*
X140261904Y-108252438D02*
X140214285Y-108300057D01*
X140214285Y-108300057D02*
X140166666Y-108395295D01*
X140166666Y-108395295D02*
X140166666Y-108538152D01*
X140166666Y-108538152D02*
X140214285Y-108633390D01*
X140214285Y-108633390D02*
X140261904Y-108681009D01*
X140261904Y-108681009D02*
X140357142Y-108728628D01*
X140357142Y-108728628D02*
X140738094Y-108728628D01*
X139214285Y-109204819D02*
X139785713Y-109204819D01*
X139499999Y-109204819D02*
X139499999Y-108204819D01*
X139499999Y-108204819D02*
X139595237Y-108347676D01*
X139595237Y-108347676D02*
X139690475Y-108442914D01*
X139690475Y-108442914D02*
X139785713Y-108490533D01*
X126916666Y-100204819D02*
X127249999Y-99728628D01*
X127488094Y-100204819D02*
X127488094Y-99204819D01*
X127488094Y-99204819D02*
X127107142Y-99204819D01*
X127107142Y-99204819D02*
X127011904Y-99252438D01*
X127011904Y-99252438D02*
X126964285Y-99300057D01*
X126964285Y-99300057D02*
X126916666Y-99395295D01*
X126916666Y-99395295D02*
X126916666Y-99538152D01*
X126916666Y-99538152D02*
X126964285Y-99633390D01*
X126964285Y-99633390D02*
X127011904Y-99681009D01*
X127011904Y-99681009D02*
X127107142Y-99728628D01*
X127107142Y-99728628D02*
X127488094Y-99728628D01*
X126059523Y-99204819D02*
X126249999Y-99204819D01*
X126249999Y-99204819D02*
X126345237Y-99252438D01*
X126345237Y-99252438D02*
X126392856Y-99300057D01*
X126392856Y-99300057D02*
X126488094Y-99442914D01*
X126488094Y-99442914D02*
X126535713Y-99633390D01*
X126535713Y-99633390D02*
X126535713Y-100014342D01*
X126535713Y-100014342D02*
X126488094Y-100109580D01*
X126488094Y-100109580D02*
X126440475Y-100157200D01*
X126440475Y-100157200D02*
X126345237Y-100204819D01*
X126345237Y-100204819D02*
X126154761Y-100204819D01*
X126154761Y-100204819D02*
X126059523Y-100157200D01*
X126059523Y-100157200D02*
X126011904Y-100109580D01*
X126011904Y-100109580D02*
X125964285Y-100014342D01*
X125964285Y-100014342D02*
X125964285Y-99776247D01*
X125964285Y-99776247D02*
X126011904Y-99681009D01*
X126011904Y-99681009D02*
X126059523Y-99633390D01*
X126059523Y-99633390D02*
X126154761Y-99585771D01*
X126154761Y-99585771D02*
X126345237Y-99585771D01*
X126345237Y-99585771D02*
X126440475Y-99633390D01*
X126440475Y-99633390D02*
X126488094Y-99681009D01*
X126488094Y-99681009D02*
X126535713Y-99776247D01*
D11*
X137015000Y-111238748D02*
X137015000Y-111761252D01*
X138485000Y-111238748D02*
X138485000Y-111761252D01*
X129977064Y-101515000D02*
X129522936Y-101515000D01*
X129977064Y-102985000D02*
X129522936Y-102985000D01*
X128765000Y-111738748D02*
X128765000Y-112261252D01*
X130235000Y-111738748D02*
X130235000Y-112261252D01*
X125765000Y-111738748D02*
X125765000Y-112261252D01*
X127235000Y-111738748D02*
X127235000Y-112261252D01*
X139265000Y-111272936D02*
X139265000Y-111727064D01*
X140735000Y-111272936D02*
X140735000Y-111727064D01*
X129522936Y-99015000D02*
X129977064Y-99015000D01*
X129522936Y-100485000D02*
X129977064Y-100485000D01*
%LPC*%
D12*
X140250000Y-117250000D03*
D13*
X127140000Y-70605000D03*
X121360000Y-70605000D03*
D14*
X128570000Y-71105000D03*
D15*
X128570000Y-66925000D03*
D14*
X119930000Y-71105000D03*
D15*
X119930000Y-66925000D03*
D12*
X108250000Y-68250000D03*
X108250000Y-117250000D03*
X140250000Y-68250000D03*
D16*
X137750000Y-110462500D03*
X137750000Y-112537500D03*
D17*
X130750000Y-102250000D03*
X128750000Y-102250000D03*
D16*
X129500000Y-110962500D03*
X129500000Y-113037500D03*
X126500000Y-110962500D03*
X126500000Y-113037500D03*
D18*
X140000000Y-110500000D03*
X140000000Y-112500000D03*
D19*
X128750000Y-99750000D03*
X130750000Y-99750000D03*
%LPD*%
M02*
