G04 #@! TF.GenerationSoftware,KiCad,Pcbnew,9.0.2*
G04 #@! TF.CreationDate,2025-05-28T22:13:06-05:00*
G04 #@! TF.ProjectId,mainboard,6d61696e-626f-4617-9264-2e6b69636164,rev?*
G04 #@! TF.SameCoordinates,Original*
G04 #@! TF.FileFunction,Copper,L2,Bot*
G04 #@! TF.FilePolarity,Positive*
%FSLAX46Y46*%
G04 Gerber Fmt 4.6, Leading zero omitted, Abs format (unit mm)*
G04 Created by KiCad (PCBNEW 9.0.2) date 2025-05-28 22:13:06*
%MOMM*%
%LPD*%
G01*
G04 APERTURE LIST*
G04 Aperture macros list*
%AMRoundRect*
0 Rectangle with rounded corners*
0 $1 Rounding radius*
0 $2 $3 $4 $5 $6 $7 $8 $9 X,Y pos of 4 corners*
0 Add a 4 corners polygon primitive as box body*
4,1,4,$2,$3,$4,$5,$6,$7,$8,$9,$2,$3,0*
0 Add four circle primitives for the rounded corners*
1,1,$1+$1,$2,$3*
1,1,$1+$1,$4,$5*
1,1,$1+$1,$6,$7*
1,1,$1+$1,$8,$9*
0 Add four rect primitives between the rounded corners*
20,1,$1+$1,$2,$3,$4,$5,0*
20,1,$1+$1,$4,$5,$6,$7,0*
20,1,$1+$1,$6,$7,$8,$9,0*
20,1,$1+$1,$8,$9,$2,$3,0*%
G04 Aperture macros list end*
G04 #@! TA.AperFunction,HeatsinkPad*
%ADD10O,1.000000X2.100000*%
G04 #@! TD*
G04 #@! TA.AperFunction,HeatsinkPad*
%ADD11O,1.000000X1.800000*%
G04 #@! TD*
G04 #@! TA.AperFunction,SMDPad,CuDef*
%ADD12RoundRect,0.250000X-0.475000X0.337500X-0.475000X-0.337500X0.475000X-0.337500X0.475000X0.337500X0*%
G04 #@! TD*
G04 #@! TA.AperFunction,SMDPad,CuDef*
%ADD13RoundRect,0.250000X0.350000X0.450000X-0.350000X0.450000X-0.350000X-0.450000X0.350000X-0.450000X0*%
G04 #@! TD*
G04 #@! TA.AperFunction,SMDPad,CuDef*
%ADD14RoundRect,0.250000X-0.450000X0.350000X-0.450000X-0.350000X0.450000X-0.350000X0.450000X0.350000X0*%
G04 #@! TD*
G04 #@! TA.AperFunction,SMDPad,CuDef*
%ADD15RoundRect,0.250000X-0.350000X-0.450000X0.350000X-0.450000X0.350000X0.450000X-0.350000X0.450000X0*%
G04 #@! TD*
G04 #@! TA.AperFunction,ViaPad*
%ADD16C,0.600000*%
G04 #@! TD*
G04 #@! TA.AperFunction,ViaPad*
%ADD17C,0.800000*%
G04 #@! TD*
G04 #@! TA.AperFunction,Conductor*
%ADD18C,0.400000*%
G04 #@! TD*
G04 #@! TA.AperFunction,Conductor*
%ADD19C,0.200000*%
G04 #@! TD*
G04 #@! TA.AperFunction,Conductor*
%ADD20C,0.600000*%
G04 #@! TD*
G04 APERTURE END LIST*
D10*
X128570000Y-71105000D03*
D11*
X128570000Y-66925000D03*
D10*
X119930000Y-71105000D03*
D11*
X119930000Y-66925000D03*
D12*
X137750000Y-110462500D03*
X137750000Y-112537500D03*
D13*
X130750000Y-102250000D03*
X128750000Y-102250000D03*
D12*
X129500000Y-110962500D03*
X129500000Y-113037500D03*
X126500000Y-110962500D03*
X126500000Y-113037500D03*
D14*
X140000000Y-110500000D03*
X140000000Y-112500000D03*
D15*
X128750000Y-99750000D03*
X130750000Y-99750000D03*
D16*
X122125000Y-84375000D03*
X120750000Y-75000000D03*
X135000000Y-113000000D03*
X127700000Y-75000000D03*
X135250000Y-111000000D03*
X136000000Y-114250000D03*
X113000000Y-88250000D03*
X129401000Y-90750000D03*
D17*
X126000000Y-73250000D03*
X122750000Y-73250000D03*
D16*
X134750000Y-97500000D03*
X125500000Y-75550000D03*
X124000000Y-75500000D03*
X134500000Y-96250000D03*
X134760000Y-99510000D03*
X134750000Y-101250000D03*
D18*
X121500000Y-85000000D02*
X122125000Y-84375000D01*
D19*
X128750000Y-99750000D02*
X124000000Y-99750000D01*
D18*
X120750000Y-75000000D02*
X119930000Y-74180000D01*
D20*
X119930000Y-66925000D02*
X119930000Y-71105000D01*
D18*
X122500000Y-84000000D02*
X122125000Y-84375000D01*
X126500000Y-110962500D02*
X123212500Y-110962500D01*
D19*
X135000000Y-113000000D02*
X135462500Y-112537500D01*
D18*
X128570000Y-74130000D02*
X128570000Y-71105000D01*
X122500000Y-76750000D02*
X122500000Y-84000000D01*
X133250000Y-113000000D02*
X135000000Y-113000000D01*
X129500000Y-110962500D02*
X131212500Y-110962500D01*
X121500000Y-109250000D02*
X121500000Y-97250000D01*
D19*
X124000000Y-99750000D02*
X121500000Y-97250000D01*
X135462500Y-112537500D02*
X137750000Y-112537500D01*
D18*
X127700000Y-75000000D02*
X128570000Y-74130000D01*
X121500000Y-97250000D02*
X121500000Y-85000000D01*
X120750000Y-75000000D02*
X122500000Y-76750000D01*
X129500000Y-110962500D02*
X126500000Y-110962500D01*
D20*
X128570000Y-66925000D02*
X128570000Y-71105000D01*
D18*
X131212500Y-110962500D02*
X133250000Y-113000000D01*
X119930000Y-74180000D02*
X119930000Y-71105000D01*
X123212500Y-110962500D02*
X121500000Y-109250000D01*
D20*
X119930000Y-66925000D02*
X128570000Y-66925000D01*
D19*
X135250000Y-111000000D02*
X135500000Y-111000000D01*
X135500000Y-111000000D02*
X136000000Y-110500000D01*
X136000000Y-110500000D02*
X140000000Y-110500000D01*
D18*
X113000000Y-94500000D02*
X119750000Y-101250000D01*
D19*
X128750000Y-102250000D02*
X128750000Y-106000000D01*
X140000000Y-112500000D02*
X140000000Y-113250000D01*
D18*
X130712500Y-114250000D02*
X136000000Y-114250000D01*
D19*
X139000000Y-114250000D02*
X136000000Y-114250000D01*
X128750000Y-106000000D02*
X134351000Y-111601000D01*
D18*
X126500000Y-113037500D02*
X129500000Y-113037500D01*
X129500000Y-113037500D02*
X130712500Y-114250000D01*
X123787500Y-113037500D02*
X126500000Y-113037500D01*
X119750000Y-109000000D02*
X123787500Y-113037500D01*
D19*
X129651000Y-91000000D02*
X129651000Y-101349000D01*
X129401000Y-90750000D02*
X129651000Y-91000000D01*
D18*
X113000000Y-88250000D02*
X113000000Y-94500000D01*
X119750000Y-101250000D02*
X119750000Y-109000000D01*
D19*
X134351000Y-111601000D02*
X139101000Y-111601000D01*
X129651000Y-101349000D02*
X128750000Y-102250000D01*
X140000000Y-113250000D02*
X139000000Y-114250000D01*
X139101000Y-111601000D02*
X140000000Y-112500000D01*
D20*
X122750000Y-73250000D02*
X126000000Y-73250000D01*
D19*
X125500000Y-75550000D02*
X125550000Y-75600000D01*
X135250000Y-77750000D02*
X135250000Y-97000000D01*
X135250000Y-97000000D02*
X134750000Y-97500000D01*
X125550000Y-75600000D02*
X133100000Y-75600000D01*
X133100000Y-75600000D02*
X135250000Y-77750000D01*
X124650000Y-76150000D02*
X124000000Y-75500000D01*
X134500000Y-77750000D02*
X132900000Y-76150000D01*
X132900000Y-76150000D02*
X124650000Y-76150000D01*
X134500000Y-96250000D02*
X134500000Y-77750000D01*
X134760000Y-99510000D02*
X134520000Y-99750000D01*
X134520000Y-99750000D02*
X130750000Y-99750000D01*
X133750000Y-102250000D02*
X130750000Y-102250000D01*
X134750000Y-101250000D02*
X133750000Y-102250000D01*
M02*
