M48
; DRILL file {KiCad 8.0.8} date 2025-01-22T20:31:05-0600
; FORMAT={-:-/ absolute / metric / decimal}
; #@! TF.CreationDate,2025-01-22T20:31:05-06:00
; #@! TF.GenerationSoftware,Kicad,Pcbnew,8.0.8
; #@! TF.FileFunction,Plated,1,2,PTH
FMAT,2
METRIC
; #@! TA.AperFunction,Plated,PTH,ViaDrill
T1C0.300
; #@! TA.AperFunction,Plated,PTH,ViaDrill
T2C0.500
; #@! TA.AperFunction,Plated,PTH,ComponentDrill
T3C0.600
%
G90
G05
T1
X113.85Y-97.75
X115.5Y-83.75
X119.0Y-89.5
X120.25Y-91.0
X120.75Y-75.0
X121.25Y-85.5
X121.25Y-89.5
X124.75Y-89.5
X124.75Y-91.9
X124.75Y-93.25
X126.0Y-90.5
X126.0Y-93.25
X127.25Y-90.7
X127.25Y-93.25
X127.7Y-75.0
X128.5Y-88.85
X128.5Y-91.25
X128.5Y-93.25
X132.0Y-89.4
X132.0Y-91.4
X134.5Y-87.65
X134.5Y-96.25
X134.5Y-97.75
X134.75Y-99.15
X134.75Y-105.5
X134.75Y-106.77
X134.75Y-108.04
X135.0Y-113.0
X135.061Y-111.74
X135.253Y-87.38
X136.0Y-88.15
X136.0Y-101.0
X136.0Y-105.5
X137.25Y-91.0
X137.25Y-99.5
T2
X122.75Y-73.25
X126.0Y-73.25
T3
X119.93Y-67.325G85X119.93Y-66.525
G05
X119.93Y-71.655G85X119.93Y-70.555
G05
X128.57Y-67.325G85X128.57Y-66.525
G05
X128.57Y-71.655G85X128.57Y-70.555
G05
M30
