0
SECTION
2
HEADER
9
$INSUNITS
70
4
9
$ACADVER
1
AC1014
9
$HANDSEED
5
FFFF
0
ENDSEC
0
SECTION
2
TABLES
0
TABLE
2
VPORT
5
8
100
AcDbSymbolTable
0
ENDTAB
0
TABLE
2
LTYPE
5
5
100
AcDbSymbolTable
0
LTYPE
5
14
100
AcDbSymbolTableRecord
100
AcDbLinetypeTableRecord
2
BYBLOCK
70
0
0
LTYPE
5
15
100
AcDbSymbolTableRecord
100
AcDbLinetypeTableRecord
2
BYLAYER
70
0
0
LTYPE
5
16
100
AcDbSymbolTableRecord
100
AcDbLinetypeTableRecord
2
DASHED
70
0
3
Dashed __ __ __ __ __ __ __ __ __ __ __ __ __ _
72
65
73
2
40
0.75
49
0.5
74
0
49
-0.25
74
0
0
ENDTAB
0
TABLE
2
LAYER
5
2
100
AcDbSymbolTable
70
3
0
LAYER
5
50
100
AcDbSymbolTableRecord
100
AcDbLayerTableRecord
2
1
70
0
62
7
6
DASHED
0
LAYER
5
51
100
AcDbSymbolTableRecord
100
AcDbLayerTableRecord
2
0
70
0
62
7
6
CONTINUOUS
0
ENDTAB
0
TABLE
2
STYLE
5
3
100
AcDbSymbolTable
70
1
0
STYLE
5
11
100
AcDbSymbolTableRecord
100
AcDbTextStyleTableRecord
2
STANDARD
70
0
0
ENDTAB
0
TABLE
2
VIEW
5
6
100
AcDbSymbolTable
70
0
0
ENDTAB
0
TABLE
2
UCS
5
7
100
AcDbSymbolTable
70
0
0
ENDTAB
0
TABLE
2
APPID
5
9
100
AcDbSymbolTable
70
2
0
APPID
5
12
100
AcDbSymbolTableRecord
100
AcDbRegAppTableRecord
2
ACAD
70
0
0
ENDTAB
0
TABLE
2
DIMSTYLE
5
A
100
AcDbSymbolTable
70
1
0
ENDTAB
0
TABLE
2
BLOCK_RECORD
5
1
100
AcDbSymbolTable
70
1
0
BLOCK_RECORD
5
1F
100
AcDbSymbolTableRecord
100
AcDbBlockTableRecord
2
*MODEL_SPACE
0
BLOCK_RECORD
5
1B
100
AcDbSymbolTableRecord
100
AcDbBlockTableRecord
2
*PAPER_SPACE
0
ENDTAB
0
ENDSEC
0
SECTION
2
BLOCKS
0
BLOCK
5
20
100
AcDbEntity
100
AcDbBlockBegin
2
*MODEL_SPACE
0
ENDBLK
5
21
100
AcDbEntity
100
AcDbBlockEnd
0
BLOCK
5
1C
100
AcDbEntity
100
AcDbBlockBegin
2
*PAPER_SPACE
0
ENDBLK
5
1D
100
AcDbEntity
100
AcDbBlockEnd
0
ENDSEC
0
SECTION
2
ENTITIES
0
LWPOLYLINE
5
100
100
AcDbEntity
8
0
100
AcDbPolyline
90
4
70
1
43
0.0
10
230.50000000000006
20
-61.5
10
230.50000000000006
20
56.5
10
-230.50000000000006
20
56.5
10
-230.50000000000006
20
-61.5
0
LINE
5
101
100
AcDbEntity
8
1
100
AcDbLine
10
230.50000000000006
20
46.5
30
0
11
-230.50000000000006
21
46.5
31
0
0
LINE
5
102
100
AcDbEntity
8
1
100
AcDbLine
10
230.50000000000006
20
-46.5
30
0
11
-230.50000000000006
21
-46.5
31
0
0
LINE
5
103
100
AcDbEntity
8
0
100
AcDbLine
10
230.50000000000006
20
-61.5
30
0
11
206.49999999999977
21
-61.5
31
0
0
LWPOLYLINE
5
104
100
AcDbEntity
8
0
100
AcDbPolyline
90
8
70
1
43
0.0
10
204.50000000000003
20
-58.499999999997897
10
204.5
20
50
42
0.99999999999999989
10
201.50000000000003
20
50
10
201.50000000000003
20
-58.499999999997897
10
200.01823339874676
20
-60.722649901887635
42
0.59902153833849203
10
200.43425854591624
20
-61.499999999999929
10
205.56574145409118
20
-61.5
42
0.59902153834067429
10
205.98176660125799
20
-60.722649901884537
0
LINE
5
105
100
AcDbEntity
8
0
100
AcDbLine
10
230.50000000000006
20
-61.5
30
0
11
230.50000000000006
21
56.5
31
0
0
LINE
5
106
100
AcDbEntity
8
0
100
AcDbLine
10
230.50000000000006
20
56.5
30
0
11
-230.50000000000006
21
56.5
31
0
0
LINE
5
107
100
AcDbEntity
8
0
100
AcDbLine
10
-230.50000000000006
20
56.5
30
0
11
-230.50000000000006
21
-61.5
31
0
0
LINE
5
108
100
AcDbEntity
8
0
100
AcDbLine
10
-230.50000000000006
20
-61.5
30
0
11
199.49999999999983
21
-61.5
31
0
0
LINE
5
109
100
AcDbEntity
8
0
100
AcDbLine
10
206.49999999999977
20
-61.499999999999993
30
0
11
205.98176660125799
21
-60.722649901884523
31
0
0
LINE
5
110
100
AcDbEntity
8
0
100
AcDbLine
10
206.49999999999977
20
-61.5
30
0
11
205.56574145409118
21
-61.5
31
0
0
LINE
5
111
100
AcDbEntity
8
0
100
AcDbLine
10
199.49999999999983
20
-61.5
30
0
11
200.01823339874673
21
-60.722649901887635
31
0
0
LINE
5
112
100
AcDbEntity
8
0
100
AcDbLine
10
199.49999999999983
20
-61.5
30
0
11
200.43425854591624
21
-61.499999999999929
31
0
0
LINE
5
113
100
AcDbEntity
8
0
100
AcDbLine
10
177.49999999999977
20
-61.499999999999993
30
0
11
176.98176660125796
21
-60.722649901884523
31
0
0
ARC
5
114
100
AcDbEntity
8
0
100
AcDbCircle
10
176.56574145409095
20
-61
30
0
40
0.50000000000000711
210
0
220
0
230
1
100
AcDbArc
50
-89.999999999977206
51
33.69006752637317
0
LINE
5
115
100
AcDbEntity
8
0
100
AcDbLine
10
176.98176660125796
20
-60.722649901884537
30
0
11
175.50000000000006
21
-58.499999999997897
31
0
0
LINE
5
116
100
AcDbEntity
8
0
100
AcDbLine
10
172.5
20
-58.499999999997897
30
0
11
171.01823339874676
21
-60.722649901887635
31
0
0
LINE
5
117
100
AcDbEntity
8
0
100
AcDbLine
10
170.49999999999983
20
-61.5
30
0
11
171.01823339874673
21
-60.722649901887635
31
0
0
ARC
5
118
100
AcDbEntity
8
0
100
AcDbCircle
10
171.43425854591587
20
-60.999999999999908
30
0
40
0.49999999999995942
210
0
220
0
230
1
100
AcDbArc
50
146.30993247406471
51
270.00000000004559
0
LINE
5
119
100
AcDbEntity
8
0
100
AcDbLine
10
172.5
20
50
30
0
11
172.5
21
-58.499999999997897
31
0
0
LINE
5
120
100
AcDbEntity
8
0
100
AcDbLine
10
175.50000000000006
20
-58.499999999997897
30
0
11
175.49999999999997
21
50
31
0
0
ARC
5
121
100
AcDbEntity
8
0
100
AcDbCircle
10
174
20
50
30
0
40
1.4999999999999858
210
0
220
0
230
1
100
AcDbArc
50
0
51
180
0
LINE
5
122
100
AcDbEntity
8
0
100
AcDbLine
10
148.49999999999977
20
-61.499999999999993
30
0
11
147.98176660125796
21
-60.722649901884523
31
0
0
ARC
5
123
100
AcDbEntity
8
0
100
AcDbCircle
10
147.56574145409093
20
-61
30
0
40
0.50000000000000711
210
0
220
0
230
1
100
AcDbArc
50
-89.999999999970697
51
33.690067526371372
0
LINE
5
124
100
AcDbEntity
8
0
100
AcDbLine
10
147.98176660125796
20
-60.722649901884537
30
0
11
146.50000000000003
21
-58.499999999997897
31
0
0
LINE
5
125
100
AcDbEntity
8
0
100
AcDbLine
10
143.5
20
-58.499999999997897
30
0
11
142.01823339874676
21
-60.722649901887635
31
0
0
LINE
5
126
100
AcDbEntity
8
0
100
AcDbLine
10
141.4999999999998
20
-61.5
30
0
11
142.0182333987467
21
-60.722649901887635
31
0
0
ARC
5
127
100
AcDbEntity
8
0
100
AcDbCircle
10
142.4342585459159
20
-60.999999999999908
30
0
40
0.50000000000000366
210
0
220
0
230
1
100
AcDbArc
50
146.30993247406653
51
270.00000000003905
0
LINE
5
128
100
AcDbEntity
8
0
100
AcDbLine
10
143.5
20
50
30
0
11
143.5
21
-58.499999999997897
31
0
0
LINE
5
129
100
AcDbEntity
8
0
100
AcDbLine
10
146.50000000000003
20
-58.499999999997897
30
0
11
146.5
21
50
31
0
0
ARC
5
130
100
AcDbEntity
8
0
100
AcDbCircle
10
145
20
50
30
0
40
1.4999999999999858
210
0
220
0
230
1
100
AcDbArc
50
0
51
180
0
LINE
5
131
100
AcDbEntity
8
0
100
AcDbLine
10
119.49999999999976
20
-61.499999999999993
30
0
11
118.98176660125797
21
-60.722649901884523
31
0
0
ARC
5
132
100
AcDbEntity
8
0
100
AcDbCircle
10
118.56574145409093
20
-61
30
0
40
0.50000000000000711
210
0
220
0
230
1
100
AcDbArc
50
-89.999999999970697
51
33.690067526370449
0
LINE
5
133
100
AcDbEntity
8
0
100
AcDbLine
10
118.98176660125797
20
-60.722649901884537
30
0
11
117.50000000000001
21
-58.499999999997897
31
0
0
LINE
5
134
100
AcDbEntity
8
0
100
AcDbLine
10
114.50000000000001
20
-58.499999999997897
30
0
11
113.01823339874674
21
-60.722649901887635
31
0
0
LINE
5
135
100
AcDbEntity
8
0
100
AcDbLine
10
112.49999999999979
20
-61.5
30
0
11
113.01823339874672
21
-60.722649901887635
31
0
0
ARC
5
136
100
AcDbEntity
8
0
100
AcDbCircle
10
113.4342585459159
20
-60.999999999999908
30
0
40
0.50000000000000366
210
0
220
0
230
1
100
AcDbArc
50
146.30993247406741
51
270.00000000003905
0
LINE
5
137
100
AcDbEntity
8
0
100
AcDbLine
10
114.50000000000001
20
50
30
0
11
114.50000000000001
21
-58.499999999997897
31
0
0
LINE
5
138
100
AcDbEntity
8
0
100
AcDbLine
10
117.50000000000001
20
-58.499999999997897
30
0
11
117.49999999999999
21
50
31
0
0
ARC
5
139
100
AcDbEntity
8
0
100
AcDbCircle
10
116
20
50
30
0
40
1.4999999999999858
210
0
220
0
230
1
100
AcDbArc
50
0
51
180
0
LINE
5
140
100
AcDbEntity
8
0
100
AcDbLine
10
90.499999999999758
20
-61.499999999999993
30
0
11
89.981766601257959
21
-60.722649901884523
31
0
0
ARC
5
141
100
AcDbEntity
8
0
100
AcDbCircle
10
89.565741454090926
20
-61
30
0
40
0.50000000000000711
210
0
220
0
230
1
100
AcDbArc
50
-89.999999999970697
51
33.690067526371372
0
LINE
5
142
100
AcDbEntity
8
0
100
AcDbLine
10
89.981766601257959
20
-60.722649901884537
30
0
11
88.500000000000014
21
-58.499999999997897
31
0
0
LINE
5
143
100
AcDbEntity
8
0
100
AcDbLine
10
85.5
20
-58.499999999997897
30
0
11
84.018233398746744
21
-60.722649901887635
31
0
0
LINE
5
144
100
AcDbEntity
8
0
100
AcDbLine
10
83.499999999999801
20
-61.5
30
0
11
84.018233398746702
21
-60.722649901887635
31
0
0
ARC
5
145
100
AcDbEntity
8
0
100
AcDbCircle
10
84.434258545915895
20
-60.999999999999908
30
0
40
0.50000000000000366
210
0
220
0
230
1
100
AcDbArc
50
146.30993247406741
51
270.00000000003905
0
LINE
5
146
100
AcDbEntity
8
0
100
AcDbLine
10
85.5
20
50
30
0
11
85.5
21
-58.499999999997897
31
0
0
LINE
5
147
100
AcDbEntity
8
0
100
AcDbLine
10
88.500000000000014
20
-58.499999999997897
30
0
11
88.499999999999972
21
50
31
0
0
ARC
5
148
100
AcDbEntity
8
0
100
AcDbCircle
10
87
20
50
30
0
40
1.4999999999999858
210
0
220
0
230
1
100
AcDbArc
50
0
51
180
0
LINE
5
149
100
AcDbEntity
8
0
100
AcDbLine
10
61.499999999999758
20
-61.499999999999993
30
0
11
60.981766601257959
21
-60.722649901884523
31
0
0
ARC
5
150
100
AcDbEntity
8
0
100
AcDbCircle
10
60.565741454090933
20
-61
30
0
40
0.50000000000000711
210
0
220
0
230
1
100
AcDbArc
50
-89.999999999973127
51
33.69006752637182
0
LINE
5
151
100
AcDbEntity
8
0
100
AcDbLine
10
60.981766601257959
20
-60.722649901884537
30
0
11
59.500000000000014
21
-58.499999999997897
31
0
0
LINE
5
152
100
AcDbEntity
8
0
100
AcDbLine
10
56.5
20
-58.499999999997897
30
0
11
55.01823339874673
21
-60.722649901887635
31
0
0
LINE
5
153
100
AcDbEntity
8
0
100
AcDbLine
10
54.499999999999787
20
-61.5
30
0
11
55.018233398746695
21
-60.722649901887635
31
0
0
ARC
5
154
100
AcDbEntity
8
0
100
AcDbCircle
10
55.434258545915895
20
-60.999999999999908
30
0
40
0.5000000000000111
210
0
220
0
230
1
100
AcDbArc
50
146.30993247406832
51
270.00000000003905
0
LINE
5
155
100
AcDbEntity
8
0
100
AcDbLine
10
56.5
20
50
30
0
11
56.5
21
-58.499999999997897
31
0
0
LINE
5
156
100
AcDbEntity
8
0
100
AcDbLine
10
59.500000000000014
20
-58.499999999997897
30
0
11
59.499999999999972
21
50
31
0
0
ARC
5
157
100
AcDbEntity
8
0
100
AcDbCircle
10
57.999999999999986
20
50
30
0
40
1.4999999999999858
210
0
220
0
230
1
100
AcDbArc
50
0
51
180
0
LINE
5
158
100
AcDbEntity
8
0
100
AcDbLine
10
32.499999999999751
20
-61.499999999999993
30
0
11
31.981766601257959
21
-60.722649901884523
31
0
0
ARC
5
159
100
AcDbEntity
8
0
100
AcDbCircle
10
31.565741454090926
20
-61
30
0
40
0.50000000000000711
210
0
220
0
230
1
100
AcDbArc
50
-89.999999999972317
51
33.690067526371372
0
LINE
5
160
100
AcDbEntity
8
0
100
AcDbLine
10
31.981766601257959
20
-60.722649901884537
30
0
11
30.500000000000007
21
-58.499999999997897
31
0
0
LINE
5
161
100
AcDbEntity
8
0
100
AcDbLine
10
27.5
20
-58.499999999997897
30
0
11
26.01823339874673
21
-60.722649901887635
31
0
0
LINE
5
162
100
AcDbEntity
8
0
100
AcDbLine
10
25.499999999999787
20
-61.5
30
0
11
26.018233398746695
21
-60.722649901887635
31
0
0
ARC
5
163
100
AcDbEntity
8
0
100
AcDbCircle
10
26.434258545915892
20
-60.999999999999908
30
0
40
0.5000000000000111
210
0
220
0
230
1
100
AcDbArc
50
146.30993247406809
51
270.00000000003905
0
LINE
5
164
100
AcDbEntity
8
0
100
AcDbLine
10
27.5
20
50
30
0
11
27.5
21
-58.499999999997897
31
0
0
LINE
5
165
100
AcDbEntity
8
0
100
AcDbLine
10
30.500000000000007
20
-58.499999999997897
30
0
11
30.499999999999972
21
50
31
0
0
ARC
5
166
100
AcDbEntity
8
0
100
AcDbCircle
10
28.999999999999986
20
50
30
0
40
1.4999999999999858
210
0
220
0
230
1
100
AcDbArc
50
0
51
180
0
LINE
5
167
100
AcDbEntity
8
0
100
AcDbLine
10
3.4999999999997322
20
-61.499999999999993
30
0
11
2.9817666012579358
21
-60.722649901884523
31
0
0
ARC
5
168
100
AcDbEntity
8
0
100
AcDbCircle
10
2.565741454090904
20
-61
30
0
40
0.50000000000000711
210
0
220
0
230
1
100
AcDbArc
50
-89.999999999972005
51
33.690067526371472
0
LINE
5
169
100
AcDbEntity
8
0
100
AcDbLine
10
2.9817666012579358
20
-60.722649901884537
30
0
11
1.4999999999999858
21
-58.499999999997897
31
0
0
LINE
5
170
100
AcDbEntity
8
0
100
AcDbLine
10
-1.5000000000000213
20
-58.499999999997897
30
0
11
-2.9817666012532906
21
-60.722649901887635
31
0
0
LINE
5
171
100
AcDbEntity
8
0
100
AcDbLine
10
-3.5000000000002363
20
-61.5
30
0
11
-2.9817666012533262
21
-60.722649901887635
31
0
0
ARC
5
172
100
AcDbEntity
8
0
100
AcDbCircle
10
-2.5657414540841317
20
-60.999999999999908
30
0
40
0.50000000000000744
210
0
220
0
230
1
100
AcDbArc
50
146.30993247406792
51
270.00000000003945
0
LINE
5
173
100
AcDbEntity
8
0
100
AcDbLine
10
-1.5000000000000213
20
50
30
0
11
-1.5000000000000213
21
-58.499999999997897
31
0
0
LINE
5
174
100
AcDbEntity
8
0
100
AcDbLine
10
1.4999999999999858
20
-58.499999999997897
30
0
11
1.4999999999999503
21
50
31
0
0
ARC
5
175
100
AcDbEntity
8
0
100
AcDbCircle
10
-3.5527136788005009e-14
20
50
30
0
40
1.4999999999999858
210
0
220
0
230
1
100
AcDbArc
50
0
51
180
0
LINE
5
176
100
AcDbEntity
8
0
100
AcDbLine
10
-25.500000000000256
20
-61.499999999999993
30
0
11
-26.018233398742048
21
-60.722649901884523
31
0
0
ARC
5
177
100
AcDbEntity
8
0
100
AcDbCircle
10
-26.434258545909081
20
-61
30
0
40
0.50000000000000711
210
0
220
0
230
1
100
AcDbArc
50
-89.999999999972317
51
33.690067526371372
0
LINE
5
178
100
AcDbEntity
8
0
100
AcDbLine
10
-26.018233398742048
20
-60.722649901884537
30
0
11
-27.5
21
-58.499999999997897
31
0
0
LINE
5
179
100
AcDbEntity
8
0
100
AcDbLine
10
-30.500000000000007
20
-58.499999999997897
30
0
11
-31.981766601253277
21
-60.722649901887635
31
0
0
LINE
5
180
100
AcDbEntity
8
0
100
AcDbLine
10
-32.50000000000022
20
-61.5
30
0
11
-31.981766601253312
21
-60.722649901887635
31
0
0
ARC
5
181
100
AcDbEntity
8
0
100
AcDbCircle
10
-31.565741454084115
20
-60.999999999999908
30
0
40
0.5000000000000111
210
0
220
0
230
1
100
AcDbArc
50
146.30993247406809
51
270.00000000003905
0
LINE
5
182
100
AcDbEntity
8
0
100
AcDbLine
10
-30.500000000000007
20
50
30
0
11
-30.500000000000007
21
-58.499999999997897
31
0
0
LINE
5
183
100
AcDbEntity
8
0
100
AcDbLine
10
-27.5
20
-58.499999999997897
30
0
11
-27.500000000000036
21
50
31
0
0
ARC
5
184
100
AcDbEntity
8
0
100
AcDbCircle
10
-29.000000000000021
20
50
30
0
40
1.4999999999999858
210
0
220
0
230
1
100
AcDbArc
50
0
51
180
0
LINE
5
185
100
AcDbEntity
8
0
100
AcDbLine
10
-54.500000000000242
20
-61.499999999999993
30
0
11
-55.018233398742034
21
-60.722649901884523
31
0
0
ARC
5
186
100
AcDbEntity
8
0
100
AcDbCircle
10
-55.434258545909067
20
-61
30
0
40
0.50000000000000711
210
0
220
0
230
1
100
AcDbArc
50
-89.999999999972317
51
33.690067526371372
0
LINE
5
187
100
AcDbEntity
8
0
100
AcDbLine
10
-55.018233398742034
20
-60.722649901884537
30
0
11
-56.499999999999986
21
-58.499999999997897
31
0
0
LINE
5
188
100
AcDbEntity
8
0
100
AcDbLine
10
-59.499999999999993
20
-58.499999999997897
30
0
11
-60.981766601253263
21
-60.722649901887635
31
0
0
LINE
5
189
100
AcDbEntity
8
0
100
AcDbLine
10
-61.500000000000206
20
-61.5
30
0
11
-60.981766601253298
21
-60.722649901887635
31
0
0
ARC
5
190
100
AcDbEntity
8
0
100
AcDbCircle
10
-60.565741454084105
20
-60.999999999999908
30
0
40
0.5000000000000111
210
0
220
0
230
1
100
AcDbArc
50
146.30993247406789
51
270.00000000003905
0
LINE
5
191
100
AcDbEntity
8
0
100
AcDbLine
10
-59.499999999999993
20
50
30
0
11
-59.499999999999993
21
-58.499999999997897
31
0
0
LINE
5
192
100
AcDbEntity
8
0
100
AcDbLine
10
-56.499999999999986
20
-58.499999999997897
30
0
11
-56.500000000000021
21
50
31
0
0
ARC
5
193
100
AcDbEntity
8
0
100
AcDbCircle
10
-58.000000000000007
20
50
30
0
40
1.4999999999999858
210
0
220
0
230
1
100
AcDbArc
50
0
51
180
0
LINE
5
194
100
AcDbEntity
8
0
100
AcDbLine
10
-83.500000000000256
20
-61.499999999999993
30
0
11
-84.018233398742055
21
-60.722649901884523
31
0
0
ARC
5
195
100
AcDbEntity
8
0
100
AcDbCircle
10
-84.434258545909103
20
-61
30
0
40
0.50000000000000711
210
0
220
0
230
1
100
AcDbArc
50
-89.999999999970697
51
33.690067526370449
0
LINE
5
196
100
AcDbEntity
8
0
100
AcDbLine
10
-84.018233398742055
20
-60.722649901884537
30
0
11
-85.5
21
-58.499999999997897
31
0
0
LINE
5
197
100
AcDbEntity
8
0
100
AcDbLine
10
-88.500000000000014
20
-58.499999999997897
30
0
11
-89.98176660125327
21
-60.722649901887635
31
0
0
LINE
5
198
100
AcDbEntity
8
0
100
AcDbLine
10
-90.500000000000227
20
-61.5
30
0
11
-89.981766601253312
21
-60.722649901887635
31
0
0
ARC
5
199
100
AcDbEntity
8
0
100
AcDbCircle
10
-89.565741454084119
20
-60.999999999999908
30
0
40
0.50000000000000366
210
0
220
0
230
1
100
AcDbArc
50
146.30993247406741
51
270.00000000003746
0
LINE
5
200
100
AcDbEntity
8
0
100
AcDbLine
10
-88.500000000000014
20
50
30
0
11
-88.500000000000014
21
-58.499999999997897
31
0
0
LINE
5
201
100
AcDbEntity
8
0
100
AcDbLine
10
-85.5
20
-58.499999999997897
30
0
11
-85.500000000000043
21
50
31
0
0
ARC
5
202
100
AcDbEntity
8
0
100
AcDbCircle
10
-87.000000000000028
20
50
30
0
40
1.4999999999999858
210
0
220
0
230
1
100
AcDbArc
50
0
51
180
0
LINE
5
203
100
AcDbEntity
8
0
100
AcDbLine
10
-112.50000000000028
20
-61.499999999999993
30
0
11
-113.01823339874207
21
-60.722649901884523
31
0
0
ARC
5
204
100
AcDbEntity
8
0
100
AcDbCircle
10
-113.43425854590912
20
-61
30
0
40
0.50000000000000711
210
0
220
0
230
1
100
AcDbArc
50
-89.999999999972317
51
33.690067526370449
0
LINE
5
205
100
AcDbEntity
8
0
100
AcDbLine
10
-113.01823339874207
20
-60.722649901884537
30
0
11
-114.50000000000003
21
-58.499999999997897
31
0
0
LINE
5
206
100
AcDbEntity
8
0
100
AcDbLine
10
-117.50000000000003
20
-58.499999999997897
30
0
11
-118.9817666012533
21
-60.722649901887635
31
0
0
LINE
5
207
100
AcDbEntity
8
0
100
AcDbLine
10
-119.50000000000024
20
-61.5
30
0
11
-118.98176660125333
21
-60.722649901887635
31
0
0
ARC
5
208
100
AcDbEntity
8
0
100
AcDbCircle
10
-118.56574145408415
20
-60.999999999999908
30
0
40
0.50000000000000366
210
0
220
0
230
1
100
AcDbArc
50
146.30993247406741
51
270.00000000003905
0
LINE
5
209
100
AcDbEntity
8
0
100
AcDbLine
10
-117.50000000000003
20
50
30
0
11
-117.50000000000003
21
-58.499999999997897
31
0
0
LINE
5
210
100
AcDbEntity
8
0
100
AcDbLine
10
-114.50000000000003
20
-58.499999999997897
30
0
11
-114.50000000000006
21
50
31
0
0
ARC
5
211
100
AcDbEntity
8
0
100
AcDbCircle
10
-116.00000000000006
20
50
30
0
40
1.4999999999999858
210
0
220
0
230
1
100
AcDbArc
50
0
51
180
0
LINE
5
212
100
AcDbEntity
8
0
100
AcDbLine
10
-141.50000000000028
20
-61.499999999999993
30
0
11
-142.01823339874207
21
-60.722649901884523
31
0
0
ARC
5
213
100
AcDbEntity
8
0
100
AcDbCircle
10
-142.4342585459091
20
-61
30
0
40
0.50000000000000711
210
0
220
0
230
1
100
AcDbArc
50
-89.999999999970697
51
33.690067526371372
0
LINE
5
214
100
AcDbEntity
8
0
100
AcDbLine
10
-142.01823339874207
20
-60.722649901884537
30
0
11
-143.5
21
-58.499999999997897
31
0
0
LINE
5
215
100
AcDbEntity
8
0
100
AcDbLine
10
-146.50000000000003
20
-58.499999999997897
30
0
11
-147.9817666012533
21
-60.722649901887635
31
0
0
LINE
5
216
100
AcDbEntity
8
0
100
AcDbLine
10
-148.50000000000023
20
-61.5
30
0
11
-147.98176660125333
21
-60.722649901887635
31
0
0
ARC
5
217
100
AcDbEntity
8
0
100
AcDbCircle
10
-147.56574145408413
20
-60.999999999999908
30
0
40
0.50000000000000366
210
0
220
0
230
1
100
AcDbArc
50
146.30993247406832
51
270.00000000003905
0
LINE
5
218
100
AcDbEntity
8
0
100
AcDbLine
10
-146.50000000000003
20
50
30
0
11
-146.50000000000003
21
-58.499999999997897
31
0
0
LINE
5
219
100
AcDbEntity
8
0
100
AcDbLine
10
-143.5
20
-58.499999999997897
30
0
11
-143.50000000000006
21
50
31
0
0
ARC
5
220
100
AcDbEntity
8
0
100
AcDbCircle
10
-145.00000000000003
20
50
30
0
40
1.4999999999999858
210
0
220
0
230
1
100
AcDbArc
50
0
51
180
0
LINE
5
221
100
AcDbEntity
8
0
100
AcDbLine
10
-170.50000000000026
20
-61.499999999999993
30
0
11
-171.01823339874204
21
-60.722649901884523
31
0
0
ARC
5
222
100
AcDbEntity
8
0
100
AcDbCircle
10
-171.43425854590907
20
-61
30
0
40
0.50000000000000711
210
0
220
0
230
1
100
AcDbArc
50
-89.999999999973952
51
33.690067526371372
0
LINE
5
223
100
AcDbEntity
8
0
100
AcDbLine
10
-171.01823339874204
20
-60.722649901884537
30
0
11
-172.5
21
-58.499999999997897
31
0
0
LINE
5
224
100
AcDbEntity
8
0
100
AcDbLine
10
-175.5
20
-58.499999999997897
30
0
11
-176.98176660125327
21
-60.722649901887635
31
0
0
LINE
5
225
100
AcDbEntity
8
0
100
AcDbLine
10
-177.50000000000023
20
-61.5
30
0
11
-176.9817666012533
21
-60.722649901887635
31
0
0
ARC
5
226
100
AcDbEntity
8
0
100
AcDbCircle
10
-176.56574145408413
20
-60.999999999999908
30
0
40
0.4999999999999889
210
0
220
0
230
1
100
AcDbArc
50
146.30993247406653
51
270.00000000004235
0
LINE
5
227
100
AcDbEntity
8
0
100
AcDbLine
10
-175.5
20
50
30
0
11
-175.5
21
-58.499999999997897
31
0
0
LINE
5
228
100
AcDbEntity
8
0
100
AcDbLine
10
-172.5
20
-58.499999999997897
30
0
11
-172.50000000000003
21
50
31
0
0
ARC
5
229
100
AcDbEntity
8
0
100
AcDbCircle
10
-174.00000000000003
20
50
30
0
40
1.4999999999999858
210
0
220
0
230
1
100
AcDbArc
50
0
51
180
0
LINE
5
230
100
AcDbEntity
8
0
100
AcDbLine
10
-199.50000000000031
20
-61.499999999999993
30
0
11
-200.0182333987421
21
-60.722649901884523
31
0
0
ARC
5
231
100
AcDbEntity
8
0
100
AcDbCircle
10
-200.43425854590913
20
-61
30
0
40
0.50000000000000711
210
0
220
0
230
1
100
AcDbArc
50
-89.999999999973952
51
33.690067526371372
0
LINE
5
232
100
AcDbEntity
8
0
100
AcDbLine
10
-200.0182333987421
20
-60.722649901884537
30
0
11
-201.50000000000006
21
-58.499999999997897
31
0
0
LINE
5
233
100
AcDbEntity
8
0
100
AcDbLine
10
-204.50000000000006
20
-58.499999999997897
30
0
11
-205.98176660125333
21
-60.722649901887635
31
0
0
LINE
5
234
100
AcDbEntity
8
0
100
AcDbLine
10
-206.50000000000028
20
-61.5
30
0
11
-205.98176660125336
21
-60.722649901887635
31
0
0
ARC
5
235
100
AcDbEntity
8
0
100
AcDbCircle
10
-205.56574145408419
20
-60.999999999999908
30
0
40
0.4999999999999889
210
0
220
0
230
1
100
AcDbArc
50
146.30993247406653
51
270.00000000004235
0
LINE
5
236
100
AcDbEntity
8
0
100
AcDbLine
10
-204.50000000000006
20
50
30
0
11
-204.50000000000006
21
-58.499999999997897
31
0
0
LINE
5
237
100
AcDbEntity
8
0
100
AcDbLine
10
-201.50000000000006
20
-58.499999999997897
30
0
11
-201.50000000000009
21
50
31
0
0
ARC
5
238
100
AcDbEntity
8
0
100
AcDbCircle
10
-203.00000000000009
20
50
30
0
40
1.4999999999999858
210
0
220
0
230
1
100
AcDbArc
50
0
51
180
0
ENDSEC
0
SECTION
2
OBJECTS
0
DICTIONARY
5
C
100
AcDbDictionary
3
ACAD_GROUP
350
D
3
ACAD_MLINESTYLE
350
17
0
DICTIONARY
5
D
100
AcDbDictionary
0
DICTIONARY
5
1A
330
C
100
AcDbDictionary
0
DICTIONARY
5
17
100
AcDbDictionary
0
ENDSEC
0
EOF
