0
SECTION
2
HEADER
9
$INSUNITS
70
4
9
$ACADVER
1
AC1014
9
$HANDSEED
5
FFFF
0
ENDSEC
0
SECTION
2
TABLES
0
TABLE
2
VPORT
5
8
100
AcDbSymbolTable
0
ENDTAB
0
TABLE
2
LTYPE
5
5
100
AcDbSymbolTable
0
LTYPE
5
14
100
AcDbSymbolTableRecord
100
AcDbLinetypeTableRecord
2
BYBLOCK
70
0
0
LTYPE
5
15
100
AcDbSymbolTableRecord
100
AcDbLinetypeTableRecord
2
BYLAYER
70
0
0
LTYPE
5
16
100
AcDbSymbolTableRecord
100
AcDbLinetypeTableRecord
2
DASHED
70
0
3
Dashed __ __ __ __ __ __ __ __ __ __ __ __ __ _
72
65
73
2
40
0.75
49
0.5
74
0
49
-0.25
74
0
0
ENDTAB
0
TABLE
2
LAYER
5
2
100
AcDbSymbolTable
70
2
0
LAYER
5
50
100
AcDbSymbolTableRecord
100
AcDbLayerTableRecord
2
0
70
0
62
7
6
CONTINUOUS
0
ENDTAB
0
TABLE
2
STYLE
5
3
100
AcDbSymbolTable
70
1
0
STYLE
5
11
100
AcDbSymbolTableRecord
100
AcDbTextStyleTableRecord
2
STANDARD
70
0
0
ENDTAB
0
TABLE
2
VIEW
5
6
100
AcDbSymbolTable
70
0
0
ENDTAB
0
TABLE
2
UCS
5
7
100
AcDbSymbolTable
70
0
0
ENDTAB
0
TABLE
2
APPID
5
9
100
AcDbSymbolTable
70
2
0
APPID
5
12
100
AcDbSymbolTableRecord
100
AcDbRegAppTableRecord
2
ACAD
70
0
0
ENDTAB
0
TABLE
2
DIMSTYLE
5
A
100
AcDbSymbolTable
70
1
0
ENDTAB
0
TABLE
2
BLOCK_RECORD
5
1
100
AcDbSymbolTable
70
1
0
BLOCK_RECORD
5
1F
100
AcDbSymbolTableRecord
100
AcDbBlockTableRecord
2
*MODEL_SPACE
0
BLOCK_RECORD
5
1B
100
AcDbSymbolTableRecord
100
AcDbBlockTableRecord
2
*PAPER_SPACE
0
ENDTAB
0
ENDSEC
0
SECTION
2
BLOCKS
0
BLOCK
5
20
100
AcDbEntity
100
AcDbBlockBegin
2
*MODEL_SPACE
0
ENDBLK
5
21
100
AcDbEntity
100
AcDbBlockEnd
0
BLOCK
5
1C
100
AcDbEntity
100
AcDbBlockBegin
2
*PAPER_SPACE
0
ENDBLK
5
1D
100
AcDbEntity
100
AcDbBlockEnd
0
ENDSEC
0
SECTION
2
ENTITIES
0
LWPOLYLINE
5
100
100
AcDbEntity
8
0
100
AcDbPolyline
90
94
70
1
43
0.0
10
-177.50000436677522
20
-52.499999999999993
10
-175.49999999999827
20
-49.499999999999972
10
-175.49999999999997
20
49.999999999999964
42
-0.99999999999999989
10
-172.50000000000006
20
50
10
-172.5
20
-49.499999999999986
10
-170.50000436676578
20
-52.499999999999986
10
-148.50000436677522
20
-52.499999999999993
10
-146.49999999999829
20
-49.499999999999972
10
-146.5
20
50
42
-0.99999999999999989
10
-143.50000000000009
20
50
10
-143.5
20
-49.499999999999986
10
-141.50000436676581
20
-52.499999999999986
10
-119.50000436677524
20
-52.499999999999993
10
-117.49999999999829
20
-49.499999999999972
10
-117.49999999999997
20
50
42
-0.99999999999999989
10
-114.50000000000006
20
50
10
-114.50000000000003
20
-49.499999999999986
10
-112.50000436676581
20
-52.499999999999986
10
-90.500004366775215
20
-52.499999999999993
10
-88.499999999998266
20
-49.499999999999972
10
-88.499999999999943
20
50
42
-0.99999999999999989
10
-85.500000000000043
20
50
10
-85.5
20
-49.499999999999986
10
-83.500004366765793
20
-52.499999999999986
10
-61.500004366775194
20
-52.499999999999993
10
-59.499999999998252
20
-49.499999999999972
10
-59.499999999999957
20
50
42
-0.99999999999999989
10
-56.500000000000057
20
50
10
-56.499999999999986
20
-49.499999999999986
10
-54.500004366765751
20
-52.499999999999986
10
-32.500004366775208
20
-52.499999999999993
10
-30.499999999998266
20
-49.499999999999972
10
-30.499999999999936
20
50
42
-0.99999999999999989
10
-27.500000000000036
20
50
10
-27.5
20
-49.499999999999986
10
-25.500004366765765
20
-52.499999999999986
10
-3.5000043667752223
20
-52.499999999999993
10
-1.4999999999982805
20
-49.499999999999972
10
-1.4999999999999147
20
50
42
-0.99999999999999989
10
1.4999999999999858
20
50
10
1.4999999999999858
20
-49.499999999999986
10
3.4999956332342208
20
-52.499999999999986
10
25.499995633224799
20
-52.499999999999993
10
27.500000000001741
20
-49.499999999999972
10
27.500000000000071
20
50
42
-0.99999999999999989
10
30.499999999999972
20
50
10
30.500000000000007
20
-49.499999999999986
10
32.499995633234242
20
-52.499999999999986
10
54.49999563322482
20
-52.499999999999993
10
56.500000000001727
20
-49.499999999999972
10
56.500000000000092
20
50
42
-0.99999999999999989
10
59.499999999999993
20
50
10
59.499999999999993
20
-49.499999999999986
10
61.499995633234228
20
-52.499999999999986
10
83.499995633224813
20
-52.499999999999993
10
85.500000000001748
20
-49.499999999999972
10
85.500000000000099
20
50
42
-0.99999999999999989
10
88.5
20
50
10
88.500000000000014
20
-49.499999999999986
10
90.499995633234221
20
-52.499999999999986
10
112.49999563322478
20
-52.499999999999993
10
114.50000000000176
20
-49.499999999999972
10
114.5000000000001
20
50
42
-0.99999999999999989
10
117.5
20
50
10
117.50000000000003
20
-49.499999999999986
10
119.49999563323424
20
-52.499999999999986
10
141.49999563322481
20
-52.499999999999993
10
143.50000000000176
20
-49.499999999999972
10
143.50000000000011
20
50
42
-0.99999999999999989
10
146.50000000000003
20
50
10
146.50000000000003
20
-49.499999999999986
10
148.49999563323425
20
-52.499999999999986
10
170.49999563322484
20
-52.499999999999993
10
172.50000000000173
20
-49.499999999999972
10
172.50000000000011
20
50.000000000000036
42
-0.99999999999999989
10
175.5
20
50
10
175.5
20
-49.499999999999986
10
177.49999563323425
20
-52.499999999999986
10
199.49999563322481
20
-52.499999999999993
10
201.50000000000179
20
-49.499999999999972
10
201.50000000000011
20
49.999999999999964
42
-0.99999999999999989
10
204.50000000000003
20
50
10
204.50000000000006
20
-49.499999999999986
10
206.49999563323422
20
-52.499999999999986
10
230.5
20
-52.499999999999986
10
230.5
20
56.5
10
-230.50000000000009
20
56.499999999999993
10
-230.50000000000006
20
-52.500000000000078
10
-206.50000436677527
20
-52.499999999999993
10
-204.49999999999832
20
-49.499999999999972
10
-204.49999999999994
20
49.999999999999964
42
-0.99999999999999989
10
-201.50000000000006
20
50
10
-201.50000000000006
20
-49.499999999999986
10
-199.50000436676584
20
-52.499999999999986
0
ARC
5
101
100
AcDbEntity
8
0
100
AcDbCircle
10
205.56573821864703
20
-51.999999999915531
30
0
40
0.50000000008444623
210
0
220
0
230
1
100
AcDbArc
50
-90.000000000006523
51
33.690009787948703
0
ARC
5
102
100
AcDbEntity
8
0
100
AcDbCircle
10
200.43425789231213
20
-51.999998618338196
30
0
40
0.50000138165667607
210
0
220
0
230
1
100
AcDbArc
50
146.30987473537118
51
269.99999999873955
0
ARC
5
103
100
AcDbEntity
8
0
100
AcDbCircle
10
171.43425789231213
20
-51.999998618338196
30
0
40
0.50000138165667607
210
0
220
0
230
1
100
AcDbArc
50
146.309874735373
51
269.99999999873631
0
ARC
5
104
100
AcDbEntity
8
0
100
AcDbCircle
10
176.56573821864703
20
-51.999999999915531
30
0
40
0.50000000008444623
210
0
220
0
230
1
100
AcDbArc
50
-90.000000000006523
51
33.690009787953912
0
ARC
5
105
100
AcDbEntity
8
0
100
AcDbCircle
10
142.43425789231213
20
-51.999998618338196
30
0
40
0.50000138165666119
210
0
220
0
230
1
100
AcDbArc
50
146.30987473536936
51
269.99999999873955
0
ARC
5
106
100
AcDbEntity
8
0
100
AcDbCircle
10
147.565738218647
20
-51.999999999915531
30
0
40
0.50000000008444623
210
0
220
0
230
1
100
AcDbArc
50
-90.000000000006523
51
33.690009787948703
0
ARC
5
107
100
AcDbEntity
8
0
100
AcDbCircle
10
118.565738218647
20
-51.999999999915531
30
0
40
0.50000000008444623
210
0
220
0
230
1
100
AcDbArc
50
-90.000000000008143
51
33.690009787948703
0
ARC
5
108
100
AcDbEntity
8
0
100
AcDbCircle
10
113.43425789231213
20
-51.999998618338196
30
0
40
0.50000138165666119
210
0
220
0
230
1
100
AcDbArc
50
146.3098747353703
51
269.99999999873796
0
ARC
5
109
100
AcDbEntity
8
0
100
AcDbCircle
10
84.434257892312132
20
-51.999998618338196
30
0
40
0.50000138165666119
210
0
220
0
230
1
100
AcDbArc
50
146.3098747353703
51
269.99999999873796
0
ARC
5
110
100
AcDbEntity
8
0
100
AcDbCircle
10
89.565738218646999
20
-51.999999999915531
30
0
40
0.50000000008444623
210
0
220
0
230
1
100
AcDbArc
50
-90.000000000008143
51
33.690009787949627
0
ARC
5
111
100
AcDbEntity
8
0
100
AcDbCircle
10
55.434257892312139
20
-51.999998618338196
30
0
40
0.50000138165666863
210
0
220
0
230
1
100
AcDbArc
50
146.30987473537118
51
269.99999999873552
0
ARC
5
112
100
AcDbEntity
8
0
100
AcDbCircle
10
60.565738218646992
20
-51.999999999915531
30
0
40
0.50000000008444623
210
0
220
0
230
1
100
AcDbArc
50
-90.000000000008143
51
33.690009787949627
0
ARC
5
113
100
AcDbEntity
8
0
100
AcDbCircle
10
31.565738218646992
20
-51.999999999915531
30
0
40
0.50000000008444623
210
0
220
0
230
1
100
AcDbArc
50
-90.000000000008143
51
33.690009787949158
0
ARC
5
114
100
AcDbEntity
8
0
100
AcDbCircle
10
26.434257892312132
20
-51.999998618338196
30
0
40
0.50000138165666863
210
0
220
0
230
1
100
AcDbArc
50
146.30987473537095
51
269.99999999873631
0
ARC
5
115
100
AcDbEntity
8
0
100
AcDbCircle
10
2.5657382186469695
20
-51.999999999915531
30
0
40
0.50000000008444623
210
0
220
0
230
1
100
AcDbArc
50
-90.000000000008143
51
33.690009787949101
0
ARC
5
116
100
AcDbEntity
8
0
100
AcDbCircle
10
-2.565742107687889
20
-51.999998618338196
30
0
40
0.50000138165666819
210
0
220
0
230
1
100
AcDbArc
50
146.30987473537101
51
269.9999999987362
0
ARC
5
117
100
AcDbEntity
8
0
100
AcDbCircle
10
-26.434261781353015
20
-51.999999999915531
30
0
40
0.50000000008444623
210
0
220
0
230
1
100
AcDbArc
50
-90.000000000008143
51
33.690009787949158
0
ARC
5
118
100
AcDbEntity
8
0
100
AcDbCircle
10
-31.565742107687875
20
-51.999998618338196
30
0
40
0.50000138165666863
210
0
220
0
230
1
100
AcDbArc
50
146.30987473537095
51
269.99999999873631
0
ARC
5
119
100
AcDbEntity
8
0
100
AcDbCircle
10
-60.565742107687861
20
-51.999998618338196
30
0
40
0.50000138165666863
210
0
220
0
230
1
100
AcDbArc
50
146.30987473537073
51
269.99999999873631
0
ARC
5
120
100
AcDbEntity
8
0
100
AcDbCircle
10
-55.434261781353001
20
-51.999999999915531
30
0
40
0.50000000008444623
210
0
220
0
230
1
100
AcDbArc
50
-90.000000000008143
51
33.690009787950075
0
ARC
5
121
100
AcDbEntity
8
0
100
AcDbCircle
10
-84.43426178135303
20
-51.999999999915531
30
0
40
0.50000000008444623
210
0
220
0
230
1
100
AcDbArc
50
-90.000000000008143
51
33.690009787948703
0
ARC
5
122
100
AcDbEntity
8
0
100
AcDbCircle
10
-89.565742107687896
20
-51.999998618338196
30
0
40
0.50000138165666119
210
0
220
0
230
1
100
AcDbArc
50
146.3098747353703
51
269.99999999873955
0
ARC
5
123
100
AcDbEntity
8
0
100
AcDbCircle
10
-113.43426178135304
20
-51.999999999915531
30
0
40
0.50000000008444623
210
0
220
0
230
1
100
AcDbArc
50
-90.000000000008143
51
33.690009787949627
0
ARC
5
124
100
AcDbEntity
8
0
100
AcDbCircle
10
-118.56574210768791
20
-51.999998618338196
30
0
40
0.50000138165666119
210
0
220
0
230
1
100
AcDbArc
50
146.3098747353703
51
269.99999999873796
0
ARC
5
125
100
AcDbEntity
8
0
100
AcDbCircle
10
-142.43426178135303
20
-51.999999999915531
30
0
40
0.50000000008444623
210
0
220
0
230
1
100
AcDbArc
50
-90.000000000009777
51
33.690009787948703
0
ARC
5
126
100
AcDbEntity
8
0
100
AcDbCircle
10
-147.5657421076879
20
-51.999998618338196
30
0
40
0.50000138165666119
210
0
220
0
230
1
100
AcDbArc
50
146.30987473537118
51
269.99999999873955
0
ARC
5
127
100
AcDbEntity
8
0
100
AcDbCircle
10
-171.434261781353
20
-51.999999999915531
30
0
40
0.50000000008444623
210
0
220
0
230
1
100
AcDbArc
50
-90.000000000009777
51
33.690009787948703
0
ARC
5
128
100
AcDbEntity
8
0
100
AcDbCircle
10
-176.56574210768787
20
-51.999998618338196
30
0
40
0.50000138165667607
210
0
220
0
230
1
100
AcDbArc
50
146.309874735373
51
269.99999999873631
0
ARC
5
129
100
AcDbEntity
8
0
100
AcDbCircle
10
-200.43426178135306
20
-51.999999999915531
30
0
40
0.50000000008444623
210
0
220
0
230
1
100
AcDbArc
50
-90.000000000009777
51
33.690009787948703
0
ARC
5
130
100
AcDbEntity
8
0
100
AcDbCircle
10
-205.56574210768792
20
-51.999998618338196
30
0
40
0.50000138165667607
210
0
220
0
230
1
100
AcDbArc
50
146.309874735373
51
269.99999999873631
0
LINE
5
131
100
AcDbEntity
8
0
100
AcDbLine
10
206.49999563323422
20
-52.499999999999986
30
0
11
199.49999563322481
21
-52.499999999999993
31
0
0
LINE
5
132
100
AcDbEntity
8
0
100
AcDbLine
10
177.49999563323425
20
-52.499999999999986
30
0
11
170.49999563322484
21
-52.499999999999993
31
0
0
LINE
5
133
100
AcDbEntity
8
0
100
AcDbLine
10
148.49999563323425
20
-52.499999999999986
30
0
11
141.49999563322481
21
-52.499999999999993
31
0
0
LINE
5
134
100
AcDbEntity
8
0
100
AcDbLine
10
119.49999563323424
20
-52.499999999999986
30
0
11
112.49999563322478
21
-52.499999999999993
31
0
0
LINE
5
135
100
AcDbEntity
8
0
100
AcDbLine
10
90.499995633234221
20
-52.499999999999986
30
0
11
83.499995633224813
21
-52.499999999999993
31
0
0
LINE
5
136
100
AcDbEntity
8
0
100
AcDbLine
10
61.499995633234228
20
-52.499999999999986
30
0
11
54.49999563322482
21
-52.499999999999993
31
0
0
LINE
5
137
100
AcDbEntity
8
0
100
AcDbLine
10
32.499995633234242
20
-52.499999999999986
30
0
11
25.499995633224799
21
-52.499999999999993
31
0
0
LINE
5
138
100
AcDbEntity
8
0
100
AcDbLine
10
3.4999956332342208
20
-52.499999999999986
30
0
11
-3.5000043667752223
21
-52.499999999999993
31
0
0
LINE
5
139
100
AcDbEntity
8
0
100
AcDbLine
10
-25.500004366765765
20
-52.499999999999986
30
0
11
-32.500004366775208
21
-52.499999999999993
31
0
0
LINE
5
140
100
AcDbEntity
8
0
100
AcDbLine
10
-54.500004366765751
20
-52.499999999999986
30
0
11
-61.500004366775194
21
-52.499999999999993
31
0
0
LINE
5
141
100
AcDbEntity
8
0
100
AcDbLine
10
-83.500004366765793
20
-52.499999999999986
30
0
11
-90.500004366775215
21
-52.499999999999993
31
0
0
LINE
5
142
100
AcDbEntity
8
0
100
AcDbLine
10
-112.50000436676581
20
-52.499999999999986
30
0
11
-119.50000436677524
21
-52.499999999999993
31
0
0
LINE
5
143
100
AcDbEntity
8
0
100
AcDbLine
10
-141.50000436676581
20
-52.499999999999986
30
0
11
-148.50000436677522
21
-52.499999999999993
31
0
0
LINE
5
144
100
AcDbEntity
8
0
100
AcDbLine
10
-170.50000436676578
20
-52.499999999999986
30
0
11
-177.50000436677522
21
-52.499999999999993
31
0
0
LINE
5
145
100
AcDbEntity
8
0
100
AcDbLine
10
-199.50000436676584
20
-52.499999999999986
30
0
11
-206.50000436677527
21
-52.499999999999993
31
0
0
ENDSEC
0
SECTION
2
OBJECTS
0
DICTIONARY
5
C
100
AcDbDictionary
3
ACAD_GROUP
350
D
3
ACAD_MLINESTYLE
350
17
0
DICTIONARY
5
D
100
AcDbDictionary
0
DICTIONARY
5
1A
330
C
100
AcDbDictionary
0
DICTIONARY
5
17
100
AcDbDictionary
0
ENDSEC
0
EOF
