<?xml version="1.0" encoding="UTF-8" standalone="no"?>
<!-- Created with Inkscape (http://www.inkscape.org/) -->

<svg
   width="461.26459mm"
   height="118.26467mm"
   viewBox="0 0 461.26459 118.26467"
   version="1.1"
   id="svg1"
   xml:space="preserve"
   inkscape:version="1.4 (e7c3feb1, 2024-10-09)"
   sodipodi:docname="keys.svg"
   xmlns:inkscape="http://www.inkscape.org/namespaces/inkscape"
   xmlns:sodipodi="http://sodipodi.sourceforge.net/DTD/sodipodi-0.dtd"
   xmlns="http://www.w3.org/2000/svg"
   xmlns:svg="http://www.w3.org/2000/svg"><sodipodi:namedview
     id="namedview1"
     pagecolor="#ffffff"
     bordercolor="#000000"
     borderopacity="0.25"
     inkscape:showpageshadow="2"
     inkscape:pageopacity="0.0"
     inkscape:pagecheckerboard="0"
     inkscape:deskcolor="#d1d1d1"
     inkscape:document-units="mm"
     inkscape:zoom="0.52410024"
     inkscape:cx="783.24711"
     inkscape:cy="320.54936"
     inkscape:window-width="1616"
     inkscape:window-height="849"
     inkscape:window-x="0"
     inkscape:window-y="38"
     inkscape:window-maximized="0"
     inkscape:current-layer="layer1" /><defs
     id="defs1"><marker
       id="DistanceX"
       orient="auto"
       refX="0"
       refY="0"
       style="overflow:visible"><path
         d="M 3,-3 -3,3 M 0,-5 V 5"
         style="stroke:#000000;stroke-width:0.5"
         id="path1" /></marker><pattern
       id="Hatch"
       patternUnits="userSpaceOnUse"
       width="8"
       height="8"
       x="0"
       y="0"><path
         d="M8 4 l-4,4"
         stroke="#000000"
         stroke-width="0.25"
         linecap="square"
         id="path2" /><path
         d="M6 2 l-4,4"
         stroke="#000000"
         stroke-width="0.25"
         linecap="square"
         id="path3" /><path
         d="M4 0 l-4,4"
         stroke="#000000"
         stroke-width="0.25"
         linecap="square"
         id="path4" /></pattern><symbol
       id="*MODEL_SPACE" /><symbol
       id="*PAPER_SPACE" /></defs><g
     inkscape:label="Layer 1"
     inkscape:groupmode="layer"
     id="layer1"
     transform="translate(122.15312,-89.298915)"><g
       id="g1"
       transform="matrix(0.26458333,0,0,0.26458333,108.47917,-151.06869)"><g
         inkscape:label="1"
         id="g6"
         style="display:none"><path
           style="fill:none;stroke:#000000"
           d="M 871.181,946.772 H -871.181"
           id="path5" /><path
           style="fill:none;stroke:#000000"
           d="M 871.181,1298.27 H -871.181"
           id="path6" /></g><g
         inkscape:label="0"
         id="g143"><path
           d="M 871.1811,1354.9606 V 908.97638 H -871.1811 v 445.98422 z"
           style="fill:none;stroke:#000000"
           id="path7" /><path
           style="fill:none;stroke:#000000"
           d="M 871.181,1354.96 H 780.472"
           id="path8" /><path
           d="M 772.91339,1343.622 V 933.54331 a 5.669295,5.669295 0 0 0 -11.33859,0 V 1343.622 l -5.60038,8.4006 a 1.889764,1.889764 0 0 0 1.57238,2.938 h 19.39458 a 1.889764,1.889764 0 0 0 1.57238,-2.938 z"
           style="fill:none;stroke:#000000"
           id="path9" /><path
           style="fill:none;stroke:#000000"
           d="M 871.181,1354.96 V 908.976"
           id="path10" /><path
           style="fill:none;stroke:#000000"
           d="M 871.181,908.976 H -871.181"
           id="path11" /><path
           style="fill:none;stroke:#000000"
           d="M -871.181,908.976 V 1354.96"
           id="path12" /><path
           style="fill:none;stroke:#000000"
           d="M -871.181,1354.96 H 754.016"
           id="path13" /><path
           style="fill:none;stroke:#000000"
           d="m 780.472,1354.96 -1.958,-2.94"
           id="path14" /><path
           style="fill:none;stroke:#000000"
           d="m 780.472,1354.96 h -3.531"
           id="path15" /><path
           style="fill:none;stroke:#000000"
           d="m 754.016,1354.96 1.958,-2.94"
           id="path16" /><path
           style="fill:none;stroke:#000000"
           d="m 754.016,1354.96 h 3.531"
           id="path17" /><path
           style="fill:none;stroke:#000000"
           d="m 670.866,1354.96 -1.959,-2.94"
           id="path18" /><path
           d="m 667.33509,1354.9606 a 1.889764,1.889764 0 0 0 1.57237,-2.938"
           style="fill:none;stroke:#000000"
           id="path19" /><path
           style="fill:none;stroke:#000000"
           d="m 668.907,1352.02 -5.6,-8.4"
           id="path20" /><path
           style="fill:none;stroke:#000000"
           d="m 651.969,1343.62 -5.601,8.4"
           id="path21" /><path
           style="fill:none;stroke:#000000"
           d="m 644.409,1354.96 1.959,-2.94"
           id="path22" /><path
           d="m 646.36813,1352.0226 a 1.889764,1.889764 0 0 0 1.57238,2.938"
           style="fill:none;stroke:#000000"
           id="path23" /><path
           style="fill:none;stroke:#000000"
           d="M 651.969,933.543 V 1343.62"
           id="path24" /><path
           style="fill:none;stroke:#000000"
           d="M 663.307,1343.62 V 933.543"
           id="path25" /><path
           d="m 663.30709,933.54331 a 5.669295,5.669295 0 0 0 -11.33859,0"
           style="fill:none;stroke:#000000"
           id="path26" /><path
           style="fill:none;stroke:#000000"
           d="m 561.26,1354.96 -1.959,-2.94"
           id="path27" /><path
           d="m 557.72879,1354.9606 a 1.889764,1.889764 0 0 0 1.57237,-2.938"
           style="fill:none;stroke:#000000"
           id="path28" /><path
           style="fill:none;stroke:#000000"
           d="m 559.301,1352.02 -5.6,-8.4"
           id="path29" /><path
           style="fill:none;stroke:#000000"
           d="m 542.362,1343.62 -5.6,8.4"
           id="path30" /><path
           style="fill:none;stroke:#000000"
           d="m 534.803,1354.96 1.959,-2.94"
           id="path31" /><path
           d="m 536.76183,1352.0226 a 1.889764,1.889764 0 0 0 1.57238,2.938"
           style="fill:none;stroke:#000000"
           id="path32" /><path
           style="fill:none;stroke:#000000"
           d="M 542.362,933.543 V 1343.62"
           id="path33" /><path
           style="fill:none;stroke:#000000"
           d="M 553.701,1343.62 V 933.543"
           id="path34" /><path
           d="m 553.70079,933.54331 a 5.669291,5.669291 0 0 0 -11.33858,0"
           style="fill:none;stroke:#000000"
           id="path35" /><path
           style="fill:none;stroke:#000000"
           d="m 451.654,1354.96 -1.959,-2.94"
           id="path36" /><path
           d="m 448.12249,1354.9606 a 1.889764,1.889764 0 0 0 1.57238,-2.938"
           style="fill:none;stroke:#000000"
           id="path37" /><path
           style="fill:none;stroke:#000000"
           d="m 449.695,1352.02 -5.601,-8.4"
           id="path38" /><path
           style="fill:none;stroke:#000000"
           d="m 432.756,1343.62 -5.6,8.4"
           id="path39" /><path
           style="fill:none;stroke:#000000"
           d="m 425.197,1354.96 1.959,-2.94"
           id="path40" /><path
           d="m 427.15553,1352.0226 a 1.889764,1.889764 0 0 0 1.57238,2.938"
           style="fill:none;stroke:#000000"
           id="path41" /><path
           style="fill:none;stroke:#000000"
           d="M 432.756,933.543 V 1343.62"
           id="path42" /><path
           style="fill:none;stroke:#000000"
           d="M 444.094,1343.62 V 933.543"
           id="path43" /><path
           d="m 444.09449,933.54331 a 5.669291,5.669291 0 0 0 -11.33858,0"
           style="fill:none;stroke:#000000"
           id="path44" /><path
           style="fill:none;stroke:#000000"
           d="m 342.047,1354.96 -1.958,-2.94"
           id="path45" /><path
           d="m 338.51619,1354.9606 a 1.889764,1.889764 0 0 0 1.57238,-2.938"
           style="fill:none;stroke:#000000"
           id="path46" /><path
           style="fill:none;stroke:#000000"
           d="m 340.089,1352.02 -5.601,-8.4"
           id="path47" /><path
           style="fill:none;stroke:#000000"
           d="m 323.15,1343.62 -5.601,8.4"
           id="path48" /><path
           style="fill:none;stroke:#000000"
           d="m 315.591,1354.96 1.958,-2.94"
           id="path49" /><path
           d="m 317.54923,1352.0226 a 1.889764,1.889764 0 0 0 1.57238,2.938"
           style="fill:none;stroke:#000000"
           id="path50" /><path
           style="fill:none;stroke:#000000"
           d="M 323.15,933.543 V 1343.62"
           id="path51" /><path
           style="fill:none;stroke:#000000"
           d="M 334.488,1343.62 V 933.543"
           id="path52" /><path
           d="m 334.48819,933.54331 a 5.6692915,5.6692915 0 0 0 -11.33858,0"
           style="fill:none;stroke:#000000"
           id="path53" /><path
           style="fill:none;stroke:#000000"
           d="m 232.441,1354.96 -1.959,-2.94"
           id="path54" /><path
           d="m 228.90989,1354.9606 a 1.889764,1.889764 0 0 0 1.57238,-2.938"
           style="fill:none;stroke:#000000"
           id="path55" /><path
           style="fill:none;stroke:#000000"
           d="m 230.482,1352.02 -5.6,-8.4"
           id="path56" /><path
           style="fill:none;stroke:#000000"
           d="m 213.543,1343.62 -5.6,8.4"
           id="path57" /><path
           style="fill:none;stroke:#000000"
           d="m 205.984,1354.96 1.959,-2.94"
           id="path58" /><path
           d="m 207.94293,1352.0226 a 1.889764,1.889764 0 0 0 1.57238,2.938"
           style="fill:none;stroke:#000000"
           id="path59" /><path
           style="fill:none;stroke:#000000"
           d="M 213.543,933.543 V 1343.62"
           id="path60" /><path
           style="fill:none;stroke:#000000"
           d="M 224.882,1343.62 V 933.543"
           id="path61" /><path
           d="m 224.88189,933.54331 a 5.6692915,5.6692915 0 0 0 -11.33858,0"
           style="fill:none;stroke:#000000"
           id="path62" /><path
           style="fill:none;stroke:#000000"
           d="m 122.835,1354.96 -1.959,-2.94"
           id="path63" /><path
           d="m 119.30359,1354.9606 a 1.889764,1.889764 0 0 0 1.57238,-2.938"
           style="fill:none;stroke:#000000"
           id="path64" /><path
           style="fill:none;stroke:#000000"
           d="m 120.876,1352.02 -5.6,-8.4"
           id="path65" /><path
           style="fill:none;stroke:#000000"
           d="m 103.937,1343.62 -5.6004,8.4"
           id="path66" /><path
           style="fill:none;stroke:#000000"
           d="m 96.378,1354.96 1.9586,-2.94"
           id="path67" /><path
           d="m 98.33663,1352.0226 a 1.889764,1.889764 0 0 0 1.572379,2.938"
           style="fill:none;stroke:#000000"
           id="path68" /><path
           style="fill:none;stroke:#000000"
           d="M 103.937,933.543 V 1343.62"
           id="path69" /><path
           style="fill:none;stroke:#000000"
           d="M 115.276,1343.62 V 933.543"
           id="path70" /><path
           d="m 115.27559,933.54331 a 5.6692915,5.6692915 0 0 0 -11.33858,0"
           style="fill:none;stroke:#000000"
           id="path71" /><path
           style="fill:none;stroke:#000000"
           d="m 13.2283,1354.96 -1.9586,-2.94"
           id="path72" /><path
           d="m 9.697291,1354.9606 a 1.889764,1.889764 0 0 0 1.572378,-2.938"
           style="fill:none;stroke:#000000"
           id="path73" /><path
           style="fill:none;stroke:#000000"
           d="m 11.2697,1352.02 -5.60041,-8.4"
           id="path74" /><path
           style="fill:none;stroke:#000000"
           d="m -5.66929,1343.62 -5.60041,8.4"
           id="path75" /><path
           style="fill:none;stroke:#000000"
           d="m -13.2283,1354.96 1.9586,-2.94"
           id="path76" /><path
           d="m -11.269669,1352.0226 a 1.889764,1.889764 0 0 0 1.572378,2.938"
           style="fill:none;stroke:#000000"
           id="path77" /><path
           style="fill:none;stroke:#000000"
           d="M -5.66929,933.543 V 1343.62"
           id="path78" /><path
           style="fill:none;stroke:#000000"
           d="M 5.66929,1343.62 V 933.543"
           id="path79" /><path
           d="m 5.669291,933.54331 a 5.669291,5.669291 0 0 0 -11.338582,0"
           style="fill:none;stroke:#000000"
           id="path80" /><path
           style="fill:none;stroke:#000000"
           d="m -96.378,1354.96 -1.9586,-2.94"
           id="path81" /><path
           d="m -99.909009,1354.9606 a 1.889764,1.889764 0 0 0 1.572379,-2.938"
           style="fill:none;stroke:#000000"
           id="path82" /><path
           style="fill:none;stroke:#000000"
           d="m -98.3366,1352.02 -5.6004,-8.4"
           id="path83" /><path
           style="fill:none;stroke:#000000"
           d="m -115.276,1343.62 -5.6,8.4"
           id="path84" /><path
           style="fill:none;stroke:#000000"
           d="m -122.835,1354.96 1.959,-2.94"
           id="path85" /><path
           d="m -120.87597,1352.0226 a 1.889764,1.889764 0 0 0 1.57238,2.938"
           style="fill:none;stroke:#000000"
           id="path86" /><path
           style="fill:none;stroke:#000000"
           d="M -115.276,933.543 V 1343.62"
           id="path87" /><path
           style="fill:none;stroke:#000000"
           d="M -103.937,1343.62 V 933.543"
           id="path88" /><path
           d="m -103.93701,933.54331 a 5.6692915,5.6692915 0 0 0 -11.33858,0"
           style="fill:none;stroke:#000000"
           id="path89" /><path
           style="fill:none;stroke:#000000"
           d="m -205.984,1354.96 -1.959,-2.94"
           id="path90" /><path
           d="m -209.51531,1354.9606 a 1.889764,1.889764 0 0 0 1.57238,-2.938"
           style="fill:none;stroke:#000000"
           id="path91" /><path
           style="fill:none;stroke:#000000"
           d="m -207.943,1352.02 -5.6,-8.4"
           id="path92" /><path
           style="fill:none;stroke:#000000"
           d="m -224.882,1343.62 -5.6,8.4"
           id="path93" /><path
           style="fill:none;stroke:#000000"
           d="m -232.441,1354.96 1.959,-2.94"
           id="path94" /><path
           d="m -230.48227,1352.0226 a 1.889764,1.889764 0 0 0 1.57238,2.938"
           style="fill:none;stroke:#000000"
           id="path95" /><path
           style="fill:none;stroke:#000000"
           d="M -224.882,933.543 V 1343.62"
           id="path96" /><path
           style="fill:none;stroke:#000000"
           d="M -213.543,1343.62 V 933.543"
           id="path97" /><path
           d="m -213.54331,933.54331 a 5.6692915,5.6692915 0 0 0 -11.33858,0"
           style="fill:none;stroke:#000000"
           id="path98" /><path
           style="fill:none;stroke:#000000"
           d="m -315.591,1354.96 -1.958,-2.94"
           id="path99" /><path
           d="m -319.12161,1354.9606 a 1.889764,1.889764 0 0 0 1.57238,-2.938"
           style="fill:none;stroke:#000000"
           id="path100" /><path
           style="fill:none;stroke:#000000"
           d="m -317.549,1352.02 -5.601,-8.4"
           id="path101" /><path
           style="fill:none;stroke:#000000"
           d="m -334.488,1343.62 -5.601,8.4"
           id="path102" /><path
           style="fill:none;stroke:#000000"
           d="m -342.047,1354.96 1.958,-2.94"
           id="path103" /><path
           d="m -340.08857,1352.0226 a 1.889764,1.889764 0 0 0 1.57238,2.938"
           style="fill:none;stroke:#000000"
           id="path104" /><path
           style="fill:none;stroke:#000000"
           d="M -334.488,933.543 V 1343.62"
           id="path105" /><path
           style="fill:none;stroke:#000000"
           d="M -323.15,1343.62 V 933.543"
           id="path106" /><path
           d="m -323.14961,933.54331 a 5.6692915,5.6692915 0 0 0 -11.33858,0"
           style="fill:none;stroke:#000000"
           id="path107" /><path
           style="fill:none;stroke:#000000"
           d="m -425.197,1354.96 -1.959,-2.94"
           id="path108" /><path
           d="m -428.72791,1354.9606 a 1.889764,1.889764 0 0 0 1.57238,-2.938"
           style="fill:none;stroke:#000000"
           id="path109" /><path
           style="fill:none;stroke:#000000"
           d="m -427.156,1352.02 -5.6,-8.4"
           id="path110" /><path
           style="fill:none;stroke:#000000"
           d="m -444.094,1343.62 -5.601,8.4"
           id="path111" /><path
           style="fill:none;stroke:#000000"
           d="m -451.654,1354.96 1.959,-2.94"
           id="path112" /><path
           d="m -449.69487,1352.0226 a 1.889764,1.889764 0 0 0 1.57238,2.938"
           style="fill:none;stroke:#000000"
           id="path113" /><path
           style="fill:none;stroke:#000000"
           d="M -444.094,933.543 V 1343.62"
           id="path114" /><path
           style="fill:none;stroke:#000000"
           d="M -432.756,1343.62 V 933.543"
           id="path115" /><path
           d="m -432.75591,933.54331 a 5.669291,5.669291 0 0 0 -11.33858,0"
           style="fill:none;stroke:#000000"
           id="path116" /><path
           style="fill:none;stroke:#000000"
           d="m -534.803,1354.96 -1.959,-2.94"
           id="path117" /><path
           d="m -538.33421,1354.9606 a 1.889764,1.889764 0 0 0 1.57238,-2.938"
           style="fill:none;stroke:#000000"
           id="path118" /><path
           style="fill:none;stroke:#000000"
           d="m -536.762,1352.02 -5.6,-8.4"
           id="path119" /><path
           style="fill:none;stroke:#000000"
           d="m -553.701,1343.62 -5.6,8.4"
           id="path120" /><path
           style="fill:none;stroke:#000000"
           d="m -561.26,1354.96 1.959,-2.94"
           id="path121" /><path
           d="m -559.30116,1352.0226 a 1.889764,1.889764 0 0 0 1.57237,2.938"
           style="fill:none;stroke:#000000"
           id="path122" /><path
           style="fill:none;stroke:#000000"
           d="M -553.701,933.543 V 1343.62"
           id="path123" /><path
           style="fill:none;stroke:#000000"
           d="M -542.362,1343.62 V 933.543"
           id="path124" /><path
           d="m -542.36221,933.54331 a 5.669291,5.669291 0 0 0 -11.33858,0"
           style="fill:none;stroke:#000000"
           id="path125" /><path
           style="fill:none;stroke:#000000"
           d="m -644.409,1354.96 -1.959,-2.94"
           id="path126" /><path
           d="m -647.94051,1354.9606 a 1.889764,1.889764 0 0 0 1.57238,-2.938"
           style="fill:none;stroke:#000000"
           id="path127" /><path
           style="fill:none;stroke:#000000"
           d="m -646.368,1352.02 -5.601,-8.4"
           id="path128" /><path
           style="fill:none;stroke:#000000"
           d="m -663.307,1343.62 -5.6,8.4"
           id="path129" /><path
           style="fill:none;stroke:#000000"
           d="m -670.866,1354.96 1.959,-2.94"
           id="path130" /><path
           d="m -668.90746,1352.0226 a 1.889764,1.889764 0 0 0 1.57237,2.938"
           style="fill:none;stroke:#000000"
           id="path131" /><path
           style="fill:none;stroke:#000000"
           d="M -663.307,933.543 V 1343.62"
           id="path132" /><path
           style="fill:none;stroke:#000000"
           d="M -651.969,1343.62 V 933.543"
           id="path133" /><path
           d="m -651.9685,933.54331 a 5.669295,5.669295 0 0 0 -11.33859,0"
           style="fill:none;stroke:#000000"
           id="path134" /><path
           style="fill:none;stroke:#000000"
           d="m -754.016,1354.96 -1.958,-2.94"
           id="path135" /><path
           d="m -757.5468,1354.9606 a 1.889764,1.889764 0 0 0 1.57238,-2.938"
           style="fill:none;stroke:#000000"
           id="path136" /><path
           style="fill:none;stroke:#000000"
           d="m -755.974,1352.02 -5.601,-8.4"
           id="path137" /><path
           style="fill:none;stroke:#000000"
           d="m -772.913,1343.62 -5.601,8.4"
           id="path138" /><path
           style="fill:none;stroke:#000000"
           d="m -780.472,1354.96 1.958,-2.94"
           id="path139" /><path
           d="m -778.51376,1352.0226 a 1.889764,1.889764 0 0 0 1.57238,2.938"
           style="fill:none;stroke:#000000"
           id="path140" /><path
           style="fill:none;stroke:#000000"
           d="M -772.913,933.543 V 1343.62"
           id="path141" /><path
           style="fill:none;stroke:#000000"
           d="M -761.575,1343.62 V 933.543"
           id="path142" /><path
           d="m -761.5748,933.54331 a 5.669295,5.669295 0 0 0 -11.33859,0"
           style="fill:none;stroke:#000000"
           id="path143" /></g></g></g></svg>
